<?xml version="1.0" encoding="UTF-8" standalone="no"?>
<!-- Created with Inkscape (http://www.inkscape.org/) -->

<svg
   xmlns:dc="http://purl.org/dc/elements/1.1/"
   xmlns:cc="http://creativecommons.org/ns#"
   xmlns:rdf="http://www.w3.org/1999/02/22-rdf-syntax-ns#"
   xmlns:svg="http://www.w3.org/2000/svg"
   xmlns="http://www.w3.org/2000/svg"
   xmlns:sodipodi="http://sodipodi.sourceforge.net/DTD/sodipodi-0.dtd"
   xmlns:inkscape="http://www.inkscape.org/namespaces/inkscape"
   id="svg3336"
   version="1.1"
   inkscape:version="0.91 r13725"
   xml:space="preserve"
   width="484.16406"
   height="368.58786"
   viewBox="0 0 484.16406 368.58786"
   sodipodi:docname="courbe_corrige.svg"><metadata
     id="metadata3342"><rdf:RDF><cc:Work
         rdf:about=""><dc:format>image/svg+xml</dc:format><dc:type
           rdf:resource="http://purl.org/dc/dcmitype/StillImage" /><dc:title /></cc:Work></rdf:RDF></metadata><defs
     id="defs3340"><clipPath
       clipPathUnits="userSpaceOnUse"
       id="clipPath3768"><path
         d="m 19.797,291.378 366.008,0 0,-276.004 -366.008,0 0,276.004 z"
         id="path3770"
         inkscape:connector-curvature="0" /></clipPath><clipPath
       clipPathUnits="userSpaceOnUse"
       id="clipPath3778"><path
         d="m 19,14 365,0 0,241 -365,0 0,-241 z"
         id="path3780"
         inkscape:connector-curvature="0" /></clipPath></defs><sodipodi:namedview
     pagecolor="#ffffff"
     bordercolor="#666666"
     borderopacity="1"
     objecttolerance="10"
     gridtolerance="10"
     guidetolerance="10"
     inkscape:pageopacity="0"
     inkscape:pageshadow="2"
     inkscape:window-width="1366"
     inkscape:window-height="705"
     id="namedview3338"
     showgrid="false"
     inkscape:zoom="1.5003207"
     inkscape:cx="242.08203"
     inkscape:cy="184.29393"
     inkscape:window-x="-8"
     inkscape:window-y="-8"
     inkscape:window-maximized="1"
     inkscape:current-layer="g3344" /><g
     id="g3344"
     inkscape:groupmode="layer"
     inkscape:label="courbe"
     transform="matrix(1.25,0,0,-1.25,0,368.58787)"><g
       id="g3346"><g
         id="g3348"
         transform="matrix(1,0,0,-1,0,294.8703)"><path
           d="m 19.801,279.496 0,-276"
           style="fill:none;stroke:#000000;stroke-width:0.80000001;stroke-linecap:butt;stroke-linejoin:miter;stroke-miterlimit:10;stroke-dasharray:3.2, 3.2;stroke-dashoffset:0;stroke-opacity:1"
           id="path3350"
           inkscape:connector-curvature="0" /></g><g
         id="g3352"
         transform="matrix(1,0,0,-1,0,294.8703)"><path
           d="m 56.402,279.496 0,-276"
           style="fill:none;stroke:#000000;stroke-width:0.80000001;stroke-linecap:butt;stroke-linejoin:miter;stroke-miterlimit:10;stroke-dasharray:3.2, 3.2;stroke-dashoffset:0;stroke-opacity:1"
           id="path3354"
           inkscape:connector-curvature="0" /></g><g
         id="g3356"
         transform="matrix(1,0,0,-1,0,294.8703)"><path
           d="m 93.004,279.496 0,-276"
           style="fill:none;stroke:#000000;stroke-width:0.80000001;stroke-linecap:butt;stroke-linejoin:miter;stroke-miterlimit:10;stroke-dasharray:3.2, 3.2;stroke-dashoffset:0;stroke-opacity:1"
           id="path3358"
           inkscape:connector-curvature="0" /></g><g
         id="g3360"
         transform="matrix(1,0,0,-1,0,294.8703)"><path
           d="m 129.602,279.496 0,-276"
           style="fill:none;stroke:#000000;stroke-width:0.80000001;stroke-linecap:butt;stroke-linejoin:miter;stroke-miterlimit:10;stroke-dasharray:3.2, 3.2;stroke-dashoffset:0;stroke-opacity:1"
           id="path3362"
           inkscape:connector-curvature="0" /></g><g
         id="g3364"
         transform="matrix(1,0,0,-1,0,294.8703)"><path
           d="m 166.203,279.496 0,-276"
           style="fill:none;stroke:#000000;stroke-width:0.80000001;stroke-linecap:butt;stroke-linejoin:miter;stroke-miterlimit:10;stroke-dasharray:3.2, 3.2;stroke-dashoffset:0;stroke-opacity:1"
           id="path3366"
           inkscape:connector-curvature="0" /></g><g
         id="g3368"
         transform="matrix(1,0,0,-1,0,294.8703)"><path
           d="m 202.801,279.496 0,-276"
           style="fill:none;stroke:#000000;stroke-width:0.80000001;stroke-linecap:butt;stroke-linejoin:miter;stroke-miterlimit:10;stroke-dasharray:3.2, 3.2;stroke-dashoffset:0;stroke-opacity:1"
           id="path3370"
           inkscape:connector-curvature="0" /></g><g
         id="g3372"
         transform="matrix(1,0,0,-1,0,294.8703)"><path
           d="m 239.402,279.496 0,-276"
           style="fill:none;stroke:#000000;stroke-width:0.80000001;stroke-linecap:butt;stroke-linejoin:miter;stroke-miterlimit:10;stroke-dasharray:3.2, 3.2;stroke-dashoffset:0;stroke-opacity:1"
           id="path3374"
           inkscape:connector-curvature="0" /></g><g
         id="g3376"
         transform="matrix(1,0,0,-1,0,294.8703)"><path
           d="m 276.004,279.496 0,-276"
           style="fill:none;stroke:#000000;stroke-width:0.80000001;stroke-linecap:butt;stroke-linejoin:miter;stroke-miterlimit:10;stroke-dasharray:3.2, 3.2;stroke-dashoffset:0;stroke-opacity:1"
           id="path3378"
           inkscape:connector-curvature="0" /></g><g
         id="g3380"
         transform="matrix(1,0,0,-1,0,294.8703)"><path
           d="m 312.602,279.496 0,-276"
           style="fill:none;stroke:#000000;stroke-width:0.80000001;stroke-linecap:butt;stroke-linejoin:miter;stroke-miterlimit:10;stroke-dasharray:3.2, 3.2;stroke-dashoffset:0;stroke-opacity:1"
           id="path3382"
           inkscape:connector-curvature="0" /></g><g
         id="g3384"
         transform="matrix(1,0,0,-1,0,294.8703)"><path
           d="m 349.203,279.496 0,-276"
           style="fill:none;stroke:#000000;stroke-width:0.80000001;stroke-linecap:butt;stroke-linejoin:miter;stroke-miterlimit:10;stroke-dasharray:3.2, 3.2;stroke-dashoffset:0;stroke-opacity:1"
           id="path3386"
           inkscape:connector-curvature="0" /></g><g
         id="g3388"
         transform="matrix(1,0,0,-1,0,294.8703)"><path
           d="m 385.801,279.496 0,-276"
           style="fill:none;stroke:#000000;stroke-width:0.80000001;stroke-linecap:butt;stroke-linejoin:miter;stroke-miterlimit:10;stroke-dasharray:3.2, 3.2;stroke-dashoffset:0;stroke-opacity:1"
           id="path3390"
           inkscape:connector-curvature="0" /></g><g
         id="g3392"
         transform="matrix(1,0,0,-1,0,294.8703)"><path
           d="m 19.801,279.496 366,0"
           style="fill:none;stroke:#000000;stroke-width:0.80000001;stroke-linecap:butt;stroke-linejoin:miter;stroke-miterlimit:10;stroke-dasharray:3.2, 3.2;stroke-dashoffset:0;stroke-opacity:1"
           id="path3394"
           inkscape:connector-curvature="0" /></g><g
         id="g3396"
         transform="matrix(1,0,0,-1,0,294.8703)"><path
           d="m 19.801,256.496 366,0"
           style="fill:none;stroke:#000000;stroke-width:0.80000001;stroke-linecap:butt;stroke-linejoin:miter;stroke-miterlimit:10;stroke-dasharray:3.2, 3.2;stroke-dashoffset:0;stroke-opacity:1"
           id="path3398"
           inkscape:connector-curvature="0" /></g><g
         id="g3400"
         transform="matrix(1,0,0,-1,0,294.8703)"><path
           d="m 19.801,233.496 366,0"
           style="fill:none;stroke:#000000;stroke-width:0.80000001;stroke-linecap:butt;stroke-linejoin:miter;stroke-miterlimit:10;stroke-dasharray:3.2, 3.2;stroke-dashoffset:0;stroke-opacity:1"
           id="path3402"
           inkscape:connector-curvature="0" /></g><g
         id="g3404"
         transform="matrix(1,0,0,-1,0,294.8703)"><path
           d="m 19.801,210.496 366,0"
           style="fill:none;stroke:#000000;stroke-width:0.80000001;stroke-linecap:butt;stroke-linejoin:miter;stroke-miterlimit:10;stroke-dasharray:3.2, 3.2;stroke-dashoffset:0;stroke-opacity:1"
           id="path3406"
           inkscape:connector-curvature="0" /></g><g
         id="g3408"
         transform="matrix(1,0,0,-1,0,294.8703)"><path
           d="m 19.801,187.496 366,0"
           style="fill:none;stroke:#000000;stroke-width:0.80000001;stroke-linecap:butt;stroke-linejoin:miter;stroke-miterlimit:10;stroke-dasharray:3.2, 3.2;stroke-dashoffset:0;stroke-opacity:1"
           id="path3410"
           inkscape:connector-curvature="0" /></g><g
         id="g3412"
         transform="matrix(1,0,0,-1,0,294.8703)"><path
           d="m 19.801,164.496 366,0"
           style="fill:none;stroke:#000000;stroke-width:0.80000001;stroke-linecap:butt;stroke-linejoin:miter;stroke-miterlimit:10;stroke-dasharray:3.2, 3.2;stroke-dashoffset:0;stroke-opacity:1"
           id="path3414"
           inkscape:connector-curvature="0" /></g><g
         id="g3416"
         transform="matrix(1,0,0,-1,0,294.8703)"><path
           d="m 19.801,141.496 366,0"
           style="fill:none;stroke:#000000;stroke-width:0.80000001;stroke-linecap:butt;stroke-linejoin:miter;stroke-miterlimit:10;stroke-dasharray:3.2, 3.2;stroke-dashoffset:0;stroke-opacity:1"
           id="path3418"
           inkscape:connector-curvature="0" /></g><g
         id="g3420"
         transform="matrix(1,0,0,-1,0,294.8703)"><path
           d="m 19.801,118.496 366,0"
           style="fill:none;stroke:#000000;stroke-width:0.80000001;stroke-linecap:butt;stroke-linejoin:miter;stroke-miterlimit:10;stroke-dasharray:3.2, 3.2;stroke-dashoffset:0;stroke-opacity:1"
           id="path3422"
           inkscape:connector-curvature="0" /></g><g
         id="g3424"
         transform="matrix(1,0,0,-1,0,294.8703)"><path
           d="m 19.801,95.496 366,0"
           style="fill:none;stroke:#000000;stroke-width:0.80000001;stroke-linecap:butt;stroke-linejoin:miter;stroke-miterlimit:10;stroke-dasharray:3.2, 3.2;stroke-dashoffset:0;stroke-opacity:1"
           id="path3426"
           inkscape:connector-curvature="0" /></g><g
         id="g3428"
         transform="matrix(1,0,0,-1,0,294.8703)"><path
           d="m 19.801,72.496 366,0"
           style="fill:none;stroke:#000000;stroke-width:0.80000001;stroke-linecap:butt;stroke-linejoin:miter;stroke-miterlimit:10;stroke-dasharray:3.2, 3.2;stroke-dashoffset:0;stroke-opacity:1"
           id="path3430"
           inkscape:connector-curvature="0" /></g><g
         id="g3432"
         transform="matrix(1,0,0,-1,0,294.8703)"><path
           d="m 19.801,49.496 366,0"
           style="fill:none;stroke:#000000;stroke-width:0.80000001;stroke-linecap:butt;stroke-linejoin:miter;stroke-miterlimit:10;stroke-dasharray:3.2, 3.2;stroke-dashoffset:0;stroke-opacity:1"
           id="path3434"
           inkscape:connector-curvature="0" /></g><g
         id="g3436"
         transform="matrix(1,0,0,-1,0,294.8703)"><path
           d="m 19.801,26.496 366,0"
           style="fill:none;stroke:#000000;stroke-width:0.80000001;stroke-linecap:butt;stroke-linejoin:miter;stroke-miterlimit:10;stroke-dasharray:3.2, 3.2;stroke-dashoffset:0;stroke-opacity:1"
           id="path3438"
           inkscape:connector-curvature="0" /></g><g
         id="g3440"
         transform="matrix(1,0,0,-1,0,294.8703)"><path
           d="m 19.801,3.496 366,0"
           style="fill:none;stroke:#000000;stroke-width:0.80000001;stroke-linecap:butt;stroke-linejoin:miter;stroke-miterlimit:10;stroke-dasharray:3.2, 3.2;stroke-dashoffset:0;stroke-opacity:1"
           id="path3442"
           inkscape:connector-curvature="0" /></g><text
         transform="matrix(1,0,0,-1,16.664844,0.132804)"
         style="font-variant:normal;font-weight:normal;font-size:8px;font-family:Verdana;-inkscape-font-specification:Verdana;writing-mode:lr-tb;fill:#000000;fill-opacity:1;fill-rule:nonzero;stroke:none"
         id="text3444"><tspan
           x="0 366.10001 183.26248 33 38.080002 40.984001 69.584 74.664001 77.568001 106.16 111.24 114.144 142.744 147.82401 150.728 215.86247 220.94247 223.84648 252.44649 257.52649 260.43048 288.62247 293.70248 296.60648 325.20648 330.28647 333.19049"
           y="0"
           sodipodi:role="line"
           id="tspan3446">0210.20.40.60.81.21.41.61.8</tspan></text>
<g
         id="g3448"
         transform="matrix(1,0,0,-1,0,294.8703)"><path
           d="m 19.801,279.496 0,4.797"
           style="fill:none;stroke:#000000;stroke-width:0.80000001;stroke-linecap:butt;stroke-linejoin:miter;stroke-miterlimit:10;stroke-dasharray:none;stroke-opacity:1"
           id="path3450"
           inkscape:connector-curvature="0" /></g><g
         id="g3452"
         transform="matrix(1,0,0,-1,0,294.8703)"><path
           d="m 56.402,279.496 0,4.797"
           style="fill:none;stroke:#000000;stroke-width:0.80000001;stroke-linecap:butt;stroke-linejoin:miter;stroke-miterlimit:10;stroke-dasharray:none;stroke-opacity:1"
           id="path3454"
           inkscape:connector-curvature="0" /></g><g
         id="g3456"
         transform="matrix(1,0,0,-1,0,294.8703)"><path
           d="m 93.004,279.496 0,4.797"
           style="fill:none;stroke:#000000;stroke-width:0.80000001;stroke-linecap:butt;stroke-linejoin:miter;stroke-miterlimit:10;stroke-dasharray:none;stroke-opacity:1"
           id="path3458"
           inkscape:connector-curvature="0" /></g><g
         id="g3460"
         transform="matrix(1,0,0,-1,0,294.8703)"><path
           d="m 129.602,279.496 0,4.797"
           style="fill:none;stroke:#000000;stroke-width:0.80000001;stroke-linecap:butt;stroke-linejoin:miter;stroke-miterlimit:10;stroke-dasharray:none;stroke-opacity:1"
           id="path3462"
           inkscape:connector-curvature="0" /></g><g
         id="g3464"
         transform="matrix(1,0,0,-1,0,294.8703)"><path
           d="m 166.203,279.496 0,4.797"
           style="fill:none;stroke:#000000;stroke-width:0.80000001;stroke-linecap:butt;stroke-linejoin:miter;stroke-miterlimit:10;stroke-dasharray:none;stroke-opacity:1"
           id="path3466"
           inkscape:connector-curvature="0" /></g><g
         id="g3468"
         transform="matrix(1,0,0,-1,0,294.8703)"><path
           d="m 202.801,279.496 0,4.797"
           style="fill:none;stroke:#000000;stroke-width:0.80000001;stroke-linecap:butt;stroke-linejoin:miter;stroke-miterlimit:10;stroke-dasharray:none;stroke-opacity:1"
           id="path3470"
           inkscape:connector-curvature="0" /></g><g
         id="g3472"
         transform="matrix(1,0,0,-1,0,294.8703)"><path
           d="m 239.402,279.496 0,4.797"
           style="fill:none;stroke:#000000;stroke-width:0.80000001;stroke-linecap:butt;stroke-linejoin:miter;stroke-miterlimit:10;stroke-dasharray:none;stroke-opacity:1"
           id="path3474"
           inkscape:connector-curvature="0" /></g><g
         id="g3476"
         transform="matrix(1,0,0,-1,0,294.8703)"><path
           d="m 276.004,279.496 0,4.797"
           style="fill:none;stroke:#000000;stroke-width:0.80000001;stroke-linecap:butt;stroke-linejoin:miter;stroke-miterlimit:10;stroke-dasharray:none;stroke-opacity:1"
           id="path3478"
           inkscape:connector-curvature="0" /></g><g
         id="g3480"
         transform="matrix(1,0,0,-1,0,294.8703)"><path
           d="m 312.602,279.496 0,4.797"
           style="fill:none;stroke:#000000;stroke-width:0.80000001;stroke-linecap:butt;stroke-linejoin:miter;stroke-miterlimit:10;stroke-dasharray:none;stroke-opacity:1"
           id="path3482"
           inkscape:connector-curvature="0" /></g><g
         id="g3484"
         transform="matrix(1,0,0,-1,0,294.8703)"><path
           d="m 349.203,279.496 0,4.797"
           style="fill:none;stroke:#000000;stroke-width:0.80000001;stroke-linecap:butt;stroke-linejoin:miter;stroke-miterlimit:10;stroke-dasharray:none;stroke-opacity:1"
           id="path3486"
           inkscape:connector-curvature="0" /></g><g
         id="g3488"
         transform="matrix(1,0,0,-1,0,294.8703)"><path
           d="m 385.801,279.496 0,4.797"
           style="fill:none;stroke:#000000;stroke-width:0.80000001;stroke-linecap:butt;stroke-linejoin:miter;stroke-miterlimit:10;stroke-dasharray:none;stroke-opacity:1"
           id="path3490"
           inkscape:connector-curvature="0" /></g><g
         id="g3492"
         transform="matrix(1,0,0,-1,0,294.8703)"><path
           d="m 19.801,279.496 0,2.399"
           style="fill:none;stroke:#000000;stroke-width:0.80000001;stroke-linecap:butt;stroke-linejoin:miter;stroke-miterlimit:10;stroke-dasharray:none;stroke-opacity:1"
           id="path3494"
           inkscape:connector-curvature="0" /></g><g
         id="g3496"
         transform="matrix(1,0,0,-1,0,294.8703)"><path
           d="m 38.102,279.496 0,2.399"
           style="fill:none;stroke:#000000;stroke-width:0.80000001;stroke-linecap:butt;stroke-linejoin:miter;stroke-miterlimit:10;stroke-dasharray:none;stroke-opacity:1"
           id="path3498"
           inkscape:connector-curvature="0" /></g><g
         id="g3500"
         transform="matrix(1,0,0,-1,0,294.8703)"><path
           d="m 56.402,279.496 0,2.399"
           style="fill:none;stroke:#000000;stroke-width:0.80000001;stroke-linecap:butt;stroke-linejoin:miter;stroke-miterlimit:10;stroke-dasharray:none;stroke-opacity:1"
           id="path3502"
           inkscape:connector-curvature="0" /></g><g
         id="g3504"
         transform="matrix(1,0,0,-1,0,294.8703)"><path
           d="m 74.703,279.496 0,2.399"
           style="fill:none;stroke:#000000;stroke-width:0.80000001;stroke-linecap:butt;stroke-linejoin:miter;stroke-miterlimit:10;stroke-dasharray:none;stroke-opacity:1"
           id="path3506"
           inkscape:connector-curvature="0" /></g><g
         id="g3508"
         transform="matrix(1,0,0,-1,0,294.8703)"><path
           d="m 93.004,279.496 0,2.399"
           style="fill:none;stroke:#000000;stroke-width:0.80000001;stroke-linecap:butt;stroke-linejoin:miter;stroke-miterlimit:10;stroke-dasharray:none;stroke-opacity:1"
           id="path3510"
           inkscape:connector-curvature="0" /></g><g
         id="g3512"
         transform="matrix(1,0,0,-1,0,294.8703)"><path
           d="m 111.301,279.496 0,2.399"
           style="fill:none;stroke:#000000;stroke-width:0.80000001;stroke-linecap:butt;stroke-linejoin:miter;stroke-miterlimit:10;stroke-dasharray:none;stroke-opacity:1"
           id="path3514"
           inkscape:connector-curvature="0" /></g><g
         id="g3516"
         transform="matrix(1,0,0,-1,0,294.8703)"><path
           d="m 129.602,279.496 0,2.399"
           style="fill:none;stroke:#000000;stroke-width:0.80000001;stroke-linecap:butt;stroke-linejoin:miter;stroke-miterlimit:10;stroke-dasharray:none;stroke-opacity:1"
           id="path3518"
           inkscape:connector-curvature="0" /></g><g
         id="g3520"
         transform="matrix(1,0,0,-1,0,294.8703)"><path
           d="m 147.902,279.496 0,2.399"
           style="fill:none;stroke:#000000;stroke-width:0.80000001;stroke-linecap:butt;stroke-linejoin:miter;stroke-miterlimit:10;stroke-dasharray:none;stroke-opacity:1"
           id="path3522"
           inkscape:connector-curvature="0" /></g><g
         id="g3524"
         transform="matrix(1,0,0,-1,0,294.8703)"><path
           d="m 166.203,279.496 0,2.399"
           style="fill:none;stroke:#000000;stroke-width:0.80000001;stroke-linecap:butt;stroke-linejoin:miter;stroke-miterlimit:10;stroke-dasharray:none;stroke-opacity:1"
           id="path3526"
           inkscape:connector-curvature="0" /></g><g
         id="g3528"
         transform="matrix(1,0,0,-1,0,294.8703)"><path
           d="m 184.504,279.496 0,2.399"
           style="fill:none;stroke:#000000;stroke-width:0.80000001;stroke-linecap:butt;stroke-linejoin:miter;stroke-miterlimit:10;stroke-dasharray:none;stroke-opacity:1"
           id="path3530"
           inkscape:connector-curvature="0" /></g><g
         id="g3532"
         transform="matrix(1,0,0,-1,0,294.8703)"><path
           d="m 202.801,279.496 0,2.399"
           style="fill:none;stroke:#000000;stroke-width:0.80000001;stroke-linecap:butt;stroke-linejoin:miter;stroke-miterlimit:10;stroke-dasharray:none;stroke-opacity:1"
           id="path3534"
           inkscape:connector-curvature="0" /></g><g
         id="g3536"
         transform="matrix(1,0,0,-1,0,294.8703)"><path
           d="m 221.102,279.496 0,2.399"
           style="fill:none;stroke:#000000;stroke-width:0.80000001;stroke-linecap:butt;stroke-linejoin:miter;stroke-miterlimit:10;stroke-dasharray:none;stroke-opacity:1"
           id="path3538"
           inkscape:connector-curvature="0" /></g><g
         id="g3540"
         transform="matrix(1,0,0,-1,0,294.8703)"><path
           d="m 239.402,279.496 0,2.399"
           style="fill:none;stroke:#000000;stroke-width:0.80000001;stroke-linecap:butt;stroke-linejoin:miter;stroke-miterlimit:10;stroke-dasharray:none;stroke-opacity:1"
           id="path3542"
           inkscape:connector-curvature="0" /></g><g
         id="g3544"
         transform="matrix(1,0,0,-1,0,294.8703)"><path
           d="m 257.703,279.496 0,2.399"
           style="fill:none;stroke:#000000;stroke-width:0.80000001;stroke-linecap:butt;stroke-linejoin:miter;stroke-miterlimit:10;stroke-dasharray:none;stroke-opacity:1"
           id="path3546"
           inkscape:connector-curvature="0" /></g><g
         id="g3548"
         transform="matrix(1,0,0,-1,0,294.8703)"><path
           d="m 276.004,279.496 0,2.399"
           style="fill:none;stroke:#000000;stroke-width:0.80000001;stroke-linecap:butt;stroke-linejoin:miter;stroke-miterlimit:10;stroke-dasharray:none;stroke-opacity:1"
           id="path3550"
           inkscape:connector-curvature="0" /></g><g
         id="g3552"
         transform="matrix(1,0,0,-1,0,294.8703)"><path
           d="m 294.301,279.496 0,2.399"
           style="fill:none;stroke:#000000;stroke-width:0.80000001;stroke-linecap:butt;stroke-linejoin:miter;stroke-miterlimit:10;stroke-dasharray:none;stroke-opacity:1"
           id="path3554"
           inkscape:connector-curvature="0" /></g><g
         id="g3556"
         transform="matrix(1,0,0,-1,0,294.8703)"><path
           d="m 312.602,279.496 0,2.399"
           style="fill:none;stroke:#000000;stroke-width:0.80000001;stroke-linecap:butt;stroke-linejoin:miter;stroke-miterlimit:10;stroke-dasharray:none;stroke-opacity:1"
           id="path3558"
           inkscape:connector-curvature="0" /></g><g
         id="g3560"
         transform="matrix(1,0,0,-1,0,294.8703)"><path
           d="m 330.902,279.496 0,2.399"
           style="fill:none;stroke:#000000;stroke-width:0.80000001;stroke-linecap:butt;stroke-linejoin:miter;stroke-miterlimit:10;stroke-dasharray:none;stroke-opacity:1"
           id="path3562"
           inkscape:connector-curvature="0" /></g><g
         id="g3564"
         transform="matrix(1,0,0,-1,0,294.8703)"><path
           d="m 349.203,279.496 0,2.399"
           style="fill:none;stroke:#000000;stroke-width:0.80000001;stroke-linecap:butt;stroke-linejoin:miter;stroke-miterlimit:10;stroke-dasharray:none;stroke-opacity:1"
           id="path3566"
           inkscape:connector-curvature="0" /></g><g
         id="g3568"
         transform="matrix(1,0,0,-1,0,294.8703)"><path
           d="m 367.504,279.496 0,2.399"
           style="fill:none;stroke:#000000;stroke-width:0.80000001;stroke-linecap:butt;stroke-linejoin:miter;stroke-miterlimit:10;stroke-dasharray:none;stroke-opacity:1"
           id="path3570"
           inkscape:connector-curvature="0" /></g><g
         id="g3572"
         transform="matrix(1,0,0,-1,0,294.8703)"><path
           d="m 385.801,279.496 0,2.399"
           style="fill:none;stroke:#000000;stroke-width:0.80000001;stroke-linecap:butt;stroke-linejoin:miter;stroke-miterlimit:10;stroke-dasharray:none;stroke-opacity:1"
           id="path3574"
           inkscape:connector-curvature="0" /></g><g
         id="g3576"
         transform="matrix(1,0,0,-1,0,294.8703)"><path
           d="m 385.801,279.496 -366,0"
           style="fill:none;stroke:#000000;stroke-width:0.80000001;stroke-linecap:butt;stroke-linejoin:miter;stroke-miterlimit:10;stroke-dasharray:none;stroke-opacity:1"
           id="path3578"
           inkscape:connector-curvature="0" /></g><text
         transform="matrix(1,0,0,-1,6.664844,12.9328)"
         style="font-variant:normal;font-weight:normal;font-size:8px;font-family:Verdana;-inkscape-font-specification:Verdana;writing-mode:lr-tb;fill:#000000;fill-opacity:1;fill-rule:nonzero;stroke:none"
         id="text3580"><tspan
           x="0"
           y="0"
           id="tspan3582">0</tspan><tspan
           x="1.06248"
           y="-230"
           id="tspan3584">1</tspan><tspan
           x="-7.1999998 -2.1199999 0.78399998"
           y="-46"
           sodipodi:role="line"
           id="tspan3586">0.2</tspan><tspan
           x="-7.1999998 -2.1199999 0.78399998"
           y="-92"
           sodipodi:role="line"
           id="tspan3588">0.4</tspan><tspan
           x="-7.1999998 -2.1199999 0.78399998"
           y="-138"
           sodipodi:role="line"
           id="tspan3590">0.6</tspan><tspan
           x="-7.1999998 -2.1199999 0.78399998"
           y="-184"
           sodipodi:role="line"
           id="tspan3592">0.8</tspan><tspan
           x="-6.93752 -1.85752 1.0464799"
           y="-276"
           sodipodi:role="line"
           id="tspan3594">1.2</tspan><tspan
           x="-6.4000001 -1.3200001 1.584"
           y="-23"
           sodipodi:role="line"
           id="tspan3596">0.1</tspan><tspan
           x="-7.1999998 -2.1199999 0.78399998"
           y="-69"
           sodipodi:role="line"
           id="tspan3598">0.3</tspan><tspan
           x="-7.1999998 -2.1199999 0.78399998"
           y="-115"
           sodipodi:role="line"
           id="tspan3600">0.5</tspan><tspan
           x="-7.1999998 -2.1199999 0.78399998"
           y="-161"
           sodipodi:role="line"
           id="tspan3602">0.7</tspan><tspan
           x="-7.1999998 -2.1199999 0.78399998"
           y="-207"
           sodipodi:role="line"
           id="tspan3604">0.9</tspan><tspan
           x="-6.1375198 -1.05752 1.84648"
           y="-253"
           sodipodi:role="line"
           id="tspan3606">1.1</tspan></text>
<g
         id="g3608"
         transform="matrix(1,0,0,-1,0,294.8703)"><path
           d="m 19.801,279.496 -4.797,0"
           style="fill:none;stroke:#000000;stroke-width:0.80000001;stroke-linecap:butt;stroke-linejoin:miter;stroke-miterlimit:10;stroke-dasharray:none;stroke-opacity:1"
           id="path3610"
           inkscape:connector-curvature="0" /></g><g
         id="g3612"
         transform="matrix(1,0,0,-1,0,294.8703)"><path
           d="m 19.801,256.496 -4.797,0"
           style="fill:none;stroke:#000000;stroke-width:0.80000001;stroke-linecap:butt;stroke-linejoin:miter;stroke-miterlimit:10;stroke-dasharray:none;stroke-opacity:1"
           id="path3614"
           inkscape:connector-curvature="0" /></g><g
         id="g3616"
         transform="matrix(1,0,0,-1,0,294.8703)"><path
           d="m 19.801,233.496 -4.797,0"
           style="fill:none;stroke:#000000;stroke-width:0.80000001;stroke-linecap:butt;stroke-linejoin:miter;stroke-miterlimit:10;stroke-dasharray:none;stroke-opacity:1"
           id="path3618"
           inkscape:connector-curvature="0" /></g><g
         id="g3620"
         transform="matrix(1,0,0,-1,0,294.8703)"><path
           d="m 19.801,210.496 -4.797,0"
           style="fill:none;stroke:#000000;stroke-width:0.80000001;stroke-linecap:butt;stroke-linejoin:miter;stroke-miterlimit:10;stroke-dasharray:none;stroke-opacity:1"
           id="path3622"
           inkscape:connector-curvature="0" /></g><g
         id="g3624"
         transform="matrix(1,0,0,-1,0,294.8703)"><path
           d="m 19.801,187.496 -4.797,0"
           style="fill:none;stroke:#000000;stroke-width:0.80000001;stroke-linecap:butt;stroke-linejoin:miter;stroke-miterlimit:10;stroke-dasharray:none;stroke-opacity:1"
           id="path3626"
           inkscape:connector-curvature="0" /></g><g
         id="g3628"
         transform="matrix(1,0,0,-1,0,294.8703)"><path
           d="m 19.801,164.496 -4.797,0"
           style="fill:none;stroke:#000000;stroke-width:0.80000001;stroke-linecap:butt;stroke-linejoin:miter;stroke-miterlimit:10;stroke-dasharray:none;stroke-opacity:1"
           id="path3630"
           inkscape:connector-curvature="0" /></g><g
         id="g3632"
         transform="matrix(1,0,0,-1,0,294.8703)"><path
           d="m 19.801,141.496 -4.797,0"
           style="fill:none;stroke:#000000;stroke-width:0.80000001;stroke-linecap:butt;stroke-linejoin:miter;stroke-miterlimit:10;stroke-dasharray:none;stroke-opacity:1"
           id="path3634"
           inkscape:connector-curvature="0" /></g><g
         id="g3636"
         transform="matrix(1,0,0,-1,0,294.8703)"><path
           d="m 19.801,118.496 -4.797,0"
           style="fill:none;stroke:#000000;stroke-width:0.80000001;stroke-linecap:butt;stroke-linejoin:miter;stroke-miterlimit:10;stroke-dasharray:none;stroke-opacity:1"
           id="path3638"
           inkscape:connector-curvature="0" /></g><g
         id="g3640"
         transform="matrix(1,0,0,-1,0,294.8703)"><path
           d="m 19.801,95.496 -4.797,0"
           style="fill:none;stroke:#000000;stroke-width:0.80000001;stroke-linecap:butt;stroke-linejoin:miter;stroke-miterlimit:10;stroke-dasharray:none;stroke-opacity:1"
           id="path3642"
           inkscape:connector-curvature="0" /></g><g
         id="g3644"
         transform="matrix(1,0,0,-1,0,294.8703)"><path
           d="m 19.801,72.496 -4.797,0"
           style="fill:none;stroke:#000000;stroke-width:0.80000001;stroke-linecap:butt;stroke-linejoin:miter;stroke-miterlimit:10;stroke-dasharray:none;stroke-opacity:1"
           id="path3646"
           inkscape:connector-curvature="0" /></g><g
         id="g3648"
         transform="matrix(1,0,0,-1,0,294.8703)"><path
           d="m 19.801,49.496 -4.797,0"
           style="fill:none;stroke:#000000;stroke-width:0.80000001;stroke-linecap:butt;stroke-linejoin:miter;stroke-miterlimit:10;stroke-dasharray:none;stroke-opacity:1"
           id="path3650"
           inkscape:connector-curvature="0" /></g><g
         id="g3652"
         transform="matrix(1,0,0,-1,0,294.8703)"><path
           d="m 19.801,26.496 -4.797,0"
           style="fill:none;stroke:#000000;stroke-width:0.80000001;stroke-linecap:butt;stroke-linejoin:miter;stroke-miterlimit:10;stroke-dasharray:none;stroke-opacity:1"
           id="path3654"
           inkscape:connector-curvature="0" /></g><g
         id="g3656"
         transform="matrix(1,0,0,-1,0,294.8703)"><path
           d="m 19.801,3.496 -4.797,0"
           style="fill:none;stroke:#000000;stroke-width:0.80000001;stroke-linecap:butt;stroke-linejoin:miter;stroke-miterlimit:10;stroke-dasharray:none;stroke-opacity:1"
           id="path3658"
           inkscape:connector-curvature="0" /></g><g
         id="g3660"
         transform="matrix(1,0,0,-1,0,294.8703)"><path
           d="m 19.801,279.496 -2.399,0"
           style="fill:none;stroke:#000000;stroke-width:0.80000001;stroke-linecap:butt;stroke-linejoin:miter;stroke-miterlimit:10;stroke-dasharray:none;stroke-opacity:1"
           id="path3662"
           inkscape:connector-curvature="0" /></g><g
         id="g3664"
         transform="matrix(1,0,0,-1,0,294.8703)"><path
           d="m 19.801,267.996 -2.399,0"
           style="fill:none;stroke:#000000;stroke-width:0.80000001;stroke-linecap:butt;stroke-linejoin:miter;stroke-miterlimit:10;stroke-dasharray:none;stroke-opacity:1"
           id="path3666"
           inkscape:connector-curvature="0" /></g><g
         id="g3668"
         transform="matrix(1,0,0,-1,0,294.8703)"><path
           d="m 19.801,256.496 -2.399,0"
           style="fill:none;stroke:#000000;stroke-width:0.80000001;stroke-linecap:butt;stroke-linejoin:miter;stroke-miterlimit:10;stroke-dasharray:none;stroke-opacity:1"
           id="path3670"
           inkscape:connector-curvature="0" /></g><g
         id="g3672"
         transform="matrix(1,0,0,-1,0,294.8703)"><path
           d="m 19.801,244.996 -2.399,0"
           style="fill:none;stroke:#000000;stroke-width:0.80000001;stroke-linecap:butt;stroke-linejoin:miter;stroke-miterlimit:10;stroke-dasharray:none;stroke-opacity:1"
           id="path3674"
           inkscape:connector-curvature="0" /></g><g
         id="g3676"
         transform="matrix(1,0,0,-1,0,294.8703)"><path
           d="m 19.801,233.496 -2.399,0"
           style="fill:none;stroke:#000000;stroke-width:0.80000001;stroke-linecap:butt;stroke-linejoin:miter;stroke-miterlimit:10;stroke-dasharray:none;stroke-opacity:1"
           id="path3678"
           inkscape:connector-curvature="0" /></g><g
         id="g3680"
         transform="matrix(1,0,0,-1,0,294.8703)"><path
           d="m 19.801,221.996 -2.399,0"
           style="fill:none;stroke:#000000;stroke-width:0.80000001;stroke-linecap:butt;stroke-linejoin:miter;stroke-miterlimit:10;stroke-dasharray:none;stroke-opacity:1"
           id="path3682"
           inkscape:connector-curvature="0" /></g><g
         id="g3684"
         transform="matrix(1,0,0,-1,0,294.8703)"><path
           d="m 19.801,210.496 -2.399,0"
           style="fill:none;stroke:#000000;stroke-width:0.80000001;stroke-linecap:butt;stroke-linejoin:miter;stroke-miterlimit:10;stroke-dasharray:none;stroke-opacity:1"
           id="path3686"
           inkscape:connector-curvature="0" /></g><g
         id="g3688"
         transform="matrix(1,0,0,-1,0,294.8703)"><path
           d="m 19.801,198.996 -2.399,0"
           style="fill:none;stroke:#000000;stroke-width:0.80000001;stroke-linecap:butt;stroke-linejoin:miter;stroke-miterlimit:10;stroke-dasharray:none;stroke-opacity:1"
           id="path3690"
           inkscape:connector-curvature="0" /></g><g
         id="g3692"
         transform="matrix(1,0,0,-1,0,294.8703)"><path
           d="m 19.801,187.496 -2.399,0"
           style="fill:none;stroke:#000000;stroke-width:0.80000001;stroke-linecap:butt;stroke-linejoin:miter;stroke-miterlimit:10;stroke-dasharray:none;stroke-opacity:1"
           id="path3694"
           inkscape:connector-curvature="0" /></g><g
         id="g3696"
         transform="matrix(1,0,0,-1,0,294.8703)"><path
           d="m 19.801,175.996 -2.399,0"
           style="fill:none;stroke:#000000;stroke-width:0.80000001;stroke-linecap:butt;stroke-linejoin:miter;stroke-miterlimit:10;stroke-dasharray:none;stroke-opacity:1"
           id="path3698"
           inkscape:connector-curvature="0" /></g><g
         id="g3700"
         transform="matrix(1,0,0,-1,0,294.8703)"><path
           d="m 19.801,164.496 -2.399,0"
           style="fill:none;stroke:#000000;stroke-width:0.80000001;stroke-linecap:butt;stroke-linejoin:miter;stroke-miterlimit:10;stroke-dasharray:none;stroke-opacity:1"
           id="path3702"
           inkscape:connector-curvature="0" /></g><g
         id="g3704"
         transform="matrix(1,0,0,-1,0,294.8703)"><path
           d="m 19.801,152.996 -2.399,0"
           style="fill:none;stroke:#000000;stroke-width:0.80000001;stroke-linecap:butt;stroke-linejoin:miter;stroke-miterlimit:10;stroke-dasharray:none;stroke-opacity:1"
           id="path3706"
           inkscape:connector-curvature="0" /></g><g
         id="g3708"
         transform="matrix(1,0,0,-1,0,294.8703)"><path
           d="m 19.801,141.496 -2.399,0"
           style="fill:none;stroke:#000000;stroke-width:0.80000001;stroke-linecap:butt;stroke-linejoin:miter;stroke-miterlimit:10;stroke-dasharray:none;stroke-opacity:1"
           id="path3710"
           inkscape:connector-curvature="0" /></g><g
         id="g3712"
         transform="matrix(1,0,0,-1,0,294.8703)"><path
           d="m 19.801,129.996 -2.399,0"
           style="fill:none;stroke:#000000;stroke-width:0.80000001;stroke-linecap:butt;stroke-linejoin:miter;stroke-miterlimit:10;stroke-dasharray:none;stroke-opacity:1"
           id="path3714"
           inkscape:connector-curvature="0" /></g><g
         id="g3716"
         transform="matrix(1,0,0,-1,0,294.8703)"><path
           d="m 19.801,118.496 -2.399,0"
           style="fill:none;stroke:#000000;stroke-width:0.80000001;stroke-linecap:butt;stroke-linejoin:miter;stroke-miterlimit:10;stroke-dasharray:none;stroke-opacity:1"
           id="path3718"
           inkscape:connector-curvature="0" /></g><g
         id="g3720"
         transform="matrix(1,0,0,-1,0,294.8703)"><path
           d="m 19.801,106.996 -2.399,0"
           style="fill:none;stroke:#000000;stroke-width:0.80000001;stroke-linecap:butt;stroke-linejoin:miter;stroke-miterlimit:10;stroke-dasharray:none;stroke-opacity:1"
           id="path3722"
           inkscape:connector-curvature="0" /></g><g
         id="g3724"
         transform="matrix(1,0,0,-1,0,294.8703)"><path
           d="m 19.801,95.496 -2.399,0"
           style="fill:none;stroke:#000000;stroke-width:0.80000001;stroke-linecap:butt;stroke-linejoin:miter;stroke-miterlimit:10;stroke-dasharray:none;stroke-opacity:1"
           id="path3726"
           inkscape:connector-curvature="0" /></g><g
         id="g3728"
         transform="matrix(1,0,0,-1,0,294.8703)"><path
           d="m 19.801,83.996 -2.399,0"
           style="fill:none;stroke:#000000;stroke-width:0.80000001;stroke-linecap:butt;stroke-linejoin:miter;stroke-miterlimit:10;stroke-dasharray:none;stroke-opacity:1"
           id="path3730"
           inkscape:connector-curvature="0" /></g><g
         id="g3732"
         transform="matrix(1,0,0,-1,0,294.8703)"><path
           d="m 19.801,72.496 -2.399,0"
           style="fill:none;stroke:#000000;stroke-width:0.80000001;stroke-linecap:butt;stroke-linejoin:miter;stroke-miterlimit:10;stroke-dasharray:none;stroke-opacity:1"
           id="path3734"
           inkscape:connector-curvature="0" /></g><g
         id="g3736"
         transform="matrix(1,0,0,-1,0,294.8703)"><path
           d="m 19.801,60.996 -2.399,0"
           style="fill:none;stroke:#000000;stroke-width:0.80000001;stroke-linecap:butt;stroke-linejoin:miter;stroke-miterlimit:10;stroke-dasharray:none;stroke-opacity:1"
           id="path3738"
           inkscape:connector-curvature="0" /></g><g
         id="g3740"
         transform="matrix(1,0,0,-1,0,294.8703)"><path
           d="m 19.801,49.496 -2.399,0"
           style="fill:none;stroke:#000000;stroke-width:0.80000001;stroke-linecap:butt;stroke-linejoin:miter;stroke-miterlimit:10;stroke-dasharray:none;stroke-opacity:1"
           id="path3742"
           inkscape:connector-curvature="0" /></g><g
         id="g3744"
         transform="matrix(1,0,0,-1,0,294.8703)"><path
           d="m 19.801,37.996 -2.399,0"
           style="fill:none;stroke:#000000;stroke-width:0.80000001;stroke-linecap:butt;stroke-linejoin:miter;stroke-miterlimit:10;stroke-dasharray:none;stroke-opacity:1"
           id="path3746"
           inkscape:connector-curvature="0" /></g><g
         id="g3748"
         transform="matrix(1,0,0,-1,0,294.8703)"><path
           d="m 19.801,26.496 -2.399,0"
           style="fill:none;stroke:#000000;stroke-width:0.80000001;stroke-linecap:butt;stroke-linejoin:miter;stroke-miterlimit:10;stroke-dasharray:none;stroke-opacity:1"
           id="path3750"
           inkscape:connector-curvature="0" /></g><g
         id="g3752"
         transform="matrix(1,0,0,-1,0,294.8703)"><path
           d="m 19.801,14.996 -2.399,0"
           style="fill:none;stroke:#000000;stroke-width:0.80000001;stroke-linecap:butt;stroke-linejoin:miter;stroke-miterlimit:10;stroke-dasharray:none;stroke-opacity:1"
           id="path3754"
           inkscape:connector-curvature="0" /></g><g
         id="g3756"
         transform="matrix(1,0,0,-1,0,294.8703)"><path
           d="m 19.801,3.496 -2.399,0"
           style="fill:none;stroke:#000000;stroke-width:0.80000001;stroke-linecap:butt;stroke-linejoin:miter;stroke-miterlimit:10;stroke-dasharray:none;stroke-opacity:1"
           id="path3758"
           inkscape:connector-curvature="0" /></g><g
         id="g3760"
         transform="matrix(1,0,0,-1,0,294.8703)"><path
           d="m 19.801,3.496 0,276"
           style="fill:none;stroke:#000000;stroke-width:0.80000001;stroke-linecap:butt;stroke-linejoin:miter;stroke-miterlimit:10;stroke-dasharray:none;stroke-opacity:1"
           id="path3762"
           inkscape:connector-curvature="0" /></g></g><g
       id="g3764"><g
         id="g3766"
         clip-path="url(#clipPath3768)"><g
           id="g3772"
           transform="translate(0,-0.1297)"><g
             id="g3774"><g
               id="g3776"
               clip-path="url(#clipPath3778)"><g
                 id="g3782"><g
                   id="g3784"
                   transform="matrix(1,0,0,-1,0,295)"><path
                     d="m 19.801,279.496 1.832,-0.375 1.828,-1.078 1.832,-1.719 1.828,-2.312 1.832,-2.844 1.828,-3.324 1.832,-3.754 1.828,-4.145 1.832,-4.484 1.829,-4.781 1.832,-5.047 1.828,-5.266 1.832,-5.457 1.828,-5.613 1.832,-5.742 1.828,-5.836 1.832,-5.906 1.828,-5.958 1.832,-5.976 1.828,-5.981 1.828,-5.964 1.833,-5.926 1.828,-5.879 1.832,-5.816 1.828,-5.735 1.832,-5.644 1.828,-5.539 1.832,-5.434 1.828,-5.309 1.832,-5.183 1.828,-5.051 1.832,-4.914 1.828,-4.766 1.832,-4.613 1.829,-4.465 1.832,-4.312 1.828,-4.157 1.832,-4 1.828,-3.847 1.832,-3.688 1.828,-3.539 1.832,-3.379 1.828,-3.238 1.832,-3.082 1.828,-2.938 1.828,-2.792 1.833,-2.653 1.828,-2.508 1.832,-2.371 1.828,-2.242 1.832,-2.109 1.828,-1.985 1.832,-1.859 1.828,-1.742 1.832,-1.629 1.828,-1.516 1.832,-1.41 1.828,-1.309 1.832,-1.21 1.829,-1.114 1.832,-1.023 1.828,-0.938 1.832,-0.855 1.828,-0.777 1.832,-0.7 1.828,-0.629 1.832,-0.562 1.828,-0.5 1.832,-0.438 1.828,-0.379 1.828,-0.328 1.833,-0.277 1.828,-0.23 1.832,-0.184 1.828,-0.145 1.832,-0.105 1.828,-0.07 1.832,-0.036 1.828,-0.007 1.832,0.023 1.828,0.047 1.832,0.07 1.828,0.094 1.832,0.109 1.829,0.133 1.832,0.145 1.828,0.156 1.832,0.172 1.828,0.183 1.832,0.192 1.828,0.199 1.832,0.207 1.828,0.211 1.832,0.219 1.828,0.219 1.828,0.222 1.833,0.223 1.828,0.226 1.832,0.223 1.828,0.223 1.832,0.222 1.828,0.219 1.832,0.215 1.828,0.215 1.832,0.211 1.828,0.207 1.832,0.199 1.828,0.199 1.832,0.192 1.829,0.187 1.832,0.184 1.828,0.176 1.832,0.171 1.828,0.164 1.832,0.161 1.828,0.152 1.832,0.148 1.828,0.141 1.832,0.137 1.828,0.129 1.828,0.125 1.833,0.121 1.828,0.113 1.832,0.109 1.828,0.102 1.832,0.098 1.828,0.093 1.832,0.09 1.828,0.082 1.832,0.078 1.828,0.075 1.832,0.07 1.828,0.062 1.832,0.063 1.829,0.055 1.832,0.054 1.828,0.047 1.832,0.047 1.828,0.039 1.832,0.039 1.828,0.035 1.832,0.032 1.828,0.031 1.832,0.023 1.828,0.028 1.828,0.019 1.833,0.02 1.828,0.015 1.832,0.016 1.828,0.012 1.832,0.011 1.828,0.008 1.832,0.008 1.828,0.004 1.832,0.004 1.828,0.004 1.832,0.004 3.66,0 1.829,-0.004 1.832,0 1.828,-0.004 1.832,-0.004 1.828,-0.004 1.832,-0.004 1.828,-0.008 1.832,-0.004 1.828,-0.007 1.832,-0.008 1.828,-0.008 1.828,-0.004 1.833,-0.008 1.828,-0.008 1.832,-0.007 1.828,-0.008 1.832,-0.008 1.828,-0.012 1.832,-0.008 1.828,-0.007 1.832,-0.008 1.828,-0.008 1.832,-0.008 1.828,-0.008 1.832,-0.007 1.829,-0.004 1.832,-0.008 1.828,-0.008 1.832,-0.008 1.828,-0.008 1.832,-0.007 1.828,-0.004 1.832,-0.008 1.828,-0.004 1.832,-0.008 1.828,-0.004 1.828,-0.008 1.833,-0.003 1.828,-0.004 1.832,-0.008"
                     style="fill:none;stroke:#000000;stroke-width:1.60000002;stroke-linecap:butt;stroke-linejoin:miter;stroke-miterlimit:10;stroke-dasharray:none;stroke-opacity:1"
                     id="path3786"
                     inkscape:connector-curvature="0" /></g></g></g></g></g></g></g><g
       id="g3788"><g
         id="g3790"
         transform="matrix(1,0,0,-1,0,294.8703)"><path
           d="m 19.801,3.496 366,0 0,276 -366,0 0,-276 z"
           style="fill:none;stroke:#000000;stroke-width:0.80000001;stroke-linecap:butt;stroke-linejoin:miter;stroke-miterlimit:10;stroke-dasharray:none;stroke-opacity:1"
           id="path3792"
           inkscape:connector-curvature="0" /></g><g
         id="g3794"
         transform="matrix(1,0,0,-1,0,294.8703)"><path
           d="m 385.801,3.496 -366,0"
           style="fill:none;stroke:#000000;stroke-width:0.80000001;stroke-linecap:butt;stroke-linejoin:miter;stroke-miterlimit:10;stroke-dasharray:none;stroke-opacity:1"
           id="path3796"
           inkscape:connector-curvature="0" /></g><g
         id="g3798"
         transform="matrix(1,0,0,-1,0,294.8703)"><path
           d="m 385.801,3.496 0,276"
           style="fill:none;stroke:#000000;stroke-width:0.80000001;stroke-linecap:butt;stroke-linejoin:miter;stroke-miterlimit:10;stroke-dasharray:none;stroke-opacity:1"
           id="path3800"
           inkscape:connector-curvature="0" /></g></g><path
       style="fill:none;fill-rule:evenodd;stroke:#ff0000;stroke-width:0.80000001px;stroke-linecap:butt;stroke-linejoin:miter;stroke-opacity:1"
       d="m 163.69834,253.81241 -144.502444,0"
       id="path3808"
       inkscape:connector-curvature="0" /><path
       style="fill:none;fill-rule:evenodd;stroke:#ff0000;stroke-width:0.80000001px;stroke-linecap:butt;stroke-linejoin:miter;stroke-opacity:1"
       d="m 166.36443,245.2809 c -147.168534,0 -147.168534,0 -147.168534,0"
       id="path4610"
       inkscape:connector-curvature="0" /><text
       xml:space="preserve"
       style="font-style:normal;font-weight:normal;font-size:32px;line-height:125%;font-family:sans-serif;letter-spacing:0px;word-spacing:0px;fill:#000000;fill-opacity:1;stroke:none;stroke-width:1px;stroke-linecap:butt;stroke-linejoin:miter;stroke-opacity:1"
       x="-21.328775"
       y="-245.81413"
       id="text4612"
       sodipodi:linespacing="125%"
       transform="scale(1,-1)"><tspan
         sodipodi:role="line"
         id="tspan4614"
         x="-21.328775"
         y="-245.81413"
         style="font-size:16px;fill:#ff0000;fill-opacity:1">D%</tspan></text>
<path
       style="fill:none;fill-rule:evenodd;stroke:#00b200;stroke-width:0.80000001px;stroke-linecap:butt;stroke-linejoin:miter;stroke-opacity:1"
       d="m 19.195896,234.0833 365.255244,0 0.53322,0"
       id="path3573"
       inkscape:connector-curvature="0" /><path
       style="fill:none;fill-rule:evenodd;stroke:#00a500;stroke-width:0.80000001px;stroke-linecap:butt;stroke-linejoin:miter;stroke-opacity:1"
       d="m 115.17538,234.0833 0,-146.102102 0,-71.451386 0,-0.533224"
       id="path4375"
       inkscape:connector-curvature="0"
       sodipodi:nodetypes="cccc" /><text
       xml:space="preserve"
       style="font-style:normal;font-weight:normal;font-size:32px;line-height:125%;font-family:sans-serif;letter-spacing:0px;word-spacing:0px;fill:#000000;fill-opacity:1;stroke:none;stroke-width:1px;stroke-linecap:butt;stroke-linejoin:miter;stroke-opacity:1"
       x="130.63873"
       y="-34.12606"
       id="text4377"
       sodipodi:linespacing="125%"
       transform="scale(1,-1)"><tspan
         sodipodi:role="line"
         id="tspan4379"
         x="130.63873"
         y="-34.12606"
         style="font-size:16px;fill:#006c00;fill-opacity:1">t=0.51s</tspan></text>
</g></svg>