<?xml version="1.0" encoding="UTF-8" standalone="no"?>
<!-- Created with Inkscape (http://www.inkscape.org/) -->

<svg
   xmlns:dc="http://purl.org/dc/elements/1.1/"
   xmlns:cc="http://creativecommons.org/ns#"
   xmlns:rdf="http://www.w3.org/1999/02/22-rdf-syntax-ns#"
   xmlns:svg="http://www.w3.org/2000/svg"
   xmlns="http://www.w3.org/2000/svg"
   xmlns:sodipodi="http://sodipodi.sourceforge.net/DTD/sodipodi-0.dtd"
   xmlns:inkscape="http://www.inkscape.org/namespaces/inkscape"
   id="svg3336"
   version="1.1"
   inkscape:version="0.91 r13725"
   xml:space="preserve"
   width="558.29999"
   height="231.36877"
   viewBox="0 0 558.29999 231.36877"
   sodipodi:docname="DR1.svg"><metadata
     id="metadata3342"><rdf:RDF><cc:Work
         rdf:about=""><dc:format>image/svg+xml</dc:format><dc:type
           rdf:resource="http://purl.org/dc/dcmitype/StillImage" /><dc:title></dc:title></cc:Work></rdf:RDF></metadata><defs
     id="defs3340" /><sodipodi:namedview
     pagecolor="#ffffff"
     bordercolor="#666666"
     borderopacity="1"
     objecttolerance="10"
     gridtolerance="10"
     guidetolerance="10"
     inkscape:pageopacity="0"
     inkscape:pageshadow="2"
     inkscape:window-width="1366"
     inkscape:window-height="705"
     id="namedview3338"
     showgrid="false"
     fit-margin-top="0"
     fit-margin-left="0"
     fit-margin-right="0"
     fit-margin-bottom="0"
     inkscape:zoom="0.52541568"
     inkscape:cx="271.9"
     inkscape:cy="-240.10625"
     inkscape:window-x="-8"
     inkscape:window-y="-8"
     inkscape:window-maximized="1"
     inkscape:current-layer="g3344" /><g
     id="g3344"
     inkscape:groupmode="layer"
     inkscape:label="Mines AADN PCSI 2007 (r-07)"
     transform="matrix(1.25,0,0,-1.25,-99.975,997.72503)"><path
       d="m 80.34,747.8 46.44,0 0.3,-0.06 0.12,-0.3 -0.12,-0.24 -0.3,-0.12 -46.44,0 -0.24,0.12 -0.12,0.24 0.12,0.3 0.24,0.06 z m 45.48,2.64 6,-3 -6,-3"
       style="fill:#000000;fill-opacity:1;fill-rule:nonzero;stroke:none"
       id="path3412"
       inkscape:connector-curvature="0" /><path
       d="m 80.34,671 46.44,0 0.3,-0.06 0.12,-0.3 -0.12,-0.24 -0.3,-0.12 -46.44,0 -0.24,0.12 -0.12,0.24 0.12,0.3 0.24,0.06 z m 45.48,2.64 6,-3 -6,-3"
       style="fill:#000000;fill-opacity:1;fill-rule:nonzero;stroke:none"
       id="path3414"
       inkscape:connector-curvature="0" /><path
       d="m 475.2,671.48 46.44,0 0.3,-0.12 0.06,-0.24 -0.06,-0.3 -0.3,-0.12 -46.44,0 -0.24,0.12 -0.12,0.3 0.12,0.24 0.24,0.12 z m 45.42,2.64 6,-3 -6,-3"
       style="fill:#000000;fill-opacity:1;fill-rule:nonzero;stroke:none"
       id="path3416"
       inkscape:connector-curvature="0" /><path
       d="m 118.32,781.22 0,-167.76 365.1,0 0,167.76 -365.1,0 z"
       style="fill:none;stroke:#000000;stroke-width:0.75;stroke-linecap:round;stroke-linejoin:miter;stroke-miterlimit:8;stroke-dasharray:0.00075, 1.5;stroke-dashoffset:0;stroke-opacity:1"
       id="path3418"
       inkscape:connector-curvature="0" /><path
       d="m 359.64,631.46 115.56,0 0,79.02 -115.56,0 0,-79.02 z"
       style="fill:#ffffff;fill-opacity:1;fill-rule:nonzero;stroke:none"
       id="path3420"
       inkscape:connector-curvature="0" /><path
       d="m 475.2,710.48 -115.56,0 0,-79.02 115.56,0 0,79.02 z m -115.56,0 z"
       style="fill:none;stroke:#000000;stroke-width:0.75;stroke-linecap:round;stroke-linejoin:miter;stroke-miterlimit:8;stroke-dasharray:none;stroke-opacity:1"
       id="path3422"
       inkscape:connector-curvature="0" /><path
       d="m 388.92,668 12.9,0"
       style="fill:none;stroke:#000000;stroke-width:0.31;stroke-linecap:round;stroke-linejoin:round;stroke-miterlimit:10;stroke-dasharray:none;stroke-opacity:1"
       id="path3424"
       inkscape:connector-curvature="0" /><text
       transform="matrix(0.74226026,0,0,-1,403.98,664.3403)"
       style="font-variant:normal;font-weight:normal;font-stretch:normal;font-size:19.73579979px;font-family:Symbol;-inkscape-font-specification:SymbolMT;writing-mode:lr-tb;fill:#000000;fill-opacity:1;fill-rule:nonzero;stroke:none"
       id="text3426"><tspan
         x="0 76.306496"
         y="0"
         sodipodi:role="line"
         id="tspan3428">()</tspan></text>
<path
       d="m 369.72,686.66 95.34,0"
       style="fill:none;stroke:#000000;stroke-width:0.62099999;stroke-linecap:round;stroke-linejoin:round;stroke-miterlimit:10;stroke-dasharray:none;stroke-opacity:1"
       id="path3430"
       inkscape:connector-curvature="0" /><text
       transform="matrix(1,0,0,-1,455.34,664.2803)"
       style="font-variant:normal;font-weight:normal;font-stretch:normal;font-size:14.94769955px;font-family:'Times New Roman';-inkscape-font-specification:TimesNewRomanPSMT;writing-mode:lr-tb;fill:#000000;fill-opacity:1;fill-rule:nonzero;stroke:none"
       id="text3432"><tspan
         x="0 -21.119606 -7.8311 -46.979126 -42.001541"
         y="0"
         sodipodi:role="line"
         id="tspan3434">²Mpfp</tspan><tspan
         x="-65.399178"
         y="11.579983"
         id="tspan3436">K</tspan><tspan
         x="-63.659264"
         y="-9.2406683"
         id="tspan3438">1</tspan><tspan
         x="-86.219826"
         y="1.6595281e-015"
         id="tspan3440">1</tspan><tspan
         x="-41.6996"
         y="-27.899881"
         id="tspan3442">1</tspan></text>
<text
       transform="matrix(1,0,0,-1,423.3011,664.2803)"
       style="font-variant:normal;font-weight:normal;font-stretch:normal;font-size:14.94769955px;font-family:Symbol;-inkscape-font-specification:SymbolMT;writing-mode:lr-tb;fill:#000000;fill-opacity:1;fill-rule:nonzero;stroke:none"
       id="text3444"><tspan
         x="0 -45.539661"
         y="0"
         sodipodi:role="line"
         id="tspan3446">++</tspan></text>
<text
       transform="matrix(1,0,0,-1,85.80064,753.49961)"
       style="font-variant:normal;font-weight:normal;font-stretch:normal;font-size:12.01239967px;font-family:'Times New Roman';-inkscape-font-specification:TimesNewRomanPSMT;writing-mode:lr-tb;fill:#000000;fill-opacity:1;fill-rule:nonzero;stroke:none"
       id="text3448"><tspan
         x="0 6.682498 10.686231 16.696035 20.699768"
         y="0"
         sodipodi:role="line"
         id="tspan3450">F(p) </tspan><tspan
         x="0.65948075"
         y="74.70031"
         id="tspan3452">Q</tspan></text>
<text
       transform="matrix(1,0,0,-1,95.1,677.3003)"
       style="font-variant:normal;font-weight:normal;font-stretch:normal;font-size:7.98000002px;font-family:'Times New Roman';-inkscape-font-specification:TimesNewRomanPSMT;writing-mode:lr-tb;fill:#000000;fill-opacity:1;fill-rule:nonzero;stroke:none"
       id="text3454"><tspan
         x="0"
         y="0"
         id="tspan3456">1</tspan></text>
<text
       transform="matrix(1,0,0,-1,99.12,678.8003)"
       style="font-variant:normal;font-weight:normal;font-stretch:normal;font-size:12.01239967px;font-family:'Times New Roman';-inkscape-font-specification:TimesNewRomanPSMT;writing-mode:lr-tb;fill:#000000;fill-opacity:1;fill-rule:nonzero;stroke:none"
       id="text3458"><tspan
         x="0 4.0133429 10.032757 14.0461"
         y="0"
         sodipodi:role="line"
         id="tspan3460">(p) </tspan><tspan
         x="398.09933 406.77109 410.77002 416.77502 420.77396"
         y="-0.060061999"
         sodipodi:role="line"
         id="tspan3462">Y(p) </tspan><tspan
         x="132.60008 139.93965 145.94586 151.95206 155.2915 161.2977 166.63121 172.63741 177.97092 180.97041 190.31606 196.32225 202.32846 205.66791 209.00735 214.34085"
         y="-108.83955"
         sodipodi:role="line"
         id="tspan3464">Équipage mobile </tspan></text>
</g></svg>