<?xml version="1.0" encoding="UTF-8" standalone="no"?>
<svg
   xmlns:dc="http://purl.org/dc/elements/1.1/"
   xmlns:cc="http://creativecommons.org/ns#"
   xmlns:rdf="http://www.w3.org/1999/02/22-rdf-syntax-ns#"
   xmlns:svg="http://www.w3.org/2000/svg"
   xmlns="http://www.w3.org/2000/svg"
   xmlns:sodipodi="http://sodipodi.sourceforge.net/DTD/sodipodi-0.dtd"
   xmlns:inkscape="http://www.inkscape.org/namespaces/inkscape"
   width="3.4895833in"
   stroke-miterlimit="10"
   font-weight="normal"
   viewBox="0 0 334.99999 232.99999"
   height="2.4270833in"
   font-style="normal"
   font-size="12"
   version="1.1"
   id="svg2676"
   sodipodi:docname="SysML_Use_Case_Diagram__Sans_Titre1.svg"
   style="font-style:normal;font-weight:normal;font-size:12px;font-family:Arial;color-interpolation:auto;fill:#000000;fill-opacity:1;stroke:#000000;stroke-width:1;stroke-linecap:square;stroke-linejoin:miter;stroke-miterlimit:10;stroke-dasharray:none;stroke-dashoffset:0;stroke-opacity:1;color-rendering:auto;image-rendering:auto;shape-rendering:auto;text-rendering:auto"
   inkscape:version="0.92.4 (5da689c313, 2019-01-14)">
  <metadata
     id="metadata2680">
    <rdf:RDF>
      <cc:Work
         rdf:about="">
        <dc:format>image/svg+xml</dc:format>
        <dc:type
           rdf:resource="http://purl.org/dc/dcmitype/StillImage" />
        <dc:title></dc:title>
      </cc:Work>
    </rdf:RDF>
  </metadata>
  <sodipodi:namedview
     pagecolor="#ffffff"
     bordercolor="#666666"
     borderopacity="1"
     objecttolerance="10"
     gridtolerance="10"
     guidetolerance="10"
     inkscape:pageopacity="0"
     inkscape:pageshadow="2"
     inkscape:window-width="1366"
     inkscape:window-height="705"
     id="namedview2678"
     showgrid="false"
     fit-margin-top="0"
     fit-margin-left="0"
     fit-margin-right="0"
     fit-margin-bottom="0"
     inkscape:zoom="0.93650794"
     inkscape:cx="31.016949"
     inkscape:cy="111.5"
     inkscape:window-x="-8"
     inkscape:window-y="-8"
     inkscape:window-maximized="1"
     inkscape:current-layer="svg2676" />
  <!--Generated by the Batik Graphics2D SVG Generator
 This is MagicDraw diagram.-->
  <defs
     id="genericDefs">
    <defs
       id="defs1">
      <linearGradient
         spreadMethod="pad"
         id="linearGradient1"
         y2="217"
         y1="35"
         x2="319"
         gradientUnits="userSpaceOnUse"
         x1="91">
        <stop
           id="stop2560"
           offset="0%"
           stop-color="rgb(212,221,255)"
           stop-opacity="1" />
        <stop
           id="stop2562"
           offset="100%"
           stop-color="white"
           stop-opacity="1" />
      </linearGradient>
      <linearGradient
         spreadMethod="pad"
         id="linearGradient2"
         y2="140"
         y1="98"
         x2="259"
         gradientUnits="userSpaceOnUse"
         x1="119">
        <stop
           id="stop2565"
           offset="0%"
           stop-color="rgb(255,255,204)"
           stop-opacity="1" />
        <stop
           id="stop2567"
           offset="100%"
           stop-color="white"
           stop-opacity="1" />
      </linearGradient>
      <linearGradient
         spreadMethod="pad"
         id="linearGradient3"
         y2="111"
         y1="84"
         x2="67"
         gradientUnits="userSpaceOnUse"
         x1="40">
        <stop
           id="stop2570"
           offset="0%"
           stop-color="rgb(255,255,204)"
           stop-opacity="1" />
        <stop
           id="stop2572"
           offset="100%"
           stop-color="white"
           stop-opacity="1" />
      </linearGradient>
      <clipPath
         id="clipPath1"
         clipPathUnits="userSpaceOnUse">
        <path
           id="path2575"
           d="M 0,0 H 354 V 252 H 0 Z"
           inkscape:connector-curvature="0" />
      </clipPath>
      <clipPath
         id="clipPath2"
         clipPathUnits="userSpaceOnUse">
        <path
           id="path2578"
           d="m 222.6923,181.4042 9.5553,333.8633 -231.905,6.6372 -9.5553,-333.8633 z"
           inkscape:connector-curvature="0" />
      </clipPath>
    </defs>
  </defs>
  <g
     style="fill:#424242;stroke:#424242;stroke-linecap:butt;stroke-linejoin:round;text-rendering:geometricPrecision"
     id="g2672"
     transform="translate(-4.5,-4.5)">
    <rect
       style="fill:none"
       id="rect2596"
       clip-path="url(#clipPath1)"
       y="5"
       height="232"
       width="334"
       x="5" />
    <path
       style="fill:#000000;stroke:none"
       inkscape:connector-curvature="0"
       id="path2598"
       clip-path="url(#clipPath1)"
       d="m 131.5,15.9666 0.9844,-0.0782 q 0.0625,0.5782 0.3203,0.961 0.2578,0.3828 0.7891,0.6172 0.5312,0.2343 1.2031,0.2343 0.6093,0 1.0625,-0.1797 0.4531,-0.1796 0.6797,-0.4843 0.2265,-0.3047 0.2265,-0.6797 0,-0.375 -0.2187,-0.6485 -0.2188,-0.2734 -0.7188,-0.4609 -0.3125,-0.125 -1.3984,-0.3828 -1.0859,-0.2578 -1.5235,-0.4922 -0.5624,-0.2969 -0.8359,-0.7344 -0.2734,-0.4375 -0.2734,-0.9843 0,-0.5938 0.3359,-1.1094 0.336,-0.5156 0.9844,-0.7891 0.6484,-0.2734 1.4453,-0.2734 0.875,0 1.5469,0.289 0.6718,0.2891 1.0312,0.836 0.3594,0.5469 0.3906,1.2344 l -1,0.0781 q -0.0781,-0.75 -0.5468,-1.1328 -0.4688,-0.3828 -1.375,-0.3828 -0.9375,0 -1.375,0.3515 -0.4375,0.3516 -0.4375,0.836 0,0.4218 0.3125,0.7031 0.2968,0.2656 1.5703,0.5547 1.2734,0.289 1.7422,0.5078 0.6875,0.3125 1.0156,0.7969 0.3281,0.4843 0.3281,1.125 0,0.625 -0.3594,1.1796 -0.3593,0.5547 -1.039,0.8672 -0.6797,0.3125 -1.5234,0.3125 -1.0626,0 -1.7813,-0.3125 -0.7187,-0.3125 -1.1328,-0.9375 -0.4141,-0.625 -0.4297,-1.4218 z m 10.9531,1.8281 q -0.5469,0.4531 -1.039,0.6406 -0.4922,0.1875 -1.0703,0.1875 -0.9376,0 -1.4454,-0.4609 -0.5078,-0.461 -0.5078,-1.1641 0,-0.4219 0.1953,-0.7656 0.1953,-0.3438 0.5,-0.5547 0.3047,-0.2109 0.6953,-0.3203 0.2813,-0.0781 0.8594,-0.1406 1.1719,-0.1407 1.7188,-0.3438 0.0156,-0.1875 0.0156,-0.25 0,-0.5937 -0.2812,-0.8281 -0.3594,-0.3281 -1.0938,-0.3281 -0.6875,0 -1.0078,0.2343 -0.3203,0.2344 -0.4766,0.8438 l -0.9531,-0.125 q 0.125,-0.6094 0.4219,-0.9844 0.2968,-0.375 0.8594,-0.5703 0.5624,-0.1953 1.2968,-0.1953 0.7344,0 1.1875,0.1719 0.4531,0.1718 0.6641,0.4296 0.2109,0.2579 0.3047,0.6485 0.0469,0.25 0.0469,0.9062 v 1.2813 q 0,1.3437 0.0624,1.7031 0.0626,0.3594 0.25,0.6875 h -1.0156 q -0.1562,-0.2969 -0.1875,-0.7031 z m -0.0937,-2.1563 q -0.5156,0.2188 -1.5782,0.3594 -0.5937,0.0938 -0.8359,0.1953 -0.2422,0.1016 -0.3828,0.3125 -0.1406,0.211 -0.1406,0.461 0,0.3906 0.2969,0.6484 0.2968,0.2578 0.8593,0.2578 0.5625,0 0.9922,-0.25 0.4297,-0.25 0.6485,-0.6719 0.1406,-0.3281 0.1406,-0.9687 z m 2.3594,2.8594 v -5.7031 h 0.875 v 0.8125 q 0.625,-0.9375 1.8124,-0.9375 0.5157,0 0.9532,0.1797 0.4375,0.1797 0.6484,0.4843 0.211,0.3047 0.3047,0.711 0.0469,0.2812 0.0469,0.9531 v 3.5 h -0.9688 v -3.4687 q 0,-0.5938 -0.1094,-0.8829 -0.1093,-0.289 -0.3984,-0.4687 -0.289,-0.1797 -0.6797,-0.1797 -0.6093,0 -1.0625,0.3906 -0.4531,0.3907 -0.4531,1.5 v 3.1094 z m 5.625,-1.7031 0.9531,-0.1563 q 0.0781,0.5782 0.4453,0.8828 0.3672,0.3047 1.0234,0.3047 0.6719,0 0.9922,-0.2656 0.3203,-0.2656 0.3203,-0.6406 0,-0.3281 -0.2812,-0.5156 -0.2031,-0.125 -0.9844,-0.3282 -1.0625,-0.2656 -1.4766,-0.4609 -0.414,-0.1953 -0.625,-0.5391 -0.2109,-0.3437 -0.2109,-0.7656 0,-0.3906 0.1719,-0.7109 0.1719,-0.3203 0.4843,-0.5391 0.2188,-0.1719 0.6094,-0.2812 0.3906,-0.1094 0.8282,-0.1094 0.6718,0 1.1796,0.1875 0.5078,0.1875 0.75,0.5234 0.2422,0.336 0.336,0.8828 l -0.9375,0.125 q -0.0781,-0.4375 -0.3828,-0.6797 -0.3047,-0.2421 -0.8672,-0.2421 -0.6719,0 -0.9531,0.2187 -0.2813,0.2188 -0.2813,0.5156 0,0.1875 0.1094,0.3282 0.125,0.1562 0.375,0.2656 0.1406,0.0469 0.8593,0.25 1.0157,0.2656 1.4219,0.4375 0.4063,0.1719 0.6407,0.5078 0.2343,0.3359 0.2343,0.8359 0,0.4844 -0.2812,0.9063 -0.2813,0.4219 -0.8125,0.6562 -0.5313,0.2344 -1.2032,0.2344 -1.1093,0 -1.6953,-0.4609 -0.5859,-0.461 -0.7421,-1.3672 z m 11.5156,1.7031 v -6.9375 h -2.5938 V 10.6228 H 165.5 v 0.9375 h -2.6094 v 6.9375 z m 3.875,-6.7656 v -1.1094 h 0.9687 v 1.1094 z m 0,6.7656 v -5.7031 h 0.9687 v 5.7031 z m 4.1094,-0.8594 0.125,0.8438 q -0.4063,0.0937 -0.7188,0.0937 -0.5312,0 -0.8203,-0.1718 -0.2891,-0.1719 -0.4063,-0.4375 -0.1172,-0.2657 -0.1172,-1.1407 v -3.2812 h -0.7187 v -0.75 h 0.7187 v -1.4063 l 0.9532,-0.5937 v 2 h 0.9844 v 0.75 h -0.9844 v 3.3437 q 0,0.4063 0.0547,0.5235 0.0547,0.1172 0.1718,0.1875 0.1172,0.0703 0.3203,0.0703 0.1719,0 0.4376,-0.0313 z m 0.875,0.8594 v -5.7031 h 0.8593 v 0.8594 q 0.3438,-0.6094 0.625,-0.7969 0.2813,-0.1875 0.6094,-0.1875 0.5,0 1,0.3125 l -0.3281,0.8906 q -0.3594,-0.2031 -0.7188,-0.2031 -0.3125,0 -0.5625,0.1875 -0.25,0.1875 -0.3593,0.5312 -0.1563,0.5157 -0.1563,1.125 v 2.9844 z m 7.9062,-1.8437 1,0.125 q -0.2344,0.875 -0.875,1.3593 -0.6406,0.4844 -1.625,0.4844 -1.25,0 -1.9844,-0.7656 -0.7344,-0.7656 -0.7344,-2.1563 0,-1.4531 0.7422,-2.2422 0.7422,-0.789 1.9141,-0.789 1.1563,0 1.875,0.7734 0.7187,0.7735 0.7187,2.1953 0,0.0782 0,0.25 h -4.25 q 0.0469,0.9375 0.5235,1.4375 0.4765,0.5 1.1953,0.5 0.5312,0 0.9062,-0.2734 0.375,-0.2734 0.5938,-0.8984 z m -3.1719,-1.5625 h 3.1875 q -0.0625,-0.7188 -0.3594,-1.0782 -0.4687,-0.5468 -1.2031,-0.5468 -0.6719,0 -1.125,0.4453 -0.4531,0.4453 -0.5,1.1797 z m 8.6407,3.4062 h -0.9688 v -6.1562 q -0.3438,0.3281 -0.9062,0.664 -0.5626,0.336 -1.0157,0.4922 v -0.9375 q 0.8125,-0.375 1.4141,-0.9141 0.6016,-0.539 0.8516,-1.0546 h 0.625 z" />
    <path
       style="fill:#000000;stroke:none"
       inkscape:connector-curvature="0"
       id="path2600"
       clip-path="url(#clipPath1)"
       d="m 73.8125,18.4978 v -7.875 h 2.9531 q 0.8906,0 1.4375,0.2422 0.5469,0.2422 0.8594,0.7344 0.3125,0.4922 0.3125,1.039 0,0.5 -0.2734,0.9453 -0.2735,0.4454 -0.836,0.7266 0.7188,0.2031 1.1016,0.7109 0.3828,0.5079 0.3828,1.1954 0,0.5468 -0.2344,1.0234 -0.2344,0.4766 -0.5781,0.7344 -0.3437,0.2578 -0.8594,0.3906 -0.5156,0.1328 -1.2656,0.1328 z m 1.0313,-4.5625 h 1.7031 q 0.7031,0 1,-0.0937 0.3906,-0.125 0.5937,-0.3985 0.2032,-0.2734 0.2032,-0.6797 0,-0.3906 -0.1876,-0.6875 -0.1874,-0.2968 -0.539,-0.4062 -0.3516,-0.1094 -1.1953,-0.1094 h -1.5781 z m 0,3.6406 h 1.9687 q 0.5,0 0.7031,-0.0468 0.3594,-0.0625 0.6016,-0.211 0.2422,-0.1484 0.3984,-0.4375 0.1563,-0.289 0.1563,-0.664 0,-0.4375 -0.2266,-0.7657 -0.2265,-0.3281 -0.625,-0.4609 -0.3984,-0.1328 -1.1484,-0.1328 h -1.8281 z m 9.6093,0.2188 q -0.5469,0.4531 -1.039,0.6406 -0.4922,0.1875 -1.0703,0.1875 -0.9376,0 -1.4454,-0.4609 -0.5078,-0.461 -0.5078,-1.1641 0,-0.4219 0.1953,-0.7656 0.1953,-0.3438 0.5,-0.5547 0.3047,-0.2109 0.6953,-0.3203 0.2813,-0.0781 0.8594,-0.1406 1.1719,-0.1407 1.7188,-0.3438 0.0156,-0.1875 0.0156,-0.25 0,-0.5937 -0.2812,-0.8281 Q 83.7344,13.4666 83,13.4666 q -0.6875,0 -1.0078,0.2343 -0.3203,0.2344 -0.4766,0.8438 l -0.9531,-0.125 q 0.125,-0.6094 0.4219,-0.9844 0.2968,-0.375 0.8594,-0.5703 0.5624,-0.1953 1.2968,-0.1953 0.7344,0 1.1875,0.1719 0.4531,0.1718 0.6641,0.4296 0.2109,0.2579 0.3047,0.6485 0.0469,0.25 0.0469,0.9062 v 1.2813 q 0,1.3437 0.0624,1.7031 0.0626,0.3594 0.25,0.6875 h -1.0156 q -0.1562,-0.2969 -0.1875,-0.7031 z m -0.0937,-2.1563 q -0.5156,0.2188 -1.5782,0.3594 -0.5937,0.0938 -0.8359,0.1953 -0.2422,0.1016 -0.3828,0.3125 -0.1406,0.211 -0.1406,0.461 0,0.3906 0.2969,0.6484 0.2968,0.2578 0.8593,0.2578 0.5625,0 0.9922,-0.25 0.4297,-0.25 0.6485,-0.6719 0.1406,-0.3281 0.1406,-0.9687 z m 1.9844,1.1563 0.9531,-0.1563 q 0.0781,0.5782 0.4453,0.8828 0.3672,0.3047 1.0234,0.3047 0.6719,0 0.9922,-0.2656 0.3203,-0.2656 0.3203,-0.6406 0,-0.3281 -0.2812,-0.5156 -0.2031,-0.125 -0.9844,-0.3282 Q 87.75,15.8103 87.3359,15.615 86.9219,15.4197 86.7109,15.0759 86.5,14.7322 86.5,14.3103 q 0,-0.3906 0.1719,-0.7109 0.1719,-0.3203 0.4843,-0.5391 0.2188,-0.1719 0.6094,-0.2812 0.3906,-0.1094 0.8282,-0.1094 0.6718,0 1.1796,0.1875 0.5078,0.1875 0.75,0.5234 0.2422,0.336 0.336,0.8828 l -0.9375,0.125 q -0.0781,-0.4375 -0.3828,-0.6797 -0.3047,-0.2421 -0.8672,-0.2421 -0.6719,0 -0.9531,0.2187 -0.2813,0.2188 -0.2813,0.5156 0,0.1875 0.1094,0.3282 0.125,0.1562 0.375,0.2656 0.1406,0.0469 0.8593,0.25 1.0157,0.2656 1.4219,0.4375 0.4063,0.1719 0.6407,0.5078 0.2343,0.3359 0.2343,0.8359 0,0.4844 -0.2812,0.9063 -0.2813,0.4219 -0.8125,0.6562 -0.5313,0.2344 -1.2032,0.2344 -1.1093,0 -1.6953,-0.4609 -0.5859,-0.461 -0.7421,-1.3672 z m 10.1093,-0.3906 0.9375,0.125 q -0.1406,0.9843 -0.789,1.539 -0.6485,0.5547 -1.5704,0.5547 -1.1718,0 -1.8828,-0.7656 -0.7109,-0.7656 -0.7109,-2.1875 0,-0.9219 0.3047,-1.6172 0.3047,-0.6953 0.9297,-1.0391 0.625,-0.3437 1.3593,-0.3437 0.9219,0 1.5157,0.4687 0.5937,0.4688 0.7656,1.3282 l -0.9531,0.1406 q -0.125,-0.5625 -0.4688,-0.8516 -0.3437,-0.289 -0.8281,-0.289 -0.7187,0 -1.1797,0.5234 -0.4609,0.5234 -0.4609,1.6484 0,1.1563 0.4375,1.6719 0.4375,0.5156 1.1562,0.5156 0.5625,0 0.9453,-0.3437 0.3829,-0.3438 0.4922,-1.0781 z m 6.0157,2.0937 v -0.8437 q -0.6719,0.9687 -1.8126,0.9687 -0.5,0 -0.9453,-0.1953 -0.4453,-0.1953 -0.6562,-0.4844 -0.2109,-0.289 -0.2891,-0.7109 -0.0625,-0.2813 -0.0625,-0.9063 v -3.5312 h 0.9688 v 3.1562 q 0,0.7657 0.0625,1.0313 0.0937,0.375 0.3828,0.5937 0.289,0.2188 0.7266,0.2188 0.4374,0 0.8203,-0.2266 0.3828,-0.2265 0.539,-0.6094 0.1563,-0.3828 0.1563,-1.1015 v -3.0625 h 0.9687 v 5.7031 z m 2.2343,0 v -7.875 h 0.9688 v 7.875 z m 5.9219,-1.8437 1,0.125 q -0.2344,0.875 -0.875,1.3593 -0.6406,0.4844 -1.625,0.4844 -1.25,0 -1.9844,-0.7656 -0.7344,-0.7656 -0.7344,-2.1563 0,-1.4531 0.7422,-2.2422 0.7422,-0.789 1.9141,-0.789 1.1563,0 1.875,0.7734 0.7187,0.7735 0.7187,2.1953 0,0.0782 0,0.25 h -4.25 q 0.0469,0.9375 0.5235,1.4375 0.4765,0.5 1.1953,0.5 0.5312,0 0.9062,-0.2734 0.375,-0.2734 0.5938,-0.8984 z m -3.1719,-1.5625 h 3.1875 q -0.0625,-0.7188 -0.3594,-1.0782 -0.4687,-0.5468 -1.2031,-0.5468 -0.6719,0 -1.125,0.4453 -0.4531,0.4453 -0.5,1.1797 z m 9.0157,3.4062 v -0.8437 q -0.6719,0.9687 -1.8126,0.9687 -0.5,0 -0.9453,-0.1953 -0.4453,-0.1953 -0.6562,-0.4844 -0.2109,-0.289 -0.2891,-0.7109 -0.0625,-0.2813 -0.0625,-0.9063 v -3.5312 h 0.9688 v 3.1562 q 0,0.7657 0.0625,1.0313 0.0937,0.375 0.3828,0.5937 0.289,0.2188 0.7266,0.2188 0.4374,0 0.8203,-0.2266 0.3828,-0.2265 0.539,-0.6094 0.1563,-0.3828 0.1563,-1.1015 v -3.0625 h 0.9687 v 5.7031 z m 2.25,0 v -5.7031 h 0.8593 v 0.8594 q 0.3438,-0.6094 0.625,-0.7969 0.2813,-0.1875 0.6094,-0.1875 0.5,0 1,0.3125 l -0.3281,0.8906 q -0.3594,-0.2031 -0.7188,-0.2031 -0.3125,0 -0.5625,0.1875 -0.25,0.1875 -0.3593,0.5312 -0.1563,0.5157 -0.1563,1.125 v 2.9844 z" />
    <path
       style="fill:#000000;stroke:none"
       inkscape:connector-curvature="0"
       id="path2602"
       clip-path="url(#clipPath1)"
       d="M 29.75,20.6853 V 10.6228 h 2.125 v 0.7969 h -1.1562 v 8.4687 h 1.1562 v 0.7969 z m 3.0625,-2.1875 v -7.875 h 1.5781 l 1.8594,5.5781 q 0.25,0.7813 0.375,1.1563 0.1406,-0.4219 0.4219,-1.25 l 1.875,-5.4844 h 1.4062 v 7.875 h -1 v -6.5937 l -2.2969,6.5937 h -0.9374 l -2.2657,-6.7031 v 6.7031 z m 7.5469,-2.8594 q 0,-1.5781 0.8906,-2.3437 0.7344,-0.625 1.7969,-0.625 1.1719,0 1.914,0.7656 0.7422,0.7656 0.7422,2.125 0,1.1094 -0.3281,1.7422 -0.3281,0.6328 -0.9609,0.9766 -0.6329,0.3437 -1.3672,0.3437 -1.2031,0 -1.9453,-0.7656 -0.7422,-0.7656 -0.7422,-2.2188 z m 1,0 q 0,1.1094 0.4765,1.6485 0.4766,0.539 1.211,0.539 0.7187,0 1.1953,-0.5468 0.4766,-0.5469 0.4766,-1.6719 0,-1.0469 -0.4844,-1.5938 -0.4844,-0.5468 -1.1875,-0.5468 -0.7344,0 -1.211,0.539 -0.4765,0.5391 -0.4765,1.6328 z m 9.0625,2.8594 v -0.7187 q -0.5313,0.8437 -1.5938,0.8437 -0.6719,0 -1.25,-0.375 Q 47,17.8728 46.6875,17.2009 46.375,16.5291 46.375,15.6541 q 0,-0.8594 0.2891,-1.5547 0.289,-0.6953 0.8515,-1.0625 0.5625,-0.3672 1.2656,-0.3672 0.5157,0 0.9219,0.2187 0.4063,0.2188 0.6563,0.5625 v -2.8281 h 0.9687 v 7.875 z M 47.375,15.6541 q 0,1.0937 0.4609,1.6328 0.461,0.539 1.086,0.539 0.6406,0 1.0781,-0.5156 0.4375,-0.5156 0.4375,-1.5781 0,-1.1719 -0.4453,-1.7188 -0.4453,-0.5468 -1.1172,-0.5468 -0.6406,0 -1.0703,0.5234 -0.4297,0.5234 -0.4297,1.6641 z m 9.25,1 1,0.125 q -0.2344,0.875 -0.875,1.3593 -0.6406,0.4844 -1.625,0.4844 -1.25,0 -1.9844,-0.7656 -0.7344,-0.7656 -0.7344,-2.1563 0,-1.4531 0.7422,-2.2422 0.7422,-0.789 1.9141,-0.789 1.1563,0 1.875,0.7734 0.7187,0.7735 0.7187,2.1953 0,0.0782 0,0.25 h -4.25 q 0.0469,0.9375 0.5235,1.4375 0.4765,0.5 1.1953,0.5 0.5312,0 0.9062,-0.2734 0.375,-0.2734 0.5938,-0.8984 z m -3.1719,-1.5625 h 3.1875 q -0.0625,-0.7188 -0.3594,-1.0782 -0.4687,-0.5468 -1.2031,-0.5468 -0.6719,0 -1.125,0.4453 -0.4531,0.4453 -0.5,1.1797 z m 1.3281,-3.5938 H 54 L 52.7656,9.9822 h 1.2813 z m 3.9219,7 v -7.875 h 0.9688 v 7.875 z m 5.9219,-1.8437 1,0.125 q -0.2344,0.875 -0.875,1.3593 -0.6406,0.4844 -1.625,0.4844 -1.25,0 -1.9844,-0.7656 -0.7344,-0.7656 -0.7344,-2.1563 0,-1.4531 0.7422,-2.2422 0.7422,-0.789 1.9141,-0.789 1.1563,0 1.875,0.7734 0.7187,0.7735 0.7187,2.1953 0,0.0782 0,0.25 h -4.25 q 0.0469,0.9375 0.5235,1.4375 0.4765,0.5 1.1953,0.5 0.5312,0 0.9062,-0.2734 0.375,-0.2734 0.5938,-0.8984 z m -3.1719,-1.5625 h 3.1875 q -0.0625,-0.7188 -0.3594,-1.0782 -0.4687,-0.5468 -1.2031,-0.5468 -0.6719,0 -1.125,0.4453 -0.4531,0.4453 -0.5,1.1797 z m 6.8907,5.5937 h -2.1407 v -0.7969 h 1.1719 v -8.4687 h -1.1719 v -0.7969 h 2.1407 z" />
    <path
       style="fill:#000000;stroke:none"
       inkscape:connector-curvature="0"
       id="path2604"
       clip-path="url(#clipPath1)"
       d="m 16.5469,18.4978 v -0.8594 q -0.3125,0.4688 -0.8203,0.7266 -0.5078,0.2578 -1.0704,0.2578 -0.5781,0 -1.0312,-0.25 -0.4531,-0.25 -0.6641,-0.7109 Q 12.75,17.2009 12.75,16.4041 v -3.6094 h 1.5156 v 2.625 q 0,1.2031 0.086,1.4687 0.0859,0.2657 0.3046,0.4297 0.2188,0.1641 0.5626,0.1641 0.375,0 0.6874,-0.211 0.3126,-0.2109 0.4219,-0.5312 0.1094,-0.3203 0.1094,-1.5391 v -2.4062 h 1.5156 v 5.7031 z m 8.2187,-4.0156 -1.4844,0.2656 q -0.0781,-0.4375 -0.3437,-0.6641 -0.2656,-0.2265 -0.6875,-0.2265 -0.5625,0 -0.8984,0.3828 -0.336,0.3828 -0.336,1.3047 0,1.0156 0.336,1.4375 0.3359,0.4219 0.914,0.4219 0.4375,0 0.711,-0.25 0.2734,-0.25 0.3828,-0.8438 l 1.4844,0.25 q -0.2344,1.0313 -0.8907,1.5469 -0.6562,0.5156 -1.75,0.5156 -1.2656,0 -2.0078,-0.7891 -0.7422,-0.789 -0.7422,-2.1796 0,-1.4219 0.75,-2.2032 0.75,-0.7812 2.0157,-0.7812 1.0468,0 1.664,0.4453 0.6172,0.4453 0.8828,1.3672 z" />
    <path
       style="fill:#000000;stroke:none"
       inkscape:connector-curvature="0"
       id="path2606"
       clip-path="url(#clipPath1)"
       d="M 124.75,20.6853 V 10.6228 h 2.125 v 0.7969 h -1.1562 v 8.4687 h 1.1562 v 0.7969 z" />
    <path
       style="fill:#000000;stroke:none"
       inkscape:connector-curvature="0"
       id="path2608"
       clip-path="url(#clipPath1)"
       d="m 192.3438,20.6853 h -2.1407 v -0.7969 h 1.1719 v -8.4687 h -1.1719 v -0.7969 h 2.1407 z" />
    <line
       style="fill:none"
       id="line2610"
       y1="23"
       x2="188"
       clip-path="url(#clipPath1)"
       x1="5"
       y2="23" />
    <line
       style="fill:none"
       id="line2612"
       y1="5"
       x2="197"
       clip-path="url(#clipPath1)"
       x1="197"
       y2="17" />
    <line
       style="fill:none"
       id="line2614"
       y1="23"
       x2="197"
       clip-path="url(#clipPath1)"
       x1="188"
       y2="17" />
    <rect
       style="fill:#b2b2b2;stroke:none"
       id="rect2616"
       height="167"
       width="228"
       clip-path="url(#clipPath1)"
       y="53"
       x="94" />
    <rect
       style="fill:#b2b2b2;stroke:none"
       id="rect2618"
       height="15"
       width="81"
       clip-path="url(#clipPath1)"
       y="38"
       x="94" />
    <polygon
       style="fill:url(#linearGradient1);stroke:none"
       id="polygon2620"
       points="319,217 319,50 91,50 172,50 172,35 91,35 91,217 "
       clip-path="url(#clipPath1)" />
    <polygon
       style="fill:none;stroke:#6b7599"
       id="polygon2622"
       points="319,217 319,50 91,50 172,50 172,35 91,35 91,217 "
       clip-path="url(#clipPath1)" />
    <path
       style="fill:#000000;stroke:none"
       inkscape:connector-curvature="0"
       id="path2624"
       clip-path="url(#clipPath1)"
       d="m 165.9531,56.094 h 3.7188 q 1.1093,0 1.6484,0.0937 0.5391,0.0938 0.9688,0.3907 0.4297,0.2968 0.7187,0.7812 0.2891,0.4844 0.2891,1.0781 0,0.6563 -0.3594,1.2032 -0.3594,0.5468 -0.9531,0.8281 0.8437,0.2344 1.3047,0.8359 0.4609,0.6016 0.4609,1.3985 0,0.6406 -0.2969,1.2422 -0.2969,0.6015 -0.8047,0.9609 -0.5078,0.3594 -1.2578,0.4375 -0.4687,0.0469 -2.2656,0.0625 h -3.1719 z m 1.875,1.5625 v 2.1406 h 1.2344 q 1.0937,0 1.3594,-0.0312 0.4843,-0.0469 0.7656,-0.3282 0.2813,-0.2812 0.2813,-0.7343 0,-0.4219 -0.2422,-0.6953 -0.2422,-0.2735 -0.711,-0.3204 -0.2812,-0.0312 -1.6094,-0.0312 z m 0,3.6875 v 2.5 h 1.75 q 1.0157,0 1.2813,-0.0625 0.4218,-0.0781 0.6875,-0.375 0.2656,-0.2969 0.2656,-0.7813 0,-0.4218 -0.2031,-0.7187 -0.2032,-0.2969 -0.5938,-0.4297 -0.3906,-0.1328 -1.6718,-0.1328 z m 8.4375,-0.625 -1.625,-0.2969 q 0.2813,-0.9687 0.9453,-1.4375 0.6641,-0.4687 1.9766,-0.4687 1.2031,0 1.7813,0.2812 0.5781,0.2813 0.8203,0.7188 0.2421,0.4375 0.2421,1.5937 l -0.0156,2.0781 q 0,0.8907 0.086,1.3125 0.0859,0.4219 0.3203,0.9063 h -1.7657 q -0.0781,-0.1719 -0.1718,-0.5313 -0.0469,-0.1562 -0.0625,-0.2031 -0.4688,0.4375 -0.9844,0.6641 -0.5156,0.2265 -1.1094,0.2265 -1.0469,0 -1.6406,-0.5703 -0.5937,-0.5703 -0.5937,-1.4297 0,-0.5625 0.2734,-1.0156 0.2734,-0.4531 0.7656,-0.6875 0.4922,-0.2344 1.4141,-0.4219 1.25,-0.2343 1.7343,-0.4375 v -0.1718 q 0,-0.5157 -0.2578,-0.7344 -0.2578,-0.2188 -0.9609,-0.2188 -0.4687,0 -0.7344,0.1875 -0.2656,0.1875 -0.4375,0.6563 z m 2.3906,1.4531 q -0.3437,0.1094 -1.0859,0.2656 -0.7422,0.1563 -0.9765,0.3125 -0.3438,0.25 -0.3438,0.625 0,0.375 0.2812,0.6485 0.2813,0.2734 0.7032,0.2734 0.4844,0 0.9218,-0.3125 0.3282,-0.2344 0.4219,-0.5937 0.0781,-0.2188 0.0781,-0.8594 z m 3.6563,1.3125 1.7813,-0.2812 q 0.1093,0.5312 0.4609,0.7968 0.3515,0.2657 0.9765,0.2657 0.7032,0 1.0469,-0.25 0.2344,-0.1719 0.2344,-0.4688 0,-0.2031 -0.125,-0.3437 -0.1406,-0.125 -0.5937,-0.2344 -2.1563,-0.4688 -2.7344,-0.875 -0.8125,-0.5469 -0.8125,-1.5156 0,-0.875 0.6953,-1.4688 0.6953,-0.5937 2.1484,-0.5937 1.3906,0 2.0625,0.4453 0.6719,0.4453 0.9219,1.3359 l -1.6875,0.3125 q -0.1094,-0.3906 -0.4063,-0.6015 -0.2968,-0.211 -0.8593,-0.211 -0.7031,0 -1.0157,0.1875 -0.2031,0.1406 -0.2031,0.375 0,0.1875 0.1875,0.3125 0.2344,0.1875 1.6641,0.5078 1.4297,0.3203 1.9922,0.7891 0.5625,0.4844 0.5625,1.3281 0,0.9219 -0.7813,1.5938 -0.7812,0.6718 -2.2969,0.6718 -1.375,0 -2.1796,-0.5625 -0.8047,-0.5625 -1.0391,-1.5156 z m 12.5,-2.8281 -1.7656,0.3125 q -0.0781,-0.5156 -0.3985,-0.7813 -0.3203,-0.2656 -0.8203,-0.2656 -0.6562,0 -1.0547,0.4531 -0.3984,0.4532 -0.3984,1.5469 0,1.1875 0.4062,1.6875 0.4063,0.5 1.0782,0.5 0.5156,0 0.8359,-0.289 0.3203,-0.2891 0.4453,-0.9922 l 1.7656,0.2968 q -0.2812,1.2032 -1.0546,1.8204 -0.7735,0.6171 -2.0704,0.6171 -1.4843,0 -2.3593,-0.9375 -0.875,-0.9375 -0.875,-2.5781 0,-1.6719 0.875,-2.6015 0.875,-0.9297 2.3906,-0.9297 1.2344,0 1.9609,0.5312 0.7266,0.5313 1.0391,1.6094 z m 5.5625,4.75 v -1.0156 q -0.375,0.5468 -0.9766,0.8593 -0.6015,0.3125 -1.2578,0.3125 -0.6875,0 -1.2265,-0.2968 -0.5391,-0.2969 -0.7813,-0.8438 -0.2422,-0.5469 -0.2422,-1.4844 v -4.2656 h 1.7813 v 3.0938 q 0,1.4218 0.1015,1.7422 0.1016,0.3203 0.3594,0.5078 0.2578,0.1875 0.6641,0.1875 0.4531,0 0.8203,-0.25 0.3672,-0.25 0.5,-0.625 0.1328,-0.375 0.1328,-1.8125 v -2.8438 h 1.7812 v 6.7344 z m 3.5625,0 V 56.094 h 1.7813 v 9.3125 z m 7.9063,-2.1406 1.7656,0.2968 q -0.3438,0.9688 -1.0782,1.4844 -0.7343,0.5156 -1.8437,0.5156 -1.7656,0 -2.6094,-1.1562 -0.6719,-0.9219 -0.6719,-2.3125 0,-1.6875 0.8829,-2.6328 0.8828,-0.9453 2.2109,-0.9453 1.5156,0 2.3828,0.9922 0.8672,0.9921 0.8203,3.039 h -4.4687 q 0.0312,0.7969 0.4375,1.2344 0.4062,0.4375 1.0312,0.4375 0.4219,0 0.7031,-0.2266 0.2813,-0.2265 0.4376,-0.7265 z m 0.0937,-1.8125 q -0.0156,-0.7657 -0.3984,-1.1719 -0.3829,-0.4063 -0.9297,-0.4063 -0.5782,0 -0.9688,0.4219 -0.375,0.4375 -0.375,1.1563 z m 8.4375,3.9531 v -1.0156 q -0.375,0.5468 -0.9766,0.8593 -0.6015,0.3125 -1.2578,0.3125 -0.6875,0 -1.2265,-0.2968 -0.5391,-0.2969 -0.7813,-0.8438 -0.2422,-0.5469 -0.2422,-1.4844 v -4.2656 h 1.7813 v 3.0938 q 0,1.4218 0.1015,1.7422 0.1016,0.3203 0.3594,0.5078 0.2578,0.1875 0.6641,0.1875 0.4531,0 0.8203,-0.25 0.3672,-0.25 0.5,-0.625 0.1328,-0.375 0.1328,-1.8125 v -2.8438 h 1.7812 v 6.7344 z m 5.2656,0 h -1.7812 v -6.7344 h 1.6562 v 0.9531 q 0.4219,-0.6875 0.7656,-0.8984 0.3438,-0.2109 0.7657,-0.2109 0.6093,0 1.1719,0.3281 l -0.5469,1.5625 q -0.4531,-0.2969 -0.8438,-0.2969 -0.375,0 -0.6328,0.211 -0.2578,0.2109 -0.4062,0.75 -0.1485,0.539 -0.1485,2.2578 z" />
    <polygon
       style="fill:none;stroke:#000000"
       id="polygon2626"
       points="306,59 310,66 302,66 "
       clip-path="url(#clipPath1)" />
    <ellipse
       style="fill:#b2b2b2;stroke:none"
       id="ellipse2628"
       cy="122"
       ry="21"
       cx="192"
       rx="70"
       clip-path="url(#clipPath1)" />
    <ellipse
       style="fill:url(#linearGradient2);stroke:none"
       id="ellipse2630"
       cy="119"
       ry="21"
       cx="189"
       rx="70"
       clip-path="url(#clipPath1)" />
    <ellipse
       style="fill:none;stroke:#666647"
       id="ellipse2632"
       cy="119"
       ry="21"
       cx="189"
       rx="70"
       clip-path="url(#clipPath1)" />
    <path
       style="fill:#000000;stroke:none"
       inkscape:connector-curvature="0"
       id="path2634"
       clip-path="url(#clipPath1)"
       d="m 148.7812,116.4978 v -7.875 h 2.375 l 1.4376,5.375 1.4062,-5.375 h 2.3906 v 7.875 h -1.4844 v -6.2031 l -1.5624,6.2031 h -1.5313 l -1.5625,-6.2031 v 6.2031 z m 11.1407,-3.9687 -1.375,-0.25 q 0.2343,-0.8125 0.7969,-1.211 0.5624,-0.3984 1.6718,-0.3984 1.0156,0 1.5078,0.2344 0.4922,0.2343 0.6954,0.6015 0.2031,0.3672 0.2031,1.3516 l -0.0157,1.7656 q 0,0.75 0.0704,1.1094 0.0703,0.3594 0.2734,0.7656 h -1.5 q -0.0625,-0.1562 -0.1406,-0.4531 -0.0313,-0.125 -0.0469,-0.1719 -0.3906,0.375 -0.8359,0.5625 -0.4454,0.1875 -0.9454,0.1875 -0.875,0 -1.3828,-0.4766 -0.5078,-0.4765 -0.5078,-1.2109 0,-0.4844 0.2344,-0.8594 0.2344,-0.375 0.6484,-0.5781 0.4141,-0.2031 1.1954,-0.3594 1.0624,-0.1875 1.4687,-0.3593 v -0.1563 q 0,-0.4375 -0.2187,-0.6172 -0.2188,-0.1797 -0.8126,-0.1797 -0.3906,0 -0.6171,0.1563 -0.2266,0.1562 -0.3672,0.5469 z m 2.0156,1.2343 q -0.2969,0.0938 -0.9219,0.2266 -0.625,0.1328 -0.8125,0.2578 -0.2969,0.2188 -0.2969,0.5313 0,0.3281 0.2344,0.5546 0.2344,0.2266 0.5938,0.2266 0.4062,0 0.7812,-0.2656 0.2813,-0.2031 0.3594,-0.5 0.0625,-0.1875 0.0625,-0.7344 z m 8.0469,2.7344 h -1.5156 v -2.9062 q 0,-0.9219 -0.0938,-1.1954 -0.0938,-0.2734 -0.3125,-0.4218 -0.2187,-0.1485 -0.5313,-0.1485 -0.3906,0 -0.7031,0.211 -0.3125,0.2109 -0.4297,0.5625 -0.1172,0.3515 -0.1172,1.3203 v 2.5781 h -1.5 v -5.7031 h 1.4063 v 0.8437 q 0.7344,-0.9687 1.875,-0.9687 0.5,0 0.9141,0.1797 0.414,0.1797 0.625,0.4531 0.2109,0.2734 0.2968,0.6328 0.086,0.3594 0.086,1.0156 z m 1.8125,-6.4844 v -1.3906 h 1.5 v 1.3906 z m 0,6.4844 v -5.7031 h 1.5 v 5.7031 z m 2.9531,-5.7031 h 1.4062 v 0.8437 q 0.2657,-0.4375 0.7344,-0.7031 0.4688,-0.2656 1.0469,-0.2656 0.9844,0 1.6797,0.7734 0.6953,0.7735 0.6953,2.1641 0,1.4375 -0.6953,2.2265 -0.6953,0.7891 -1.6953,0.7891 -0.4688,0 -0.8516,-0.1875 -0.3828,-0.1875 -0.8203,-0.6406 v 2.875 h -1.5 z m 1.4844,2.75 q 0,0.9687 0.3828,1.4297 0.3828,0.4609 0.9297,0.4609 0.5312,0 0.8828,-0.4219 0.3515,-0.4218 0.3515,-1.3906 0,-0.8906 -0.3593,-1.3281 -0.3594,-0.4375 -0.8907,-0.4375 -0.5624,0 -0.9296,0.4297 -0.3672,0.4297 -0.3672,1.2578 z m 9.3125,2.9531 v -0.8594 q -0.3125,0.4688 -0.8203,0.7266 -0.5078,0.2578 -1.0704,0.2578 -0.5781,0 -1.0312,-0.25 -0.4531,-0.25 -0.6641,-0.7109 -0.2109,-0.461 -0.2109,-1.2578 v -3.6094 h 1.5156 v 2.625 q 0,1.2031 0.086,1.4687 0.0859,0.2657 0.3046,0.4297 0.2188,0.1641 0.5626,0.1641 0.375,0 0.6874,-0.211 0.3126,-0.2109 0.4219,-0.5312 0.1094,-0.3203 0.1094,-1.5391 v -2.4062 h 1.5156 v 5.7031 z m 3.25,0 v -7.875 h 1.5 v 7.875 z m 6.2969,-1.8125 1.5,0.25 q -0.2813,0.8281 -0.9063,1.2578 -0.625,0.4297 -1.5781,0.4297 -1.4844,0 -2.2032,-0.9687 -0.5624,-0.7813 -0.5624,-1.9688 0,-1.4219 0.7421,-2.2187 0.7422,-0.7969 1.8829,-0.7969 1.2656,0 2,0.8359 0.7343,0.836 0.7031,2.5703 h -3.7813 q 0.0156,0.6719 0.3672,1.0469 0.3516,0.375 0.8672,0.375 0.3594,0 0.6016,-0.1953 0.2422,-0.1953 0.3672,-0.6172 z m 0.0781,-1.5312 q -0.0157,-0.6563 -0.336,-0.9922 -0.3203,-0.336 -0.7734,-0.336 -0.5,0 -0.8281,0.3594 -0.3125,0.3594 -0.3125,0.9688 z m 5.0625,3.3437 h -1.5156 v -5.7031 h 1.4062 v 0.8125 q 0.3594,-0.5781 0.6484,-0.7578 0.2891,-0.1797 0.6485,-0.1797 0.5156,0 1,0.2812 l -0.4688,1.3125 q -0.375,-0.25 -0.7031,-0.25 -0.3281,0 -0.5469,0.1797 -0.2187,0.1797 -0.3437,0.6328 -0.125,0.4532 -0.125,1.9063 z m 10.3125,0 v -0.8594 q -0.3125,0.4688 -0.8203,0.7266 -0.5078,0.2578 -1.0704,0.2578 -0.5781,0 -1.0312,-0.25 -0.4531,-0.25 -0.6641,-0.7109 -0.2109,-0.461 -0.2109,-1.2578 v -3.6094 h 1.5156 v 2.625 q 0,1.2031 0.086,1.4687 0.0859,0.2657 0.3046,0.4297 0.2188,0.1641 0.5626,0.1641 0.375,0 0.6874,-0.211 0.3126,-0.2109 0.4219,-0.5312 0.1094,-0.3203 0.1094,-1.5391 v -2.4062 h 1.5156 v 5.7031 z m 8.4375,0 h -1.5156 v -2.9062 q 0,-0.9219 -0.0938,-1.1954 -0.0938,-0.2734 -0.3125,-0.4218 -0.2187,-0.1485 -0.5313,-0.1485 -0.3906,0 -0.7031,0.211 -0.3125,0.2109 -0.4297,0.5625 -0.1172,0.3515 -0.1172,1.3203 v 2.5781 h -1.5 v -5.7031 h 1.4063 v 0.8437 q 0.7344,-0.9687 1.875,-0.9687 0.5,0 0.9141,0.1797 0.414,0.1797 0.625,0.4531 0.2109,0.2734 0.2968,0.6328 0.086,0.3594 0.086,1.0156 z m 5.1094,-1.8125 1.5,0.25 q -0.2813,0.8281 -0.9063,1.2578 -0.625,0.4297 -1.5781,0.4297 -1.4844,0 -2.2032,-0.9687 -0.5624,-0.7813 -0.5624,-1.9688 0,-1.4219 0.7421,-2.2187 0.7422,-0.7969 1.8829,-0.7969 1.2656,0 2,0.8359 0.7343,0.836 0.7031,2.5703 h -3.7813 q 0.0156,0.6719 0.3672,1.0469 0.3516,0.375 0.8672,0.375 0.3594,0 0.6016,-0.1953 0.2422,-0.1953 0.3672,-0.6172 z m 0.0781,-1.5312 q -0.0157,-0.6563 -0.336,-0.9922 -0.3203,-0.336 -0.7734,-0.336 -0.5,0 -0.8281,0.3594 -0.3125,0.3594 -0.3125,0.9688 z" />
    <path
       style="fill:#000000;stroke:none"
       inkscape:connector-curvature="0"
       id="path2636"
       clip-path="url(#clipPath1)"
       d="m 170.7188,128.4978 v -7.875 h 1.5156 v 2.8438 q 0.7031,-0.7969 1.6562,-0.7969 1.0469,0 1.7266,0.75 0.6797,0.75 0.6797,2.1719 0,1.4531 -0.6953,2.2421 -0.6954,0.7891 -1.6954,0.7891 -0.4843,0 -0.9609,-0.2422 -0.4765,-0.2422 -0.8203,-0.7265 v 0.8437 z m 1.5,-2.9687 q 0,0.875 0.2812,1.2968 0.3906,0.6094 1.0469,0.6094 0.5,0 0.8515,-0.4297 0.3516,-0.4297 0.3516,-1.3515 0,-0.9688 -0.3516,-1.3985 -0.3515,-0.4297 -0.914,-0.4297 -0.5469,0 -0.9063,0.4219 -0.3593,0.4219 -0.3593,1.2813 z m 5.2187,0.0312 q 0,-0.75 0.375,-1.4531 0.375,-0.7031 1.0547,-1.0703 0.6797,-0.3672 1.5078,-0.3672 1.2969,0 2.125,0.8359 0.8281,0.836 0.8281,2.1172 0,1.2969 -0.8359,2.1484 -0.836,0.8516 -2.1016,0.8516 -0.7812,0 -1.4922,-0.3516 -0.7109,-0.3515 -1.0859,-1.039 -0.375,-0.6875 -0.375,-1.6719 z m 1.5469,0.0781 q 0,0.8594 0.4062,1.3125 0.4063,0.4532 1,0.4532 0.5782,0 0.9844,-0.4532 0.4062,-0.4531 0.4062,-1.3125 0,-0.8437 -0.4062,-1.2968 -0.4062,-0.4532 -0.9844,-0.4532 -0.5937,0 -1,0.4532 -0.4062,0.4531 -0.4062,1.2968 z m 5.7344,2.8594 v -7.875 h 1.5156 v 2.8438 q 0.7031,-0.7969 1.6562,-0.7969 1.0469,0 1.7266,0.75 0.6797,0.75 0.6797,2.1719 0,1.4531 -0.6953,2.2421 -0.6954,0.7891 -1.6954,0.7891 -0.4843,0 -0.9609,-0.2422 -0.4765,-0.2422 -0.8203,-0.7265 v 0.8437 z m 1.5,-2.9687 q 0,0.875 0.2812,1.2968 0.3906,0.6094 1.0469,0.6094 0.5,0 0.8515,-0.4297 0.3516,-0.4297 0.3516,-1.3515 0,-0.9688 -0.3516,-1.3985 -0.3515,-0.4297 -0.914,-0.4297 -0.5469,0 -0.9063,0.4219 -0.3593,0.4219 -0.3593,1.2813 z m 5.5781,-3.5157 v -1.3906 h 1.5 v 1.3906 z m 0,6.4844 v -5.7031 h 1.5 v 5.7031 z m 8.1875,0 h -1.5156 v -2.9062 q 0,-0.9219 -0.0938,-1.1954 -0.0938,-0.2734 -0.3125,-0.4218 -0.2187,-0.1485 -0.5313,-0.1485 -0.3906,0 -0.7031,0.211 -0.3125,0.2109 -0.4297,0.5625 -0.1172,0.3515 -0.1172,1.3203 v 2.5781 h -1.5 v -5.7031 h 1.4063 v 0.8437 q 0.7344,-0.9687 1.875,-0.9687 0.5,0 0.9141,0.1797 0.414,0.1797 0.625,0.4531 0.2109,0.2734 0.2968,0.6328 0.086,0.3594 0.086,1.0156 z m 5.1094,-1.8125 1.5,0.25 q -0.2813,0.8281 -0.9063,1.2578 -0.625,0.4297 -1.5781,0.4297 -1.4844,0 -2.2032,-0.9687 -0.5624,-0.7813 -0.5624,-1.9688 0,-1.4219 0.7421,-2.2187 0.7422,-0.7969 1.8829,-0.7969 1.2656,0 2,0.8359 0.7343,0.836 0.7031,2.5703 h -3.7813 q 0.0156,0.6719 0.3672,1.0469 0.3516,0.375 0.8672,0.375 0.3594,0 0.6016,-0.1953 0.2422,-0.1953 0.3672,-0.6172 z m 0.0781,-1.5312 q -0.0157,-0.6563 -0.336,-0.9922 -0.3203,-0.336 -0.7734,-0.336 -0.5,0 -0.8281,0.3594 -0.3125,0.3594 -0.3125,0.9688 z" />
    <path
       style="fill:#000000;stroke:none"
       inkscape:connector-curvature="0"
       id="path2638"
       clip-path="url(#clipPath1)"
       d="m 26.4844,117.6072 q 0,-1.2031 0.3594,-2.0156 0.2656,-0.6094 0.7265,-1.086 0.4609,-0.4765 1.0235,-0.7109 0.7343,-0.3125 1.6874,-0.3125 1.75,0 2.7891,1.0859 1.0391,1.086 1.0391,3.0078 0,1.9063 -1.0313,2.9844 -1.0312,1.0781 -2.7656,1.0781 -1.7656,0 -2.7969,-1.0781 -1.0312,-1.0781 -1.0312,-2.9531 z m 1.625,-0.0469 q 0,1.3281 0.625,2.0234 0.625,0.6954 1.5625,0.6954 0.9531,0 1.5625,-0.6875 0.6094,-0.6875 0.6094,-2.0625 0,-1.3438 -0.5938,-2.0157 -0.5938,-0.6718 -1.5781,-0.6718 -0.9844,0 -1.586,0.6796 -0.6015,0.6797 -0.6015,2.0391 z m 6.6406,-1.7656 h 1.4062 v 0.8437 q 0.2657,-0.4375 0.7344,-0.7031 0.4688,-0.2656 1.0469,-0.2656 0.9844,0 1.6797,0.7734 0.6953,0.7735 0.6953,2.1641 0,1.4375 -0.6953,2.2265 -0.6953,0.7891 -1.6953,0.7891 -0.4688,0 -0.8516,-0.1875 -0.3828,-0.1875 -0.8203,-0.6406 v 2.875 h -1.5 z m 1.4844,2.75 q 0,0.9687 0.3828,1.4297 0.3828,0.4609 0.9297,0.4609 0.5312,0 0.8828,-0.4219 0.3515,-0.4218 0.3515,-1.3906 0,-0.8906 -0.3593,-1.3281 -0.3594,-0.4375 -0.8907,-0.4375 -0.5624,0 -0.9296,0.4297 -0.3672,0.4297 -0.3672,1.2578 z m 8.8594,1.1406 1.5,0.25 q -0.2813,0.8281 -0.9063,1.2578 -0.625,0.4297 -1.5781,0.4297 -1.4844,0 -2.2032,-0.9687 -0.5624,-0.7813 -0.5624,-1.9688 0,-1.4219 0.7421,-2.2187 0.7422,-0.7969 1.8829,-0.7969 1.2656,0 2,0.8359 0.7343,0.836 0.7031,2.5703 h -3.7813 q 0.0156,0.6719 0.3672,1.0469 0.3516,0.375 0.8672,0.375 0.3594,0 0.6016,-0.1953 0.2422,-0.1953 0.3672,-0.6172 z m 0.0781,-1.5312 q -0.0157,-0.6563 -0.336,-0.9922 -0.3203,-0.336 -0.7734,-0.336 -0.5,0 -0.8281,0.3594 -0.3125,0.3594 -0.3125,0.9688 z m -2.125,-3.6563 0.75,-1.6094 h 1.6875 L 44,114.4978 Z m 7.1875,7 h -1.5156 v -5.7031 h 1.4062 v 0.8125 q 0.3594,-0.5781 0.6484,-0.7578 0.2891,-0.1797 0.6485,-0.1797 0.5156,0 1,0.2812 l -0.4688,1.3125 q -0.375,-0.25 -0.7031,-0.25 -0.3281,0 -0.5469,0.1797 -0.2187,0.1797 -0.3437,0.6328 -0.125,0.4532 -0.125,1.9063 z m 4.6875,-3.9687 -1.375,-0.25 q 0.2343,-0.8125 0.7969,-1.211 0.5624,-0.3984 1.6718,-0.3984 1.0156,0 1.5078,0.2344 0.4922,0.2343 0.6954,0.6015 0.2031,0.3672 0.2031,1.3516 l -0.0157,1.7656 q 0,0.75 0.0704,1.1094 0.0703,0.3594 0.2734,0.7656 h -1.5 q -0.0625,-0.1562 -0.1406,-0.4531 -0.0313,-0.125 -0.0469,-0.1719 -0.3906,0.375 -0.8359,0.5625 -0.4454,0.1875 -0.9454,0.1875 -0.875,0 -1.3828,-0.4766 -0.5078,-0.4765 -0.5078,-1.2109 0,-0.4844 0.2344,-0.8594 0.2344,-0.375 0.6484,-0.5781 0.4141,-0.2031 1.1954,-0.3594 1.0624,-0.1875 1.4687,-0.3593 v -0.1563 q 0,-0.4375 -0.2187,-0.6172 -0.2188,-0.1797 -0.8126,-0.1797 -0.3906,0 -0.6171,0.1563 -0.2266,0.1562 -0.3672,0.5469 z m 2.0156,1.2343 q -0.2969,0.0938 -0.9219,0.2266 -0.625,0.1328 -0.8125,0.2578 -0.2969,0.2188 -0.2969,0.5313 0,0.3281 0.2344,0.5546 0.2344,0.2266 0.5938,0.2266 0.4062,0 0.7812,-0.2656 0.2813,-0.2031 0.3594,-0.5 0.0625,-0.1875 0.0625,-0.7344 z m 5.4687,-2.9687 v 1.2031 H 61.375 v 2.2969 q 0,0.7031 0.0312,0.8203 0.0313,0.1172 0.1329,0.1875 0.1015,0.0703 0.2578,0.0703 0.2031,0 0.6093,-0.1406 l 0.125,1.1719 q -0.5312,0.2187 -1.1874,0.2187 -0.4219,0 -0.75,-0.1328 -0.3282,-0.1328 -0.4766,-0.3516 -0.1484,-0.2187 -0.211,-0.5937 -0.0468,-0.2656 -0.0468,-1.0625 v -2.4844 h -0.6875 v -1.2031 h 0.6875 v -1.1406 l 1.5156,-0.875 v 2.0156 z m 4.6876,3.8906 1.5,0.25 q -0.2813,0.8281 -0.9063,1.2578 -0.625,0.4297 -1.5781,0.4297 -1.4844,0 -2.2032,-0.9687 -0.5624,-0.7813 -0.5624,-1.9688 0,-1.4219 0.7421,-2.2187 0.7422,-0.7969 1.8829,-0.7969 1.2656,0 2,0.8359 0.7343,0.836 0.7031,2.5703 h -3.7813 q 0.0156,0.6719 0.3672,1.0469 0.3516,0.375 0.8672,0.375 0.3594,0 0.6016,-0.1953 0.2422,-0.1953 0.3672,-0.6172 z m 0.0781,-1.5312 q -0.0157,-0.6563 -0.336,-0.9922 -0.3203,-0.336 -0.7734,-0.336 -0.5,0 -0.8281,0.3594 -0.3125,0.3594 -0.3125,0.9688 z m 7.375,3.3437 v -0.8594 q -0.3125,0.4688 -0.8203,0.7266 -0.5078,0.2578 -1.0704,0.2578 -0.5781,0 -1.0312,-0.25 -0.4531,-0.25 -0.6641,-0.7109 -0.2109,-0.461 -0.2109,-1.2578 v -3.6094 h 1.5156 v 2.625 q 0,1.2031 0.086,1.4687 0.0859,0.2657 0.3046,0.4297 0.2188,0.1641 0.5626,0.1641 0.375,0 0.6874,-0.211 0.3126,-0.2109 0.4219,-0.5312 0.1094,-0.3203 0.1094,-1.5391 v -2.4062 h 1.5156 v 5.7031 z m 4.6875,0 h -1.5156 v -5.7031 h 1.4062 v 0.8125 q 0.3594,-0.5781 0.6484,-0.7578 0.2891,-0.1797 0.6485,-0.1797 0.5156,0 1,0.2812 l -0.4688,1.3125 q -0.375,-0.25 -0.7031,-0.25 -0.3281,0 -0.5469,0.1797 -0.2187,0.1797 -0.3437,0.6328 -0.125,0.4532 -0.125,1.9063 z" />
    <line
       style="fill:none;stroke:#b2b2b2"
       id="line2640"
       y2="103"
       y1="93"
       x2="54"
       x1="54"
       clip-path="url(#clipPath1)" />
    <line
       style="fill:none;stroke:#b2b2b2"
       id="line2642"
       y2="98"
       y1="98"
       x2="67"
       x1="41"
       clip-path="url(#clipPath1)" />
    <line
       style="fill:none;stroke:#b2b2b2"
       id="line2644"
       y2="103"
       y1="112"
       x2="54"
       x1="41"
       clip-path="url(#clipPath1)" />
    <line
       style="fill:none;stroke:#b2b2b2"
       id="line2646"
       y2="103"
       y1="112"
       x2="54"
       x1="67"
       clip-path="url(#clipPath1)" />
    <line
       style="fill:none;stroke:#b2b2b2"
       id="line2648"
       y2="104"
       y1="93"
       x2="55"
       x1="55"
       clip-path="url(#clipPath1)" />
    <line
       style="fill:none;stroke:#b2b2b2"
       id="line2650"
       y2="99"
       y1="99"
       x2="68"
       x1="42"
       clip-path="url(#clipPath1)" />
    <line
       style="fill:none;stroke:#b2b2b2"
       id="line2652"
       y2="104"
       y1="113"
       x2="55"
       x1="42"
       clip-path="url(#clipPath1)" />
    <line
       style="fill:none;stroke:#b2b2b2"
       id="line2654"
       y2="104"
       y1="113"
       x2="55"
       x1="68"
       clip-path="url(#clipPath1)" />
    <circle
       style="fill:#b2b2b2;stroke:none"
       id="circle2656"
       cy="90.5"
       cx="55.5"
       clip-path="url(#clipPath1)"
       r="4.5" />
    <circle
       style="fill:url(#linearGradient3);stroke:none"
       id="circle2658"
       cy="88.5"
       cx="53.5"
       clip-path="url(#clipPath1)"
       r="4.5" />
    <circle
       style="fill:none;stroke:#666647"
       id="circle2660"
       cy="88.5"
       cx="53.5"
       clip-path="url(#clipPath1)"
       r="4.5" />
    <line
       style="fill:none;stroke:#666647"
       id="line2662"
       y2="102"
       y1="93"
       x2="53"
       x1="53"
       clip-path="url(#clipPath1)" />
    <line
       style="fill:none;stroke:#666647"
       id="line2664"
       y2="97"
       y1="97"
       x2="66"
       x1="40"
       clip-path="url(#clipPath1)" />
    <line
       style="fill:none;stroke:#666647"
       id="line2666"
       y2="102"
       y1="111"
       x2="53"
       x1="40"
       clip-path="url(#clipPath1)" />
    <line
       style="fill:none;stroke:#666647"
       id="line2668"
       y2="102"
       y1="111"
       x2="53"
       x1="66"
       clip-path="url(#clipPath1)" />
    <path
       style="fill:none;stroke:#000000"
       inkscape:connector-curvature="0"
       id="path2670"
       clip-path="url(#clipPath1)"
       d="M 123,112 67,106" />
  </g>
</svg>
