<?xml version="1.0" encoding="UTF-8" standalone="no"?>
<!-- Created with Inkscape (http://www.inkscape.org/) -->

<svg
   xmlns:dc="http://purl.org/dc/elements/1.1/"
   xmlns:cc="http://creativecommons.org/ns#"
   xmlns:rdf="http://www.w3.org/1999/02/22-rdf-syntax-ns#"
   xmlns:svg="http://www.w3.org/2000/svg"
   xmlns="http://www.w3.org/2000/svg"
   xmlns:sodipodi="http://sodipodi.sourceforge.net/DTD/sodipodi-0.dtd"
   xmlns:inkscape="http://www.inkscape.org/namespaces/inkscape"
   version="1.1"
   id="svg815"
   xml:space="preserve"
   width="338.9588"
   height="329.5379"
   viewBox="0 0 338.9588 329.5379"
   sodipodi:docname="Encastrement_pincement_hexagonale_vierge.svg"
   inkscape:version="0.92.4 (5da689c313, 2019-01-14)"><metadata
     id="metadata821"><rdf:RDF><cc:Work
         rdf:about=""><dc:format>image/svg+xml</dc:format><dc:type
           rdf:resource="http://purl.org/dc/dcmitype/StillImage" /><dc:title /></cc:Work></rdf:RDF></metadata><defs
     id="defs819" /><sodipodi:namedview
     pagecolor="#ffffff"
     bordercolor="#666666"
     borderopacity="1"
     objecttolerance="10"
     gridtolerance="10"
     guidetolerance="10"
     inkscape:pageopacity="0"
     inkscape:pageshadow="2"
     inkscape:window-width="1366"
     inkscape:window-height="705"
     id="namedview817"
     showgrid="false"
     inkscape:zoom="1.6750729"
     inkscape:cx="67.095785"
     inkscape:cy="212.52808"
     inkscape:window-x="-8"
     inkscape:window-y="-8"
     inkscape:window-maximized="1"
     inkscape:current-layer="g823"
     fit-margin-top="0"
     fit-margin-left="0"
     fit-margin-right="0"
     fit-margin-bottom="0" /><g
     id="g823"
     inkscape:groupmode="layer"
     inkscape:label="Encastrement_pincement_hexagonale"
     transform="matrix(1.3333333,0,0,-1.3333333,-250.7206,935.67264)"><g
       id="g975"
       transform="translate(216.7484,675.9621)"><path
         d="M 0,0 V -113.386"
         style="fill:none;stroke:#000000;stroke-width:0.50999999;stroke-linecap:round;stroke-linejoin:round;stroke-miterlimit:10;stroke-dasharray:86.4, 3.6, 3.6, 3.6;stroke-dashoffset:35.10699844;stroke-opacity:1"
         id="path977"
         inkscape:connector-curvature="0" /></g><g
       id="g979"
       transform="translate(315.1628,454.8597)"><path
         d="M 0,0 V 71.378"
         style="fill:none;stroke:#000000;stroke-width:0.50999999;stroke-linecap:round;stroke-linejoin:round;stroke-miterlimit:10;stroke-dasharray:86.4, 3.6, 3.6, 3.6;stroke-dashoffset:56.11100006;stroke-opacity:1"
         id="path981"
         inkscape:connector-curvature="0" /></g><g
       id="g983"
       transform="translate(413.5772,675.9621)"><path
         d="M 0,0 V -113.386"
         style="fill:none;stroke:#000000;stroke-width:0.50999999;stroke-linecap:round;stroke-linejoin:round;stroke-miterlimit:10;stroke-dasharray:86.4, 3.6, 3.6, 3.6;stroke-dashoffset:35.10699844;stroke-opacity:1"
         id="path985"
         inkscape:connector-curvature="0" /></g><g
       id="g987"
       transform="translate(315.1628,630.6077)"><path
         d="M 0,0 V 49.606"
         style="fill:none;stroke:#000000;stroke-width:0.50999999;stroke-linecap:round;stroke-linejoin:round;stroke-miterlimit:10;stroke-dasharray:86.4, 3.6, 3.6, 3.6;stroke-dashoffset:66.99700165;stroke-opacity:1"
         id="path989"
         inkscape:connector-curvature="0" /></g><g
       id="g991"
       transform="translate(300.9896,616.4345)"><path
         d="M 0,0 H -49.606"
         style="fill:none;stroke:#000000;stroke-width:0.50999999;stroke-linecap:round;stroke-linejoin:round;stroke-miterlimit:10;stroke-dasharray:86.4, 3.6, 3.6, 3.6;stroke-dashoffset:66.99700165;stroke-opacity:1"
         id="path993"
         inkscape:connector-curvature="0" /></g><g
       id="g995"
       transform="translate(315.1628,602.2613)"><path
         d="M 0,0 V -49.606"
         style="fill:none;stroke:#000000;stroke-width:0.50999999;stroke-linecap:round;stroke-linejoin:round;stroke-miterlimit:10;stroke-dasharray:86.4, 3.6, 3.6, 3.6;stroke-dashoffset:66.99700165;stroke-opacity:1"
         id="path997"
         inkscape:connector-curvature="0" /></g><g
       id="g999"
       transform="translate(329.3361,616.4345)"><path
         d="M 0,0 H 49.606"
         style="fill:none;stroke:#000000;stroke-width:0.50999999;stroke-linecap:round;stroke-linejoin:round;stroke-miterlimit:10;stroke-dasharray:86.4, 3.6, 3.6, 3.6;stroke-dashoffset:66.99700165;stroke-opacity:1"
         id="path1001"
         inkscape:connector-curvature="0" /></g><g
       id="g1003"
       transform="translate(315.1,616.4)"><path
         d="M 0,0 V 7.1 M 0,0 H -7.1 M 0,0 V -7.1 M 0,0 h 7.1"
         style="fill:none;stroke:#000000;stroke-width:0.50999999;stroke-linecap:round;stroke-linejoin:round;stroke-miterlimit:10;stroke-dasharray:none;stroke-opacity:1"
         id="path1005"
         inkscape:connector-curvature="0" /></g><g
       id="g1007"
       transform="translate(210.7,620.6)"><path
         d="m 0,0 v -52.4 m 12,0 V 0 m 184.9,0 v -52.4 m 11.8,52.4 0.1,-52.4"
         style="fill:none;stroke:#000000;stroke-width:0.50999999;stroke-linecap:round;stroke-linejoin:round;stroke-miterlimit:10;stroke-dasharray:none;stroke-opacity:1"
         id="path1009"
         inkscape:connector-curvature="0" /></g><g
       id="g1023"
       transform="translate(231.8,660.3)"><path
         d="M 0,0 -5.7,-5.6 M -25.5,0 -30.7,-5.2 M 47.5,-3.4 32.9,-17.9 M 49.5,-14 27.1,-36.5 m 19,6.3 -19.2,-19.2 m 13.1,0.3 -11,-11 m 14.8,2.2 -11.2,-11.3 m 15.1,2.4 -10.3,-10.3 M 46,-81.2 43.2,-84 m 71,58.2 15.1,15.1 m -15.5,-28.2 20.3,20.3 m -16.5,-29.2 20.1,20 m -14.6,-27.2 16.6,16.6 m -10.6,-23.4 10.4,10.4 m -180.7,55.7 8.8,-8.8 m 1.1,-1.1 8.4,-8.5 m -20.5,7.8 20.5,-20.5 m -20.5,7.8 19.2,-19.2 m -19.2,6.5 6.5,-6.5 m 60.1,54.4 20,-20 M 17.2,9.5 37.4,-10.7 M 9.7,4.3 32.6,-18.6 M 2.2,-1 29,-27.8 M -5.9,-5.6 26.7,-38.2 m -34,21.3 21.3,-21.3 m -21.3,8.5 8.6,-8.5 m 208.8,33 -9.5,9.5 m 9.5,-22.2 -12.3,12.3 m 12.3,-25.1 -20.6,20.6 m 15.4,-28.1 -15.4,15.4 m 2.7,-15.4 -2.7,2.6 m -15.6,28.3 -1.6,1.7 m -7.9,7.9 -2,2 M 173.9,-20 140.1,13.9 M 173.9,-32.7 134.2,7 m 32.5,-45.2 -38.3,38.3 m 25.6,-38.3 -20.3,20.3 m 7.6,-20.3 -1.8,1.7 m -114.2,-13.1 1.8,-1.8 m -14.5,1.8 20.3,-20.3 m -33,20.3 40.9,-40.9 M -8,-54.4 36.2,-98.6 M -8,-67.1 32.6,-107.7 M -8,-79.9 4.2,-92.1 m -13.3,0.6 0.6,-0.6 m -17.1,42.5 3.4,-3.4 m -16.1,3.4 16.1,-16.1 m -21.2,8.5 21.2,-21.2 m -21.2,8.5 22.2,-22.2 m -22.2,9.5 9.4,-9.5 m 208.6,33.2 -9.3,9.3 m 9.3,-22 -22,22 m 23.2,-35.9 -35.9,35.9 m 29.8,-42.5 -32,32 m 19.3,-32 -20.1,20.1 m 12.6,-25.3 -12.5,12.4 m 6.4,-19.1 -12.5,12.5 m 5.8,-18.6 -12.1,12.2 m 4.8,-17.5 -7.8,7.8 m 88.5,51.5 -6.6,6.5 m 6.6,-19.3 -19.3,19.3 m 19.3,-32 -21.3,21.3 m 19.1,-31.8 -19.1,19.1 m 6.3,-19.1 -7.3,7.3 m -15.3,79.2 1.9,1.8 m 14.7,2 1.8,1.8"
         style="fill:none;stroke:#000000;stroke-width:0.50999999;stroke-linecap:round;stroke-linejoin:round;stroke-miterlimit:10;stroke-dasharray:none;stroke-opacity:1"
         id="path1025"
         inkscape:connector-curvature="0" /></g><g
       id="g1027"
       transform="translate(273.2,542.4)"><path
         d="m 0,0 v 0 -0.1 h 0.1 l 0.2,-0.1 0.2,-0.2 0.4,-0.2 0.4,-0.4 0.6,-0.5 0.8,-0.8 0.8,-1 0.9,-1.2 0.7,-1.3 0.6,-1.4 0.4,-1.6 0.3,-1.7 0.1,-1.4 m 70.9,0 v 0.5 l 0.1,1.6 0.3,1.5 0.5,1.4 0.5,1.3 0.7,1.2 0.7,1 0.8,0.9 0.7,0.8 0.7,0.6 0.6,0.5 0.4,0.3 0.2,0.1 0.2,0.1 V 0 h 0.1 L 84,0.1 m -77.5,-12 v -70 m 70.8,0 v 70 m 76.1,138.8 -2.2,0.9 m -21.7,0 -2.3,-0.9 m 22.7,-9 h 0.3 l 0.2,0.1 0.3,0.2 0.2,0.1 0.2,0.3 0.1,0.2 0.1,0.3 v 0.2 m -21.9,0 v -0.2 l 0.1,-0.3 0.1,-0.2 0.2,-0.3 0.2,-0.1 0.2,-0.2 0.3,-0.1 h 0.3 m 16.6,-0.7 v 0.2 l 0.1,0.1 v 0.1 l 0.1,0.1 0.1,0.1 0.2,0.1 h 0.1 0.1 m -15.6,0 h 0.2 0.1 l 0.1,-0.1 0.1,-0.1 0.1,-0.1 0.1,-0.1 v -0.1 -0.2 m 0,-39 V 34.1 m 14.2,0 v 44.1 m -14.2,-44.1 1.3,-1.2 m 11.7,0 1.2,1.2 m -14.2,44.8 1.3,-0.7 m 11.7,0 1.2,0.7 m -14.2,38.3 V 78.9 m 14.2,0 v 38.3 m -190.8,9.7 -2.2,0.9 m -21.8,0 -2.2,-0.9 m 22.7,-9 h 0.2 l 0.3,0.1 0.2,0.2 0.3,0.1 0.1,0.3 0.2,0.2 v 0.3 l 0.1,0.2 m -22,0 0.1,-0.2 v -0.3 l 0.2,-0.2 0.1,-0.3 0.3,-0.1 0.2,-0.2 0.3,-0.1 h 0.2 m 16.7,-0.7 v 0.2 0.1 l 0.1,0.1 0.1,0.1 0.1,0.1 0.1,0.1 h 0.2 0.1 m -15.6,0 h 0.1 0.2 l 0.1,-0.1 0.1,-0.1 0.1,-0.1 0.1,-0.1 v -0.1 -0.2 m 0,-39 V 34.1 m 14.2,0 v 44.1 m -14.2,-44.1 1.2,-1.2 m 11.8,0 1.2,1.2 m -14.2,83.1 V 78.9 m 14.2,0 v 38.3 m -14.2,-38.3 1.2,-0.7 m 11.8,0 1.2,0.7 m 174.1,33.4 v 5.6 m 8.3,-5.6 v 5.5 m 0,-5.5 h -8.3 m 6.1,5.6 h -6.1 m 23,-5.6 h -0.1 -0.2 m -14.2,0 h -0.1 -0.1 m 14.7,5.5 v -5.5 m 8.2,5.6 v -5.6 m 0,0 h -8.2 m 8.2,5.6 h -6 M 20,-8.2 l 1,-0.4 0.8,-0.7 0.8,-0.9 0.6,-1.2 0.4,-1.4 0.4,-1.6 0.1,-1.7 V -18 l -0.1,-1.9 -0.3,-2 m -3.7,13.7 4.8,-1.1 4.8,-0.9 4.9,-0.5 5,-0.3 h 4.9 l 4.9,0.3 4.9,0.5 4.8,0.9 4.8,1.1 M -9.9,6.5 -6.5,4.1 -3,1.8 0.6,-0.4 4.4,-2.3 8.2,-4.1 12,-5.6 16,-7 20,-8.2 m 43.8,0 2.9,0.8 2.9,1 2.8,1 2.8,1.1 2.8,1.3 2.7,1.3 2.6,1.4 2.7,1.5 m 7.1,48.4 1.7,-2.7 1.4,-2.5 1,-2.6 0.4,-2.2 -0.1,-2.3 -0.7,-2.2 -1.3,-2.2 -1.7,-2.2 -2,-2.1 L 88.5,25.4 85.2,22.3 82.5,19.1 81,16.6 80.2,14.2 80,11.7 80.5,9 81.7,6.3 83.5,3.7 86,1.2 m -95.9,5.3 1.7,5.5 2,5.4 2.8,5.3 3.1,5.2 3,5.1 m 57.5,-54.9 -0.3,2 -0.2,1.9 v 1.9 l 0.2,1.7 0.3,1.6 0.5,1.4 0.6,1.2 0.7,0.9 0.9,0.7 0.9,0.4 m -3.6,-13.7 -3.8,-1 -4.2,-0.4 h -2.8 -2.9 -5.9 l -5.8,-0.1 -2.9,0.1 -2.9,0.2 -2.7,0.5 -2.6,0.7 m 18.2,-60 h 3.1 3.1 3 2.9 2.9 2.7 2.6 2.5 2.3 2.1 1.8 1.7 1.4 1.2 0.9 0.7 0.4 0.1 m -70.8,0 h 0.1 0.4 0.7 0.9 1.2 1.4 1.7 1.9 2.1 2.2 2.5 2.6 2.7 2.9 2.9 3.1 3 3.1 M -50.5,33 v -7.2 m -12,0 V 33 m 0,-7.2 h 0.2 0.4 0.7 1 1.1 1.3 1.3 1.3 1.3 1.1 1 0.7 0.4 0.2 M -84.8,68.3 V 25.8 m 0,0 h 22.3 m -1.1,42.5 H -84.8 M 146.3,25.8 V 33 m 22.4,35.3 H 147.4 M 168.7,25.8 V 68.3 M 146.3,25.8 h 22.4 m -219.2,0 h 22.3 m 13.7,42.5 h -34.9 m 21.2,-42.5 2,-2.7 2,-2.6 2.2,-2.6 2.2,-2.5 2.4,-2.3 2.4,-2.3 2.5,-2.2 2.6,-2.1 m -4.6,61.8 0.5,-4 0.9,-3.9 1.1,-3.8 1.3,-3.8 1.7,-3.7 1.9,-3.5 2.1,-3.4 2.4,-3.3 2.5,-3 2.8,-2.9 m 131.7,0 v -7.2 m 0,0 h 0.1 0.5 0.7 0.9 1.1 1.3 1.3 1.4 1.2 1.1 1 0.7 0.4 0.2 M 133.2,68.3 H 98.3 M 112,25.8 h 22.4 M 98.3,68.3 98,65.9 97.6,63.5 97.1,61.1 96.5,58.7 95.8,56.4 95,54.1 l -0.9,-2.3 -1,-2.2 m 18.9,-23.8 -2.7,-3.6 -2.8,-3.5 -3,-3.4 -3.2,-3.2 -3.4,-3 L 93.4,6.3 89.7,3.7 86,1.2 m -98.8,137.9 4.1,-4.2 4.4,-4.4 4.1,-4.6 3.3,-4.9 2,-3.9 m -17.9,22 3.8,3 3.9,2.8 4.1,2.5 4.2,2.3 4.3,2.1 4.5,1.8 4.5,1.5 4.7,1.4 4.6,1 4.8,0.8 4.8,0.5 4.8,0.2 H 45 l 4.8,-0.3 4.7,-0.6 4.8,-0.9 4.6,-1.1 4.6,-1.3 4.5,-1.7 4.5,-1.9 4.3,-2.1 4.2,-2.4 4,-2.6 3.9,-2.8 3.7,-3 3.5,-3.3 m -17.9,-22.1 4.5,5.8 4.7,5.6 4.6,5.4 4.1,5.3 M -73.8,112.3 v 9.9 m 34.6,0 h -0.1 -0.4 -0.7 -0.9 -1.2 -0.9 m -26.2,0 h -0.9 -1.2 -0.9 -0.7 -0.4 -0.1 m 34.6,0 v -9.9 M -64.3,79.7 v 32.6 m 15.6,0 V 79.7 m 0,0 h -0.1 -0.4 -0.2 m -14.2,0 h -0.2 -0.4 -0.1 m -20.5,42.5 h 11 m -11,-42.5 v 42.5 m 0,-42.5 h 20.5 m 0,32.6 h -9.5 M 148.1,79.7 v 32.6 m 0,-32.6 h -0.1 -0.4 -0.2 m -14.2,0 h -0.1 -0.4 -0.2 m 0,32.6 V 79.7 M 112,122.2 h 11 m 0,0 v -9.9 m 0,0 h 9.5 m 0,-32.6 H 98.3 m 13.7,42.5 -1.2,1.7 -1.3,1.7 -1.3,1.6 -1.3,1.7 -1.4,1.6 -1.4,1.5 -1.5,1.5 -1.5,1.5 m -2.8,-55.3 -0.5,4 -0.9,4.1 -1.1,3.9 -1.5,3.9 -1.7,3.8 -2,3.6 -2.2,3.5 -2.5,3.2 -2.7,3.2 m -122.4,9.3 h 11 M -48.7,79.7 h 34.2 m -24.7,32.6 h -9.5 m 20.5,9.9 1.7,2.3 1.8,2.3 1.8,2.2 1.9,2.2 1.9,2 2.1,2.1 2.1,1.9 2.1,1.9 m -1.7,-59.4 0.5,3.8 0.8,3.9 1.1,3.8 1.3,3.7 1.6,3.6 1.8,3.5 2.1,3.3 2.3,3.2 2.5,3.1 2.7,2.8 2.9,2.7 m 152.6,-4.8 v 9.9 m 0,0 h 11 m 0,0 V 79.7 m -20.6,32.6 h 9.6 m 11,-32.6 h -20.6 m 9.6,42.5 h -0.2 -0.4 -0.6 -1 -1.1 -1 m -26.2,0 h -0.9 -1.2 -0.9 -0.7 -0.4 -0.1 M 83.2,112.9 79.9,108 77.1,103.1 74.7,98 73,92.9 l -1,-5 -0.2,-4.2 0.5,-4.1 1.2,-4.1 1.9,-4 2.6,-3.9 3,-3.9 4.2,-4.8 4.2,-4.7 3.7,-4.6 M 2.7,33 l 3,-2.6 3.1,-2.5 3.3,-2.2 3.5,-1.9 3.6,-1.7 3.6,-1.5 3.8,-1.2 3.9,-0.9 3.9,-0.7 3.9,-0.4 4,-0.1 3.9,0.2 4,0.4 3.9,0.7 3.8,1 3.8,1.2 3.6,1.6 3.6,1.7 3.4,2 3.3,2.3 3.1,2.4 2.9,2.7 2.7,2.9 2.6,3 2.3,3.3 2,3.3 1.9,3.6 m -9.9,63.3 -2.8,2.7 -3,2.6 -3.1,2.3 -3.3,2.2 -3.4,1.8 -3.6,1.7 -3.7,1.4 -3.7,1.1 -3.8,0.9 -3.9,0.6 -3.9,0.4 -4,0.1 -3.9,-0.2 -3.9,-0.5 -3.8,-0.7 -3.8,-1 -3.7,-1.3 -3.7,-1.5 -3.5,-1.8 -3.3,-2 -3.3,-2.2 -3,-2.4 M 2.7,33 l 1.7,3.2 1.3,3.3 0.9,3.2 0.4,3.4 -0.4,3.5 -1,3.6 -1.6,3.6 -1.8,3.6 -1.7,3.5 -1.5,3.5 -0.8,3.4 -0.1,3 0.7,2.9 1.3,2.9 1.7,2.9 1.7,2.9 1.6,3 1.3,3.2 0.9,3.2 0.8,5.5 -0.1,5.6 -1,5.7 -1.9,5.5 m 78.1,-4.2 2.6,-3.1 2.4,-3.1 2.2,-3.4 2,-3.5 1.7,-3.6 1.4,-3.8 1.2,-3.8 0.9,-3.9 0.6,-3.9 0.3,-4 0.1,-4 -0.2,-4 -0.5,-4 L 97.1,60.9 96,57 94.7,53.2 93.1,49.6 m -88,67.5 -2.9,-2.7 -2.8,-2.9 -2.5,-3 -2.3,-3.2 -2,-3.4 -1.9,-3.5 -1.5,-3.6 -1.3,-3.7 -1.1,-3.8 -0.8,-3.9 -0.5,-3.9 -0.3,-4 0.1,-3.9 0.3,-3.9 0.6,-3.9 0.8,-3.9 1.1,-3.8 1.4,-3.7 1.6,-3.6 L -7,45.3 -4.9,42 -2.6,38.8 0,35.8 2.7,33 m -43.6,79.3 v 5.6 m -31.2,0 v -5.6 m 23,0 v 5.5 m 0,-5.5 h -0.2 -0.1 m -14.2,0 h -0.1 -0.2 m 0,5.5 v -5.5 m -8.2,0 h 8.2 m -8.2,5.6 h 6 m 17,-5.6 h 8.2 m -6,5.6 h 6 m 171.8,9.9 h -0.7 -0.5 -0.2 m 21.7,0 h -0.1 -0.3 -0.6 -0.8 -1 -1.2 -1.4 -1.6 -1.6 -1.7 -1.7 -1.7 -1.6 -1.5 -1.3 -1.2 -1 m 22.5,-0.9 -1.3,0.5 -1.2,0.2 h -1.1 l -1.4,-0.2 -1.5,-0.5 m 0,0 -2.7,0.5 -2.3,0.2 h -2.3 l -2.8,-0.2 -3,-0.5 m 0,0 -1.3,0.5 -1.2,0.2 h -1.2 l -1.3,-0.2 -1.6,-0.5 m 6.6,-7.6 v 7.6 m 13.1,0 v -7.6 m -13.1,0 h 13.1 m -14.8,-1.4 h -0.7 -0.5 -0.1 m 19.1,0 v 0 h -0.3 -0.5 -0.8 -1 -1.2 -1.4 -1.4 -1.6 -1.6 -1.7 -1.5 -1.5 -1.3 -1.1 -0.9 m -4.9,1.4 v 7.6 m 0,-7.6 h 6.6 m 19.6,0 v 7.6 m -6.5,-7.6 h 6.5 M 134.2,78.2 h -0.6 -0.3 -0.1 m 14.2,0 v 0 h -0.2 -0.5 -0.8 -0.9 -1.1 -1.3 -1.3 -1.4 -1.4 -1.3 -1.2 -1 -0.8 m 0,-44.1 h -0.6 -0.3 -0.1 m 14.2,0 v 0 h -0.2 -0.5 -0.8 -0.9 -1.1 -1.3 -1.3 -1.4 -1.4 -1.3 -1.2 -1 -0.8 m 1.1,-1.2 h -0.6 -0.2 m 11.7,0 v 0 h -0.2 -0.4 -0.7 -0.9 -1 -1.2 -1.3 -1.2 -1.2 -1.1 -1 -0.7 m -1.1,46 h -0.6 -0.3 -0.1 m 14.2,0 v 0 h -0.2 -0.5 -0.8 -0.9 -1.1 -1.3 -1.3 -1.4 -1.4 -1.3 -1.2 -1 -0.8 m -200.1,48.9 h -0.7 -0.5 -0.2 -0.1 m 21.8,0 h -0.1 -0.3 -0.6 -0.8 -1 -1.3 -1.4 -1.5 -1.6 -1.7 -1.7 -1.7 -1.6 -1.5 -1.4 -1.1 -1 m 22.5,-0.9 -1.3,0.5 -1.2,0.2 H -47 l -1.4,-0.2 -1.6,-0.5 m 0,0 -2.6,0.5 -2.4,0.2 h -2.2 l -2.8,-0.2 -3,-0.5 m 0,0 -1.4,0.5 -1.1,0.2 h -1.2 l -1.4,-0.2 -1.5,-0.5 m 6.6,-7.6 v 7.6 m 13,0 v -7.6 m -13,0 h 13 m -14.8,-1.4 h -0.7 -0.4 -0.2 m 19.2,0 h -0.1 -0.2 -0.5 -0.8 -1 -1.2 -1.4 -1.5 -1.6 -1.6 -1.6 -1.5 -1.5 -1.3 -1.1 -1 m -4.8,1.4 v 7.6 m 0,-7.6 h 6.6 m 19.6,0 v 7.6 m -6.6,-7.6 h 6.6 M -62.6,78.2 h -0.6 -0.3 -0.1 m 14.2,0 v 0 h -0.3 -0.4 -0.8 -0.9 -1.2 -1.2 -1.4 -1.4 -1.3 -1.3 -1.2 -1 -0.8 m 0,-44.1 h -0.6 -0.3 -0.1 m 14.2,0 v 0 h -0.3 -0.4 -0.8 -0.9 -1.2 -1.2 -1.4 -1.4 -1.3 -1.3 -1.2 -1 -0.8 m 1,-1.2 h -0.5 -0.2 -0.1 m 11.8,0 v 0 h -0.2 -0.4 -0.7 -0.9 -1.1 -1.1 -1.3 -1.3 -1.2 -1.1 -0.9 -0.8 m -1,46 h -0.6 -0.3 -0.1 m 14.2,0 v 0 h -0.3 -0.4 -0.8 -0.9 -1.2 -1.2 -1.4 -1.4 -1.3 -1.3 -1.2 -1 -0.8 m 86.3,-100.8 -2.9,1.2 -2.6,1.2 -2,1 -1.8,1 -1.7,1.1 -1.5,1 -1.2,0.8 -1,0.7 -0.9,0.7 -0.7,0.5 -0.5,0.4 -0.3,0.3 -0.1,0.1 m 70.8,0 V -12 l -0.3,-0.2 -0.6,-0.5 -0.7,-0.5 -0.3,-0.3 -1.1,-0.8 -1.4,-0.9 -1.6,-1.1 -1.9,-1.1 -1.8,-1.1 -2,-1 -2.2,-1.1 -2.4,-0.9 -0.8,-0.4 m 74,139.1 h -0.6 -0.3 -0.1 m 14.2,0 v 0 h -0.2 -0.5 -0.8 -0.9 -1.1 -1.3 -1.3 -1.4 -1.4 -1.3 -1.2 -1 -0.8 m -196.8,0 h -0.6 -0.3 -0.1 m 14.2,0 v 0 h -0.3 -0.4 -0.8 -0.9 -1.2 -1.2 -1.4 -1.4 -1.3 -1.3 -1.2 -1 -0.8"
         style="fill:none;stroke:#000000;stroke-width:0.70899999;stroke-linecap:round;stroke-linejoin:round;stroke-miterlimit:10;stroke-dasharray:none;stroke-opacity:1"
         id="path1029"
         inkscape:connector-curvature="0" /></g><g
       id="g1031"
       transform="translate(406.2072,660.2298)"><path
         d="M 0,0 V 0.142"
         style="fill:none;stroke:#000000;stroke-width:0.50999999;stroke-linecap:round;stroke-linejoin:round;stroke-miterlimit:10;stroke-dasharray:3.6, 1.8;stroke-dashoffset:0;stroke-opacity:1"
         id="path1033"
         inkscape:connector-curvature="0" /></g><g
       id="g1035"
       transform="translate(420.6638,654.7023)"><path
         d="m 0,0 h -0.278 -0.681 -0.916 -1.117 -1.274 -1.383 -1.438 -1.437 -1.383 -1.274 -1.117 -0.917 -0.681 -0.277"
         style="fill:none;stroke:#000000;stroke-width:0.50999999;stroke-linecap:round;stroke-linejoin:round;stroke-miterlimit:10;stroke-dasharray:3.6, 1.8;stroke-dashoffset:0.113;stroke-opacity:1"
         id="path1037"
         inkscape:connector-curvature="0" /></g><g
       id="g1039"
       transform="translate(420.9473,660.3715)"><path
         d="M 0,0 V -0.142"
         style="fill:none;stroke:#000000;stroke-width:0.50999999;stroke-linecap:round;stroke-linejoin:round;stroke-miterlimit:10;stroke-dasharray:3.6, 1.8;stroke-dashoffset:0;stroke-opacity:1"
         id="path1041"
         inkscape:connector-curvature="0" /></g><g
       id="g1043"
       transform="translate(273.1846,542.4783)"><path
         d="m 0,0 -0.411,0.235 -0.13,0.075 0.07,-0.041"
         style="fill:none;stroke:#000000;stroke-width:0.50999999;stroke-linecap:round;stroke-linejoin:round;stroke-miterlimit:10;stroke-dasharray:3.6, 1.8;stroke-dashoffset:0;stroke-opacity:1"
         id="path1045"
         inkscape:connector-curvature="0" /></g><g
       id="g1047"
       transform="translate(293.2619,534.2637)"><path
         d="M 0,0 0.948,-0.404 1.8,-1.082 2.541,-2.021 3.153,-3.2 3.625,-4.596 3.947,-6.18 4.113,-7.918 4.118,-9.776 3.962,-11.715 3.65,-13.695"
         style="fill:none;stroke:#000000;stroke-width:0.50999999;stroke-linecap:round;stroke-linejoin:round;stroke-miterlimit:10;stroke-dasharray:3.6, 1.8;stroke-dashoffset:-0.44400001;stroke-opacity:1"
         id="path1049"
         inkscape:connector-curvature="0" /></g><g
       id="g1051"
       transform="translate(333.4137,520.5686)"><path
         d="m 0,0 -0.312,1.98 -0.156,1.939 0.005,1.858 0.166,1.738 0.322,1.584 0.472,1.396 0.612,1.179 0.741,0.939 0.852,0.678 0.948,0.404"
         style="fill:none;stroke:#000000;stroke-width:0.50999999;stroke-linecap:round;stroke-linejoin:round;stroke-miterlimit:10;stroke-dasharray:3.6, 1.8;stroke-dashoffset:-0.44400001;stroke-opacity:1"
         id="path1053"
         inkscape:connector-curvature="0" /></g><g
       id="g1055"
       transform="translate(357.656,542.7729)"><path
         d="M 0,0 0.024,0.014 -0.127,-0.073 -0.234,-0.134"
         style="fill:none;stroke:#000000;stroke-width:0.50999999;stroke-linecap:round;stroke-linejoin:round;stroke-miterlimit:10;stroke-dasharray:3.6, 1.8;stroke-dashoffset:0;stroke-opacity:1"
         id="path1057"
         inkscape:connector-curvature="0" /></g><g
       id="g1059"
       transform="translate(296.912,520.5686)"><path
         d="m 0,0 3.749,-0.974 4.189,-0.418 2.805,-0.075 2.879,-10e-4 5.978,0.018 5.797,-0.02 2.906,0.066 2.854,0.211 2.733,0.437 L 36.502,0"
         style="fill:none;stroke:#000000;stroke-width:0.50999999;stroke-linecap:round;stroke-linejoin:round;stroke-miterlimit:10;stroke-dasharray:3.6, 1.8;stroke-dashoffset:-0.39899999;stroke-opacity:1"
         id="path1061"
         inkscape:connector-curvature="0" /></g><g
       id="g1071"
       transform="translate(210.7957,610.7652)"><path
         d="m 0,0 h 0.149 0.44 0.71 0.942 1.129 1.258 1.325 1.324 1.259 1.128 0.943 0.709 0.44 0.149"
         style="fill:none;stroke:#000000;stroke-width:0.50999999;stroke-linecap:round;stroke-linejoin:round;stroke-miterlimit:10;stroke-dasharray:3.6, 1.8;stroke-dashoffset:1.24699998;stroke-opacity:1"
         id="path1073"
         inkscape:connector-curvature="0" /></g><g
       id="g1075"
       transform="translate(210.7957,610.7652)"><path
         d="M 0,0 H -1.134"
         style="fill:none;stroke:#000000;stroke-width:0.50999999;stroke-linecap:round;stroke-linejoin:round;stroke-miterlimit:10;stroke-dasharray:3.6, 1.8;stroke-dashoffset:0;stroke-opacity:1"
         id="path1077"
         inkscape:connector-curvature="0" /></g><g
       id="g1083"
       transform="translate(420.6638,610.7652)"><path
         d="M 0,0 H -1.134"
         style="fill:none;stroke:#000000;stroke-width:0.50999999;stroke-linecap:round;stroke-linejoin:round;stroke-miterlimit:10;stroke-dasharray:3.6, 1.8;stroke-dashoffset:0;stroke-opacity:1"
         id="path1085"
         inkscape:connector-curvature="0" /></g><g
       id="g1087"
       transform="translate(223.8351,610.7652)"><path
         d="M 0,0 H -1.134"
         style="fill:none;stroke:#000000;stroke-width:0.50999999;stroke-linecap:round;stroke-linejoin:round;stroke-miterlimit:10;stroke-dasharray:3.6, 1.8;stroke-dashoffset:0;stroke-opacity:1"
         id="path1089"
         inkscape:connector-curvature="0" /></g><g
       id="g1095"
       transform="translate(407.6245,610.7652)"><path
         d="m 0,0 h 0.149 0.441 0.709 0.942 1.129 1.258 1.325 1.324 1.259 1.128 0.943 0.709 0.44 0.15"
         style="fill:none;stroke:#000000;stroke-width:0.50999999;stroke-linecap:round;stroke-linejoin:round;stroke-miterlimit:10;stroke-dasharray:3.6, 1.8;stroke-dashoffset:1.24699998;stroke-opacity:1"
         id="path1097"
         inkscape:connector-curvature="0" /></g><g
       id="g1099"
       transform="translate(407.6245,610.7652)"><path
         d="M 0,0 H -1.134"
         style="fill:none;stroke:#000000;stroke-width:0.50999999;stroke-linecap:round;stroke-linejoin:round;stroke-miterlimit:10;stroke-dasharray:3.6, 1.8;stroke-dashoffset:0;stroke-opacity:1"
         id="path1101"
         inkscape:connector-curvature="0" /></g><g
       id="g1103"
       transform="translate(229.8411,664.6235)"><path
         d="m 0,0 h -0.449 -1.587 -1.763 -1.908 -2.026 -2.109 -2.162 -2.178 -2.161 -2.11 -2.025 -1.909 -1.762 -1.588 -0.448"
         style="fill:none;stroke:#000000;stroke-width:0.50999999;stroke-linecap:round;stroke-linejoin:round;stroke-miterlimit:10;stroke-dasharray:3.6, 1.8;stroke-dashoffset:-0.493;stroke-opacity:1"
         id="path1105"
         inkscape:connector-curvature="0" /></g><g
       id="g1107"
       transform="translate(223.8351,622.1038)"><path
         d="m 0,0 h -0.459 -0.867 -1.063 -1.223 -1.341 -1.414 -1.439 -1.414 -1.341 -1.223 -1.063 -0.867 -0.459"
         style="fill:none;stroke:#000000;stroke-width:0.50999999;stroke-linecap:round;stroke-linejoin:round;stroke-miterlimit:10;stroke-dasharray:3.6, 1.8;stroke-dashoffset:0.113;stroke-opacity:1"
         id="path1109"
         inkscape:connector-curvature="0" /></g><g
       id="g1111"
       transform="translate(420.6638,622.1038)"><path
         d="m 0,0 h -0.459 -0.867 -1.063 -1.223 -1.341 -1.414 -1.439 -1.414 -1.341 -1.223 -1.063 -0.867 -0.459"
         style="fill:none;stroke:#000000;stroke-width:0.50999999;stroke-linecap:round;stroke-linejoin:round;stroke-miterlimit:10;stroke-dasharray:3.6, 1.8;stroke-dashoffset:0.113;stroke-opacity:1"
         id="path1113"
         inkscape:connector-curvature="0" /></g><g
       id="g1115"
       transform="translate(426.6699,664.6235)"><path
         d="m 0,0 h -0.449 -1.587 -1.763 -1.908 -2.026 -2.11 -2.161 -2.178 -2.161 -2.11 -2.025 -1.909 -1.762 -1.588 -0.448"
         style="fill:none;stroke:#000000;stroke-width:0.50999999;stroke-linecap:round;stroke-linejoin:round;stroke-miterlimit:10;stroke-dasharray:3.6, 1.8;stroke-dashoffset:-0.493;stroke-opacity:1"
         id="path1117"
         inkscape:connector-curvature="0" /></g><g
       id="g1119"
       transform="translate(224.1185,660.2298)"><path
         d="M 0,0 V 0.142"
         style="fill:none;stroke:#000000;stroke-width:0.50999999;stroke-linecap:round;stroke-linejoin:round;stroke-miterlimit:10;stroke-dasharray:3.6, 1.8;stroke-dashoffset:0;stroke-opacity:1"
         id="path1121"
         inkscape:connector-curvature="0" /></g><g
       id="g1123"
       transform="translate(223.8351,654.7023)"><path
         d="m 0,0 h -0.278 -0.681 -0.916 -1.117 -1.274 -1.383 -1.438 -1.437 -1.383 -1.274 -1.117 -0.917 -0.681 -0.277"
         style="fill:none;stroke:#000000;stroke-width:0.50999999;stroke-linecap:round;stroke-linejoin:round;stroke-miterlimit:10;stroke-dasharray:3.6, 1.8;stroke-dashoffset:0.113;stroke-opacity:1"
         id="path1125"
         inkscape:connector-curvature="0" /></g><g
       id="g1127"
       transform="translate(209.3784,660.3715)"><path
         d="M 0,0 V -0.142"
         style="fill:none;stroke:#000000;stroke-width:0.50999999;stroke-linecap:round;stroke-linejoin:round;stroke-miterlimit:10;stroke-dasharray:3.6, 1.8;stroke-dashoffset:0;stroke-opacity:1"
         id="path1129"
         inkscape:connector-curvature="0" /></g><g
       id="g1131"
       transform="translate(273.3975,542.3229)"><path
         d="M 0,0 -0.141,0.083"
         style="fill:none;stroke:#000000;stroke-width:0.50999999;stroke-linecap:round;stroke-linejoin:round;stroke-miterlimit:10;stroke-dasharray:3.6, 1.8;stroke-dashoffset:0;stroke-opacity:1"
         id="path1133"
         inkscape:connector-curvature="0" /></g><g
       id="g1135"
       transform="translate(357.2481,542.5268)"><path
         d="M 0,0 -0.049,-0.029"
         style="fill:none;stroke:#000000;stroke-width:0.50999999;stroke-linecap:round;stroke-linejoin:round;stroke-miterlimit:10;stroke-dasharray:3.6, 1.8;stroke-dashoffset:0;stroke-opacity:1"
         id="path1137"
         inkscape:connector-curvature="0" /></g><g
       id="g1139"
       transform="translate(279.7322,530.5119)"><path
         d="m 0,0 -0.002,0.002 0.108,-0.087 0.319,-0.256 0.53,-0.417 0.752,-0.578 0.958,-0.713 0.553,-0.399 1.364,-0.949 1.582,-1.037 1.82,-1.113 2.029,-1.142 1.624,-0.842 1.732,-0.829 1.853,-0.81 1.958,-0.773"
         style="fill:none;stroke:#000000;stroke-width:0.50999999;stroke-linecap:round;stroke-linejoin:round;stroke-miterlimit:10;stroke-dasharray:3.6, 1.8;stroke-dashoffset:-0.071;stroke-opacity:1"
         id="path1141"
         inkscape:connector-curvature="0" /></g><g
       id="g1143"
       transform="translate(333.4137,520.5686)"><path
         d="m 0,0 1.493,0.582 1.441,0.608 2.214,1.027 2.066,1.063 1.933,1.088 1.762,1.074 1.361,0.884 1.219,0.835 1.079,0.773 0.912,0.679 0.699,0.537 0.525,0.412 0.341,0.272 0.135,0.11 -0.011,-0.009"
         style="fill:none;stroke:#000000;stroke-width:0.50999999;stroke-linecap:round;stroke-linejoin:round;stroke-miterlimit:10;stroke-dasharray:3.6, 1.8;stroke-dashoffset:-0.075;stroke-opacity:1"
         id="path1145"
         inkscape:connector-curvature="0" /></g><g
       id="g1147"
       transform="translate(406.4906,659.6628)"><path
         d="m 0,0 h 0.015 0.226 0.49 0.733 0.95 1.129 1.266 1.353 1.388 1.371 1.3 1.18 1.014 0.809 0.573 0.316 0.06"
         style="fill:none;stroke:#000000;stroke-width:0.50999999;stroke-linecap:round;stroke-linejoin:round;stroke-miterlimit:10;stroke-dasharray:3.6, 1.8;stroke-dashoffset:0.113;stroke-opacity:1"
         id="path1149"
         inkscape:connector-curvature="0" /></g><g
       id="g1151"
       transform="translate(209.6618,659.6628)"><path
         d="m 0,0 h 0.015 0.226 0.49 0.733 0.95 1.129 1.266 1.353 1.388 1.371 1.3 1.18 1.014 0.809 0.573 0.316 0.06"
         style="fill:none;stroke:#000000;stroke-width:0.50999999;stroke-linecap:round;stroke-linejoin:round;stroke-miterlimit:10;stroke-dasharray:3.6, 1.8;stroke-dashoffset:0.113;stroke-opacity:1"
         id="path1153"
         inkscape:connector-curvature="0" /></g><path
       style="fill:#ffffee;fill-opacity:1;stroke:none;stroke-width:0.31083879px;stroke-linecap:butt;stroke-linejoin:miter;stroke-opacity:1"
       d="m 403.49911,684.39302 c -13.53672,-22.52471 -14.35,-18.10953 -15.35351,-29.26582 -1.2412,-13.79872 2.1596,-21.58439 2.15962,-29.88647 0,-10.68979 -8.16766,-24.5603 -4.08384,-31.13278 4.08384,-6.57248 5.75792,-3.63573 8.48179,-16.60416 2.72389,-12.96841 -1.38365,-11.83764 5.92303,-15.18646 7.30667,-3.3488 18.08896,-5.61034 20.81414,-5.13194 2.72519,0.4784 2.31813,-4.44547 8.37305,5.3494 3.98252,6.44238 2.27249,27.76805 1.95835,41.95075 -0.31413,14.18271 5.73664,17.49023 4.28195,21.19823 -1.45468,3.708 -2.08297,7.85904 -3.02538,13.39376 -0.94243,5.53472 10.09508,13.87512 4.6447,24.48693 -5.45039,10.61182 -4.01643,12.87241 -8.72853,15.63977 -4.7121,2.76736 -5.02625,6.57247 -11.93733,7.26431 -6.91109,0.69184 -9.73835,0.69184 -13.50804,-2.07552 z"
       id="path1089-1"
       inkscape:connector-curvature="0"
       sodipodi:nodetypes="csssssssscssssc" /></g></svg>