<?xml version="1.0" encoding="UTF-8" standalone="no"?>
<svg
   xmlns:dc="http://purl.org/dc/elements/1.1/"
   xmlns:cc="http://creativecommons.org/ns#"
   xmlns:rdf="http://www.w3.org/1999/02/22-rdf-syntax-ns#"
   xmlns:svg="http://www.w3.org/2000/svg"
   xmlns="http://www.w3.org/2000/svg"
   xmlns:sodipodi="http://sodipodi.sourceforge.net/DTD/sodipodi-0.dtd"
   xmlns:inkscape="http://www.inkscape.org/namespaces/inkscape"
   width="2.4793115in"
   stroke-miterlimit="10"
   font-weight="normal"
   viewBox="0 0 238.0139 161.0327"
   height="1.677424in"
   font-style="normal"
   font-size="12"
   version="1.1"
   id="svg4295"
   sodipodi:docname="Cas d'utilisation.svg"
   style="font-style:normal;font-weight:normal;font-size:12px;font-family:Arial;color-interpolation:auto;fill:#000000;fill-opacity:1;stroke:#000000;stroke-width:1;stroke-linecap:square;stroke-linejoin:miter;stroke-miterlimit:10;stroke-dasharray:none;stroke-dashoffset:0;stroke-opacity:1;color-rendering:auto;image-rendering:auto;shape-rendering:auto;text-rendering:auto"
   inkscape:version="0.92.3 (2405546, 2018-03-11)">
  <metadata
     id="metadata4299">
    <rdf:RDF>
      <cc:Work
         rdf:about="">
        <dc:format>image/svg+xml</dc:format>
        <dc:type
           rdf:resource="http://purl.org/dc/dcmitype/StillImage" />
        <dc:title></dc:title>
      </cc:Work>
    </rdf:RDF>
  </metadata>
  <sodipodi:namedview
     pagecolor="#ffffff"
     bordercolor="#666666"
     borderopacity="1"
     objecttolerance="10"
     gridtolerance="10"
     guidetolerance="10"
     inkscape:pageopacity="0"
     inkscape:pageshadow="2"
     inkscape:window-width="3200"
     inkscape:window-height="1690"
     id="namedview4297"
     showgrid="false"
     fit-margin-top="0"
     fit-margin-left="0"
     fit-margin-right="0"
     fit-margin-bottom="0"
     inkscape:zoom="6.0281711"
     inkscape:cx="178.13862"
     inkscape:cy="74.044733"
     inkscape:window-x="-12"
     inkscape:window-y="-12"
     inkscape:window-maximized="1"
     inkscape:current-layer="svg4295" />
  <!--Generated by the Batik Graphics2D SVG Generator
 This is MagicDraw diagram.-->
  <defs
     id="genericDefs">
    <defs
       id="defs1">
      <linearGradient
         spreadMethod="pad"
         id="linearGradient1"
         y2="287"
         y1="49"
         x2="553"
         gradientUnits="userSpaceOnUse"
         x1="266">
        <stop
           id="stop4068"
           offset="0%"
           stop-color="rgb(212,221,255)"
           stop-opacity="1" />
        <stop
           id="stop4070"
           offset="100%"
           stop-color="white"
           stop-opacity="1" />
      </linearGradient>
      <linearGradient
         spreadMethod="pad"
         id="linearGradient2"
         y2="154"
         y1="84"
         x2="532"
         gradientUnits="userSpaceOnUse"
         x1="357">
        <stop
           id="stop4073"
           offset="0%"
           stop-color="rgb(255,255,204)"
           stop-opacity="1" />
        <stop
           id="stop4075"
           offset="100%"
           stop-color="white"
           stop-opacity="1" />
      </linearGradient>
      <linearGradient
         spreadMethod="pad"
         id="linearGradient3"
         y2="272"
         y1="196"
         x2="441"
         gradientUnits="userSpaceOnUse"
         x1="287">
        <stop
           id="stop4078"
           offset="0%"
           stop-color="rgb(255,255,204)"
           stop-opacity="1" />
        <stop
           id="stop4080"
           offset="100%"
           stop-color="white"
           stop-opacity="1" />
      </linearGradient>
      <linearGradient
         spreadMethod="pad"
         id="linearGradient4"
         y2="112"
         y1="77"
         x2="163"
         gradientUnits="userSpaceOnUse"
         x1="128">
        <stop
           id="stop4083"
           offset="0%"
           stop-color="rgb(255,255,204)"
           stop-opacity="1" />
        <stop
           id="stop4085"
           offset="100%"
           stop-color="white"
           stop-opacity="1" />
      </linearGradient>
      <linearGradient
         spreadMethod="pad"
         id="linearGradient5"
         y2="224"
         y1="189"
         x2="221"
         gradientUnits="userSpaceOnUse"
         x1="186">
        <stop
           id="stop4088"
           offset="0%"
           stop-color="rgb(255,255,204)"
           stop-opacity="1" />
        <stop
           id="stop4090"
           offset="100%"
           stop-color="white"
           stop-opacity="1" />
      </linearGradient>
      <linearGradient
         spreadMethod="pad"
         id="linearGradient6"
         y2="224"
         y1="189"
         x2="92"
         gradientUnits="userSpaceOnUse"
         x1="57">
        <stop
           id="stop4093"
           offset="0%"
           stop-color="rgb(255,255,204)"
           stop-opacity="1" />
        <stop
           id="stop4095"
           offset="100%"
           stop-color="white"
           stop-opacity="1" />
      </linearGradient>
      <clipPath
         id="clipPath1"
         clipPathUnits="userSpaceOnUse">
        <path
           id="path4098"
           d="M 0,-5 H 617 V 323 H 0 Z"
           inkscape:connector-curvature="0" />
      </clipPath>
      <clipPath
         id="clipPath2"
         clipPathUnits="userSpaceOnUse">
        <path
           id="path4101"
           d="M 201.9403,-48.8137 489.6844,474.266 224.2018,620.307 -63.5424,97.2273 Z"
           inkscape:connector-curvature="0" />
      </clipPath>
    </defs>
  </defs>
  <path
     d="m 81.0156,125.3608 v -10.0156 h 3.25 q 1.8438,0 2.4063,0.1406 0.8593,0.2344 1.4453,0.9844 0.5859,0.75 0.5859,1.9531 0,0.9219 -0.3359,1.5469 -0.336,0.625 -0.8516,0.9844 -0.5156,0.3594 -1.0625,0.4844 -0.7187,0.1406 -2.0937,0.1406 h -1.3125 v 3.7812 z m 2.0313,-8.3281 v 2.8438 h 1.1093 q 1.1876,0 1.5938,-0.1563 0.4062,-0.1562 0.6328,-0.4922 0.2266,-0.3359 0.2266,-0.7734 0,-0.5469 -0.3203,-0.9063 -0.3203,-0.3593 -0.8203,-0.4531 -0.3594,-0.0625 -1.4532,-0.0625 z m 11.1562,6.0156 1.9219,0.3282 q -0.375,1.0468 -1.1719,1.6015 -0.7969,0.5547 -1.9843,0.5547 -1.8907,0 -2.8126,-1.25 -0.7187,-0.9844 -0.7187,-2.5 0,-1.7969 0.9453,-2.8203 0.9453,-1.0234 2.3984,-1.0234 1.6094,0 2.5469,1.0703 0.9375,1.0703 0.8907,3.2734 h -4.8126 q 0.0313,0.8594 0.4766,1.336 0.4453,0.4765 1.1016,0.4765 0.4531,0 0.7578,-0.25 0.3047,-0.25 0.4609,-0.7969 z m 0.1094,-1.9375 q -0.0156,-0.8437 -0.4219,-1.2734 -0.4062,-0.4297 -1,-0.4297 -0.625,0 -1.0468,0.4531 -0.4063,0.4688 -0.3907,1.25 z m 6.5313,4.25 h -1.9219 v -7.2656 h 1.7812 v 1.0313 q 0.4688,-0.7188 0.8281,-0.9532 0.3594,-0.2343 0.8282,-0.2343 0.6562,0 1.2656,0.3593 l -0.5938,1.6719 q -0.4843,-0.3125 -0.9062,-0.3125 -0.4062,0 -0.6797,0.2266 -0.2734,0.2265 -0.4375,0.8047 -0.164,0.5781 -0.164,2.4218 z m 3.4843,-2.0781 1.9219,-0.2812 q 0.125,0.5468 0.5,0.8437 0.375,0.2969 1.0625,0.2969 0.7344,0 1.1094,-0.2813 0.2656,-0.1875 0.2656,-0.5156 0,-0.2187 -0.1406,-0.3594 -0.1407,-0.1406 -0.6407,-0.25 -2.3281,-0.5156 -2.9531,-0.9375 -0.8593,-0.5937 -0.8593,-1.6406 0,-0.9375 0.7421,-1.5781 0.7422,-0.6406 2.3203,-0.6406 1.4844,0 2.211,0.4843 0.7266,0.4844 0.9922,1.4375 l -1.8125,0.3282 q -0.1094,-0.4219 -0.4375,-0.6485 -0.3282,-0.2265 -0.9219,-0.2265 -0.7656,0 -1.0937,0.2187 -0.2188,0.1406 -0.2188,0.3906 0,0.2032 0.2031,0.3438 0.25,0.1875 1.7891,0.5391 1.539,0.3515 2.1484,0.8515 0.5938,0.5156 0.5938,1.4375 0,1 -0.836,1.7188 -0.8359,0.7187 -2.4609,0.7187 -1.4844,0 -2.3516,-0.6094 -0.8671,-0.6093 -1.1328,-1.6406 z m 8.2344,-1.6562 q 0,-0.9532 0.4687,-1.8516 0.4688,-0.8984 1.336,-1.3672 0.8672,-0.4687 1.9297,-0.4687 1.6562,0 2.7031,1.0703 1.0469,1.0703 1.0469,2.6953 0,1.6562 -1.0625,2.7422 -1.0625,1.0859 -2.6719,1.0859 -1,0 -1.9063,-0.4531 -0.9062,-0.4531 -1.375,-1.3281 -0.4687,-0.875 -0.4687,-2.125 z m 1.9687,0.1093 q 0,1.0782 0.5157,1.6485 0.5156,0.5703 1.2656,0.5703 0.75,0 1.2578,-0.5703 0.5078,-0.5703 0.5078,-1.6641 0,-1.0625 -0.5078,-1.6406 -0.5078,-0.5781 -1.2578,-0.5781 -0.75,0 -1.2656,0.5781 -0.5157,0.5781 -0.5157,1.6562 z m 14.0782,3.625 h -1.9219 v -3.7031 q 0,-1.1719 -0.125,-1.5234 -0.125,-0.3516 -0.3984,-0.5391 -0.2735,-0.1875 -0.6641,-0.1875 -0.5,0 -0.8984,0.2735 -0.3985,0.2734 -0.5469,0.7265 -0.1485,0.4531 -0.1485,1.6719 v 3.2812 h -1.9218 v -7.2656 h 1.7968 v 1.0781 q 0.9376,-1.2343 2.3907,-1.2343 0.625,0 1.1562,0.2265 0.5313,0.2266 0.7969,0.586 0.2656,0.3593 0.375,0.8047 0.1094,0.4453 0.1094,1.289 z m 9,0 h -1.9219 v -3.7031 q 0,-1.1719 -0.125,-1.5234 -0.125,-0.3516 -0.3984,-0.5391 -0.2735,-0.1875 -0.6641,-0.1875 -0.5,0 -0.8984,0.2735 -0.3985,0.2734 -0.5469,0.7265 -0.1485,0.4531 -0.1485,1.6719 v 3.2812 h -1.9218 v -7.2656 h 1.7968 v 1.0781 q 0.9376,-1.2343 2.3907,-1.2343 0.625,0 1.1562,0.2265 0.5313,0.2266 0.7969,0.586 0.2656,0.3593 0.375,0.8047 0.1094,0.4453 0.1094,1.289 z m 6.5937,-2.3125 1.9219,0.3282 q -0.375,1.0468 -1.1719,1.6015 -0.7969,0.5547 -1.9843,0.5547 -1.8907,0 -2.8126,-1.25 -0.7187,-0.9844 -0.7187,-2.5 0,-1.7969 0.9453,-2.8203 0.9453,-1.0234 2.3984,-1.0234 1.6094,0 2.5469,1.0703 0.9375,1.0703 0.8907,3.2734 h -4.8126 q 0.0313,0.8594 0.4766,1.336 0.4453,0.4765 1.1016,0.4765 0.4531,0 0.7578,-0.25 0.3047,-0.25 0.4609,-0.7969 z m 0.1094,-1.9375 q -0.0156,-0.8437 -0.4219,-1.2734 -0.4062,-0.4297 -1,-0.4297 -0.625,0 -1.0468,0.4531 -0.4063,0.4688 -0.3907,1.25 z m 4.6875,4.25 v -10.0156 h 1.9219 v 10.0156 z m 7.8594,-7.2656 h 1.7656 v 1 q 0.9531,-1.1562 2.2656,-1.1562 0.7032,0 1.2188,0.289 0.5156,0.2891 0.8437,0.8672 0.4688,-0.5781 1.0235,-0.8672 0.5546,-0.289 1.1796,-0.289 0.7969,0 1.3516,0.3203 0.5547,0.3203 0.836,0.9609 0.2031,0.4531 0.2031,1.5 v 4.6406 h -1.9219 v -4.1562 q 0,-1.0781 -0.2031,-1.3906 -0.2657,-0.4063 -0.8281,-0.4063 -0.3907,0 -0.75,0.2422 -0.3594,0.2422 -0.5157,0.7188 -0.1562,0.4765 -0.1562,1.5078 v 3.4843 H 161.25 v -3.9843 q 0,-1.0469 -0.1016,-1.3594 -0.1015,-0.3125 -0.3203,-0.4609 -0.2187,-0.1485 -0.5781,-0.1485 -0.4531,0 -0.8047,0.2422 -0.3515,0.2422 -0.5078,0.6875 -0.1563,0.4453 -0.1563,1.4922 v 3.5312 h -1.9218 z m 16.3437,4.9531 1.9219,0.3282 q -0.375,1.0468 -1.1719,1.6015 -0.7969,0.5547 -1.9843,0.5547 -1.8907,0 -2.8126,-1.25 -0.7187,-0.9844 -0.7187,-2.5 0,-1.7969 0.9453,-2.8203 0.9453,-1.0234 2.3984,-1.0234 1.6094,0 2.5469,1.0703 0.9375,1.0703 0.8907,3.2734 h -4.8126 q 0.0313,0.8594 0.4766,1.336 0.4453,0.4765 1.1016,0.4765 0.4531,0 0.7578,-0.25 0.3047,-0.25 0.4609,-0.7969 z m 0.1094,-1.9375 q -0.0156,-0.8437 -0.4219,-1.2734 -0.4062,-0.4297 -1,-0.4297 -0.625,0 -1.0468,0.4531 -0.4063,0.4688 -0.3907,1.25 z m -3.5313,-4.75 0.9376,-2.0312 h 2.1562 L 171,116.3608 Z m 14.875,9 h -1.7812 v -1.0625 q -0.4375,0.625 -1.0469,0.9297 -0.6093,0.3047 -1.2187,0.3047 -1.25,0 -2.1406,-1.0156 -0.8907,-1.0156 -0.8907,-2.8125 0,-1.8438 0.8672,-2.8047 0.8672,-0.9609 2.1953,-0.9609 1.2188,0 2.1094,1.0156 v -3.6094 h 1.9062 z m -5.125,-3.7812 q 0,1.1562 0.3282,1.6719 0.4687,0.75 1.2968,0.75 0.6563,0 1.125,-0.5625 0.4688,-0.5625 0.4688,-1.6875 0,-1.25 -0.4531,-1.7969 -0.4531,-0.5469 -1.1563,-0.5469 -0.6875,0 -1.1484,0.5391 -0.461,0.539 -0.461,1.6328 z M 187,117.1108 v -1.7656 h 1.9219 v 1.7656 z m 0,8.25 v -7.2656 h 1.9219 v 7.2656 z m 10.3281,-5.1093 -1.8906,0.3437 q -0.0937,-0.5781 -0.4297,-0.8594 -0.3359,-0.2812 -0.8828,-0.2812 -0.7188,0 -1.1406,0.4922 -0.4219,0.4922 -0.4219,1.6484 0,1.2969 0.4297,1.8281 0.4297,0.5313 1.164,0.5313 0.5469,0 0.8985,-0.3125 0.3515,-0.3125 0.4922,-1.0625 l 1.8906,0.3125 q -0.2969,1.3125 -1.1328,1.9766 -0.8359,0.664 -2.2422,0.664 -1.5937,0 -2.5391,-1.0078 -0.9453,-1.0078 -0.9453,-2.7891 0,-1.7968 0.9531,-2.7968 0.9532,-1 2.5782,-1 1.3125,0 2.1015,0.5703 0.7891,0.5703 1.1172,1.7422 z m 3.1094,0.0625 -1.7344,-0.3125 q 0.2813,-1.0469 1,-1.5547 0.7188,-0.5078 2.1407,-0.5078 1.2812,0 1.914,0.3047 0.6328,0.3046 0.8828,0.7734 0.25,0.4687 0.25,1.7187 l -0.0156,2.2344 q 0,0.9688 0.0938,1.4219 0.0937,0.4531 0.3437,0.9687 h -1.8906 q -0.0781,-0.1875 -0.1875,-0.5625 -0.0469,-0.1718 -0.0782,-0.2343 -0.4843,0.4843 -1.0468,0.7265 -0.5625,0.2422 -1.2032,0.2422 -1.1093,0 -1.7578,-0.6094 -0.6484,-0.6093 -0.6484,-1.5468 0,-0.6094 0.2969,-1.0938 0.2969,-0.4844 0.8203,-0.7422 0.5234,-0.2578 1.5234,-0.4453 1.3438,-0.25 1.875,-0.4687 v -0.1875 q 0,-0.5625 -0.2734,-0.7969 -0.2734,-0.2344 -1.0391,-0.2344 -0.5156,0 -0.7969,0.2031 -0.2812,0.2032 -0.4687,0.7032 z m 2.5781,1.5625 q -0.375,0.125 -1.1718,0.2968 -0.7969,0.1719 -1.0469,0.3282 -0.375,0.2656 -0.375,0.6718 0,0.4063 0.2969,0.7032 0.2968,0.2968 0.7656,0.2968 0.5156,0 1,-0.3437 0.3437,-0.2656 0.4531,-0.6406 0.0781,-0.2344 0.0781,-0.9375 z M 207,125.3608 v -10.0156 h 1.9219 v 10.0156 z"
     clip-path="url(#clipPath1)"
     id="path4177"
     inkscape:connector-curvature="0"
     style="fill:#000000;stroke:none;stroke-linecap:butt;stroke-linejoin:round;text-rendering:geometricPrecision"
     transform="translate(-46.0156,-76.5)" />
  <line
     clip-path="url(#clipPath1)"
     x1="146"
     x2="146"
     y1="88"
     y2="101"
     id="line4179"
     style="fill:none;stroke:#b2b2b2;stroke-linecap:butt;stroke-linejoin:round;text-rendering:geometricPrecision"
     transform="translate(-46.0156,-76.5)" />
  <line
     clip-path="url(#clipPath1)"
     x1="129"
     x2="163"
     y1="95"
     y2="95"
     id="line4181"
     style="fill:none;stroke:#b2b2b2;stroke-linecap:butt;stroke-linejoin:round;text-rendering:geometricPrecision"
     transform="translate(-46.0156,-76.5)" />
  <line
     clip-path="url(#clipPath1)"
     x1="129"
     x2="146"
     y1="113"
     y2="101"
     id="line4183"
     style="fill:none;stroke:#b2b2b2;stroke-linecap:butt;stroke-linejoin:round;text-rendering:geometricPrecision"
     transform="translate(-46.0156,-76.5)" />
  <line
     clip-path="url(#clipPath1)"
     x1="163"
     x2="146"
     y1="113"
     y2="101"
     id="line4185"
     style="fill:none;stroke:#b2b2b2;stroke-linecap:butt;stroke-linejoin:round;text-rendering:geometricPrecision"
     transform="translate(-46.0156,-76.5)" />
  <line
     clip-path="url(#clipPath1)"
     x1="147"
     x2="147"
     y1="88"
     y2="102"
     id="line4187"
     style="fill:none;stroke:#b2b2b2;stroke-linecap:butt;stroke-linejoin:round;text-rendering:geometricPrecision"
     transform="translate(-46.0156,-76.5)" />
  <line
     clip-path="url(#clipPath1)"
     x1="130"
     x2="164"
     y1="96"
     y2="96"
     id="line4189"
     style="fill:none;stroke:#b2b2b2;stroke-linecap:butt;stroke-linejoin:round;text-rendering:geometricPrecision"
     transform="translate(-46.0156,-76.5)" />
  <line
     clip-path="url(#clipPath1)"
     x1="130"
     x2="147"
     y1="114"
     y2="102"
     id="line4191"
     style="fill:none;stroke:#b2b2b2;stroke-linecap:butt;stroke-linejoin:round;text-rendering:geometricPrecision"
     transform="translate(-46.0156,-76.5)" />
  <line
     clip-path="url(#clipPath1)"
     x1="164"
     x2="147"
     y1="114"
     y2="102"
     id="line4193"
     style="fill:none;stroke:#b2b2b2;stroke-linecap:butt;stroke-linejoin:round;text-rendering:geometricPrecision"
     transform="translate(-46.0156,-76.5)" />
  <circle
     r="5.5"
     clip-path="url(#clipPath1)"
     cx="147.5"
     cy="84.5"
     id="circle4195"
     style="fill:#b2b2b2;stroke:none;stroke-linecap:butt;stroke-linejoin:round;text-rendering:geometricPrecision"
     transform="translate(-46.0156,-76.5)" />
  <circle
     r="5.5"
     clip-path="url(#clipPath1)"
     cx="145.5"
     cy="82.5"
     id="circle4197"
     style="fill:url(#linearGradient4);stroke:none;stroke-linecap:butt;stroke-linejoin:round;text-rendering:geometricPrecision"
     transform="translate(-46.0156,-76.5)" />
  <circle
     r="5.5"
     clip-path="url(#clipPath1)"
     cx="145.5"
     cy="82.5"
     id="circle4199"
     style="fill:none;stroke:#666647;stroke-linecap:butt;stroke-linejoin:round;text-rendering:geometricPrecision"
     transform="translate(-46.0156,-76.5)" />
  <line
     clip-path="url(#clipPath1)"
     x1="145"
     x2="145"
     y1="88"
     y2="100"
     id="line4201"
     style="fill:none;stroke:#666647;stroke-linecap:butt;stroke-linejoin:round;text-rendering:geometricPrecision"
     transform="translate(-46.0156,-76.5)" />
  <line
     clip-path="url(#clipPath1)"
     x1="128"
     x2="162"
     y1="94"
     y2="94"
     id="line4203"
     style="fill:none;stroke:#666647;stroke-linecap:butt;stroke-linejoin:round;text-rendering:geometricPrecision"
     transform="translate(-46.0156,-76.5)" />
  <line
     clip-path="url(#clipPath1)"
     x1="128"
     x2="145"
     y1="112"
     y2="100"
     id="line4205"
     style="fill:none;stroke:#666647;stroke-linecap:butt;stroke-linejoin:round;text-rendering:geometricPrecision"
     transform="translate(-46.0156,-76.5)" />
  <line
     clip-path="url(#clipPath1)"
     x1="162"
     x2="145"
     y1="112"
     y2="100"
     id="line4207"
     style="fill:none;stroke:#666647;stroke-linecap:butt;stroke-linejoin:round;text-rendering:geometricPrecision"
     transform="translate(-46.0156,-76.5)" />
  <path
     d="m 167.0625,237.3608 h -2.2031 l -0.875,-2.2812 h -4.0156 l -0.8282,2.2812 H 157 l 3.9062,-10.0156 h 2.1407 z m -3.7344,-3.9687 -1.375,-3.7188 -1.3593,3.7188 z m 10.2813,3.9687 h -1.9219 v -3.7031 q 0,-1.1719 -0.125,-1.5234 -0.125,-0.3516 -0.3984,-0.5391 -0.2735,-0.1875 -0.6641,-0.1875 -0.5,0 -0.8984,0.2735 -0.3985,0.2734 -0.5469,0.7265 -0.1485,0.4531 -0.1485,1.6719 v 3.2812 h -1.9218 v -7.2656 h 1.7968 v 1.0781 q 0.9376,-1.2343 2.3907,-1.2343 0.625,0 1.1562,0.2265 0.5313,0.2266 0.7969,0.586 0.2656,0.3593 0.375,0.8047 0.1094,0.4453 0.1094,1.289 z m 6.5937,-2.3125 1.9219,0.3282 q -0.375,1.0468 -1.1719,1.6015 -0.7969,0.5547 -1.9843,0.5547 -1.8907,0 -2.8126,-1.25 -0.7187,-0.9844 -0.7187,-2.5 0,-1.7969 0.9453,-2.8203 0.9453,-1.0234 2.3984,-1.0234 1.6094,0 2.5469,1.0703 0.9375,1.0703 0.8907,3.2734 h -4.8126 q 0.0313,0.8594 0.4766,1.336 0.4453,0.4765 1.1016,0.4765 0.4531,0 0.7578,-0.25 0.3047,-0.25 0.4609,-0.7969 z m 0.1094,-1.9375 q -0.0156,-0.8437 -0.4219,-1.2734 -0.4062,-0.4297 -1,-0.4297 -0.625,0 -1.0468,0.4531 -0.4063,0.4688 -0.3907,1.25 z m 4.0156,2.1719 1.9219,-0.2812 q 0.125,0.5468 0.5,0.8437 0.375,0.2969 1.0625,0.2969 0.7344,0 1.1094,-0.2813 0.2656,-0.1875 0.2656,-0.5156 0,-0.2187 -0.1406,-0.3594 -0.1407,-0.1406 -0.6407,-0.25 -2.3281,-0.5156 -2.9531,-0.9375 -0.8593,-0.5937 -0.8593,-1.6406 0,-0.9375 0.7421,-1.5781 0.7422,-0.6406 2.3203,-0.6406 1.4844,0 2.211,0.4843 0.7266,0.4844 0.9922,1.4375 l -1.8125,0.3282 q -0.1094,-0.4219 -0.4375,-0.6485 -0.3282,-0.2265 -0.9219,-0.2265 -0.7656,0 -1.0937,0.2187 -0.2188,0.1406 -0.2188,0.3906 0,0.2032 0.2031,0.3438 0.25,0.1875 1.7891,0.5391 1.539,0.3515 2.1484,0.8515 0.5938,0.5156 0.5938,1.4375 0,1 -0.836,1.7188 -0.8359,0.7187 -2.4609,0.7187 -1.4844,0 -2.3516,-0.6094 -0.8671,-0.6093 -1.1328,-1.6406 z m 12,-5.1875 v 1.5313 h -1.3125 v 2.9375 q 0,0.875 0.0391,1.0234 0.0391,0.1484 0.1719,0.25 0.1328,0.1016 0.3359,0.1016 0.2656,0 0.7656,-0.1875 l 0.1563,1.4843 q -0.6563,0.2969 -1.5156,0.2969 -0.5157,0 -0.9297,-0.1797 -0.4141,-0.1797 -0.6094,-0.4531 -0.1953,-0.2734 -0.2735,-0.7422 -0.0624,-0.3437 -0.0624,-1.3594 v -3.1718 h -0.875 v -1.5313 h 0.875 v -1.4375 l 1.9218,-1.125 v 2.5625 z m 3.5938,-2.75 v 3.6719 q 0.9219,-1.0781 2.2187,-1.0781 0.6563,0 1.1953,0.2422 0.5391,0.2421 0.8047,0.625 0.2656,0.3828 0.3672,0.8515 0.1016,0.4688 0.1016,1.4375 v 4.2656 h -1.9219 v -3.8281 q 0,-1.1562 -0.1094,-1.4609 -0.1093,-0.3047 -0.3828,-0.4844 -0.2734,-0.1797 -0.6953,-0.1797 -0.4844,0 -0.8594,0.2344 -0.375,0.2344 -0.5468,0.7031 -0.1719,0.4688 -0.1719,1.375 v 3.6406 H 198 v -10.0156 z m 11.2812,7.7031 1.9219,0.3282 q -0.375,1.0468 -1.1719,1.6015 -0.7969,0.5547 -1.9843,0.5547 -1.8907,0 -2.8126,-1.25 -0.7187,-0.9844 -0.7187,-2.5 0,-1.7969 0.9453,-2.8203 0.9453,-1.0234 2.3984,-1.0234 1.6094,0 2.5469,1.0703 0.9375,1.0703 0.8907,3.2734 h -4.8126 q 0.0313,0.8594 0.4766,1.336 0.4453,0.4765 1.1016,0.4765 0.4531,0 0.7578,-0.25 0.3047,-0.25 0.4609,-0.7969 z m 0.1094,-1.9375 q -0.0156,-0.8437 -0.4219,-1.2734 -0.4062,-0.4297 -1,-0.4297 -0.625,0 -1.0468,0.4531 -0.4063,0.4688 -0.3907,1.25 z m -3.5313,-4.75 0.9376,-2.0312 h 2.1562 L 209,228.3608 Z m 7.5469,6.9219 1.9219,-0.2812 q 0.125,0.5468 0.5,0.8437 0.375,0.2969 1.0625,0.2969 0.7344,0 1.1094,-0.2813 0.2656,-0.1875 0.2656,-0.5156 0,-0.2187 -0.1406,-0.3594 -0.1407,-0.1406 -0.6407,-0.25 -2.3281,-0.5156 -2.9531,-0.9375 -0.8593,-0.5937 -0.8593,-1.6406 0,-0.9375 0.7421,-1.5781 0.7422,-0.6406 2.3203,-0.6406 1.4844,0 2.211,0.4843 0.7266,0.4844 0.9922,1.4375 l -1.8125,0.3282 q -0.1094,-0.4219 -0.4375,-0.6485 -0.3282,-0.2265 -0.9219,-0.2265 -0.7656,0 -1.0937,0.2187 -0.2188,0.1406 -0.2188,0.3906 0,0.2032 0.2031,0.3438 0.25,0.1875 1.7891,0.5391 1.539,0.3515 2.1484,0.8515 0.5938,0.5156 0.5938,1.4375 0,1 -0.836,1.7188 -0.8359,0.7187 -2.4609,0.7187 -1.4844,0 -2.3516,-0.6094 -0.8671,-0.6093 -1.1328,-1.6406 z M 224,229.1108 v -1.7656 h 1.9219 v 1.7656 z m 0,8.25 v -7.2656 h 1.9219 v 7.2656 z m 3.3281,-2.0781 1.9219,-0.2812 q 0.125,0.5468 0.5,0.8437 0.375,0.2969 1.0625,0.2969 0.7344,0 1.1094,-0.2813 0.2656,-0.1875 0.2656,-0.5156 0,-0.2187 -0.1406,-0.3594 -0.1407,-0.1406 -0.6407,-0.25 -2.3281,-0.5156 -2.9531,-0.9375 -0.8593,-0.5937 -0.8593,-1.6406 0,-0.9375 0.7421,-1.5781 0.7422,-0.6406 2.3203,-0.6406 1.4844,0 2.211,0.4843 0.7266,0.4844 0.9922,1.4375 l -1.8125,0.3282 q -0.1094,-0.4219 -0.4375,-0.6485 -0.3282,-0.2265 -0.9219,-0.2265 -0.7656,0 -1.0937,0.2187 -0.2188,0.1406 -0.2188,0.3906 0,0.2032 0.2031,0.3438 0.25,0.1875 1.7891,0.5391 1.539,0.3515 2.1484,0.8515 0.5938,0.5156 0.5938,1.4375 0,1 -0.836,1.7188 -0.8359,0.7187 -2.4609,0.7187 -1.4844,0 -2.3516,-0.6094 -0.8671,-0.6093 -1.1328,-1.6406 z m 12,-5.1875 v 1.5313 h -1.3125 v 2.9375 q 0,0.875 0.0391,1.0234 0.0391,0.1484 0.1719,0.25 0.1328,0.1016 0.3359,0.1016 0.2656,0 0.7656,-0.1875 l 0.1563,1.4843 q -0.6563,0.2969 -1.5156,0.2969 -0.5157,0 -0.9297,-0.1797 -0.4141,-0.1797 -0.6094,-0.4531 -0.1953,-0.2734 -0.2735,-0.7422 -0.0624,-0.3437 -0.0624,-1.3594 v -3.1718 h -0.875 v -1.5313 h 0.875 v -1.4375 l 1.9218,-1.125 v 2.5625 z m 5.875,4.9531 1.9219,0.3282 q -0.375,1.0468 -1.1719,1.6015 -0.7969,0.5547 -1.9843,0.5547 -1.8907,0 -2.8126,-1.25 -0.7187,-0.9844 -0.7187,-2.5 0,-1.7969 0.9453,-2.8203 0.9453,-1.0234 2.3984,-1.0234 1.6094,0 2.5469,1.0703 0.9375,1.0703 0.8907,3.2734 h -4.8126 q 0.0313,0.8594 0.4766,1.336 0.4453,0.4765 1.1016,0.4765 0.4531,0 0.7578,-0.25 0.3047,-0.25 0.4609,-0.7969 z m 0.1094,-1.9375 q -0.0156,-0.8437 -0.4219,-1.2734 -0.4062,-0.4297 -1,-0.4297 -0.625,0 -1.0468,0.4531 -0.4063,0.4688 -0.3907,1.25 z"
     clip-path="url(#clipPath1)"
     id="path4209"
     inkscape:connector-curvature="0"
     style="fill:#000000;stroke:none;stroke-linecap:butt;stroke-linejoin:round;text-rendering:geometricPrecision"
     transform="translate(-46.0156,-76.5)" />
  <line
     clip-path="url(#clipPath1)"
     x1="204"
     x2="204"
     y1="200"
     y2="213"
     id="line4211"
     style="fill:none;stroke:#b2b2b2;stroke-linecap:butt;stroke-linejoin:round;text-rendering:geometricPrecision"
     transform="translate(-46.0156,-76.5)" />
  <line
     clip-path="url(#clipPath1)"
     x1="187"
     x2="221"
     y1="207"
     y2="207"
     id="line4213"
     style="fill:none;stroke:#b2b2b2;stroke-linecap:butt;stroke-linejoin:round;text-rendering:geometricPrecision"
     transform="translate(-46.0156,-76.5)" />
  <line
     clip-path="url(#clipPath1)"
     x1="187"
     x2="204"
     y1="225"
     y2="213"
     id="line4215"
     style="fill:none;stroke:#b2b2b2;stroke-linecap:butt;stroke-linejoin:round;text-rendering:geometricPrecision"
     transform="translate(-46.0156,-76.5)" />
  <line
     clip-path="url(#clipPath1)"
     x1="221"
     x2="204"
     y1="225"
     y2="213"
     id="line4217"
     style="fill:none;stroke:#b2b2b2;stroke-linecap:butt;stroke-linejoin:round;text-rendering:geometricPrecision"
     transform="translate(-46.0156,-76.5)" />
  <line
     clip-path="url(#clipPath1)"
     x1="205"
     x2="205"
     y1="200"
     y2="214"
     id="line4219"
     style="fill:none;stroke:#b2b2b2;stroke-linecap:butt;stroke-linejoin:round;text-rendering:geometricPrecision"
     transform="translate(-46.0156,-76.5)" />
  <line
     clip-path="url(#clipPath1)"
     x1="188"
     x2="222"
     y1="208"
     y2="208"
     id="line4221"
     style="fill:none;stroke:#b2b2b2;stroke-linecap:butt;stroke-linejoin:round;text-rendering:geometricPrecision"
     transform="translate(-46.0156,-76.5)" />
  <line
     clip-path="url(#clipPath1)"
     x1="188"
     x2="205"
     y1="226"
     y2="214"
     id="line4223"
     style="fill:none;stroke:#b2b2b2;stroke-linecap:butt;stroke-linejoin:round;text-rendering:geometricPrecision"
     transform="translate(-46.0156,-76.5)" />
  <line
     clip-path="url(#clipPath1)"
     x1="222"
     x2="205"
     y1="226"
     y2="214"
     id="line4225"
     style="fill:none;stroke:#b2b2b2;stroke-linecap:butt;stroke-linejoin:round;text-rendering:geometricPrecision"
     transform="translate(-46.0156,-76.5)" />
  <circle
     r="5.5"
     clip-path="url(#clipPath1)"
     cx="205.5"
     cy="196.5"
     id="circle4227"
     style="fill:#b2b2b2;stroke:none;stroke-linecap:butt;stroke-linejoin:round;text-rendering:geometricPrecision"
     transform="translate(-46.0156,-76.5)" />
  <circle
     r="5.5"
     clip-path="url(#clipPath1)"
     cx="203.5"
     cy="194.5"
     id="circle4229"
     style="fill:url(#linearGradient5);stroke:none;stroke-linecap:butt;stroke-linejoin:round;text-rendering:geometricPrecision"
     transform="translate(-46.0156,-76.5)" />
  <circle
     r="5.5"
     clip-path="url(#clipPath1)"
     cx="203.5"
     cy="194.5"
     id="circle4231"
     style="fill:none;stroke:#666647;stroke-linecap:butt;stroke-linejoin:round;text-rendering:geometricPrecision"
     transform="translate(-46.0156,-76.5)" />
  <line
     clip-path="url(#clipPath1)"
     x1="203"
     x2="203"
     y1="200"
     y2="212"
     id="line4233"
     style="fill:none;stroke:#666647;stroke-linecap:butt;stroke-linejoin:round;text-rendering:geometricPrecision"
     transform="translate(-46.0156,-76.5)" />
  <line
     clip-path="url(#clipPath1)"
     x1="186"
     x2="220"
     y1="206"
     y2="206"
     id="line4235"
     style="fill:none;stroke:#666647;stroke-linecap:butt;stroke-linejoin:round;text-rendering:geometricPrecision"
     transform="translate(-46.0156,-76.5)" />
  <line
     clip-path="url(#clipPath1)"
     x1="186"
     x2="203"
     y1="224"
     y2="212"
     id="line4237"
     style="fill:none;stroke:#666647;stroke-linecap:butt;stroke-linejoin:round;text-rendering:geometricPrecision"
     transform="translate(-46.0156,-76.5)" />
  <line
     clip-path="url(#clipPath1)"
     x1="220"
     x2="203"
     y1="224"
     y2="212"
     id="line4239"
     style="fill:none;stroke:#666647;stroke-linecap:butt;stroke-linejoin:round;text-rendering:geometricPrecision"
     transform="translate(-46.0156,-76.5)" />
  <path
     d="m 46.0156,227.3452 h 3.6875 q 1.2657,0 1.9219,0.1875 0.875,0.25 1.5,0.9141 0.625,0.664 0.9531,1.625 0.3281,0.9609 0.3281,2.3672 0,1.25 -0.2968,2.1406 -0.375,1.0937 -1.0782,1.7656 -0.5312,0.5156 -1.4218,0.7969 -0.6719,0.2187 -1.7969,0.2187 h -3.7969 z m 2.0156,1.6875 v 6.6406 h 1.5157 q 0.8437,0 1.2187,-0.0937 0.5,-0.125 0.8203,-0.4219 0.3203,-0.2969 0.5313,-0.9687 0.2109,-0.6719 0.2109,-1.8282 0,-1.1718 -0.2109,-1.789 -0.211,-0.6172 -0.5781,-0.9688 -0.3672,-0.3515 -0.9297,-0.4765 -0.4219,-0.0938 -1.6719,-0.0938 z m 12.1719,6.0156 1.9219,0.3282 q -0.375,1.0468 -1.1719,1.6015 -0.7969,0.5547 -1.9843,0.5547 -1.8907,0 -2.8126,-1.25 -0.7187,-0.9844 -0.7187,-2.5 0,-1.7969 0.9453,-2.8203 0.9453,-1.0234 2.3984,-1.0234 1.6094,0 2.5469,1.0703 0.9375,1.0703 0.8907,3.2734 h -4.8126 q 0.0313,0.8594 0.4766,1.336 0.4453,0.4765 1.1016,0.4765 0.4531,0 0.7578,-0.25 0.3047,-0.25 0.4609,-0.7969 z m 0.1094,-1.9375 q -0.0156,-0.8437 -0.4219,-1.2734 -0.4062,-0.4297 -1,-0.4297 -0.625,0 -1.0468,0.4531 -0.4063,0.4688 -0.3907,1.25 z m 11.2969,4.25 h -1.9219 v -3.7031 q 0,-1.1719 -0.125,-1.5234 -0.125,-0.3516 -0.3984,-0.5391 -0.2735,-0.1875 -0.6641,-0.1875 -0.5,0 -0.8984,0.2735 -0.3985,0.2734 -0.5469,0.7265 -0.1485,0.4531 -0.1485,1.6719 v 3.2812 h -1.9218 v -7.2656 h 1.7968 v 1.0781 q 0.9376,-1.2343 2.3907,-1.2343 0.625,0 1.1562,0.2265 0.5313,0.2266 0.7969,0.586 0.2656,0.3593 0.375,0.8047 0.1094,0.4453 0.1094,1.289 z m 5.7187,-7.2656 v 1.5313 h -1.3125 v 2.9375 q 0,0.875 0.0391,1.0234 0.0391,0.1484 0.1719,0.25 0.1328,0.1016 0.3359,0.1016 0.2656,0 0.7656,-0.1875 l 0.1563,1.4843 q -0.6563,0.2969 -1.5156,0.2969 -0.5157,0 -0.9297,-0.1797 -0.4141,-0.1797 -0.6094,-0.4531 -0.1953,-0.2734 -0.2735,-0.7422 -0.0624,-0.3437 -0.0624,-1.3594 v -3.1718 h -0.875 v -1.5313 h 0.875 v -1.4375 l 1.9218,-1.125 v 2.5625 z M 79,229.1108 v -1.7656 h 1.9219 v 1.7656 z m 0,8.25 v -7.2656 h 1.9219 v 7.2656 z m 3.3281,-2.0781 1.9219,-0.2812 q 0.125,0.5468 0.5,0.8437 0.375,0.2969 1.0625,0.2969 0.7344,0 1.1094,-0.2813 0.2656,-0.1875 0.2656,-0.5156 0,-0.2187 -0.1406,-0.3594 -0.1407,-0.1406 -0.6407,-0.25 -2.3281,-0.5156 -2.9531,-0.9375 -0.8593,-0.5937 -0.8593,-1.6406 0,-0.9375 0.7421,-1.5781 0.7422,-0.6406 2.3203,-0.6406 1.4844,0 2.211,0.4843 0.7266,0.4844 0.9922,1.4375 l -1.8125,0.3282 q -0.1094,-0.4219 -0.4375,-0.6485 -0.3282,-0.2265 -0.9219,-0.2265 -0.7656,0 -1.0937,0.2187 -0.2188,0.1406 -0.2188,0.3906 0,0.2032 0.2031,0.3438 0.25,0.1875 1.7891,0.5391 1.539,0.3515 2.1484,0.8515 0.5938,0.5156 0.5938,1.4375 0,1 -0.836,1.7188 -0.8359,0.7187 -2.4609,0.7187 -1.4844,0 -2.3516,-0.6094 -0.8671,-0.6093 -1.1328,-1.6406 z m 12,-5.1875 v 1.5313 h -1.3125 v 2.9375 q 0,0.875 0.0391,1.0234 0.0391,0.1484 0.1719,0.25 0.1328,0.1016 0.3359,0.1016 0.2656,0 0.7656,-0.1875 l 0.1563,1.4843 q -0.6563,0.2969 -1.5156,0.2969 -0.5157,0 -0.9297,-0.1797 -0.4141,-0.1797 -0.6094,-0.4531 -0.1953,-0.2734 -0.2735,-0.7422 -0.0624,-0.3437 -0.0624,-1.3594 v -3.1718 h -0.875 v -1.5313 h 0.875 v -1.4375 l 1.9218,-1.125 v 2.5625 z m 5.875,4.9531 1.9219,0.3282 q -0.375,1.0468 -1.1719,1.6015 -0.7969,0.5547 -1.9843,0.5547 -1.8907,0 -2.8126,-1.25 -0.7187,-0.9844 -0.7187,-2.5 0,-1.7969 0.9453,-2.8203 0.9453,-1.0234 2.3984,-1.0234 1.6094,0 2.5469,1.0703 0.9375,1.0703 0.8907,3.2734 h -4.8126 q 0.0313,0.8594 0.4766,1.336 0.4453,0.4765 1.1016,0.4765 0.4531,0 0.7578,-0.25 0.3047,-0.25 0.4609,-0.7969 z m 0.1094,-1.9375 q -0.0156,-0.8437 -0.4219,-1.2734 -0.4062,-0.4297 -1,-0.4297 -0.625,0 -1.0468,0.4531 -0.4063,0.4688 -0.3907,1.25 z"
     clip-path="url(#clipPath1)"
     id="path4241"
     inkscape:connector-curvature="0"
     style="fill:#000000;stroke:none;stroke-linecap:butt;stroke-linejoin:round;text-rendering:geometricPrecision"
     transform="translate(-46.0156,-76.5)" />
  <line
     clip-path="url(#clipPath1)"
     x1="75"
     x2="75"
     y1="200"
     y2="213"
     id="line4243"
     style="fill:none;stroke:#b2b2b2;stroke-linecap:butt;stroke-linejoin:round;text-rendering:geometricPrecision"
     transform="translate(-46.0156,-76.5)" />
  <line
     clip-path="url(#clipPath1)"
     x1="58"
     x2="92"
     y1="207"
     y2="207"
     id="line4245"
     style="fill:none;stroke:#b2b2b2;stroke-linecap:butt;stroke-linejoin:round;text-rendering:geometricPrecision"
     transform="translate(-46.0156,-76.5)" />
  <line
     clip-path="url(#clipPath1)"
     x1="58"
     x2="75"
     y1="225"
     y2="213"
     id="line4247"
     style="fill:none;stroke:#b2b2b2;stroke-linecap:butt;stroke-linejoin:round;text-rendering:geometricPrecision"
     transform="translate(-46.0156,-76.5)" />
  <line
     clip-path="url(#clipPath1)"
     x1="92"
     x2="75"
     y1="225"
     y2="213"
     id="line4249"
     style="fill:none;stroke:#b2b2b2;stroke-linecap:butt;stroke-linejoin:round;text-rendering:geometricPrecision"
     transform="translate(-46.0156,-76.5)" />
  <line
     clip-path="url(#clipPath1)"
     x1="76"
     x2="76"
     y1="200"
     y2="214"
     id="line4251"
     style="fill:none;stroke:#b2b2b2;stroke-linecap:butt;stroke-linejoin:round;text-rendering:geometricPrecision"
     transform="translate(-46.0156,-76.5)" />
  <line
     clip-path="url(#clipPath1)"
     x1="59"
     x2="93"
     y1="208"
     y2="208"
     id="line4253"
     style="fill:none;stroke:#b2b2b2;stroke-linecap:butt;stroke-linejoin:round;text-rendering:geometricPrecision"
     transform="translate(-46.0156,-76.5)" />
  <line
     clip-path="url(#clipPath1)"
     x1="59"
     x2="76"
     y1="226"
     y2="214"
     id="line4255"
     style="fill:none;stroke:#b2b2b2;stroke-linecap:butt;stroke-linejoin:round;text-rendering:geometricPrecision"
     transform="translate(-46.0156,-76.5)" />
  <line
     clip-path="url(#clipPath1)"
     x1="93"
     x2="76"
     y1="226"
     y2="214"
     id="line4257"
     style="fill:none;stroke:#b2b2b2;stroke-linecap:butt;stroke-linejoin:round;text-rendering:geometricPrecision"
     transform="translate(-46.0156,-76.5)" />
  <circle
     r="5.5"
     clip-path="url(#clipPath1)"
     cx="76.5"
     cy="196.5"
     id="circle4259"
     style="fill:#b2b2b2;stroke:none;stroke-linecap:butt;stroke-linejoin:round;text-rendering:geometricPrecision"
     transform="translate(-46.0156,-76.5)" />
  <circle
     r="5.5"
     clip-path="url(#clipPath1)"
     cx="74.5"
     cy="194.5"
     id="circle4261"
     style="fill:url(#linearGradient6);stroke:none;stroke-linecap:butt;stroke-linejoin:round;text-rendering:geometricPrecision"
     transform="translate(-46.0156,-76.5)" />
  <circle
     r="5.5"
     clip-path="url(#clipPath1)"
     cx="74.5"
     cy="194.5"
     id="circle4263"
     style="fill:none;stroke:#666647;stroke-linecap:butt;stroke-linejoin:round;text-rendering:geometricPrecision"
     transform="translate(-46.0156,-76.5)" />
  <line
     clip-path="url(#clipPath1)"
     x1="74"
     x2="74"
     y1="200"
     y2="212"
     id="line4265"
     style="fill:none;stroke:#666647;stroke-linecap:butt;stroke-linejoin:round;text-rendering:geometricPrecision"
     transform="translate(-46.0156,-76.5)" />
  <line
     clip-path="url(#clipPath1)"
     x1="57"
     x2="91"
     y1="206"
     y2="206"
     id="line4267"
     style="fill:none;stroke:#666647;stroke-linecap:butt;stroke-linejoin:round;text-rendering:geometricPrecision"
     transform="translate(-46.0156,-76.5)" />
  <line
     clip-path="url(#clipPath1)"
     x1="57"
     x2="74"
     y1="224"
     y2="212"
     id="line4269"
     style="fill:none;stroke:#666647;stroke-linecap:butt;stroke-linejoin:round;text-rendering:geometricPrecision"
     transform="translate(-46.0156,-76.5)" />
  <line
     clip-path="url(#clipPath1)"
     x1="91"
     x2="74"
     y1="224"
     y2="212"
     id="line4271"
     style="fill:none;stroke:#666647;stroke-linecap:butt;stroke-linejoin:round;text-rendering:geometricPrecision"
     transform="translate(-46.0156,-76.5)" />
  <polygon
     points="121,133 130,138 130,128 "
     clip-path="url(#clipPath1)"
     id="polygon4283"
     style="fill:none;stroke:#424242;stroke-linecap:butt;stroke-linejoin:round;text-rendering:geometricPrecision"
     transform="translate(-46.0156,-76.5)" />
  <path
     d="M 126,136 92,189"
     clip-path="url(#clipPath1)"
     id="path4285"
     inkscape:connector-curvature="0"
     style="fill:none;stroke:#424242;stroke-linecap:butt;stroke-linejoin:round;text-rendering:geometricPrecision"
     transform="translate(-46.0156,-76.5)" />
  <polygon
     points="157,138 165,133 157,128 "
     clip-path="url(#clipPath1)"
     id="polygon4287"
     style="fill:none;stroke:#424242;stroke-linecap:butt;stroke-linejoin:round;text-rendering:geometricPrecision"
     transform="translate(-46.0156,-76.5)" />
  <path
     d="m 161,136 28,53"
     clip-path="url(#clipPath1)"
     id="path4289"
     inkscape:connector-curvature="0"
     style="fill:none;stroke:#424242;stroke-linecap:butt;stroke-linejoin:round;text-rendering:geometricPrecision"
     transform="translate(-46.0156,-76.5)" />
  <text
     xml:space="preserve"
     style="font-style:normal;font-weight:normal;font-size:40px;line-height:1.25;font-family:sans-serif;letter-spacing:0px;word-spacing:0px;fill:#000000;fill-opacity:1;stroke:none"
     x="151.78734"
     y="80.743011"
     id="text4502"><tspan
       sodipodi:role="line"
       id="tspan4500"
       x="151.78734"
       y="80.743011"
       style="font-size:12px;fill:#004b76;fill-opacity:1">Généralisation</tspan></text>
  <path
     style="fill:none;stroke:#004b76;stroke-width:1px;stroke-linecap:butt;stroke-linejoin:miter;stroke-opacity:1"
     d="M 151.12378,74.936935 121.09809,71.619179"
     id="path4504"
     inkscape:connector-curvature="0" />
</svg>
