<?xml version="1.0" encoding="UTF-8" standalone="no"?>
<svg
   xmlns:dc="http://purl.org/dc/elements/1.1/"
   xmlns:cc="http://creativecommons.org/ns#"
   xmlns:rdf="http://www.w3.org/1999/02/22-rdf-syntax-ns#"
   xmlns:svg="http://www.w3.org/2000/svg"
   xmlns="http://www.w3.org/2000/svg"
   xmlns:xlink="http://www.w3.org/1999/xlink"
   xmlns:sodipodi="http://sodipodi.sourceforge.net/DTD/sodipodi-0.dtd"
   xmlns:inkscape="http://www.inkscape.org/namespaces/inkscape"
   color-rendering="auto"
   color-interpolation="auto"
   text-rendering="auto"
   width="888.75"
   stroke-miterlimit="10"
   shape-rendering="auto"
   font-weight="normal"
   viewBox="0 0 948 422"
   height="395.625"
   font-style="normal"
   font-size="12"
   image-rendering="auto"
   id="svg9648"
   version="1.1"
   inkscape:version="0.48.4 r"
   sodipodi:docname="IBD.svg"
   style="font-size:12px;font-style:normal;font-weight:normal;fill:#000000;fill-opacity:1;stroke:#000000;stroke-width:1;stroke-linecap:square;stroke-linejoin:miter;stroke-miterlimit:10;stroke-opacity:1;stroke-dasharray:none;stroke-dashoffset:0;font-family:Arial"
   inkscape:export-filename="D:\Documents\Corbu\Prepa\S01\TP01\Ilot_03_Barriere\Ressources\IBD.png"
   inkscape:export-xdpi="136"
   inkscape:export-ydpi="136">
  <metadata
     id="metadata9932">
    <rdf:RDF>
      <cc:Work
         rdf:about="">
        <dc:format>image/svg+xml</dc:format>
        <dc:type
           rdf:resource="http://purl.org/dc/dcmitype/StillImage" />
        <dc:title></dc:title>
      </cc:Work>
    </rdf:RDF>
  </metadata>
  <sodipodi:namedview
     pagecolor="#ffffff"
     bordercolor="#666666"
     borderopacity="1"
     objecttolerance="10"
     gridtolerance="10"
     guidetolerance="10"
     inkscape:pageopacity="0"
     inkscape:pageshadow="2"
     inkscape:window-width="1366"
     inkscape:window-height="705"
     id="namedview9930"
     showgrid="false"
     fit-margin-top="0"
     fit-margin-left="0"
     fit-margin-right="0"
     fit-margin-bottom="0"
     inkscape:zoom="0.92437091"
     inkscape:cx="66.229176"
     inkscape:cy="241.29089"
     inkscape:window-x="-8"
     inkscape:window-y="-8"
     inkscape:window-maximized="1"
     inkscape:current-layer="svg9648" />
  <!--Generated by the Batik Graphics2D SVG Generator
 This is MagicDraw diagram.-->
  <defs
     id="genericDefs">
    <defs
       id="defs1">
      <linearGradient
         spreadMethod="pad"
         id="linearGradient1"
         y2="162"
         y1="147"
         x2="20"
         gradientUnits="userSpaceOnUse"
         x1="5">
        <stop
           id="stop9655"
           offset="0%"
           stop-color="rgb(255,255,204)"
           stop-opacity="1" />
        <stop
           id="stop9657"
           offset="100%"
           stop-color="white"
           stop-opacity="1" />
      </linearGradient>
      <linearGradient
         spreadMethod="pad"
         id="linearGradient2"
         y2="339"
         y1="324"
         x2="20"
         gradientUnits="userSpaceOnUse"
         x1="5">
        <stop
           id="stop9660"
           offset="0%"
           stop-color="rgb(189,210,193)"
           stop-opacity="1" />
        <stop
           id="stop9662"
           offset="100%"
           stop-color="white"
           stop-opacity="1" />
      </linearGradient>
      <linearGradient
         spreadMethod="pad"
         id="linearGradient3"
         y2="130"
         y1="115"
         x2="20"
         gradientUnits="userSpaceOnUse"
         x1="5">
        <stop
           id="stop9665"
           offset="0%"
           stop-color="rgb(189,210,193)"
           stop-opacity="1" />
        <stop
           id="stop9667"
           offset="100%"
           stop-color="white"
           stop-opacity="1" />
      </linearGradient>
      <linearGradient
         spreadMethod="pad"
         id="linearGradient4"
         y2="338"
         y1="323"
         x2="952"
         gradientUnits="userSpaceOnUse"
         x1="937">
        <stop
           id="stop9670"
           offset="0%"
           stop-color="rgb(189,210,193)"
           stop-opacity="1" />
        <stop
           id="stop9672"
           offset="100%"
           stop-color="white"
           stop-opacity="1" />
      </linearGradient>
      <linearGradient
         spreadMethod="pad"
         id="linearGradient5"
         y2="406"
         y1="266"
         x2="231"
         gradientUnits="userSpaceOnUse"
         x1="77">
        <stop
           id="stop9675"
           offset="0%"
           stop-color="rgb(255,240,180)"
           stop-opacity="1" />
        <stop
           id="stop9677"
           offset="100%"
           stop-color="white"
           stop-opacity="1" />
      </linearGradient>
      <linearGradient
         spreadMethod="pad"
         id="linearGradient6"
         y2="344"
         y1="329"
         x2="238"
         gradientUnits="userSpaceOnUse"
         x1="223">
        <stop
           id="stop9680"
           offset="0%"
           stop-color="rgb(189,210,193)"
           stop-opacity="1" />
        <stop
           id="stop9682"
           offset="100%"
           stop-color="white"
           stop-opacity="1" />
      </linearGradient>
      <linearGradient
         spreadMethod="pad"
         id="linearGradient7"
         y2="344"
         y1="329"
         x2="85"
         gradientUnits="userSpaceOnUse"
         x1="70">
        <stop
           id="stop9685"
           offset="0%"
           stop-color="rgb(189,210,193)"
           stop-opacity="1" />
        <stop
           id="stop9687"
           offset="100%"
           stop-color="white"
           stop-opacity="1" />
      </linearGradient>
      <linearGradient
         spreadMethod="pad"
         id="linearGradient8"
         y2="344"
         y1="329"
         x2="85"
         gradientUnits="userSpaceOnUse"
         x1="70">
        <stop
           id="stop9690"
           offset="0%"
           stop-color="rgb(255,255,204)"
           stop-opacity="1" />
        <stop
           id="stop9692"
           offset="100%"
           stop-color="white"
           stop-opacity="1" />
      </linearGradient>
      <linearGradient
         spreadMethod="pad"
         id="linearGradient9"
         y2="372"
         y1="301"
         x2="445"
         gradientUnits="userSpaceOnUse"
         x1="315">
        <stop
           id="stop9695"
           offset="0%"
           stop-color="rgb(255,240,180)"
           stop-opacity="1" />
        <stop
           id="stop9697"
           offset="100%"
           stop-color="white"
           stop-opacity="1" />
      </linearGradient>
      <linearGradient
         spreadMethod="pad"
         id="linearGradient10"
         y2="344"
         y1="329"
         x2="452"
         gradientUnits="userSpaceOnUse"
         x1="437">
        <stop
           id="stop9700"
           offset="0%"
           stop-color="rgb(189,210,193)"
           stop-opacity="1" />
        <stop
           id="stop9702"
           offset="100%"
           stop-color="white"
           stop-opacity="1" />
      </linearGradient>
      <linearGradient
         spreadMethod="pad"
         id="linearGradient11"
         y2="344"
         y1="329"
         x2="323"
         gradientUnits="userSpaceOnUse"
         x1="308">
        <stop
           id="stop9705"
           offset="0%"
           stop-color="rgb(189,210,193)"
           stop-opacity="1" />
        <stop
           id="stop9707"
           offset="100%"
           stop-color="white"
           stop-opacity="1" />
      </linearGradient>
      <linearGradient
         spreadMethod="pad"
         id="linearGradient12"
         y2="399"
         y1="273"
         x2="844"
         gradientUnits="userSpaceOnUse"
         x1="739">
        <stop
           id="stop9710"
           offset="0%"
           stop-color="rgb(255,240,180)"
           stop-opacity="1" />
        <stop
           id="stop9712"
           offset="100%"
           stop-color="white"
           stop-opacity="1" />
      </linearGradient>
      <linearGradient
         spreadMethod="pad"
         id="linearGradient13"
         y2="344"
         y1="329"
         x2="747"
         gradientUnits="userSpaceOnUse"
         x1="732">
        <stop
           id="stop9715"
           offset="0%"
           stop-color="rgb(189,210,193)"
           stop-opacity="1" />
        <stop
           id="stop9717"
           offset="100%"
           stop-color="white"
           stop-opacity="1" />
      </linearGradient>
      <linearGradient
         spreadMethod="pad"
         id="linearGradient14"
         y2="344"
         y1="329"
         x2="851"
         gradientUnits="userSpaceOnUse"
         x1="836">
        <stop
           id="stop9720"
           offset="0%"
           stop-color="rgb(189,210,193)"
           stop-opacity="1" />
        <stop
           id="stop9722"
           offset="100%"
           stop-color="white"
           stop-opacity="1" />
      </linearGradient>
      <linearGradient
         spreadMethod="pad"
         id="linearGradient15"
         y2="344"
         y1="329"
         x2="851"
         gradientUnits="userSpaceOnUse"
         x1="836">
        <stop
           id="stop9725"
           offset="0%"
           stop-color="rgb(189,210,193)"
           stop-opacity="1" />
        <stop
           id="stop9727"
           offset="100%"
           stop-color="white"
           stop-opacity="1" />
      </linearGradient>
      <linearGradient
         spreadMethod="pad"
         id="linearGradient16"
         y2="385"
         y1="294"
         x2="655"
         gradientUnits="userSpaceOnUse"
         x1="529">
        <stop
           id="stop9730"
           offset="0%"
           stop-color="rgb(255,240,180)"
           stop-opacity="1" />
        <stop
           id="stop9732"
           offset="100%"
           stop-color="white"
           stop-opacity="1" />
      </linearGradient>
      <linearGradient
         spreadMethod="pad"
         id="linearGradient17"
         y2="347"
         y1="332"
         x2="537"
         gradientUnits="userSpaceOnUse"
         x1="522">
        <stop
           id="stop9735"
           offset="0%"
           stop-color="rgb(189,210,193)"
           stop-opacity="1" />
        <stop
           id="stop9737"
           offset="100%"
           stop-color="white"
           stop-opacity="1" />
      </linearGradient>
      <linearGradient
         spreadMethod="pad"
         id="linearGradient18"
         y2="347"
         y1="332"
         x2="662"
         gradientUnits="userSpaceOnUse"
         x1="647">
        <stop
           id="stop9740"
           offset="0%"
           stop-color="rgb(189,210,193)"
           stop-opacity="1" />
        <stop
           id="stop9742"
           offset="100%"
           stop-color="white"
           stop-opacity="1" />
      </linearGradient>
      <clipPath
         id="clipPath1"
         clipPathUnits="userSpaceOnUse">
        <path
           id="path9745"
           d="m 0,-5 967,0 0,446 L 0,441 0,-5 z"
           inkscape:connector-curvature="0" />
      </clipPath>
      <clipPath
         id="clipPath2"
         clipPathUnits="userSpaceOnUse">
        <path
           id="path9748"
           d="M 69.5176,-13.2808 988.0877,150.1757 914.3308,564.6644 -4.2392,401.208 69.5176,-13.2808 z"
           inkscape:connector-curvature="0" />
      </clipPath>
    </defs>
    <linearGradient
       inkscape:collect="always"
       xlink:href="#linearGradient1"
       id="linearGradient10083"
       gradientUnits="userSpaceOnUse"
       spreadMethod="pad"
       x1="5"
       y1="147"
       x2="20"
       y2="162" />
    <linearGradient
       inkscape:collect="always"
       xlink:href="#linearGradient2"
       id="linearGradient10085"
       gradientUnits="userSpaceOnUse"
       spreadMethod="pad"
       x1="5"
       y1="324"
       x2="20"
       y2="339" />
    <linearGradient
       inkscape:collect="always"
       xlink:href="#linearGradient3"
       id="linearGradient10087"
       gradientUnits="userSpaceOnUse"
       spreadMethod="pad"
       x1="5"
       y1="115"
       x2="20"
       y2="130" />
    <linearGradient
       inkscape:collect="always"
       xlink:href="#linearGradient4"
       id="linearGradient10089"
       gradientUnits="userSpaceOnUse"
       spreadMethod="pad"
       x1="937"
       y1="323"
       x2="952"
       y2="338" />
    <linearGradient
       inkscape:collect="always"
       xlink:href="#linearGradient5"
       id="linearGradient10091"
       gradientUnits="userSpaceOnUse"
       spreadMethod="pad"
       x1="77"
       y1="266"
       x2="231"
       y2="406" />
    <linearGradient
       inkscape:collect="always"
       xlink:href="#linearGradient6"
       id="linearGradient10093"
       gradientUnits="userSpaceOnUse"
       spreadMethod="pad"
       x1="223"
       y1="329"
       x2="238"
       y2="344" />
    <linearGradient
       inkscape:collect="always"
       xlink:href="#linearGradient7"
       id="linearGradient10095"
       gradientUnits="userSpaceOnUse"
       spreadMethod="pad"
       x1="70"
       y1="329"
       x2="85"
       y2="344" />
    <linearGradient
       inkscape:collect="always"
       xlink:href="#linearGradient8"
       id="linearGradient10097"
       gradientUnits="userSpaceOnUse"
       spreadMethod="pad"
       x1="70"
       y1="329"
       x2="85"
       y2="344" />
    <linearGradient
       inkscape:collect="always"
       xlink:href="#linearGradient9"
       id="linearGradient10099"
       gradientUnits="userSpaceOnUse"
       spreadMethod="pad"
       x1="315"
       y1="301"
       x2="445"
       y2="372" />
    <linearGradient
       inkscape:collect="always"
       xlink:href="#linearGradient10"
       id="linearGradient10101"
       gradientUnits="userSpaceOnUse"
       spreadMethod="pad"
       x1="437"
       y1="329"
       x2="452"
       y2="344" />
    <linearGradient
       inkscape:collect="always"
       xlink:href="#linearGradient11"
       id="linearGradient10103"
       gradientUnits="userSpaceOnUse"
       spreadMethod="pad"
       x1="308"
       y1="329"
       x2="323"
       y2="344" />
    <linearGradient
       inkscape:collect="always"
       xlink:href="#linearGradient12"
       id="linearGradient10105"
       gradientUnits="userSpaceOnUse"
       spreadMethod="pad"
       x1="739"
       y1="273"
       x2="844"
       y2="399" />
    <linearGradient
       inkscape:collect="always"
       xlink:href="#linearGradient13"
       id="linearGradient10107"
       gradientUnits="userSpaceOnUse"
       spreadMethod="pad"
       x1="732"
       y1="329"
       x2="747"
       y2="344" />
    <linearGradient
       inkscape:collect="always"
       xlink:href="#linearGradient14"
       id="linearGradient10109"
       gradientUnits="userSpaceOnUse"
       spreadMethod="pad"
       x1="836"
       y1="329"
       x2="851"
       y2="344" />
    <linearGradient
       inkscape:collect="always"
       xlink:href="#linearGradient15"
       id="linearGradient10111"
       gradientUnits="userSpaceOnUse"
       spreadMethod="pad"
       x1="836"
       y1="329"
       x2="851"
       y2="344" />
    <linearGradient
       inkscape:collect="always"
       xlink:href="#linearGradient16"
       id="linearGradient10113"
       gradientUnits="userSpaceOnUse"
       spreadMethod="pad"
       x1="529"
       y1="294"
       x2="655"
       y2="385" />
    <linearGradient
       inkscape:collect="always"
       xlink:href="#linearGradient17"
       id="linearGradient10115"
       gradientUnits="userSpaceOnUse"
       spreadMethod="pad"
       x1="522"
       y1="332"
       x2="537"
       y2="347" />
    <linearGradient
       inkscape:collect="always"
       xlink:href="#linearGradient18"
       id="linearGradient10117"
       gradientUnits="userSpaceOnUse"
       spreadMethod="pad"
       x1="647"
       y1="332"
       x2="662"
       y2="347" />
  </defs>
  <g
     style="fill:#ffffff;stroke:#ffffff"
     id="g9750"
     transform="translate(-4.5,-4.5)">
    <rect
       style="stroke:none"
       id="rect9752"
       clip-path="url(#clipPath1)"
       y="5"
       height="421"
       width="933"
       x="12" />
  </g>
  <g
     style="fill:#424242;stroke:#424242;stroke-linecap:butt;stroke-linejoin:round"
     id="g9768"
     text-rendering="geometricPrecision"
     transform="translate(-4.5,-4.5)">
    <rect
       style="fill:none"
       id="rect9770"
       clip-path="url(#clipPath1)"
       y="5"
       height="421"
       width="933"
       x="12" />
    <path
       style="fill:#000000;stroke:none"
       inkscape:connector-curvature="0"
       id="path9772"
       clip-path="url(#clipPath1)"
       d="m 86.8125,18.4978 0,-7.875 2.9531,0 q 0.8906,0 1.4375,0.2422 0.5469,0.2422 0.8594,0.7344 0.3125,0.4922 0.3125,1.039 0,0.5 -0.2734,0.9453 -0.2735,0.4454 -0.836,0.7266 0.7188,0.2031 1.1016,0.7109 0.3828,0.5079 0.3828,1.1954 0,0.5468 -0.2344,1.0234 -0.2344,0.4766 -0.5781,0.7344 -0.3437,0.2578 -0.8594,0.3906 -0.5156,0.1328 -1.2656,0.1328 l -3,0 z m 1.0313,-4.5625 1.7031,0 q 0.7031,0 1,-0.0937 0.3906,-0.125 0.5937,-0.3985 0.2032,-0.2734 0.2032,-0.6797 0,-0.3906 -0.1876,-0.6875 -0.1874,-0.2968 -0.539,-0.4062 -0.3516,-0.1094 -1.1953,-0.1094 l -1.5781,0 0,2.375 z m 0,3.6406 1.9687,0 q 0.5,0 0.7031,-0.0468 0.3594,-0.0625 0.6016,-0.211 0.2422,-0.1484 0.3984,-0.4375 0.1563,-0.289 0.1563,-0.664 0,-0.4375 -0.2266,-0.7657 -0.2265,-0.3281 -0.625,-0.4609 -0.3984,-0.1328 -1.1484,-0.1328 l -1.8281,0 0,2.7187 z m 9.6093,0.2188 q -0.5469,0.4531 -1.039,0.6406 -0.4922,0.1875 -1.0703,0.1875 -0.9376,0 -1.4454,-0.4609 -0.5078,-0.461 -0.5078,-1.1641 0,-0.4219 0.1953,-0.7656 0.1953,-0.3438 0.5,-0.5547 0.3047,-0.2109 0.6953,-0.3203 0.2813,-0.0781 0.8594,-0.1406 1.1719,-0.1407 1.7188,-0.3438 0.0156,-0.1875 0.0156,-0.25 0,-0.5937 -0.2812,-0.8281 Q 96.7344,13.4666 96,13.4666 q -0.6875,0 -1.0078,0.2343 -0.3203,0.2344 -0.4766,0.8438 l -0.9531,-0.125 q 0.125,-0.6094 0.4219,-0.9844 0.2968,-0.375 0.8594,-0.5703 0.5624,-0.1953 1.2968,-0.1953 0.7344,0 1.1875,0.1719 0.4531,0.1718 0.6641,0.4296 0.2109,0.2579 0.3047,0.6485 0.0469,0.25 0.0469,0.9062 l 0,1.2813 q 0,1.3437 0.0624,1.7031 0.0626,0.3594 0.25,0.6875 l -1.0156,0 q -0.1562,-0.2969 -0.1875,-0.7031 z m -0.0937,-2.1563 q -0.5156,0.2188 -1.5782,0.3594 -0.5937,0.0938 -0.8359,0.1953 -0.2422,0.1016 -0.3828,0.3125 -0.1406,0.211 -0.1406,0.461 0,0.3906 0.2969,0.6484 0.2968,0.2578 0.8593,0.2578 0.5625,0 0.9922,-0.25 0.4297,-0.25 0.6485,-0.6719 0.1406,-0.3281 0.1406,-0.9687 l 0,-0.3438 z m 2.3594,2.8594 0,-5.7031 0.8593,0 0,0.8594 q 0.3438,-0.6094 0.625,-0.7969 0.2813,-0.1875 0.6094,-0.1875 0.5,0 1,0.3125 l -0.3281,0.8906 q -0.3594,-0.2031 -0.7188,-0.2031 -0.3125,0 -0.5625,0.1875 -0.25,0.1875 -0.3593,0.5312 -0.1563,0.5157 -0.1563,1.125 l 0,2.9844 -0.9687,0 z m 4,0 0,-5.7031 0.8593,0 0,0.8594 q 0.3438,-0.6094 0.625,-0.7969 0.2813,-0.1875 0.6094,-0.1875 0.5,0 1,0.3125 l -0.3281,0.8906 q -0.3594,-0.2031 -0.7188,-0.2031 -0.3125,0 -0.5625,0.1875 -0.25,0.1875 -0.3593,0.5312 -0.1563,0.5157 -0.1563,1.125 l 0,2.9844 -0.9687,0 z m 4.0156,-6.7656 0,-1.1094 0.9687,0 0,1.1094 -0.9687,0 z m 0,6.7656 0,-5.7031 0.9687,0 0,5.7031 -0.9687,0 z m 5.8906,-1.8437 1,0.125 q -0.2344,0.875 -0.875,1.3593 -0.6406,0.4844 -1.625,0.4844 -1.25,0 -1.9844,-0.7656 -0.7344,-0.7656 -0.7344,-2.1563 0,-1.4531 0.7422,-2.2422 0.7422,-0.789 1.9141,-0.789 1.1563,0 1.875,0.7734 0.7187,0.7735 0.7187,2.1953 0,0.0782 0,0.25 l -4.25,0 q 0.0469,0.9375 0.5235,1.4375 0.4765,0.5 1.1953,0.5 0.5312,0 0.9062,-0.2734 0.375,-0.2734 0.5938,-0.8984 z m -3.1719,-1.5625 3.1875,0 q -0.0625,-0.7188 -0.3594,-1.0782 -0.4687,-0.5468 -1.2031,-0.5468 -0.6719,0 -1.125,0.4453 -0.4531,0.4453 -0.5,1.1797 z m 1.3281,-3.5938 -0.7812,0 -1.2344,-1.5156 1.2813,0 0.7343,1.5156 z m 3.9376,7 0,-5.7031 0.8593,0 0,0.8594 q 0.3438,-0.6094 0.625,-0.7969 0.2813,-0.1875 0.6094,-0.1875 0.5,0 1,0.3125 l -0.3281,0.8906 q -0.3594,-0.2031 -0.7188,-0.2031 -0.3125,0 -0.5625,0.1875 -0.25,0.1875 -0.3593,0.5312 -0.1563,0.5157 -0.1563,1.125 l 0,2.9844 -0.9687,0 z m 7.9062,-1.8437 1,0.125 q -0.2344,0.875 -0.875,1.3593 -0.6406,0.4844 -1.625,0.4844 -1.25,0 -1.9844,-0.7656 -0.7344,-0.7656 -0.7344,-2.1563 0,-1.4531 0.7422,-2.2422 0.7422,-0.789 1.9141,-0.789 1.1563,0 1.875,0.7734 0.7187,0.7735 0.7187,2.1953 0,0.0782 0,0.25 l -4.25,0 q 0.0469,0.9375 0.5235,1.4375 0.4765,0.5 1.1953,0.5 0.5312,0 0.9062,-0.2734 0.375,-0.2734 0.5938,-0.8984 z m -3.1719,-1.5625 3.1875,0 q -0.0625,-0.7188 -0.3594,-1.0782 -0.4687,-0.5468 -1.2031,-0.5468 -0.6719,0 -1.125,0.4453 -0.4531,0.4453 -0.5,1.1797 z m 8.0469,0.875 0.9844,-0.0782 q 0.0625,0.5782 0.3203,0.961 0.2578,0.3828 0.7891,0.6172 0.5312,0.2343 1.2031,0.2343 0.6093,0 1.0625,-0.1797 0.4531,-0.1796 0.6797,-0.4843 0.2265,-0.3047 0.2265,-0.6797 0,-0.375 -0.2187,-0.6485 -0.2188,-0.2734 -0.7188,-0.4609 -0.3125,-0.125 -1.3984,-0.3828 -1.0859,-0.2578 -1.5235,-0.4922 -0.5624,-0.2969 -0.8359,-0.7344 -0.2734,-0.4375 -0.2734,-0.9843 0,-0.5938 0.3359,-1.1094 0.336,-0.5156 0.9844,-0.7891 0.6484,-0.2734 1.4453,-0.2734 0.875,0 1.5469,0.289 0.6718,0.2891 1.0312,0.836 0.3594,0.5469 0.3906,1.2344 l -1,0.0781 q -0.0781,-0.75 -0.5468,-1.1328 -0.4688,-0.3828 -1.375,-0.3828 -0.9375,0 -1.375,0.3515 -0.4375,0.3516 -0.4375,0.836 0,0.4218 0.3125,0.7031 0.2968,0.2656 1.5703,0.5547 1.2734,0.289 1.7422,0.5078 0.6875,0.3125 1.0156,0.7969 0.3281,0.4843 0.3281,1.125 0,0.625 -0.3594,1.1796 -0.3593,0.5547 -1.039,0.8672 -0.6797,0.3125 -1.5234,0.3125 -1.0626,0 -1.7813,-0.3125 -0.7187,-0.3125 -1.1328,-0.9375 -0.4141,-0.625 -0.4297,-1.4218 z m 7.1875,4.7343 -0.1094,-0.9062 q 0.3125,0.0781 0.5469,0.0781 0.3281,0 0.5234,-0.1094 0.1954,-0.1093 0.3047,-0.2968 0.0938,-0.1407 0.2969,-0.7188 0.0312,-0.0781 0.0938,-0.2344 l -2.1719,-5.7187 1.0469,0 1.1874,3.2969 q 0.2344,0.6406 0.4063,1.3281 0.1719,-0.6719 0.4063,-1.2969 l 1.2187,-3.3281 0.9687,0 -2.1718,5.7969 q -0.3438,0.9375 -0.5469,1.2968 -0.25,0.4844 -0.5859,0.7032 -0.336,0.2187 -0.7891,0.2187 -0.2813,0 -0.625,-0.1094 z m 6.0313,-2.2031 0,-5.7031 0.875,0 0,0.7969 q 0.2656,-0.4219 0.7109,-0.6719 0.4453,-0.25 1.0078,-0.25 0.6406,0 1.0469,0.2578 0.4062,0.2578 0.5781,0.7422 0.6719,-1 1.75,-1 0.8594,0 1.3125,0.4687 0.4531,0.4688 0.4531,1.4375 l 0,3.9219 -0.9531,0 0,-3.5937 q 0,-0.5782 -0.0938,-0.836 -0.0937,-0.2578 -0.3437,-0.414 -0.25,-0.1563 -0.5781,-0.1563 -0.6094,0 -1.0078,0.4063 -0.3985,0.4062 -0.3985,1.2812 l 0,3.3125 -0.9687,0 0,-3.7031 q 0,-0.6406 -0.2344,-0.9688 -0.2344,-0.3281 -0.7656,-0.3281 -0.4063,0 -0.7578,0.2188 -0.3516,0.2187 -0.5078,0.6328 -0.1563,0.414 -0.1563,1.1953 l 0,2.9531 -0.9687,0 z m 8,2.1875 0,-7.8906 0.8906,0 0,0.7344 q 0.3125,-0.4219 0.7031,-0.6407 0.3906,-0.2187 0.9531,-0.2187 0.7188,0 1.2813,0.375 0.5625,0.375 0.8437,1.0547 0.2813,0.6797 0.2813,1.5078 0,0.875 -0.3125,1.5703 -0.3125,0.6953 -0.9141,1.0703 -0.6015,0.375 -1.2578,0.375 -0.4844,0 -0.8672,-0.2031 -0.3828,-0.2031 -0.6328,-0.5156 l 0,2.7812 -0.9687,0 z m 0.875,-5 q 0,1.0938 0.4531,1.6172 0.4531,0.5234 1.0781,0.5234 0.6406,0 1.1016,-0.539 0.4609,-0.5391 0.4609,-1.6953 0,-1.0782 -0.4453,-1.625 -0.4453,-0.5469 -1.0703,-0.5469 -0.625,0 -1.1016,0.5781 -0.4765,0.5781 -0.4765,1.6875 z m 8.8593,2.1094 q -0.5469,0.4531 -1.039,0.6406 -0.4922,0.1875 -1.0703,0.1875 -0.9376,0 -1.4454,-0.4609 -0.5078,-0.461 -0.5078,-1.1641 0,-0.4219 0.1953,-0.7656 0.1953,-0.3438 0.5,-0.5547 0.3047,-0.2109 0.6953,-0.3203 0.2813,-0.0781 0.8594,-0.1406 1.1719,-0.1407 1.7188,-0.3438 0.0156,-0.1875 0.0156,-0.25 0,-0.5937 -0.2812,-0.8281 -0.3594,-0.3281 -1.0938,-0.3281 -0.6875,0 -1.0078,0.2343 -0.3203,0.2344 -0.4766,0.8438 l -0.9531,-0.125 q 0.125,-0.6094 0.4219,-0.9844 0.2968,-0.375 0.8594,-0.5703 0.5624,-0.1953 1.2968,-0.1953 0.7344,0 1.1875,0.1719 0.4531,0.1718 0.6641,0.4296 0.2109,0.2579 0.3047,0.6485 0.0469,0.25 0.0469,0.9062 l 0,1.2813 q 0,1.3437 0.0624,1.7031 0.0626,0.3594 0.25,0.6875 l -1.0156,0 q -0.1562,-0.2969 -0.1875,-0.7031 z m -0.0937,-2.1563 q -0.5156,0.2188 -1.5782,0.3594 -0.5937,0.0938 -0.8359,0.1953 -0.2422,0.1016 -0.3828,0.3125 -0.1406,0.211 -0.1406,0.461 0,0.3906 0.2969,0.6484 0.2968,0.2578 0.8593,0.2578 0.5625,0 0.9922,-0.25 0.4297,-0.25 0.6485,-0.6719 0.1406,-0.3281 0.1406,-0.9687 l 0,-0.3438 z m 6.0937,0.7657 0.9375,0.125 q -0.1406,0.9843 -0.789,1.539 -0.6485,0.5547 -1.5704,0.5547 -1.1718,0 -1.8828,-0.7656 -0.7109,-0.7656 -0.7109,-2.1875 0,-0.9219 0.3047,-1.6172 0.3047,-0.6953 0.9297,-1.0391 0.625,-0.3437 1.3593,-0.3437 0.9219,0 1.5157,0.4687 0.5937,0.4688 0.7656,1.3282 l -0.9531,0.1406 q -0.125,-0.5625 -0.4688,-0.8516 -0.3437,-0.289 -0.8281,-0.289 -0.7187,0 -1.1797,0.5234 -0.4609,0.5234 -0.4609,1.6484 0,1.1563 0.4375,1.6719 0.4375,0.5156 1.1562,0.5156 0.5625,0 0.9453,-0.3437 0.3829,-0.3438 0.4922,-1.0781 z m 4.3907,1.2343 0.125,0.8438 q -0.4063,0.0937 -0.7188,0.0937 -0.5312,0 -0.8203,-0.1718 -0.2891,-0.1719 -0.4063,-0.4375 -0.1172,-0.2657 -0.1172,-1.1407 l 0,-3.2812 -0.7187,0 0,-0.75 0.7187,0 0,-1.4063 0.9532,-0.5937 0,2 0.9844,0 0,0.75 -0.9844,0 0,3.3437 q 0,0.4063 0.0547,0.5235 0.0547,0.1172 0.1718,0.1875 0.1172,0.0703 0.3203,0.0703 0.1719,0 0.4376,-0.0313 z" />
    <path
       style="fill:#000000;stroke:none"
       inkscape:connector-curvature="0"
       id="path9774"
       clip-path="url(#clipPath1)"
       d="m 40.75,20.6853 0,-10.0625 2.125,0 0,0.7969 -1.1562,0 0,8.4687 1.1562,0 0,0.7969 -2.125,0 z m 2.75,-4.7187 0.9844,-0.0782 q 0.0625,0.5782 0.3203,0.961 0.2578,0.3828 0.7891,0.6172 0.5312,0.2343 1.2031,0.2343 0.6093,0 1.0625,-0.1797 0.4531,-0.1796 0.6797,-0.4843 0.2265,-0.3047 0.2265,-0.6797 0,-0.375 -0.2187,-0.6485 -0.2188,-0.2734 -0.7188,-0.4609 -0.3125,-0.125 -1.3984,-0.3828 -1.0859,-0.2578 -1.5235,-0.4922 -0.5624,-0.2969 -0.8359,-0.7344 -0.2734,-0.4375 -0.2734,-0.9843 0,-0.5938 0.3359,-1.1094 0.336,-0.5156 0.9844,-0.7891 0.6484,-0.2734 1.4453,-0.2734 0.875,0 1.5469,0.289 0.6718,0.2891 1.0312,0.836 0.3594,0.5469 0.3906,1.2344 l -1,0.0781 q -0.0781,-0.75 -0.5468,-1.1328 -0.4688,-0.3828 -1.375,-0.3828 -0.9375,0 -1.375,0.3515 -0.4375,0.3516 -0.4375,0.836 0,0.4218 0.3125,0.7031 0.2968,0.2656 1.5703,0.5547 1.2734,0.289 1.7422,0.5078 0.6875,0.3125 1.0156,0.7969 0.3281,0.4843 0.3281,1.125 0,0.625 -0.3594,1.1796 -0.3593,0.5547 -1.039,0.8672 -0.6797,0.3125 -1.5234,0.3125 -1.0626,0 -1.7813,-0.3125 -0.7187,-0.3125 -1.1328,-0.9375 -0.4141,-0.625 -0.4297,-1.4218 z m 7.1875,4.7343 -0.1094,-0.9062 q 0.3125,0.0781 0.5469,0.0781 0.3281,0 0.5234,-0.1094 0.1954,-0.1093 0.3047,-0.2968 0.0938,-0.1407 0.2969,-0.7188 0.0312,-0.0781 0.0938,-0.2344 l -2.1719,-5.7187 1.0469,0 1.1874,3.2969 q 0.2344,0.6406 0.4063,1.3281 0.1719,-0.6719 0.4063,-1.2969 l 1.2187,-3.3281 0.9687,0 -2.1718,5.7969 q -0.3438,0.9375 -0.5469,1.2968 -0.25,0.4844 -0.5859,0.7032 -0.336,0.2187 -0.7891,0.2187 -0.2813,0 -0.625,-0.1094 z m 5.6563,-3.9062 0.9531,-0.1563 q 0.0781,0.5782 0.4453,0.8828 0.3672,0.3047 1.0234,0.3047 0.6719,0 0.9922,-0.2656 0.3203,-0.2656 0.3203,-0.6406 0,-0.3281 -0.2812,-0.5156 -0.2031,-0.125 -0.9844,-0.3282 Q 57.75,15.8103 57.3359,15.615 56.9219,15.4197 56.7109,15.0759 56.5,14.7322 56.5,14.3103 q 0,-0.3906 0.1719,-0.7109 0.1719,-0.3203 0.4843,-0.5391 0.2188,-0.1719 0.6094,-0.2812 0.3906,-0.1094 0.8282,-0.1094 0.6718,0 1.1796,0.1875 0.5078,0.1875 0.75,0.5234 0.2422,0.336 0.336,0.8828 l -0.9375,0.125 q -0.0781,-0.4375 -0.3828,-0.6797 -0.3047,-0.2421 -0.8672,-0.2421 -0.6719,0 -0.9531,0.2187 -0.2813,0.2188 -0.2813,0.5156 0,0.1875 0.1094,0.3282 0.125,0.1562 0.375,0.2656 0.1406,0.0469 0.8593,0.25 1.0157,0.2656 1.4219,0.4375 0.4063,0.1719 0.6407,0.5078 0.2343,0.3359 0.2343,0.8359 0,0.4844 -0.2812,0.9063 -0.2813,0.4219 -0.8125,0.6562 -0.5313,0.2344 -1.2032,0.2344 -1.1093,0 -1.6953,-0.4609 -0.5859,-0.461 -0.7421,-1.3672 z m 8.5,0.8437 0.125,0.8438 q -0.4063,0.0937 -0.7188,0.0937 -0.5312,0 -0.8203,-0.1718 -0.2891,-0.1719 -0.4063,-0.4375 -0.1172,-0.2657 -0.1172,-1.1407 l 0,-3.2812 -0.7187,0 0,-0.75 0.7187,0 0,-1.4063 0.9532,-0.5937 0,2 0.9844,0 0,0.75 -0.9844,0 0,3.3437 q 0,0.4063 0.0547,0.5235 0.0547,0.1172 0.1718,0.1875 0.1172,0.0703 0.3203,0.0703 0.1719,0 0.4376,-0.0313 z m 4.7812,-0.9843 1,0.125 q -0.2344,0.875 -0.875,1.3593 -0.6406,0.4844 -1.625,0.4844 -1.25,0 -1.9844,-0.7656 -0.7344,-0.7656 -0.7344,-2.1563 0,-1.4531 0.7422,-2.2422 0.7422,-0.789 1.9141,-0.789 1.1563,0 1.875,0.7734 0.7187,0.7735 0.7187,2.1953 0,0.0782 0,0.25 l -4.25,0 q 0.0469,0.9375 0.5235,1.4375 0.4765,0.5 1.1953,0.5 0.5312,0 0.9062,-0.2734 0.375,-0.2734 0.5938,-0.8984 z m -3.1719,-1.5625 3.1875,0 q -0.0625,-0.7188 -0.3594,-1.0782 -0.4687,-0.5468 -1.2031,-0.5468 -0.6719,0 -1.125,0.4453 -0.4531,0.4453 -0.5,1.1797 z m 5.2657,3.4062 0,-5.7031 0.875,0 0,0.7969 q 0.2656,-0.4219 0.7109,-0.6719 0.4453,-0.25 1.0078,-0.25 0.6406,0 1.0469,0.2578 0.4062,0.2578 0.5781,0.7422 0.6719,-1 1.75,-1 0.8594,0 1.3125,0.4687 0.4531,0.4688 0.4531,1.4375 l 0,3.9219 -0.9531,0 0,-3.5937 q 0,-0.5782 -0.0938,-0.836 -0.0937,-0.2578 -0.3437,-0.414 -0.25,-0.1563 -0.5781,-0.1563 -0.6094,0 -1.0078,0.4063 -0.3985,0.4062 -0.3985,1.2812 l 0,3.3125 -0.9687,0 0,-3.7031 q 0,-0.6406 -0.2344,-0.9688 -0.2344,-0.3281 -0.7656,-0.3281 -0.4063,0 -0.7578,0.2188 -0.3516,0.2187 -0.5078,0.6328 -0.1563,0.414 -0.1563,1.1953 l 0,2.9531 -0.9687,0 z m 9.625,2.1875 -2.1407,0 0,-0.7969 1.1719,0 0,-8.4687 -1.1719,0 0,-0.7969 2.1407,0 0,10.0625 z" />
    <path
       style="fill:#000000;stroke:none"
       inkscape:connector-curvature="0"
       id="path9776"
       clip-path="url(#clipPath1)"
       d="m 19.7969,12.0134 0,-1.3906 1.5,0 0,1.3906 -1.5,0 z m 0,6.4844 0,-5.7031 1.5,0 0,5.7031 -1.5,0 z m 2.9219,0 0,-7.875 1.5156,0 0,2.8438 q 0.7031,-0.7969 1.6562,-0.7969 1.0469,0 1.7266,0.75 0.6797,0.75 0.6797,2.1719 0,1.4531 -0.6953,2.2421 -0.6954,0.7891 -1.6954,0.7891 -0.4843,0 -0.9609,-0.2422 -0.4765,-0.2422 -0.8203,-0.7265 l 0,0.8437 -1.4062,0 z m 1.5,-2.9687 q 0,0.875 0.2812,1.2968 0.3906,0.6094 1.0469,0.6094 0.5,0 0.8515,-0.4297 0.3516,-0.4297 0.3516,-1.3515 0,-0.9688 -0.3516,-1.3985 -0.3515,-0.4297 -0.914,-0.4297 -0.5469,0 -0.9063,0.4219 -0.3593,0.4219 -0.3593,1.2813 z m 10.7968,2.9687 -1.3906,0 0,-0.8437 q -0.3594,0.5 -0.8359,0.7343 -0.4766,0.2344 -0.9453,0.2344 -0.9844,0 -1.6876,-0.7891 -0.7031,-0.789 -0.7031,-2.2109 0,-1.4531 0.6797,-2.2031 0.6797,-0.75 1.7266,-0.75 0.9531,0 1.6562,0.7969 l 0,-2.8438 1.5,0 0,7.875 z M 31,15.5291 q 0,0.9062 0.25,1.3125 0.3594,0.5937 1.0156,0.5937 0.5156,0 0.8828,-0.4453 0.3672,-0.4453 0.3672,-1.3203 0,-0.9844 -0.3515,-1.4141 -0.3516,-0.4297 -0.9141,-0.4297 -0.5312,0 -0.8906,0.4219 Q 31,14.6697 31,15.5291 z" />
    <path
       style="fill:#000000;stroke:none"
       inkscape:connector-curvature="0"
       id="path9778"
       clip-path="url(#clipPath1)"
       d="m 180.0312,18.4978 0,-7.875 1.0313,0 0,7.875 -1.0313,0 z m 1.7813,0 0,-7.875 2.9531,0 q 0.8906,0 1.4375,0.2422 0.5469,0.2422 0.8594,0.7344 0.3125,0.4922 0.3125,1.039 0,0.5 -0.2734,0.9453 -0.2735,0.4454 -0.836,0.7266 0.7188,0.2031 1.1016,0.7109 0.3828,0.5079 0.3828,1.1954 0,0.5468 -0.2344,1.0234 -0.2344,0.4766 -0.5781,0.7344 -0.3437,0.2578 -0.8594,0.3906 -0.5156,0.1328 -1.2656,0.1328 l -3,0 z m 1.0313,-4.5625 1.7031,0 q 0.7031,0 1,-0.0937 0.3906,-0.125 0.5937,-0.3985 0.2032,-0.2734 0.2032,-0.6797 0,-0.3906 -0.1876,-0.6875 -0.1874,-0.2968 -0.539,-0.4062 -0.3516,-0.1094 -1.1953,-0.1094 l -1.5781,0 0,2.375 z m 0,3.6406 1.9687,0 q 0.5,0 0.7031,-0.0468 0.3594,-0.0625 0.6016,-0.211 0.2422,-0.1484 0.3984,-0.4375 0.1563,-0.289 0.1563,-0.664 0,-0.4375 -0.2266,-0.7657 -0.2265,-0.3281 -0.625,-0.4609 -0.3984,-0.1328 -1.1484,-0.1328 l -1.8281,0 0,2.7187 z m 6,0.9219 0,-7.875 2.7187,0 q 0.9219,0 1.4063,0.1094 0.6718,0.1562 1.1562,0.5625 0.6094,0.5312 0.9219,1.3515 0.3125,0.8204 0.3125,1.8672 0,0.9063 -0.211,1.5938 -0.2109,0.6875 -0.539,1.1406 -0.3282,0.4531 -0.7188,0.7188 -0.3906,0.2656 -0.9375,0.3984 -0.5469,0.1328 -1.2656,0.1328 l -2.8437,0 z m 1.0468,-0.9219 1.6875,0 q 0.7657,0 1.211,-0.1484 0.4453,-0.1484 0.7109,-0.4141 0.375,-0.375 0.5781,-1 0.2031,-0.625 0.2031,-1.5156 0,-1.2344 -0.4062,-1.8984 -0.4062,-0.6641 -0.9844,-0.8828 -0.4218,-0.1563 -1.3437,-0.1563 l -1.6563,0 0,6.0156 z" />
    <path
       style="fill:#000000;stroke:none"
       inkscape:connector-curvature="0"
       id="path9780"
       clip-path="url(#clipPath1)"
       d="m 172.75,20.6853 0,-10.0625 2.125,0 0,0.7969 -1.1562,0 0,8.4687 1.1562,0 0,0.7969 -2.125,0 z" />
    <path
       style="fill:#000000;stroke:none"
       inkscape:connector-curvature="0"
       id="path9782"
       clip-path="url(#clipPath1)"
       d="m 201.3438,20.6853 -2.1407,0 0,-0.7969 1.1719,0 0,-8.4687 -1.1719,0 0,-0.7969 2.1407,0 0,10.0625 z" />
    <line
       style="fill:none"
       id="line9784"
       y1="23"
       x2="197"
       clip-path="url(#clipPath1)"
       x1="12"
       y2="23" />
    <line
       style="fill:none"
       id="line9786"
       y1="5"
       x2="206"
       clip-path="url(#clipPath1)"
       x1="206"
       y2="17" />
    <line
       style="fill:none"
       id="line9788"
       y1="23"
       x2="206"
       clip-path="url(#clipPath1)"
       x1="197"
       y2="17" />
    <rect
       style="fill:url(#linearGradient10083);stroke:none"
       id="rect9790"
       height="15"
       width="15"
       clip-path="url(#clipPath1)"
       y="147"
       x="5" />
    <rect
       style="fill:none;stroke:#5c9967"
       id="rect9792"
       height="15"
       width="15"
       clip-path="url(#clipPath1)"
       y="147"
       x="5" />
    <rect
       style="fill:url(#linearGradient10085);stroke:none"
       id="rect9794"
       height="15"
       width="15"
       clip-path="url(#clipPath1)"
       y="324"
       x="5" />
    <rect
       style="fill:none;stroke:#5c9967"
       id="rect9796"
       height="15"
       width="15"
       clip-path="url(#clipPath1)"
       y="324"
       x="5" />
    <line
       style="fill:none;stroke:#5c9967"
       id="line9798"
       y2="331"
       y1="331"
       x2="18"
       x1="7"
       clip-path="url(#clipPath1)" />
    <path
       style="fill:none;stroke:#5c9967"
       inkscape:connector-curvature="0"
       id="path9800"
       clip-path="url(#clipPath1)"
       d="m 14,329 4,2 -4,2" />
    <rect
       style="fill:url(#linearGradient10087);stroke:none"
       id="rect9802"
       height="15"
       width="15"
       clip-path="url(#clipPath1)"
       y="115"
       x="5" />
    <rect
       style="fill:none;stroke:#5c9967"
       id="rect9804"
       height="15"
       width="15"
       clip-path="url(#clipPath1)"
       y="115"
       x="5" />
    <line
       style="fill:none;stroke:#5c9967"
       id="line9806"
       y2="122"
       y1="122"
       x2="11"
       x1="7"
       clip-path="url(#clipPath1)" />
    <line
       style="fill:none;stroke:#5c9967"
       id="line9808"
       y2="122"
       y1="122"
       x2="13"
       x1="18"
       clip-path="url(#clipPath1)" />
    <path
       style="fill:none;stroke:#5c9967"
       inkscape:connector-curvature="0"
       id="path9810"
       clip-path="url(#clipPath1)"
       d="m 11,124 -4,-2 4,-2" />
    <path
       style="fill:none;stroke:#5c9967"
       inkscape:connector-curvature="0"
       id="path9812"
       clip-path="url(#clipPath1)"
       d="m 14,120 4,2 -4,2" />
    <rect
       style="fill:url(#linearGradient10089);stroke:none"
       id="rect9814"
       height="15"
       width="15"
       clip-path="url(#clipPath1)"
       y="323"
       x="937" />
    <rect
       style="fill:none;stroke:#5c9967"
       id="rect9816"
       height="15"
       width="15"
       clip-path="url(#clipPath1)"
       y="323"
       x="937" />
    <line
       style="fill:none;stroke:#5c9967"
       id="line9818"
       y2="330"
       y1="330"
       x2="950"
       x1="939"
       clip-path="url(#clipPath1)" />
    <path
       style="fill:none;stroke:#5c9967"
       inkscape:connector-curvature="0"
       id="path9820"
       clip-path="url(#clipPath1)"
       d="m 946,328 4,2 -4,2" />
    <rect
       style="fill:#b2b2b2;stroke:none"
       id="rect9822"
       height="140"
       width="154"
       clip-path="url(#clipPath1)"
       y="269"
       x="80" />
    <rect
       style="fill:url(#linearGradient10091);stroke:none"
       id="rect9824"
       height="140"
       width="154"
       clip-path="url(#clipPath1)"
       y="266"
       x="77" />
    <rect
       style="fill:none;stroke:#998d5c"
       id="rect9826"
       height="140"
       width="154"
       clip-path="url(#clipPath1)"
       y="266"
       x="77" />
    <path
       style="fill:#000000;stroke:none"
       inkscape:connector-curvature="0"
       id="path9828"
       clip-path="url(#clipPath1)"
       d="m 89.0781,275.3103 0,-1.5156 1.5157,0 0,1.5156 -1.5157,0 z m 0,4.1875 0,-1.5156 1.5157,0 0,1.5156 -1.5157,0 z m 7.7344,0 -2.8125,-7.875 1.7188,0 2,5.8281 1.9218,-5.8281 1.6875,0 -2.8281,7.875 -1.6875,0 z m 7.1094,-3.9687 -1.375,-0.25 q 0.2343,-0.8125 0.7969,-1.211 0.5624,-0.3984 1.6718,-0.3984 1.0156,0 1.5078,0.2344 0.4922,0.2343 0.6954,0.6015 0.2031,0.3672 0.2031,1.3516 l -0.0157,1.7656 q 0,0.75 0.0704,1.1094 0.0703,0.3594 0.2734,0.7656 l -1.5,0 q -0.0625,-0.1562 -0.1406,-0.4531 -0.0313,-0.125 -0.0469,-0.1719 -0.3906,0.375 -0.8359,0.5625 -0.4454,0.1875 -0.9454,0.1875 -0.875,0 -1.3828,-0.4766 -0.5078,-0.4765 -0.5078,-1.2109 0,-0.4844 0.2344,-0.8594 0.2344,-0.375 0.6484,-0.5781 0.4141,-0.2031 1.1954,-0.3594 1.0624,-0.1875 1.4687,-0.3593 l 0,-0.1563 q 0,-0.4375 -0.2187,-0.6172 -0.2188,-0.1797 -0.8126,-0.1797 -0.3906,0 -0.6171,0.1563 -0.2266,0.1562 -0.3672,0.5469 z m 2.0156,1.2343 q -0.2969,0.0938 -0.9219,0.2266 -0.625,0.1328 -0.8125,0.2578 -0.2969,0.2188 -0.2969,0.5313 0,0.3281 0.2344,0.5546 0.2344,0.2266 0.5938,0.2266 0.4062,0 0.7812,-0.2656 0.2813,-0.2031 0.3594,-0.5 0.0625,-0.1875 0.0625,-0.7344 l 0,-0.2969 z m 4.2969,2.7344 -1.5156,0 0,-5.7031 1.4062,0 0,0.8125 q 0.3594,-0.5781 0.6484,-0.7578 0.2891,-0.1797 0.6485,-0.1797 0.5156,0 1,0.2812 l -0.4688,1.3125 q -0.375,-0.25 -0.7031,-0.25 -0.3281,0 -0.5469,0.1797 -0.2187,0.1797 -0.3437,0.6328 -0.125,0.4532 -0.125,1.9063 l 0,1.7656 z m 3.5625,-6.4844 0,-1.3906 1.5,0 0,1.3906 -1.5,0 z m 0,6.4844 0,-5.7031 1.5,0 0,5.7031 -1.5,0 z m 4.125,-3.9687 -1.375,-0.25 q 0.2343,-0.8125 0.7969,-1.211 0.5624,-0.3984 1.6718,-0.3984 1.0156,0 1.5078,0.2344 0.4922,0.2343 0.6954,0.6015 0.2031,0.3672 0.2031,1.3516 l -0.0157,1.7656 q 0,0.75 0.0704,1.1094 0.0703,0.3594 0.2734,0.7656 l -1.5,0 q -0.0625,-0.1562 -0.1406,-0.4531 -0.0313,-0.125 -0.0469,-0.1719 -0.3906,0.375 -0.8359,0.5625 -0.4454,0.1875 -0.9454,0.1875 -0.875,0 -1.3828,-0.4766 -0.5078,-0.4765 -0.5078,-1.2109 0,-0.4844 0.2344,-0.8594 0.2344,-0.375 0.6484,-0.5781 0.4141,-0.2031 1.1954,-0.3594 1.0624,-0.1875 1.4687,-0.3593 l 0,-0.1563 q 0,-0.4375 -0.2187,-0.6172 -0.2188,-0.1797 -0.8126,-0.1797 -0.3906,0 -0.6171,0.1563 -0.2266,0.1562 -0.3672,0.5469 z m 2.0156,1.2343 q -0.2969,0.0938 -0.9219,0.2266 -0.625,0.1328 -0.8125,0.2578 -0.2969,0.2188 -0.2969,0.5313 0,0.3281 0.2344,0.5546 0.2344,0.2266 0.5938,0.2266 0.4062,0 0.7812,-0.2656 0.2813,-0.2031 0.3594,-0.5 0.0625,-0.1875 0.0625,-0.7344 l 0,-0.2969 z m 5.4687,-2.9687 0,1.2031 -1.0312,0 0,2.2969 q 0,0.7031 0.0312,0.8203 0.0313,0.1172 0.1329,0.1875 0.1015,0.0703 0.2578,0.0703 0.2031,0 0.6093,-0.1406 l 0.125,1.1719 q -0.5312,0.2187 -1.1874,0.2187 -0.4219,0 -0.75,-0.1328 -0.3282,-0.1328 -0.4766,-0.3516 -0.1484,-0.2187 -0.211,-0.5937 -0.0468,-0.2656 -0.0468,-1.0625 l 0,-2.4844 -0.6875,0 0,-1.2031 0.6875,0 0,-1.1406 1.5156,-0.875 0,2.0156 1.0312,0 z m 4.6876,3.8906 1.5,0.25 q -0.2813,0.8281 -0.9063,1.2578 -0.625,0.4297 -1.5781,0.4297 -1.4844,0 -2.2032,-0.9687 -0.5624,-0.7813 -0.5624,-1.9688 0,-1.4219 0.7421,-2.2187 0.7422,-0.7969 1.8829,-0.7969 1.2656,0 2,0.8359 0.7343,0.836 0.7031,2.5703 l -3.7813,0 q 0.0156,0.6719 0.3672,1.0469 0.3516,0.375 0.8672,0.375 0.3594,0 0.6016,-0.1953 0.2422,-0.1953 0.3672,-0.6172 z m 0.0781,-1.5312 q -0.0157,-0.6563 -0.336,-0.9922 -0.3203,-0.336 -0.7734,-0.336 -0.5,0 -0.8281,0.3594 -0.3125,0.3594 -0.3125,0.9688 l 2.25,0 z m 7.375,3.3437 0,-0.8594 q -0.3125,0.4688 -0.8203,0.7266 -0.5078,0.2578 -1.0704,0.2578 -0.5781,0 -1.0312,-0.25 -0.4531,-0.25 -0.6641,-0.7109 -0.2109,-0.461 -0.2109,-1.2578 l 0,-3.6094 1.5156,0 0,2.625 q 0,1.2031 0.086,1.4687 0.0859,0.2657 0.3046,0.4297 0.2188,0.1641 0.5626,0.1641 0.375,0 0.6874,-0.211 0.3126,-0.2109 0.4219,-0.5312 0.1094,-0.3203 0.1094,-1.5391 l 0,-2.4062 1.5156,0 0,5.7031 -1.4062,0 z m 4.6875,0 -1.5156,0 0,-5.7031 1.4062,0 0,0.8125 q 0.3594,-0.5781 0.6484,-0.7578 0.2891,-0.1797 0.6485,-0.1797 0.5156,0 1,0.2812 l -0.4688,1.3125 q -0.375,-0.25 -0.7031,-0.25 -0.3281,0 -0.5469,0.1797 -0.2187,0.1797 -0.3437,0.6328 -0.125,0.4532 -0.125,1.9063 l 0,1.7656 z m 11.7812,0 -1.3906,0 0,-0.8437 q -0.3594,0.5 -0.8359,0.7343 -0.4766,0.2344 -0.9453,0.2344 -0.9844,0 -1.6876,-0.7891 -0.7031,-0.789 -0.7031,-2.2109 0,-1.4531 0.6797,-2.2031 0.6797,-0.75 1.7266,-0.75 0.9531,0 1.6562,0.7969 l 0,-2.8438 1.5,0 0,7.875 z M 150,276.5291 q 0,0.9062 0.25,1.3125 0.3594,0.5937 1.0156,0.5937 0.5156,0 0.8828,-0.4453 0.3672,-0.4453 0.3672,-1.3203 0,-0.9844 -0.3515,-1.4141 -0.3516,-0.4297 -0.9141,-0.4297 -0.5312,0 -0.8906,0.4219 Q 150,275.6697 150,276.5291 z m 9.0938,1.1562 1.5,0.25 q -0.2813,0.8281 -0.9063,1.2578 -0.625,0.4297 -1.5781,0.4297 -1.4844,0 -2.2032,-0.9687 -0.5624,-0.7813 -0.5624,-1.9688 0,-1.4219 0.7421,-2.2187 0.7422,-0.7969 1.8829,-0.7969 1.2656,0 2,0.8359 0.7343,0.836 0.7031,2.5703 l -3.7813,0 q 0.0156,0.6719 0.3672,1.0469 0.3516,0.375 0.8672,0.375 0.3594,0 0.6016,-0.1953 0.2422,-0.1953 0.3672,-0.6172 z m 0.0781,-1.5312 q -0.0157,-0.6563 -0.336,-0.9922 -0.3203,-0.336 -0.7734,-0.336 -0.5,0 -0.8281,0.3594 -0.3125,0.3594 -0.3125,0.9688 l 2.25,0 z m 5.9531,-2.3594 0.8438,0 0,-0.4375 q 0,-0.7188 0.1484,-1.0703 0.1484,-0.3516 0.5625,-0.5782 0.4141,-0.2265 1.0391,-0.2265 0.6562,0 1.2656,0.2031 l -0.2032,1.0469 q -0.3593,-0.0781 -0.6874,-0.0781 -0.3282,0 -0.4766,0.1484 -0.1484,0.1484 -0.1484,0.5859 l 0,0.4063 1.1406,0 0,1.1875 -1.1406,0 0,4.5156 -1.5,0 0,-4.5156 -0.8438,0 0,-1.1875 z m 6.1094,5.7031 -1.5156,0 0,-5.7031 1.4062,0 0,0.8125 q 0.3594,-0.5781 0.6484,-0.7578 0.2891,-0.1797 0.6485,-0.1797 0.5156,0 1,0.2812 l -0.4688,1.3125 q -0.375,-0.25 -0.7031,-0.25 -0.3281,0 -0.5469,0.1797 -0.2187,0.1797 -0.3437,0.6328 -0.125,0.4532 -0.125,1.9063 l 0,1.7656 z m 6.8594,-1.8125 1.5,0.25 q -0.2813,0.8281 -0.9063,1.2578 -0.625,0.4297 -1.5781,0.4297 -1.4844,0 -2.2032,-0.9687 -0.5624,-0.7813 -0.5624,-1.9688 0,-1.4219 0.7421,-2.2187 0.7422,-0.7969 1.8829,-0.7969 1.2656,0 2,0.8359 0.7343,0.836 0.7031,2.5703 l -3.7813,0 q 0.0156,0.6719 0.3672,1.0469 0.3516,0.375 0.8672,0.375 0.3594,0 0.6016,-0.1953 0.2422,-0.1953 0.3672,-0.6172 z m 0.0781,-1.5312 q -0.0157,-0.6563 -0.336,-0.9922 -0.3203,-0.336 -0.7734,-0.336 -0.5,0 -0.8281,0.3594 -0.3125,0.3594 -0.3125,0.9688 l 2.25,0 z m -2.125,-3.6563 0.75,-1.6094 1.6875,0 -1.4844,1.6094 -0.9531,0 z m 9.4687,9.1719 0,-2.875 q -0.2968,0.3906 -0.7344,0.6094 -0.4374,0.2187 -0.9531,0.2187 -0.9687,0 -1.5937,-0.7344 -0.75,-0.8437 -0.75,-2.3125 0,-1.375 0.6953,-2.1406 0.6953,-0.7656 1.7265,-0.7656 0.5782,0 0.9922,0.2422 0.4141,0.2422 0.7422,0.7265 l 0,-0.8437 1.3906,0 0,7.875 -1.5156,0 z m 0.0469,-5.0938 q 0,-0.875 -0.3594,-1.3047 -0.3593,-0.4296 -0.8906,-0.4296 -0.5469,0 -0.9141,0.4375 -0.3672,0.4375 -0.3672,1.375 0,0.9531 0.3516,1.3671 0.3516,0.4141 0.8828,0.4141 0.5156,0 0.9063,-0.4687 0.3906,-0.4688 0.3906,-1.3907 z m 6.9844,2.9219 0,-0.8594 q -0.3125,0.4688 -0.8203,0.7266 -0.5078,0.2578 -1.0704,0.2578 -0.5781,0 -1.0312,-0.25 -0.4531,-0.25 -0.6641,-0.7109 -0.2109,-0.461 -0.2109,-1.2578 l 0,-3.6094 1.5156,0 0,2.625 q 0,1.2031 0.086,1.4687 0.0859,0.2657 0.3046,0.4297 0.2188,0.1641 0.5626,0.1641 0.375,0 0.6874,-0.211 0.3126,-0.2109 0.4219,-0.5312 0.1094,-0.3203 0.1094,-1.5391 l 0,-2.4062 1.5156,0 0,5.7031 -1.4062,0 z m 6.5469,-1.8125 1.5,0.25 q -0.2813,0.8281 -0.9063,1.2578 -0.625,0.4297 -1.5781,0.4297 -1.4844,0 -2.2032,-0.9687 -0.5624,-0.7813 -0.5624,-1.9688 0,-1.4219 0.7421,-2.2187 0.7422,-0.7969 1.8829,-0.7969 1.2656,0 2,0.8359 0.7343,0.836 0.7031,2.5703 l -3.7813,0 q 0.0156,0.6719 0.3672,1.0469 0.3516,0.375 0.8672,0.375 0.3594,0 0.6016,-0.1953 0.2422,-0.1953 0.3672,-0.6172 z m 0.0781,-1.5312 q -0.0157,-0.6563 -0.336,-0.9922 -0.3203,-0.336 -0.7734,-0.336 -0.5,0 -0.8281,0.3594 -0.3125,0.3594 -0.3125,0.9688 l 2.25,0 z m 8.8125,3.3437 -1.5156,0 0,-2.9062 q 0,-0.9219 -0.0938,-1.1954 -0.0938,-0.2734 -0.3125,-0.4218 -0.2187,-0.1485 -0.5313,-0.1485 -0.3906,0 -0.7031,0.211 -0.3125,0.2109 -0.4297,0.5625 -0.1172,0.3515 -0.1172,1.3203 l 0,2.5781 -1.5,0 0,-5.7031 1.4063,0 0,0.8437 q 0.7344,-0.9687 1.875,-0.9687 0.5,0 0.9141,0.1797 0.414,0.1797 0.625,0.4531 0.2109,0.2734 0.2968,0.6328 0.086,0.3594 0.086,1.0156 l 0,3.5469 z m 6.7812,-4.0156 -1.4844,0.2656 q -0.0781,-0.4375 -0.3437,-0.6641 -0.2656,-0.2265 -0.6875,-0.2265 -0.5625,0 -0.8984,0.3828 -0.336,0.3828 -0.336,1.3047 0,1.0156 0.336,1.4375 0.3359,0.4219 0.914,0.4219 0.4375,0 0.711,-0.25 0.2734,-0.25 0.3828,-0.8438 l 1.4844,0.25 q -0.2344,1.0313 -0.8907,1.5469 -0.6562,0.5156 -1.75,0.5156 -1.2656,0 -2.0078,-0.7891 -0.7422,-0.789 -0.7422,-2.1796 0,-1.4219 0.75,-2.2032 0.75,-0.7812 2.0157,-0.7812 1.0468,0 1.664,0.4453 0.6172,0.4453 0.8828,1.3672 z m 4.3282,2.2031 1.5,0.25 q -0.2813,0.8281 -0.9063,1.2578 -0.625,0.4297 -1.5781,0.4297 -1.4844,0 -2.2032,-0.9687 -0.5624,-0.7813 -0.5624,-1.9688 0,-1.4219 0.7421,-2.2187 0.7422,-0.7969 1.8829,-0.7969 1.2656,0 2,0.8359 0.7343,0.836 0.7031,2.5703 l -3.7813,0 q 0.0156,0.6719 0.3672,1.0469 0.3516,0.375 0.8672,0.375 0.3594,0 0.6016,-0.1953 0.2422,-0.1953 0.3672,-0.6172 z m 0.0781,-1.5312 q -0.0157,-0.6563 -0.336,-0.9922 -0.3203,-0.336 -0.7734,-0.336 -0.5,0 -0.8281,0.3594 -0.3125,0.3594 -0.3125,0.9688 l 2.25,0 z" />
    <rect
       style="fill:url(#linearGradient10093);stroke:none"
       id="rect9830"
       height="15"
       width="15"
       clip-path="url(#clipPath1)"
       y="329"
       x="223" />
    <rect
       style="fill:none;stroke:#5c9967"
       id="rect9832"
       height="15"
       width="15"
       clip-path="url(#clipPath1)"
       y="329"
       x="223" />
    <line
       style="fill:none;stroke:#5c9967"
       id="line9834"
       y2="336"
       y1="336"
       x2="236"
       x1="225"
       clip-path="url(#clipPath1)" />
    <path
       style="fill:none;stroke:#5c9967"
       inkscape:connector-curvature="0"
       id="path9836"
       clip-path="url(#clipPath1)"
       d="m 232,334 4,2 -4,2" />
    <rect
       style="fill:url(#linearGradient10095);stroke:none"
       id="rect9838"
       height="15"
       width="15"
       clip-path="url(#clipPath1)"
       y="329"
       x="70" />
    <rect
       style="fill:none;stroke:#5c9967"
       id="rect9840"
       height="15"
       width="15"
       clip-path="url(#clipPath1)"
       y="329"
       x="70" />
    <line
       style="fill:none;stroke:#5c9967"
       id="line9842"
       y2="336"
       y1="336"
       x2="83"
       x1="72"
       clip-path="url(#clipPath1)" />
    <path
       style="fill:none;stroke:#5c9967"
       inkscape:connector-curvature="0"
       id="path9844"
       clip-path="url(#clipPath1)"
       d="m 79,334 4,2 -4,2" />
    <rect
       style="fill:url(#linearGradient10097);stroke:none"
       id="rect9846"
       height="15"
       width="15"
       clip-path="url(#clipPath1)"
       y="329"
       x="70" />
    <rect
       style="fill:none;stroke:#5c9967"
       id="rect9848"
       height="15"
       width="15"
       clip-path="url(#clipPath1)"
       y="329"
       x="70" />
    <rect
       style="fill:#b2b2b2;stroke:none"
       id="rect9850"
       height="71"
       width="130"
       clip-path="url(#clipPath1)"
       y="304"
       x="318" />
    <rect
       style="fill:url(#linearGradient10099);stroke:none"
       id="rect9852"
       height="71"
       width="130"
       clip-path="url(#clipPath1)"
       y="301"
       x="315" />
    <rect
       style="fill:none;stroke:#998d5c"
       id="rect9854"
       height="71"
       width="130"
       clip-path="url(#clipPath1)"
       y="301"
       x="315" />
    <path
       style="fill:#000000;stroke:none"
       inkscape:connector-curvature="0"
       id="path9856"
       clip-path="url(#clipPath1)"
       d="m 325.0781,310.3103 0,-1.5156 1.5157,0 0,1.5156 -1.5157,0 z m 0,4.1875 0,-1.5156 1.5157,0 0,1.5156 -1.5157,0 z m 5.7031,0 0,-7.875 2.375,0 1.4376,5.375 1.4062,-5.375 2.3906,0 0,7.875 -1.4844,0 0,-6.2031 -1.5624,6.2031 -1.5313,0 -1.5625,-6.2031 0,6.2031 -1.4688,0 z m 9.6563,-2.9375 q 0,-0.75 0.375,-1.4531 0.375,-0.7031 1.0547,-1.0703 0.6797,-0.3672 1.5078,-0.3672 1.2969,0 2.125,0.8359 0.8281,0.836 0.8281,2.1172 0,1.2969 -0.8359,2.1484 -0.836,0.8516 -2.1016,0.8516 -0.7812,0 -1.4922,-0.3516 -0.7109,-0.3515 -1.0859,-1.039 -0.375,-0.6875 -0.375,-1.6719 z m 1.5469,0.0781 q 0,0.8594 0.4062,1.3125 0.4063,0.4532 1,0.4532 0.5782,0 0.9844,-0.4532 0.4062,-0.4531 0.4062,-1.3125 0,-0.8437 -0.4062,-1.2968 -0.4062,-0.4532 -0.9844,-0.4532 -0.5937,0 -1,0.4532 -0.4062,0.4531 -0.4062,1.2968 z m 8.4218,-2.8437 0,1.2031 -1.0312,0 0,2.2969 q 0,0.7031 0.0312,0.8203 0.0313,0.1172 0.1329,0.1875 0.1015,0.0703 0.2578,0.0703 0.2031,0 0.6093,-0.1406 l 0.125,1.1719 q -0.5312,0.2187 -1.1874,0.2187 -0.4219,0 -0.75,-0.1328 -0.3282,-0.1328 -0.4766,-0.3516 -0.1484,-0.2187 -0.211,-0.5937 -0.0468,-0.2656 -0.0468,-1.0625 l 0,-2.4844 -0.6875,0 0,-1.2031 0.6875,0 0,-1.1406 1.5156,-0.875 0,2.0156 1.0312,0 z m 4.6876,3.8906 1.5,0.25 q -0.2813,0.8281 -0.9063,1.2578 -0.625,0.4297 -1.5781,0.4297 -1.4844,0 -2.2032,-0.9687 -0.5624,-0.7813 -0.5624,-1.9688 0,-1.4219 0.7421,-2.2187 0.7422,-0.7969 1.8829,-0.7969 1.2656,0 2,0.8359 0.7343,0.836 0.7031,2.5703 l -3.7813,0 q 0.0156,0.6719 0.3672,1.0469 0.3516,0.375 0.8672,0.375 0.3594,0 0.6016,-0.1953 0.2422,-0.1953 0.3672,-0.6172 z m 0.0781,-1.5312 q -0.0157,-0.6563 -0.336,-0.9922 -0.3203,-0.336 -0.7734,-0.336 -0.5,0 -0.8281,0.3594 -0.3125,0.3594 -0.3125,0.9688 l 2.25,0 z m 7.375,3.3437 0,-0.8594 q -0.3125,0.4688 -0.8203,0.7266 -0.5078,0.2578 -1.0704,0.2578 -0.5781,0 -1.0312,-0.25 -0.4531,-0.25 -0.6641,-0.7109 -0.2109,-0.461 -0.2109,-1.2578 l 0,-3.6094 1.5156,0 0,2.625 q 0,1.2031 0.086,1.4687 0.0859,0.2657 0.3046,0.4297 0.2188,0.1641 0.5626,0.1641 0.375,0 0.6874,-0.211 0.3126,-0.2109 0.4219,-0.5312 0.1094,-0.3203 0.1094,-1.5391 l 0,-2.4062 1.5156,0 0,5.7031 -1.4062,0 z m 4.6875,0 -1.5156,0 0,-5.7031 1.4062,0 0,0.8125 q 0.3594,-0.5781 0.6484,-0.7578 0.2891,-0.1797 0.6485,-0.1797 0.5156,0 1,0.2812 l -0.4688,1.3125 q -0.375,-0.25 -0.7031,-0.25 -0.3281,0 -0.5469,0.1797 -0.2187,0.1797 -0.3437,0.6328 -0.125,0.4532 -0.125,1.9063 l 0,1.7656 z m 7.6875,-3.9687 -1.375,-0.25 q 0.2343,-0.8125 0.7969,-1.211 0.5624,-0.3984 1.6718,-0.3984 1.0156,0 1.5078,0.2344 0.4922,0.2343 0.6954,0.6015 0.2031,0.3672 0.2031,1.3516 l -0.0157,1.7656 q 0,0.75 0.0704,1.1094 0.0703,0.3594 0.2734,0.7656 l -1.5,0 q -0.0625,-0.1562 -0.1406,-0.4531 -0.0313,-0.125 -0.0469,-0.1719 -0.3906,0.375 -0.8359,0.5625 -0.4454,0.1875 -0.9454,0.1875 -0.875,0 -1.3828,-0.4766 -0.5078,-0.4765 -0.5078,-1.2109 0,-0.4844 0.2344,-0.8594 0.2344,-0.375 0.6484,-0.5781 0.4141,-0.2031 1.1954,-0.3594 1.0624,-0.1875 1.4687,-0.3593 l 0,-0.1563 q 0,-0.4375 -0.2187,-0.6172 -0.2188,-0.1797 -0.8126,-0.1797 -0.3906,0 -0.6171,0.1563 -0.2266,0.1562 -0.3672,0.5469 z m 2.0156,1.2343 q -0.2969,0.0938 -0.9219,0.2266 -0.625,0.1328 -0.8125,0.2578 -0.2969,0.2188 -0.2969,0.5313 0,0.3281 0.2344,0.5546 0.2344,0.2266 0.5938,0.2266 0.4062,0 0.7812,-0.2656 0.2813,-0.2031 0.3594,-0.5 0.0625,-0.1875 0.0625,-0.7344 l 0,-0.2969 z m 2.3281,1.1094 1.5,-0.2344 q 0.1094,0.4375 0.3985,0.6641 0.289,0.2266 0.8203,0.2266 0.5937,0 0.8906,-0.2032 0.2031,-0.1562 0.2031,-0.4062 0,-0.1719 -0.1093,-0.2813 -0.125,-0.1093 -0.5157,-0.2031 -1.8125,-0.4062 -2.3125,-0.7344 -0.6718,-0.4687 -0.6718,-1.2812 0,-0.75 0.5859,-1.25 0.5859,-0.5 1.8203,-0.5 1.1719,0 1.7344,0.375 0.5625,0.375 0.7812,1.125 l -1.4218,0.2656 q -0.0938,-0.3281 -0.3438,-0.5078 -0.25,-0.1797 -0.7344,-0.1797 -0.5937,0 -0.8437,0.1719 -0.1719,0.1094 -0.1719,0.2969 0,0.1718 0.1406,0.2812 0.2032,0.1563 1.4141,0.4297 1.2109,0.2734 1.6797,0.6641 0.4844,0.4062 0.4844,1.125 0,0.7812 -0.6563,1.3437 -0.6563,0.5625 -1.9531,0.5625 -1.1563,0 -1.836,-0.4687 -0.6796,-0.4688 -0.8828,-1.2813 z m 6.8125,-4.0781 1.6094,0 1.3594,4.0469 1.3281,-4.0469 1.5625,0 -2.0156,5.4844 -0.3594,1 q -0.1875,0.5 -0.3672,0.7656 -0.1797,0.2656 -0.4141,0.4219 -0.2343,0.1562 -0.5781,0.25 -0.3437,0.0937 -0.7812,0.0937 -0.4219,0 -0.8438,-0.0937 l -0.1406,-1.1719 q 0.3594,0.0625 0.6406,0.0625 0.5313,0 0.7813,-0.3047 0.25,-0.3047 0.3906,-0.7891 l -2.1719,-5.7187 z m 11.9063,5.7031 -1.5156,0 0,-2.9062 q 0,-0.9219 -0.0938,-1.1954 -0.0938,-0.2734 -0.3125,-0.4218 -0.2187,-0.1485 -0.5313,-0.1485 -0.3906,0 -0.7031,0.211 -0.3125,0.2109 -0.4297,0.5625 -0.1172,0.3515 -0.1172,1.3203 l 0,2.5781 -1.5,0 0,-5.7031 1.4063,0 0,0.8437 q 0.7344,-0.9687 1.875,-0.9687 0.5,0 0.9141,0.1797 0.414,0.1797 0.625,0.4531 0.2109,0.2734 0.2968,0.6328 0.086,0.3594 0.086,1.0156 l 0,3.5469 z m 6.7812,-4.0156 -1.4844,0.2656 q -0.0781,-0.4375 -0.3437,-0.6641 -0.2656,-0.2265 -0.6875,-0.2265 -0.5625,0 -0.8984,0.3828 -0.336,0.3828 -0.336,1.3047 0,1.0156 0.336,1.4375 0.3359,0.4219 0.914,0.4219 0.4375,0 0.711,-0.25 0.2734,-0.25 0.3828,-0.8438 l 1.4844,0.25 q -0.2344,1.0313 -0.8907,1.5469 -0.6562,0.5156 -1.75,0.5156 -1.2656,0 -2.0078,-0.7891 -0.7422,-0.789 -0.7422,-2.1796 0,-1.4219 0.75,-2.2032 0.75,-0.7812 2.0157,-0.7812 1.0468,0 1.664,0.4453 0.6172,0.4453 0.8828,1.3672 z m 2.5313,-3.8594 0,2.8906 q 0.7343,-0.8437 1.75,-0.8437 0.5156,0 0.9297,0.1875 0.414,0.1875 0.6328,0.4922 0.2187,0.3047 0.2968,0.6718 0.0782,0.3672 0.0782,1.1329 l 0,3.3437 -1.5156,0 0,-3.0156 q 0,-0.8906 -0.086,-1.1328 -0.0859,-0.2422 -0.3047,-0.3828 -0.2187,-0.1407 -0.5469,-0.1407 -0.375,0 -0.6718,0.1797 -0.2969,0.1797 -0.4297,0.5469 -0.1328,0.3672 -0.1328,1.0859 l 0,2.8594 -1.5157,0 0,-7.875 1.5157,0 z m 6.9375,7.875 -1.5156,0 0,-5.7031 1.4062,0 0,0.8125 q 0.3594,-0.5781 0.6484,-0.7578 0.2891,-0.1797 0.6485,-0.1797 0.5156,0 1,0.2812 l -0.4688,1.3125 q -0.375,-0.25 -0.7031,-0.25 -0.3281,0 -0.5469,0.1797 -0.2187,0.1797 -0.3437,0.6328 -0.125,0.4532 -0.125,1.9063 l 0,1.7656 z m 3.2031,-2.9375 q 0,-0.75 0.375,-1.4531 0.375,-0.7031 1.0547,-1.0703 0.6797,-0.3672 1.5078,-0.3672 1.2969,0 2.125,0.8359 0.8281,0.836 0.8281,2.1172 0,1.2969 -0.8359,2.1484 -0.836,0.8516 -2.1016,0.8516 -0.7812,0 -1.4922,-0.3516 -0.7109,-0.3515 -1.0859,-1.039 -0.375,-0.6875 -0.375,-1.6719 z m 1.5469,0.0781 q 0,0.8594 0.4062,1.3125 0.4063,0.4532 1,0.4532 0.5782,0 0.9844,-0.4532 0.4062,-0.4531 0.4062,-1.3125 0,-0.8437 -0.4062,-1.2968 -0.4062,-0.4532 -0.9844,-0.4532 -0.5937,0 -1,0.4532 -0.4062,0.4531 -0.4062,1.2968 z m 11,2.8594 -1.5156,0 0,-2.9062 q 0,-0.9219 -0.0938,-1.1954 -0.0938,-0.2734 -0.3125,-0.4218 -0.2187,-0.1485 -0.5313,-0.1485 -0.3906,0 -0.7031,0.211 -0.3125,0.2109 -0.4297,0.5625 -0.1172,0.3515 -0.1172,1.3203 l 0,2.5781 -1.5,0 0,-5.7031 1.4063,0 0,0.8437 q 0.7344,-0.9687 1.875,-0.9687 0.5,0 0.9141,0.1797 0.414,0.1797 0.625,0.4531 0.2109,0.2734 0.2968,0.6328 0.086,0.3594 0.086,1.0156 l 0,3.5469 z m 5.1094,-1.8125 1.5,0.25 q -0.2813,0.8281 -0.9063,1.2578 -0.625,0.4297 -1.5781,0.4297 -1.4844,0 -2.2032,-0.9687 -0.5624,-0.7813 -0.5624,-1.9688 0,-1.4219 0.7421,-2.2187 0.7422,-0.7969 1.8829,-0.7969 1.2656,0 2,0.8359 0.7343,0.836 0.7031,2.5703 l -3.7813,0 q 0.0156,0.6719 0.3672,1.0469 0.3516,0.375 0.8672,0.375 0.3594,0 0.6016,-0.1953 0.2422,-0.1953 0.3672,-0.6172 z m 0.0781,-1.5312 q -0.0157,-0.6563 -0.336,-0.9922 -0.3203,-0.336 -0.7734,-0.336 -0.5,0 -0.8281,0.3594 -0.3125,0.3594 -0.3125,0.9688 l 2.25,0 z" />
    <rect
       style="fill:url(#linearGradient10101);stroke:none"
       id="rect9858"
       height="15"
       width="15"
       clip-path="url(#clipPath1)"
       y="329"
       x="437" />
    <rect
       style="fill:none;stroke:#5c9967"
       id="rect9860"
       height="15"
       width="15"
       clip-path="url(#clipPath1)"
       y="329"
       x="437" />
    <line
       style="fill:none;stroke:#5c9967"
       id="line9862"
       y2="336"
       y1="336"
       x2="450"
       x1="439"
       clip-path="url(#clipPath1)" />
    <path
       style="fill:none;stroke:#5c9967"
       inkscape:connector-curvature="0"
       id="path9864"
       clip-path="url(#clipPath1)"
       d="m 446,334 4,2 -4,2" />
    <rect
       style="fill:url(#linearGradient10103);stroke:none"
       id="rect9866"
       height="15"
       width="15"
       clip-path="url(#clipPath1)"
       y="329"
       x="308" />
    <rect
       style="fill:none;stroke:#5c9967"
       id="rect9868"
       height="15"
       width="15"
       clip-path="url(#clipPath1)"
       y="329"
       x="308" />
    <line
       style="fill:none;stroke:#5c9967"
       id="line9870"
       y2="336"
       y1="336"
       x2="321"
       x1="310"
       clip-path="url(#clipPath1)" />
    <path
       style="fill:none;stroke:#5c9967"
       inkscape:connector-curvature="0"
       id="path9872"
       clip-path="url(#clipPath1)"
       d="m 317,334 4,2 -4,2" />
    <rect
       style="fill:#b2b2b2;stroke:none"
       id="rect9874"
       height="126"
       width="105"
       clip-path="url(#clipPath1)"
       y="276"
       x="742" />
    <rect
       style="fill:url(#linearGradient10105);stroke:none"
       id="rect9876"
       height="126"
       width="105"
       clip-path="url(#clipPath1)"
       y="273"
       x="739" />
    <rect
       style="fill:none;stroke:#998d5c"
       id="rect9878"
       height="126"
       width="105"
       clip-path="url(#clipPath1)"
       y="273"
       x="739" />
    <path
       style="fill:#000000;stroke:none"
       inkscape:connector-curvature="0"
       id="path9880"
       clip-path="url(#clipPath1)"
       d="m 775.0781,282.3103 0,-1.5156 1.5157,0 0,1.5156 -1.5157,0 z m 0,4.1875 0,-1.5156 1.5157,0 0,1.5156 -1.5157,0 z m 5.7657,0 0,-7.8125 1.5937,0 0,6.4844 3.9531,0 0,1.3281 -5.5468,0 z m 6.9531,-6.4844 0,-1.3906 1.5,0 0,1.3906 -1.5,0 z m 0,6.4844 0,-5.7031 1.5,0 0,5.7031 -1.5,0 z m 2.4687,-1.625 1.5,-0.2344 q 0.1094,0.4375 0.3985,0.6641 0.289,0.2266 0.8203,0.2266 0.5937,0 0.8906,-0.2032 0.2031,-0.1562 0.2031,-0.4062 0,-0.1719 -0.1093,-0.2813 -0.125,-0.1093 -0.5157,-0.2031 -1.8125,-0.4062 -2.3125,-0.7344 -0.6718,-0.4687 -0.6718,-1.2812 0,-0.75 0.5859,-1.25 0.5859,-0.5 1.8203,-0.5 1.1719,0 1.7344,0.375 0.5625,0.375 0.7812,1.125 l -1.4218,0.2656 q -0.0938,-0.3281 -0.3438,-0.5078 -0.25,-0.1797 -0.7344,-0.1797 -0.5937,0 -0.8437,0.1719 -0.1719,0.1094 -0.1719,0.2969 0,0.1718 0.1406,0.2812 0.2032,0.1563 1.4141,0.4297 1.2109,0.2734 1.6797,0.6641 0.4844,0.4062 0.4844,1.125 0,0.7812 -0.6563,1.3437 -0.6563,0.5625 -1.9531,0.5625 -1.1563,0 -1.836,-0.4687 -0.6796,-0.4688 -0.8828,-1.2813 z m 7,0 1.5,-0.2344 q 0.1094,0.4375 0.3985,0.6641 0.289,0.2266 0.8203,0.2266 0.5937,0 0.8906,-0.2032 0.2031,-0.1562 0.2031,-0.4062 0,-0.1719 -0.1093,-0.2813 -0.125,-0.1093 -0.5157,-0.2031 -1.8125,-0.4062 -2.3125,-0.7344 -0.6718,-0.4687 -0.6718,-1.2812 0,-0.75 0.5859,-1.25 0.5859,-0.5 1.8203,-0.5 1.1719,0 1.7344,0.375 0.5625,0.375 0.7812,1.125 l -1.4218,0.2656 q -0.0938,-0.3281 -0.3438,-0.5078 -0.25,-0.1797 -0.7344,-0.1797 -0.5937,0 -0.8437,0.1719 -0.1719,0.1094 -0.1719,0.2969 0,0.1718 0.1406,0.2812 0.2032,0.1563 1.4141,0.4297 1.2109,0.2734 1.6797,0.6641 0.4844,0.4062 0.4844,1.125 0,0.7812 -0.6563,1.3437 -0.6563,0.5625 -1.9531,0.5625 -1.1563,0 -1.836,-0.4687 -0.6796,-0.4688 -0.8828,-1.2813 z m 10.8282,-0.1875 1.5,0.25 q -0.2813,0.8281 -0.9063,1.2578 -0.625,0.4297 -1.5781,0.4297 -1.4844,0 -2.2032,-0.9687 -0.5624,-0.7813 -0.5624,-1.9688 0,-1.4219 0.7421,-2.2187 0.7422,-0.7969 1.8829,-0.7969 1.2656,0 2,0.8359 0.7343,0.836 0.7031,2.5703 l -3.7813,0 q 0.0156,0.6719 0.3672,1.0469 0.3516,0.375 0.8672,0.375 0.3594,0 0.6016,-0.1953 0.2422,-0.1953 0.3672,-0.6172 z m 0.0781,-1.5312 q -0.0157,-0.6563 -0.336,-0.9922 -0.3203,-0.336 -0.7734,-0.336 -0.5,0 -0.8281,0.3594 -0.3125,0.3594 -0.3125,0.9688 l 2.25,0 z" />
    <rect
       style="fill:url(#linearGradient10107);stroke:none"
       id="rect9882"
       height="15"
       width="15"
       clip-path="url(#clipPath1)"
       y="329"
       x="732" />
    <rect
       style="fill:none;stroke:#5c9967"
       id="rect9884"
       height="15"
       width="15"
       clip-path="url(#clipPath1)"
       y="329"
       x="732" />
    <line
       style="fill:none;stroke:#5c9967"
       id="line9886"
       y2="336"
       y1="336"
       x2="745"
       x1="734"
       clip-path="url(#clipPath1)" />
    <path
       style="fill:none;stroke:#5c9967"
       inkscape:connector-curvature="0"
       id="path9888"
       clip-path="url(#clipPath1)"
       d="m 741,334 4,2 -4,2" />
    <rect
       style="fill:url(#linearGradient10109);stroke:none"
       id="rect9890"
       height="15"
       width="15"
       clip-path="url(#clipPath1)"
       y="329"
       x="836" />
    <rect
       style="fill:none;stroke:#5c9967"
       id="rect9892"
       height="15"
       width="15"
       clip-path="url(#clipPath1)"
       y="329"
       x="836" />
    <line
       style="fill:none;stroke:#5c9967"
       id="line9894"
       y2="336"
       y1="336"
       x2="849"
       x1="838"
       clip-path="url(#clipPath1)" />
    <path
       style="fill:none;stroke:#5c9967"
       inkscape:connector-curvature="0"
       id="path9896"
       clip-path="url(#clipPath1)"
       d="m 845,334 4,2 -4,2" />
    <rect
       style="fill:url(#linearGradient10111);stroke:none"
       id="rect9898"
       height="15"
       width="15"
       clip-path="url(#clipPath1)"
       y="329"
       x="836" />
    <rect
       style="fill:none;stroke:#5c9967"
       id="rect9900"
       height="15"
       width="15"
       clip-path="url(#clipPath1)"
       y="329"
       x="836" />
    <line
       style="fill:none;stroke:#5c9967"
       id="line9902"
       y2="336"
       y1="336"
       x2="849"
       x1="838"
       clip-path="url(#clipPath1)" />
    <path
       style="fill:none;stroke:#5c9967"
       inkscape:connector-curvature="0"
       id="path9904"
       clip-path="url(#clipPath1)"
       d="m 845,334 4,2 -4,2" />
    <rect
       style="fill:#b2b2b2;stroke:none"
       id="rect9906"
       height="91"
       width="126"
       clip-path="url(#clipPath1)"
       y="297"
       x="532" />
    <rect
       style="fill:url(#linearGradient10113);stroke:none"
       id="rect9908"
       height="91"
       width="126"
       clip-path="url(#clipPath1)"
       y="294"
       x="529" />
    <rect
       style="fill:none;stroke:#998d5c"
       id="rect9910"
       height="91"
       width="126"
       clip-path="url(#clipPath1)"
       y="294"
       x="529" />
    <path
       style="fill:#000000;stroke:none"
       inkscape:connector-curvature="0"
       id="path9912"
       clip-path="url(#clipPath1)"
       d="m 563.0781,303.3103 0,-1.5156 1.5157,0 0,1.5156 -1.5157,0 z m 0,4.1875 0,-1.5156 1.5157,0 0,1.5156 -1.5157,0 z m 5.7344,0 0,-7.875 3.3437,0 q 1.2657,0 1.836,0.2109 0.5703,0.211 0.914,0.7579 0.3438,0.5468 0.3438,1.2343 0,0.8907 -0.5234,1.4688 -0.5235,0.5781 -1.5547,0.7344 0.5156,0.2968 0.8515,0.6562 0.336,0.3594 0.8985,1.2813 l 0.9687,1.5312 -1.9062,0 -1.1563,-1.7187 q -0.6093,-0.9063 -0.8359,-1.1485 -0.2266,-0.2422 -0.4766,-0.3281 -0.25,-0.0859 -0.7968,-0.0859 l -0.3282,0 0,3.2812 -1.5781,0 z m 1.5781,-4.5469 1.1875,0 q 1.1407,0 1.4219,-0.0937 0.2812,-0.0938 0.4453,-0.3281 0.1641,-0.2344 0.1641,-0.5938 0,-0.4062 -0.211,-0.6484 -0.2109,-0.2422 -0.6015,-0.3047 -0.1875,-0.0313 -1.1563,-0.0313 l -1.25,0 0,2 z m 8.7032,2.7344 1.5,0.25 q -0.2813,0.8281 -0.9063,1.2578 -0.625,0.4297 -1.5781,0.4297 -1.4844,0 -2.2032,-0.9687 -0.5624,-0.7813 -0.5624,-1.9688 0,-1.4219 0.7421,-2.2187 0.7422,-0.7969 1.8829,-0.7969 1.2656,0 2,0.8359 0.7343,0.836 0.7031,2.5703 l -3.7813,0 q 0.0156,0.6719 0.3672,1.0469 0.3516,0.375 0.8672,0.375 0.3594,0 0.6016,-0.1953 0.2422,-0.1953 0.3672,-0.6172 z m 0.0781,-1.5312 q -0.0157,-0.6563 -0.336,-0.9922 -0.3203,-0.336 -0.7734,-0.336 -0.5,0 -0.8281,0.3594 -0.3125,0.3594 -0.3125,0.9688 l 2.25,0 z m -2.125,-3.6563 0.75,-1.6094 1.6875,0 -1.4844,1.6094 -0.9531,0 z m 10.9687,7 -1.3906,0 0,-0.8437 q -0.3594,0.5 -0.8359,0.7343 -0.4766,0.2344 -0.9453,0.2344 -0.9844,0 -1.6876,-0.7891 -0.7031,-0.789 -0.7031,-2.2109 0,-1.4531 0.6797,-2.2031 0.6797,-0.75 1.7266,-0.75 0.9531,0 1.6562,0.7969 l 0,-2.8438 1.5,0 0,7.875 z M 584,304.5291 q 0,0.9062 0.25,1.3125 0.3594,0.5937 1.0156,0.5937 0.5156,0 0.8828,-0.4453 0.3672,-0.4453 0.3672,-1.3203 0,-0.9844 -0.3515,-1.4141 -0.3516,-0.4297 -0.9141,-0.4297 -0.5312,0 -0.8906,0.4219 Q 584,303.6697 584,304.5291 z m 9.5469,2.9687 0,-0.8594 q -0.3125,0.4688 -0.8203,0.7266 -0.5078,0.2578 -1.0704,0.2578 -0.5781,0 -1.0312,-0.25 -0.4531,-0.25 -0.6641,-0.7109 -0.2109,-0.461 -0.2109,-1.2578 l 0,-3.6094 1.5156,0 0,2.625 q 0,1.2031 0.086,1.4687 0.0859,0.2657 0.3046,0.4297 0.2188,0.1641 0.5626,0.1641 0.375,0 0.6874,-0.211 0.3126,-0.2109 0.4219,-0.5312 0.1094,-0.3203 0.1094,-1.5391 l 0,-2.4062 1.5156,0 0,5.7031 -1.4062,0 z m 8.2187,-4.0156 -1.4844,0.2656 q -0.0781,-0.4375 -0.3437,-0.6641 -0.2656,-0.2265 -0.6875,-0.2265 -0.5625,0 -0.8984,0.3828 -0.336,0.3828 -0.336,1.3047 0,1.0156 0.336,1.4375 0.3359,0.4219 0.914,0.4219 0.4375,0 0.711,-0.25 0.2734,-0.25 0.3828,-0.8438 l 1.4844,0.25 q -0.2344,1.0313 -0.8907,1.5469 -0.6562,0.5156 -1.75,0.5156 -1.2656,0 -2.0078,-0.7891 -0.7422,-0.789 -0.7422,-2.1796 0,-1.4219 0.75,-2.2032 0.75,-0.7812 2.0157,-0.7812 1.0468,0 1.664,0.4453 0.6172,0.4453 0.8828,1.3672 z m 3.6406,-1.6875 0,1.2031 -1.0312,0 0,2.2969 q 0,0.7031 0.0312,0.8203 0.0313,0.1172 0.1329,0.1875 0.1015,0.0703 0.2578,0.0703 0.2031,0 0.6093,-0.1406 l 0.125,1.1719 q -0.5312,0.2187 -1.1874,0.2187 -0.4219,0 -0.75,-0.1328 -0.3282,-0.1328 -0.4766,-0.3516 -0.1484,-0.2187 -0.211,-0.5937 -0.0468,-0.2656 -0.0468,-1.0625 l 0,-2.4844 -0.6875,0 0,-1.2031 0.6875,0 0,-1.1406 1.5156,-0.875 0,2.0156 1.0312,0 z m 4.6876,3.8906 1.5,0.25 q -0.2813,0.8281 -0.9063,1.2578 -0.625,0.4297 -1.5781,0.4297 -1.4844,0 -2.2032,-0.9687 -0.5624,-0.7813 -0.5624,-1.9688 0,-1.4219 0.7421,-2.2187 0.7422,-0.7969 1.8829,-0.7969 1.2656,0 2,0.8359 0.7343,0.836 0.7031,2.5703 l -3.7813,0 q 0.0156,0.6719 0.3672,1.0469 0.3516,0.375 0.8672,0.375 0.3594,0 0.6016,-0.1953 0.2422,-0.1953 0.3672,-0.6172 z m 0.0781,-1.5312 q -0.0157,-0.6563 -0.336,-0.9922 -0.3203,-0.336 -0.7734,-0.336 -0.5,0 -0.8281,0.3594 -0.3125,0.3594 -0.3125,0.9688 l 2.25,0 z m 7.375,3.3437 0,-0.8594 q -0.3125,0.4688 -0.8203,0.7266 -0.5078,0.2578 -1.0704,0.2578 -0.5781,0 -1.0312,-0.25 -0.4531,-0.25 -0.6641,-0.7109 -0.2109,-0.461 -0.2109,-1.2578 l 0,-3.6094 1.5156,0 0,2.625 q 0,1.2031 0.086,1.4687 0.0859,0.2657 0.3046,0.4297 0.2188,0.1641 0.5626,0.1641 0.375,0 0.6874,-0.211 0.3126,-0.2109 0.4219,-0.5312 0.1094,-0.3203 0.1094,-1.5391 l 0,-2.4062 1.5156,0 0,5.7031 -1.4062,0 z m 4.6875,0 -1.5156,0 0,-5.7031 1.4062,0 0,0.8125 q 0.3594,-0.5781 0.6484,-0.7578 0.2891,-0.1797 0.6485,-0.1797 0.5156,0 1,0.2812 l -0.4688,1.3125 q -0.375,-0.25 -0.7031,-0.25 -0.3281,0 -0.5469,0.1797 -0.2187,0.1797 -0.3437,0.6328 -0.125,0.4532 -0.125,1.9063 l 0,1.7656 z" />
    <rect
       style="fill:url(#linearGradient10115);stroke:none"
       id="rect9914"
       height="15"
       width="15"
       clip-path="url(#clipPath1)"
       y="332"
       x="522" />
    <rect
       style="fill:none;stroke:#5c9967"
       id="rect9916"
       height="15"
       width="15"
       clip-path="url(#clipPath1)"
       y="332"
       x="522" />
    <line
       style="fill:none;stroke:#5c9967"
       id="line9918"
       y2="339"
       y1="339"
       x2="535"
       x1="524"
       clip-path="url(#clipPath1)" />
    <path
       style="fill:none;stroke:#5c9967"
       inkscape:connector-curvature="0"
       id="path9920"
       clip-path="url(#clipPath1)"
       d="m 531,337 4,2 -4,2" />
    <rect
       style="fill:url(#linearGradient10117);stroke:none"
       id="rect9922"
       height="15"
       width="15"
       clip-path="url(#clipPath1)"
       y="332"
       x="647" />
    <rect
       style="fill:none;stroke:#5c9967"
       id="rect9924"
       height="15"
       width="15"
       clip-path="url(#clipPath1)"
       y="332"
       x="647" />
    <line
       style="fill:none;stroke:#5c9967"
       id="line9926"
       y2="339"
       y1="339"
       x2="660"
       x1="649"
       clip-path="url(#clipPath1)" />
    <path
       style="fill:none;stroke:#5c9967"
       inkscape:connector-curvature="0"
       id="path9928"
       clip-path="url(#clipPath1)"
       d="m 656,337 4,2 -4,2" />
  </g>
</svg>
