<?xml version="1.0" encoding="UTF-8" standalone="no"?>
<!-- Created with Inkscape (http://www.inkscape.org/) -->

<svg
   xmlns:dc="http://purl.org/dc/elements/1.1/"
   xmlns:cc="http://creativecommons.org/ns#"
   xmlns:rdf="http://www.w3.org/1999/02/22-rdf-syntax-ns#"
   xmlns:svg="http://www.w3.org/2000/svg"
   xmlns="http://www.w3.org/2000/svg"
   xmlns:sodipodi="http://sodipodi.sourceforge.net/DTD/sodipodi-0.dtd"
   xmlns:inkscape="http://www.inkscape.org/namespaces/inkscape"
   version="1.1"
   id="svg2"
   xml:space="preserve"
   width="352.38931"
   height="693.03418"
   viewBox="0 0 352.38931 693.03418"
   sodipodi:docname="Capsuleuse_cinematique.svg"
   inkscape:version="0.92.3 (2405546, 2018-03-11)"><metadata
     id="metadata8"><rdf:RDF><cc:Work
         rdf:about=""><dc:format>image/svg+xml</dc:format><dc:type
           rdf:resource="http://purl.org/dc/dcmitype/StillImage" /><dc:title></dc:title></cc:Work></rdf:RDF></metadata><defs
     id="defs6"><clipPath
       clipPathUnits="userSpaceOnUse"
       id="clipPath30"><path
         d="M 0,0 H 265 V 520 H 0 Z"
         id="path28"
         inkscape:connector-curvature="0" /></clipPath><clipPath
       clipPathUnits="userSpaceOnUse"
       id="clipPath46"><path
         d="M 0,0 H 265 V 520 H 0 Z"
         id="path44"
         inkscape:connector-curvature="0" /></clipPath><clipPath
       clipPathUnits="userSpaceOnUse"
       id="clipPath126"><path
         d="M 0,0 H 265 V 520 H 0 Z"
         id="path124"
         inkscape:connector-curvature="0" /></clipPath><clipPath
       clipPathUnits="userSpaceOnUse"
       id="clipPath142"><path
         d="M 0,0 H 265 V 520 H 0 Z"
         id="path140"
         inkscape:connector-curvature="0" /></clipPath><clipPath
       clipPathUnits="userSpaceOnUse"
       id="clipPath158"><path
         d="M 0,0 H 265 V 520 H 0 Z"
         id="path156"
         inkscape:connector-curvature="0" /></clipPath><clipPath
       clipPathUnits="userSpaceOnUse"
       id="clipPath174"><path
         d="M 0,0 H 265 V 520 H 0 Z"
         id="path172"
         inkscape:connector-curvature="0" /></clipPath><clipPath
       clipPathUnits="userSpaceOnUse"
       id="clipPath190"><path
         d="M 0,0 H 265 V 520 H 0 Z"
         id="path188"
         inkscape:connector-curvature="0" /></clipPath><clipPath
       clipPathUnits="userSpaceOnUse"
       id="clipPath206"><path
         d="M 0,0 H 265 V 520 H 0 Z"
         id="path204"
         inkscape:connector-curvature="0" /></clipPath><clipPath
       clipPathUnits="userSpaceOnUse"
       id="clipPath222"><path
         d="M 0,0 H 265 V 520 H 0 Z"
         id="path220"
         inkscape:connector-curvature="0" /></clipPath><clipPath
       clipPathUnits="userSpaceOnUse"
       id="clipPath238"><path
         d="M 0,0 H 265 V 520 H 0 Z"
         id="path236"
         inkscape:connector-curvature="0" /></clipPath><clipPath
       clipPathUnits="userSpaceOnUse"
       id="clipPath256"><path
         d="M 0,0 H 265 V 520 H 0 Z"
         id="path254"
         inkscape:connector-curvature="0" /></clipPath><clipPath
       clipPathUnits="userSpaceOnUse"
       id="clipPath272"><path
         d="M 0,0 H 265 V 520 H 0 Z"
         id="path270"
         inkscape:connector-curvature="0" /></clipPath><clipPath
       clipPathUnits="userSpaceOnUse"
       id="clipPath290"><path
         d="M 0,0 H 265 V 520 H 0 Z"
         id="path288"
         inkscape:connector-curvature="0" /></clipPath><clipPath
       clipPathUnits="userSpaceOnUse"
       id="clipPath306"><path
         d="M 0,0 H 265 V 520 H 0 Z"
         id="path304"
         inkscape:connector-curvature="0" /></clipPath><clipPath
       clipPathUnits="userSpaceOnUse"
       id="clipPath342"><path
         d="M 0,0 H 265 V 520 H 0 Z"
         id="path340"
         inkscape:connector-curvature="0" /></clipPath><clipPath
       clipPathUnits="userSpaceOnUse"
       id="clipPath366"><path
         d="M 0,0 H 265 V 520 H 0 Z"
         id="path364"
         inkscape:connector-curvature="0" /></clipPath><clipPath
       clipPathUnits="userSpaceOnUse"
       id="clipPath392"><path
         d="M 0,0 H 265 V 520 H 0 Z"
         id="path390"
         inkscape:connector-curvature="0" /></clipPath><clipPath
       clipPathUnits="userSpaceOnUse"
       id="clipPath408"><path
         d="M 0,0 H 265 V 520 H 0 Z"
         id="path406"
         inkscape:connector-curvature="0" /></clipPath><clipPath
       clipPathUnits="userSpaceOnUse"
       id="clipPath424"><path
         d="M 0,0 H 265 V 520 H 0 Z"
         id="path422"
         inkscape:connector-curvature="0" /></clipPath><clipPath
       clipPathUnits="userSpaceOnUse"
       id="clipPath440"><path
         d="M 0,0 H 265 V 520 H 0 Z"
         id="path438"
         inkscape:connector-curvature="0" /></clipPath><clipPath
       clipPathUnits="userSpaceOnUse"
       id="clipPath456"><path
         d="M 0,0 H 265 V 520 H 0 Z"
         id="path454"
         inkscape:connector-curvature="0" /></clipPath><clipPath
       clipPathUnits="userSpaceOnUse"
       id="clipPath472"><path
         d="M 0,0 H 265 V 520 H 0 Z"
         id="path470"
         inkscape:connector-curvature="0" /></clipPath></defs><sodipodi:namedview
     pagecolor="#ffffff"
     bordercolor="#666666"
     borderopacity="1"
     objecttolerance="10"
     gridtolerance="10"
     guidetolerance="10"
     inkscape:pageopacity="0"
     inkscape:pageshadow="2"
     inkscape:window-width="3110"
     inkscape:window-height="1697"
     id="namedview4"
     showgrid="false"
     inkscape:zoom="0.34053155"
     inkscape:cx="176.19466"
     inkscape:cy="346.51709"
     inkscape:window-x="90"
     inkscape:window-y="55"
     inkscape:window-maximized="1"
     inkscape:current-layer="g10" /><g
     id="g10"
     inkscape:groupmode="layer"
     inkscape:label="Capsuleuse_cinematique"
     transform="matrix(1.3333333,0,0,1.3333333,0,1.7325854e-5)"><path
       inkscape:connector-curvature="0"
       id="path14"
       style="fill:#000000;fill-opacity:1;fill-rule:nonzero;stroke:none"
       d="m 107.188,58.215 h 146.117 v 1.019 H 107.188 Z m 145.117,-2.492 6,3 -6,3 z" /><path
       inkscape:connector-curvature="0"
       id="path16"
       style="fill:#000000;fill-opacity:1;fill-rule:nonzero;stroke:none"
       d="m 104.305,458.414 h 146.121 v 1.02 H 104.305 Z m 145.121,-2.488 6,3 -6,3 z" /><path
       inkscape:connector-curvature="0"
       id="path18"
       style="fill:#7030a0;fill-opacity:1;fill-rule:nonzero;stroke:none"
       d="m 107.395,460.453 38.793,-330.289 -1.012,-0.109 -38.801,330.281 z m 41.14,-329 -2.277,-6.308 -3.672,5.609 z" /><path
       inkscape:connector-curvature="0"
       id="path20"
       style="fill:#70ad47;fill-opacity:1;fill-rule:nonzero;stroke:none"
       d="m 107.387,57.715 42.019,195.238 -1,0.211 -42.019,-195.23 z m 44.238,193.738 -1.668,6.5 -4.191,-5.238 z" /><g
       id="g22"><g
         id="g24"><g
           clip-path="url(#clipPath30)"
           id="g26"><g
             id="g32"><text
               id="text36"
               style="font-variant:normal;font-weight:normal;font-size:28.02000046px;font-family:Calibri;-inkscape-font-specification:Calibri;writing-mode:lr-tb;fill:#70ad47;fill-opacity:1;fill-rule:nonzero;stroke:none"
               transform="translate(158.65595,262.71429)"><tspan
                 id="tspan34"
                 y="0"
                 x="0">x</tspan></text>
</g></g></g></g><g
       id="g38"><g
         id="g40"><g
           clip-path="url(#clipPath46)"
           id="g42"><g
             id="g48"><text
               id="text52"
               style="font-variant:normal;font-weight:normal;font-size:18.65999985px;font-family:Calibri;-inkscape-font-specification:Calibri;writing-mode:lr-tb;fill:#70ad47;fill-opacity:1;fill-rule:nonzero;stroke:none"
               transform="translate(170.77595,269.67429)"><tspan
                 id="tspan50"
                 y="0"
                 x="0">2</tspan></text>
</g></g></g></g><g
       transform="scale(1,-1)"
       id="g54"><path
         inkscape:connector-curvature="0"
         id="path56"
         style="fill:none;stroke:#7030a0;stroke-width:2.27999997;stroke-linecap:butt;stroke-linejoin:miter;stroke-miterlimit:10;stroke-dasharray:none;stroke-opacity:1"
         d="m 129.586,-269.113 -21.59,-190.125" /></g><g
       transform="scale(1,-1)"
       id="g58"><path
         inkscape:connector-curvature="0"
         id="path60"
         style="fill:none;stroke:#70ad47;stroke-width:2.27999997;stroke-linecap:butt;stroke-linejoin:miter;stroke-miterlimit:10;stroke-dasharray:none;stroke-opacity:1"
         d="M 136.887,-201.934 107.695,-58.215" /></g><g
       transform="scale(1,-1)"
       id="g62"><path
         inkscape:connector-curvature="0"
         id="path64"
         style="fill:none;stroke:#000000;stroke-width:2.27999997;stroke-linecap:butt;stroke-linejoin:miter;stroke-miterlimit:10;stroke-dasharray:none;stroke-opacity:1"
         d="M 57.895,-58.152 V -76.445" /></g><g
       transform="scale(1,-1)"
       id="g66"><path
         inkscape:connector-curvature="0"
         id="path68"
         style="fill:none;stroke:#000000;stroke-width:2.27999997;stroke-linecap:butt;stroke-linejoin:miter;stroke-miterlimit:10;stroke-dasharray:none;stroke-opacity:1"
         d="M 79.246,-76.875 H 38.098" /></g><g
       transform="scale(1,-1)"
       id="g70"><path
         inkscape:connector-curvature="0"
         id="path72"
         style="fill:none;stroke:#000000;stroke-width:2.27999997;stroke-linecap:butt;stroke-linejoin:miter;stroke-miterlimit:10;stroke-dasharray:none;stroke-opacity:1"
         d="M 38.297,-76.875 24.355,-95.605" /></g><g
       transform="scale(1,-1)"
       id="g74"><path
         inkscape:connector-curvature="0"
         id="path76"
         style="fill:none;stroke:#000000;stroke-width:2.27999997;stroke-linecap:butt;stroke-linejoin:miter;stroke-miterlimit:10;stroke-dasharray:none;stroke-opacity:1"
         d="M 52.215,-76.875 38.277,-95.605" /></g><g
       transform="scale(1,-1)"
       id="g78"><path
         inkscape:connector-curvature="0"
         id="path80"
         style="fill:none;stroke:#000000;stroke-width:2.27999997;stroke-linecap:butt;stroke-linejoin:miter;stroke-miterlimit:10;stroke-dasharray:none;stroke-opacity:1"
         d="M 66.195,-76.875 52.258,-95.605" /></g><g
       transform="scale(1,-1)"
       id="g82"><path
         inkscape:connector-curvature="0"
         id="path84"
         style="fill:none;stroke:#000000;stroke-width:2.27999997;stroke-linecap:butt;stroke-linejoin:miter;stroke-miterlimit:10;stroke-dasharray:none;stroke-opacity:1"
         d="M 79.215,-76.875 65.277,-95.605" /></g><g
       transform="scale(1,-1)"
       id="g86"><path
         inkscape:connector-curvature="0"
         id="path88"
         style="fill:none;stroke:#000000;stroke-width:2.27999997;stroke-linecap:butt;stroke-linejoin:miter;stroke-miterlimit:10;stroke-dasharray:none;stroke-opacity:1"
         d="m 108.535,-478.813 v -18.292" /></g><g
       transform="scale(1,-1)"
       id="g90"><path
         inkscape:connector-curvature="0"
         id="path92"
         style="fill:none;stroke:#000000;stroke-width:2.27999997;stroke-linecap:butt;stroke-linejoin:miter;stroke-miterlimit:10;stroke-dasharray:none;stroke-opacity:1"
         d="M 129.887,-497.535 H 88.734" /></g><g
       transform="scale(1,-1)"
       id="g94"><path
         inkscape:connector-curvature="0"
         id="path96"
         style="fill:none;stroke:#000000;stroke-width:2.27999997;stroke-linecap:butt;stroke-linejoin:miter;stroke-miterlimit:10;stroke-dasharray:none;stroke-opacity:1"
         d="M 88.938,-497.535 74.996,-516.262" /></g><g
       transform="scale(1,-1)"
       id="g98"><path
         inkscape:connector-curvature="0"
         id="path100"
         style="fill:none;stroke:#000000;stroke-width:2.27999997;stroke-linecap:butt;stroke-linejoin:miter;stroke-miterlimit:10;stroke-dasharray:none;stroke-opacity:1"
         d="M 102.855,-497.535 88.914,-516.262" /></g><g
       transform="scale(1,-1)"
       id="g102"><path
         inkscape:connector-curvature="0"
         id="path104"
         style="fill:none;stroke:#000000;stroke-width:2.27999997;stroke-linecap:butt;stroke-linejoin:miter;stroke-miterlimit:10;stroke-dasharray:none;stroke-opacity:1"
         d="m 116.836,-497.535 -13.941,-18.727" /></g><g
       transform="scale(1,-1)"
       id="g106"><path
         inkscape:connector-curvature="0"
         id="path108"
         style="fill:none;stroke:#000000;stroke-width:2.27999997;stroke-linecap:butt;stroke-linejoin:miter;stroke-miterlimit:10;stroke-dasharray:none;stroke-opacity:1"
         d="m 129.855,-497.535 -13.941,-18.727" /></g><g
       transform="scale(1,-1)"
       id="g110"><path
         inkscape:connector-curvature="0"
         id="path112"
         style="fill:#ffffff;fill-opacity:1;fill-rule:evenodd;stroke:#000000;stroke-width:2.27999997;stroke-linecap:butt;stroke-linejoin:miter;stroke-miterlimit:10;stroke-dasharray:none;stroke-opacity:1"
         d="m 89.035,-459.375 c 0,10.172 8.25,18.422 18.422,18.422 10.168,0 18.418,-8.25 18.418,-18.422 0,-10.172 -8.25,-18.418 -18.418,-18.418 -10.172,0 -18.422,8.246 -18.422,18.418 z" /></g><g
       transform="scale(1,-1)"
       id="g114"><path
         inkscape:connector-curvature="0"
         id="path116"
         style="fill:#ffffff;fill-opacity:1;fill-rule:evenodd;stroke:#70ad47;stroke-width:2.27999997;stroke-linecap:butt;stroke-linejoin:miter;stroke-miterlimit:10;stroke-dasharray:none;stroke-opacity:1"
         d="m 118.855,-202.035 c 0,10.172 8.262,18.422 18.45,18.422 10.191,0 18.453,-8.25 18.453,-18.422 0,-10.168 -8.262,-18.418 -18.453,-18.418 -10.188,0 -18.45,8.25 -18.45,18.418 z" /></g><g
       id="g118"><g
         id="g120"><g
           clip-path="url(#clipPath126)"
           id="g122"><g
             id="g128"><text
               id="text132"
               style="font-variant:normal;font-weight:normal;font-size:28.02000046px;font-family:Calibri;-inkscape-font-specification:Calibri;writing-mode:lr-tb;fill:#7030a0;fill-opacity:1;fill-rule:nonzero;stroke:none"
               transform="translate(149.53595,143.99429)"><tspan
                 id="tspan130"
                 y="0"
                 x="0">x</tspan></text>
</g></g></g></g><g
       id="g134"><g
         id="g136"><g
           clip-path="url(#clipPath142)"
           id="g138"><g
             id="g144"><text
               id="text148"
               style="font-variant:normal;font-weight:normal;font-size:18.65999985px;font-family:Calibri;-inkscape-font-specification:Calibri;writing-mode:lr-tb;fill:#7030a0;fill-opacity:1;fill-rule:nonzero;stroke:none"
               transform="translate(161.65595,150.95429)"><tspan
                 id="tspan146"
                 y="0"
                 x="0">1</tspan></text>
</g></g></g></g><g
       id="g150"><g
         id="g152"><g
           clip-path="url(#clipPath158)"
           id="g154"><g
             id="g160"><text
               id="text164"
               style="font-variant:normal;font-weight:normal;font-size:28.04000092px;font-family:Calibri;-inkscape-font-specification:Calibri;writing-mode:lr-tb;fill:#000000;fill-opacity:1;fill-rule:nonzero;stroke:none"
               transform="translate(55.975953,453.47428)"><tspan
                 id="tspan162"
                 y="0"
                 x="0">A</tspan></text>
</g></g></g></g><g
       id="g166"><g
         id="g168"><g
           clip-path="url(#clipPath174)"
           id="g170"><g
             id="g176"><text
               id="text180"
               style="font-variant:normal;font-weight:normal;font-size:28.02000046px;font-family:Calibri;-inkscape-font-specification:Calibri;writing-mode:lr-tb;fill:#000000;fill-opacity:1;fill-rule:nonzero;stroke:none"
               transform="translate(173.73595,201.09429)"><tspan
                 id="tspan178"
                 y="0"
                 x="0">B</tspan></text>
</g></g></g></g><g
       id="g182"><g
         id="g184"><g
           clip-path="url(#clipPath190)"
           id="g186"><g
             id="g192"><text
               id="text196"
               style="font-variant:normal;font-weight:normal;font-size:28.02000046px;font-family:Calibri;-inkscape-font-specification:Calibri;writing-mode:lr-tb;fill:#000000;fill-opacity:1;fill-rule:nonzero;stroke:none"
               transform="translate(75.075952,40.59429)"><tspan
                 id="tspan194"
                 y="0"
                 x="0">C</tspan></text>
</g></g></g></g><g
       id="g198"><g
         id="g200"><g
           clip-path="url(#clipPath206)"
           id="g202"><g
             id="g208"><text
               id="text212"
               style="font-variant:normal;font-weight:normal;font-size:28.02000046px;font-family:Calibri;-inkscape-font-specification:Calibri;writing-mode:lr-tb;fill:#000000;fill-opacity:1;fill-rule:nonzero;stroke:none"
               transform="translate(127.59595,492.49428)"><tspan
                 id="tspan210"
                 y="0"
                 x="0">0</tspan></text>
</g></g></g></g><g
       id="g214"><g
         id="g216"><g
           clip-path="url(#clipPath222)"
           id="g218"><g
             id="g224"><text
               id="text228"
               style="font-variant:normal;font-weight:normal;font-size:28.02000046px;font-family:Calibri;-inkscape-font-specification:Calibri;writing-mode:lr-tb;fill:#7030a0;fill-opacity:1;fill-rule:nonzero;stroke:none"
               transform="translate(97.235952,348.47428)"><tspan
                 id="tspan226"
                 y="0"
                 x="0">1</tspan></text>
</g></g></g></g><g
       id="g230"><g
         id="g232"><g
           clip-path="url(#clipPath238)"
           id="g234"><g
             id="g240"><text
               id="text244"
               style="font-variant:normal;font-weight:normal;font-size:28.02000046px;font-family:Calibri;-inkscape-font-specification:Calibri;writing-mode:lr-tb;fill:#70ad47;fill-opacity:1;fill-rule:nonzero;stroke:none"
               transform="translate(105.99595,143.17429)"><tspan
                 id="tspan242"
                 y="0"
                 x="0">2</tspan></text>
</g></g></g></g><path
       inkscape:connector-curvature="0"
       id="path246"
       style="fill:#7030a0;fill-opacity:1;fill-rule:nonzero;stroke:none"
       d="m 115.824,396.336 1.992,0.277 2.961,0.563 2.899,0.687 2.851,0.813 2.797,0.937 2.731,1.063 2.66,1.179 2.601,1.29 2.532,1.41 2.449,1.508 2.379,1.621 2.301,1.718 2.199,1.821 2.14,1.91 2.039,2 1.942,2.101 1.848,2.161 1.761,2.269 1.66,2.32 1.551,2.418 1.438,2.481 1.332,2.543 1.23,2.609 1.098,2.668 0.992,2.731 0.867,2.781 0.742,2.836 0.61,2.883 0.48,2.918 0.34,2.961 0.211,3.003 0.078,3.024 -1.019,0.027 -0.071,-3.015 v 0.023 l -0.211,-2.977 v 0.024 l -0.347,-2.942 0.008,0.024 -0.481,-2.895 0.012,0.024 -0.61,-2.86 0.008,0.024 -0.738,-2.813 0.012,0.024 -0.864,-2.762 0.012,0.024 -0.98,-2.707 0.011,0.023 -1.101,-2.648 0.012,0.019 -1.211,-2.586 0.007,0.02 -1.32,-2.528 0.012,0.02 -1.442,-2.457 0.024,0.019 -1.543,-2.39 0.012,0.019 -1.641,-2.308 0.012,0.007 -1.743,-2.238 0.012,0.02 -1.84,-2.153 0.02,0.012 -1.93,-2.078 0.02,0.019 -2.032,-1.992 0.02,0.02 -2.117,-1.899 0.019,0.02 -2.191,-1.801 0.019,0.012 -2.281,-1.711 0.024,0.012 -2.371,-1.602 0.019,0.012 -2.43,-1.5 0.02,0.008 -2.5,-1.391 0.019,0.012 -2.578,-1.282 0.02,0.012 -2.641,-1.172 0.02,0.012 -2.711,-1.051 h 0.019 l -2.769,-0.929 h 0.019 l -2.82,-0.801 0.024,0.011 -2.883,-0.691 0.019,0.012 -2.929,-0.563 0.019,0.012 -1.976,-0.281 z m 5.082,5.199 -6.148,-4.832 7.226,-2.98 c 0.262,-0.11 0.551,0.023 0.661,0.281 0.113,0.262 -0.008,0.559 -0.278,0.66 l -6.422,2.649 0.121,-0.868 5.469,4.289 c 0.223,0.168 0.262,0.489 0.082,0.711 -0.172,0.219 -0.492,0.258 -0.711,0.09 z" /><g
       id="g248"><g
         id="g250"><g
           clip-path="url(#clipPath256)"
           id="g252"><g
             id="g258"><text
               id="text262"
               style="font-variant:normal;font-weight:normal;font-size:28.02000046px;font-family:Calibri;-inkscape-font-specification:Calibri;writing-mode:lr-tb;fill:#7030a0;fill-opacity:1;fill-rule:nonzero;stroke:none"
               transform="translate(159.85595,418.97428)"><tspan
                 id="tspan260"
                 y="0"
                 x="0">θ</tspan></text>
</g></g></g></g><g
       id="g264"><g
         id="g266"><g
           clip-path="url(#clipPath272)"
           id="g268"><g
             id="g274"><text
               id="text278"
               style="font-variant:normal;font-weight:normal;font-size:18.65999985px;font-family:Calibri;-inkscape-font-specification:Calibri;writing-mode:lr-tb;fill:#7030a0;fill-opacity:1;fill-rule:nonzero;stroke:none"
               transform="translate(174.73595,425.93428)"><tspan
                 id="tspan276"
                 y="0"
                 x="0">1</tspan></text>
</g></g></g></g><path
       inkscape:connector-curvature="0"
       id="path280"
       style="fill:#70ad47;fill-opacity:1;fill-rule:nonzero;stroke:none"
       d="m 169.797,60.063 -0.082,2.73 -0.207,2.711 -0.313,2.68 -0.418,2.652 -0.531,2.609 -0.629,2.59 -0.742,2.539 -0.84,2.5 -0.937,2.449 -1.043,2.411 -1.129,2.359 -1.231,2.312 -1.308,2.25 -1.41,2.188 -1.493,2.133 -1.57,2.07 -1.656,2.02 -1.742,1.929 -1.821,1.868 -1.89,1.792 -1.969,1.719 -2.039,1.641 -2.109,1.551 -2.18,1.468 -2.242,1.391 -2.309,1.289 -2.371,1.211 -2.43,1.109 -2.48,1.012 -2.539,0.918 -2.602,0.809 -1.648,0.441 -0.27,-0.988 1.649,-0.442 -0.02,0.012 2.578,-0.801 h -0.027 l 2.519,-0.902 h -0.019 l 2.461,-1 -0.012,0.012 2.41,-1.11 -0.019,0.008 2.347,-1.187 -0.019,0.007 2.293,-1.277 -0.024,0.008 2.231,-1.379 -0.02,0.008 2.16,-1.457 -0.019,0.019 2.09,-1.55 -0.012,0.007 2.024,-1.617 -0.012,0.008 1.949,-1.699 -0.02,0.011 1.879,-1.781 -0.007,0.02 1.8,-1.848 -0.011,0.008 1.718,-1.918 -0.007,0.019 1.648,-2 -0.02,0.02 1.559,-2.062 -0.008,0.023 1.481,-2.113 -0.012,0.011 1.391,-2.171 -0.008,0.023 1.308,-2.242 -0.011,0.019 1.211,-2.289 -0.008,0.02 1.129,-2.34 -0.012,0.019 1.031,-2.39 -0.011,0.012 0.941,-2.43 -0.012,0.031 0.832,-2.492 -0.011,0.019 0.73,-2.519 v 0.019 l 0.633,-2.558 -0.012,0.019 0.531,-2.601 -0.011,0.019 0.422,-2.617 v 0.02 l 0.308,-2.66 v 0.019 l 0.199,-2.691 v 0.031 l 0.082,-2.719 z m -41.481,63.183 -7.539,-2.07 5.508,-5.543 c 0.199,-0.199 0.52,-0.199 0.723,-0.008 0.199,0.199 0.199,0.527 0,0.719 l -4.891,4.929 -0.23,-0.847 6.699,1.84 c 0.269,0.07 0.43,0.347 0.359,0.617 -0.078,0.281 -0.359,0.441 -0.629,0.363 z" /><g
       id="g282"><g
         id="g284"><g
           clip-path="url(#clipPath290)"
           id="g286"><g
             id="g292"><text
               id="text296"
               style="font-variant:normal;font-weight:normal;font-size:28.02000046px;font-family:Calibri;-inkscape-font-specification:Calibri;writing-mode:lr-tb;fill:#70ad47;fill-opacity:1;fill-rule:nonzero;stroke:none"
               transform="translate(168.37595,97.354289)"><tspan
                 id="tspan294"
                 y="0"
                 x="0">θ</tspan></text>
</g></g></g></g><g
       id="g298"><g
         id="g300"><g
           clip-path="url(#clipPath306)"
           id="g302"><g
             id="g308"><text
               id="text312"
               style="font-variant:normal;font-weight:normal;font-size:18.65999985px;font-family:Calibri;-inkscape-font-specification:Calibri;writing-mode:lr-tb;fill:#70ad47;fill-opacity:1;fill-rule:nonzero;stroke:none"
               transform="translate(183.25595,104.31429)"><tspan
                 id="tspan310"
                 y="0"
                 x="0">2</tspan></text>
</g></g></g></g><g
       transform="scale(1,-1)"
       id="g314"><path
         inkscape:connector-curvature="0"
         id="path316"
         style="fill:none;stroke:#7030a0;stroke-width:2.27999997;stroke-linecap:butt;stroke-linejoin:miter;stroke-miterlimit:10;stroke-dasharray:none;stroke-opacity:1"
         d="m 119.098,-150.613 -13.203,-116.25" /></g><g
       transform="scale(1,-1)"
       id="g318"><path
         inkscape:connector-curvature="0"
         id="path320"
         style="fill:none;stroke:#7030a0;stroke-width:2.27999997;stroke-linecap:butt;stroke-linejoin:miter;stroke-miterlimit:10;stroke-dasharray:none;stroke-opacity:1"
         d="m 152.645,-272.285 -47.11,5.812" /></g><g
       transform="scale(1,-1)"
       id="g322"><path
         inkscape:connector-curvature="0"
         id="path324"
         style="fill:none;stroke:#7030a0;stroke-width:2.27999997;stroke-linecap:butt;stroke-linejoin:miter;stroke-miterlimit:10;stroke-dasharray:none;stroke-opacity:1"
         d="m 165.957,-156.973 -13.199,-116.25" /></g><g
       transform="scale(1,-1)"
       id="g326"><path
         inkscape:connector-curvature="0"
         id="path328"
         style="fill:none;stroke:#7030a0;stroke-width:2.27999997;stroke-linecap:butt;stroke-linejoin:miter;stroke-miterlimit:10;stroke-dasharray:none;stroke-opacity:1"
         d="m 119.727,-151.004 -47.493,4.649" /></g><g
       transform="scale(1,-1)"
       id="g330"><path
         inkscape:connector-curvature="0"
         id="path332"
         style="fill:none;stroke:#7030a0;stroke-width:2.27999997;stroke-linecap:butt;stroke-linejoin:miter;stroke-miterlimit:10;stroke-dasharray:none;stroke-opacity:1"
         d="m 214.105,-162.402 -47.488,4.648" /></g><g
       id="g334"><g
         id="g336"><g
           clip-path="url(#clipPath342)"
           id="g338"><g
             id="g344"><g
               transform="scale(1,-1)"
               id="g346"><path
                 inkscape:connector-curvature="0"
                 id="path348"
                 style="fill:none;stroke:#7030a0;stroke-width:2.25;stroke-linecap:butt;stroke-linejoin:miter;stroke-miterlimit:10;stroke-dasharray:none;stroke-opacity:1"
                 d="m 261.324,-271.023 c -32.398,3.808 -55.976,29.66 -52.687,57.738" /></g></g></g></g></g><g
       transform="scale(1,-1)"
       id="g350"><path
         inkscape:connector-curvature="0"
         id="path352"
         style="fill:none;stroke:#7030a0;stroke-width:2.27999997;stroke-linecap:butt;stroke-linejoin:miter;stroke-miterlimit:10;stroke-dasharray:none;stroke-opacity:1"
         d="m 213.688,-162.254 -5.43,-52.172" /></g><g
       transform="scale(1,-1)"
       id="g354"><path
         inkscape:connector-curvature="0"
         id="path356"
         style="fill:none;stroke:#7030a0;stroke-width:2.27999997;stroke-linecap:butt;stroke-linejoin:miter;stroke-miterlimit:10;stroke-dasharray:none;stroke-opacity:1"
         d="m 72.688,-146.836 -5.43,-52.168" /></g><g
       id="g358"><g
         id="g360"><g
           clip-path="url(#clipPath366)"
           id="g362"><g
             id="g368"><g
               transform="scale(1,-1)"
               id="g370"><path
                 inkscape:connector-curvature="0"
                 id="path372"
                 style="fill:none;stroke:#7030a0;stroke-width:2.25;stroke-linecap:butt;stroke-linejoin:miter;stroke-miterlimit:10;stroke-dasharray:none;stroke-opacity:1"
                 d="m 2.965,-241.105 c 32.422,-3.809 61.383,15.859 64.672,43.941" /></g></g></g></g></g><path
       inkscape:connector-curvature="0"
       id="path374"
       style="fill:#000000;fill-opacity:1;fill-rule:nonzero;stroke:none"
       d="m 107.996,440.969 0.961,-430.406 h -1.019 l -0.961,430.402 z m 3.449,-429.395 -2.988,-6.011 -3.012,5.992 z" /><g
       transform="scale(1,-1)"
       id="g376"><path
         inkscape:connector-curvature="0"
         id="path378"
         style="fill:#ffffff;fill-opacity:1;fill-rule:evenodd;stroke:#000000;stroke-width:2.27999997;stroke-linecap:butt;stroke-linejoin:miter;stroke-miterlimit:10;stroke-dasharray:none;stroke-opacity:1"
         d="m 88.438,-58.543 c 0,10.188 8.25,18.449 18.417,18.449 10.172,0 18.422,-8.261 18.422,-18.449 0,-10.191 -8.25,-18.453 -18.422,-18.453 -10.167,0 -18.417,8.262 -18.417,18.453 z" /></g><g
       transform="scale(1,-1)"
       id="g380"><path
         inkscape:connector-curvature="0"
         id="path382"
         style="fill:none;stroke:#000000;stroke-width:2.27999997;stroke-linecap:butt;stroke-linejoin:miter;stroke-miterlimit:10;stroke-dasharray:none;stroke-opacity:1"
         d="M 57.895,-58.695 H 89.086" /></g><g
       id="g384"><g
         id="g386"><g
           clip-path="url(#clipPath392)"
           id="g388"><g
             id="g394"><text
               id="text398"
               style="font-variant:normal;font-weight:normal;font-size:28.02000046px;font-family:Calibri;-inkscape-font-specification:Calibri;writing-mode:lr-tb;fill:#000000;fill-opacity:1;fill-rule:nonzero;stroke:none"
               transform="translate(228.41595,47.29429)"><tspan
                 id="tspan396"
                 y="0"
                 x="0">x</tspan></text>
</g></g></g></g><g
       id="g400"><g
         id="g402"><g
           clip-path="url(#clipPath408)"
           id="g404"><g
             id="g410"><text
               id="text414"
               style="font-variant:normal;font-weight:normal;font-size:18.65999985px;font-family:Calibri;-inkscape-font-specification:Calibri;writing-mode:lr-tb;fill:#000000;fill-opacity:1;fill-rule:nonzero;stroke:none"
               transform="translate(240.53595,54.25429)"><tspan
                 id="tspan412"
                 y="0"
                 x="0">0</tspan></text>
</g></g></g></g><g
       id="g416"><g
         id="g418"><g
           clip-path="url(#clipPath424)"
           id="g420"><g
             id="g426"><text
               id="text430"
               style="font-variant:normal;font-weight:normal;font-size:28.02000046px;font-family:Calibri;-inkscape-font-specification:Calibri;writing-mode:lr-tb;fill:#000000;fill-opacity:1;fill-rule:nonzero;stroke:none"
               transform="translate(236.79595,447.53428)"><tspan
                 id="tspan428"
                 y="0"
                 x="0">x</tspan></text>
</g></g></g></g><g
       id="g432"><g
         id="g434"><g
           clip-path="url(#clipPath440)"
           id="g436"><g
             id="g442"><text
               id="text446"
               style="font-variant:normal;font-weight:normal;font-size:18.65999985px;font-family:Calibri;-inkscape-font-specification:Calibri;writing-mode:lr-tb;fill:#000000;fill-opacity:1;fill-rule:nonzero;stroke:none"
               transform="translate(248.91595,454.49428)"><tspan
                 id="tspan444"
                 y="0"
                 x="0">0</tspan></text>
</g></g></g></g><g
       id="g448"><g
         id="g450"><g
           clip-path="url(#clipPath456)"
           id="g452"><g
             id="g458"><text
               id="text462"
               style="font-variant:normal;font-weight:normal;font-size:28.02000046px;font-family:Calibri;-inkscape-font-specification:Calibri;writing-mode:lr-tb;fill:#000000;fill-opacity:1;fill-rule:nonzero;stroke:none"
               transform="translate(119.47595,15.914291)"><tspan
                 id="tspan460"
                 y="0"
                 x="0">y</tspan></text>
</g></g></g></g><g
       id="g464"><g
         id="g466"><g
           clip-path="url(#clipPath472)"
           id="g468"><g
             id="g474"><text
               id="text478"
               style="font-variant:normal;font-weight:normal;font-size:18.65999985px;font-family:Calibri;-inkscape-font-specification:Calibri;writing-mode:lr-tb;fill:#000000;fill-opacity:1;fill-rule:nonzero;stroke:none"
               transform="translate(132.13595,22.874291)"><tspan
                 id="tspan476"
                 y="0"
                 x="0">0</tspan></text>
</g></g></g></g></g></svg>