<?xml version="1.0" encoding="UTF-8" standalone="no"?>
<svg
   xmlns:dc="http://purl.org/dc/elements/1.1/"
   xmlns:cc="http://creativecommons.org/ns#"
   xmlns:rdf="http://www.w3.org/1999/02/22-rdf-syntax-ns#"
   xmlns:svg="http://www.w3.org/2000/svg"
   xmlns="http://www.w3.org/2000/svg"
   xmlns:xlink="http://www.w3.org/1999/xlink"
   xmlns:sodipodi="http://sodipodi.sourceforge.net/DTD/sodipodi-0.dtd"
   xmlns:inkscape="http://www.inkscape.org/namespaces/inkscape"
   color-rendering="auto"
   color-interpolation="auto"
   text-rendering="auto"
   width="403.125"
   stroke-miterlimit="10"
   shape-rendering="auto"
   font-weight="normal"
   viewBox="0 0 430 220"
   height="206.25"
   font-style="normal"
   font-size="12"
   image-rendering="auto"
   id="svg4105"
   version="1.1"
   inkscape:version="0.48.4 r"
   sodipodi:docname="Cas d'utilisation.svg"
   style="font-size:12px;font-style:normal;font-weight:normal;fill:#000000;fill-opacity:1;stroke:#000000;stroke-width:1;stroke-linecap:square;stroke-linejoin:miter;stroke-miterlimit:10;stroke-opacity:1;stroke-dasharray:none;stroke-dashoffset:0;font-family:Arial"
   inkscape:export-filename="D:\Documents\Corbu\Prepa\S01\TP01\Ilot_04_Capsuleuse\Ressources\Cas d'utilisation.png"
   inkscape:export-xdpi="136"
   inkscape:export-ydpi="136">
  <metadata
     id="metadata4214">
    <rdf:RDF>
      <cc:Work
         rdf:about="">
        <dc:format>image/svg+xml</dc:format>
        <dc:type
           rdf:resource="http://purl.org/dc/dcmitype/StillImage" />
        <dc:title></dc:title>
      </cc:Work>
    </rdf:RDF>
  </metadata>
  <sodipodi:namedview
     pagecolor="#ffffff"
     bordercolor="#666666"
     borderopacity="1"
     objecttolerance="10"
     gridtolerance="10"
     guidetolerance="10"
     inkscape:pageopacity="0"
     inkscape:pageshadow="2"
     inkscape:window-width="640"
     inkscape:window-height="480"
     id="namedview4212"
     showgrid="false"
     fit-margin-top="0"
     fit-margin-left="0"
     fit-margin-right="0"
     fit-margin-bottom="0"
     inkscape:zoom="0.99539718"
     inkscape:cx="206.25"
     inkscape:cy="98.4375"
     inkscape:window-x="0"
     inkscape:window-y="0"
     inkscape:window-maximized="0"
     inkscape:current-layer="svg4105" />
  <!--Generated by the Batik Graphics2D SVG Generator
 This is MagicDraw diagram.-->
  <defs
     id="genericDefs">
    <defs
       id="defs1">
      <linearGradient
         spreadMethod="pad"
         id="linearGradient1"
         y2="182"
         y1="35"
         x2="392"
         gradientUnits="userSpaceOnUse"
         x1="161">
        <stop
           id="stop4112"
           offset="0%"
           stop-color="rgb(212,221,255)"
           stop-opacity="1" />
        <stop
           id="stop4114"
           offset="100%"
           stop-color="white"
           stop-opacity="1" />
      </linearGradient>
      <linearGradient
         spreadMethod="pad"
         id="linearGradient2"
         y2="147"
         y1="70"
         x2="336"
         gradientUnits="userSpaceOnUse"
         x1="196">
        <stop
           id="stop4117"
           offset="0%"
           stop-color="rgb(255,255,204)"
           stop-opacity="1" />
        <stop
           id="stop4119"
           offset="100%"
           stop-color="white"
           stop-opacity="1" />
      </linearGradient>
      <linearGradient
         spreadMethod="pad"
         id="linearGradient3"
         y2="132"
         y1="77"
         x2="97"
         gradientUnits="userSpaceOnUse"
         x1="42">
        <stop
           id="stop4122"
           offset="0%"
           stop-color="rgb(255,255,204)"
           stop-opacity="1" />
        <stop
           id="stop4124"
           offset="100%"
           stop-color="white"
           stop-opacity="1" />
      </linearGradient>
      <clipPath
         id="clipPath1"
         clipPathUnits="userSpaceOnUse">
        <path
           id="path4127"
           d="m 0,-5 449,0 0,244 L 0,239 0,-5 z"
           inkscape:connector-curvature="0" />
      </clipPath>
      <clipPath
         id="clipPath2"
         clipPathUnits="userSpaceOnUse">
        <path
           id="path4130"
           d="m -63.0204,207.0805 95.3091,-418.2788 213.527,48.6543 -95.3091,418.2788 -213.527,-48.6543 z"
           inkscape:connector-curvature="0" />
      </clipPath>
    </defs>
    <linearGradient
       inkscape:collect="always"
       xlink:href="#linearGradient1"
       id="linearGradient4270"
       gradientUnits="userSpaceOnUse"
       spreadMethod="pad"
       x1="161"
       y1="35"
       x2="392"
       y2="182" />
    <linearGradient
       inkscape:collect="always"
       xlink:href="#linearGradient2"
       id="linearGradient4272"
       gradientUnits="userSpaceOnUse"
       spreadMethod="pad"
       x1="196"
       y1="70"
       x2="336"
       y2="147" />
    <linearGradient
       inkscape:collect="always"
       xlink:href="#linearGradient3"
       id="linearGradient4274"
       gradientUnits="userSpaceOnUse"
       spreadMethod="pad"
       x1="42"
       y1="77"
       x2="97"
       y2="132" />
  </defs>
  <g
     style="fill:#ffffff;stroke:#ffffff"
     id="g4132"
     transform="translate(-4.5,-4.5)">
    <rect
       style="stroke:none"
       id="rect4134"
       clip-path="url(#clipPath1)"
       y="5"
       height="219"
       width="429"
       x="5" />
  </g>
  <g
     style="fill:#424242;stroke:#424242;stroke-linecap:butt;stroke-linejoin:round"
     id="g4146"
     text-rendering="geometricPrecision"
     transform="translate(-4.5,-4.5)">
    <rect
       style="fill:none"
       id="rect4148"
       clip-path="url(#clipPath1)"
       y="5"
       height="219"
       width="429"
       x="5" />
    <path
       style="fill:#000000;stroke:none"
       inkscape:connector-curvature="0"
       id="path4150"
       clip-path="url(#clipPath1)"
       d="m 78.4688,15.7322 1.0468,0.2656 q -0.3281,1.2813 -1.1797,1.9609 -0.8515,0.6797 -2.0859,0.6797 -1.2812,0 -2.0781,-0.5234 -0.7969,-0.5234 -1.211,-1.5078 -0.414,-0.9844 -0.414,-2.1094 0,-1.2187 0.4687,-2.1406 0.4688,-0.9219 1.336,-1.3985 0.8672,-0.4765 1.914,-0.4765 1.1875,0 1.9922,0.6015 0.8047,0.6016 1.1172,1.6954 l -1.0312,0.25 q -0.2657,-0.8594 -0.7891,-1.25 -0.5235,-0.3907 -1.3047,-0.3907 -0.9219,0 -1.5312,0.4297 -0.6094,0.4297 -0.8516,1.1641 -0.2422,0.7344 -0.2422,1.5156 0,1 0.2891,1.75 0.289,0.75 0.9062,1.125 0.6172,0.375 1.3359,0.375 0.875,0 1.4844,-0.5078 0.6094,-0.5078 0.8282,-1.5078 z m 4.9843,2.0625 q -0.5469,0.4531 -1.039,0.6406 -0.4922,0.1875 -1.0703,0.1875 -0.9376,0 -1.4454,-0.4609 -0.5078,-0.461 -0.5078,-1.1641 0,-0.4219 0.1953,-0.7656 0.1953,-0.3438 0.5,-0.5547 0.3047,-0.2109 0.6953,-0.3203 0.2813,-0.0781 0.8594,-0.1406 1.1719,-0.1407 1.7188,-0.3438 0.0156,-0.1875 0.0156,-0.25 0,-0.5937 -0.2812,-0.8281 Q 82.7344,13.4666 82,13.4666 q -0.6875,0 -1.0078,0.2343 -0.3203,0.2344 -0.4766,0.8438 l -0.9531,-0.125 q 0.125,-0.6094 0.4219,-0.9844 0.2968,-0.375 0.8594,-0.5703 0.5624,-0.1953 1.2968,-0.1953 0.7344,0 1.1875,0.1719 0.4531,0.1718 0.6641,0.4296 0.2109,0.2579 0.3047,0.6485 0.0469,0.25 0.0469,0.9062 l 0,1.2813 q 0,1.3437 0.0624,1.7031 0.0626,0.3594 0.25,0.6875 l -1.0156,0 q -0.1562,-0.2969 -0.1875,-0.7031 z m -0.0937,-2.1563 q -0.5156,0.2188 -1.5782,0.3594 -0.5937,0.0938 -0.8359,0.1953 -0.2422,0.1016 -0.3828,0.3125 -0.1406,0.211 -0.1406,0.461 0,0.3906 0.2969,0.6484 0.2968,0.2578 0.8593,0.2578 0.5625,0 0.9922,-0.25 0.4297,-0.25 0.6485,-0.6719 0.1406,-0.3281 0.1406,-0.9687 l 0,-0.3438 z m 1.9844,1.1563 0.9531,-0.1563 q 0.0781,0.5782 0.4453,0.8828 0.3672,0.3047 1.0234,0.3047 0.6719,0 0.9922,-0.2656 0.3203,-0.2656 0.3203,-0.6406 0,-0.3281 -0.2812,-0.5156 -0.2031,-0.125 -0.9844,-0.3282 Q 86.75,15.8103 86.3359,15.615 85.9219,15.4197 85.7109,15.0759 85.5,14.7322 85.5,14.3103 q 0,-0.3906 0.1719,-0.7109 0.1719,-0.3203 0.4843,-0.5391 0.2188,-0.1719 0.6094,-0.2812 0.3906,-0.1094 0.8282,-0.1094 0.6718,0 1.1796,0.1875 0.5078,0.1875 0.75,0.5234 0.2422,0.336 0.336,0.8828 l -0.9375,0.125 q -0.0781,-0.4375 -0.3828,-0.6797 -0.3047,-0.2421 -0.8672,-0.2421 -0.6719,0 -0.9531,0.2187 -0.2813,0.2188 -0.2813,0.5156 0,0.1875 0.1094,0.3282 0.125,0.1562 0.375,0.2656 0.1406,0.0469 0.8593,0.25 1.0157,0.2656 1.4219,0.4375 0.4063,0.1719 0.6407,0.5078 0.2343,0.3359 0.2343,0.8359 0,0.4844 -0.2812,0.9063 -0.2813,0.4219 -0.8125,0.6562 -0.5313,0.2344 -1.2032,0.2344 -1.1093,0 -1.6953,-0.4609 -0.5859,-0.461 -0.7421,-1.3672 z m 13.0781,1.7031 0,-0.7187 q -0.5313,0.8437 -1.5938,0.8437 -0.6719,0 -1.25,-0.375 Q 95,17.8728 94.6875,17.2009 94.375,16.5291 94.375,15.6541 q 0,-0.8594 0.2891,-1.5547 0.289,-0.6953 0.8515,-1.0625 0.5625,-0.3672 1.2656,-0.3672 0.5157,0 0.9219,0.2187 0.4063,0.2188 0.6563,0.5625 l 0,-2.8281 0.9687,0 0,7.875 -0.9062,0 z M 95.375,15.6541 q 0,1.0937 0.4609,1.6328 0.461,0.539 1.086,0.539 0.6406,0 1.0781,-0.5156 0.4375,-0.5156 0.4375,-1.5781 0,-1.1719 -0.4453,-1.7188 -0.4453,-0.5468 -1.1172,-0.5468 -0.6406,0 -1.0703,0.5234 -0.4297,0.5234 -0.4297,1.6641 z m 5.3594,-2.25 -0.25,-1.4688 0,-1.3125 1.0937,0 0,1.3125 -0.25,1.4688 -0.5937,0 z m 5.7344,5.0937 0,-0.8437 q -0.6719,0.9687 -1.8126,0.9687 -0.5,0 -0.9453,-0.1953 -0.4453,-0.1953 -0.6562,-0.4844 -0.2109,-0.289 -0.2891,-0.7109 -0.0625,-0.2813 -0.0625,-0.9063 l 0,-3.5312 0.9688,0 0,3.1562 q 0,0.7657 0.0625,1.0313 0.0937,0.375 0.3828,0.5937 0.289,0.2188 0.7266,0.2188 0.4374,0 0.8203,-0.2266 0.3828,-0.2265 0.539,-0.6094 0.1563,-0.3828 0.1563,-1.1015 l 0,-3.0625 0.9687,0 0,5.7031 -0.8593,0 z m 4.375,-0.8594 0.125,0.8438 q -0.4063,0.0937 -0.7188,0.0937 -0.5312,0 -0.8203,-0.1718 -0.2891,-0.1719 -0.4063,-0.4375 -0.1172,-0.2657 -0.1172,-1.1407 l 0,-3.2812 -0.7187,0 0,-0.75 0.7187,0 0,-1.4063 0.9532,-0.5937 0,2 0.9844,0 0,0.75 -0.9844,0 0,3.3437 q 0,0.4063 0.0547,0.5235 0.0547,0.1172 0.1718,0.1875 0.1172,0.0703 0.3203,0.0703 0.1719,0 0.4376,-0.0313 z m 0.8906,-5.9062 0,-1.1094 0.9687,0 0,1.1094 -0.9687,0 z m 0,6.7656 0,-5.7031 0.9687,0 0,5.7031 -0.9687,0 z m 1.9687,0 0,-7.875 0.9688,0 0,7.875 -0.9688,0 z m 2.0313,-6.7656 0,-1.1094 0.9687,0 0,1.1094 -0.9687,0 z m 0,6.7656 0,-5.7031 0.9687,0 0,5.7031 -0.9687,0 z m 1.6094,-1.7031 0.9531,-0.1563 q 0.0781,0.5782 0.4453,0.8828 0.3672,0.3047 1.0234,0.3047 0.6719,0 0.9922,-0.2656 0.3203,-0.2656 0.3203,-0.6406 0,-0.3281 -0.2812,-0.5156 -0.2031,-0.125 -0.9844,-0.3282 -1.0625,-0.2656 -1.4766,-0.4609 -0.414,-0.1953 -0.625,-0.5391 -0.2109,-0.3437 -0.2109,-0.7656 0,-0.3906 0.1719,-0.7109 0.1719,-0.3203 0.4843,-0.5391 0.2188,-0.1719 0.6094,-0.2812 0.3906,-0.1094 0.8282,-0.1094 0.6718,0 1.1796,0.1875 0.5078,0.1875 0.75,0.5234 0.2422,0.336 0.336,0.8828 l -0.9375,0.125 q -0.0781,-0.4375 -0.3828,-0.6797 -0.3047,-0.2421 -0.8672,-0.2421 -0.6719,0 -0.9531,0.2187 -0.2813,0.2188 -0.2813,0.5156 0,0.1875 0.1094,0.3282 0.125,0.1562 0.375,0.2656 0.1406,0.0469 0.8593,0.25 1.0157,0.2656 1.4219,0.4375 0.4063,0.1719 0.6407,0.5078 0.2343,0.3359 0.2343,0.8359 0,0.4844 -0.2812,0.9063 -0.2813,0.4219 -0.8125,0.6562 -0.5313,0.2344 -1.2032,0.2344 -1.1093,0 -1.6953,-0.4609 -0.5859,-0.461 -0.7421,-1.3672 z m 10.1093,1 q -0.5469,0.4531 -1.039,0.6406 -0.4922,0.1875 -1.0703,0.1875 -0.9376,0 -1.4454,-0.4609 -0.5078,-0.461 -0.5078,-1.1641 0,-0.4219 0.1953,-0.7656 0.1953,-0.3438 0.5,-0.5547 0.3047,-0.2109 0.6953,-0.3203 0.2813,-0.0781 0.8594,-0.1406 1.1719,-0.1407 1.7188,-0.3438 0.0156,-0.1875 0.0156,-0.25 0,-0.5937 -0.2812,-0.8281 -0.3594,-0.3281 -1.0938,-0.3281 -0.6875,0 -1.0078,0.2343 -0.3203,0.2344 -0.4766,0.8438 l -0.9531,-0.125 q 0.125,-0.6094 0.4219,-0.9844 0.2968,-0.375 0.8594,-0.5703 0.5624,-0.1953 1.2968,-0.1953 0.7344,0 1.1875,0.1719 0.4531,0.1718 0.6641,0.4296 0.2109,0.2579 0.3047,0.6485 0.0469,0.25 0.0469,0.9062 l 0,1.2813 q 0,1.3437 0.0624,1.7031 0.0626,0.3594 0.25,0.6875 l -1.0156,0 q -0.1562,-0.2969 -0.1875,-0.7031 z m -0.0937,-2.1563 q -0.5156,0.2188 -1.5782,0.3594 -0.5937,0.0938 -0.8359,0.1953 -0.2422,0.1016 -0.3828,0.3125 -0.1406,0.211 -0.1406,0.461 0,0.3906 0.2969,0.6484 0.2968,0.2578 0.8593,0.2578 0.5625,0 0.9922,-0.25 0.4297,-0.25 0.6485,-0.6719 0.1406,-0.3281 0.1406,-0.9687 l 0,-0.3438 z m 4.4844,2 0.125,0.8438 q -0.4063,0.0937 -0.7188,0.0937 -0.5312,0 -0.8203,-0.1718 -0.2891,-0.1719 -0.4063,-0.4375 -0.1172,-0.2657 -0.1172,-1.1407 l 0,-3.2812 -0.7187,0 0,-0.75 0.7187,0 0,-1.4063 0.9532,-0.5937 0,2 0.9844,0 0,0.75 -0.9844,0 0,3.3437 q 0,0.4063 0.0547,0.5235 0.0547,0.1172 0.1718,0.1875 0.1172,0.0703 0.3203,0.0703 0.1719,0 0.4376,-0.0313 z m 0.8906,-5.9062 0,-1.1094 0.9687,0 0,1.1094 -0.9687,0 z m 0,6.7656 0,-5.7031 0.9687,0 0,5.7031 -0.9687,0 z m 1.625,-2.8594 q 0,-1.5781 0.8906,-2.3437 0.7344,-0.625 1.7969,-0.625 1.1719,0 1.914,0.7656 0.7422,0.7656 0.7422,2.125 0,1.1094 -0.3281,1.7422 -0.3281,0.6328 -0.9609,0.9766 -0.6329,0.3437 -1.3672,0.3437 -1.2031,0 -1.9453,-0.7656 -0.7422,-0.7656 -0.7422,-2.2188 z m 1,0 q 0,1.1094 0.4765,1.6485 0.4766,0.539 1.211,0.539 0.7187,0 1.1953,-0.5468 0.4766,-0.5469 0.4766,-1.6719 0,-1.0469 -0.4844,-1.5938 -0.4844,-0.5468 -1.1875,-0.5468 -0.7344,0 -1.211,0.539 -0.4765,0.5391 -0.4765,1.6328 z m 5.3594,2.8594 0,-5.7031 0.875,0 0,0.8125 q 0.625,-0.9375 1.8124,-0.9375 0.5157,0 0.9532,0.1797 0.4375,0.1797 0.6484,0.4843 0.211,0.3047 0.3047,0.711 0.0469,0.2812 0.0469,0.9531 l 0,3.5 -0.9688,0 0,-3.4687 q 0,-0.5938 -0.1094,-0.8829 -0.1093,-0.289 -0.3984,-0.4687 -0.289,-0.1797 -0.6797,-0.1797 -0.6093,0 -1.0625,0.3906 -0.4531,0.3907 -0.4531,1.5 l 0,3.1094 -0.9687,0 z" />
    <path
       style="fill:#000000;stroke:none"
       inkscape:connector-curvature="0"
       id="path4152"
       clip-path="url(#clipPath1)"
       d="m 161.4688,15.7322 1.0468,0.2656 q -0.3281,1.2813 -1.1797,1.9609 -0.8515,0.6797 -2.0859,0.6797 -1.2812,0 -2.0781,-0.5234 -0.7969,-0.5234 -1.211,-1.5078 -0.414,-0.9844 -0.414,-2.1094 0,-1.2187 0.4687,-2.1406 0.4688,-0.9219 1.336,-1.3985 0.8672,-0.4765 1.914,-0.4765 1.1875,0 1.9922,0.6015 0.8047,0.6016 1.1172,1.6954 l -1.0312,0.25 q -0.2657,-0.8594 -0.7891,-1.25 -0.5235,-0.3907 -1.3047,-0.3907 -0.9219,0 -1.5312,0.4297 -0.6094,0.4297 -0.8516,1.1641 -0.2422,0.7344 -0.2422,1.5156 0,1 0.2891,1.75 0.289,0.75 0.9062,1.125 0.6172,0.375 1.3359,0.375 0.875,0 1.4844,-0.5078 0.6094,-0.5078 0.8282,-1.5078 z m 4.9843,2.0625 q -0.5469,0.4531 -1.039,0.6406 -0.4922,0.1875 -1.0703,0.1875 -0.9376,0 -1.4454,-0.4609 -0.5078,-0.461 -0.5078,-1.1641 0,-0.4219 0.1953,-0.7656 0.1953,-0.3438 0.5,-0.5547 0.3047,-0.2109 0.6953,-0.3203 0.2813,-0.0781 0.8594,-0.1406 1.1719,-0.1407 1.7188,-0.3438 0.0156,-0.1875 0.0156,-0.25 0,-0.5937 -0.2812,-0.8281 -0.3594,-0.3281 -1.0938,-0.3281 -0.6875,0 -1.0078,0.2343 -0.3203,0.2344 -0.4766,0.8438 l -0.9531,-0.125 q 0.125,-0.6094 0.4219,-0.9844 0.2968,-0.375 0.8594,-0.5703 0.5624,-0.1953 1.2968,-0.1953 0.7344,0 1.1875,0.1719 0.4531,0.1718 0.6641,0.4296 0.2109,0.2579 0.3047,0.6485 0.0469,0.25 0.0469,0.9062 l 0,1.2813 q 0,1.3437 0.0624,1.7031 0.0626,0.3594 0.25,0.6875 l -1.0156,0 q -0.1562,-0.2969 -0.1875,-0.7031 z m -0.0937,-2.1563 q -0.5156,0.2188 -1.5782,0.3594 -0.5937,0.0938 -0.8359,0.1953 -0.2422,0.1016 -0.3828,0.3125 -0.1406,0.211 -0.1406,0.461 0,0.3906 0.2969,0.6484 0.2968,0.2578 0.8593,0.2578 0.5625,0 0.9922,-0.25 0.4297,-0.25 0.6485,-0.6719 0.1406,-0.3281 0.1406,-0.9687 l 0,-0.3438 z m 1.9844,1.1563 0.9531,-0.1563 q 0.0781,0.5782 0.4453,0.8828 0.3672,0.3047 1.0234,0.3047 0.6719,0 0.9922,-0.2656 0.3203,-0.2656 0.3203,-0.6406 0,-0.3281 -0.2812,-0.5156 -0.2031,-0.125 -0.9844,-0.3282 -1.0625,-0.2656 -1.4766,-0.4609 -0.414,-0.1953 -0.625,-0.5391 -0.2109,-0.3437 -0.2109,-0.7656 0,-0.3906 0.1719,-0.7109 0.1719,-0.3203 0.4843,-0.5391 0.2188,-0.1719 0.6094,-0.2812 0.3906,-0.1094 0.8282,-0.1094 0.6718,0 1.1796,0.1875 0.5078,0.1875 0.75,0.5234 0.2422,0.336 0.336,0.8828 l -0.9375,0.125 q -0.0781,-0.4375 -0.3828,-0.6797 -0.3047,-0.2421 -0.8672,-0.2421 -0.6719,0 -0.9531,0.2187 -0.2813,0.2188 -0.2813,0.5156 0,0.1875 0.1094,0.3282 0.125,0.1562 0.375,0.2656 0.1406,0.0469 0.8593,0.25 1.0157,0.2656 1.4219,0.4375 0.4063,0.1719 0.6407,0.5078 0.2343,0.3359 0.2343,0.8359 0,0.4844 -0.2812,0.9063 -0.2813,0.4219 -0.8125,0.6562 -0.5313,0.2344 -1.2032,0.2344 -1.1093,0 -1.6953,-0.4609 -0.5859,-0.461 -0.7421,-1.3672 z m 13.0781,1.7031 0,-0.7187 q -0.5313,0.8437 -1.5938,0.8437 -0.6719,0 -1.25,-0.375 -0.5781,-0.375 -0.8906,-1.0469 -0.3125,-0.6718 -0.3125,-1.5468 0,-0.8594 0.2891,-1.5547 0.289,-0.6953 0.8515,-1.0625 0.5625,-0.3672 1.2656,-0.3672 0.5157,0 0.9219,0.2187 0.4063,0.2188 0.6563,0.5625 l 0,-2.8281 0.9687,0 0,7.875 -0.9062,0 z m -3.0469,-2.8437 q 0,1.0937 0.4609,1.6328 0.461,0.539 1.086,0.539 0.6406,0 1.0781,-0.5156 0.4375,-0.5156 0.4375,-1.5781 0,-1.1719 -0.4453,-1.7188 -0.4453,-0.5468 -1.1172,-0.5468 -0.6406,0 -1.0703,0.5234 -0.4297,0.5234 -0.4297,1.6641 z m 5.3594,-2.25 -0.25,-1.4688 0,-1.3125 1.0937,0 0,1.3125 -0.25,1.4688 -0.5937,0 z m 5.7344,5.0937 0,-0.8437 q -0.6719,0.9687 -1.8126,0.9687 -0.5,0 -0.9453,-0.1953 -0.4453,-0.1953 -0.6562,-0.4844 -0.2109,-0.289 -0.2891,-0.7109 -0.0625,-0.2813 -0.0625,-0.9063 l 0,-3.5312 0.9688,0 0,3.1562 q 0,0.7657 0.0625,1.0313 0.0937,0.375 0.3828,0.5937 0.289,0.2188 0.7266,0.2188 0.4374,0 0.8203,-0.2266 0.3828,-0.2265 0.539,-0.6094 0.1563,-0.3828 0.1563,-1.1015 l 0,-3.0625 0.9687,0 0,5.7031 -0.8593,0 z m 4.375,-0.8594 0.125,0.8438 q -0.4063,0.0937 -0.7188,0.0937 -0.5312,0 -0.8203,-0.1718 -0.2891,-0.1719 -0.4063,-0.4375 -0.1172,-0.2657 -0.1172,-1.1407 l 0,-3.2812 -0.7187,0 0,-0.75 0.7187,0 0,-1.4063 0.9532,-0.5937 0,2 0.9844,0 0,0.75 -0.9844,0 0,3.3437 q 0,0.4063 0.0547,0.5235 0.0547,0.1172 0.1718,0.1875 0.1172,0.0703 0.3203,0.0703 0.1719,0 0.4376,-0.0313 z m 0.8906,-5.9062 0,-1.1094 0.9687,0 0,1.1094 -0.9687,0 z m 0,6.7656 0,-5.7031 0.9687,0 0,5.7031 -0.9687,0 z m 1.9687,0 0,-7.875 0.9688,0 0,7.875 -0.9688,0 z m 2.0313,-6.7656 0,-1.1094 0.9687,0 0,1.1094 -0.9687,0 z m 0,6.7656 0,-5.7031 0.9687,0 0,5.7031 -0.9687,0 z m 1.6094,-1.7031 0.9531,-0.1563 q 0.0781,0.5782 0.4453,0.8828 0.3672,0.3047 1.0234,0.3047 0.6719,0 0.9922,-0.2656 0.3203,-0.2656 0.3203,-0.6406 0,-0.3281 -0.2812,-0.5156 -0.2031,-0.125 -0.9844,-0.3282 -1.0625,-0.2656 -1.4766,-0.4609 -0.414,-0.1953 -0.625,-0.5391 -0.2109,-0.3437 -0.2109,-0.7656 0,-0.3906 0.1719,-0.7109 0.1719,-0.3203 0.4843,-0.5391 0.2188,-0.1719 0.6094,-0.2812 0.3906,-0.1094 0.8282,-0.1094 0.6718,0 1.1796,0.1875 0.5078,0.1875 0.75,0.5234 0.2422,0.336 0.336,0.8828 l -0.9375,0.125 q -0.0781,-0.4375 -0.3828,-0.6797 -0.3047,-0.2421 -0.8672,-0.2421 -0.6719,0 -0.9531,0.2187 -0.2813,0.2188 -0.2813,0.5156 0,0.1875 0.1094,0.3282 0.125,0.1562 0.375,0.2656 0.1406,0.0469 0.8593,0.25 1.0157,0.2656 1.4219,0.4375 0.4063,0.1719 0.6407,0.5078 0.2343,0.3359 0.2343,0.8359 0,0.4844 -0.2812,0.9063 -0.2813,0.4219 -0.8125,0.6562 -0.5313,0.2344 -1.2032,0.2344 -1.1093,0 -1.6953,-0.4609 -0.5859,-0.461 -0.7421,-1.3672 z m 10.1093,1 q -0.5469,0.4531 -1.039,0.6406 -0.4922,0.1875 -1.0703,0.1875 -0.9376,0 -1.4454,-0.4609 -0.5078,-0.461 -0.5078,-1.1641 0,-0.4219 0.1953,-0.7656 0.1953,-0.3438 0.5,-0.5547 0.3047,-0.2109 0.6953,-0.3203 0.2813,-0.0781 0.8594,-0.1406 1.1719,-0.1407 1.7188,-0.3438 0.0156,-0.1875 0.0156,-0.25 0,-0.5937 -0.2812,-0.8281 -0.3594,-0.3281 -1.0938,-0.3281 -0.6875,0 -1.0078,0.2343 -0.3203,0.2344 -0.4766,0.8438 l -0.9531,-0.125 q 0.125,-0.6094 0.4219,-0.9844 0.2968,-0.375 0.8594,-0.5703 0.5624,-0.1953 1.2968,-0.1953 0.7344,0 1.1875,0.1719 0.4531,0.1718 0.6641,0.4296 0.2109,0.2579 0.3047,0.6485 0.0469,0.25 0.0469,0.9062 l 0,1.2813 q 0,1.3437 0.0624,1.7031 0.0626,0.3594 0.25,0.6875 l -1.0156,0 q -0.1562,-0.2969 -0.1875,-0.7031 z m -0.0937,-2.1563 q -0.5156,0.2188 -1.5782,0.3594 -0.5937,0.0938 -0.8359,0.1953 -0.2422,0.1016 -0.3828,0.3125 -0.1406,0.211 -0.1406,0.461 0,0.3906 0.2969,0.6484 0.2968,0.2578 0.8593,0.2578 0.5625,0 0.9922,-0.25 0.4297,-0.25 0.6485,-0.6719 0.1406,-0.3281 0.1406,-0.9687 l 0,-0.3438 z m 4.4844,2 0.125,0.8438 q -0.4063,0.0937 -0.7188,0.0937 -0.5312,0 -0.8203,-0.1718 -0.2891,-0.1719 -0.4063,-0.4375 -0.1172,-0.2657 -0.1172,-1.1407 l 0,-3.2812 -0.7187,0 0,-0.75 0.7187,0 0,-1.4063 0.9532,-0.5937 0,2 0.9844,0 0,0.75 -0.9844,0 0,3.3437 q 0,0.4063 0.0547,0.5235 0.0547,0.1172 0.1718,0.1875 0.1172,0.0703 0.3203,0.0703 0.1719,0 0.4376,-0.0313 z m 0.8906,-5.9062 0,-1.1094 0.9687,0 0,1.1094 -0.9687,0 z m 0,6.7656 0,-5.7031 0.9687,0 0,5.7031 -0.9687,0 z m 1.625,-2.8594 q 0,-1.5781 0.8906,-2.3437 0.7344,-0.625 1.7969,-0.625 1.1719,0 1.914,0.7656 0.7422,0.7656 0.7422,2.125 0,1.1094 -0.3281,1.7422 -0.3281,0.6328 -0.9609,0.9766 -0.6329,0.3437 -1.3672,0.3437 -1.2031,0 -1.9453,-0.7656 -0.7422,-0.7656 -0.7422,-2.2188 z m 1,0 q 0,1.1094 0.4765,1.6485 0.4766,0.539 1.211,0.539 0.7187,0 1.1953,-0.5468 0.4766,-0.5469 0.4766,-1.6719 0,-1.0469 -0.4844,-1.5938 -0.4844,-0.5468 -1.1875,-0.5468 -0.7344,0 -1.211,0.539 -0.4765,0.5391 -0.4765,1.6328 z m 5.3594,2.8594 0,-5.7031 0.875,0 0,0.8125 q 0.625,-0.9375 1.8124,-0.9375 0.5157,0 0.9532,0.1797 0.4375,0.1797 0.6484,0.4843 0.211,0.3047 0.3047,0.711 0.0469,0.2812 0.0469,0.9531 l 0,3.5 -0.9688,0 0,-3.4687 q 0,-0.5938 -0.1094,-0.8829 -0.1093,-0.289 -0.3984,-0.4687 -0.289,-0.1797 -0.6797,-0.1797 -0.6093,0 -1.0625,0.3906 -0.4531,0.3907 -0.4531,1.5 l 0,3.1094 -0.9687,0 z" />
    <path
       style="fill:#000000;stroke:none"
       inkscape:connector-curvature="0"
       id="path4154"
       clip-path="url(#clipPath1)"
       d="m 29.75,20.6853 0,-10.0625 2.125,0 0,0.7969 -1.1562,0 0,8.4687 1.1562,0 0,0.7969 -2.125,0 z m 3.0938,-2.1875 0,-7.875 2.9687,0 q 0.7969,0 1.2031,0.0781 0.5782,0.0938 0.9688,0.3672 0.3906,0.2735 0.6328,0.7578 0.2422,0.4844 0.2422,1.0782 0,1 -0.6406,1.6953 -0.6407,0.6953 -2.3126,0.6953 l -2.0156,0 0,3.2031 -1.0468,0 z m 1.0468,-4.125 2.0313,0 q 1.0156,0 1.4375,-0.375 0.4218,-0.375 0.4218,-1.0625 0,-0.5 -0.25,-0.8516 -0.25,-0.3515 -0.6562,-0.4609 -0.2656,-0.0625 -0.9688,-0.0625 l -2.0156,0 0,2.8125 z m 8.5625,3.4219 q -0.5469,0.4531 -1.039,0.6406 -0.4922,0.1875 -1.0703,0.1875 -0.9376,0 -1.4454,-0.4609 -0.5078,-0.461 -0.5078,-1.1641 0,-0.4219 0.1953,-0.7656 0.1953,-0.3438 0.5,-0.5547 0.3047,-0.2109 0.6953,-0.3203 0.2813,-0.0781 0.8594,-0.1406 1.1719,-0.1407 1.7188,-0.3438 0.0156,-0.1875 0.0156,-0.25 0,-0.5937 -0.2812,-0.8281 Q 41.7344,13.4666 41,13.4666 q -0.6875,0 -1.0078,0.2343 -0.3203,0.2344 -0.4766,0.8438 l -0.9531,-0.125 q 0.125,-0.6094 0.4219,-0.9844 0.2968,-0.375 0.8594,-0.5703 0.5624,-0.1953 1.2968,-0.1953 0.7344,0 1.1875,0.1719 0.4531,0.1718 0.6641,0.4296 0.2109,0.2579 0.3047,0.6485 0.0469,0.25 0.0469,0.9062 l 0,1.2813 q 0,1.3437 0.0624,1.7031 0.0626,0.3594 0.25,0.6875 l -1.0156,0 q -0.1562,-0.2969 -0.1875,-0.7031 z m -0.0937,-2.1563 q -0.5156,0.2188 -1.5782,0.3594 -0.5937,0.0938 -0.8359,0.1953 -0.2422,0.1016 -0.3828,0.3125 -0.1406,0.211 -0.1406,0.461 0,0.3906 0.2969,0.6484 0.2968,0.2578 0.8593,0.2578 0.5625,0 0.9922,-0.25 0.4297,-0.25 0.6485,-0.6719 0.1406,-0.3281 0.1406,-0.9687 l 0,-0.3438 z m 6,5.0469 0,-2.7969 q -0.2188,0.3125 -0.625,0.5235 -0.4063,0.2109 -0.8594,0.2109 -1.0156,0 -1.75,-0.8125 -0.7344,-0.8125 -0.7344,-2.2187 0,-0.8594 0.2969,-1.5391 0.2969,-0.6797 0.8594,-1.0313 0.5625,-0.3515 1.25,-0.3515 1.0469,0 1.6562,0.8906 l 0,-0.7656 0.875,0 0,7.8906 -0.9687,0 z M 45.375,15.6228 q 0,1.1094 0.4609,1.6563 0.461,0.5468 1.1172,0.5468 0.6094,0 1.0547,-0.5234 0.4453,-0.5234 0.4453,-1.5859 0,-1.1407 -0.4687,-1.7188 -0.4688,-0.5781 -1.0938,-0.5781 -0.6406,0 -1.0781,0.539 -0.4375,0.5391 -0.4375,1.6641 z m 9.0938,2.875 0,-0.8437 q -0.6719,0.9687 -1.8126,0.9687 -0.5,0 -0.9453,-0.1953 -0.4453,-0.1953 -0.6562,-0.4844 -0.2109,-0.289 -0.2891,-0.7109 -0.0625,-0.2813 -0.0625,-0.9063 l 0,-3.5312 0.9688,0 0,3.1562 q 0,0.7657 0.0625,1.0313 0.0937,0.375 0.3828,0.5937 0.289,0.2188 0.7266,0.2188 0.4374,0 0.8203,-0.2266 0.3828,-0.2265 0.539,-0.6094 0.1563,-0.3828 0.1563,-1.1015 l 0,-3.0625 0.9687,0 0,5.7031 -0.8593,0 z m 6.1562,-1.8437 1,0.125 q -0.2344,0.875 -0.875,1.3593 -0.6406,0.4844 -1.625,0.4844 -1.25,0 -1.9844,-0.7656 -0.7344,-0.7656 -0.7344,-2.1563 0,-1.4531 0.7422,-2.2422 0.7422,-0.789 1.9141,-0.789 1.1563,0 1.875,0.7734 0.7187,0.7735 0.7187,2.1953 0,0.0782 0,0.25 l -4.25,0 q 0.0469,0.9375 0.5235,1.4375 0.4765,0.5 1.1953,0.5 0.5312,0 0.9062,-0.2734 0.375,-0.2734 0.5938,-0.8984 z m -3.1719,-1.5625 3.1875,0 q -0.0625,-0.7188 -0.3594,-1.0782 -0.4687,-0.5468 -1.2031,-0.5468 -0.6719,0 -1.125,0.4453 -0.4531,0.4453 -0.5,1.1797 z m 7.3907,2.5468 0.125,0.8438 q -0.4063,0.0937 -0.7188,0.0937 -0.5312,0 -0.8203,-0.1718 -0.2891,-0.1719 -0.4063,-0.4375 -0.1172,-0.2657 -0.1172,-1.1407 l 0,-3.2812 -0.7187,0 0,-0.75 0.7187,0 0,-1.4063 0.9532,-0.5937 0,2 0.9844,0 0,0.75 -0.9844,0 0,3.3437 q 0,0.4063 0.0547,0.5235 0.0547,0.1172 0.1718,0.1875 0.1172,0.0703 0.3203,0.0703 0.1719,0 0.4376,-0.0313 z m 2.5,3.0469 -2.1407,0 0,-0.7969 1.1719,0 0,-8.4687 -1.1719,0 0,-0.7969 2.1407,0 0,10.0625 z" />
    <path
       style="fill:#000000;stroke:none"
       inkscape:connector-curvature="0"
       id="path4156"
       clip-path="url(#clipPath1)"
       d="m 16.5469,18.4978 0,-0.8594 q -0.3125,0.4688 -0.8203,0.7266 -0.5078,0.2578 -1.0704,0.2578 -0.5781,0 -1.0312,-0.25 -0.4531,-0.25 -0.6641,-0.7109 Q 12.75,17.2009 12.75,16.4041 l 0,-3.6094 1.5156,0 0,2.625 q 0,1.2031 0.086,1.4687 0.0859,0.2657 0.3046,0.4297 0.2188,0.1641 0.5626,0.1641 0.375,0 0.6874,-0.211 0.3126,-0.2109 0.4219,-0.5312 0.1094,-0.3203 0.1094,-1.5391 l 0,-2.4062 1.5156,0 0,5.7031 -1.4062,0 z m 8.2187,-4.0156 -1.4844,0.2656 q -0.0781,-0.4375 -0.3437,-0.6641 -0.2656,-0.2265 -0.6875,-0.2265 -0.5625,0 -0.8984,0.3828 -0.336,0.3828 -0.336,1.3047 0,1.0156 0.336,1.4375 0.3359,0.4219 0.914,0.4219 0.4375,0 0.711,-0.25 0.2734,-0.25 0.3828,-0.8438 l 1.4844,0.25 q -0.2344,1.0313 -0.8907,1.5469 -0.6562,0.5156 -1.75,0.5156 -1.2656,0 -2.0078,-0.7891 -0.7422,-0.789 -0.7422,-2.1796 0,-1.4219 0.75,-2.2032 0.75,-0.7812 2.0157,-0.7812 1.0468,0 1.664,0.4453 0.6172,0.4453 0.8828,1.3672 z" />
    <path
       style="fill:#000000;stroke:none"
       inkscape:connector-curvature="0"
       id="path4158"
       clip-path="url(#clipPath1)"
       d="m 148.75,20.6853 0,-10.0625 2.125,0 0,0.7969 -1.1562,0 0,8.4687 1.1562,0 0,0.7969 -2.125,0 z" />
    <path
       style="fill:#000000;stroke:none"
       inkscape:connector-curvature="0"
       id="path4160"
       clip-path="url(#clipPath1)"
       d="m 235.3438,20.6853 -2.1407,0 0,-0.7969 1.1719,0 0,-8.4687 -1.1719,0 0,-0.7969 2.1407,0 0,10.0625 z" />
    <line
       style="fill:none"
       id="line4162"
       y1="23"
       x2="231"
       clip-path="url(#clipPath1)"
       x1="5"
       y2="23" />
    <line
       style="fill:none"
       id="line4164"
       y1="5"
       x2="240"
       clip-path="url(#clipPath1)"
       x1="240"
       y2="17" />
    <line
       style="fill:none"
       id="line4166"
       y1="23"
       x2="240"
       clip-path="url(#clipPath1)"
       x1="231"
       y2="17" />
    <rect
       style="fill:#b2b2b2;stroke:none"
       id="rect4168"
       height="147"
       width="231"
       clip-path="url(#clipPath1)"
       y="38"
       x="164" />
    <rect
       style="fill:url(#linearGradient4270);stroke:none"
       id="rect4170"
       height="147"
       width="231"
       clip-path="url(#clipPath1)"
       y="35"
       x="161" />
    <rect
       style="fill:none;stroke:#6b7599"
       id="rect4172"
       height="147"
       width="231"
       clip-path="url(#clipPath1)"
       y="35"
       x="161" />
    <ellipse
       style="fill:#b2b2b2;stroke:none"
       sodipodi:ry="38.5"
       sodipodi:rx="70"
       sodipodi:cy="111.5"
       sodipodi:cx="269"
       id="ellipse4174"
       cy="111.5"
       ry="38.5"
       cx="269"
       rx="70"
       clip-path="url(#clipPath1)"
       d="m 339,111.5 c 0,21.26296 -31.34007,38.5 -70,38.5 -38.65993,0 -70,-17.23704 -70,-38.5 0,-21.262963 31.34007,-38.5 70,-38.5 38.65993,0 70,17.237037 70,38.5 z" />
    <ellipse
       sodipodi:ry="38.5"
       sodipodi:rx="70"
       sodipodi:cy="108.5"
       sodipodi:cx="266"
       style="fill:url(#linearGradient4272);stroke:none"
       id="ellipse4176"
       cy="108.5"
       ry="38.5"
       cx="266"
       rx="70"
       clip-path="url(#clipPath1)"
       d="m 336,108.5 c 0,21.26296 -31.34007,38.5 -70,38.5 -38.65993,0 -70,-17.23704 -70,-38.5 0,-21.262963 31.34007,-38.5 70,-38.5 38.65993,0 70,17.237037 70,38.5 z" />
    <ellipse
       style="fill:none;stroke:#666647"
       sodipodi:ry="38.5"
       sodipodi:rx="70"
       sodipodi:cy="108.5"
       sodipodi:cx="266"
       id="ellipse4178"
       cy="108.5"
       ry="38.5"
       cx="266"
       rx="70"
       clip-path="url(#clipPath1)"
       d="m 336,108.5 c 0,21.26296 -31.34007,38.5 -70,38.5 -38.65993,0 -70,-17.23704 -70,-38.5 0,-21.262963 31.34007,-38.5 70,-38.5 38.65993,0 70,17.237037 70,38.5 z" />
    <line
       style="fill:none;stroke:#b2b2b2"
       id="line4180"
       y2="114"
       y1="95"
       x2="70"
       x1="70"
       clip-path="url(#clipPath1)" />
    <line
       style="fill:none;stroke:#b2b2b2"
       id="line4182"
       y2="105"
       y1="105"
       x2="97"
       x1="43"
       clip-path="url(#clipPath1)" />
    <line
       style="fill:none;stroke:#b2b2b2"
       id="line4184"
       y2="114"
       y1="133"
       x2="70"
       x1="43"
       clip-path="url(#clipPath1)" />
    <line
       style="fill:none;stroke:#b2b2b2"
       id="line4186"
       y2="114"
       y1="133"
       x2="70"
       x1="97"
       clip-path="url(#clipPath1)" />
    <line
       style="fill:none;stroke:#b2b2b2"
       id="line4188"
       y2="115"
       y1="95"
       x2="71"
       x1="71"
       clip-path="url(#clipPath1)" />
    <line
       style="fill:none;stroke:#b2b2b2"
       id="line4190"
       y2="106"
       y1="106"
       x2="98"
       x1="44"
       clip-path="url(#clipPath1)" />
    <line
       style="fill:none;stroke:#b2b2b2"
       id="line4192"
       y2="115"
       y1="134"
       x2="71"
       x1="44"
       clip-path="url(#clipPath1)" />
    <line
       style="fill:none;stroke:#b2b2b2"
       id="line4194"
       y2="115"
       y1="134"
       x2="71"
       x1="98"
       clip-path="url(#clipPath1)" />
    <circle
       style="fill:#b2b2b2;stroke:none"
       sodipodi:ry="9"
       sodipodi:rx="9"
       sodipodi:cy="88"
       sodipodi:cx="71"
       id="circle4196"
       cy="88"
       cx="71"
       clip-path="url(#clipPath1)"
       r="9"
       d="m 80,88 c 0,4.970563 -4.029437,9 -9,9 -4.970563,0 -9,-4.029437 -9,-9 0,-4.970563 4.029437,-9 9,-9 4.970563,0 9,4.029437 9,9 z" />
    <circle
       sodipodi:ry="9"
       sodipodi:rx="9"
       sodipodi:cy="86"
       sodipodi:cx="69"
       style="fill:url(#linearGradient4274);stroke:none"
       id="circle4198"
       cy="86"
       cx="69"
       clip-path="url(#clipPath1)"
       r="9"
       d="m 78,86 c 0,4.970563 -4.029437,9 -9,9 -4.970563,0 -9,-4.029437 -9,-9 0,-4.970563 4.029437,-9 9,-9 4.970563,0 9,4.029437 9,9 z" />
    <circle
       style="fill:none;stroke:#666647"
       sodipodi:ry="9"
       sodipodi:rx="9"
       sodipodi:cy="86"
       sodipodi:cx="69"
       id="circle4200"
       cy="86"
       cx="69"
       clip-path="url(#clipPath1)"
       r="9"
       d="m 78,86 c 0,4.970563 -4.029437,9 -9,9 -4.970563,0 -9,-4.029437 -9,-9 0,-4.970563 4.029437,-9 9,-9 4.970563,0 9,4.029437 9,9 z" />
    <line
       style="fill:none;stroke:#666647"
       id="line4202"
       y2="113"
       y1="95"
       x2="69"
       x1="69"
       clip-path="url(#clipPath1)" />
    <line
       style="fill:none;stroke:#666647"
       id="line4204"
       y2="104"
       y1="104"
       x2="96"
       x1="42"
       clip-path="url(#clipPath1)" />
    <line
       style="fill:none;stroke:#666647"
       id="line4206"
       y2="113"
       y1="132"
       x2="69"
       x1="42"
       clip-path="url(#clipPath1)" />
    <line
       style="fill:none;stroke:#666647"
       id="line4208"
       y2="113"
       y1="132"
       x2="69"
       x1="96"
       clip-path="url(#clipPath1)" />
    <path
       style="fill:none;stroke:#000000"
       inkscape:connector-curvature="0"
       id="path4210"
       clip-path="url(#clipPath1)"
       d="m 196,109 -99,2" />
  </g>
</svg>
