<?xml version="1.0" encoding="UTF-8" standalone="no"?>
<!-- Created with Inkscape (http://www.inkscape.org/) -->

<svg
   xmlns:dc="http://purl.org/dc/elements/1.1/"
   xmlns:cc="http://creativecommons.org/ns#"
   xmlns:rdf="http://www.w3.org/1999/02/22-rdf-syntax-ns#"
   xmlns:svg="http://www.w3.org/2000/svg"
   xmlns="http://www.w3.org/2000/svg"
   xmlns:sodipodi="http://sodipodi.sourceforge.net/DTD/sodipodi-0.dtd"
   xmlns:inkscape="http://www.inkscape.org/namespaces/inkscape"
   version="1.1"
   id="svg815"
   xml:space="preserve"
   width="489.48538"
   height="522.15204"
   viewBox="0 0 489.48538 522.15203"
   sodipodi:docname="Encastrement_queue_d_arronde_vierge.svg"
   inkscape:version="0.92.4 (5da689c313, 2019-01-14)"><metadata
     id="metadata821"><rdf:RDF><cc:Work
         rdf:about=""><dc:format>image/svg+xml</dc:format><dc:type
           rdf:resource="http://purl.org/dc/dcmitype/StillImage" /><dc:title></dc:title></cc:Work></rdf:RDF></metadata><defs
     id="defs819" /><sodipodi:namedview
     pagecolor="#ffffff"
     bordercolor="#666666"
     borderopacity="1"
     objecttolerance="10"
     gridtolerance="10"
     guidetolerance="10"
     inkscape:pageopacity="0"
     inkscape:pageshadow="2"
     inkscape:window-width="1366"
     inkscape:window-height="705"
     id="namedview817"
     showgrid="false"
     fit-margin-top="0"
     fit-margin-left="0"
     fit-margin-right="0"
     fit-margin-bottom="0"
     inkscape:zoom="0.94294329"
     inkscape:cx="265.17207"
     inkscape:cy="242.13806"
     inkscape:window-x="-8"
     inkscape:window-y="-8"
     inkscape:window-maximized="1"
     inkscape:current-layer="g823" /><g
     id="g823"
     inkscape:groupmode="layer"
     inkscape:label="Encastrement_queue_d_arronde"
     transform="matrix(1.3333333,0,0,-1.3333333,-170.3206,997.13931)"><g
       id="g975"
       transform="translate(241.5503,400.5184)"><path
         d="M 0,0 V 282.572"
         style="fill:none;stroke:#000000;stroke-width:0.50999999;stroke-linecap:round;stroke-linejoin:round;stroke-miterlimit:10;stroke-dasharray:86.4, 3.6, 3.6, 3.6;stroke-dashoffset:-0.88599998;stroke-opacity:1"
         id="path977"
         inkscape:connector-curvature="0" /></g><g
       id="g979"
       transform="translate(229.6,561.6)"><path
         d="M 0,0 V -148.3 M 23.8,0 v -148.3"
         style="fill:none;stroke:#000000;stroke-width:0.50999999;stroke-linecap:round;stroke-linejoin:round;stroke-miterlimit:10;stroke-dasharray:none;stroke-opacity:1"
         id="path981"
         inkscape:connector-curvature="0" /></g><g
       id="g995"
       transform="translate(268.3,403.6)"><path
         d="M 0,0 0.1,0.1 4.9,4.9 5.1,5.1 M -29.5,-4 -17.2,8.3 m 2.3,2.3 20.7,20.7 M -50.5,0.4 -38.7,12.2 M -12.6,38.3 2.5,53.5 M -68.3,8.1 -39.6,36.8 m 27,27 19.8,19.8 m -90.5,-65 42.3,42.3 m 28.4,28.3 62.2,62.2 M -95.7,31.6 -41,86.3 m 28.4,28.4 36.7,36.7 m -130,-104.5 64.9,64.9 m 28.4,28.3 11.3,11.3 m -112.5,-87 72.8,72.9 m -78.3,-52.9 67,67 m -69.1,-43.7 43.7,43.7 m -40.1,-14.7 34.3,34.4 m -21.9,3.5 21.9,22 m -14.6,10.8 14.6,14.6 m -18,7.4 7,7.1 m 123.1,12.3 -16.1,16 m 14,-39.4 -25,25 m 39.4,-64.8 -48.6,48.6 m 39.2,-64.7 -42.7,42.7 m 33.4,-58.9 -33.4,33.4 m 9.9,-35.3 -9.9,9.9 m -43.9,94.8 -8.7,8.7 m 21.4,-46.9 -41.1,41.1 m 41.1,-66.5 -41.1,41.1 m 41.1,-66.6 -41.1,41.1 m 31.2,-56.7 -31.2,31.3 m 5.8,-31.3 -5.8,5.8 m 117.9,17.3 12.8,12.7 M 24.1,151.4 51.7,179 m -14.9,-27.6 18.4,18.4 m -5.6,-18.4 5.8,5.8"
         style="fill:none;stroke:#000000;stroke-width:0.50999999;stroke-linecap:round;stroke-linejoin:round;stroke-miterlimit:10;stroke-dasharray:none;stroke-opacity:1"
         id="path997"
         inkscape:connector-curvature="0" /></g><g
       id="g999"
       transform="translate(217.4,663.7)"><path
         d="m 0,0 v -25.9 m 48.2,0 V 0 m 0,0 L 48.1,0.5 48,1 47.8,1.4 47.5,1.7 47.1,2 46.7,2.3 46.3,2.4 H 45.8 M 2.4,2.4 H 1.9 L 1.5,2.3 1.1,2 0.7,1.7 0.4,1.4 0.2,1 0.1,0.5 0,0 m 38.3,-27.3 v 0.3 l 0.1,0.2 0.1,0.3 0.2,0.2 0.2,0.2 0.2,0.1 0.3,0.1 h 0.3 m -31.2,0 h 0.3 l 0.3,-0.1 0.2,-0.1 0.2,-0.2 0.2,-0.2 0.1,-0.3 0.1,-0.2 v -0.3 m 0,-74.8 v -119.8 m 28.4,0 v 119.8 M 9.9,-27.3 v -72.3 m 28.4,0 v 72.3 m -28.4,-194.6 2.5,-2.4 m 23.4,0 2.5,2.4 m -28.4,122.3 2.5,-2.5 m 23.4,0 2.5,2.5 m 229.8,-9.1 4,5 2.8,4.5 1.6,4.3 0.6,3.9 -0.3,3.7 -1.1,3.5 -2.8,4.8 -4,4.5 -4.6,4.3 -5,4.1 -4.9,4.2 -4.5,4.2 -3.7,4.5 -2.4,4.8 -1.3,5.1 -0.2,5.4 0.9,6.9 1.8,7.1 2.6,7.4 3,7.6 3.1,7.7 2.9,7.7 2.5,7.7 1.8,7.7 0.7,7.6 -0.5,7.3 -1.8,7.1 -3.1,6.8 -4.2,6.3 -5.1,5.9 -5.9,5.3 -7.3,5.1 -7.9,4.3 -8.4,3.2 -8.6,2.2 -7,0.8 h -6.9 l -6.7,-0.8 -6.4,-1.8 -6.1,-2.8 m -71.3,-187.1 h 163.7 m -92.4,158.8 -0.3,-3.5 -0.6,-3.3 -1,-3.3 -1.4,-3.1 -1.8,-2.9 -2.1,-2.7 -2.4,-2.5 -2.7,-2.1 -2.9,-1.7 -3.1,-1.4 -3.3,-1.1 -3.4,-0.6 -3.4,-0.2 m 28.4,56.7 V 50.1 m -28.4,-28.4 -52,-90.1 m 9.1,-40.3 1.6,4.5 0.8,4.5 0.1,4.5 -0.9,5.3 -1.8,5.3 -2.5,5.4 -3,5.3 -3.4,5.5 m 9.1,-40.3 H 72 m 0,0 23.3,40.3 m 0,0 42.2,73.1 m 0,0 H 85.9 m 9.4,-73.1 -6.4,9.7 -3.9,6.3 -3.4,6.4 -2.8,6.4 -1.7,6.5 -0.6,6.7 0.7,6.7 2.2,8.1 3,8.2 3.5,8.1 M -32.6,-108.7 V 4.7 m 28.4,0 v -30.6 m 0,0 H 0 m 8.5,0 v -82.8 m 0,0 h -41.1 m 0,113.4 H -4.2 M 72,-108.7 H 39.7 m 0,0 v 82.8 m 8.5,0 h 4.2 m 0,0 V 4.7 M 95.3,-68.4 72,-108.7 M 52.4,4.7 h 33.5 m -33.5,0 H 52.2 51.6 50.6 49.2 47.4 45.3 42.9 40.2 37.3 34.2 30.9 27.5 24.1 20.7 17.3 14 10.9 8 5.3 2.9 0.8 -1 -2.4 -3.4 -4 -4.2 m 56.6,-283.5 3.5,0.3 3.3,0.6 3.3,1 3.1,1.4 2.9,1.8 2.7,2.1 2.5,2.4 2.1,2.7 1.7,2.9 1.5,3.1 1,3.3 0.6,3.4 0.2,3.4 m -113.4,-56.7 0.2,3.4 0.6,3.4 1,3.3 1.5,3.1 1.7,2.9 2.1,2.7 2.5,2.4 2.7,2.1 2.9,1.8 3.1,1.4 3.3,1 3.3,0.6 3.5,0.2 m -85.1,-28.3 h 56.7 m -56.7,283.5 v -283.5 m 283.5,198.4 h -89.8 m 89.8,-56.7 v 56.7 m -85.1,-56.7 h 85.1 m -113.4,-85 v 56.7 m -85,-85.1 H 52.4 M -53.5,-23.6 h -35.8 m 170.1,-170.1 0.2,3.4 0.6,3.4 1,3.2 1.4,3.2 1.8,2.9 2.1,2.7 2.4,2.4 2.7,2.1 3,1.8 3.1,1.4 3.3,1 3.3,0.6 3.4,0.2 m -162.6,141.8 3.1,-7.8 2.2,-7.7 1,-7.8 -0.1,-7.9 -1,-8 -1.8,-8 -2.3,-8.1 -3.8,-11.5 -4.1,-11.5 -3.9,-11.7 -3.2,-11.8 -2.2,-11.9 -0.9,-11.9 0.3,-11.9 1.3,-11.7 2.5,-11.5 3.5,-11.3 4.4,-10.8 5.5,-10.3 6.6,-9.8 7.6,-8.9 6.7,-6.3 7.4,-5.7 8.1,-5.1 8.8,-4.2 9.7,-3.5 10.4,-2.5 8.1,-1.3 8,-0.5 7.7,0.2 6.9,1.1 4.1,1.3 3.6,1.7 2.9,2.2 2.2,2.8 1.5,3.2 0.8,3.7 0.3,6.1 -0.6,6.6 -1.1,7.1 -1.3,7.4 -1.2,7.4 -0.8,7.3 -0.1,7 0.9,9.1 2.1,8.7 3.2,8.4 4,8 6.9,10.6 8,10.5 8.8,10.5 5.1,6.2 4.7,6.2 4.2,6.2 3.2,6.3 m -137,85.1 v -85.1 m 44.8,-115.4 v -26.3 m 0,0 11.9,-7.2 m 0,0 11.9,7.2 m 0,0 v 26.3 m 2.3,115.4 h 66.1 m -137,0 H 9.9 m -63.4,85.1 h 20.9 M 36,-250.4 h -0.2 -0.6 -1 -1.3 -1.6 -1.9 -2 H 25.2 23 20.8 18.8 16.9 15.3 14 13 12.4 12.2 M 10.9,-25.9 H 8.4 6.2 4.2 2.6 1.4 0.5 0.1 0 m 48.2,0 v 0 H 47.8 47 45.8 44.3 42.4 40.2 37.7 35 32.1 29 25.9 22.8 19.6 16.6 13.7 10.9 M 12.2,2.4 H 9.9 7.8 6 4.5 3.4 2.7 2.4 m 43.4,0 h -0.1 -0.5 -0.9 -1.3 -1.6 -1.9 -2.3 -2.4 -2.7 -2.8 -2.9 -3 -2.9 -2.9 -2.8 -2.6 m 4.1,-104.5 H 14.5 12.8 11.5 10.6 10.1 9.9 m 28.4,0 h -0.1 -0.5 -0.8 -1.3 -1.5 -1.9 -2.1 -2.2 -2.4 -2.4 -2.4 -2.2 -2.2 m 0,-119.8 H 14.5 12.8 11.5 10.6 10.1 9.9 m 28.4,0 h -0.1 -0.5 -0.8 -1.3 -1.5 -1.9 -2.1 -2.2 -2.4 -2.4 -2.4 -2.2 -2.2 m 0,122.3 H 14.5 12.8 11.5 10.6 10.1 9.9 m 28.4,0 h -0.1 -0.5 -0.8 -1.3 -1.5 -1.9 -2.1 -2.2 -2.4 -2.4 -2.4 -2.2 -2.2 m 1.4,-124.7 H 16 14.5 13.4 12.7 12.4 m 23.4,0 v 0 h -0.3 -0.8 -1.1 -1.5 -1.7 -2 -2.2 -2.2 -2.2 -2.1 -2 M 10.9,0 H 8.4 6.2 4.2 2.6 1.4 0.5 0.1 0 M 48.2,0 V 0 H 47.8 47 45.8 44.3 42.4 40.2 37.7 35 32.1 29 h -3.1 -3.1 -3.2 -3 -2.9 -2.8 m 5.4,-27.3 H 14.5 12.8 11.5 10.6 10.1 9.9 m 28.4,0 h -0.1 -0.5 -0.8 -1.3 -1.5 -1.9 -2.1 -2.2 -2.4 -2.4 -2.4 -2.2 -2.2"
         style="fill:none;stroke:#000000;stroke-width:0.70899999;stroke-linecap:round;stroke-linejoin:round;stroke-miterlimit:10;stroke-dasharray:none;stroke-opacity:1"
         id="path1001"
         inkscape:connector-curvature="0" /></g><g
       id="g1011"
       transform="translate(253.4558,555.0735)"><path
         d="M 0,0 H 2.268"
         style="fill:none;stroke:#000000;stroke-width:0.50999999;stroke-linecap:round;stroke-linejoin:round;stroke-miterlimit:10;stroke-dasharray:3.6, 1.8;stroke-dashoffset:1.13399994;stroke-opacity:1"
         id="path1013"
         inkscape:connector-curvature="0" /></g><g
       id="g1015"
       transform="translate(227.377,555.0735)"><path
         d="M 0,0 H 2.268"
         style="fill:none;stroke:#000000;stroke-width:0.50999999;stroke-linecap:round;stroke-linejoin:round;stroke-miterlimit:10;stroke-dasharray:3.6, 1.8;stroke-dashoffset:1.13399994;stroke-opacity:1"
         id="path1017"
         inkscape:connector-curvature="0" /></g><g
       id="g1019"
       transform="translate(253.4558,555.0735)"><path
         d="m 0,0 h -0.203 -0.601 -0.979 -1.324 -1.624 -1.868 -2.048 -2.16 -2.197 -2.16 -2.048 -1.868 -1.624 -1.324 -0.979 -0.601 -0.203"
         style="fill:none;stroke:#000000;stroke-width:0.50999999;stroke-linecap:round;stroke-linejoin:round;stroke-miterlimit:10;stroke-dasharray:3.6, 1.8;stroke-dashoffset:0.69499999;stroke-opacity:1"
         id="path1021"
         inkscape:connector-curvature="0" /></g><g
       id="g1023"
       transform="translate(230.5895,652.0184)"><path
         d="M 0,0 3.422,-0.828 6.492,-0.999 8.947,-0.711 11.682,0"
         style="fill:none;stroke:#000000;stroke-width:0.50999999;stroke-linecap:round;stroke-linejoin:round;stroke-miterlimit:10;stroke-dasharray:3.6, 1.8;stroke-dashoffset:1.25300002;stroke-opacity:1"
         id="path1025"
         inkscape:connector-curvature="0" /></g><g
       id="g1027"
       transform="translate(242.2715,652.0184)"><path
         d="M 0,0 3.211,-0.828 6.091,-0.999 8.395,-0.711 10.961,0"
         style="fill:none;stroke:#000000;stroke-width:0.50999999;stroke-linecap:round;stroke-linejoin:round;stroke-miterlimit:10;stroke-dasharray:3.6, 1.8;stroke-dashoffset:1.60699999;stroke-opacity:1"
         id="path1029"
         inkscape:connector-curvature="0" /></g><g
       id="g1031"
       transform="translate(253.2322,652.0184)"><path
         d="M 0,0 -0.211,-0.828 -0.401,-0.999 -0.552,-0.711 -0.721,0"
         style="fill:none;stroke:#000000;stroke-width:0.50999999;stroke-linecap:round;stroke-linejoin:round;stroke-miterlimit:10;stroke-dasharray:3.6, 1.8;stroke-dashoffset:1.08299994;stroke-opacity:1"
         id="path1033"
         inkscape:connector-curvature="0" /></g><g
       id="g1035"
       transform="translate(252.5111,652.0184)"><path
         d="M 0,0 -3.422,-0.828 -6.492,-0.999 -8.947,-0.711 -11.682,0"
         style="fill:none;stroke:#000000;stroke-width:0.50999999;stroke-linecap:round;stroke-linejoin:round;stroke-miterlimit:10;stroke-dasharray:3.6, 1.8;stroke-dashoffset:1.25300002;stroke-opacity:1"
         id="path1037"
         inkscape:connector-curvature="0" /></g><g
       id="g1039"
       transform="translate(240.8291,652.0184)"><path
         d="M 0,0 -3.211,-0.828 -6.091,-0.999 -8.395,-0.711 -10.961,0"
         style="fill:none;stroke:#000000;stroke-width:0.50999999;stroke-linecap:round;stroke-linejoin:round;stroke-miterlimit:10;stroke-dasharray:3.6, 1.8;stroke-dashoffset:1.60699999;stroke-opacity:1"
         id="path1041"
         inkscape:connector-curvature="0" /></g><g
       id="g1043"
       transform="translate(229.8683,652.0184)"><path
         d="M 0,0 0.211,-0.828 0.401,-0.999 0.552,-0.711 0.721,0"
         style="fill:none;stroke:#000000;stroke-width:0.50999999;stroke-linecap:round;stroke-linejoin:round;stroke-miterlimit:10;stroke-dasharray:3.6, 1.8;stroke-dashoffset:1.08299994;stroke-opacity:1"
         id="path1045"
         inkscape:connector-curvature="0" /></g><g
       id="g1047"
       transform="translate(240.8291,666.1917)"><path
         d="M 0,0 V -14.173"
         style="fill:none;stroke:#000000;stroke-width:0.50999999;stroke-linecap:round;stroke-linejoin:round;stroke-miterlimit:10;stroke-dasharray:3.6, 1.8;stroke-dashoffset:0.113;stroke-opacity:1"
         id="path1049"
         inkscape:connector-curvature="0" /></g><g
       id="g1051"
       transform="translate(252.5111,666.1917)"><path
         d="M 0,0 V -14.173"
         style="fill:none;stroke:#000000;stroke-width:0.50999999;stroke-linecap:round;stroke-linejoin:round;stroke-miterlimit:10;stroke-dasharray:3.6, 1.8;stroke-dashoffset:0.113;stroke-opacity:1"
         id="path1053"
         inkscape:connector-curvature="0" /></g><g
       id="g1055"
       transform="translate(230.5895,666.1917)"><path
         d="M 0,0 V -14.173"
         style="fill:none;stroke:#000000;stroke-width:0.50999999;stroke-linecap:round;stroke-linejoin:round;stroke-miterlimit:10;stroke-dasharray:3.6, 1.8;stroke-dashoffset:0.113;stroke-opacity:1"
         id="path1057"
         inkscape:connector-curvature="0" /></g><g
       id="g1059"
       transform="translate(229.8683,666.1917)"><path
         d="M 0,0 V -14.173"
         style="fill:none;stroke:#000000;stroke-width:0.50999999;stroke-linecap:round;stroke-linejoin:round;stroke-miterlimit:10;stroke-dasharray:3.6, 1.8;stroke-dashoffset:0.113;stroke-opacity:1"
         id="path1061"
         inkscape:connector-curvature="0" /></g><g
       id="g1063"
       transform="translate(242.2715,666.1917)"><path
         d="M 0,0 V -14.173"
         style="fill:none;stroke:#000000;stroke-width:0.50999999;stroke-linecap:round;stroke-linejoin:round;stroke-miterlimit:10;stroke-dasharray:3.6, 1.8;stroke-dashoffset:0.113;stroke-opacity:1"
         id="path1065"
         inkscape:connector-curvature="0" /></g><g
       id="g1067"
       transform="translate(253.2322,666.1917)"><path
         d="M 0,0 V -14.173"
         style="fill:none;stroke:#000000;stroke-width:0.50999999;stroke-linecap:round;stroke-linejoin:round;stroke-miterlimit:10;stroke-dasharray:3.6, 1.8;stroke-dashoffset:0.113;stroke-opacity:1"
         id="path1069"
         inkscape:connector-curvature="0" /></g><g
       id="g1071"
       transform="translate(230.1638,651.0334)"><path
         d="M 0,0 11.386,-6.574"
         style="fill:none;stroke:#000000;stroke-width:0.50999999;stroke-linecap:round;stroke-linejoin:round;stroke-miterlimit:10;stroke-dasharray:3.6, 1.8;stroke-dashoffset:0.62599999;stroke-opacity:1"
         id="path1073"
         inkscape:connector-curvature="0" /></g><g
       id="g1075"
       transform="translate(241.5503,644.4594)"><path
         d="M 0,0 11.386,6.574"
         style="fill:none;stroke:#000000;stroke-width:0.50999999;stroke-linecap:round;stroke-linejoin:round;stroke-miterlimit:10;stroke-dasharray:3.6, 1.8;stroke-dashoffset:0.62599999;stroke-opacity:1"
         id="path1077"
         inkscape:connector-curvature="0" /></g><g
       id="g1079"
       transform="translate(217.4558,663.7822)"><path
         d="m 0,0 h 0.037 0.379 0.784 1.176 1.547 1.893 2.205 2.481 2.713 2.899 3.036 3.12 3.152 3.129 3.052 2.924 2.746 2.52 2.251 1.945 1.604 1.236 0.847 0.444 0.069"
         style="fill:none;stroke:#000000;stroke-width:0.50999999;stroke-linecap:round;stroke-linejoin:round;stroke-miterlimit:10;stroke-dasharray:3.6, 1.8;stroke-dashoffset:2.00600004;stroke-opacity:1"
         id="path1081"
         inkscape:connector-curvature="0" /></g><g
       id="g1083"
       transform="translate(227.377,636.4279)"><path
         d="m 0,0 h 0.005 0.268 0.668 1.049 1.399 1.709 1.97 2.175 2.317 2.391 2.399 2.335 2.206 2.013 1.761 1.459 1.116 0.74 0.343 0.023"
         style="fill:none;stroke:#000000;stroke-width:0.50999999;stroke-linecap:round;stroke-linejoin:round;stroke-miterlimit:10;stroke-dasharray:3.6, 1.8;stroke-dashoffset:1.12699997;stroke-opacity:1"
         id="path1085"
         inkscape:connector-curvature="0" /></g><path
       style="fill:#ffffee;fill-opacity:1;stroke:none;stroke-width:0.62652415px;stroke-linecap:butt;stroke-linejoin:miter;stroke-opacity:1"
       d="m 215.9946,691.05125 c -23.72892,-52.20351 -25.15455,-41.97086 -26.91363,-67.82678 -2.17575,-31.98006 3.78563,-50.02421 3.78565,-69.2652 0,-24.77479 -14.31734,-56.92123 -7.15868,-72.15366 7.15868,-15.23245 10.09323,-8.4262 14.86799,-38.48197 4.77478,-30.05575 -2.42544,-27.43508 10.38266,-35.19632 12.80808,-7.76123 31.70869,-13.00259 36.48575,-11.89384 4.77707,1.10875 4.06352,-10.30285 14.67739,12.39782 6.98107,14.93094 3.98351,64.35554 3.43284,97.22552 -0.55066,32.87001 10.05593,40.53555 7.50596,49.12923 -2.54996,8.59371 -3.65129,18.21421 -5.30329,31.04153 -1.652,12.82731 17.69599,32.15712 8.14185,56.75118 -9.55416,24.59405 -7.04052,29.83323 -15.30051,36.24688 -8.26,6.41367 -8.81067,15.23245 -20.92532,16.83586 -12.11466,1.60341 -17.07065,1.60341 -23.67866,-4.81025 z"
       id="path1089"
       inkscape:connector-curvature="0"
       sodipodi:nodetypes="csssssssscssssc" /></g></svg>