<?xml version="1.0" encoding="UTF-8" standalone="no"?>
<!-- Created with Inkscape (http://www.inkscape.org/) -->

<svg
   xmlns:dc="http://purl.org/dc/elements/1.1/"
   xmlns:cc="http://creativecommons.org/ns#"
   xmlns:rdf="http://www.w3.org/1999/02/22-rdf-syntax-ns#"
   xmlns:svg="http://www.w3.org/2000/svg"
   xmlns="http://www.w3.org/2000/svg"
   xmlns:sodipodi="http://sodipodi.sourceforge.net/DTD/sodipodi-0.dtd"
   xmlns:inkscape="http://www.inkscape.org/namespaces/inkscape"
   version="1.1"
   id="svg1293"
   xml:space="preserve"
   width="684.89166"
   height="579.91168"
   viewBox="0 0 684.89166 579.91168"
   sodipodi:docname="Stewart_param2.svg"
   inkscape:version="0.92.3 (2405546, 2018-03-11)"><metadata
     id="metadata1299"><rdf:RDF><cc:Work
         rdf:about=""><dc:format>image/svg+xml</dc:format><dc:type
           rdf:resource="http://purl.org/dc/dcmitype/StillImage" /><dc:title /></cc:Work></rdf:RDF></metadata><defs
     id="defs1297"><clipPath
       clipPathUnits="userSpaceOnUse"
       id="clipPath1331"><path
         d="m 166,5 h 10 v 13 h -10 z"
         id="path1329"
         inkscape:connector-curvature="0" /></clipPath><clipPath
       clipPathUnits="userSpaceOnUse"
       id="clipPath1349"><path
         d="m 178,0 h 11 v 11 h -11 z"
         id="path1347"
         inkscape:connector-curvature="0" /></clipPath><clipPath
       clipPathUnits="userSpaceOnUse"
       id="clipPath1367"><path
         d="m 483,257 h 11 v 16 h -11 z"
         id="path1365"
         inkscape:connector-curvature="0" /></clipPath><clipPath
       clipPathUnits="userSpaceOnUse"
       id="clipPath1385"><path
         d="m 495,255 h 12 v 11 h -12 z"
         id="path1383"
         inkscape:connector-curvature="0" /></clipPath><clipPath
       clipPathUnits="userSpaceOnUse"
       id="clipPath1403"><path
         d="m 152,423 h 8 v 12 h -8 z"
         id="path1401"
         inkscape:connector-curvature="0" /></clipPath><clipPath
       clipPathUnits="userSpaceOnUse"
       id="clipPath1421"><path
         d="m 161,417 h 12 v 12 h -12 z"
         id="path1419"
         inkscape:connector-curvature="0" /></clipPath><clipPath
       clipPathUnits="userSpaceOnUse"
       id="clipPath1439"><path
         d="m 131,254 h 14 v 16 h -14 z"
         id="path1437"
         inkscape:connector-curvature="0" /></clipPath><clipPath
       clipPathUnits="userSpaceOnUse"
       id="clipPath1457"><path
         d="m 147,248 h 11 v 11 h -11 z"
         id="path1455"
         inkscape:connector-curvature="0" /></clipPath><clipPath
       clipPathUnits="userSpaceOnUse"
       id="clipPath1477"><path
         d="m 255,337 h 7 v 12 h -7 z"
         id="path1475"
         inkscape:connector-curvature="0" /></clipPath><clipPath
       clipPathUnits="userSpaceOnUse"
       id="clipPath1495"><path
         d="m 263,331 h 12 v 11 h -12 z"
         id="path1493"
         inkscape:connector-curvature="0" /></clipPath><clipPath
       clipPathUnits="userSpaceOnUse"
       id="clipPath1515"><path
         d="m 164,74 h 29 v 9 h -29 z"
         id="path1513"
         inkscape:connector-curvature="0" /></clipPath><clipPath
       clipPathUnits="userSpaceOnUse"
       id="clipPath1531"><path
         d="m 172,48 h 11 v 21 h -11 z"
         id="path1529"
         inkscape:connector-curvature="0" /></clipPath><clipPath
       clipPathUnits="userSpaceOnUse"
       id="clipPath1549"><path
         d="m 118,130 h 14 v 17 h -14 z"
         id="path1547"
         inkscape:connector-curvature="0" /></clipPath><clipPath
       clipPathUnits="userSpaceOnUse"
       id="clipPath1567"><path
         d="m 133,125 h 2 v 11 h -2 z"
         id="path1565"
         inkscape:connector-curvature="0" /></clipPath><clipPath
       clipPathUnits="userSpaceOnUse"
       id="clipPath1585"><path
         d="m 381,352 h 70 v 44 h -70 z"
         id="path1583"
         inkscape:connector-curvature="0" /></clipPath></defs><sodipodi:namedview
     pagecolor="#ffffff"
     bordercolor="#666666"
     borderopacity="1"
     objecttolerance="10"
     gridtolerance="10"
     guidetolerance="10"
     inkscape:pageopacity="0"
     inkscape:pageshadow="2"
     inkscape:window-width="3110"
     inkscape:window-height="1697"
     id="namedview1295"
     showgrid="false"
     inkscape:zoom="2.1498026"
     inkscape:cx="340.32953"
     inkscape:cy="277.66958"
     inkscape:window-x="90"
     inkscape:window-y="55"
     inkscape:window-maximized="1"
     inkscape:current-layer="g1301"
     showguides="false" /><g
     id="g1301"
     inkscape:groupmode="layer"
     inkscape:label="Stewart_cin2"
     transform="matrix(1.3333333,0,0,-1.3333333,0,579.9117)"><path
       inkscape:connector-curvature="0"
       id="path1305"
       style="fill:#deebf7;fill-opacity:1;fill-rule:evenodd;stroke:#41719c;stroke-width:0.95999998;stroke-linecap:butt;stroke-linejoin:miter;stroke-miterlimit:10;stroke-dasharray:none;stroke-opacity:1"
       d="M 0.629,327.477 127.828,90.496 197.66,88.008 496.949,329.977 457.039,369.887 48.02,354.918 Z" /><path
       inkscape:connector-curvature="0"
       id="path1307"
       style="fill:#ffffff;fill-opacity:1;fill-rule:evenodd;stroke:#41719c;stroke-width:0.95999998;stroke-linecap:butt;stroke-linejoin:miter;stroke-miterlimit:10;stroke-dasharray:none;stroke-opacity:1"
       d="m 29.91,312.649 c 0,6.097 4.969,11.039 11.098,11.039 6.133,0 11.101,-4.942 11.101,-11.039 0,-6.102 -4.968,-11.043 -11.101,-11.043 -6.129,0 -11.098,4.941 -11.098,11.043 z" /><path
       inkscape:connector-curvature="0"
       id="path1309"
       style="fill:#ffffff;fill-opacity:1;fill-rule:evenodd;stroke:#41719c;stroke-width:0.95999998;stroke-linecap:butt;stroke-linejoin:miter;stroke-miterlimit:10;stroke-dasharray:none;stroke-opacity:1"
       d="m 55.23,329.867 c 0,6.129 4.938,11.098 11.04,11.098 6.097,0 11.039,-4.969 11.039,-11.098 0,-6.129 -4.942,-11.101 -11.039,-11.101 -6.102,0 -11.04,4.972 -11.04,11.101 z" /><path
       inkscape:connector-curvature="0"
       id="path1311"
       style="fill:#ffffff;fill-opacity:1;fill-rule:evenodd;stroke:#41719c;stroke-width:0.95999998;stroke-linecap:butt;stroke-linejoin:miter;stroke-miterlimit:10;stroke-dasharray:none;stroke-opacity:1"
       d="m 132.148,112.668 c 0,6.129 4.942,11.098 11.04,11.098 6.101,0 11.042,-4.969 11.042,-11.098 0,-6.133 -4.941,-11.101 -11.042,-11.101 -6.098,0 -11.04,4.968 -11.04,11.101 z" /><path
       inkscape:connector-curvature="0"
       id="path1313"
       style="fill:#ffffff;fill-opacity:1;fill-rule:evenodd;stroke:#41719c;stroke-width:0.95999998;stroke-linecap:butt;stroke-linejoin:miter;stroke-miterlimit:10;stroke-dasharray:none;stroke-opacity:1"
       d="m 179.43,115.125 c 0,6.102 4.968,11.043 11.097,11.043 6.133,0 11.102,-4.941 11.102,-11.043 0,-6.097 -4.969,-11.039 -11.102,-11.039 -6.129,0 -11.097,4.942 -11.097,11.039 z" /><path
       inkscape:connector-curvature="0"
       id="path1315"
       style="fill:#ffffff;fill-opacity:1;fill-rule:evenodd;stroke:#41719c;stroke-width:0.95999998;stroke-linecap:butt;stroke-linejoin:miter;stroke-miterlimit:10;stroke-dasharray:none;stroke-opacity:1"
       d="m 439.109,352.067 c 0,6.128 4.969,11.101 11.098,11.101 6.133,0 11.102,-4.973 11.102,-11.101 0,-6.129 -4.969,-11.102 -11.102,-11.102 -6.129,0 -11.098,4.973 -11.098,11.102 z" /><path
       inkscape:connector-curvature="0"
       id="path1317"
       style="fill:#ffffff;fill-opacity:1;fill-rule:evenodd;stroke:#41719c;stroke-width:0.95999998;stroke-linecap:butt;stroke-linejoin:miter;stroke-miterlimit:10;stroke-dasharray:none;stroke-opacity:1"
       d="m 455.188,328.668 c 0,6.129 4.941,11.098 11.042,11.098 6.098,0 11.04,-4.969 11.04,-11.098 0,-6.133 -4.942,-11.101 -11.04,-11.101 -6.101,0 -11.042,4.968 -11.042,11.101 z" /><path
       inkscape:connector-curvature="0"
       id="path1319"
       style="fill:#5b9bd5;fill-opacity:1;fill-rule:nonzero;stroke:none"
       d="m 185.117,245.727 323.621,30.91 -0.09,0.988 -323.628,-30.91 z m 322.863,28.32 5.688,3.559 -6.258,2.422 z" /><path
       inkscape:connector-curvature="0"
       id="path1321"
       style="fill:#5b9bd5;fill-opacity:1;fill-rule:nonzero;stroke:none"
       d="M 184.5,246.227 154.938,5.184 155.93,5.063 185.5,246.106 Z M 152.578,6.485 l 2.25,-6.325 3.711,5.59 z" /><path
       inkscape:connector-curvature="0"
       id="path1323"
       style="fill:#5b9bd5;fill-opacity:1;fill-rule:nonzero;stroke:none"
       d="m 184.59,246.125 -46.711,174.242 0.969,0.258 46.699,-174.238 z m -48.86,172.633 1.34,6.57 4.45,-5.023 z" /><g
       transform="translate(0,-0.0662231)"
       id="g1325"><g
         id="g1327" /><g
         id="g1341"><g
           id="g1339"
           clip-path="url(#clipPath1331)"><g
             id="g1337"><text
   id="text1335"
   style="font-variant:normal;font-weight:300;font-size:24px;font-family:'Calibri Light';-inkscape-font-specification:Calibri-Light;writing-mode:lr-tb;fill:#4472c4;fill-opacity:1;fill-rule:nonzero;stroke:none"
   transform="matrix(1,0,0,-1,166.41875,5.992976)"><tspan
     id="tspan1333"
     y="0"
     x="0"
     style="-inkscape-font-specification:Calibri;font-family:Calibri;font-weight:normal;font-style:normal;font-stretch:normal;font-variant:normal">x</tspan></text>

</g></g></g></g><g
       transform="translate(0,-0.0662231)"
       id="g1343"><g
         id="g1345" /><g
         id="g1359"><g
           id="g1357"
           clip-path="url(#clipPath1349)"><g
             id="g1355"><text
   id="text1353"
   style="font-variant:normal;font-weight:300;font-size:15.96000004px;font-family:'Calibri Light';-inkscape-font-specification:Calibri-Light;writing-mode:lr-tb;fill:#4472c4;fill-opacity:1;fill-rule:nonzero;stroke:none"
   transform="matrix(1,0,0,-1,176.85875,0.112976)"><tspan
     id="tspan1351"
     y="0"
     x="0"
     style="-inkscape-font-specification:Calibri;font-family:Calibri;font-weight:normal;font-style:normal;font-stretch:normal;font-variant:normal">M</tspan></text>

</g></g></g></g><g
       transform="translate(0,-0.0662231)"
       id="g1361"><g
         id="g1363" /><g
         id="g1377"><g
           id="g1375"
           clip-path="url(#clipPath1367)"><g
             id="g1373"><text
   id="text1371"
   style="font-variant:normal;font-weight:300;font-size:24px;font-family:'Calibri Light';-inkscape-font-specification:Calibri-Light;writing-mode:lr-tb;fill:#4472c4;fill-opacity:1;fill-rule:nonzero;stroke:none"
   transform="matrix(1,0,0,-1,483.36875,261.40298)"><tspan
     id="tspan1369"
     y="0"
     x="0"
     style="-inkscape-font-specification:Calibri;font-family:Calibri;font-weight:normal;font-style:normal;font-stretch:normal;font-variant:normal">y</tspan></text>

</g></g></g></g><g
       transform="translate(0,-0.0662231)"
       id="g1379"><g
         id="g1381" /><g
         id="g1395"><g
           id="g1393"
           clip-path="url(#clipPath1385)"><g
             id="g1391"><text
   id="text1389"
   style="font-variant:normal;font-weight:300;font-size:15.96000004px;font-family:'Calibri Light';-inkscape-font-specification:Calibri-Light;writing-mode:lr-tb;fill:#4472c4;fill-opacity:1;fill-rule:nonzero;stroke:none"
   transform="matrix(1,0,0,-1,494.28875,255.52298)"><tspan
     id="tspan1387"
     y="0"
     x="0"
     style="-inkscape-font-specification:Calibri;font-family:Calibri;font-weight:normal;font-style:normal;font-stretch:normal;font-variant:normal">M</tspan></text>

</g></g></g></g><g
       transform="translate(0,-0.0662231)"
       id="g1397"><g
         id="g1399" /><g
         id="g1413"><g
           id="g1411"
           clip-path="url(#clipPath1403)"><g
             id="g1409"><text
   id="text1407"
   style="font-variant:normal;font-weight:300;font-size:24.02400017px;font-family:'Calibri Light';-inkscape-font-specification:Calibri-Light;writing-mode:lr-tb;fill:#4472c4;fill-opacity:1;fill-rule:nonzero;stroke:none"
   transform="matrix(1,0,0,-1,151.03875,423.90298)"><tspan
     id="tspan1405"
     y="0"
     x="0"
     style="-inkscape-font-specification:Calibri;font-family:Calibri;font-weight:normal;font-style:normal;font-stretch:normal;font-variant:normal">z</tspan></text>

</g></g></g></g><g
       transform="translate(0,-0.0662231)"
       id="g1415"><g
         id="g1417" /><g
         id="g1431"><g
           id="g1429"
           clip-path="url(#clipPath1421)"><g
             id="g1427"><text
   id="text1425"
   style="font-variant:normal;font-weight:300;font-size:15.96000004px;font-family:'Calibri Light';-inkscape-font-specification:Calibri-Light;writing-mode:lr-tb;fill:#4472c4;fill-opacity:1;fill-rule:nonzero;stroke:none"
   transform="matrix(1,0,0,-1,160.51875,418.00298)"><tspan
     id="tspan1423"
     y="0"
     x="0"
     style="-inkscape-font-specification:Calibri;font-family:Calibri;font-weight:normal;font-style:normal;font-stretch:normal;font-variant:normal">M</tspan></text>

</g></g></g></g><g
       transform="translate(0,-0.0662231)"
       id="g1433"><g
         id="g1435" /><g
         id="g1449"><g
           id="g1447"
           clip-path="url(#clipPath1439)"><g
             id="g1445"><text
   id="text1443"
   style="font-variant:normal;font-weight:300;font-size:24px;font-family:'Calibri Light';-inkscape-font-specification:Calibri-Light;writing-mode:lr-tb;fill:#4472c4;fill-opacity:1;fill-rule:nonzero;stroke:none"
   transform="matrix(1,0,0,-1,130.10875,254.63298)"><tspan
     id="tspan1441"
     y="0"
     x="0"
     style="-inkscape-font-specification:Calibri;font-family:Calibri;font-weight:normal;font-style:normal;font-stretch:normal;font-variant:normal">O</tspan></text>

</g></g></g></g><g
       transform="translate(0,-0.0662231)"
       id="g1451"><g
         id="g1453" /><g
         id="g1467"><g
           id="g1465"
           clip-path="url(#clipPath1457)"><g
             id="g1463"><text
   id="text1461"
   style="font-variant:normal;font-weight:300;font-size:15.96000004px;font-family:'Calibri Light';-inkscape-font-specification:Calibri-Light;writing-mode:lr-tb;fill:#4472c4;fill-opacity:1;fill-rule:nonzero;stroke:none"
   transform="matrix(1,0,0,-1,145.94875,248.75298)"><tspan
     id="tspan1459"
     y="0"
     x="0"
     style="-inkscape-font-specification:Calibri;font-family:Calibri;font-weight:normal;font-style:normal;font-stretch:normal;font-variant:normal">M</tspan></text>

</g></g></g></g><path
       inkscape:connector-curvature="0"
       id="path1469"
       style="fill:#5b9bd5;fill-opacity:1;fill-rule:nonzero;stroke:none"
       d="M 184.629,246.367 388.32,385.496 387.758,386.317 184.07,247.195 Z m 204.281,136.5 3.258,5.86 -6.648,-0.91 z" /><g
       transform="translate(0,-0.0662231)"
       id="g1471"><g
         id="g1473" /><g
         id="g1487"><g
           id="g1485"
           clip-path="url(#clipPath1477)"><g
             id="g1483"><text
   id="text1481"
   style="font-variant:normal;font-weight:300;font-size:24px;font-family:'Calibri Light';-inkscape-font-specification:Calibri-Light;writing-mode:lr-tb;fill:#4472c4;fill-opacity:1;fill-rule:nonzero;stroke:none"
   transform="matrix(1,0,0,-1,253.72875,337.14298)"><tspan
     id="tspan1479"
     y="0"
     x="0"
     style="-inkscape-font-specification:Calibri;font-family:Calibri;font-weight:normal;font-style:normal;font-stretch:normal;font-variant:normal">r</tspan></text>

</g></g></g></g><g
       transform="translate(0,-0.0662231)"
       id="g1489"><g
         id="g1491" /><g
         id="g1505"><g
           id="g1503"
           clip-path="url(#clipPath1495)"><g
             id="g1501"><text
   id="text1499"
   style="font-variant:normal;font-weight:300;font-size:15.96000004px;font-family:'Calibri Light';-inkscape-font-specification:Calibri-Light;writing-mode:lr-tb;fill:#4472c4;fill-opacity:1;fill-rule:nonzero;stroke:none"
   transform="matrix(1,0,0,-1,262.12875,331.26298)"><tspan
     id="tspan1497"
     y="0"
     x="0"
     style="-inkscape-font-specification:Calibri;font-family:Calibri;font-weight:normal;font-style:normal;font-stretch:normal;font-variant:normal">M</tspan></text>

</g></g></g></g><path
       inkscape:connector-curvature="0"
       id="path1507"
       style="fill:none;stroke:#5b9bd5;stroke-width:0.47999999;stroke-linecap:butt;stroke-linejoin:miter;stroke-miterlimit:10;stroke-dasharray:none;stroke-opacity:1"
       d="M 186.867,246.168 192.41,50.488" /><g
       transform="translate(0,-0.0662231)"
       id="g1509"><g
         id="g1511" /><g
         id="g1523"><g
           id="g1521"
           clip-path="url(#clipPath1515)"><g
             id="g1519"><path
               inkscape:connector-curvature="0"
               id="path1517"
               style="fill:#5b9bd5;fill-opacity:1;fill-rule:nonzero;stroke:none"
               d="m 191.578,78.672 -6.109,-0.801 -7.059,-0.797 -7.031,-0.672 -6.981,-0.539 -0.078,1 6.977,0.532 h -0.008 l 7.02,0.668 h -0.012 l 7.051,0.8 h -0.008 l 6.109,0.801 z m -6.281,3.652 7.203,-3.019 -6.172,-4.782 c -0.219,-0.171 -0.539,-0.128 -0.711,0.09 -0.16,0.219 -0.117,0.532 0.09,0.7 l 5.5,4.25 0.113,-0.848 -6.402,2.687 c -0.258,0.102 -0.379,0.403 -0.27,0.653 0.102,0.25 0.399,0.367 0.649,0.269 z" /></g></g></g></g><g
       transform="translate(0,-0.0662231)"
       id="g1525"><g
         id="g1527" /><g
         id="g1541"><g
           id="g1539"
           clip-path="url(#clipPath1531)"><g
             id="g1537"><text
   id="text1535"
   style="font-variant:normal;font-weight:300;font-size:24.02400017px;font-family:'Calibri Light';-inkscape-font-specification:Calibri-Light;writing-mode:lr-tb;fill:#4472c4;fill-opacity:1;fill-rule:nonzero;stroke:none"
   transform="matrix(1,0,0,-1,170.80875,52.312976)"><tspan
     id="tspan1533"
     y="0"
     x="0"
     style="-inkscape-font-specification:Calibri;font-family:Calibri;font-weight:normal;font-style:normal;font-stretch:normal;font-variant:normal">β</tspan></text>

</g></g></g></g><g
       transform="translate(0,-0.0662231)"
       id="g1543"><g
         id="g1545" /><g
         id="g1559"><g
           id="g1557"
           clip-path="url(#clipPath1549)"><g
             id="g1555"><text
   id="text1553"
   style="font-variant:normal;font-weight:300;font-size:24px;font-family:'Calibri Light';-inkscape-font-specification:Calibri-Light;writing-mode:lr-tb;fill:#4472c4;fill-opacity:1;fill-rule:nonzero;stroke:none"
   transform="matrix(1,0,0,-1,118.15875,130.96298)"><tspan
     id="tspan1551"
     y="0"
     x="0"
     style="-inkscape-font-specification:Calibri;font-family:Calibri;font-weight:normal;font-style:normal;font-stretch:normal;font-variant:normal">A</tspan></text>

</g></g></g></g><g
       transform="translate(0,-0.0662231)"
       id="g1561"><g
         id="g1563" /><g
         id="g1577"><g
           id="g1575"
           clip-path="url(#clipPath1567)"><g
             id="g1573"><text
   id="text1571"
   style="font-variant:normal;font-weight:300;font-size:15.96000004px;font-family:'Calibri Light';-inkscape-font-specification:Calibri-Light;writing-mode:lr-tb;fill:#4472c4;fill-opacity:1;fill-rule:nonzero;stroke:none"
   transform="matrix(1,0,0,-1,132.07875,125.08298)"><tspan
     id="tspan1569"
     y="0"
     x="0"
     style="-inkscape-font-specification:Calibri;font-family:Calibri;font-weight:normal;font-style:normal;font-stretch:normal;font-variant:normal">i</tspan></text>

</g></g></g></g><g
       transform="translate(0,-0.0662231)"
       id="g1579"><g
         id="g1581" /><g
         id="g1593"><g
           id="g1591"
           clip-path="url(#clipPath1585)"><g
             id="g1589"><path
               inkscape:connector-curvature="0"
               id="path1587"
               style="fill:none;stroke:#5b9bd5;stroke-width:0.5;stroke-linecap:butt;stroke-linejoin:miter;stroke-miterlimit:10;stroke-dasharray:none;stroke-opacity:1"
               d="m 381.957,395.492 c 30.731,-7.82 54.422,-22.66 67.973,-42.597" /></g></g></g></g></g></svg>