<?xml version="1.0" encoding="UTF-8" standalone="no"?>
<!-- Created with Inkscape (http://www.inkscape.org/) -->

<svg
   xmlns:dc="http://purl.org/dc/elements/1.1/"
   xmlns:cc="http://creativecommons.org/ns#"
   xmlns:rdf="http://www.w3.org/1999/02/22-rdf-syntax-ns#"
   xmlns:svg="http://www.w3.org/2000/svg"
   xmlns="http://www.w3.org/2000/svg"
   xmlns:sodipodi="http://sodipodi.sourceforge.net/DTD/sodipodi-0.dtd"
   xmlns:inkscape="http://www.inkscape.org/namespaces/inkscape"
   version="1.1"
   id="svg2983"
   xml:space="preserve"
   width="1280"
   height="720"
   viewBox="0 0 1280 720"
   sodipodi:docname="Stewart_param4.svg"
   inkscape:version="0.92.3 (2405546, 2018-03-11)"><metadata
     id="metadata2989"><rdf:RDF><cc:Work
         rdf:about=""><dc:format>image/svg+xml</dc:format><dc:type
           rdf:resource="http://purl.org/dc/dcmitype/StillImage" /><dc:title></dc:title></cc:Work></rdf:RDF></metadata><defs
     id="defs2987"><clipPath
       clipPathUnits="userSpaceOnUse"
       id="clipPath2999"><path
         d="M 0,1.2207e-4 H 960 V 540.00012 H 0 Z"
         id="path2997"
         inkscape:connector-curvature="0"
         style="clip-rule:evenodd" /></clipPath><clipPath
       clipPathUnits="userSpaceOnUse"
       id="clipPath3011"><path
         d="M 1.4305e-5,0 H 960.00001 V 540 H 1.4305e-5 Z"
         id="path3009"
         inkscape:connector-curvature="0"
         style="clip-rule:evenodd" /></clipPath><clipPath
       clipPathUnits="userSpaceOnUse"
       id="clipPath3023"><path
         d="M 1.4305e-5,0 H 960.00001 V 540 H 1.4305e-5 Z"
         id="path3021"
         inkscape:connector-curvature="0"
         style="clip-rule:evenodd" /></clipPath><clipPath
       clipPathUnits="userSpaceOnUse"
       id="clipPath3037"><path
         d="M 1.4305e-5,0 H 960.00001 V 540 H 1.4305e-5 Z"
         id="path3035"
         inkscape:connector-curvature="0"
         style="clip-rule:evenodd" /></clipPath><clipPath
       clipPathUnits="userSpaceOnUse"
       id="clipPath3049"><path
         d="M 1.4305e-5,0 H 960.00001 V 540 H 1.4305e-5 Z"
         id="path3047"
         inkscape:connector-curvature="0"
         style="clip-rule:evenodd" /></clipPath><clipPath
       clipPathUnits="userSpaceOnUse"
       id="clipPath3061"><path
         d="M 1.4305e-5,0 H 960.00001 V 540 H 1.4305e-5 Z"
         id="path3059"
         inkscape:connector-curvature="0"
         style="clip-rule:evenodd" /></clipPath><clipPath
       clipPathUnits="userSpaceOnUse"
       id="clipPath3073"><path
         d="M 1.4305e-5,0 H 960.00001 V 540 H 1.4305e-5 Z"
         id="path3071"
         inkscape:connector-curvature="0"
         style="clip-rule:evenodd" /></clipPath><clipPath
       clipPathUnits="userSpaceOnUse"
       id="clipPath3091"><path
         d="M 1.4305e-5,0 H 960.00001 V 540 H 1.4305e-5 Z"
         id="path3089"
         inkscape:connector-curvature="0"
         style="clip-rule:evenodd" /></clipPath><clipPath
       clipPathUnits="userSpaceOnUse"
       id="clipPath3103"><path
         d="M 1.4305e-5,0 H 960.00001 V 540 H 1.4305e-5 Z"
         id="path3101"
         inkscape:connector-curvature="0"
         style="clip-rule:evenodd" /></clipPath></defs><sodipodi:namedview
     pagecolor="#ffffff"
     bordercolor="#666666"
     borderopacity="1"
     objecttolerance="10"
     gridtolerance="10"
     guidetolerance="10"
     inkscape:pageopacity="0"
     inkscape:pageshadow="2"
     inkscape:window-width="3110"
     inkscape:window-height="1697"
     id="namedview2985"
     showgrid="false"
     inkscape:zoom="0.32777778"
     inkscape:cx="640"
     inkscape:cy="360"
     inkscape:window-x="90"
     inkscape:window-y="55"
     inkscape:window-maximized="1"
     inkscape:current-layer="g2991" /><g
     id="g2991"
     inkscape:groupmode="layer"
     inkscape:label="Stewart_cin4"
     transform="matrix(1.3333333,0,0,-1.3333333,0,720)"><path
       d="M 333.54,114.64 554.72,411.9"
       style="fill:none;stroke:#ed7d31;stroke-width:3;stroke-linecap:butt;stroke-linejoin:miter;stroke-miterlimit:10;stroke-dasharray:none;stroke-opacity:1"
       id="path3003"
       inkscape:connector-curvature="0" /><g
       id="g3005"><g
         id="g3007"
         clip-path="url(#clipPath3011)"><text
           transform="matrix(1,0,0,-1,562.13,385.97)"
           style="font-variant:normal;font-weight:normal;font-size:24px;font-family:Calibri;-inkscape-font-specification:Calibri;writing-mode:lr-tb;fill:#4472c4;fill-opacity:1;fill-rule:nonzero;stroke:none"
           id="text3015"><tspan
             x="0"
             y="0"
             id="tspan3013">A</tspan></text>
</g></g><g
       id="g3017"><g
         id="g3019"
         clip-path="url(#clipPath3023)"><text
           transform="matrix(1,0,0,-1,576.05,380.09)"
           style="font-variant:normal;font-weight:normal;font-size:15.96000004px;font-family:Calibri;-inkscape-font-specification:Calibri;writing-mode:lr-tb;fill:#4472c4;fill-opacity:1;fill-rule:nonzero;stroke:none"
           id="text3027"><tspan
             x="0"
             y="0"
             id="tspan3025">i</tspan></text>
</g></g><path
       d="m 327.76,106.62 238.89,320 -0.81,0.59 -238.88,-319.99 z m 240.29,317.7 1.18,6.6 -5.99,-3.01 z"
       style="fill:#ed7d31;fill-opacity:1;fill-rule:nonzero;stroke:none"
       id="path3029"
       inkscape:connector-curvature="0" /><g
       id="g3031"><g
         id="g3033"
         clip-path="url(#clipPath3037)"><text
           transform="matrix(1,0,0,-1,552.67,435.17)"
           style="font-variant:normal;font-weight:normal;font-size:24px;font-family:Calibri;-inkscape-font-specification:Calibri;writing-mode:lr-tb;fill:#ed7d31;fill-opacity:1;fill-rule:nonzero;stroke:none"
           id="text3041"><tspan
             x="0"
             y="0"
             id="tspan3039">x</tspan></text>
</g></g><g
       id="g3043"><g
         id="g3045"
         clip-path="url(#clipPath3049)"><text
           transform="matrix(1,0,0,-1,563.11,429.29)"
           style="font-variant:normal;font-weight:normal;font-size:15.96000004px;font-family:Calibri;-inkscape-font-specification:Calibri;writing-mode:lr-tb;fill:#ed7d31;fill-opacity:1;fill-rule:nonzero;stroke:none"
           id="text3053"><tspan
             x="0"
             y="0"
             id="tspan3051">i</tspan></text>
</g></g><g
       id="g3055"><g
         id="g3057"
         clip-path="url(#clipPath3061)"><text
           transform="matrix(1,0,0,-1,334.61,87.216)"
           style="font-variant:normal;font-weight:normal;font-size:24px;font-family:Calibri;-inkscape-font-specification:Calibri;writing-mode:lr-tb;fill:#70ad47;fill-opacity:1;fill-rule:nonzero;stroke:none"
           id="text3065"><tspan
             x="0"
             y="0"
             id="tspan3063">B</tspan></text>
</g></g><g
       id="g3067"><g
         id="g3069"
         clip-path="url(#clipPath3073)"><text
           transform="matrix(1,0,0,-1,347.69,81.336)"
           style="font-variant:normal;font-weight:normal;font-size:15.96000004px;font-family:Calibri;-inkscape-font-specification:Calibri;writing-mode:lr-tb;fill:#70ad47;fill-opacity:1;fill-rule:nonzero;stroke:none"
           id="text3077"><tspan
             x="0"
             y="0"
             id="tspan3075">i</tspan></text>
</g></g><path
       d="m 301.47,144.76 217.91,292.88 -0.8,0.59 -217.91,-292.87 z m -0.12,7.26 -0.87,-7.75 7.18,3.06 c 0.25,0.11 0.37,0.4 0.26,0.66 -0.11,0.25 -0.4,0.37 -0.66,0.26 l -6.39,-2.72 0.7,-0.52 0.77,6.9 c 0.03,0.28 -0.17,0.52 -0.44,0.56 -0.27,0.03 -0.52,-0.17 -0.55,-0.45 z m 217.35,278.95 0.87,7.75 -7.18,-3.06 c -0.26,-0.11 -0.37,-0.4 -0.26,-0.65 0.1,-0.26 0.4,-0.38 0.65,-0.27 l 6.39,2.73 -0.69,0.51 -0.78,-6.9 c -0.03,-0.28 0.17,-0.52 0.45,-0.55 0.27,-0.03 0.52,0.16 0.55,0.44 z"
       style="fill:#ed7d31;fill-opacity:1;fill-rule:nonzero;stroke:none"
       id="path3079"
       inkscape:connector-curvature="0" /><path
       d="m 333.71,114.01 -71.63,62.63"
       style="fill:none;stroke:#ed7d31;stroke-width:0.47999999;stroke-linecap:butt;stroke-linejoin:miter;stroke-miterlimit:10;stroke-dasharray:none;stroke-opacity:1"
       id="path3081"
       inkscape:connector-curvature="0" /><path
       d="M 553.91,411.37 482.28,474"
       style="fill:none;stroke:#ed7d31;stroke-width:0.47999999;stroke-linecap:butt;stroke-linejoin:miter;stroke-miterlimit:10;stroke-dasharray:none;stroke-opacity:1"
       id="path3083"
       inkscape:connector-curvature="0" /><g
       id="g3085"><g
         id="g3087"
         clip-path="url(#clipPath3091)"><text
           transform="matrix(1,0,0,-1,390.72,319.97)"
           style="font-variant:normal;font-weight:normal;font-size:24px;font-family:Calibri;-inkscape-font-specification:Calibri;writing-mode:lr-tb;fill:#ed7d31;fill-opacity:1;fill-rule:nonzero;stroke:none"
           id="text3095"><tspan
             x="0"
             y="0"
             id="tspan3093">L</tspan></text>
</g></g><g
       id="g3097"><g
         id="g3099"
         clip-path="url(#clipPath3103)"><text
           transform="matrix(1,0,0,-1,400.8,314.09)"
           style="font-variant:normal;font-weight:normal;font-size:15.96000004px;font-family:Calibri;-inkscape-font-specification:Calibri;writing-mode:lr-tb;fill:#ed7d31;fill-opacity:1;fill-rule:nonzero;stroke:none"
           id="text3107"><tspan
             x="0"
             y="0"
             id="tspan3105">i</tspan></text>
</g></g></g></svg>