<?xml version="1.0" encoding="UTF-8" standalone="no"?>
<!-- Created with Inkscape (http://www.inkscape.org/) -->

<svg
   xmlns:dc="http://purl.org/dc/elements/1.1/"
   xmlns:cc="http://creativecommons.org/ns#"
   xmlns:rdf="http://www.w3.org/1999/02/22-rdf-syntax-ns#"
   xmlns:svg="http://www.w3.org/2000/svg"
   xmlns="http://www.w3.org/2000/svg"
   xmlns:sodipodi="http://sodipodi.sourceforge.net/DTD/sodipodi-0.dtd"
   xmlns:inkscape="http://www.inkscape.org/namespaces/inkscape"
   version="1.1"
   id="svg815"
   xml:space="preserve"
   width="392.42545"
   height="208.1588"
   viewBox="0 0 392.42544 208.15879"
   sodipodi:docname="Pièce2_cor.svg"
   inkscape:version="0.92.4 (5da689c313, 2019-01-14)"><metadata
     id="metadata821"><rdf:RDF><cc:Work
         rdf:about=""><dc:format>image/svg+xml</dc:format><dc:type
           rdf:resource="http://purl.org/dc/dcmitype/StillImage" /><dc:title></dc:title></cc:Work></rdf:RDF></metadata><defs
     id="defs819" /><sodipodi:namedview
     pagecolor="#ffffff"
     bordercolor="#666666"
     borderopacity="1"
     objecttolerance="10"
     gridtolerance="10"
     guidetolerance="10"
     inkscape:pageopacity="0"
     inkscape:pageshadow="2"
     inkscape:window-width="1366"
     inkscape:window-height="705"
     id="namedview817"
     showgrid="false"
     fit-margin-top="0"
     fit-margin-left="0"
     fit-margin-right="0"
     fit-margin-bottom="0"
     inkscape:zoom="1.3083275"
     inkscape:cx="167.76794"
     inkscape:cy="74.224603"
     inkscape:window-x="-8"
     inkscape:window-y="-8"
     inkscape:window-maximized="1"
     inkscape:current-layer="g823" /><g
     id="g823"
     inkscape:groupmode="layer"
     inkscape:label="Pièce2"
     transform="matrix(1.3333333,0,0,-1.3333333,-186.18726,948.07937)"><g
       id="g975"
       transform="translate(301.0017,564.845)"><path
         d="M 0,0 V -2.835"
         style="fill:none;stroke:#000000;stroke-width:0.50999999;stroke-linecap:round;stroke-linejoin:round;stroke-miterlimit:10;stroke-dasharray:86.4, 3.6, 3.6, 3.6;stroke-dashoffset:0;stroke-opacity:1"
         id="path977"
         inkscape:connector-curvature="0" /></g><g
       id="g979"
       transform="translate(291.5529,574.2939)"><path
         d="M 0,0 H -2.835"
         style="fill:none;stroke:#000000;stroke-width:0.50999999;stroke-linecap:round;stroke-linejoin:round;stroke-miterlimit:10;stroke-dasharray:86.4, 3.6, 3.6, 3.6;stroke-dashoffset:0;stroke-opacity:1"
         id="path981"
         inkscape:connector-curvature="0" /></g><g
       id="g983"
       transform="translate(301.0017,583.7427)"><path
         d="M 0,0 V 2.835"
         style="fill:none;stroke:#000000;stroke-width:0.50999999;stroke-linecap:round;stroke-linejoin:round;stroke-miterlimit:10;stroke-dasharray:86.4, 3.6, 3.6, 3.6;stroke-dashoffset:0;stroke-opacity:1"
         id="path985"
         inkscape:connector-curvature="0" /></g><g
       id="g987"
       transform="translate(310.4506,574.2939)"><path
         d="M 0,0 H 2.835"
         style="fill:none;stroke:#000000;stroke-width:0.50999999;stroke-linecap:round;stroke-linejoin:round;stroke-miterlimit:10;stroke-dasharray:86.4, 3.6, 3.6, 3.6;stroke-dashoffset:0;stroke-opacity:1"
         id="path989"
         inkscape:connector-curvature="0" /></g><g
       id="g991"
       transform="translate(301,574.2)"><path
         d="M 0,0 V -4.7 M 0,0 H -4.8 M 0,0 V 4.8 M 0,0 h 4.7"
         style="fill:none;stroke:#000000;stroke-width:0.50999999;stroke-linecap:round;stroke-linejoin:round;stroke-miterlimit:10;stroke-dasharray:none;stroke-opacity:1"
         id="path993"
         inkscape:connector-curvature="0" /></g><g
       id="g1007"
       transform="translate(277.8,671)"><path
         d="m 0,0 -0.6,-1.6 -0.7,-1.6 -0.8,-1.5 -0.9,-1.4 -1.1,-1.3 -1.1,-1.3 -1.3,-1.1 -1.3,-1.1 -1.5,-1 -1.4,-0.8 -1.6,-0.7 -1.6,-0.6 -1.6,-0.5 -1.7,-0.3 -1.7,-0.2 -1.7,-0.1 -1.7,0.1 -1.7,0.1 -1.7,0.4 -1.6,0.4 -1.6,0.6 -1.6,0.7 -1.5,0.9 -1.4,0.9 -1.4,1.1 -1.2,1.1 -1.2,1.3 -1,1.3 -1,1.4 -0.8,1.5 -0.7,1.6 -0.6,1.6 -0.5,1.6 -0.3,1.7 -0.2,1.7 -0.1,1.7 0.1,1.7 0.2,1.7 0.3,1.7 0.5,1.6 0.6,1.7 0.7,1.5 0.8,1.5 1,1.4 1,1.4 1.2,1.2 1.2,1.2 1.4,1 1.4,1 1.5,0.8 1.6,0.7 1.6,0.6 1.6,0.5 1.7,0.3 1.7,0.2 1.7,0.1 1.7,-0.1 1.7,-0.2 1.7,-0.4 1.6,-0.4 1.6,-0.6 1.6,-0.8 1.4,-0.8 1.5,-0.9 1.3,-1.1 1.3,-1.2 1.1,-1.2 1.1,-1.4 0.9,-1.4 0.8,-1.5 0.7,-1.6 L 0,13.2 M 42,-15.1 V 0 M 4.3,-15.1 H 42 M 42,0 H 0 m 4.3,28.4 -1.5,1.5 -1.5,1.4 -1.6,1.4 -1.7,1.2 -1.8,1.2 -1.9,1 -1.9,0.9 -1.9,0.8 -2,0.6 -2.1,0.5 -2.1,0.4 -2.1,0.3 -2.1,0.1 H -22 l -2.1,-0.2 -2.1,-0.3 -2,-0.4 -2.1,-0.5 -2,-0.7 -1.9,-0.8 -1.9,-0.9 -1.9,-1.1 -1.7,-1.1 -1.7,-1.3 -1.6,-1.4 -1.5,-1.5 -1.4,-1.5 -1.3,-1.7 -1.2,-1.7 -1.1,-1.8 -1,-1.9 -0.9,-1.9 -0.7,-2 -0.6,-2 -0.4,-2.1 -0.4,-2.1 -0.2,-2.1 V 6.6 4.5 l 0.2,-2.1 0.4,-2.1 0.4,-2 0.6,-2.1 0.7,-1.9 0.9,-2 1,-1.8 1.1,-1.8 1.2,-1.8 1.3,-1.6 1.4,-1.6 1.5,-1.5 1.6,-1.3 1.7,-1.3 1.7,-1.2 1.9,-1 1.9,-0.9 1.9,-0.8 2,-0.7 2.1,-0.6 2,-0.4 2.1,-0.3 2.1,-0.1 h 2.1 l 2.1,0.1 2.1,0.2 2.1,0.4 2.1,0.5 2,0.7 1.9,0.8 1.9,0.8 1.9,1.1 1.8,1.1 1.7,1.2 1.6,1.4 1.5,1.4 1.5,1.6 M 42,28.4 H 4.3 M 42,13.2 V 28.4 M 0,13.2 h 42 m -62.7,26.5 h -117.1 m 0,-49.1 h 56.7 m 0,0 h 1.4 l 1.5,0.2 1.4,0.4 1.5,0.4 1.3,0.6 1.3,0.8 1.2,0.8 1.2,0.9 1,1.1 1,1.1 0.8,1.3 0.7,1.3 0.6,1.3 0.5,1.4 0.3,1.5 0.2,1.4 0.1,1.5 -0.1,1.5 -0.2,1.5 -0.3,1.4 -0.5,1.4 -0.6,1.4 -0.7,1.3 -0.8,1.2 -1,1.1 -1,1.1 -1.2,0.9 -1.2,0.9 -1.3,0.7 -1.3,0.6 -1.5,0.5 -1.4,0.3 -1.5,0.2 -1.4,0.1 m 0,0 h -56.7 m 0,17 v -17 m 0,-49.2 h 117.1 m -117.1,17.1 v -17.1 m 56.7,24.6 h -56.7 m 56.7,17 h 1 l 1.1,-0.2 1,-0.4 1,-0.4 0.9,-0.6 0.8,-0.7 0.7,-0.8 0.6,-0.8 0.5,-1 0.4,-1 0.3,-1 0.1,-1 V 6.1 L -72.8,5 -73.1,4 -73.5,3 -74,2.1 l -0.6,-0.9 -0.7,-0.8 -0.8,-0.7 -0.9,-0.5 -1,-0.5 -1,-0.3 -1.1,-0.2 -1,-0.1 m -56.7,17 h 56.7 m -56.7,7.6 v -7.6 m 0,-17 v -7.5"
         style="fill:none;stroke:#000000;stroke-width:0.70899999;stroke-linecap:round;stroke-linejoin:round;stroke-miterlimit:10;stroke-dasharray:none;stroke-opacity:1"
         id="path1009"
         inkscape:connector-curvature="0" /></g><g
       id="g1011"
       transform="translate(308.5608,684.2844)"><path
         d="M 0,0 V 15.118"
         style="fill:none;stroke:#000000;stroke-width:0.50999999;stroke-linecap:round;stroke-linejoin:round;stroke-miterlimit:10;stroke-dasharray:3.6, 1.8;stroke-dashoffset:-0.359;stroke-opacity:1"
         id="path1013"
         inkscape:connector-curvature="0" /></g><g
       id="g1015"
       transform="translate(293.4427,699.4025)"><path
         d="M 0,0 V -15.118"
         style="fill:none;stroke:#000000;stroke-width:0.50999999;stroke-linecap:round;stroke-linejoin:round;stroke-miterlimit:10;stroke-dasharray:3.6, 1.8;stroke-dashoffset:-0.359;stroke-opacity:1"
         id="path1017"
         inkscape:connector-curvature="0" /></g><g
       id="g1019"
       transform="translate(308.5608,655.9379)"><path
         d="M 0,0 V 15.118"
         style="fill:none;stroke:#000000;stroke-width:0.50999999;stroke-linecap:round;stroke-linejoin:round;stroke-miterlimit:10;stroke-dasharray:3.6, 1.8;stroke-dashoffset:-0.359;stroke-opacity:1"
         id="path1021"
         inkscape:connector-curvature="0" /></g><g
       id="g1023"
       transform="translate(293.4427,671.056)"><path
         d="M 0,0 V -15.118"
         style="fill:none;stroke:#000000;stroke-width:0.50999999;stroke-linecap:round;stroke-linejoin:round;stroke-miterlimit:10;stroke-dasharray:3.6, 1.8;stroke-dashoffset:-0.359;stroke-opacity:1"
         id="path1025"
         inkscape:connector-curvature="0" /></g><g
       id="g1027"
       transform="translate(414.7,644.5)"><path
         d="m 0,0 h 18.9 m 0,66.2 H 0 m -18.9,0 V 41.6 M 0,66.2 v -17 m -3.8,0 H 0 m -3.8,0 V 41.6 M 0,66.2 H -18.9 M -3.8,41.6 H -18.9 M 0,0 h -18.9 m 15.1,24.6 h -15.1 m 15.1,0 v -7.5 m 0,0 H 0 m 0,0 V 0 M -18.9,24.6 V 0 m 15.1,41.6 v 0 -0.2 -0.4 -0.4 -0.6 -0.7 -0.8 -0.8 -1 -1 -1 -1 -1.1 -1.1 -1 -1 -0.9 -0.9 -0.8 -0.7 -0.5 -0.5 -0.3 -0.2 -0.1 m -15.1,17 v 0 -0.2 -0.4 -0.4 -0.6 -0.7 -0.8 -0.8 -1 -1 -1 -1 -1.1 -1.1 -1 -1 -0.9 -0.9 -0.8 -0.7 -0.5 -0.5 -0.3 -0.2 -0.1 M 0,17.1 v 0 0.2 0.4 0.4 0.6 0.8 0.8 0.9 1.1 1.1 1.3 1.3 1.3 1.4 1.5 1.4 1.5 1.5 1.5 1.4 1.4 1.4 1.3 1.2 1.1 1.1 0.9 0.9 0.7 0.6 0.5 0.3 0.2 0.1 m 18.9,17 v 0 -0.2 -0.3 -0.4 -0.5 -0.7 -0.8 -0.9 -1.1 -1.1 -1.3 -1.4 -1.5 -1.5 -1.7 -1.7 -1.8 -1.9 -1.9 -2 -2 -2.1 -2.1 -2.1 -2.1 -2.1 -2.1 -2.1 -2 -2.1 -1.9 -2 V 17 15.2 13.4 11.8 10.2 8.7 7.4 6.1 4.9 3.9 3 2.2 1.5 0.9 0.5 0.2 0.1 0"
         style="fill:none;stroke:#000000;stroke-width:0.70899999;stroke-linecap:round;stroke-linejoin:round;stroke-miterlimit:10;stroke-dasharray:none;stroke-opacity:1"
         id="path1029"
         inkscape:connector-curvature="0" /></g><g
       id="g1031"
       transform="translate(433.6447,671.056)"><path
         d="M 0,0 H -37.795"
         style="fill:none;stroke:#000000;stroke-width:0.50999999;stroke-linecap:round;stroke-linejoin:round;stroke-miterlimit:10;stroke-dasharray:3.6, 1.8;stroke-dashoffset:1.80200005;stroke-opacity:1"
         id="path1033"
         inkscape:connector-curvature="0" /></g><g
       id="g1035"
       transform="translate(433.6447,684.2844)"><path
         d="M 0,0 H -37.795"
         style="fill:none;stroke:#000000;stroke-width:0.50999999;stroke-linecap:round;stroke-linejoin:round;stroke-miterlimit:10;stroke-dasharray:3.6, 1.8;stroke-dashoffset:1.80200005;stroke-opacity:1"
         id="path1037"
         inkscape:connector-curvature="0" /></g><g
       id="g1039"
       transform="translate(395.8494,655.9379)"><path
         d="M 0,0 H 37.795"
         style="fill:none;stroke:#000000;stroke-width:0.50999999;stroke-linecap:round;stroke-linejoin:round;stroke-miterlimit:10;stroke-dasharray:3.6, 1.8;stroke-dashoffset:1.80200005;stroke-opacity:1"
         id="path1041"
         inkscape:connector-curvature="0" /></g><g
       id="g1043"
       transform="translate(433.6447,699.4025)"><path
         d="M 0,0 H -37.795"
         style="fill:none;stroke:#000000;stroke-width:0.50999999;stroke-linecap:round;stroke-linejoin:round;stroke-miterlimit:10;stroke-dasharray:3.6, 1.8;stroke-dashoffset:1.80200005;stroke-opacity:1"
         id="path1045"
         inkscape:connector-curvature="0" /></g><g
       id="g1047"
       transform="translate(422.3061,684.2844)"><path
         d="M 0,0 V 15.118"
         style="fill:none;stroke:#000000;stroke-width:0.50999999;stroke-linecap:round;stroke-linejoin:round;stroke-miterlimit:10;stroke-dasharray:3.6, 1.8;stroke-dashoffset:-0.359;stroke-opacity:1"
         id="path1049"
         inkscape:connector-curvature="0" /></g><g
       id="g1051"
       transform="translate(407.188,699.4025)"><path
         d="M 0,0 V -15.118"
         style="fill:none;stroke:#000000;stroke-width:0.50999999;stroke-linecap:round;stroke-linejoin:round;stroke-miterlimit:10;stroke-dasharray:3.6, 1.8;stroke-dashoffset:-0.359;stroke-opacity:1"
         id="path1053"
         inkscape:connector-curvature="0" /></g><g
       id="g1055"
       transform="translate(422.3061,655.9379)"><path
         d="M 0,0 V 15.118"
         style="fill:none;stroke:#000000;stroke-width:0.50999999;stroke-linecap:round;stroke-linejoin:round;stroke-miterlimit:10;stroke-dasharray:3.6, 1.8;stroke-dashoffset:-0.359;stroke-opacity:1"
         id="path1057"
         inkscape:connector-curvature="0" /></g><g
       id="g1059"
       transform="translate(407.188,671.056)"><path
         d="M 0,0 V -15.118"
         style="fill:none;stroke:#000000;stroke-width:0.50999999;stroke-linecap:round;stroke-linejoin:round;stroke-miterlimit:10;stroke-dasharray:3.6, 1.8;stroke-dashoffset:-0.359;stroke-opacity:1"
         id="path1061"
         inkscape:connector-curvature="0" /></g><g
       id="g1063"
       transform="translate(224.1,574.2)"><path
         d="m 0,0 v -18.9 m 58,0 v 37.8 m 0,-37.8 H 56.5 55 53.4 51.7 49.9 48 46.1 44.2 42.2 40.1 38 35.9 33.8 31.7 29.6 27.5 25.5 23.4 21.4 19.5 17.6 15.7 14 12.3 10.7 9.2 7.8 6.5 5.3 4.2 3.2 2.3 1.6 1 0.6 0.2 0 M 33,0 v 18.9 m 25,0 h -1.5 -1.6 -1.7 -1.7 -1.9 -1.9 -2 -2 H 41.6 39.5 37.4 35.2 33 M 33,0 H -84.1 m 0,0 V 18.9 M 33,18.9 H -84.1 M 84.4,0 84.3,-1 84.1,-2 83.8,-2.9 83.4,-3.8 82.8,-4.6 82.1,-5.4 81.3,-6 80.5,-6.6 79.6,-7 l -1,-0.3 -1,-0.2 h -1 l -1,0.1 -1,0.2 -0.9,0.4 -0.9,0.5 -0.8,0.6 -0.8,0.7 -0.6,0.8 -0.5,0.8 -0.4,1 -0.3,0.9 -0.1,1 v 1 l 0.1,1 0.3,1 0.4,1 0.5,0.8 0.6,0.8 0.8,0.7 0.8,0.6 0.9,0.5 0.9,0.4 1,0.2 1,0.1 h 1 l 1,-0.2 1,-0.3 L 80.5,6.7 81.3,6.1 82.1,5.5 82.8,4.7 83.4,3.9 83.8,3 84.1,2 84.3,1.1 84.4,0 m 11.3,-18.9 v 37.8 m 0,-37.8 H 58 M 95.7,18.9 H 58"
         style="fill:none;stroke:#000000;stroke-width:0.70899999;stroke-linecap:round;stroke-linejoin:round;stroke-miterlimit:10;stroke-dasharray:none;stroke-opacity:1"
         id="path1065"
         inkscape:connector-curvature="0" /></g><g
       id="g1067"
       transform="translate(257.1764,574.2939)"><path
         d="M 0,0 V 18.898"
         style="fill:none;stroke:#000000;stroke-width:0.50999999;stroke-linecap:round;stroke-linejoin:round;stroke-miterlimit:10;stroke-dasharray:3.6, 1.8;stroke-dashoffset:0.45100001;stroke-opacity:1"
         id="path1069"
         inkscape:connector-curvature="0" /></g><g
       id="g1071"
       transform="translate(277.8777,555.3962)"><path
         d="M 0,0 V 37.795"
         style="fill:none;stroke:#000000;stroke-width:0.50999999;stroke-linecap:round;stroke-linejoin:round;stroke-miterlimit:10;stroke-dasharray:3.6, 1.8;stroke-dashoffset:1.80200005;stroke-opacity:1"
         id="path1073"
         inkscape:connector-curvature="0" /></g><g
       id="g1075"
       transform="translate(196.704,578.0734)"><path
         d="M 0,0 H -56.693"
         style="fill:none;stroke:#000000;stroke-width:0.50999999;stroke-linecap:round;stroke-linejoin:round;stroke-miterlimit:10;stroke-dasharray:3.6, 1.8;stroke-dashoffset:0.454;stroke-opacity:1"
         id="path1077"
         inkscape:connector-curvature="0" /></g><g
       id="g1079"
       transform="translate(196.704,578.0734)"><path
         d="M 0,0 V -3.78"
         style="fill:none;stroke:#000000;stroke-width:0.50999999;stroke-linecap:round;stroke-linejoin:round;stroke-miterlimit:10;stroke-dasharray:3.6, 1.8;stroke-dashoffset:1.88999999;stroke-opacity:1"
         id="path1081"
         inkscape:connector-curvature="0" /></g><g
       id="g1083"
       transform="translate(212.767,578.0734)"><path
         d="m 0,0 h -0.069 -0.204 -0.34 -0.472 -0.599 -0.722 -0.838 -0.948 -1.049 -1.142 -1.224 -1.296 -1.357 -1.407 -1.444 -1.47 -1.482"
         style="fill:none;stroke:#000000;stroke-width:0.50999999;stroke-linecap:round;stroke-linejoin:round;stroke-miterlimit:10;stroke-dasharray:3.6, 1.8;stroke-dashoffset:1.86899996;stroke-opacity:1"
         id="path1085"
         inkscape:connector-curvature="0" /></g><g
       id="g1087"
       transform="translate(196.704,578.0734)"><path
         d="M 0,0 V -3.78"
         style="fill:none;stroke:#000000;stroke-width:0.50999999;stroke-linecap:round;stroke-linejoin:round;stroke-miterlimit:10;stroke-dasharray:3.6, 1.8;stroke-dashoffset:1.88999999;stroke-opacity:1"
         id="path1089"
         inkscape:connector-curvature="0" /></g><g
       id="g1091"
       transform="translate(196.704,578.0734)"><path
         d="M 0,0 V 15.118"
         style="fill:none;stroke:#000000;stroke-width:0.50999999;stroke-linecap:round;stroke-linejoin:round;stroke-miterlimit:10;stroke-dasharray:3.6, 1.8;stroke-dashoffset:-0.359;stroke-opacity:1"
         id="path1093"
         inkscape:connector-curvature="0" /></g><g
       id="g1095"
       transform="translate(196.704,578.0734)"><path
         d="M 0,0 V 15.118"
         style="fill:none;stroke:#000000;stroke-width:0.50999999;stroke-linecap:round;stroke-linejoin:round;stroke-miterlimit:10;stroke-dasharray:3.6, 1.8;stroke-dashoffset:-0.359;stroke-opacity:1"
         id="path1097"
         inkscape:connector-curvature="0" /></g><g
       id="g1099"
       transform="translate(235.4441,593.1915)"><path
         d="M 0,0 V -37.795"
         style="fill:none;stroke:#000000;stroke-width:0.50999999;stroke-linecap:round;stroke-linejoin:round;stroke-miterlimit:10;stroke-dasharray:3.6, 1.8;stroke-dashoffset:1.80200005;stroke-opacity:1"
         id="path1101"
         inkscape:connector-curvature="0" /></g><g
       id="g1103"
       transform="translate(212.767,574.2939)"><path
         d="M 0,0 V 3.78"
         style="fill:none;stroke:#000000;stroke-width:0.50999999;stroke-linecap:round;stroke-linejoin:round;stroke-miterlimit:10;stroke-dasharray:3.6, 1.8;stroke-dashoffset:1.88999999;stroke-opacity:1"
         id="path1105"
         inkscape:connector-curvature="0" /></g><g
       id="g1107"
       transform="translate(205.2079,578.0734)"><path
         d="M 0,0 V 15.118"
         style="fill:none;stroke:#000000;stroke-width:0.50999999;stroke-linecap:round;stroke-linejoin:round;stroke-miterlimit:10;stroke-dasharray:3.6, 1.8;stroke-dashoffset:-0.359;stroke-opacity:1"
         id="path1109"
         inkscape:connector-curvature="0" /></g></g></svg>