<?xml version="1.0" encoding="UTF-8" standalone="no"?>
<!-- Created with Inkscape (http://www.inkscape.org/) -->

<svg
   xmlns:dc="http://purl.org/dc/elements/1.1/"
   xmlns:cc="http://creativecommons.org/ns#"
   xmlns:rdf="http://www.w3.org/1999/02/22-rdf-syntax-ns#"
   xmlns:svg="http://www.w3.org/2000/svg"
   xmlns="http://www.w3.org/2000/svg"
   xmlns:sodipodi="http://sodipodi.sourceforge.net/DTD/sodipodi-0.dtd"
   xmlns:inkscape="http://www.inkscape.org/namespaces/inkscape"
   version="1.1"
   id="svg815"
   xml:space="preserve"
   width="529.54718"
   height="359.79306"
   viewBox="0 0 529.54718 359.79305"
   sodipodi:docname="Pièce5_cor.svg"
   inkscape:version="0.92.4 (5da689c313, 2019-01-14)"><metadata
     id="metadata821"><rdf:RDF><cc:Work
         rdf:about=""><dc:format>image/svg+xml</dc:format><dc:type
           rdf:resource="http://purl.org/dc/dcmitype/StillImage" /><dc:title></dc:title></cc:Work></rdf:RDF></metadata><defs
     id="defs819" /><sodipodi:namedview
     pagecolor="#ffffff"
     bordercolor="#666666"
     borderopacity="1"
     objecttolerance="10"
     gridtolerance="10"
     guidetolerance="10"
     inkscape:pageopacity="0"
     inkscape:pageshadow="2"
     inkscape:window-width="1366"
     inkscape:window-height="705"
     id="namedview817"
     showgrid="false"
     fit-margin-top="0"
     fit-margin-left="0"
     fit-margin-right="0"
     fit-margin-bottom="0"
     inkscape:zoom="1.0644956"
     inkscape:cx="270.46225"
     inkscape:cy="159.63373"
     inkscape:window-x="-8"
     inkscape:window-y="-8"
     inkscape:window-maximized="1"
     inkscape:current-layer="g823" /><g
     id="g823"
     inkscape:groupmode="layer"
     inkscape:label="Pièce5"
     transform="matrix(1.3333333,0,0,-1.3333333,-103.06554,941.13055)"><text
       transform="matrix(1,0,0,-1,345.5436,665.0917)"
       style="font-variant:normal;font-weight:normal;font-stretch:normal;font-size:13.22830009px;font-family:'Century Gothic';-inkscape-font-specification:CenturyGothic;writing-mode:lr-tb;fill:#000000;fill-opacity:1;fill-rule:nonzero;stroke:none"
       id="text827"><tspan
         x="0 -268.56094"
         y="0"
         sodipodi:role="line"
         id="tspan825">AA</tspan></text>
<text
       transform="matrix(0.999842,0,0,-1,179.06544,436.24211)"
       style="font-variant:normal;font-weight:normal;font-stretch:normal;font-size:13.22830009px;font-family:'Century Gothic';-inkscape-font-specification:CenturyGothic;writing-mode:lr-tb;fill:#000000;fill-opacity:1;fill-rule:nonzero;stroke:none"
       id="text831"><tspan
         x="0 10.752909 22.246485 30.909653 38.739571 45.828819 49.492477 59.279873 63.670975"
         y="0"
         sodipodi:role="line"
         id="tspan829">COUPE A-A</tspan></text>
<g
       id="g983"
       transform="translate(341.9,638.9)"><path
         d="M 0,0 -2.9,18 H 2.9 L 0,0 m -252.3,0 -2.9,18 h 5.8 l -2.9,-18"
         style="fill:none;stroke:#000000;stroke-width:0.99199998;stroke-linecap:butt;stroke-linejoin:miter;stroke-miterlimit:10;stroke-dasharray:none;stroke-opacity:1"
         id="path985"
         inkscape:connector-curvature="0" /></g><g
       id="g987"
       transform="translate(215.7834,647.4793)"><path
         d="M 0,0 V 58.11"
         style="fill:none;stroke:#000000;stroke-width:0.50999999;stroke-linecap:round;stroke-linejoin:round;stroke-miterlimit:10;stroke-dasharray:86.4, 3.6, 3.6, 3.6;stroke-dashoffset:62.74499893;stroke-opacity:1"
         id="path989"
         inkscape:connector-curvature="0" /></g><g
       id="g991"
       transform="translate(215.7834,572.3612)"><path
         d="M 0,0 V 58.11"
         style="fill:none;stroke:#000000;stroke-width:0.50999999;stroke-linecap:round;stroke-linejoin:round;stroke-miterlimit:10;stroke-dasharray:86.4, 3.6, 3.6, 3.6;stroke-dashoffset:62.74499893;stroke-opacity:1"
         id="path993"
         inkscape:connector-curvature="0" /></g><g
       id="g995"
       transform="translate(215.7834,646.062)"><path
         d="M 0,0 V 10.63"
         style="fill:none;stroke:#000000;stroke-width:0.50999999;stroke-linecap:round;stroke-linejoin:round;stroke-miterlimit:10;stroke-dasharray:86.4, 3.6, 3.6, 3.6;stroke-dashoffset:0;stroke-opacity:1"
         id="path997"
         inkscape:connector-curvature="0" /></g><g
       id="g999"
       transform="translate(208.6967,638.9753)"><path
         d="M 0,0 H -10.63"
         style="fill:none;stroke:#000000;stroke-width:0.50999999;stroke-linecap:round;stroke-linejoin:round;stroke-miterlimit:10;stroke-dasharray:86.4, 3.6, 3.6, 3.6;stroke-dashoffset:0;stroke-opacity:1"
         id="path1001"
         inkscape:connector-curvature="0" /></g><g
       id="g1003"
       transform="translate(215.7834,631.8887)"><path
         d="M 0,0 V -10.63"
         style="fill:none;stroke:#000000;stroke-width:0.50999999;stroke-linecap:round;stroke-linejoin:round;stroke-miterlimit:10;stroke-dasharray:86.4, 3.6, 3.6, 3.6;stroke-dashoffset:0;stroke-opacity:1"
         id="path1005"
         inkscape:connector-curvature="0" /></g><g
       id="g1007"
       transform="translate(222.87,638.9753)"><path
         d="M 0,0 H 10.63"
         style="fill:none;stroke:#000000;stroke-width:0.50999999;stroke-linecap:round;stroke-linejoin:round;stroke-miterlimit:10;stroke-dasharray:86.4, 3.6, 3.6, 3.6;stroke-dashoffset:0;stroke-opacity:1"
         id="path1009"
         inkscape:connector-curvature="0" /></g><g
       id="g1011"
       transform="translate(404.6523,638.9753)"><path
         d="M 0,0 H 53.858"
         style="fill:none;stroke:#000000;stroke-width:0.50999999;stroke-linecap:round;stroke-linejoin:round;stroke-miterlimit:10;stroke-dasharray:86.4, 3.6, 3.6, 3.6;stroke-dashoffset:64.8710022;stroke-opacity:1"
         id="path1013"
         inkscape:connector-curvature="0" /></g><g
       id="g1015"
       transform="translate(431.5815,647.4793)"><path
         d="M 0,0 V 58.11"
         style="fill:none;stroke:#000000;stroke-width:0.50999999;stroke-linecap:round;stroke-linejoin:round;stroke-miterlimit:10;stroke-dasharray:86.4, 3.6, 3.6, 3.6;stroke-dashoffset:62.74499893;stroke-opacity:1"
         id="path1017"
         inkscape:connector-curvature="0" /></g><g
       id="g1019"
       transform="translate(431.5815,572.3612)"><path
         d="M 0,0 V 58.11"
         style="fill:none;stroke:#000000;stroke-width:0.50999999;stroke-linecap:round;stroke-linejoin:round;stroke-miterlimit:10;stroke-dasharray:86.4, 3.6, 3.6, 3.6;stroke-dashoffset:62.74499893;stroke-opacity:1"
         id="path1021"
         inkscape:connector-curvature="0" /></g><g
       id="g1023"
       transform="translate(215.7834,475.2468)"><path
         d="M 0,0 V 53.858"
         style="fill:none;stroke:#000000;stroke-width:0.50999999;stroke-linecap:round;stroke-linejoin:round;stroke-miterlimit:10;stroke-dasharray:86.4, 3.6, 3.6, 3.6;stroke-dashoffset:64.8710022;stroke-opacity:1"
         id="path1025"
         inkscape:connector-curvature="0" /></g><g
       id="g1027"
       transform="translate(215.7,638.9)"><path
         d="M 0,0 V 3.6 M 0,0 H -3.5 M 0,0 V -3.5 M 0,0 h 3.6"
         style="fill:none;stroke:#000000;stroke-width:0.50999999;stroke-linecap:round;stroke-linejoin:round;stroke-miterlimit:10;stroke-dasharray:none;stroke-opacity:1"
         id="path1029"
         inkscape:connector-curvature="0" /></g><g
       id="g1031"
       transform="translate(341.9,674.9)"><path
         d="m 0,0 v -36 m -31.5,0 h 36 M -252.3,0 v -36 m -4.5,0 h 36"
         style="fill:none;stroke:#000000;stroke-width:0.99199998;stroke-linecap:round;stroke-linejoin:round;stroke-miterlimit:10;stroke-dasharray:none;stroke-opacity:1"
         id="path1033"
         inkscape:connector-curvature="0" /></g><g
       id="g1047"
       transform="translate(341.9,638.9)"><path
         d="m 0,0 -2.9,18 h 5.8 m -255.2,-18 -2.9,18 h 5.8"
         style="fill:#000000;fill-opacity:1;fill-rule:nonzero;stroke:none"
         id="path1049"
         inkscape:connector-curvature="0" /></g><g
       id="g1051"
       transform="translate(109.4,589.3)"><path
         d="M 0,0 V -11.3 M 44,44 0,0 M 55.3,44 H 44 M 55.3,55.3 V 44 M 44,55.3 H 55.3 M 0,99.2 44,55.3 M 0,110.6 V 99.2 m 78,11.4 H 0 m 78,0 V -11.3 m -78,0 h 78 m 134.6,121.9 h -77.9 m 77.9,-11.4 v 11.4 M 168.7,55.3 212.6,99.2 M 134.7,-11.3 V 110.6 M 157.4,44 V 55.3 M 168.7,44 H 157.4 M 212.6,0 168.7,44 m 43.9,-55.3 V 0 m -77.9,-11.3 h 77.9 m -55.2,66.6 h 11.3 m -48.2,-5.7 -0.1,1.6 -0.2,1.6 -0.5,1.5 -0.6,1.5 -0.8,1.4 -0.9,1.3 -1,1.1 -1.2,1.1 -1.3,0.9 -1.4,0.8 -1.5,0.6 -1.5,0.4 -1.6,0.3 -1.6,0.1 -1.6,-0.1 -1.5,-0.3 -1.5,-0.4 -1.5,-0.6 -1.4,-0.8 -1.3,-0.9 -1.2,-1.1 -1,-1.1 -1,-1.3 L 93.6,55.8 93,54.3 92.5,52.8 92.2,51.2 V 49.6 48 l 0.3,-1.5 0.5,-1.6 0.6,-1.4 0.7,-1.4 1,-1.3 1,-1.2 1.2,-1.1 1.3,-0.9 1.4,-0.7 1.5,-0.7 1.5,-0.4 1.5,-0.3 h 1.6 1.6 l 1.6,0.3 1.5,0.4 1.5,0.7 1.4,0.7 1.3,0.9 1.2,1.1 1,1.2 0.9,1.3 0.8,1.4 0.6,1.4 0.5,1.6 0.2,1.5 0.1,1.6 m 14.2,61 H 78 m 0,-121.9 h 56.7"
         style="fill:none;stroke:#000000;stroke-width:0.70899999;stroke-linecap:round;stroke-linejoin:round;stroke-miterlimit:10;stroke-dasharray:none;stroke-opacity:1"
         id="path1053"
         inkscape:connector-curvature="0" /></g><g
       id="g1055"
       transform="translate(208.6967,626.6981)"><path
         d="M 0,0 V -48.668"
         style="fill:none;stroke:#000000;stroke-width:0.50999999;stroke-linecap:round;stroke-linejoin:round;stroke-miterlimit:10;stroke-dasharray:3.6, 1.8;stroke-dashoffset:1.76600003;stroke-opacity:1"
         id="path1057"
         inkscape:connector-curvature="0" /></g><g
       id="g1059"
       transform="translate(222.87,578.0305)"><path
         d="M 0,0 V 48.668"
         style="fill:none;stroke:#000000;stroke-width:0.50999999;stroke-linecap:round;stroke-linejoin:round;stroke-miterlimit:10;stroke-dasharray:3.6, 1.8;stroke-dashoffset:1.76600003;stroke-opacity:1"
         id="path1061"
         inkscape:connector-curvature="0" /></g><g
       id="g1063"
       transform="translate(208.6967,699.9202)"><path
         d="M 0,0 V -48.665"
         style="fill:none;stroke:#000000;stroke-width:0.50999999;stroke-linecap:round;stroke-linejoin:round;stroke-miterlimit:10;stroke-dasharray:3.6, 1.8;stroke-dashoffset:1.76699996;stroke-opacity:1"
         id="path1065"
         inkscape:connector-curvature="0" /></g><g
       id="g1067"
       transform="translate(222.87,651.2639)"><path
         d="M 0,0 V 48.656"
         style="fill:none;stroke:#000000;stroke-width:0.50999999;stroke-linecap:round;stroke-linejoin:round;stroke-miterlimit:10;stroke-dasharray:3.6, 1.8;stroke-dashoffset:1.77199996;stroke-opacity:1"
         id="path1069"
         inkscape:connector-curvature="0" /></g><g
       id="g1071"
       transform="translate(389,578)"><path
         d="m 0,0 v 11.3 m 0,0 H 85.1 M 0,0 h 85.1 m 0,0 V 11.3 M 0,66.6 H 85.1 M 0,66.6 v 43.9 m 0,0 h 85.1 m 0,-43.9 v 43.9 M 0,11.3 v 44 m 0,0 h 85.1 m 0,-44 v 44 M 0,110.5 v 11.4 m 0,0 h 85.1 m 0,-11.4 v 11.4 M 0,55.3 V 66.6 M 85.1,55.3 v 11.3"
         style="fill:none;stroke:#000000;stroke-width:0.70899999;stroke-linecap:round;stroke-linejoin:round;stroke-miterlimit:10;stroke-dasharray:none;stroke-opacity:1"
         id="path1073"
         inkscape:connector-curvature="0" /></g><g
       id="g1075"
       transform="translate(452.8413,699.9202)"><path
         d="M 0,0 V -121.89"
         style="fill:none;stroke:#000000;stroke-width:0.50999999;stroke-linecap:round;stroke-linejoin:round;stroke-miterlimit:10;stroke-dasharray:3.6, 1.8;stroke-dashoffset:0.255;stroke-opacity:1"
         id="path1077"
         inkscape:connector-curvature="0" /></g><g
       id="g1079"
       transform="translate(410.3216,578.0305)"><path
         d="M 0,0 V 121.89"
         style="fill:none;stroke:#000000;stroke-width:0.50999999;stroke-linecap:round;stroke-linejoin:round;stroke-miterlimit:10;stroke-dasharray:3.6, 1.8;stroke-dashoffset:0.255;stroke-opacity:1"
         id="path1081"
         inkscape:connector-curvature="0" /></g><g
       id="g1083"
       transform="translate(424.4948,653.1486)"><path
         d="m 0,0 0.085,-0.043 0.263,-0.128 0.413,-0.194 0.571,-0.252 0.731,-0.294 0.88,-0.307 1.047,-0.296 1.19,-0.238 1.147,-0.123 1.219,-0.015 1.026,0.081 1.013,0.162 1.829,0.489 0.858,0.309 0.737,0.304 0.581,0.262 0.4,0.192 0.168,0.083 -0.009,-0.004"
         style="fill:none;stroke:#000000;stroke-width:0.50999999;stroke-linecap:round;stroke-linejoin:round;stroke-miterlimit:10;stroke-dasharray:3.6, 1.8;stroke-dashoffset:-0.199;stroke-opacity:1"
         id="path1085"
         inkscape:connector-curvature="0" /></g><g
       id="g1087"
       transform="translate(438.0965,625.079)"><path
         d="m 0,0 0.214,-0.102 0.174,-0.084 0.168,-0.083 0.015,-0.007 -0.036,0.017 -0.184,0.091 -0.346,0.166 -0.492,0.224 -0.641,0.27 -0.823,0.309 -0.973,0.307 -0.538,0.14 -0.567,0.125 -0.606,0.106 -0.631,0.08 L -6.39,1.621 -6.973,1.613 -7.558,1.578 -8.554,1.454 -9.522,1.259 l -0.931,-0.253 -0.855,-0.287 -0.806,-0.314 -0.354,-0.15 -0.313,-0.14 -0.259,-0.119 -0.214,-0.102 -0.168,-0.082 -0.115,-0.057 -0.065,-0.032 v 0"
         style="fill:none;stroke:#000000;stroke-width:0.50999999;stroke-linecap:round;stroke-linejoin:round;stroke-miterlimit:10;stroke-dasharray:3.6, 1.8;stroke-dashoffset:-0.51999998;stroke-opacity:1"
         id="path1089"
         inkscape:connector-curvature="0" /></g><g
       id="g1091"
       transform="translate(424.4948,653.1486)"><path
         d="M 0,0 H -14.173"
         style="fill:none;stroke:#000000;stroke-width:0.50999999;stroke-linecap:round;stroke-linejoin:round;stroke-miterlimit:10;stroke-dasharray:3.6, 1.8;stroke-dashoffset:0.113;stroke-opacity:1"
         id="path1093"
         inkscape:connector-curvature="0" /></g><g
       id="g1095"
       transform="translate(452.8413,653.1486)"><path
         d="M 0,0 H -14.197"
         style="fill:none;stroke:#000000;stroke-width:0.50999999;stroke-linecap:round;stroke-linejoin:round;stroke-miterlimit:10;stroke-dasharray:3.6, 1.8;stroke-dashoffset:0.102;stroke-opacity:1"
         id="path1097"
         inkscape:connector-curvature="0" /></g><g
       id="g1099"
       transform="translate(438.6641,624.8021)"><path
         d="M 0,0 H 14.177"
         style="fill:none;stroke:#000000;stroke-width:0.50999999;stroke-linecap:round;stroke-linejoin:round;stroke-miterlimit:10;stroke-dasharray:3.6, 1.8;stroke-dashoffset:0.111;stroke-opacity:1"
         id="path1101"
         inkscape:connector-curvature="0" /></g><g
       id="g1103"
       transform="translate(410.3216,624.8021)"><path
         d="M 0,0 H 14.173"
         style="fill:none;stroke:#000000;stroke-width:0.50999999;stroke-linecap:round;stroke-linejoin:round;stroke-miterlimit:10;stroke-dasharray:3.6, 1.8;stroke-dashoffset:0.113;stroke-opacity:1"
         id="path1105"
         inkscape:connector-curvature="0" /></g><g
       id="g1107"
       transform="translate(424.4948,699.9202)"><path
         d="M 0,0 V -46.772"
         style="fill:none;stroke:#000000;stroke-width:0.50999999;stroke-linecap:round;stroke-linejoin:round;stroke-miterlimit:10;stroke-dasharray:3.6, 1.8;stroke-dashoffset:0.014;stroke-opacity:1"
         id="path1109"
         inkscape:connector-curvature="0" /></g><g
       id="g1111"
       transform="translate(438.6681,653.1367)"><path
         d="M 0,0 V 46.784"
         style="fill:none;stroke:#000000;stroke-width:0.50999999;stroke-linecap:round;stroke-linejoin:round;stroke-miterlimit:10;stroke-dasharray:3.6, 1.8;stroke-dashoffset:0.008;stroke-opacity:1"
         id="path1113"
         inkscape:connector-curvature="0" /></g><g
       id="g1115"
       transform="translate(424.4948,624.8021)"><path
         d="M 0,0 V -46.772"
         style="fill:none;stroke:#000000;stroke-width:0.50999999;stroke-linecap:round;stroke-linejoin:round;stroke-miterlimit:10;stroke-dasharray:3.6, 1.8;stroke-dashoffset:0.014;stroke-opacity:1"
         id="path1117"
         inkscape:connector-curvature="0" /></g><g
       id="g1119"
       transform="translate(438.6681,578.0305)"><path
         d="M 0,0 V 46.774"
         style="fill:none;stroke:#000000;stroke-width:0.50999999;stroke-linecap:round;stroke-linejoin:round;stroke-miterlimit:10;stroke-dasharray:3.6, 1.8;stroke-dashoffset:0.013;stroke-opacity:1"
         id="path1121"
         inkscape:connector-curvature="0" /></g><g
       id="g1123"
       transform="translate(164.7,544.5)"><path
         d="M 0,0 0.1,0.1 M 0,-12.7 12.8,0.1 M 0,-25.4 22.7,-2.7 M 0,-38.2 22.7,-15.5 M 0,-50.9 29.8,-21.1 M 0,-63.6 36.9,-26.8 M 0,-76.3 36.9,-39.5 M 25.4,-63.6 36.9,-52.2 M 4.2,-84.9 22.7,-66.4 m -5.8,-18.5 5.8,5.8 m 56.7,69.4 9.8,9.8 m -24,-24 2.8,2.8 m -2.8,-15.5 36.7,36.7 m -36.7,-49.4 36.9,36.8 M 65.2,-62 l 36.9,36.8 m -25.8,-38.4 25.8,25.7 m -22.7,-35.4 22.7,22.6 m -21.6,-34.2 21.6,21.5 m -8.8,-21.5 8.8,8.8"
         style="fill:none;stroke:#000000;stroke-width:0.50999999;stroke-linecap:round;stroke-linejoin:round;stroke-miterlimit:10;stroke-dasharray:none;stroke-opacity:1"
         id="path1125"
         inkscape:connector-curvature="0" /></g><g
       id="g1127"
       transform="translate(164.7,459.6)"><path
         d="m 0,0 v 85 m 22.7,0 H 0 m 22.7,0 V 63.8 m 14.2,0 H 22.7 m 14.2,0 V 21.3 m -14.2,0 h 14.2 m -14.2,0 V 0 m 0,0 H 0 M 102.1,0 H 79.4 m 0,0 v 21.3 m -14.2,0 h 14.2 m -14.2,0 v 42.5 m 14.2,0 H 65.2 M 102.1,85 H 79.4 m 22.7,0 V 0 M 79.4,63.8 V 85 M 36.9,21.3 v 0 h 0.3 0.4 0.6 0.7 0.9 0.9 1.2 1.2 1.3 1.4 1.4 1.5 1.6 1.5 1.5 1.5 1.5 1.4 1.3 1.2 1.1 1 0.9 0.7 0.6 0.4 0.2 0.1 m 0,42.5 H 65.1 64.9 64.5 63.9 63.2 62.3 61.3 60.2 59 57.7 56.3 54.8 53.3 51.8 50.3 48.7 47.2 45.8 44.4 43.1 41.9 40.7 39.8 38.9 38.2 37.6 37.2 36.9 M 51,35.4 l -1.1,0.1 -1.1,0.3 -1,0.4 -0.9,0.6 -0.9,0.7 -0.7,0.9 -0.3,0.5 -0.3,0.5 -0.3,0.6 -0.2,0.6 -0.1,0.6 -0.1,0.6 -0.1,0.6 0.1,0.6 0.1,1 0.3,1 0.4,1 0.6,0.9 0.8,0.8 0.9,0.7 0.6,0.4 0.5,0.2 0.6,0.3 0.6,0.1 1.2,0.2 h 0.6 0.5 l 1.1,-0.2 1,-0.4 1,-0.4 0.8,-0.7 0.9,-0.8 0.6,-1 0.3,-0.5 0.3,-0.6 0.2,-0.6 0.1,-0.6 0.1,-1.1 V 42.1 L 58,41.5 57.8,40.5 57.5,39.5 56.9,38.6 56.3,37.7 55.4,36.9 54.9,36.6 54.3,36.3 53.8,36 53.2,35.8 52.6,35.6 52,35.5 51,35.4 M 113.4,0 v 85 m 0,-85 h -11.3 m 11.3,85 H 102.1 M -11.3,0 V 85 M 0,0 H -11.3 M 0,85 H -11.3 M 157.3,0 v 85 m 0,-85 h -43.9 m 43.9,85 H 113.4 M -55.3,0 v 85 m 44,-85 h -44 m 44,85 h -44"
         style="fill:none;stroke:#000000;stroke-width:0.70899999;stroke-linecap:round;stroke-linejoin:round;stroke-miterlimit:10;stroke-dasharray:none;stroke-opacity:1"
         id="path1129"
         inkscape:connector-curvature="0" /></g></g></svg>