<?xml version="1.0" encoding="UTF-8" standalone="no"?>
<!-- Created with Inkscape (http://www.inkscape.org/) -->

<svg
   xmlns:dc="http://purl.org/dc/elements/1.1/"
   xmlns:cc="http://creativecommons.org/ns#"
   xmlns:rdf="http://www.w3.org/1999/02/22-rdf-syntax-ns#"
   xmlns:svg="http://www.w3.org/2000/svg"
   xmlns="http://www.w3.org/2000/svg"
   xmlns:sodipodi="http://sodipodi.sourceforge.net/DTD/sodipodi-0.dtd"
   xmlns:inkscape="http://www.inkscape.org/namespaces/inkscape"
   version="1.1"
   id="svg815"
   xml:space="preserve"
   width="444.69211"
   height="189.89212"
   viewBox="0 0 444.69211 189.89212"
   sodipodi:docname="Pièce4_vierge.svg"
   inkscape:version="0.92.4 (5da689c313, 2019-01-14)"><metadata
     id="metadata821"><rdf:RDF><cc:Work
         rdf:about=""><dc:format>image/svg+xml</dc:format><dc:type
           rdf:resource="http://purl.org/dc/dcmitype/StillImage" /><dc:title></dc:title></cc:Work></rdf:RDF></metadata><defs
     id="defs819" /><sodipodi:namedview
     pagecolor="#ffffff"
     bordercolor="#666666"
     borderopacity="1"
     objecttolerance="10"
     gridtolerance="10"
     guidetolerance="10"
     inkscape:pageopacity="0"
     inkscape:pageshadow="2"
     inkscape:window-width="1366"
     inkscape:window-height="705"
     id="namedview817"
     showgrid="false"
     fit-margin-top="0"
     fit-margin-left="0"
     fit-margin-right="0"
     fit-margin-bottom="0"
     inkscape:zoom="2.0847312"
     inkscape:cx="-30.782225"
     inkscape:cy="73.301324"
     inkscape:window-x="-8"
     inkscape:window-y="-8"
     inkscape:window-maximized="1"
     inkscape:current-layer="g823" /><g
     id="g823"
     inkscape:groupmode="layer"
     inkscape:label="Pièce4"
     transform="matrix(1.3333333,0,0,-1.3333333,-166.45393,954.74604)"><g
       id="g975"
       transform="translate(291.6848,652.015)"><path
         d="M 0,0 V 24.803"
         style="fill:none;stroke:#000000;stroke-width:0.50999999;stroke-linecap:round;stroke-linejoin:round;stroke-miterlimit:10;stroke-dasharray:86.4, 3.6, 3.6, 3.6;stroke-dashoffset:79.39800262;stroke-opacity:1"
         id="path977"
         inkscape:connector-curvature="0" /></g><g
       id="g979"
       transform="translate(284.5981,644.9284)"><path
         d="M 0,0 H -24.803"
         style="fill:none;stroke:#000000;stroke-width:0.50999999;stroke-linecap:round;stroke-linejoin:round;stroke-miterlimit:10;stroke-dasharray:86.4, 3.6, 3.6, 3.6;stroke-dashoffset:79.39800262;stroke-opacity:1"
         id="path981"
         inkscape:connector-curvature="0" /></g><g
       id="g983"
       transform="translate(291.6848,637.8418)"><path
         d="M 0,0 V -24.803"
         style="fill:none;stroke:#000000;stroke-width:0.50999999;stroke-linecap:round;stroke-linejoin:round;stroke-miterlimit:10;stroke-dasharray:86.4, 3.6, 3.6, 3.6;stroke-dashoffset:79.39800262;stroke-opacity:1"
         id="path985"
         inkscape:connector-curvature="0" /></g><g
       id="g987"
       transform="translate(298.7714,644.9284)"><path
         d="M 0,0 H 24.803"
         style="fill:none;stroke:#000000;stroke-width:0.50999999;stroke-linecap:round;stroke-linejoin:round;stroke-miterlimit:10;stroke-dasharray:86.4, 3.6, 3.6, 3.6;stroke-dashoffset:79.39800262;stroke-opacity:1"
         id="path989"
         inkscape:connector-curvature="0" /></g><g
       id="g991"
       transform="translate(291.6,644.9)"><path
         d="M 0,0 V 3.5 M 0,0 H -3.5 M 0,0 V -3.6 M 0,0 h 3.6"
         style="fill:none;stroke:#000000;stroke-width:0.50999999;stroke-linecap:round;stroke-linejoin:round;stroke-miterlimit:10;stroke-dasharray:none;stroke-opacity:1"
         id="path993"
         inkscape:connector-curvature="0" /></g><g
       id="g1007"
       transform="translate(320,644.9)"><path
         d="m 0,0 -0.1,1.9 -0.2,2 -0.3,1.9 -0.5,1.9 -0.6,1.9 -0.7,1.8 -0.9,1.8 -0.9,1.7 -1.1,1.6 -1.2,1.5 -1.3,1.5 -1.4,1.4 -1.5,1.2 -1.6,1.2 -1.6,1.1 -1.7,0.9 -1.8,0.8 -1.8,0.7 -1.9,0.6 -1.9,0.4 -1.9,0.3 -2,0.2 h -2 l -1.9,-0.1 -2,-0.2 -1.9,-0.4 -1.9,-0.5 -1.8,-0.6 -1.8,-0.8 -1.8,-0.9 -1.7,-1 -1.6,-1.1 -1.5,-1.2 -1.4,-1.3 -1.4,-1.4 -1.2,-1.5 -1.2,-1.6 -1,-1.7 -0.9,-1.7 -0.8,-1.8 -0.7,-1.9 -0.5,-1.8 -0.4,-2 -0.3,-1.9 -0.1,-1.9 v -2 l 0.1,-2 0.3,-1.9 0.4,-1.9 0.5,-1.9 0.7,-1.8 0.8,-1.8 0.9,-1.8 1,-1.6 1.2,-1.6 1.2,-1.5 1.4,-1.4 1.4,-1.4 1.5,-1.2 1.6,-1.1 1.7,-1 1.8,-0.9 1.8,-0.7 1.8,-0.7 1.9,-0.5 1.9,-0.3 2,-0.3 1.9,-0.1 2,0.1 2,0.1 1.9,0.3 1.9,0.5 1.9,0.5 1.8,0.7 1.8,0.9 1.7,0.9 1.6,1 1.6,1.2 1.5,1.3 1.4,1.4 1.3,1.4 1.2,1.6 1.1,1.6 0.9,1.7 0.9,1.8 0.7,1.8 0.6,1.8 0.5,1.9 0.3,2 0.2,1.9 0.1,2 m -14.2,0 -0.1,1.4 -0.2,1.3 -0.3,1.4 -0.5,1.3 -0.6,1.3 -0.7,1.2 -0.8,1.1 -0.9,1 -1.1,0.9 -1.1,0.9 -1.2,0.7 -1.2,0.6 -1.4,0.4 -1.3,0.4 -1.4,0.2 -1.4,0.1 -1.4,-0.1 -1.3,-0.2 -1.4,-0.4 -1.3,-0.4 -1.2,-0.6 -1.2,-0.7 -1.2,-0.9 -1,-0.9 -0.9,-1 -0.8,-1.1 -0.8,-1.2 -0.6,-1.3 -0.4,-1.3 -0.4,-1.4 -0.2,-1.3 V 0 -1.4 l 0.2,-1.4 0.4,-1.3 0.4,-1.3 0.6,-1.3 0.8,-1.2 0.8,-1.1 0.9,-1 1,-1 1.2,-0.8 1.2,-0.7 1.2,-0.6 1.3,-0.5 1.4,-0.3 1.3,-0.2 1.4,-0.1 1.4,0.1 1.4,0.2 1.3,0.3 1.4,0.5 1.2,0.6 1.2,0.7 1.1,0.8 1.1,1 0.9,1 0.8,1.1 0.7,1.2 0.6,1.3 0.5,1.3 0.3,1.3 0.2,1.4 0.1,1.4 M 28.3,-70.9 V 70.8 m 0,0 H -85.1 m 0,0 V -70.9 m 0,0 H 28.3"
         style="fill:none;stroke:#000000;stroke-width:0.70899999;stroke-linecap:round;stroke-linejoin:round;stroke-miterlimit:10;stroke-dasharray:none;stroke-opacity:1"
         id="path1009"
         inkscape:connector-curvature="0" /></g><g
       id="g1011"
       transform="translate(167.8,673.2)"><path
         d="m 0,0 h -42.6 m 0,-56.7 H 0 M 0,-99.2 H 28.3 M 0,-99.2 V 42.5 m 0,0 h 28.3 m 0,-141.7 V 42.5 m -70.9,-70.8 v 1.9 2 1.9 1.9 1.9 1.8 1.8 1.7 1.6 1.5 1.5 1.4 1.2 1.2 1.1 0.9 0.8 0.7 0.6 0.4 0.3 0.2 m 0,-56.7 v 0.1 0.1 0.3 0.5 0.5 0.7 0.9 0.9 1 1.2 1.3 1.4 1.4 1.6 1.6 1.7 1.8 1.8 1.8 1.9 2 1.9 2"
         style="fill:none;stroke:#000000;stroke-width:0.70899999;stroke-linecap:round;stroke-linejoin:round;stroke-miterlimit:10;stroke-dasharray:none;stroke-opacity:1"
         id="path1013"
         inkscape:connector-curvature="0" /></g><g
       id="g1015"
       transform="translate(125.2846,630.7552)"><path
         d="M 0,0 H 70.866"
         style="fill:none;stroke:#000000;stroke-width:0.50999999;stroke-linecap:round;stroke-linejoin:round;stroke-miterlimit:10;stroke-dasharray:3.6, 1.8;stroke-dashoffset:1.46700001;stroke-opacity:1"
         id="path1017"
         inkscape:connector-curvature="0" /></g><g
       id="g1019"
       transform="translate(196.1507,659.1016)"><path
         d="M 0,0 H -70.866"
         style="fill:none;stroke:#000000;stroke-width:0.50999999;stroke-linecap:round;stroke-linejoin:round;stroke-miterlimit:10;stroke-dasharray:3.6, 1.8;stroke-dashoffset:1.46700001;stroke-opacity:1"
         id="path1021"
         inkscape:connector-curvature="0" /></g><path
       style="fill:none;stroke:#000000;stroke-width:0.79474586px;stroke-linecap:butt;stroke-linejoin:miter;stroke-opacity:1"
       d="m 387.20002,686.20525 -2e-5,29.60263 29.60263,-4e-5"
       id="path4817"
       inkscape:connector-curvature="0"
       sodipodi:nodetypes="ccc" /><path
       style="fill:none;stroke:#000000;stroke-width:0.81176376px;stroke-linecap:butt;stroke-linejoin:miter;stroke-opacity:1"
       d="m 429.48259,715.79933 29.59412,4e-5 -10e-6,-29.59412"
       id="path4819"
       inkscape:connector-curvature="0"
       sodipodi:nodetypes="ccc" /><path
       style="fill:none;stroke:#000000;stroke-width:0.92147774px;stroke-linecap:butt;stroke-linejoin:miter;stroke-opacity:1"
       d="m 458.93431,603.20323 0.0862,-29.53779 h -29.53819"
       id="path4821"
       inkscape:connector-curvature="0"
       sodipodi:nodetypes="ccc" /><path
       style="fill:none;stroke:#000000;stroke-width:0.7438851px;stroke-linecap:butt;stroke-linejoin:miter;stroke-opacity:1"
       d="m 416.80279,573.63407 -29.62184,-0.0567 0.5026,29.62152"
       id="path4823"
       inkscape:connector-curvature="0"
       sodipodi:nodetypes="ccc" /></g></svg>