<?xml version="1.0" encoding="UTF-8" standalone="no"?>
<!-- Created with Inkscape (http://www.inkscape.org/) -->

<svg
   xmlns:dc="http://purl.org/dc/elements/1.1/"
   xmlns:cc="http://creativecommons.org/ns#"
   xmlns:rdf="http://www.w3.org/1999/02/22-rdf-syntax-ns#"
   xmlns:svg="http://www.w3.org/2000/svg"
   xmlns="http://www.w3.org/2000/svg"
   xmlns:sodipodi="http://sodipodi.sourceforge.net/DTD/sodipodi-0.dtd"
   xmlns:inkscape="http://www.inkscape.org/namespaces/inkscape"
   version="1.1"
   id="svg4518"
   xml:space="preserve"
   width="522.09436"
   height="227.75879"
   viewBox="0 0 522.09436 227.75879"
   sodipodi:docname="Pièce1_cor.svg"
   inkscape:version="0.92.4 (5da689c313, 2019-01-14)"><metadata
     id="metadata4524"><rdf:RDF><cc:Work
         rdf:about=""><dc:format>image/svg+xml</dc:format><dc:type
           rdf:resource="http://purl.org/dc/dcmitype/StillImage" /><dc:title></dc:title></cc:Work></rdf:RDF></metadata><defs
     id="defs4522" /><sodipodi:namedview
     pagecolor="#ffffff"
     bordercolor="#666666"
     borderopacity="1"
     objecttolerance="10"
     gridtolerance="10"
     guidetolerance="10"
     inkscape:pageopacity="0"
     inkscape:pageshadow="2"
     inkscape:window-width="1366"
     inkscape:window-height="705"
     id="namedview4520"
     showgrid="false"
     fit-margin-top="0"
     fit-margin-left="0"
     fit-margin-right="0"
     fit-margin-bottom="0"
     inkscape:zoom="1.2695048"
     inkscape:cx="277.57968"
     inkscape:cy="89.476233"
     inkscape:window-x="-8"
     inkscape:window-y="-8"
     inkscape:window-maximized="1"
     inkscape:current-layer="g4526" /><g
     id="g4526"
     inkscape:groupmode="layer"
     inkscape:label="Pièce1"
     transform="matrix(1.3333333,0,0,-1.3333333,-143.74062,963.81271)"><g
       id="g4678"
       transform="translate(303.5909,651.6603)"><path
         d="M 0,0 V 35.433"
         style="fill:none;stroke:#000000;stroke-width:0.50999999;stroke-linecap:round;stroke-linejoin:round;stroke-miterlimit:10;stroke-dasharray:86.4, 3.6, 3.6, 3.6;stroke-dashoffset:74.08300018;stroke-opacity:1"
         id="path4680"
         inkscape:connector-curvature="0" /></g><g
       id="g4682"
       transform="translate(289.4176,637.4871)"><path
         d="M 0,0 H -35.433"
         style="fill:none;stroke:#000000;stroke-width:0.50999999;stroke-linecap:round;stroke-linejoin:round;stroke-miterlimit:10;stroke-dasharray:86.4, 3.6, 3.6, 3.6;stroke-dashoffset:74.08300018;stroke-opacity:1"
         id="path4684"
         inkscape:connector-curvature="0" /></g><g
       id="g4686"
       transform="translate(303.5909,623.3138)"><path
         d="M 0,0 V -35.433"
         style="fill:none;stroke:#000000;stroke-width:0.50999999;stroke-linecap:round;stroke-linejoin:round;stroke-miterlimit:10;stroke-dasharray:86.4, 3.6, 3.6, 3.6;stroke-dashoffset:74.08300018;stroke-opacity:1"
         id="path4688"
         inkscape:connector-curvature="0" /></g><g
       id="g4690"
       transform="translate(317.7641,637.4871)"><path
         d="M 0,0 H 35.433"
         style="fill:none;stroke:#000000;stroke-width:0.50999999;stroke-linecap:round;stroke-linejoin:round;stroke-miterlimit:10;stroke-dasharray:86.4, 3.6, 3.6, 3.6;stroke-dashoffset:74.08300018;stroke-opacity:1"
         id="path4692"
         inkscape:connector-curvature="0" /></g><g
       id="g4694"
       transform="translate(170.4261,637.4871)"><path
         d="M 0,0 H -62.362"
         style="fill:none;stroke:#000000;stroke-width:0.50999999;stroke-linecap:round;stroke-linejoin:round;stroke-miterlimit:10;stroke-dasharray:86.4, 3.6, 3.6, 3.6;stroke-dashoffset:60.61899948;stroke-opacity:1"
         id="path4696"
         inkscape:connector-curvature="0" /></g><g
       id="g4698"
       transform="translate(170.4261,637.4871)"><path
         d="M 0,0 H 34.016"
         style="fill:none;stroke:#000000;stroke-width:0.50999999;stroke-linecap:round;stroke-linejoin:round;stroke-miterlimit:10;stroke-dasharray:86.4, 3.6, 3.6, 3.6;stroke-dashoffset:74.79199982;stroke-opacity:1"
         id="path4700"
         inkscape:connector-curvature="0" /></g><g
       id="g4702"
       transform="translate(436.7556,637.4871)"><path
         d="M 0,0 H 62.362"
         style="fill:none;stroke:#000000;stroke-width:0.50999999;stroke-linecap:round;stroke-linejoin:round;stroke-miterlimit:10;stroke-dasharray:86.4, 3.6, 3.6, 3.6;stroke-dashoffset:60.61899948;stroke-opacity:1"
         id="path4704"
         inkscape:connector-curvature="0" /></g><g
       id="g4706"
       transform="translate(436.7556,637.4871)"><path
         d="M 0,0 H -34.016"
         style="fill:none;stroke:#000000;stroke-width:0.50999999;stroke-linecap:round;stroke-linejoin:round;stroke-miterlimit:10;stroke-dasharray:86.4, 3.6, 3.6, 3.6;stroke-dashoffset:74.79199982;stroke-opacity:1"
         id="path4708"
         inkscape:connector-curvature="0" /></g><g
       id="g4710"
       transform="translate(303.5,637.4)"><path
         d="M 0,0 V 7.1 M 0,0 h -7 m 7,0 v -7 m 0,7 h 7.1"
         style="fill:none;stroke:#000000;stroke-width:0.50999999;stroke-linecap:round;stroke-linejoin:round;stroke-miterlimit:10;stroke-dasharray:none;stroke-opacity:1"
         id="path4712"
         inkscape:connector-curvature="0" /></g><g
       id="g4726"
       transform="translate(374.4,722.5)"><path
         d="M 0,0 H -141.7 M 0,-170.1 V 0 m -141.7,0 v -170.1 m 113.4,85 -0.1,2.7 -0.3,2.6 -0.4,2.6 -0.5,2.6 -0.8,2.6 -0.9,2.4 -1,2.5 -1.2,2.3 -1.3,2.3 -1.5,2.2 -1.6,2.1 -1.7,2 -1.9,1.9 -2,1.8 -2,1.6 -2.2,1.5 -2.3,1.4 -2.3,1.2 -2.4,1.1 -2.5,0.9 -2.5,0.8 -2.6,0.6 -2.6,0.4 -2.7,0.3 -2.6,0.2 -2.6,-0.1 -2.7,-0.2 -2.6,-0.4 -2.6,-0.5 -2.5,-0.7 -2.5,-0.8 -2.5,-1 -2.4,-1.2 -2.3,-1.3 -2.2,-1.4 -2.1,-1.6 -2,-1.7 -2,-1.8 -1.8,-2 -1.6,-2 -1.6,-2.2 -1.4,-2.2 -1.2,-2.3 -1.1,-2.4 -1,-2.5 -0.8,-2.5 -0.7,-2.6 -0.5,-2.6 -0.3,-2.6 -0.2,-2.6 v -2.7 l 0.2,-2.6 0.3,-2.6 0.5,-2.6 0.7,-2.6 0.8,-2.5 1,-2.5 1.1,-2.4 1.2,-2.3 1.4,-2.3 1.6,-2.1 1.6,-2.1 1.8,-1.9 2,-1.8 2,-1.7 2.1,-1.6 2.2,-1.4 2.3,-1.3 2.4,-1.2 2.5,-1 2.5,-0.8 2.5,-0.7 2.6,-0.6 2.6,-0.3 2.7,-0.2 2.6,-0.1 2.6,0.1 2.7,0.3 2.6,0.5 2.6,0.6 2.5,0.8 2.5,0.9 2.4,1.1 2.3,1.2 2.3,1.4 2.2,1.5 2,1.6 2,1.8 1.9,1.9 1.7,2 1.6,2.1 1.5,2.2 1.3,2.2 1.2,2.4 1,2.4 0.9,2.5 0.8,2.6 0.5,2.5 0.4,2.7 0.3,2.6 0.1,2.6 m -113.4,-85 H 0 m -42.5,85 -0.1,2.2 -0.2,2.1 -0.4,2.1 -0.6,2.1 -0.7,2 -0.9,2 -1,1.9 -1.2,1.8 -1.2,1.7 -1.5,1.6 -1.5,1.5 -1.6,1.4 -1.8,1.2 -1.8,1.2 -1.9,0.9 -2,0.9 -2,0.6 -2.1,0.6 -2.1,0.3 -2.2,0.2 -2.1,0.1 -2.1,-0.1 -2.2,-0.3 -2.1,-0.5 -2,-0.6 -2,-0.7 -2,-0.9 -1.8,-1.1 -1.8,-1.2 -1.7,-1.3 -1.6,-1.4 -1.5,-1.6 -1.3,-1.7 -1.3,-1.7 -1,-1.9 -1,-1.9 -0.8,-2 -0.6,-2 -0.5,-2.1 -0.3,-2.2 -0.2,-2.1 v -2.1 l 0.2,-2.2 0.3,-2.1 0.5,-2.1 0.6,-2 0.8,-2 1,-2 1,-1.8 1.3,-1.8 1.3,-1.6 1.5,-1.6 1.6,-1.4 1.7,-1.4 1.8,-1.1 1.8,-1.1 2,-0.9 2,-0.8 2,-0.6 2.1,-0.4 2.2,-0.3 2.1,-0.1 h 2.1 l 2.2,0.2 2.1,0.4 2.1,0.5 2,0.7 2,0.8 1.9,1 1.8,1.1 1.8,1.3 1.6,1.4 1.5,1.5 1.5,1.6 1.2,1.7 1.2,1.8 1,1.9 0.9,2 0.7,2 0.6,2.1 0.4,2.1 0.2,2.1 0.1,2.1"
         style="fill:none;stroke:#000000;stroke-width:0.70899999;stroke-linecap:round;stroke-linejoin:round;stroke-miterlimit:10;stroke-dasharray:none;stroke-opacity:1"
         id="path4728"
         inkscape:connector-curvature="0" /></g><g
       id="g4730"
       transform="translate(198.7,722.5)"><path
         d="M 0,0 H -85 M 0,0 v -170.1 m 0,0 H -85 M -85,0 v -170.1"
         style="fill:none;stroke:#000000;stroke-width:0.70899999;stroke-linecap:round;stroke-linejoin:round;stroke-miterlimit:10;stroke-dasharray:none;stroke-opacity:1"
         id="path4732"
         inkscape:connector-curvature="0" /></g><g
       id="g4734"
       transform="translate(170.4261,680.0068)"><path
         d="m 0,0 v -0.046 -0.206 -0.369 -0.531 -0.691 -0.848 -1.003 -1.153 -1.298 -1.44 -1.574 -1.703 -1.826 -1.942 -2.049 -2.149 -2.241 -2.324 -2.398 -2.463 -2.517 -2.564 -2.598 -2.625 -2.639 -2.645 -2.64 -2.624 -2.599 -2.563 -2.518 -2.462 -2.398 -2.324 -2.241 -2.149 -2.05 -1.941 -1.826 -1.703 -1.575 -1.439 -1.299 -1.152 -1.003 -0.848 -0.692 -0.531 -0.369 -0.205 -0.046"
         style="fill:none;stroke:#000000;stroke-width:0.50999999;stroke-linecap:round;stroke-linejoin:round;stroke-miterlimit:10;stroke-dasharray:3.6, 1.8;stroke-dashoffset:-0.22;stroke-opacity:1"
         id="path4736"
         inkscape:connector-curvature="0" /></g><g
       id="g4738"
       transform="translate(198.7726,680.0068)"><path
         d="M 0,0 H -28.346"
         style="fill:none;stroke:#000000;stroke-width:0.50999999;stroke-linecap:round;stroke-linejoin:round;stroke-miterlimit:10;stroke-dasharray:3.6, 1.8;stroke-dashoffset:1.12699997;stroke-opacity:1"
         id="path4740"
         inkscape:connector-curvature="0" /></g><g
       id="g4742"
       transform="translate(170.4261,594.9674)"><path
         d="M 0,0 H 28.346"
         style="fill:none;stroke:#000000;stroke-width:0.50999999;stroke-linecap:round;stroke-linejoin:round;stroke-miterlimit:10;stroke-dasharray:3.6, 1.8;stroke-dashoffset:1.12699997;stroke-opacity:1"
         id="path4744"
         inkscape:connector-curvature="0" /></g><g
       id="g4746"
       transform="translate(113.7332,609.1406)"><path
         d="M 0,0 H 56.693"
         style="fill:none;stroke:#000000;stroke-width:0.50999999;stroke-linecap:round;stroke-linejoin:round;stroke-miterlimit:10;stroke-dasharray:3.6, 1.8;stroke-dashoffset:0.454;stroke-opacity:1"
         id="path4748"
         inkscape:connector-curvature="0" /></g><g
       id="g4750"
       transform="translate(170.4261,665.8336)"><path
         d="M 0,0 H -56.693"
         style="fill:none;stroke:#000000;stroke-width:0.50999999;stroke-linecap:round;stroke-linejoin:round;stroke-miterlimit:10;stroke-dasharray:3.6, 1.8;stroke-dashoffset:0.454;stroke-opacity:1"
         id="path4752"
         inkscape:connector-curvature="0" /></g><g
       id="g4754"
       transform="translate(408.4,552.4)"><path
         d="m 0,0 v 170.1 m 0,0 H 85 M 85,0 V 170.1 M 0,0 h 85"
         style="fill:none;stroke:#000000;stroke-width:0.70899999;stroke-linecap:round;stroke-linejoin:round;stroke-miterlimit:10;stroke-dasharray:none;stroke-opacity:1"
         id="path4756"
         inkscape:connector-curvature="0" /></g><g
       id="g4758"
       transform="translate(436.7556,637.4871)"><path
         d="m 0,0 v 2.643 2.634 2.612 2.583 2.541 2.492 2.431 2.362 2.284 2.196 2.1 1.997 1.884 1.766 1.639 1.508 1.37 1.226 1.078 0.926 0.77 0.612 0.45 0.287 0.124 0.005"
         style="fill:none;stroke:#000000;stroke-width:0.50999999;stroke-linecap:round;stroke-linejoin:round;stroke-miterlimit:10;stroke-dasharray:3.6, 1.8;stroke-dashoffset:2.1400001;stroke-opacity:1"
         id="path4760"
         inkscape:connector-curvature="0" /></g><g
       id="g4762"
       transform="translate(436.7556,594.9674)"><path
         d="m 0,0 v 0.005 0.124 0.287 0.45 0.611 0.771 0.926 1.078 1.226 1.37 1.507 1.64 1.766 1.884 1.996 2.101 2.196 2.283 2.362 2.432 2.491 2.542 2.582 2.613 2.633 2.644"
         style="fill:none;stroke:#000000;stroke-width:0.50999999;stroke-linecap:round;stroke-linejoin:round;stroke-miterlimit:10;stroke-dasharray:3.6, 1.8;stroke-dashoffset:2.1400001;stroke-opacity:1"
         id="path4764"
         inkscape:connector-curvature="0" /></g><g
       id="g4766"
       transform="translate(408.4091,594.9674)"><path
         d="M 0,0 H 28.346"
         style="fill:none;stroke:#000000;stroke-width:0.50999999;stroke-linecap:round;stroke-linejoin:round;stroke-miterlimit:10;stroke-dasharray:3.6, 1.8;stroke-dashoffset:1.12699997;stroke-opacity:1"
         id="path4768"
         inkscape:connector-curvature="0" /></g><g
       id="g4770"
       transform="translate(436.7556,680.0068)"><path
         d="M 0,0 H -28.346"
         style="fill:none;stroke:#000000;stroke-width:0.50999999;stroke-linecap:round;stroke-linejoin:round;stroke-miterlimit:10;stroke-dasharray:3.6, 1.8;stroke-dashoffset:1.12699997;stroke-opacity:1"
         id="path4772"
         inkscape:connector-curvature="0" /></g><g
       id="g4774"
       transform="translate(493.4485,665.8336)"><path
         d="M 0,0 H -56.693"
         style="fill:none;stroke:#000000;stroke-width:0.50999999;stroke-linecap:round;stroke-linejoin:round;stroke-miterlimit:10;stroke-dasharray:3.6, 1.8;stroke-dashoffset:0.454;stroke-opacity:1"
         id="path4776"
         inkscape:connector-curvature="0" /></g><g
       id="g4778"
       transform="translate(436.7556,609.1406)"><path
         d="M 0,0 H 56.693"
         style="fill:none;stroke:#000000;stroke-width:0.50999999;stroke-linecap:round;stroke-linejoin:round;stroke-miterlimit:10;stroke-dasharray:3.6, 1.8;stroke-dashoffset:0.454;stroke-opacity:1"
         id="path4780"
         inkscape:connector-curvature="0" /></g></g></svg>