<?xml version="1.0" encoding="UTF-8" standalone="no"?>
<!-- Created with Inkscape (http://www.inkscape.org/) -->

<svg
   xmlns:dc="http://purl.org/dc/elements/1.1/"
   xmlns:cc="http://creativecommons.org/ns#"
   xmlns:rdf="http://www.w3.org/1999/02/22-rdf-syntax-ns#"
   xmlns:svg="http://www.w3.org/2000/svg"
   xmlns="http://www.w3.org/2000/svg"
   xmlns:sodipodi="http://sodipodi.sourceforge.net/DTD/sodipodi-0.dtd"
   xmlns:inkscape="http://www.inkscape.org/namespaces/inkscape"
   version="1.1"
   id="svg815"
   xml:space="preserve"
   width="392.42545"
   height="208.1588"
   viewBox="0 0 392.42544 208.15879"
   sodipodi:docname="Pièce2_vierge.svg"
   inkscape:version="0.92.4 (5da689c313, 2019-01-14)"><metadata
     id="metadata821"><rdf:RDF><cc:Work
         rdf:about=""><dc:format>image/svg+xml</dc:format><dc:type
           rdf:resource="http://purl.org/dc/dcmitype/StillImage" /><dc:title></dc:title></cc:Work></rdf:RDF></metadata><defs
     id="defs819" /><sodipodi:namedview
     pagecolor="#ffffff"
     bordercolor="#666666"
     borderopacity="1"
     objecttolerance="10"
     gridtolerance="10"
     guidetolerance="10"
     inkscape:pageopacity="0"
     inkscape:pageshadow="2"
     inkscape:window-width="1366"
     inkscape:window-height="705"
     id="namedview817"
     showgrid="false"
     fit-margin-top="0"
     fit-margin-left="0"
     fit-margin-right="0"
     fit-margin-bottom="0"
     inkscape:zoom="1.3083275"
     inkscape:cx="167.76794"
     inkscape:cy="43.651219"
     inkscape:window-x="-8"
     inkscape:window-y="-8"
     inkscape:window-maximized="1"
     inkscape:current-layer="g823" /><g
     id="g823"
     inkscape:groupmode="layer"
     inkscape:label="Pièce2"
     transform="matrix(1.3333333,0,0,-1.3333333,-186.18726,948.07937)"><g
       id="g1007"
       transform="translate(277.8,671)"><path
         d="m 0,0 -0.6,-1.6 -0.7,-1.6 -0.8,-1.5 -0.9,-1.4 -1.1,-1.3 -1.1,-1.3 -1.3,-1.1 -1.3,-1.1 -1.5,-1 -1.4,-0.8 -1.6,-0.7 -1.6,-0.6 -1.6,-0.5 -1.7,-0.3 -1.7,-0.2 -1.7,-0.1 -1.7,0.1 -1.7,0.1 -1.7,0.4 -1.6,0.4 -1.6,0.6 -1.6,0.7 -1.5,0.9 -1.4,0.9 -1.4,1.1 -1.2,1.1 -1.2,1.3 -1,1.3 -1,1.4 -0.8,1.5 -0.7,1.6 -0.6,1.6 -0.5,1.6 -0.3,1.7 -0.2,1.7 -0.1,1.7 0.1,1.7 0.2,1.7 0.3,1.7 0.5,1.6 0.6,1.7 0.7,1.5 0.8,1.5 1,1.4 1,1.4 1.2,1.2 1.2,1.2 1.4,1 1.4,1 1.5,0.8 1.6,0.7 1.6,0.6 1.6,0.5 1.7,0.3 1.7,0.2 1.7,0.1 1.7,-0.1 1.7,-0.2 1.7,-0.4 1.6,-0.4 1.6,-0.6 1.6,-0.8 1.4,-0.8 1.5,-0.9 1.3,-1.1 1.3,-1.2 1.1,-1.2 1.1,-1.4 0.9,-1.4 0.8,-1.5 0.7,-1.6 L 0,13.2 M 42,-15.1 V 0 M 4.3,-15.1 H 42 M 42,0 H 0 m 4.3,28.4 -1.5,1.5 -1.5,1.4 -1.6,1.4 -1.7,1.2 -1.8,1.2 -1.9,1 -1.9,0.9 -1.9,0.8 -2,0.6 -2.1,0.5 -2.1,0.4 -2.1,0.3 -2.1,0.1 H -22 l -2.1,-0.2 -2.1,-0.3 -2,-0.4 -2.1,-0.5 -2,-0.7 -1.9,-0.8 -1.9,-0.9 -1.9,-1.1 -1.7,-1.1 -1.7,-1.3 -1.6,-1.4 -1.5,-1.5 -1.4,-1.5 -1.3,-1.7 -1.2,-1.7 -1.1,-1.8 -1,-1.9 -0.9,-1.9 -0.7,-2 -0.6,-2 -0.4,-2.1 -0.4,-2.1 -0.2,-2.1 V 6.6 4.5 l 0.2,-2.1 0.4,-2.1 0.4,-2 0.6,-2.1 0.7,-1.9 0.9,-2 1,-1.8 1.1,-1.8 1.2,-1.8 1.3,-1.6 1.4,-1.6 1.5,-1.5 1.6,-1.3 1.7,-1.3 1.7,-1.2 1.9,-1 1.9,-0.9 1.9,-0.8 2,-0.7 2.1,-0.6 2,-0.4 2.1,-0.3 2.1,-0.1 h 2.1 l 2.1,0.1 2.1,0.2 2.1,0.4 2.1,0.5 2,0.7 1.9,0.8 1.9,0.8 1.9,1.1 1.8,1.1 1.7,1.2 1.6,1.4 1.5,1.4 1.5,1.6 M 42,28.4 H 4.3 M 42,13.2 V 28.4 M 0,13.2 h 42 m -62.7,26.5 h -117.1 m 0,-49.1 h 56.7 m 0,0 h 1.4 l 1.5,0.2 1.4,0.4 1.5,0.4 1.3,0.6 1.3,0.8 1.2,0.8 1.2,0.9 1,1.1 1,1.1 0.8,1.3 0.7,1.3 0.6,1.3 0.5,1.4 0.3,1.5 0.2,1.4 0.1,1.5 -0.1,1.5 -0.2,1.5 -0.3,1.4 -0.5,1.4 -0.6,1.4 -0.7,1.3 -0.8,1.2 -1,1.1 -1,1.1 -1.2,0.9 -1.2,0.9 -1.3,0.7 -1.3,0.6 -1.5,0.5 -1.4,0.3 -1.5,0.2 -1.4,0.1 m 0,0 h -56.7 m 0,17 v -17 m 0,-49.2 h 117.1 m -117.1,17.1 v -17.1 m 56.7,24.6 h -56.7 m 56.7,17 h 1 l 1.1,-0.2 1,-0.4 1,-0.4 0.9,-0.6 0.8,-0.7 0.7,-0.8 0.6,-0.8 0.5,-1 0.4,-1 0.3,-1 0.1,-1 V 6.1 L -72.8,5 -73.1,4 -73.5,3 -74,2.1 l -0.6,-0.9 -0.7,-0.8 -0.8,-0.7 -0.9,-0.5 -1,-0.5 -1,-0.3 -1.1,-0.2 -1,-0.1 m -56.7,17 h 56.7 m -56.7,7.6 v -7.6 m 0,-17 v -7.5"
         style="fill:none;stroke:#000000;stroke-width:0.70899999;stroke-linecap:round;stroke-linejoin:round;stroke-miterlimit:10;stroke-dasharray:none;stroke-opacity:1"
         id="path1009"
         inkscape:connector-curvature="0" /></g><g
       id="g1011"
       transform="translate(308.5608,684.2844)"><path
         d="M 0,0 V 15.118"
         style="fill:none;stroke:#000000;stroke-width:0.50999999;stroke-linecap:round;stroke-linejoin:round;stroke-miterlimit:10;stroke-dasharray:3.6, 1.8;stroke-dashoffset:-0.359;stroke-opacity:1"
         id="path1013"
         inkscape:connector-curvature="0" /></g><g
       id="g1015"
       transform="translate(293.4427,699.4025)"><path
         d="M 0,0 V -15.118"
         style="fill:none;stroke:#000000;stroke-width:0.50999999;stroke-linecap:round;stroke-linejoin:round;stroke-miterlimit:10;stroke-dasharray:3.6, 1.8;stroke-dashoffset:-0.359;stroke-opacity:1"
         id="path1017"
         inkscape:connector-curvature="0" /></g><g
       id="g1019"
       transform="translate(308.5608,655.9379)"><path
         d="M 0,0 V 15.118"
         style="fill:none;stroke:#000000;stroke-width:0.50999999;stroke-linecap:round;stroke-linejoin:round;stroke-miterlimit:10;stroke-dasharray:3.6, 1.8;stroke-dashoffset:-0.359;stroke-opacity:1"
         id="path1021"
         inkscape:connector-curvature="0" /></g><g
       id="g1023"
       transform="translate(293.4427,671.056)"><path
         d="M 0,0 V -15.118"
         style="fill:none;stroke:#000000;stroke-width:0.50999999;stroke-linecap:round;stroke-linejoin:round;stroke-miterlimit:10;stroke-dasharray:3.6, 1.8;stroke-dashoffset:-0.359;stroke-opacity:1"
         id="path1025"
         inkscape:connector-curvature="0" /></g><g
       id="g1027"
       transform="translate(414.7,644.5)"><path
         d="m 0,0 h 18.9 m 0,66.2 H 0 m -18.9,0 V 41.6 M 0,66.2 v -17 m -3.8,0 H 0 m -3.8,0 V 41.6 M 0,66.2 H -18.9 M -3.8,41.6 H -18.9 M 0,0 h -18.9 m 15.1,24.6 h -15.1 m 15.1,0 v -7.5 m 0,0 H 0 m 0,0 V 0 M -18.9,24.6 V 0 m 15.1,41.6 v 0 -0.2 -0.4 -0.4 -0.6 -0.7 -0.8 -0.8 -1 -1 -1 -1 -1.1 -1.1 -1 -1 -0.9 -0.9 -0.8 -0.7 -0.5 -0.5 -0.3 -0.2 -0.1 m -15.1,17 v 0 -0.2 -0.4 -0.4 -0.6 -0.7 -0.8 -0.8 -1 -1 -1 -1 -1.1 -1.1 -1 -1 -0.9 -0.9 -0.8 -0.7 -0.5 -0.5 -0.3 -0.2 -0.1 M 0,17.1 v 0 0.2 0.4 0.4 0.6 0.8 0.8 0.9 1.1 1.1 1.3 1.3 1.3 1.4 1.5 1.4 1.5 1.5 1.5 1.4 1.4 1.4 1.3 1.2 1.1 1.1 0.9 0.9 0.7 0.6 0.5 0.3 0.2 0.1 m 18.9,17 v 0 -0.2 -0.3 -0.4 -0.5 -0.7 -0.8 -0.9 -1.1 -1.1 -1.3 -1.4 -1.5 -1.5 -1.7 -1.7 -1.8 -1.9 -1.9 -2 -2 -2.1 -2.1 -2.1 -2.1 -2.1 -2.1 -2.1 -2 -2.1 -1.9 -2 V 17 15.2 13.4 11.8 10.2 8.7 7.4 6.1 4.9 3.9 3 2.2 1.5 0.9 0.5 0.2 0.1 0"
         style="fill:none;stroke:#000000;stroke-width:0.70899999;stroke-linecap:round;stroke-linejoin:round;stroke-miterlimit:10;stroke-dasharray:none;stroke-opacity:1"
         id="path1029"
         inkscape:connector-curvature="0" /></g><g
       id="g1031"
       transform="translate(433.6447,671.056)"><path
         d="M 0,0 H -37.795"
         style="fill:none;stroke:#000000;stroke-width:0.50999999;stroke-linecap:round;stroke-linejoin:round;stroke-miterlimit:10;stroke-dasharray:3.6, 1.8;stroke-dashoffset:1.80200005;stroke-opacity:1"
         id="path1033"
         inkscape:connector-curvature="0" /></g><g
       id="g1035"
       transform="translate(433.6447,684.2844)"><path
         d="M 0,0 H -37.795"
         style="fill:none;stroke:#000000;stroke-width:0.50999999;stroke-linecap:round;stroke-linejoin:round;stroke-miterlimit:10;stroke-dasharray:3.6, 1.8;stroke-dashoffset:1.80200005;stroke-opacity:1"
         id="path1037"
         inkscape:connector-curvature="0" /></g><g
       id="g1039"
       transform="translate(395.8494,655.9379)"><path
         d="M 0,0 H 37.795"
         style="fill:none;stroke:#000000;stroke-width:0.50999999;stroke-linecap:round;stroke-linejoin:round;stroke-miterlimit:10;stroke-dasharray:3.6, 1.8;stroke-dashoffset:1.80200005;stroke-opacity:1"
         id="path1041"
         inkscape:connector-curvature="0" /></g><g
       id="g1043"
       transform="translate(433.6447,699.4025)"><path
         d="M 0,0 H -37.795"
         style="fill:none;stroke:#000000;stroke-width:0.50999999;stroke-linecap:round;stroke-linejoin:round;stroke-miterlimit:10;stroke-dasharray:3.6, 1.8;stroke-dashoffset:1.80200005;stroke-opacity:1"
         id="path1045"
         inkscape:connector-curvature="0" /></g><g
       id="g1047"
       transform="translate(422.3061,684.2844)"><path
         d="M 0,0 V 15.118"
         style="fill:none;stroke:#000000;stroke-width:0.50999999;stroke-linecap:round;stroke-linejoin:round;stroke-miterlimit:10;stroke-dasharray:3.6, 1.8;stroke-dashoffset:-0.359;stroke-opacity:1"
         id="path1049"
         inkscape:connector-curvature="0" /></g><g
       id="g1051"
       transform="translate(407.188,699.4025)"><path
         d="M 0,0 V -15.118"
         style="fill:none;stroke:#000000;stroke-width:0.50999999;stroke-linecap:round;stroke-linejoin:round;stroke-miterlimit:10;stroke-dasharray:3.6, 1.8;stroke-dashoffset:-0.359;stroke-opacity:1"
         id="path1053"
         inkscape:connector-curvature="0" /></g><g
       id="g1055"
       transform="translate(422.3061,655.9379)"><path
         d="M 0,0 V 15.118"
         style="fill:none;stroke:#000000;stroke-width:0.50999999;stroke-linecap:round;stroke-linejoin:round;stroke-miterlimit:10;stroke-dasharray:3.6, 1.8;stroke-dashoffset:-0.359;stroke-opacity:1"
         id="path1057"
         inkscape:connector-curvature="0" /></g><g
       id="g1059"
       transform="translate(407.188,671.056)"><path
         d="M 0,0 V -15.118"
         style="fill:none;stroke:#000000;stroke-width:0.50999999;stroke-linecap:round;stroke-linejoin:round;stroke-miterlimit:10;stroke-dasharray:3.6, 1.8;stroke-dashoffset:-0.359;stroke-opacity:1"
         id="path1061"
         inkscape:connector-curvature="0" /></g><path
       style="fill:none;stroke:#000000;stroke-width:0.3973729px;stroke-linecap:butt;stroke-linejoin:miter;stroke-opacity:1"
       d="m 139.80132,579.5484 -1e-5,14.80131 14.80132,-2e-5"
       id="path4817"
       inkscape:connector-curvature="0"
       sodipodi:nodetypes="ccc" /><path
       style="fill:none;stroke:#000000;stroke-width:0.40588185px;stroke-linecap:butt;stroke-linejoin:miter;stroke-opacity:1"
       d="m 305.00294,593.09998 14.79706,2e-5 -1e-5,-14.79706"
       id="path4819"
       inkscape:connector-curvature="0"
       sodipodi:nodetypes="ccc" /><path
       style="fill:none;stroke:#000000;stroke-width:0.46074083px;stroke-linecap:butt;stroke-linejoin:miter;stroke-opacity:1"
       d="M 319.7569,570.0693 319.8,555.3 h -14.76882"
       id="path4821"
       inkscape:connector-curvature="0"
       sodipodi:nodetypes="ccc" /><path
       style="fill:none;stroke:#000000;stroke-width:0.37194297px;stroke-linecap:butt;stroke-linejoin:miter;stroke-opacity:1"
       d="m 154.70127,554.51122 -14.80997,-0.0283 0.25128,14.81174"
       id="path4823"
       inkscape:connector-curvature="0"
       sodipodi:nodetypes="ccc" /></g></svg>