<?xml version="1.0" encoding="UTF-8" standalone="no"?>
<svg
   xmlns:dc="http://purl.org/dc/elements/1.1/"
   xmlns:cc="http://creativecommons.org/ns#"
   xmlns:rdf="http://www.w3.org/1999/02/22-rdf-syntax-ns#"
   xmlns:svg="http://www.w3.org/2000/svg"
   xmlns="http://www.w3.org/2000/svg"
   xmlns:xlink="http://www.w3.org/1999/xlink"
   xmlns:sodipodi="http://sodipodi.sourceforge.net/DTD/sodipodi-0.dtd"
   xmlns:inkscape="http://www.inkscape.org/namespaces/inkscape"
   color-rendering="auto"
   color-interpolation="auto"
   text-rendering="auto"
   width="606.5625"
   stroke-miterlimit="10"
   shape-rendering="auto"
   font-weight="normal"
   viewBox="0 0 647 376"
   height="352.5"
   font-style="normal"
   font-size="12"
   image-rendering="auto"
   id="svg4538"
   version="1.1"
   inkscape:version="0.48.4 r"
   sodipodi:docname="Diagramme de contexte.svg"
   style="font-size:12px;font-style:normal;font-weight:normal;fill:#000000;fill-opacity:1;stroke:#000000;stroke-width:1;stroke-linecap:square;stroke-linejoin:miter;stroke-miterlimit:10;stroke-opacity:1;stroke-dasharray:none;stroke-dashoffset:0;font-family:Arial"
   inkscape:export-filename="D:\Documents\Corbu\Prepa\S01\TP01\Ilot_04_Capsuleuse\Ressources\Diagramme de contexte.png"
   inkscape:export-xdpi="136"
   inkscape:export-ydpi="136">
  <metadata
     id="metadata4650">
    <rdf:RDF>
      <cc:Work
         rdf:about="">
        <dc:format>image/svg+xml</dc:format>
        <dc:type
           rdf:resource="http://purl.org/dc/dcmitype/StillImage" />
        <dc:title></dc:title>
      </cc:Work>
    </rdf:RDF>
  </metadata>
  <sodipodi:namedview
     pagecolor="#ffffff"
     bordercolor="#666666"
     borderopacity="1"
     objecttolerance="10"
     gridtolerance="10"
     guidetolerance="10"
     inkscape:pageopacity="0"
     inkscape:pageshadow="2"
     inkscape:window-width="640"
     inkscape:window-height="480"
     id="namedview4648"
     showgrid="false"
     fit-margin-top="0"
     fit-margin-left="0"
     fit-margin-right="0"
     fit-margin-bottom="0"
     inkscape:zoom="0.63729958"
     inkscape:cx="307.96875"
     inkscape:cy="171.5625"
     inkscape:window-x="0"
     inkscape:window-y="0"
     inkscape:window-maximized="0"
     inkscape:current-layer="svg4538" />
  <!--Generated by the Batik Graphics2D SVG Generator
 This is MagicDraw diagram.-->
  <defs
     id="genericDefs">
    <defs
       id="defs1">
      <linearGradient
         spreadMethod="pad"
         id="linearGradient1"
         y2="183"
         y1="63"
         x2="430"
         gradientUnits="userSpaceOnUse"
         x1="231">
        <stop
           id="stop4545"
           offset="0%"
           stop-color="rgb(221,205,158)"
           stop-opacity="1" />
        <stop
           id="stop4547"
           offset="100%"
           stop-color="rgb(255,255,225)"
           stop-opacity="1" />
      </linearGradient>
      <linearGradient
         spreadMethod="pad"
         id="linearGradient2"
         y2="118"
         y1="91"
         x2="120"
         gradientUnits="userSpaceOnUse"
         x1="93">
        <stop
           id="stop4550"
           offset="0%"
           stop-color="rgb(255,255,204)"
           stop-opacity="1" />
        <stop
           id="stop4552"
           offset="100%"
           stop-color="white"
           stop-opacity="1" />
      </linearGradient>
      <clipPath
         id="clipPath1"
         clipPathUnits="userSpaceOnUse">
        <path
           id="path4555"
           d="m 0,-5 666,0 0,400 L 0,395 0,-5 z"
           inkscape:connector-curvature="0" />
      </clipPath>
      <clipPath
         id="clipPath2"
         clipPathUnits="userSpaceOnUse">
        <path
           id="path4558"
           d="M -63.0204,207.0805 80.4987,-422.7752 446.127,-339.463 302.608,290.3927 -63.0204,207.0805 z"
           inkscape:connector-curvature="0" />
      </clipPath>
    </defs>
    <linearGradient
       inkscape:collect="always"
       xlink:href="#linearGradient1"
       id="linearGradient4707"
       gradientUnits="userSpaceOnUse"
       spreadMethod="pad"
       x1="231"
       y1="63"
       x2="430"
       y2="183" />
    <linearGradient
       inkscape:collect="always"
       xlink:href="#linearGradient2"
       id="linearGradient4709"
       gradientUnits="userSpaceOnUse"
       spreadMethod="pad"
       x1="93"
       y1="91"
       x2="120"
       y2="118" />
  </defs>
  <g
     style="fill:#ffffff;stroke:#ffffff"
     id="g4560"
     transform="translate(-4.5,-4.5)">
    <rect
       style="stroke:none"
       id="rect4562"
       clip-path="url(#clipPath1)"
       y="5"
       height="375"
       width="646"
       x="5" />
  </g>
  <g
     style="fill:#424242;stroke:#424242;stroke-linecap:butt;stroke-linejoin:round"
     id="g4582"
     text-rendering="geometricPrecision"
     transform="translate(-4.5,-4.5)">
    <rect
       style="fill:none"
       id="rect4584"
       clip-path="url(#clipPath1)"
       y="5"
       height="375"
       width="646"
       x="5" />
    <path
       style="fill:#000000;stroke:none"
       inkscape:connector-curvature="0"
       id="path4586"
       clip-path="url(#clipPath1)"
       d="m 132.8438,18.4978 0,-7.875 2.7187,0 q 0.9219,0 1.4063,0.1094 0.6718,0.1562 1.1562,0.5625 0.6094,0.5312 0.9219,1.3515 0.3125,0.8204 0.3125,1.8672 0,0.9063 -0.211,1.5938 -0.2109,0.6875 -0.539,1.1406 -0.3282,0.4531 -0.7188,0.7188 -0.3906,0.2656 -0.9375,0.3984 -0.5469,0.1328 -1.2656,0.1328 l -2.8437,0 z m 1.0468,-0.9219 1.6875,0 q 0.7657,0 1.211,-0.1484 0.4453,-0.1484 0.7109,-0.4141 0.375,-0.375 0.5781,-1 0.2031,-0.625 0.2031,-1.5156 0,-1.2344 -0.4062,-1.8984 -0.4062,-0.6641 -0.9844,-0.8828 -0.4218,-0.1563 -1.3437,-0.1563 l -1.6563,0 0,6.0156 z m 5.8438,-5.8437 0,-1.1094 0.9687,0 0,1.1094 -0.9687,0 z m 0,6.7656 0,-5.7031 0.9687,0 0,5.7031 -0.9687,0 z m 5.7187,-0.7031 q -0.5469,0.4531 -1.039,0.6406 -0.4922,0.1875 -1.0703,0.1875 -0.9376,0 -1.4454,-0.4609 -0.5078,-0.461 -0.5078,-1.1641 0,-0.4219 0.1953,-0.7656 0.1953,-0.3438 0.5,-0.5547 0.3047,-0.2109 0.6953,-0.3203 0.2813,-0.0781 0.8594,-0.1406 1.1719,-0.1407 1.7188,-0.3438 0.0156,-0.1875 0.0156,-0.25 0,-0.5937 -0.2812,-0.8281 -0.3594,-0.3281 -1.0938,-0.3281 -0.6875,0 -1.0078,0.2343 -0.3203,0.2344 -0.4766,0.8438 l -0.9531,-0.125 q 0.125,-0.6094 0.4219,-0.9844 0.2968,-0.375 0.8594,-0.5703 0.5624,-0.1953 1.2968,-0.1953 0.7344,0 1.1875,0.1719 0.4531,0.1718 0.6641,0.4296 0.2109,0.2579 0.3047,0.6485 0.0469,0.25 0.0469,0.9062 l 0,1.2813 q 0,1.3437 0.0624,1.7031 0.0626,0.3594 0.25,0.6875 l -1.0156,0 q -0.1562,-0.2969 -0.1875,-0.7031 z m -0.0937,-2.1563 q -0.5156,0.2188 -1.5782,0.3594 -0.5937,0.0938 -0.8359,0.1953 -0.2422,0.1016 -0.3828,0.3125 -0.1406,0.211 -0.1406,0.461 0,0.3906 0.2969,0.6484 0.2968,0.2578 0.8593,0.2578 0.5625,0 0.9922,-0.25 0.4297,-0.25 0.6485,-0.6719 0.1406,-0.3281 0.1406,-0.9687 l 0,-0.3438 z m 2.1875,3.3282 0.9375,0.1406 q 0.0625,0.4375 0.3281,0.6406 0.3594,0.2656 0.9844,0.2656 0.6719,0 1.039,-0.2656 0.3672,-0.2656 0.4922,-0.75 0.0781,-0.2969 0.0781,-1.25 -0.6406,0.75 -1.5937,0.75 -1.1719,0 -1.8125,-0.8516 -0.6406,-0.8515 -0.6406,-2.039 0,-0.8125 0.2968,-1.5 0.2969,-0.6875 0.8516,-1.0625 0.5547,-0.375 1.3203,-0.375 1,0 1.6563,0.8125 l 0,-0.6875 0.8906,0 0,4.9219 q 0,1.3437 -0.2656,1.8984 -0.2656,0.5547 -0.8594,0.875 -0.5938,0.3203 -1.4531,0.3203 -1.0157,0 -1.6407,-0.4609 -0.625,-0.461 -0.6093,-1.3828 z m 0.7969,-3.4219 q 0,1.125 0.4453,1.6406 0.4453,0.5156 1.1171,0.5156 0.6719,0 1.125,-0.5156 0.4532,-0.5156 0.4532,-1.6094 0,-1.0468 -0.4688,-1.5781 -0.4687,-0.5312 -1.125,-0.5312 -0.6406,0 -1.0937,0.5234 -0.4531,0.5234 -0.4531,1.5547 z m 5.375,2.9531 0,-5.7031 0.8593,0 0,0.8594 q 0.3438,-0.6094 0.625,-0.7969 0.2813,-0.1875 0.6094,-0.1875 0.5,0 1,0.3125 l -0.3281,0.8906 q -0.3594,-0.2031 -0.7188,-0.2031 -0.3125,0 -0.5625,0.1875 -0.25,0.1875 -0.3593,0.5312 -0.1563,0.5157 -0.1563,1.125 l 0,2.9844 -0.9687,0 z m 7.7343,-0.7031 q -0.5469,0.4531 -1.039,0.6406 -0.4922,0.1875 -1.0703,0.1875 -0.9376,0 -1.4454,-0.4609 -0.5078,-0.461 -0.5078,-1.1641 0,-0.4219 0.1953,-0.7656 0.1953,-0.3438 0.5,-0.5547 0.3047,-0.2109 0.6953,-0.3203 0.2813,-0.0781 0.8594,-0.1406 1.1719,-0.1407 1.7188,-0.3438 0.0156,-0.1875 0.0156,-0.25 0,-0.5937 -0.2812,-0.8281 -0.3594,-0.3281 -1.0938,-0.3281 -0.6875,0 -1.0078,0.2343 -0.3203,0.2344 -0.4766,0.8438 l -0.9531,-0.125 q 0.125,-0.6094 0.4219,-0.9844 0.2968,-0.375 0.8594,-0.5703 0.5624,-0.1953 1.2968,-0.1953 0.7344,0 1.1875,0.1719 0.4531,0.1718 0.6641,0.4296 0.2109,0.2579 0.3047,0.6485 0.0469,0.25 0.0469,0.9062 l 0,1.2813 q 0,1.3437 0.0624,1.7031 0.0626,0.3594 0.25,0.6875 l -1.0156,0 q -0.1562,-0.2969 -0.1875,-0.7031 z m -0.0937,-2.1563 q -0.5156,0.2188 -1.5782,0.3594 -0.5937,0.0938 -0.8359,0.1953 -0.2422,0.1016 -0.3828,0.3125 -0.1406,0.211 -0.1406,0.461 0,0.3906 0.2969,0.6484 0.2968,0.2578 0.8593,0.2578 0.5625,0 0.9922,-0.25 0.4297,-0.25 0.6485,-0.6719 0.1406,-0.3281 0.1406,-0.9687 l 0,-0.3438 z m 2.3594,2.8594 0,-5.7031 0.875,0 0,0.7969 q 0.2656,-0.4219 0.7109,-0.6719 0.4453,-0.25 1.0078,-0.25 0.6406,0 1.0469,0.2578 0.4062,0.2578 0.5781,0.7422 0.6719,-1 1.75,-1 0.8594,0 1.3125,0.4687 0.4531,0.4688 0.4531,1.4375 l 0,3.9219 -0.9531,0 0,-3.5937 q 0,-0.5782 -0.0938,-0.836 -0.0937,-0.2578 -0.3437,-0.414 -0.25,-0.1563 -0.5781,-0.1563 -0.6094,0 -1.0078,0.4063 -0.3985,0.4062 -0.3985,1.2812 l 0,3.3125 -0.9687,0 0,-3.7031 q 0,-0.6406 -0.2344,-0.9688 -0.2344,-0.3281 -0.7656,-0.3281 -0.4063,0 -0.7578,0.2188 -0.3516,0.2187 -0.5078,0.6328 -0.1563,0.414 -0.1563,1.1953 l 0,2.9531 -0.9687,0 z m 8,0 0,-5.7031 0.875,0 0,0.7969 q 0.2656,-0.4219 0.7109,-0.6719 0.4453,-0.25 1.0078,-0.25 0.6406,0 1.0469,0.2578 0.4062,0.2578 0.5781,0.7422 0.6719,-1 1.75,-1 0.8594,0 1.3125,0.4687 0.4531,0.4688 0.4531,1.4375 l 0,3.9219 -0.9531,0 0,-3.5937 q 0,-0.5782 -0.0938,-0.836 -0.0937,-0.2578 -0.3437,-0.414 -0.25,-0.1563 -0.5781,-0.1563 -0.6094,0 -1.0078,0.4063 -0.3985,0.4062 -0.3985,1.2812 l 0,3.3125 -0.9687,0 0,-3.7031 q 0,-0.6406 -0.2344,-0.9688 -0.2344,-0.3281 -0.7656,-0.3281 -0.4063,0 -0.7578,0.2188 -0.3516,0.2187 -0.5078,0.6328 -0.1563,0.414 -0.1563,1.1953 l 0,2.9531 -0.9687,0 z m 11.9062,-1.8437 1,0.125 q -0.2344,0.875 -0.875,1.3593 -0.6406,0.4844 -1.625,0.4844 -1.25,0 -1.9844,-0.7656 -0.7344,-0.7656 -0.7344,-2.1563 0,-1.4531 0.7422,-2.2422 0.7422,-0.789 1.9141,-0.789 1.1563,0 1.875,0.7734 0.7187,0.7735 0.7187,2.1953 0,0.0782 0,0.25 l -4.25,0 q 0.0469,0.9375 0.5235,1.4375 0.4765,0.5 1.1953,0.5 0.5312,0 0.9062,-0.2734 0.375,-0.2734 0.5938,-0.8984 z m -3.1719,-1.5625 3.1875,0 q -0.0625,-0.7188 -0.3594,-1.0782 -0.4687,-0.5468 -1.2031,-0.5468 -0.6719,0 -1.125,0.4453 -0.4531,0.4453 -0.5,1.1797 z m 11.9688,3.4062 0,-0.7187 q -0.5313,0.8437 -1.5938,0.8437 -0.6719,0 -1.25,-0.375 -0.5781,-0.375 -0.8906,-1.0469 -0.3125,-0.6718 -0.3125,-1.5468 0,-0.8594 0.2891,-1.5547 0.289,-0.6953 0.8515,-1.0625 0.5625,-0.3672 1.2656,-0.3672 0.5157,0 0.9219,0.2187 0.4063,0.2188 0.6563,0.5625 l 0,-2.8281 0.9687,0 0,7.875 -0.9062,0 z m -3.0469,-2.8437 q 0,1.0937 0.4609,1.6328 0.461,0.539 1.086,0.539 0.6406,0 1.0781,-0.5156 0.4375,-0.5156 0.4375,-1.5781 0,-1.1719 -0.4453,-1.7188 -0.4453,-0.5468 -1.1172,-0.5468 -0.6406,0 -1.0703,0.5234 -0.4297,0.5234 -0.4297,1.6641 z m 9.25,1 1,0.125 q -0.2344,0.875 -0.875,1.3593 -0.6406,0.4844 -1.625,0.4844 -1.25,0 -1.9844,-0.7656 -0.7344,-0.7656 -0.7344,-2.1563 0,-1.4531 0.7422,-2.2422 0.7422,-0.789 1.9141,-0.789 1.1563,0 1.875,0.7734 0.7187,0.7735 0.7187,2.1953 0,0.0782 0,0.25 l -4.25,0 q 0.0469,0.9375 0.5235,1.4375 0.4765,0.5 1.1953,0.5 0.5312,0 0.9062,-0.2734 0.375,-0.2734 0.5938,-0.8984 z m -3.1719,-1.5625 3.1875,0 q -0.0625,-0.7188 -0.3594,-1.0782 -0.4687,-0.5468 -1.2031,-0.5468 -0.6719,0 -1.125,0.4453 -0.4531,0.4453 -0.5,1.1797 z m 12,1.3125 0.9375,0.125 q -0.1406,0.9843 -0.789,1.539 -0.6485,0.5547 -1.5704,0.5547 -1.1718,0 -1.8828,-0.7656 -0.7109,-0.7656 -0.7109,-2.1875 0,-0.9219 0.3047,-1.6172 0.3047,-0.6953 0.9297,-1.0391 0.625,-0.3437 1.3593,-0.3437 0.9219,0 1.5157,0.4687 0.5937,0.4688 0.7656,1.3282 l -0.9531,0.1406 q -0.125,-0.5625 -0.4688,-0.8516 -0.3437,-0.289 -0.8281,-0.289 -0.7187,0 -1.1797,0.5234 -0.4609,0.5234 -0.4609,1.6484 0,1.1563 0.4375,1.6719 0.4375,0.5156 1.1562,0.5156 0.5625,0 0.9453,-0.3437 0.3829,-0.3438 0.4922,-1.0781 z m 1.9063,-0.7657 q 0,-1.5781 0.8906,-2.3437 0.7344,-0.625 1.7969,-0.625 1.1719,0 1.914,0.7656 0.7422,0.7656 0.7422,2.125 0,1.1094 -0.3281,1.7422 -0.3281,0.6328 -0.9609,0.9766 -0.6329,0.3437 -1.3672,0.3437 -1.2031,0 -1.9453,-0.7656 -0.7422,-0.7656 -0.7422,-2.2188 z m 1,0 q 0,1.1094 0.4765,1.6485 0.4766,0.539 1.211,0.539 0.7187,0 1.1953,-0.5468 0.4766,-0.5469 0.4766,-1.6719 0,-1.0469 -0.4844,-1.5938 -0.4844,-0.5468 -1.1875,-0.5468 -0.7344,0 -1.211,0.539 -0.4765,0.5391 -0.4765,1.6328 z m 5.3594,2.8594 0,-5.7031 0.875,0 0,0.8125 q 0.625,-0.9375 1.8124,-0.9375 0.5157,0 0.9532,0.1797 0.4375,0.1797 0.6484,0.4843 0.211,0.3047 0.3047,0.711 0.0469,0.2812 0.0469,0.9531 l 0,3.5 -0.9688,0 0,-3.4687 q 0,-0.5938 -0.1094,-0.8829 -0.1093,-0.289 -0.3984,-0.4687 -0.289,-0.1797 -0.6797,-0.1797 -0.6093,0 -1.0625,0.3906 -0.4531,0.3907 -0.4531,1.5 l 0,3.1094 -0.9687,0 z m 8.125,-0.8594 0.125,0.8438 q -0.4063,0.0937 -0.7188,0.0937 -0.5312,0 -0.8203,-0.1718 -0.2891,-0.1719 -0.4063,-0.4375 -0.1172,-0.2657 -0.1172,-1.1407 l 0,-3.2812 -0.7187,0 0,-0.75 0.7187,0 0,-1.4063 0.9532,-0.5937 0,2 0.9844,0 0,0.75 -0.9844,0 0,3.3437 q 0,0.4063 0.0547,0.5235 0.0547,0.1172 0.1718,0.1875 0.1172,0.0703 0.3203,0.0703 0.1719,0 0.4376,-0.0313 z m 4.7812,-0.9843 1,0.125 q -0.2344,0.875 -0.875,1.3593 -0.6406,0.4844 -1.625,0.4844 -1.25,0 -1.9844,-0.7656 -0.7344,-0.7656 -0.7344,-2.1563 0,-1.4531 0.7422,-2.2422 0.7422,-0.789 1.9141,-0.789 1.1563,0 1.875,0.7734 0.7187,0.7735 0.7187,2.1953 0,0.0782 0,0.25 l -4.25,0 q 0.0469,0.9375 0.5235,1.4375 0.4765,0.5 1.1953,0.5 0.5312,0 0.9062,-0.2734 0.375,-0.2734 0.5938,-0.8984 z m -3.1719,-1.5625 3.1875,0 q -0.0625,-0.7188 -0.3594,-1.0782 -0.4687,-0.5468 -1.2031,-0.5468 -0.6719,0 -1.125,0.4453 -0.4531,0.4453 -0.5,1.1797 z m 4.625,3.4062 2.0938,-2.9687 -1.9375,-2.7344 1.2031,0 0.8906,1.3437 q 0.2344,0.375 0.3907,0.625 0.2343,-0.3437 0.4374,-0.625 l 0.9532,-1.3437 1.1562,0 -1.9687,2.6875 2.125,3.0156 -1.1875,0 -1.1719,-1.7656 -0.3125,-0.4844 -1.5,2.25 -1.1719,0 z m 8.7657,-0.8594 0.125,0.8438 q -0.4063,0.0937 -0.7188,0.0937 -0.5312,0 -0.8203,-0.1718 -0.2891,-0.1719 -0.4063,-0.4375 -0.1172,-0.2657 -0.1172,-1.1407 l 0,-3.2812 -0.7187,0 0,-0.75 0.7187,0 0,-1.4063 0.9532,-0.5937 0,2 0.9844,0 0,0.75 -0.9844,0 0,3.3437 q 0,0.4063 0.0547,0.5235 0.0547,0.1172 0.1718,0.1875 0.1172,0.0703 0.3203,0.0703 0.1719,0 0.4376,-0.0313 z m 4.7812,-0.9843 1,0.125 q -0.2344,0.875 -0.875,1.3593 -0.6406,0.4844 -1.625,0.4844 -1.25,0 -1.9844,-0.7656 -0.7344,-0.7656 -0.7344,-2.1563 0,-1.4531 0.7422,-2.2422 0.7422,-0.789 1.9141,-0.789 1.1563,0 1.875,0.7734 0.7187,0.7735 0.7187,2.1953 0,0.0782 0,0.25 l -4.25,0 q 0.0469,0.9375 0.5235,1.4375 0.4765,0.5 1.1953,0.5 0.5312,0 0.9062,-0.2734 0.375,-0.2734 0.5938,-0.8984 z m -3.1719,-1.5625 3.1875,0 q -0.0625,-0.7188 -0.3594,-1.0782 -0.4687,-0.5468 -1.2031,-0.5468 -0.6719,0 -1.125,0.4453 -0.4531,0.4453 -0.5,1.1797 z" />
    <path
       style="fill:#000000;stroke:none"
       inkscape:connector-curvature="0"
       id="path4588"
       clip-path="url(#clipPath1)"
       d="m 86.4688,15.7322 1.0468,0.2656 q -0.3281,1.2813 -1.1797,1.9609 -0.8515,0.6797 -2.0859,0.6797 -1.2812,0 -2.0781,-0.5234 -0.7969,-0.5234 -1.211,-1.5078 -0.414,-0.9844 -0.414,-2.1094 0,-1.2187 0.4687,-2.1406 0.4688,-0.9219 1.336,-1.3985 0.8672,-0.4765 1.914,-0.4765 1.1875,0 1.9922,0.6015 0.8047,0.6016 1.1172,1.6954 l -1.0312,0.25 q -0.2657,-0.8594 -0.7891,-1.25 -0.5235,-0.3907 -1.3047,-0.3907 -0.9219,0 -1.5312,0.4297 -0.6094,0.4297 -0.8516,1.1641 -0.2422,0.7344 -0.2422,1.5156 0,1 0.2891,1.75 0.289,0.75 0.9062,1.125 0.6172,0.375 1.3359,0.375 0.875,0 1.4844,-0.5078 0.6094,-0.5078 0.8282,-1.5078 z m 0.8906,-0.0938 q 0,-1.5781 0.8906,-2.3437 0.7344,-0.625 1.7969,-0.625 1.1719,0 1.914,0.7656 0.7422,0.7656 0.7422,2.125 0,1.1094 -0.3281,1.7422 -0.3281,0.6328 -0.9609,0.9766 -0.6329,0.3437 -1.3672,0.3437 -1.2031,0 -1.9453,-0.7656 -0.7422,-0.7656 -0.7422,-2.2188 z m 1,0 q 0,1.1094 0.4765,1.6485 0.4766,0.539 1.211,0.539 0.7187,0 1.1953,-0.5468 0.4766,-0.5469 0.4766,-1.6719 0,-1.0469 -0.4844,-1.5938 -0.4844,-0.5468 -1.1875,-0.5468 -0.7344,0 -1.211,0.539 -0.4765,0.5391 -0.4765,1.6328 z m 5.3594,2.8594 0,-5.7031 0.875,0 0,0.8125 q 0.625,-0.9375 1.8124,-0.9375 0.5157,0 0.9532,0.1797 0.4375,0.1797 0.6484,0.4843 0.211,0.3047 0.3047,0.711 0.0469,0.2812 0.0469,0.9531 l 0,3.5 -0.9688,0 0,-3.4687 q 0,-0.5938 -0.1094,-0.8829 -0.1093,-0.289 -0.3984,-0.4687 -0.289,-0.1797 -0.6797,-0.1797 -0.6093,0 -1.0625,0.3906 -0.4531,0.3907 -0.4531,1.5 l 0,3.1094 -0.9687,0 z m 8.125,-0.8594 0.125,0.8438 q -0.4063,0.0937 -0.7188,0.0937 -0.5312,0 -0.8203,-0.1718 -0.2891,-0.1719 -0.4063,-0.4375 -0.1172,-0.2657 -0.1172,-1.1407 l 0,-3.2812 -0.7187,0 0,-0.75 0.7187,0 0,-1.4063 0.9532,-0.5937 0,2 0.9844,0 0,0.75 -0.9844,0 0,3.3437 q 0,0.4063 0.0547,0.5235 0.0547,0.1172 0.1718,0.1875 0.1172,0.0703 0.3203,0.0703 0.1719,0 0.4376,-0.0313 z m 4.7812,-0.9843 1,0.125 q -0.2344,0.875 -0.875,1.3593 -0.6406,0.4844 -1.625,0.4844 -1.25,0 -1.9844,-0.7656 -0.7344,-0.7656 -0.7344,-2.1563 0,-1.4531 0.7422,-2.2422 0.7422,-0.789 1.9141,-0.789 1.1563,0 1.875,0.7734 0.7187,0.7735 0.7187,2.1953 0,0.0782 0,0.25 l -4.25,0 q 0.0469,0.9375 0.5235,1.4375 0.4765,0.5 1.1953,0.5 0.5312,0 0.9062,-0.2734 0.375,-0.2734 0.5938,-0.8984 z m -3.1719,-1.5625 3.1875,0 q -0.0625,-0.7188 -0.3594,-1.0782 -0.4687,-0.5468 -1.2031,-0.5468 -0.6719,0 -1.125,0.4453 -0.4531,0.4453 -0.5,1.1797 z m 4.625,3.4062 2.0938,-2.9687 -1.9375,-2.7344 1.2031,0 0.8906,1.3437 q 0.2344,0.375 0.3907,0.625 0.2343,-0.3437 0.4374,-0.625 l 0.9532,-1.3437 1.1562,0 -1.9687,2.6875 2.125,3.0156 -1.1875,0 -1.1719,-1.7656 -0.3125,-0.4844 -1.5,2.25 -1.1719,0 z m 8.7657,-0.8594 0.125,0.8438 q -0.4063,0.0937 -0.7188,0.0937 -0.5312,0 -0.8203,-0.1718 -0.2891,-0.1719 -0.4063,-0.4375 -0.1172,-0.2657 -0.1172,-1.1407 l 0,-3.2812 -0.7187,0 0,-0.75 0.7187,0 0,-1.4063 0.9532,-0.5937 0,2 0.9844,0 0,0.75 -0.9844,0 0,3.3437 q 0,0.4063 0.0547,0.5235 0.0547,0.1172 0.1718,0.1875 0.1172,0.0703 0.3203,0.0703 0.1719,0 0.4376,-0.0313 z m 4.7812,-0.9843 1,0.125 q -0.2344,0.875 -0.875,1.3593 -0.6406,0.4844 -1.625,0.4844 -1.25,0 -1.9844,-0.7656 -0.7344,-0.7656 -0.7344,-2.1563 0,-1.4531 0.7422,-2.2422 0.7422,-0.789 1.9141,-0.789 1.1563,0 1.875,0.7734 0.7187,0.7735 0.7187,2.1953 0,0.0782 0,0.25 l -4.25,0 q 0.0469,0.9375 0.5235,1.4375 0.4765,0.5 1.1953,0.5 0.5312,0 0.9062,-0.2734 0.375,-0.2734 0.5938,-0.8984 z m -3.1719,-1.5625 3.1875,0 q -0.0625,-0.7188 -0.3594,-1.0782 -0.4687,-0.5468 -1.2031,-0.5468 -0.6719,0 -1.125,0.4453 -0.4531,0.4453 -0.5,1.1797 z" />
    <path
       style="fill:#000000;stroke:none"
       inkscape:connector-curvature="0"
       id="path4590"
       clip-path="url(#clipPath1)"
       d="m 37.75,20.6853 0,-10.0625 2.125,0 0,0.7969 -1.1562,0 0,8.4687 1.1562,0 0,0.7969 -2.125,0 z m 3.0938,-2.1875 0,-7.875 2.9687,0 q 0.7969,0 1.2031,0.0781 0.5782,0.0938 0.9688,0.3672 0.3906,0.2735 0.6328,0.7578 0.2422,0.4844 0.2422,1.0782 0,1 -0.6406,1.6953 -0.6407,0.6953 -2.3126,0.6953 l -2.0156,0 0,3.2031 -1.0468,0 z m 1.0468,-4.125 2.0313,0 q 1.0156,0 1.4375,-0.375 0.4218,-0.375 0.4218,-1.0625 0,-0.5 -0.25,-0.8516 -0.25,-0.3515 -0.6562,-0.4609 -0.2656,-0.0625 -0.9688,-0.0625 l -2.0156,0 0,2.8125 z m 8.5625,3.4219 q -0.5469,0.4531 -1.039,0.6406 -0.4922,0.1875 -1.0703,0.1875 -0.9376,0 -1.4454,-0.4609 -0.5078,-0.461 -0.5078,-1.1641 0,-0.4219 0.1953,-0.7656 0.1953,-0.3438 0.5,-0.5547 0.3047,-0.2109 0.6953,-0.3203 0.2813,-0.0781 0.8594,-0.1406 1.1719,-0.1407 1.7188,-0.3438 0.0156,-0.1875 0.0156,-0.25 0,-0.5937 -0.2812,-0.8281 Q 49.7344,13.4666 49,13.4666 q -0.6875,0 -1.0078,0.2343 -0.3203,0.2344 -0.4766,0.8438 l -0.9531,-0.125 q 0.125,-0.6094 0.4219,-0.9844 0.2968,-0.375 0.8594,-0.5703 0.5624,-0.1953 1.2968,-0.1953 0.7344,0 1.1875,0.1719 0.4531,0.1718 0.6641,0.4296 0.2109,0.2579 0.3047,0.6485 0.0469,0.25 0.0469,0.9062 l 0,1.2813 q 0,1.3437 0.0624,1.7031 0.0626,0.3594 0.25,0.6875 l -1.0156,0 q -0.1562,-0.2969 -0.1875,-0.7031 z m -0.0937,-2.1563 q -0.5156,0.2188 -1.5782,0.3594 -0.5937,0.0938 -0.8359,0.1953 -0.2422,0.1016 -0.3828,0.3125 -0.1406,0.211 -0.1406,0.461 0,0.3906 0.2969,0.6484 0.2968,0.2578 0.8593,0.2578 0.5625,0 0.9922,-0.25 0.4297,-0.25 0.6485,-0.6719 0.1406,-0.3281 0.1406,-0.9687 l 0,-0.3438 z m 6,5.0469 0,-2.7969 q -0.2188,0.3125 -0.625,0.5235 -0.4063,0.2109 -0.8594,0.2109 -1.0156,0 -1.75,-0.8125 -0.7344,-0.8125 -0.7344,-2.2187 0,-0.8594 0.2969,-1.5391 0.2969,-0.6797 0.8594,-1.0313 0.5625,-0.3515 1.25,-0.3515 1.0469,0 1.6562,0.8906 l 0,-0.7656 0.875,0 0,7.8906 -0.9687,0 z M 53.375,15.6228 q 0,1.1094 0.4609,1.6563 0.461,0.5468 1.1172,0.5468 0.6094,0 1.0547,-0.5234 0.4453,-0.5234 0.4453,-1.5859 0,-1.1407 -0.4687,-1.7188 -0.4688,-0.5781 -1.0938,-0.5781 -0.6406,0 -1.0781,0.539 -0.4375,0.5391 -0.4375,1.6641 z m 9.0938,2.875 0,-0.8437 q -0.6719,0.9687 -1.8126,0.9687 -0.5,0 -0.9453,-0.1953 -0.4453,-0.1953 -0.6562,-0.4844 -0.2109,-0.289 -0.2891,-0.7109 -0.0625,-0.2813 -0.0625,-0.9063 l 0,-3.5312 0.9688,0 0,3.1562 q 0,0.7657 0.0625,1.0313 0.0937,0.375 0.3828,0.5937 0.289,0.2188 0.7266,0.2188 0.4374,0 0.8203,-0.2266 0.3828,-0.2265 0.539,-0.6094 0.1563,-0.3828 0.1563,-1.1015 l 0,-3.0625 0.9687,0 0,5.7031 -0.8593,0 z m 6.1562,-1.8437 1,0.125 q -0.2344,0.875 -0.875,1.3593 -0.6406,0.4844 -1.625,0.4844 -1.25,0 -1.9844,-0.7656 -0.7344,-0.7656 -0.7344,-2.1563 0,-1.4531 0.7422,-2.2422 0.7422,-0.789 1.9141,-0.789 1.1563,0 1.875,0.7734 0.7187,0.7735 0.7187,2.1953 0,0.0782 0,0.25 l -4.25,0 q 0.0469,0.9375 0.5235,1.4375 0.4765,0.5 1.1953,0.5 0.5312,0 0.9062,-0.2734 0.375,-0.2734 0.5938,-0.8984 z m -3.1719,-1.5625 3.1875,0 q -0.0625,-0.7188 -0.3594,-1.0782 -0.4687,-0.5468 -1.2031,-0.5468 -0.6719,0 -1.125,0.4453 -0.4531,0.4453 -0.5,1.1797 z m 7.3907,2.5468 0.125,0.8438 q -0.4063,0.0937 -0.7188,0.0937 -0.5312,0 -0.8203,-0.1718 -0.2891,-0.1719 -0.4063,-0.4375 -0.1172,-0.2657 -0.1172,-1.1407 l 0,-3.2812 -0.7187,0 0,-0.75 0.7187,0 0,-1.4063 0.9532,-0.5937 0,2 0.9844,0 0,0.75 -0.9844,0 0,3.3437 q 0,0.4063 0.0547,0.5235 0.0547,0.1172 0.1718,0.1875 0.1172,0.0703 0.3203,0.0703 0.1719,0 0.4376,-0.0313 z m 2.5,3.0469 -2.1407,0 0,-0.7969 1.1719,0 0,-8.4687 -1.1719,0 0,-0.7969 2.1407,0 0,10.0625 z" />
    <path
       style="fill:#000000;stroke:none"
       inkscape:connector-curvature="0"
       id="path4592"
       clip-path="url(#clipPath1)"
       d="m 12.7188,18.4978 0,-7.875 1.5156,0 0,2.8438 q 0.7031,-0.7969 1.6562,-0.7969 1.0469,0 1.7266,0.75 0.6797,0.75 0.6797,2.1719 0,1.4531 -0.6953,2.2421 -0.6954,0.7891 -1.6954,0.7891 -0.4843,0 -0.9609,-0.2422 -0.4765,-0.2422 -0.8203,-0.7265 l 0,0.8437 -1.4062,0 z m 1.5,-2.9687 q 0,0.875 0.2812,1.2968 0.3906,0.6094 1.0469,0.6094 0.5,0 0.8515,-0.4297 0.3516,-0.4297 0.3516,-1.3515 0,-0.9688 -0.3516,-1.3985 -0.3515,-0.4297 -0.914,-0.4297 -0.5469,0 -0.9063,0.4219 -0.3593,0.4219 -0.3593,1.2813 z m 10.7968,2.9687 -1.3906,0 0,-0.8437 q -0.3594,0.5 -0.8359,0.7343 -0.4766,0.2344 -0.9453,0.2344 -0.9844,0 -1.6876,-0.7891 -0.7031,-0.789 -0.7031,-2.2109 0,-1.4531 0.6797,-2.2031 0.6797,-0.75 1.7266,-0.75 0.9531,0 1.6562,0.7969 l 0,-2.8438 1.5,0 0,7.875 z M 21,15.5291 q 0,0.9062 0.25,1.3125 0.3594,0.5937 1.0156,0.5937 0.5156,0 0.8828,-0.4453 0.3672,-0.4453 0.3672,-1.3203 0,-0.9844 -0.3515,-1.4141 -0.3516,-0.4297 -0.9141,-0.4297 -0.5312,0 -0.8906,0.4219 Q 21,14.6697 21,15.5291 z m 11.0156,2.9687 -1.3906,0 0,-0.8437 q -0.3594,0.5 -0.8359,0.7343 -0.4766,0.2344 -0.9453,0.2344 -0.9844,0 -1.6876,-0.7891 -0.7031,-0.789 -0.7031,-2.2109 0,-1.4531 0.6797,-2.2031 0.6797,-0.75 1.7266,-0.75 0.9531,0 1.6562,0.7969 l 0,-2.8438 1.5,0 0,7.875 z M 28,15.5291 q 0,0.9062 0.25,1.3125 0.3594,0.5937 1.0156,0.5937 0.5156,0 0.8828,-0.4453 0.3672,-0.4453 0.3672,-1.3203 0,-0.9844 -0.3515,-1.4141 -0.3516,-0.4297 -0.9141,-0.4297 -0.5312,0 -0.8906,0.4219 Q 28,14.6697 28,15.5291 z" />
    <path
       style="fill:#000000;stroke:none"
       inkscape:connector-curvature="0"
       id="path4594"
       clip-path="url(#clipPath1)"
       d="m 125.75,20.6853 0,-10.0625 2.125,0 0,0.7969 -1.1562,0 0,8.4687 1.1562,0 0,0.7969 -2.125,0 z" />
    <path
       style="fill:#000000;stroke:none"
       inkscape:connector-curvature="0"
       id="path4596"
       clip-path="url(#clipPath1)"
       d="m 251.3438,20.6853 -2.1407,0 0,-0.7969 1.1719,0 0,-8.4687 -1.1719,0 0,-0.7969 2.1407,0 0,10.0625 z" />
    <line
       style="fill:none"
       id="line4598"
       y1="23"
       x2="247"
       clip-path="url(#clipPath1)"
       x1="5"
       y2="23" />
    <line
       style="fill:none"
       id="line4600"
       y1="5"
       x2="256"
       clip-path="url(#clipPath1)"
       x1="256"
       y2="17" />
    <line
       style="fill:none"
       id="line4602"
       y1="23"
       x2="256"
       clip-path="url(#clipPath1)"
       x1="247"
       y2="17" />
    <rect
       style="fill:#b2b2b2;stroke:none"
       id="rect4604"
       height="120"
       width="199"
       clip-path="url(#clipPath1)"
       y="66"
       x="234" />
    <rect
       style="fill:url(#linearGradient4707);stroke:none"
       id="rect4606"
       height="120"
       width="199"
       clip-path="url(#clipPath1)"
       y="63"
       x="231" />
    <rect
       style="fill:none;stroke:#99795c"
       id="rect4608"
       height="120"
       width="199"
       clip-path="url(#clipPath1)"
       y="63"
       x="231" />
    <line
       style="fill:none;stroke:#99795c"
       id="line4610"
       y2="96"
       y1="96"
       x2="430"
       x1="231"
       clip-path="url(#clipPath1)" />
    <path
       style="fill:#000000;stroke:none"
       inkscape:connector-curvature="0"
       id="path4612"
       clip-path="url(#clipPath1)"
       d="m 308.8281,73.6541 1.3907,2.4531 -0.7813,0 -1.7187,-2.4531 1.7187,-2.4375 0.7969,0 -1.4063,2.4375 z m 2.0781,0 1.4219,2.4531 -0.8281,0 -1.6719,-2.4531 1.6719,-2.4375 0.8281,0 -1.4219,2.4375 z m 2.4376,1.1406 0.9531,-0.1563 q 0.0781,0.5782 0.4453,0.8828 0.3672,0.3047 1.0234,0.3047 0.6719,0 0.9922,-0.2656 0.3203,-0.2656 0.3203,-0.6406 0,-0.3281 -0.2812,-0.5156 -0.2031,-0.125 -0.9844,-0.3282 -1.0625,-0.2656 -1.4766,-0.4609 -0.414,-0.1953 -0.625,-0.5391 -0.2109,-0.3437 -0.2109,-0.7656 0,-0.3906 0.1719,-0.7109 0.1719,-0.3203 0.4843,-0.5391 0.2188,-0.1719 0.6094,-0.2812 0.3906,-0.1094 0.8282,-0.1094 0.6718,0 1.1796,0.1875 0.5078,0.1875 0.75,0.5234 0.2422,0.336 0.336,0.8828 l -0.9375,0.125 q -0.0781,-0.4375 -0.3828,-0.6797 -0.3047,-0.2421 -0.8672,-0.2421 -0.6719,0 -0.9531,0.2187 -0.2813,0.2188 -0.2813,0.5156 0,0.1875 0.1094,0.3282 0.125,0.1562 0.375,0.2656 0.1406,0.0469 0.8593,0.25 1.0157,0.2656 1.4219,0.4375 0.4063,0.1719 0.6407,0.5078 0.2343,0.3359 0.2343,0.8359 0,0.4844 -0.2812,0.9063 -0.2813,0.4219 -0.8125,0.6562 -0.5313,0.2344 -1.2032,0.2344 -1.1093,0 -1.6953,-0.4609 -0.5859,-0.461 -0.7421,-1.3672 z m 6.3437,3.9062 -0.1094,-0.9062 q 0.3125,0.0781 0.5469,0.0781 0.3281,0 0.5234,-0.1094 0.1954,-0.1093 0.3047,-0.2968 0.0938,-0.1407 0.2969,-0.7188 0.0312,-0.0781 0.0938,-0.2344 l -2.1719,-5.7187 1.0469,0 1.1874,3.2969 q 0.2344,0.6406 0.4063,1.3281 0.1719,-0.6719 0.4063,-1.2969 l 1.2187,-3.3281 0.9687,0 -2.1718,5.7969 q -0.3438,0.9375 -0.5469,1.2968 -0.25,0.4844 -0.5859,0.7032 -0.336,0.2187 -0.7891,0.2187 -0.2813,0 -0.625,-0.1094 z m 5.6563,-3.9062 0.9531,-0.1563 q 0.0781,0.5782 0.4453,0.8828 0.3672,0.3047 1.0234,0.3047 0.6719,0 0.9922,-0.2656 0.3203,-0.2656 0.3203,-0.6406 0,-0.3281 -0.2812,-0.5156 -0.2031,-0.125 -0.9844,-0.3282 -1.0625,-0.2656 -1.4766,-0.4609 -0.414,-0.1953 -0.625,-0.5391 -0.2109,-0.3437 -0.2109,-0.7656 0,-0.3906 0.1719,-0.7109 0.1719,-0.3203 0.4843,-0.5391 0.2188,-0.1719 0.6094,-0.2812 0.3906,-0.1094 0.8282,-0.1094 0.6718,0 1.1796,0.1875 0.5078,0.1875 0.75,0.5234 0.2422,0.336 0.336,0.8828 l -0.9375,0.125 q -0.0781,-0.4375 -0.3828,-0.6797 -0.3047,-0.2421 -0.8672,-0.2421 -0.6719,0 -0.9531,0.2187 -0.2813,0.2188 -0.2813,0.5156 0,0.1875 0.1094,0.3282 0.125,0.1562 0.375,0.2656 0.1406,0.0469 0.8593,0.25 1.0157,0.2656 1.4219,0.4375 0.4063,0.1719 0.6407,0.5078 0.2343,0.3359 0.2343,0.8359 0,0.4844 -0.2812,0.9063 -0.2813,0.4219 -0.8125,0.6562 -0.5313,0.2344 -1.2032,0.2344 -1.1093,0 -1.6953,-0.4609 -0.5859,-0.461 -0.7421,-1.3672 z m 8.5,0.8437 0.125,0.8438 q -0.4063,0.0937 -0.7188,0.0937 -0.5312,0 -0.8203,-0.1718 -0.2891,-0.1719 -0.4063,-0.4375 -0.1172,-0.2657 -0.1172,-1.1407 l 0,-3.2812 -0.7187,0 0,-0.75 0.7187,0 0,-1.4063 0.9532,-0.5937 0,2 0.9844,0 0,0.75 -0.9844,0 0,3.3437 q 0,0.4063 0.0547,0.5235 0.0547,0.1172 0.1718,0.1875 0.1172,0.0703 0.3203,0.0703 0.1719,0 0.4376,-0.0313 z m 4.7812,-0.9843 1,0.125 q -0.2344,0.875 -0.875,1.3593 -0.6406,0.4844 -1.625,0.4844 -1.25,0 -1.9844,-0.7656 -0.7344,-0.7656 -0.7344,-2.1563 0,-1.4531 0.7422,-2.2422 0.7422,-0.789 1.9141,-0.789 1.1563,0 1.875,0.7734 0.7187,0.7735 0.7187,2.1953 0,0.0782 0,0.25 l -4.25,0 q 0.0469,0.9375 0.5235,1.4375 0.4765,0.5 1.1953,0.5 0.5312,0 0.9062,-0.2734 0.375,-0.2734 0.5938,-0.8984 z m -3.1719,-1.5625 3.1875,0 q -0.0625,-0.7188 -0.3594,-1.0782 -0.4687,-0.5468 -1.2031,-0.5468 -0.6719,0 -1.125,0.4453 -0.4531,0.4453 -0.5,1.1797 z m 5.2657,3.4062 0,-5.7031 0.875,0 0,0.7969 q 0.2656,-0.4219 0.7109,-0.6719 0.4453,-0.25 1.0078,-0.25 0.6406,0 1.0469,0.2578 0.4062,0.2578 0.5781,0.7422 0.6719,-1 1.75,-1 0.8594,0 1.3125,0.4687 0.4531,0.4688 0.4531,1.4375 l 0,3.9219 -0.9531,0 0,-3.5937 q 0,-0.5782 -0.0938,-0.836 -0.0937,-0.2578 -0.3437,-0.414 -0.25,-0.1563 -0.5781,-0.1563 -0.6094,0 -1.0078,0.4063 -0.3985,0.4062 -0.3985,1.2812 l 0,3.3125 -0.9687,0 0,-3.7031 q 0,-0.6406 -0.2344,-0.9688 -0.2344,-0.3281 -0.7656,-0.3281 -0.4063,0 -0.7578,0.2188 -0.3516,0.2187 -0.5078,0.6328 -0.1563,0.414 -0.1563,1.1953 l 0,2.9531 -0.9687,0 z m 11.5312,-2.8437 -1.4062,-2.4375 0.7968,0 1.7188,2.4375 -1.7188,2.4531 -0.7812,0 1.3906,-2.4531 z m -2.0781,0 -1.4219,-2.4375 0.8125,0 1.6875,2.4375 -1.6875,2.4531 -0.8125,0 1.4219,-2.4531 z" />
    <path
       style="fill:#000000;stroke:none"
       inkscape:connector-curvature="0"
       id="path4614"
       clip-path="url(#clipPath1)"
       d="m 262.7969,91.4978 0,-7.875 5.8437,0 0,1.3281 -4.25,0 0,1.75 3.9532,0 0,1.3282 -3.9532,0 0,2.1406 4.4063,0 0,1.3281 -6,0 z m 11.1875,0 -1.5156,0 0,-2.9062 q 0,-0.9219 -0.0938,-1.1954 -0.0938,-0.2734 -0.3125,-0.4218 -0.2187,-0.1485 -0.5313,-0.1485 -0.3906,0 -0.7031,0.211 -0.3125,0.2109 -0.4297,0.5625 -0.1172,0.3515 -0.1172,1.3203 l 0,2.5781 -1.5,0 0,-5.7031 1.4063,0 0,0.8437 q 0.7344,-0.9687 1.875,-0.9687 0.5,0 0.9141,0.1797 0.414,0.1797 0.625,0.4531 0.2109,0.2734 0.2968,0.6328 0.086,0.3594 0.086,1.0156 l 0,3.5469 z m 6.7812,-4.0156 -1.4844,0.2656 q -0.0781,-0.4375 -0.3437,-0.6641 -0.2656,-0.2265 -0.6875,-0.2265 -0.5625,0 -0.8984,0.3828 -0.336,0.3828 -0.336,1.3047 0,1.0156 0.336,1.4375 0.3359,0.4219 0.914,0.4219 0.4375,0 0.711,-0.25 0.2734,-0.25 0.3828,-0.8438 l 1.4844,0.25 q -0.2344,1.0313 -0.8907,1.5469 -0.6562,0.5156 -1.75,0.5156 -1.2656,0 -2.0078,-0.7891 -0.7422,-0.789 -0.7422,-2.1796 0,-1.4219 0.75,-2.2032 0.75,-0.7812 2.0157,-0.7812 1.0468,0 1.664,0.4453 0.6172,0.4453 0.8828,1.3672 z m 2.1563,0.0469 -1.375,-0.25 q 0.2343,-0.8125 0.7969,-1.211 0.5624,-0.3984 1.6718,-0.3984 1.0156,0 1.5078,0.2344 0.4922,0.2343 0.6954,0.6015 0.2031,0.3672 0.2031,1.3516 l -0.0157,1.7656 q 0,0.75 0.0704,1.1094 0.0703,0.3594 0.2734,0.7656 l -1.5,0 q -0.0625,-0.1562 -0.1406,-0.4531 -0.0313,-0.125 -0.0469,-0.1719 -0.3906,0.375 -0.8359,0.5625 -0.4454,0.1875 -0.9454,0.1875 -0.875,0 -1.3828,-0.4766 -0.5078,-0.4765 -0.5078,-1.2109 0,-0.4844 0.2344,-0.8594 0.2344,-0.375 0.6484,-0.5781 0.4141,-0.2031 1.1954,-0.3594 1.0624,-0.1875 1.4687,-0.3593 l 0,-0.1563 q 0,-0.4375 -0.2187,-0.6172 -0.2188,-0.1797 -0.8126,-0.1797 -0.3906,0 -0.6171,0.1563 -0.2266,0.1562 -0.3672,0.5469 z m 2.0156,1.2343 q -0.2969,0.0938 -0.9219,0.2266 -0.625,0.1328 -0.8125,0.2578 -0.2969,0.2188 -0.2969,0.5313 0,0.3281 0.2344,0.5546 0.2344,0.2266 0.5938,0.2266 0.4062,0 0.7812,-0.2656 0.2813,-0.2031 0.3594,-0.5 0.0625,-0.1875 0.0625,-0.7344 l 0,-0.2969 z m 2.8125,-2.9687 1.4062,0 0,0.8437 q 0.2657,-0.4375 0.7344,-0.7031 0.4688,-0.2656 1.0469,-0.2656 0.9844,0 1.6797,0.7734 0.6953,0.7735 0.6953,2.1641 0,1.4375 -0.6953,2.2265 -0.6953,0.7891 -1.6953,0.7891 -0.4688,0 -0.8516,-0.1875 -0.3828,-0.1875 -0.8203,-0.6406 l 0,2.875 -1.5,0 0,-7.875 z m 1.4844,2.75 q 0,0.9687 0.3828,1.4297 0.3828,0.4609 0.9297,0.4609 0.5312,0 0.8828,-0.4219 0.3515,-0.4218 0.3515,-1.3906 0,-0.8906 -0.3593,-1.3281 -0.3594,-0.4375 -0.8907,-0.4375 -0.5624,0 -0.9296,0.4297 -0.3672,0.4297 -0.3672,1.2578 z m 5.0312,1.3281 1.5,-0.2344 q 0.1094,0.4375 0.3985,0.6641 0.289,0.2266 0.8203,0.2266 0.5937,0 0.8906,-0.2032 0.2031,-0.1562 0.2031,-0.4062 0,-0.1719 -0.1093,-0.2813 -0.125,-0.1093 -0.5157,-0.2031 -1.8125,-0.4062 -2.3125,-0.7344 -0.6718,-0.4687 -0.6718,-1.2812 0,-0.75 0.5859,-1.25 0.5859,-0.5 1.8203,-0.5 1.1719,0 1.7344,0.375 0.5625,0.375 0.7812,1.125 l -1.4218,0.2656 q -0.0938,-0.3281 -0.3438,-0.5078 -0.25,-0.1797 -0.7344,-0.1797 -0.5937,0 -0.8437,0.1719 -0.1719,0.1094 -0.1719,0.2969 0,0.1718 0.1406,0.2812 0.2032,0.1563 1.4141,0.4297 1.2109,0.2734 1.6797,0.6641 0.4844,0.4062 0.4844,1.125 0,0.7812 -0.6563,1.3437 -0.6563,0.5625 -1.9531,0.5625 -1.1563,0 -1.836,-0.4687 -0.6796,-0.4688 -0.8828,-1.2813 z m 11.2813,1.625 0,-0.8594 q -0.3125,0.4688 -0.8203,0.7266 -0.5078,0.2578 -1.0704,0.2578 -0.5781,0 -1.0312,-0.25 -0.4531,-0.25 -0.6641,-0.7109 -0.2109,-0.461 -0.2109,-1.2578 l 0,-3.6094 1.5156,0 0,2.625 q 0,1.2031 0.086,1.4687 0.0859,0.2657 0.3046,0.4297 0.2188,0.1641 0.5626,0.1641 0.375,0 0.6874,-0.211 0.3126,-0.2109 0.4219,-0.5312 0.1094,-0.3203 0.1094,-1.5391 l 0,-2.4062 1.5156,0 0,5.7031 -1.4062,0 z m 3.25,0 0,-7.875 1.5,0 0,7.875 -1.5,0 z m 6.2969,-1.8125 1.5,0.25 q -0.2813,0.8281 -0.9063,1.2578 -0.625,0.4297 -1.5781,0.4297 -1.4844,0 -2.2032,-0.9687 -0.5624,-0.7813 -0.5624,-1.9688 0,-1.4219 0.7421,-2.2187 0.7422,-0.7969 1.8829,-0.7969 1.2656,0 2,0.8359 0.7343,0.836 0.7031,2.5703 l -3.7813,0 q 0.0156,0.6719 0.3672,1.0469 0.3516,0.375 0.8672,0.375 0.3594,0 0.6016,-0.1953 0.2422,-0.1953 0.3672,-0.6172 z m 0.0781,-1.5312 q -0.0157,-0.6563 -0.336,-0.9922 -0.3203,-0.336 -0.7734,-0.336 -0.5,0 -0.8281,0.3594 -0.3125,0.3594 -0.3125,0.9688 l 2.25,0 z m 7.375,3.3437 0,-0.8594 q -0.3125,0.4688 -0.8203,0.7266 -0.5078,0.2578 -1.0704,0.2578 -0.5781,0 -1.0312,-0.25 -0.4531,-0.25 -0.6641,-0.7109 -0.2109,-0.461 -0.2109,-1.2578 l 0,-3.6094 1.5156,0 0,2.625 q 0,1.2031 0.086,1.4687 0.0859,0.2657 0.3046,0.4297 0.2188,0.1641 0.5626,0.1641 0.375,0 0.6874,-0.211 0.3126,-0.2109 0.4219,-0.5312 0.1094,-0.3203 0.1094,-1.5391 l 0,-2.4062 1.5156,0 0,5.7031 -1.4062,0 z m 2.7187,-1.625 1.5,-0.2344 q 0.1094,0.4375 0.3985,0.6641 0.289,0.2266 0.8203,0.2266 0.5937,0 0.8906,-0.2032 0.2031,-0.1562 0.2031,-0.4062 0,-0.1719 -0.1093,-0.2813 -0.125,-0.1093 -0.5157,-0.2031 -1.8125,-0.4062 -2.3125,-0.7344 -0.6718,-0.4687 -0.6718,-1.2812 0,-0.75 0.5859,-1.25 0.5859,-0.5 1.8203,-0.5 1.1719,0 1.7344,0.375 0.5625,0.375 0.7812,1.125 l -1.4218,0.2656 q -0.0938,-0.3281 -0.3438,-0.5078 -0.25,-0.1797 -0.7344,-0.1797 -0.5937,0 -0.8437,0.1719 -0.1719,0.1094 -0.1719,0.2969 0,0.1718 0.1406,0.2812 0.2032,0.1563 1.4141,0.4297 1.2109,0.2734 1.6797,0.6641 0.4844,0.4062 0.4844,1.125 0,0.7812 -0.6563,1.3437 -0.6563,0.5625 -1.9531,0.5625 -1.1563,0 -1.836,-0.4687 -0.6796,-0.4688 -0.8828,-1.2813 z m 10.8282,-0.1875 1.5,0.25 q -0.2813,0.8281 -0.9063,1.2578 -0.625,0.4297 -1.5781,0.4297 -1.4844,0 -2.2032,-0.9687 -0.5624,-0.7813 -0.5624,-1.9688 0,-1.4219 0.7421,-2.2187 0.7422,-0.7969 1.8829,-0.7969 1.2656,0 2,0.8359 0.7343,0.836 0.7031,2.5703 l -3.7813,0 q 0.0156,0.6719 0.3672,1.0469 0.3516,0.375 0.8672,0.375 0.3594,0 0.6016,-0.1953 0.2422,-0.1953 0.3672,-0.6172 z m 0.0781,-1.5312 q -0.0157,-0.6563 -0.336,-0.9922 -0.3203,-0.336 -0.7734,-0.336 -0.5,0 -0.8281,0.3594 -0.3125,0.3594 -0.3125,0.9688 l 2.25,0 z m 11.8437,3.3437 -1.3906,0 0,-0.8437 q -0.3594,0.5 -0.8359,0.7343 -0.4766,0.2344 -0.9453,0.2344 -0.9844,0 -1.6876,-0.7891 -0.7031,-0.789 -0.7031,-2.2109 0,-1.4531 0.6797,-2.2031 0.6797,-0.75 1.7266,-0.75 0.9531,0 1.6562,0.7969 l 0,-2.8438 1.5,0 0,7.875 z M 344,88.5291 q 0,0.9062 0.25,1.3125 0.3594,0.5937 1.0156,0.5937 0.5156,0 0.8828,-0.4453 0.3672,-0.4453 0.3672,-1.3203 0,-0.9844 -0.3515,-1.4141 -0.3516,-0.4297 -0.9141,-0.4297 -0.5312,0 -0.8906,0.4219 Q 344,87.6697 344,88.5291 z m 9.0938,1.1562 1.5,0.25 q -0.2813,0.8281 -0.9063,1.2578 -0.625,0.4297 -1.5781,0.4297 -1.4844,0 -2.2032,-0.9687 -0.5624,-0.7813 -0.5624,-1.9688 0,-1.4219 0.7421,-2.2187 0.7422,-0.7969 1.8829,-0.7969 1.2656,0 2,0.8359 0.7343,0.836 0.7031,2.5703 l -3.7813,0 q 0.0156,0.6719 0.3672,1.0469 0.3516,0.375 0.8672,0.375 0.3594,0 0.6016,-0.1953 0.2422,-0.1953 0.3672,-0.6172 z m 0.0781,-1.5312 q -0.0157,-0.6563 -0.336,-0.9922 -0.3203,-0.336 -0.7734,-0.336 -0.5,0 -0.8281,0.3594 -0.3125,0.3594 -0.3125,0.9688 l 2.25,0 z m 6.5469,3.3437 0,-7.875 1.5156,0 0,2.8438 q 0.7031,-0.7969 1.6562,-0.7969 1.0469,0 1.7266,0.75 0.6797,0.75 0.6797,2.1719 0,1.4531 -0.6953,2.2421 -0.6954,0.7891 -1.6954,0.7891 -0.4843,0 -0.9609,-0.2422 -0.4765,-0.2422 -0.8203,-0.7265 l 0,0.8437 -1.4062,0 z m 1.5,-2.9687 q 0,0.875 0.2812,1.2968 0.3906,0.6094 1.0469,0.6094 0.5,0 0.8515,-0.4297 0.3516,-0.4297 0.3516,-1.3515 0,-0.9688 -0.3516,-1.3985 -0.3515,-0.4297 -0.914,-0.4297 -0.5469,0 -0.9063,0.4219 -0.3593,0.4219 -0.3593,1.2813 z m 5.2187,0.0312 q 0,-0.75 0.375,-1.4531 0.375,-0.7031 1.0547,-1.0703 0.6797,-0.3672 1.5078,-0.3672 1.2969,0 2.125,0.8359 0.8281,0.836 0.8281,2.1172 0,1.2969 -0.8359,2.1484 -0.836,0.8516 -2.1016,0.8516 -0.7812,0 -1.4922,-0.3516 -0.7109,-0.3515 -1.0859,-1.039 -0.375,-0.6875 -0.375,-1.6719 z m 1.5469,0.0781 q 0,0.8594 0.4062,1.3125 0.4063,0.4532 1,0.4532 0.5782,0 0.9844,-0.4532 0.4062,-0.4531 0.4062,-1.3125 0,-0.8437 -0.4062,-1.2968 -0.4062,-0.4532 -0.9844,-0.4532 -0.5937,0 -1,0.4532 -0.4062,0.4531 -0.4062,1.2968 z m 10.7812,-1.1562 -1.4844,0.2656 q -0.0781,-0.4375 -0.3437,-0.6641 -0.2656,-0.2265 -0.6875,-0.2265 -0.5625,0 -0.8984,0.3828 -0.336,0.3828 -0.336,1.3047 0,1.0156 0.336,1.4375 0.3359,0.4219 0.914,0.4219 0.4375,0 0.711,-0.25 0.2734,-0.25 0.3828,-0.8438 l 1.4844,0.25 q -0.2344,1.0313 -0.8907,1.5469 -0.6562,0.5156 -1.75,0.5156 -1.2656,0 -2.0078,-0.7891 -0.7422,-0.789 -0.7422,-2.1796 0,-1.4219 0.75,-2.2032 0.75,-0.7812 2.0157,-0.7812 1.0468,0 1.664,0.4453 0.6172,0.4453 0.8828,1.3672 z m 2.1563,0.0469 -1.375,-0.25 q 0.2343,-0.8125 0.7969,-1.211 0.5624,-0.3984 1.6718,-0.3984 1.0156,0 1.5078,0.2344 0.4922,0.2343 0.6954,0.6015 0.2031,0.3672 0.2031,1.3516 l -0.0157,1.7656 q 0,0.75 0.0704,1.1094 0.0703,0.3594 0.2734,0.7656 l -1.5,0 q -0.0625,-0.1562 -0.1406,-0.4531 -0.0313,-0.125 -0.0469,-0.1719 -0.3906,0.375 -0.8359,0.5625 -0.4454,0.1875 -0.9454,0.1875 -0.875,0 -1.3828,-0.4766 -0.5078,-0.4765 -0.5078,-1.2109 0,-0.4844 0.2344,-0.8594 0.2344,-0.375 0.6484,-0.5781 0.4141,-0.2031 1.1954,-0.3594 1.0624,-0.1875 1.4687,-0.3593 l 0,-0.1563 q 0,-0.4375 -0.2187,-0.6172 -0.2188,-0.1797 -0.8126,-0.1797 -0.3906,0 -0.6171,0.1563 -0.2266,0.1562 -0.3672,0.5469 z m 2.0156,1.2343 q -0.2969,0.0938 -0.9219,0.2266 -0.625,0.1328 -0.8125,0.2578 -0.2969,0.2188 -0.2969,0.5313 0,0.3281 0.2344,0.5546 0.2344,0.2266 0.5938,0.2266 0.4062,0 0.7812,-0.2656 0.2813,-0.2031 0.3594,-0.5 0.0625,-0.1875 0.0625,-0.7344 l 0,-0.2969 z m 6.6094,2.7344 0,-0.8594 q -0.3125,0.4688 -0.8203,0.7266 -0.5078,0.2578 -1.0704,0.2578 -0.5781,0 -1.0312,-0.25 -0.4531,-0.25 -0.6641,-0.7109 -0.2109,-0.461 -0.2109,-1.2578 l 0,-3.6094 1.5156,0 0,2.625 q 0,1.2031 0.086,1.4687 0.0859,0.2657 0.3046,0.4297 0.2188,0.1641 0.5626,0.1641 0.375,0 0.6874,-0.211 0.3126,-0.2109 0.4219,-0.5312 0.1094,-0.3203 0.1094,-1.5391 l 0,-2.4062 1.5156,0 0,5.7031 -1.4062,0 z m 2.5156,0 2.0625,-2.9375 -1.9688,-2.7656 1.8438,0 1,1.5625 1.0625,-1.5625 1.7813,0 -1.9376,2.7031 2.1094,3 -1.8594,0 -1.1562,-1.7656 -1.1719,1.7656 -1.7656,0 z" />
    <line
       style="fill:none;stroke:#b2b2b2"
       id="line4616"
       y2="110"
       y1="100"
       x2="107"
       x1="107"
       clip-path="url(#clipPath1)" />
    <line
       style="fill:none;stroke:#b2b2b2"
       id="line4618"
       y2="105"
       y1="105"
       x2="120"
       x1="94"
       clip-path="url(#clipPath1)" />
    <line
       style="fill:none;stroke:#b2b2b2"
       id="line4620"
       y2="110"
       y1="119"
       x2="107"
       x1="94"
       clip-path="url(#clipPath1)" />
    <line
       style="fill:none;stroke:#b2b2b2"
       id="line4622"
       y2="110"
       y1="119"
       x2="107"
       x1="120"
       clip-path="url(#clipPath1)" />
    <line
       style="fill:none;stroke:#b2b2b2"
       id="line4624"
       y2="111"
       y1="100"
       x2="108"
       x1="108"
       clip-path="url(#clipPath1)" />
    <line
       style="fill:none;stroke:#b2b2b2"
       id="line4626"
       y2="106"
       y1="106"
       x2="121"
       x1="95"
       clip-path="url(#clipPath1)" />
    <line
       style="fill:none;stroke:#b2b2b2"
       id="line4628"
       y2="111"
       y1="120"
       x2="108"
       x1="95"
       clip-path="url(#clipPath1)" />
    <line
       style="fill:none;stroke:#b2b2b2"
       id="line4630"
       y2="111"
       y1="120"
       x2="108"
       x1="121"
       clip-path="url(#clipPath1)" />
    <circle
       style="fill:#b2b2b2;stroke:none"
       sodipodi:ry="4.5"
       sodipodi:rx="4.5"
       sodipodi:cy="97.5"
       sodipodi:cx="108.5"
       id="circle4632"
       cy="97.5"
       cx="108.5"
       clip-path="url(#clipPath1)"
       r="4.5"
       d="m 113,97.5 c 0,2.485281 -2.01472,4.5 -4.5,4.5 -2.48528,0 -4.5,-2.014719 -4.5,-4.5 0,-2.485281 2.01472,-4.5 4.5,-4.5 2.48528,0 4.5,2.014719 4.5,4.5 z" />
    <circle
       sodipodi:ry="4.5"
       sodipodi:rx="4.5"
       sodipodi:cy="95.5"
       sodipodi:cx="106.5"
       style="fill:url(#linearGradient4709);stroke:none"
       id="circle4634"
       cy="95.5"
       cx="106.5"
       clip-path="url(#clipPath1)"
       r="4.5"
       d="m 111,95.5 c 0,2.485281 -2.01472,4.5 -4.5,4.5 -2.48528,0 -4.5,-2.014719 -4.5,-4.5 0,-2.485281 2.01472,-4.5 4.5,-4.5 2.48528,0 4.5,2.014719 4.5,4.5 z" />
    <circle
       style="fill:none;stroke:#666647"
       sodipodi:ry="4.5"
       sodipodi:rx="4.5"
       sodipodi:cy="95.5"
       sodipodi:cx="106.5"
       id="circle4636"
       cy="95.5"
       cx="106.5"
       clip-path="url(#clipPath1)"
       r="4.5"
       d="m 111,95.5 c 0,2.485281 -2.01472,4.5 -4.5,4.5 -2.48528,0 -4.5,-2.014719 -4.5,-4.5 0,-2.485281 2.01472,-4.5 4.5,-4.5 2.48528,0 4.5,2.014719 4.5,4.5 z" />
    <line
       style="fill:none;stroke:#666647"
       id="line4638"
       y2="109"
       y1="100"
       x2="106"
       x1="106"
       clip-path="url(#clipPath1)" />
    <line
       style="fill:none;stroke:#666647"
       id="line4640"
       y2="104"
       y1="104"
       x2="119"
       x1="93"
       clip-path="url(#clipPath1)" />
    <line
       style="fill:none;stroke:#666647"
       id="line4642"
       y2="109"
       y1="118"
       x2="106"
       x1="93"
       clip-path="url(#clipPath1)" />
    <line
       style="fill:none;stroke:#666647"
       id="line4644"
       y2="109"
       y1="118"
       x2="106"
       x1="119"
       clip-path="url(#clipPath1)" />
    <path
       style="fill:none"
       inkscape:connector-curvature="0"
       id="path4646"
       clip-path="url(#clipPath1)"
       d="m 231,112 -111,0" />
  </g>
</svg>
