<svg id="Calque_1" data-name="Calque 1" xmlns="http://www.w3.org/2000/svg" xmlns:xlink="http://www.w3.org/1999/xlink" viewBox="0 0 1940 1245.766">
  <defs>
    <clipPath id="clip-path">
      <rect x="-8.542" y="6.94" width="1940.12" height="1264.248" style="fill: none"/>
    </clipPath>
  </defs>
  <line x1="96.655" y1="887.561" x2="1908.711" y2="887.561" style="fill: none;stroke: #cfd0d0;stroke-linejoin: round;stroke-width: 2.4000000953674316px;stroke-dasharray: 15.97599983215332,7.97599983215332"/>
  <line x1="81.788" y1="887.561" x2="95.396" y2="887.561" style="fill: none;stroke: #181716;stroke-linejoin: round;stroke-width: 2.4000000953674316px"/>
  <line x1="96.655" y1="790.46" x2="1908.711" y2="790.46" style="fill: none;stroke: #cfd0d0;stroke-linejoin: round;stroke-width: 2.4000000953674316px;stroke-dasharray: 15.97599983215332,7.97599983215332"/>
  <line x1="81.788" y1="790.46" x2="95.396" y2="790.46" style="fill: none;stroke: #181716;stroke-linejoin: round;stroke-width: 2.4000000953674316px"/>
  <line x1="96.655" y1="693.359" x2="1908.711" y2="693.359" style="fill: none;stroke: #cfd0d0;stroke-linejoin: round;stroke-width: 2.4000000953674316px;stroke-dasharray: 15.97599983215332,7.97599983215332"/>
  <line x1="81.788" y1="693.359" x2="95.396" y2="693.359" style="fill: none;stroke: #181716;stroke-linejoin: round;stroke-width: 2.4000000953674316px"/>
  <line x1="96.655" y1="596.257" x2="1908.711" y2="596.257" style="fill: none;stroke: #cfd0d0;stroke-linejoin: round;stroke-width: 2.4000000953674316px;stroke-dasharray: 15.97599983215332,7.97599983215332"/>
  <line x1="81.788" y1="596.257" x2="95.396" y2="596.257" style="fill: none;stroke: #181716;stroke-linejoin: round;stroke-width: 2.4000000953674316px"/>
  <line x1="96.655" y1="499.156" x2="1908.711" y2="499.156" style="fill: none;stroke: #cfd0d0;stroke-linejoin: round;stroke-width: 2.4000000953674316px;stroke-dasharray: 15.97599983215332,7.97599983215332"/>
  <line x1="81.788" y1="499.156" x2="95.396" y2="499.156" style="fill: none;stroke: #181716;stroke-linejoin: round;stroke-width: 2.4000000953674316px"/>
  <line x1="96.655" y1="402.055" x2="1908.711" y2="402.055" style="fill: none;stroke: #cfd0d0;stroke-linejoin: round;stroke-width: 2.4000000953674316px;stroke-dasharray: 15.97599983215332,7.97599983215332"/>
  <line x1="81.788" y1="402.055" x2="95.396" y2="402.055" style="fill: none;stroke: #181716;stroke-linejoin: round;stroke-width: 2.4000000953674316px"/>
  <line x1="96.655" y1="304.953" x2="1908.711" y2="304.953" style="fill: none;stroke: #cfd0d0;stroke-linejoin: round;stroke-width: 2.4000000953674316px;stroke-dasharray: 15.97599983215332,7.97599983215332"/>
  <line x1="81.788" y1="304.953" x2="95.396" y2="304.953" style="fill: none;stroke: #181716;stroke-linejoin: round;stroke-width: 2.4000000953674316px"/>
  <line x1="96.655" y1="110.751" x2="1908.711" y2="110.751" style="fill: none;stroke: #cfd0d0;stroke-linejoin: round;stroke-width: 2.4000000953674316px;stroke-dasharray: 15.97599983215332,7.97599983215332"/>
  <line x1="81.788" y1="110.751" x2="95.396" y2="110.751" style="fill: none;stroke: #181716;stroke-linejoin: round;stroke-width: 2.4000000953674316px"/>
  <line x1="96.655" y1="207.852" x2="1908.711" y2="207.852" style="fill: none;stroke: #cfd0d0;stroke-linejoin: round;stroke-width: 2.4000000953674316px;stroke-dasharray: 15.97599983215332,7.97599983215332"/>
  <line x1="81.788" y1="207.852" x2="95.396" y2="207.852" style="fill: none;stroke: #181716;stroke-linejoin: round;stroke-width: 2.4000000953674316px"/>
  <g>
    <path d="M35.871,95.012c6.2,0,8.6,3.639,8.6,7.239a6.565,6.565,0,0,1-3.92,5.879c3.4,1.079,5.04,3.559,5.04,7.078,0,5.48-4.16,8.639-9.4,8.639-5.439,0-9.638-2.839-9.638-8.639a7.156,7.156,0,0,1,4.959-7.078,6.408,6.408,0,0,1-3.959-5.879C27.553,97.571,31.512,95.012,35.871,95.012Zm.32,25.836a5.478,5.478,0,0,0,5.8-5.519,5.584,5.584,0,0,0-5.839-5.4c-3.359,0-6,2.159-6,5.439C30.152,118.768,32.672,120.848,36.191,120.848Zm0-13.918a4.356,4.356,0,0,0,4.68-4.559c0-2.84-2-4.36-4.76-4.36-2.719,0-4.959,1.52-4.959,4.36C31.152,105.49,33.392,106.93,36.191,106.93Z" style="fill: #181716"/>
    <path d="M57.911,95.012c8.879,0,9.439,8.158,9.439,14.438,0,6.238-.56,14.4-9.439,14.4s-9.438-8.159-9.438-14.4C48.473,103.17,49.033,95.012,57.911,95.012Zm0,25.836c5.8,0,5.839-7.2,5.839-11.438,0-4.2-.04-11.4-5.839-11.4s-5.839,7.2-5.839,11.4C52.072,113.649,52.112,120.848,57.911,120.848Z" style="fill: #181716"/>
  </g>
  <g>
    <path d="M45.31,195.771c-5.719,5.679-10.358,16.077-10.878,24.956h-3.8c.64-9.6,5.239-18.357,11.2-24.676H26.953v-3.2H45.31Z" style="fill: #181716"/>
    <path d="M57.911,192.371c8.879,0,9.439,8.159,9.439,14.438,0,6.239-.56,14.4-9.439,14.4s-9.438-8.159-9.438-14.4C48.473,200.53,49.033,192.371,57.911,192.371Zm0,25.836c5.8,0,5.839-7.2,5.839-11.438,0-4.2-.04-11.4-5.839-11.4s-5.839,7.2-5.839,11.4C52.072,211.008,52.112,218.207,57.911,218.207Z" style="fill: #181716"/>
  </g>
  <g>
    <path d="M41.51,296.97a4.542,4.542,0,0,0-4.759-4.24c-5.8,0-6.719,6.4-6.879,10.758l.08.08a7.692,7.692,0,0,1,7.079-3.719c5.439,0,8.678,3.959,8.678,9.2,0,4.12-2.319,9.519-9.478,9.519-8.4,0-9.758-7.679-9.758-13.638,0-7.8,2.36-15.2,10.438-15.2,4.679,0,7.6,2.64,8,7.24Zm-11,12.278c0,3.519,2.16,6.318,5.879,6.318,3.68,0,5.719-2.919,5.719-6.278,0-3.52-1.839-6.439-5.719-6.439C32.592,302.849,30.512,305.688,30.512,309.248Z" style="fill: #181716"/>
    <path d="M57.911,289.73c8.879,0,9.439,8.159,9.439,14.438,0,6.239-.56,14.4-9.439,14.4s-9.438-8.159-9.438-14.4C48.473,297.889,49.033,289.73,57.911,289.73Zm0,25.836c5.8,0,5.839-7.2,5.839-11.438,0-4.2-.04-11.4-5.839-11.4s-5.839,7.2-5.839,11.4C52.072,308.368,52.112,315.566,57.911,315.566Z" style="fill: #181716"/>
  </g>
  <g>
    <path d="M43.75,390.569H32.312l-1.52,8.159.08.08a7.172,7.172,0,0,1,5.279-2.039c5.039,0,9.159,3.239,9.159,9.718,0,4.8-3.32,9.438-9.918,9.438-4.92,0-8.919-3-9.039-8.118h3.4c.2,2.919,2.56,5.119,5.959,5.119,3.24,0,6-2.2,6-6.719a6.141,6.141,0,0,0-6.4-6.439,6.809,6.809,0,0,0-5.28,2.679l-2.919-.159,2.639-14.718h14Z" style="fill: #181716"/>
    <path d="M57.911,387.09c8.879,0,9.439,8.159,9.439,14.438,0,6.239-.56,14.4-9.439,14.4s-9.438-8.158-9.438-14.4C48.473,395.249,49.033,387.09,57.911,387.09Zm0,25.836c5.8,0,5.839-7.2,5.839-11.438,0-4.2-.04-11.4-5.839-11.4s-5.839,7.2-5.839,11.4C52.072,405.727,52.112,412.926,57.911,412.926Z" style="fill: #181716"/>
  </g>
  <g>
    <path d="M41.71,503.174h3.84v3H41.71v6.638h-3.2v-6.638H26.073v-3.28l12.918-18.437H41.71Zm-3.2,0V489.3h-.08l-9.438,13.878Z" style="fill: #181716"/>
    <path d="M57.911,484.457c8.879,0,9.439,8.159,9.439,14.438,0,6.239-.56,14.4-9.439,14.4s-9.438-8.158-9.438-14.4C48.473,492.616,49.033,484.457,57.911,484.457Zm0,25.836c5.8,0,5.839-7.2,5.839-11.438,0-4.2-.04-11.4-5.839-11.4s-5.839,7.2-5.839,11.4C52.072,503.094,52.112,510.293,57.911,510.293Z" style="fill: #181716"/>
  </g>
  <g>
    <path d="M33.672,593.975c.519.04,1,.04,1.479.04,2.88,0,5.4-1.56,5.4-4.64,0-2.959-2.159-4.559-5.039-4.559-3.719,0-5.319,2.84-5.359,6.159h-3.4c.2-5.4,3.08-9.159,8.758-9.159,4.92,0,8.639,2.36,8.639,7.6a6.494,6.494,0,0,1-3.92,5.638v.08c3.44.76,5.12,3.48,5.12,6.879,0,5.679-4.439,8.639-9.759,8.639-5.758,0-9.558-3.4-9.438-9.238h3.4c.12,3.679,2.16,6.238,6.039,6.238,3.32,0,6.159-2.039,6.159-5.479,0-3.559-2.679-5.439-6.039-5.439a16.928,16.928,0,0,0-2.039.12Z" style="fill: #181716"/>
    <path d="M57.911,581.816c8.879,0,9.439,8.159,9.439,14.438,0,6.239-.56,14.4-9.439,14.4s-9.438-8.159-9.438-14.4C48.473,589.975,49.033,581.816,57.911,581.816Zm0,25.836c5.8,0,5.839-7.2,5.839-11.438,0-4.2-.04-11.4-5.839-11.4s-5.839,7.2-5.839,11.4C52.072,600.454,52.112,607.652,57.911,607.652Z" style="fill: #181716"/>
  </g>
  <g>
    <path d="M26.713,689.214c-.28-5.759,3.12-10.038,9.118-10.038,4.96,0,8.879,2.88,8.879,8.159,0,5-3.359,7.519-6.879,9.718-3.56,2.16-7.279,3.96-7.959,7.479H44.43v3H25.913c.56-6.719,3.959-9.118,7.959-11.6,4.8-2.96,7.238-4.72,7.238-8.639a5.166,5.166,0,0,0-5.479-5.119c-3.959,0-5.639,3.638-5.519,7.038Z" style="fill: #181716"/>
    <path d="M57.911,679.176c8.879,0,9.439,8.159,9.439,14.437,0,6.24-.56,14.4-9.439,14.4s-9.438-8.158-9.438-14.4C48.473,687.335,49.033,679.176,57.911,679.176Zm0,25.836c5.8,0,5.839-7.2,5.839-11.439,0-4.2-.04-11.4-5.839-11.4s-5.839,7.2-5.839,11.4C52.072,697.812,52.112,705.012,57.911,705.012Z" style="fill: #181716"/>
  </g>
  <g>
    <path d="M39.191,804.891h-3.4V784.574H28.433v-2.72c3.879,0,7.4-1.04,8.158-5.319h2.6Z" style="fill: #181716"/>
    <path d="M57.911,776.535c8.879,0,9.439,8.159,9.439,14.438,0,6.239-.56,14.4-9.439,14.4s-9.438-8.158-9.438-14.4C48.473,784.694,49.033,776.535,57.911,776.535Zm0,25.836c5.8,0,5.839-7.2,5.839-11.438,0-4.2-.04-11.4-5.839-11.4s-5.839,7.2-5.839,11.4C52.072,795.172,52.112,802.371,57.911,802.371Z" style="fill: #181716"/>
  </g>
  <path d="M57.872,873.9c8.878,0,9.439,8.159,9.439,14.437,0,6.239-.561,14.4-9.439,14.4s-9.438-8.158-9.438-14.4C48.434,882.054,48.994,873.9,57.872,873.9Zm0,25.835c5.8,0,5.839-7.2,5.839-11.438,0-4.2-.04-11.4-5.839-11.4s-5.839,7.2-5.839,11.4C52.033,892.531,52.073,899.73,57.872,899.73Z" style="fill: #181716"/>
  <path d="M7.273,986.892H18.831v3.2H7.273Z" style="fill: #181716"/>
  <g>
    <path d="M39.191,999.609h-3.4V979.293H28.433v-2.72c3.879,0,7.4-1.04,8.158-5.319h2.6Z" style="fill: #181716"/>
    <path d="M57.911,971.254c8.879,0,9.439,8.159,9.439,14.437,0,6.24-.56,14.4-9.439,14.4s-9.438-8.158-9.438-14.4C48.473,979.413,49.033,971.254,57.911,971.254Zm0,25.836c5.8,0,5.839-7.2,5.839-11.439,0-4.2-.04-11.4-5.839-11.4s-5.839,7.2-5.839,11.4C52.072,989.891,52.112,997.09,57.911,997.09Z" style="fill: #181716"/>
  </g>
  <g>
    <path d="M67.876,1081.913l-2.186,2.605-15.562-13.06L45.4,1077.1l-2.084-1.749c2.494-2.972,3.959-6.336,1.169-9.669l1.671-1.991Z" style="fill: #181716"/>
    <path d="M71.226,1067.282c2.268,1.59,4.9.877,6.65-1.207,2.674-3.185,1.2-7.088-4.281-11.945l-.113.01a7.434,7.434,0,0,1-1.214,7.544c-3.7,4.411-8.729,4.369-13.019.769-4.2-3.521-4.609-8.879-1.087-13.076,3.393-4.044,8.422-5.62,16.632,1.269,7.507,6.3,9.8,12.087,5.379,17.357-3.059,3.646-7.112,4.682-11.132,1.883Zm-10.869-15.854c-2.6,3.093-1.091,6.34,1.574,8.577a5.807,5.807,0,0,0,8.194-.434c2.288-2.726,1.522-6.293-1.051-8.452C66.408,1048.882,62.8,1048.517,60.357,1051.428Z" style="fill: #181716"/>
    <path d="M81.283,1027.111c.674,8.032,5.657,18.269,12.124,24.374l-2.442,2.911c-6.941-6.66-10.694-15.813-11.7-24.44l-9.563,11.4-2.451-2.057,11.8-14.063Z" style="fill: #181716"/>
    <path d="M87.035,1014.966c5.707-6.8,12.318-1.986,17.128,2.051,4.779,4.009,10.668,9.682,4.961,16.484s-12.316,1.986-17.095-2.024C87.219,1027.441,81.328,1021.768,87.035,1014.966Zm19.792,16.607c3.728-4.442-1.762-9.1-5.01-11.825-3.216-2.7-8.755-7.3-12.483-2.853s1.761,9.1,4.978,11.8C97.56,1031.419,103.1,1036.016,106.827,1031.573Z" style="fill: #181716"/>
  </g>
  <g>
    <path d="M140.5,1081.922l-2.185,2.6-15.563-13.059-4.731,5.637-2.084-1.748c2.494-2.971,3.959-6.336,1.17-9.669l1.671-1.992Z" style="fill: #181716"/>
    <path d="M143.852,1067.291c2.268,1.59,4.9.877,6.65-1.206,2.674-3.187,1.2-7.089-4.281-11.946l-.113.01a7.431,7.431,0,0,1-1.213,7.543c-3.7,4.412-8.73,4.37-13.02.771-4.2-3.522-4.609-8.88-1.087-13.077,3.394-4.044,8.422-5.619,16.633,1.269,7.506,6.3,9.8,12.088,5.379,17.358-3.059,3.645-7.113,4.681-11.133,1.882Zm-10.869-15.854c-2.6,3.094-1.092,6.34,1.573,8.577a5.809,5.809,0,0,0,8.195-.433c2.288-2.727,1.521-6.294-1.052-8.453C139.033,1048.892,135.425,1048.526,132.983,1051.437Z" style="fill: #181716"/>
    <path d="M153.908,1027.12c.675,8.031,5.658,18.269,12.126,24.374l-2.442,2.911c-6.943-6.66-10.7-15.813-11.705-24.439l-9.564,11.4-2.45-2.056,11.8-14.062Z" style="fill: #181716"/>
    <path d="M161.335,1028.6c-4.591-3.488-5.684-8.843-1.828-13.438,3.188-3.8,7.913-4.95,11.957-1.556,3.829,3.212,3.6,7.406,3.023,11.515-.633,4.115-1.645,8.121.614,10.9l9.357-11.151,2.3,1.928-11.9,14.184c-4.788-4.747-4.44-8.893-3.769-13.551.817-5.579,1.038-8.578-1.964-11.1a5.166,5.166,0,0,0-7.444.907c-2.545,3.032-.838,6.658,1.844,8.751Z" style="fill: #181716"/>
  </g>
  <g>
    <path d="M213.136,1081.934l-2.185,2.6-15.563-13.058-4.731,5.636-2.083-1.748c2.494-2.971,3.959-6.336,1.17-9.669l1.671-1.991Z" style="fill: #181716"/>
    <path d="M216.485,1067.3c2.269,1.591,4.9.877,6.652-1.206,2.674-3.187,1.2-7.088-4.282-11.946l-.112.01a7.434,7.434,0,0,1-1.215,7.544c-3.7,4.411-8.73,4.368-13.019.77-4.2-3.522-4.609-8.88-1.087-13.078,3.393-4.043,8.423-5.619,16.633,1.271,7.507,6.3,9.8,12.087,5.379,17.356-3.059,3.646-7.113,4.682-11.134,1.883Zm-10.868-15.854c-2.6,3.094-1.092,6.34,1.574,8.576a5.808,5.808,0,0,0,8.195-.432c2.288-2.727,1.52-6.293-1.053-8.453C211.668,1048.9,208.059,1048.537,205.617,1051.448Z" style="fill: #181716"/>
    <path d="M226.543,1027.132c.675,8.031,5.657,18.268,12.125,24.374l-2.442,2.91c-6.941-6.66-10.694-15.812-11.705-24.439l-9.563,11.4-2.451-2.056,11.8-14.062Z" style="fill: #181716"/>
    <path d="M250.258,1022.7l2.468-2.94,2.3,1.928-2.468,2.941,5.086,4.267-2.057,2.451-5.085-4.267-8,9.528-2.511-2.108-5.821-21.747,1.748-2.084Zm-2.056,2.451-10.63-8.919-.051.061,4.562,16.15Z" style="fill: #181716"/>
  </g>
  <g>
    <path d="M285.758,1081.93l-2.185,2.6-15.564-13.058-4.73,5.636-2.083-1.748c2.494-2.971,3.959-6.337,1.169-9.669l1.671-1.991Z" style="fill: #181716"/>
    <path d="M289.107,1067.3c2.269,1.59,4.9.877,6.652-1.206,2.673-3.187,1.2-7.089-4.281-11.946l-.114.01a7.429,7.429,0,0,1-1.214,7.543c-3.7,4.412-8.73,4.369-13.019.77-4.2-3.522-4.609-8.879-1.087-13.076,3.393-4.044,8.422-5.62,16.632,1.269,7.507,6.3,9.8,12.088,5.38,17.358-3.06,3.645-7.113,4.681-11.134,1.882Zm-10.868-15.855c-2.6,3.1-1.092,6.341,1.574,8.578a5.81,5.81,0,0,0,8.195-.433c2.288-2.727,1.521-6.294-1.053-8.453C284.29,1048.9,280.681,1048.533,278.239,1051.443Z" style="fill: #181716"/>
    <path d="M299.165,1027.127c.674,8.032,5.657,18.269,12.125,24.375l-2.442,2.91c-6.942-6.66-10.694-15.812-11.705-24.439l-9.563,11.4-2.451-2.057,11.8-14.062Z" style="fill: #181716"/>
    <path d="M313.959,1015.469a4.542,4.542,0,0,0-6.307.921c-3.727,4.442.584,9.259,3.82,12.184l.113-.01a7.692,7.692,0,0,1,1.7-7.814c3.5-4.166,8.612-4.1,12.626-.734,3.155,2.647,5.8,7.894,1.2,13.379-5.4,6.433-12.154,2.539-16.72-1.291-5.973-5.013-10.124-11.577-4.932-17.765,3.008-3.585,6.907-4.124,10.688-1.474Zm2.336,16.317c2.7,2.262,6.229,2.407,8.62-.442,2.365-2.819,1.439-6.258-1.134-8.417-2.7-2.263-6.115-2.73-8.609.242C312.729,1026.08,313.569,1029.5,316.3,1031.786Z" style="fill: #181716"/>
  </g>
  <g>
    <path d="M358.386,1081.936l-2.185,2.6-15.563-13.059-4.731,5.637-2.083-1.748c2.494-2.972,3.959-6.336,1.169-9.669l1.671-1.991Z" style="fill: #181716"/>
    <path d="M361.736,1067.3c2.269,1.59,4.9.877,6.651-1.206,2.673-3.187,1.2-7.088-4.282-11.946l-.113.01a7.429,7.429,0,0,1-1.214,7.543c-3.7,4.412-8.729,4.369-13.019.771-4.2-3.522-4.609-8.88-1.087-13.078,3.393-4.044,8.423-5.619,16.633,1.271,7.507,6.3,9.8,12.087,5.379,17.356-3.059,3.646-7.113,4.682-11.133,1.883Zm-10.868-15.854c-2.6,3.094-1.092,6.34,1.573,8.576a5.809,5.809,0,0,0,8.2-.432c2.288-2.727,1.521-6.294-1.052-8.453C356.918,1048.9,353.31,1048.539,350.868,1051.45Z" style="fill: #181716"/>
    <path d="M371.793,1027.133c.674,8.032,5.657,18.269,12.125,24.375l-2.442,2.91c-6.942-6.66-10.694-15.813-11.7-24.439l-9.563,11.4-2.451-2.056,11.8-14.062Z" style="fill: #181716"/>
    <path d="M377.417,1015.142c3.984-4.749,8.315-4.247,11.073-1.934a6.57,6.57,0,0,1,1.985,6.781c3.012-1.91,5.965-1.572,8.662.691,4.2,3.521,3.942,8.738.574,12.751-3.5,4.167-8.369,5.558-12.811,1.832a7.156,7.156,0,0,1-2.235-8.35,6.409,6.409,0,0,1-7.049-.746C374.031,1023.159,374.615,1018.48,377.417,1015.142Zm9.335,7.415a4.354,4.354,0,0,0-.484-6.515c-2.175-1.825-4.624-1.27-6.4.845-1.748,2.083-2.023,4.775.151,6.6C382.411,1025.492,384.953,1024.7,386.752,1022.557Zm10.663,8.946a5.479,5.479,0,0,0-.5-7.99,5.585,5.585,0,0,0-7.89,1c-2.159,2.573-2.2,5.983.311,8.09C391.939,1034.793,395.152,1034.2,397.415,1031.5Z" style="fill: #181716"/>
  </g>
  <g>
    <path d="M431.013,1081.95l-2.185,2.6-15.563-13.059-4.731,5.637-2.084-1.748c2.494-2.972,3.96-6.336,1.17-9.669l1.671-1.991Z" style="fill: #181716"/>
    <path d="M434.362,1067.318c2.269,1.59,4.9.877,6.651-1.206,2.673-3.186,1.2-7.088-4.282-11.945l-.112.01a7.43,7.43,0,0,1-1.214,7.543c-3.7,4.412-8.73,4.37-13.02.77-4.2-3.521-4.608-8.88-1.086-13.077,3.393-4.044,8.422-5.619,16.633,1.271,7.506,6.3,9.8,12.087,5.379,17.356-3.06,3.646-7.114,4.682-11.134,1.883Zm-10.868-15.854c-2.6,3.1-1.092,6.341,1.573,8.577a5.809,5.809,0,0,0,8.195-.433c2.288-2.726,1.521-6.294-1.052-8.453C429.545,1048.919,425.936,1048.554,423.494,1051.464Z" style="fill: #181716"/>
    <path d="M435.749,1032.192c3.984-4.748,8.314-4.247,11.071-1.933a6.565,6.565,0,0,1,1.985,6.781c3.012-1.909,5.966-1.571,8.662.69,4.2,3.522,3.944,8.739.576,12.752-3.5,4.166-8.37,5.559-12.813,1.831a7.158,7.158,0,0,1-2.235-8.349,6.409,6.409,0,0,1-7.049-.745C432.362,1040.211,432.946,1035.532,435.749,1032.192Zm9.335,7.416a4.354,4.354,0,0,0-.484-6.514c-2.176-1.825-4.625-1.271-6.4.844-1.748,2.083-2.024,4.775.152,6.6C440.741,1042.543,443.285,1041.753,445.084,1039.608Zm10.661,8.947a5.48,5.48,0,0,0-.5-7.991,5.587,5.587,0,0,0-7.889,1c-2.159,2.574-2.2,5.984.31,8.092C450.271,1051.844,453.483,1051.251,455.745,1048.555Z" style="fill: #181716"/>
    <path d="M450.172,1015c5.707-6.8,12.317-1.985,17.127,2.05,4.779,4.01,10.669,9.683,4.962,16.484s-12.317,1.987-17.1-2.023C450.355,1027.478,444.465,1021.805,450.172,1015Zm19.791,16.606c3.728-4.441-1.761-9.1-5.008-11.825-3.217-2.7-8.757-7.295-12.485-2.852s1.761,9.1,4.978,11.8C460.7,1031.455,466.236,1036.053,469.963,1031.609Z" style="fill: #181716"/>
  </g>
  <g>
    <path d="M1135.234,1079.728c-4.591-3.488-5.684-8.842-1.829-13.438,3.189-3.8,7.913-4.95,11.958-1.557,3.829,3.213,3.6,7.407,3.024,11.517-.634,4.114-1.646,8.121.613,10.9l9.357-11.152,2.3,1.928-11.9,14.184c-4.786-4.747-4.44-8.893-3.769-13.551.818-5.579,1.038-8.579-1.964-11.1a5.166,5.166,0,0,0-7.443.906c-2.545,3.033-.838,6.659,1.844,8.753Z" style="fill: #181716"/>
    <path d="M1147.855,1049.069c5.707-6.8,12.318-1.985,17.127,2.05,4.78,4.012,10.669,9.684,4.962,16.485s-12.316,1.987-17.1-2.024C1148.039,1061.545,1142.148,1055.871,1147.855,1049.069Zm19.792,16.608c3.728-4.443-1.761-9.1-5.009-11.826-3.217-2.7-8.756-7.3-12.484-2.853s1.76,9.1,4.977,11.8C1158.379,1065.522,1163.92,1070.119,1167.647,1065.677Z" style="fill: #181716"/>
    <path d="M1162.15,1032.033c5.707-6.8,12.319-1.986,17.128,2.05,4.78,4.011,10.668,9.683,4.961,16.484s-12.315,1.987-17.094-2.024C1162.335,1044.508,1156.443,1038.834,1162.15,1032.033Zm19.792,16.607c3.728-4.443-1.76-9.1-5.008-11.826-3.217-2.7-8.757-7.3-12.485-2.853s1.761,9.1,4.978,11.8C1172.675,1048.485,1178.215,1053.082,1181.942,1048.64Z" style="fill: #181716"/>
    <path d="M1176.446,1015c5.707-6.8,12.318-1.985,17.127,2.05,4.78,4.011,10.669,9.683,4.962,16.485s-12.316,1.987-17.1-2.024C1176.63,1027.471,1170.739,1021.8,1176.446,1015Zm19.792,16.608c3.728-4.443-1.761-9.1-5.009-11.827-3.217-2.7-8.756-7.3-12.484-2.852s1.761,9.1,4.978,11.8C1186.971,1031.448,1192.511,1036.045,1196.238,1031.6Z" style="fill: #181716"/>
  </g>
  <g>
    <path d="M503.648,1081.947l-2.185,2.605-15.563-13.06-4.73,5.638-2.083-1.749c2.494-2.972,3.959-6.336,1.169-9.669l1.671-1.991Z" style="fill: #181716"/>
    <path d="M507,1067.316c2.268,1.59,4.9.877,6.65-1.207,2.674-3.185,1.2-7.088-4.28-11.945l-.113.01a7.434,7.434,0,0,1-1.214,7.543c-3.7,4.412-8.73,4.37-13.02.77-4.2-3.521-4.608-8.879-1.086-13.076,3.393-4.044,8.422-5.62,16.632,1.27,7.506,6.3,9.8,12.087,5.379,17.356-3.059,3.646-7.113,4.682-11.134,1.883Zm-10.869-15.854c-2.6,3.094-1.091,6.34,1.575,8.577a5.806,5.806,0,0,0,8.193-.434c2.289-2.726,1.522-6.293-1.051-8.452C502.181,1048.916,498.572,1048.551,496.129,1051.462Z" style="fill: #181716"/>
    <path d="M508.384,1032.19c3.985-4.749,8.315-4.248,11.073-1.933a6.563,6.563,0,0,1,1.983,6.781c3.013-1.91,5.966-1.572,8.663.69,4.2,3.521,3.943,8.739.576,12.751-3.5,4.167-8.37,5.559-12.813,1.832a7.157,7.157,0,0,1-2.235-8.349,6.409,6.409,0,0,1-7.048-.746C505,1040.207,505.582,1035.529,508.384,1032.19Zm9.336,7.415a4.355,4.355,0,0,0-.485-6.514c-2.175-1.825-4.625-1.271-6.4.844-1.748,2.083-2.024,4.775.152,6.6C513.378,1042.541,515.92,1041.75,517.72,1039.605Zm10.661,8.947a5.478,5.478,0,0,0-.5-7.99,5.584,5.584,0,0,0-7.889,1c-2.159,2.574-2.2,5.984.31,8.092C522.906,1051.841,526.119,1051.248,528.381,1048.552Z" style="fill: #181716"/>
    <path d="M524.482,1028.621c-4.591-3.486-5.684-8.842-1.828-13.437,3.187-3.8,7.913-4.951,11.957-1.557,3.83,3.214,3.6,7.406,3.022,11.517-.632,4.114-1.644,8.121.614,10.9L547.6,1024.9l2.3,1.928L538,1041.009c-4.788-4.748-4.44-8.895-3.769-13.552.817-5.579,1.038-8.579-1.964-11.1a5.167,5.167,0,0,0-7.444.908c-2.545,3.033-.837,6.658,1.844,8.752Z" style="fill: #181716"/>
  </g>
  <g>
    <path d="M1207.854,1079.731c-4.591-3.486-5.684-8.841-1.828-13.436,3.188-3.8,7.913-4.951,11.957-1.558,3.829,3.214,3.6,7.407,3.023,11.517-.634,4.115-1.646,8.121.614,10.9l9.358-11.152,2.3,1.928-11.9,14.184c-4.787-4.747-4.439-8.893-3.768-13.551.817-5.579,1.038-8.579-1.965-11.1a5.165,5.165,0,0,0-7.444.906c-2.545,3.033-.837,6.658,1.845,8.752Z" style="fill: #181716"/>
    <path d="M1220.476,1049.074c5.707-6.8,12.317-1.986,17.127,2.05,4.779,4.011,10.668,9.684,4.961,16.484s-12.316,1.987-17.1-2.024C1220.659,1061.549,1214.769,1055.875,1220.476,1049.074Zm19.791,16.607c3.727-4.443-1.761-9.1-5.009-11.826-3.217-2.7-8.757-7.3-12.485-2.853s1.761,9.1,4.978,11.8C1231,1065.526,1236.539,1070.123,1240.267,1065.681Z" style="fill: #181716"/>
    <path d="M1234.771,1032.037c5.708-6.8,12.317-1.986,17.126,2.05,4.78,4.011,10.67,9.684,4.963,16.485s-12.317,1.987-17.1-2.025C1234.954,1044.512,1229.064,1038.839,1234.771,1032.037Zm19.791,16.608c3.728-4.443-1.761-9.1-5.009-11.827-3.217-2.7-8.756-7.3-12.484-2.852s1.761,9.1,4.978,11.8C1245.3,1048.489,1250.835,1053.087,1254.562,1048.645Z" style="fill: #181716"/>
    <path d="M1250.74,1028.622c-4.592-3.487-5.683-8.842-1.828-13.437,3.189-3.8,7.913-4.951,11.957-1.558,3.829,3.214,3.6,7.407,3.024,11.517-.634,4.115-1.646,8.121.613,10.9l9.357-11.152,2.3,1.927-11.9,14.186c-4.786-4.748-4.44-8.895-3.768-13.552.817-5.579,1.037-8.579-1.966-11.1a5.164,5.164,0,0,0-7.442.907c-2.545,3.033-.838,6.659,1.844,8.752Z" style="fill: #181716"/>
  </g>
  <g>
    <path d="M576.269,1081.957l-2.186,2.6L558.52,1071.5l-4.73,5.637-2.083-1.748c2.494-2.972,3.959-6.336,1.169-9.669l1.671-1.992Z" style="fill: #181716"/>
    <path d="M579.618,1067.325c2.268,1.59,4.9.877,6.652-1.206,2.673-3.186,1.2-7.088-4.282-11.945l-.113.01a7.434,7.434,0,0,1-1.214,7.544c-3.7,4.411-8.73,4.368-13.019.769-4.2-3.521-4.609-8.88-1.087-13.077,3.393-4.044,8.422-5.619,16.632,1.27,7.507,6.3,9.8,12.087,5.379,17.357-3.059,3.645-7.112,4.682-11.133,1.883Zm-10.868-15.853c-2.6,3.093-1.092,6.34,1.574,8.576a5.807,5.807,0,0,0,8.2-.433c2.287-2.726,1.521-6.293-1.053-8.453C574.8,1048.926,571.192,1048.561,568.75,1051.472Z" style="fill: #181716"/>
    <path d="M581,1032.2c3.985-4.748,8.315-4.247,11.073-1.933a6.564,6.564,0,0,1,1.984,6.781c3.013-1.909,5.966-1.572,8.663.69,4.2,3.522,3.943,8.739.575,12.752-3.5,4.166-8.37,5.559-12.812,1.831a7.157,7.157,0,0,1-2.236-8.349,6.408,6.408,0,0,1-7.048-.745C577.618,1040.218,578.2,1035.539,581,1032.2Zm9.336,7.416a4.354,4.354,0,0,0-.485-6.514c-2.175-1.826-4.625-1.271-6.4.843-1.748,2.083-2.023,4.776.152,6.6C586,1042.551,588.54,1041.76,590.34,1039.615ZM601,1048.562a5.479,5.479,0,0,0-.5-7.991,5.585,5.585,0,0,0-7.889,1c-2.159,2.573-2.2,5.984.31,8.092C595.526,1051.851,598.74,1051.258,601,1048.562Z" style="fill: #181716"/>
    <path d="M613.391,1022.721l2.467-2.941,2.3,1.928-2.468,2.941,5.086,4.267-2.056,2.451-5.086-4.266-8,9.528-2.512-2.108-5.82-21.748,1.748-2.084Zm-2.057,2.451-10.63-8.92-.051.061,4.563,16.151Z" style="fill: #181716"/>
  </g>
  <g>
    <path d="M1280.49,1079.734c-4.591-3.487-5.683-8.841-1.828-13.437,3.188-3.8,7.913-4.95,11.957-1.557,3.83,3.213,3.6,7.406,3.023,11.516-.632,4.115-1.646,8.121.614,10.9l9.357-11.151,2.3,1.928-11.9,14.184c-4.788-4.748-4.441-8.893-3.77-13.551.818-5.579,1.038-8.579-1.964-11.1a5.165,5.165,0,0,0-7.443.907c-2.545,3.033-.838,6.658,1.844,8.752Z" style="fill: #181716"/>
    <path d="M1293.112,1049.076c5.706-6.8,12.317-1.985,17.126,2.05,4.78,4.011,10.67,9.684,4.963,16.485s-12.317,1.987-17.1-2.024C1293.3,1061.551,1287.405,1055.878,1293.112,1049.076Zm19.791,16.608c3.728-4.443-1.761-9.1-5.008-11.826-3.217-2.7-8.757-7.3-12.485-2.853s1.761,9.1,4.978,11.8C1303.635,1065.529,1309.176,1070.126,1312.9,1065.684Z" style="fill: #181716"/>
    <path d="M1307.407,1032.039c5.707-6.8,12.318-1.985,17.127,2.051,4.779,4.011,10.669,9.682,4.962,16.484s-12.316,1.987-17.1-2.024C1307.591,1044.515,1301.7,1038.841,1307.407,1032.039Zm19.791,16.607c3.728-4.442-1.76-9.1-5.009-11.825-3.216-2.7-8.756-7.295-12.484-2.852s1.762,9.1,4.979,11.8C1317.931,1048.492,1323.471,1053.089,1327.2,1048.646Z" style="fill: #181716"/>
    <path d="M1339.665,1022.715l2.468-2.942,2.3,1.928-2.468,2.942,5.086,4.267-2.057,2.45-5.086-4.266-7.994,9.527-2.512-2.107-5.821-21.747,1.748-2.083Zm-2.057,2.45-10.63-8.92-.051.062,4.563,16.15Z" style="fill: #181716"/>
  </g>
  <g>
    <path d="M648.9,1081.963l-2.184,2.6-15.564-13.059-4.73,5.638-2.083-1.749c2.494-2.971,3.959-6.336,1.169-9.669l1.671-1.992Z" style="fill: #181716"/>
    <path d="M652.247,1067.332c2.269,1.59,4.9.877,6.65-1.207,2.674-3.186,1.2-7.088-4.281-11.945l-.113.009a7.429,7.429,0,0,1-1.214,7.543c-3.7,4.413-8.729,4.371-13.019.771-4.2-3.522-4.609-8.879-1.087-13.076,3.393-4.044,8.422-5.619,16.632,1.269,7.507,6.3,9.8,12.087,5.379,17.357-3.059,3.646-7.112,4.682-11.132,1.883Zm-10.869-15.854c-2.6,3.093-1.091,6.34,1.574,8.577a5.807,5.807,0,0,0,8.194-.434c2.289-2.726,1.522-6.293-1.051-8.452C647.429,1048.932,643.821,1048.566,641.378,1051.478Z" style="fill: #181716"/>
    <path d="M653.632,1032.206c3.985-4.749,8.315-4.248,11.073-1.934a6.566,6.566,0,0,1,1.985,6.782c3.012-1.91,5.965-1.573,8.662.689,4.2,3.522,3.942,8.739.575,12.752-3.5,4.167-8.369,5.56-12.812,1.831a7.155,7.155,0,0,1-2.235-8.348,6.41,6.41,0,0,1-7.049-.747C650.246,1040.224,650.83,1035.545,653.632,1032.206Zm9.336,7.415a4.355,4.355,0,0,0-.485-6.515c-2.174-1.825-4.624-1.27-6.4.844-1.748,2.083-2.023,4.777.151,6.6C658.626,1042.557,661.168,1041.766,662.968,1039.621Zm10.662,8.946a5.478,5.478,0,0,0-.5-7.99,5.585,5.585,0,0,0-7.888,1c-2.159,2.573-2.2,5.984.31,8.092C668.154,1051.857,671.368,1051.264,673.63,1048.567Z" style="fill: #181716"/>
    <path d="M677.1,1015.5a4.542,4.542,0,0,0-6.306.921c-3.728,4.441.583,9.26,3.819,12.183l.113-.008a7.693,7.693,0,0,1,1.7-7.815c3.5-4.166,8.613-4.1,12.626-.734,3.156,2.647,5.8,7.894,1.2,13.378-5.4,6.433-12.154,2.54-16.719-1.29-5.973-5.013-10.126-11.576-4.933-17.765,3.008-3.585,6.907-4.125,10.687-1.475Zm2.336,16.316c2.7,2.263,6.229,2.408,8.62-.441,2.365-2.818,1.439-6.258-1.135-8.417-2.7-2.263-6.114-2.73-8.607.242C675.87,1026.113,676.708,1029.532,679.434,1031.819Z" style="fill: #181716"/>
  </g>
  <g>
    <path d="M1353.116,1079.743c-4.591-3.487-5.684-8.842-1.828-13.436,3.188-3.8,7.913-4.952,11.957-1.558,3.83,3.214,3.6,7.407,3.023,11.517-.633,4.115-1.645,8.121.615,10.9l9.356-11.151,2.3,1.927-11.9,14.185c-4.786-4.748-4.441-8.895-3.769-13.552.819-5.579,1.037-8.579-1.965-11.1a5.166,5.166,0,0,0-7.443.908c-2.545,3.033-.836,6.658,1.844,8.752Z" style="fill: #181716"/>
    <path d="M1365.737,1049.086c5.707-6.8,12.318-1.986,17.127,2.05,4.781,4.01,10.669,9.683,4.962,16.484s-12.315,1.986-17.1-2.023C1365.921,1061.561,1360.03,1055.887,1365.737,1049.086Zm19.792,16.606c3.728-4.442-1.761-9.1-5.009-11.825-3.217-2.7-8.757-7.3-12.485-2.853s1.762,9.1,4.979,11.8C1376.261,1065.538,1381.8,1070.135,1385.529,1065.692Z" style="fill: #181716"/>
    <path d="M1380.033,1032.049c5.707-6.8,12.317-1.986,17.126,2.05,4.78,4.01,10.67,9.683,4.963,16.485s-12.316,1.985-17.1-2.024C1380.216,1044.523,1374.326,1038.851,1380.033,1032.049Zm19.792,16.607c3.728-4.442-1.763-9.1-5.01-11.826-3.216-2.7-8.756-7.295-12.484-2.852s1.761,9.1,4.978,11.8C1390.557,1048.5,1396.1,1053.1,1399.825,1048.656Z" style="fill: #181716"/>
    <path d="M1403.37,1015.5a4.543,4.543,0,0,0-6.307.921c-3.727,4.442.583,9.26,3.82,12.184l.113-.009a7.691,7.691,0,0,1,1.7-7.814c3.5-4.167,8.612-4.1,12.625-.735,3.156,2.647,5.8,7.894,1.2,13.379-5.4,6.433-12.155,2.539-16.72-1.291-5.974-5.013-10.124-11.576-4.932-17.765,3.008-3.585,6.907-4.124,10.688-1.474Zm2.336,16.316c2.7,2.263,6.23,2.409,8.62-.441,2.365-2.818,1.439-6.258-1.135-8.417-2.7-2.263-6.115-2.729-8.608.242C1402.141,1026.109,1402.979,1029.528,1405.706,1031.815Z" style="fill: #181716"/>
  </g>
  <g>
    <path d="M721.525,1081.964l-2.185,2.6-15.563-13.058-4.73,5.637-2.084-1.749c2.494-2.971,3.959-6.335,1.17-9.668l1.671-1.992Z" style="fill: #181716"/>
    <path d="M724.875,1067.332c2.268,1.591,4.9.877,6.65-1.206,2.674-3.187,1.2-7.089-4.281-11.945l-.113.009a7.431,7.431,0,0,1-1.214,7.544c-3.7,4.412-8.729,4.37-13.02.77-4.2-3.522-4.608-8.879-1.086-13.076,3.394-4.045,8.422-5.62,16.633,1.269,7.506,6.3,9.8,12.087,5.379,17.357-3.059,3.645-7.114,4.681-11.134,1.883Zm-10.869-15.853c-2.6,3.093-1.091,6.339,1.574,8.577a5.807,5.807,0,0,0,8.194-.434c2.288-2.726,1.521-6.293-1.052-8.453C720.056,1048.933,716.448,1048.567,714.006,1051.479Z" style="fill: #181716"/>
    <path d="M726.261,1032.207c3.985-4.749,8.315-4.248,11.072-1.934a6.563,6.563,0,0,1,1.984,6.782c3.013-1.91,5.966-1.573,8.662.689,4.2,3.522,3.944,8.738.577,12.752-3.5,4.167-8.371,5.559-12.813,1.831a7.154,7.154,0,0,1-2.235-8.348,6.411,6.411,0,0,1-7.049-.747C722.874,1040.225,723.459,1035.546,726.261,1032.207Zm9.335,7.415a4.356,4.356,0,0,0-.484-6.515c-2.176-1.825-4.625-1.27-6.4.844-1.748,2.083-2.024,4.776.152,6.6C731.254,1042.558,733.8,1041.767,735.6,1039.622Zm10.662,8.946a5.478,5.478,0,0,0-.5-7.99,5.582,5.582,0,0,0-7.887,1c-2.16,2.573-2.2,5.983.31,8.091C740.782,1051.857,744,1051.265,746.258,1048.568Z" style="fill: #181716"/>
    <path d="M740.556,1015.17c3.985-4.748,8.316-4.247,11.072-1.934a6.565,6.565,0,0,1,1.985,6.782c3.012-1.911,5.966-1.573,8.662.69,4.2,3.521,3.943,8.738.576,12.752-3.5,4.166-8.371,5.559-12.813,1.831a7.158,7.158,0,0,1-2.235-8.35,6.407,6.407,0,0,1-7.049-.746C737.169,1023.188,737.754,1018.51,740.556,1015.17Zm9.335,7.416a4.356,4.356,0,0,0-.484-6.515c-2.176-1.826-4.625-1.27-6.4.843-1.748,2.084-2.023,4.775.153,6.6C745.549,1025.521,748.091,1024.73,749.891,1022.586Zm10.662,8.946a5.478,5.478,0,0,0-.5-7.99,5.583,5.583,0,0,0-7.888,1c-2.16,2.573-2.2,5.982.31,8.091C755.077,1034.82,758.291,1034.228,760.553,1031.532Z" style="fill: #181716"/>
  </g>
  <g>
    <path d="M1425.748,1079.752c-4.592-3.487-5.686-8.842-1.829-13.438,3.187-3.8,7.914-4.95,11.958-1.556,3.829,3.214,3.6,7.406,3.022,11.515-.633,4.116-1.645,8.123.615,10.906l9.357-11.152,2.3,1.928-11.9,14.185c-4.787-4.748-4.44-8.9-3.769-13.552.817-5.579,1.038-8.579-1.965-11.1a5.167,5.167,0,0,0-7.443.907c-2.545,3.034-.837,6.659,1.845,8.752Z" style="fill: #181716"/>
    <path d="M1438.368,1049.1c5.707-6.8,12.319-1.987,17.128,2.05,4.779,4.009,10.669,9.683,4.962,16.484s-12.316,1.986-17.1-2.024C1438.553,1061.569,1432.661,1055.9,1438.368,1049.1Zm19.792,16.606c3.728-4.442-1.761-9.1-5.009-11.825-3.216-2.7-8.756-7.3-12.484-2.854s1.761,9.1,4.978,11.8C1448.893,1065.547,1454.433,1070.144,1458.16,1065.7Z" style="fill: #181716"/>
    <path d="M1452.664,1032.058c5.707-6.8,12.317-1.986,17.127,2.049,4.779,4.011,10.67,9.684,4.963,16.486s-12.317,1.985-17.1-2.025C1452.848,1044.532,1446.957,1038.859,1452.664,1032.058Zm19.792,16.607c3.728-4.442-1.762-9.1-5.01-11.826-3.217-2.7-8.756-7.295-12.483-2.853s1.761,9.1,4.977,11.8C1463.188,1048.51,1468.729,1053.107,1472.456,1048.665Z" style="fill: #181716"/>
    <path d="M1466.831,1015.174c3.984-4.748,8.315-4.247,11.072-1.934a6.567,6.567,0,0,1,1.986,6.781c3.011-1.909,5.965-1.572,8.662.691,4.2,3.521,3.943,8.738.575,12.752-3.5,4.167-8.37,5.558-12.813,1.831a7.158,7.158,0,0,1-2.235-8.35,6.409,6.409,0,0,1-7.049-.745C1463.444,1023.191,1464.028,1018.514,1466.831,1015.174Zm9.335,7.416a4.354,4.354,0,0,0-.484-6.515c-2.175-1.826-4.624-1.27-6.4.844-1.748,2.083-2.024,4.775.152,6.6C1471.824,1025.524,1474.367,1024.734,1476.166,1022.59Zm10.662,8.946a5.477,5.477,0,0,0-.5-7.99,5.583,5.583,0,0,0-7.888,1c-2.159,2.573-2.2,5.983.31,8.092C1481.353,1034.825,1484.566,1034.232,1486.828,1031.536Z" style="fill: #181716"/>
  </g>
  <g>
    <path d="M794.153,1081.97l-2.185,2.6-15.563-13.059-4.73,5.637-2.083-1.748c2.493-2.972,3.959-6.337,1.169-9.67l1.671-1.991Z" style="fill: #181716"/>
    <path d="M797.5,1067.338c2.269,1.591,4.9.877,6.651-1.206,2.674-3.187,1.2-7.088-4.28-11.945l-.113.009a7.436,7.436,0,0,1-1.214,7.544c-3.7,4.412-8.731,4.369-13.02.77-4.2-3.522-4.609-8.879-1.087-13.076,3.394-4.045,8.423-5.62,16.633,1.269,7.506,6.3,9.8,12.087,5.379,17.357-3.059,3.645-7.113,4.682-11.134,1.882Zm-10.868-15.854c-2.6,3.1-1.092,6.341,1.574,8.578a5.809,5.809,0,0,0,8.194-.433c2.288-2.727,1.522-6.294-1.051-8.453C792.686,1048.939,789.077,1048.574,786.634,1051.484Z" style="fill: #181716"/>
    <path d="M811.8,1050.3c2.268,1.59,4.9.877,6.651-1.206,2.673-3.187,1.2-7.089-4.281-11.946l-.113.01a7.431,7.431,0,0,1-1.214,7.543c-3.7,4.412-8.73,4.369-13.019.771-4.2-3.522-4.609-8.88-1.087-13.078,3.393-4.043,8.422-5.619,16.632,1.27,7.506,6.3,9.8,12.088,5.38,17.357-3.059,3.646-7.114,4.682-11.134,1.883Zm-10.868-15.855c-2.6,3.1-1.092,6.341,1.574,8.577a5.808,5.808,0,0,0,8.194-.432c2.287-2.727,1.521-6.294-1.052-8.453C806.981,1031.9,803.372,1031.537,800.93,1034.447Z" style="fill: #181716"/>
    <path d="M813.313,1015.022c5.707-6.8,12.317-1.985,17.126,2.05,4.78,4.012,10.67,9.684,4.963,16.486s-12.317,1.986-17.1-2.025C813.5,1027.5,807.606,1021.824,813.313,1015.022ZM833.1,1031.63c3.728-4.442-1.762-9.1-5.009-11.825-3.217-2.7-8.757-7.3-12.484-2.854s1.761,9.1,4.978,11.8C823.836,1031.475,829.376,1036.072,833.1,1031.63Z" style="fill: #181716"/>
  </g>
  <g>
    <path d="M1498.367,1079.751c-4.592-3.487-5.684-8.842-1.828-13.438,3.188-3.8,7.913-4.95,11.957-1.556,3.829,3.213,3.6,7.406,3.023,11.515-.634,4.116-1.646,8.123.614,10.9l9.357-11.152,2.3,1.928-11.9,14.185c-4.787-4.747-4.44-8.894-3.769-13.552.818-5.578,1.038-8.579-1.965-11.1a5.166,5.166,0,0,0-7.443.907c-2.545,3.033-.837,6.659,1.845,8.751Z" style="fill: #181716"/>
    <path d="M1510.988,1049.093c5.707-6.8,12.318-1.986,17.127,2.05,4.78,4.01,10.669,9.683,4.963,16.485s-12.317,1.985-17.1-2.024C1511.172,1061.567,1505.282,1055.9,1510.988,1049.093Zm19.791,16.607c3.729-4.442-1.76-9.1-5.008-11.826-3.217-2.7-8.757-7.3-12.484-2.853s1.76,9.1,4.977,11.8C1521.512,1065.545,1527.053,1070.143,1530.779,1065.7Z" style="fill: #181716"/>
    <path d="M1549.01,1047.893l-2.185,2.6-15.562-13.059-4.731,5.637-2.084-1.748c2.494-2.972,3.959-6.337,1.17-9.669l1.671-1.992Z" style="fill: #181716"/>
    <path d="M1539.58,1015.02c5.706-6.8,12.316-1.986,17.126,2.049,4.779,4.011,10.669,9.684,4.962,16.485s-12.316,1.986-17.1-2.024C1539.763,1027.494,1533.873,1021.821,1539.58,1015.02Zm19.791,16.606c3.727-4.441-1.762-9.1-5.01-11.825-3.216-2.7-8.756-7.3-12.484-2.854s1.761,9.1,4.977,11.8C1550.1,1031.472,1555.643,1036.068,1559.371,1031.626Z" style="fill: #181716"/>
  </g>
  <g>
    <path d="M866.781,1081.971l-2.185,2.6-15.563-13.059-4.731,5.636-2.083-1.748c2.494-2.971,3.959-6.336,1.17-9.669l1.671-1.991Z" style="fill: #181716"/>
    <path d="M870.13,1067.34c2.269,1.59,4.9.877,6.652-1.207,2.673-3.187,1.2-7.088-4.282-11.945l-.112.009a7.431,7.431,0,0,1-1.215,7.543c-3.7,4.412-8.73,4.37-13.019.771-4.2-3.522-4.609-8.88-1.087-13.077,3.393-4.043,8.422-5.62,16.632,1.27,7.507,6.3,9.8,12.087,5.38,17.357-3.059,3.645-7.113,4.681-11.134,1.882Zm-10.868-15.856c-2.6,3.1-1.092,6.341,1.574,8.578a5.808,5.808,0,0,0,8.195-.433c2.288-2.727,1.52-6.293-1.053-8.452C865.313,1048.939,861.7,1048.574,859.262,1051.484Z" style="fill: #181716"/>
    <path d="M884.426,1050.3c2.268,1.59,4.9.877,6.651-1.207,2.674-3.186,1.2-7.088-4.281-11.946l-.113.01a7.433,7.433,0,0,1-1.214,7.544c-3.7,4.411-8.73,4.369-13.019.77-4.2-3.522-4.61-8.879-1.088-13.077,3.394-4.043,8.423-5.62,16.633,1.27,7.507,6.3,9.8,12.087,5.379,17.356-3.059,3.647-7.112,4.683-11.133,1.883Zm-10.868-15.855c-2.6,3.094-1.093,6.341,1.573,8.577a5.809,5.809,0,0,0,8.2-.433c2.288-2.727,1.521-6.293-1.053-8.452C879.608,1031.9,876,1031.537,873.558,1034.448Z" style="fill: #181716"/>
    <path d="M887.614,1028.645c-4.591-3.488-5.684-8.842-1.828-13.438,3.188-3.8,7.913-4.95,11.957-1.557,3.83,3.214,3.6,7.407,3.023,11.516-.633,4.115-1.644,8.122.614,10.9l9.357-11.151,2.3,1.928-11.9,14.184c-4.787-4.748-4.441-8.894-3.77-13.552.819-5.579,1.038-8.579-1.964-11.1a5.165,5.165,0,0,0-7.443.907c-2.545,3.033-.837,6.658,1.844,8.752Z" style="fill: #181716"/>
  </g>
  <g>
    <path d="M1571,1079.759c-4.591-3.488-5.685-8.842-1.828-13.438,3.187-3.8,7.913-4.95,11.957-1.556,3.83,3.214,3.6,7.407,3.022,11.516-.633,4.115-1.645,8.121.615,10.9l9.356-11.153,2.3,1.928-11.9,14.185c-4.787-4.748-4.439-8.894-3.768-13.551.817-5.579,1.038-8.579-1.964-11.1a5.167,5.167,0,0,0-7.444.907c-2.545,3.034-.837,6.659,1.843,8.752Z" style="fill: #181716"/>
    <path d="M1583.625,1049.1c5.707-6.8,12.317-1.987,17.127,2.049,4.779,4.01,10.669,9.683,4.962,16.485s-12.317,1.986-17.1-2.025C1583.809,1061.576,1577.918,1055.9,1583.625,1049.1Zm19.791,16.606c3.728-4.442-1.761-9.1-5.008-11.825-3.217-2.7-8.758-7.3-12.485-2.854s1.762,9.1,4.978,11.8C1594.148,1065.554,1599.688,1070.15,1603.416,1065.708Z" style="fill: #181716"/>
    <path d="M1621.647,1047.9l-2.184,2.605-15.565-13.06-4.729,5.638-2.083-1.748c2.493-2.973,3.959-6.337,1.169-9.67l1.671-1.991Z" style="fill: #181716"/>
    <path d="M1613.89,1028.648c-4.591-3.486-5.684-8.841-1.828-13.436,3.187-3.8,7.913-4.95,11.957-1.557,3.83,3.213,3.6,7.407,3.022,11.516-.632,4.115-1.645,8.121.614,10.9l9.358-11.151,2.3,1.928-11.9,14.184c-4.788-4.748-4.44-8.893-3.769-13.552.817-5.579,1.038-8.579-1.964-11.1a5.166,5.166,0,0,0-7.444.906c-2.544,3.033-.837,6.658,1.844,8.752Z" style="fill: #181716"/>
  </g>
  <g>
    <path d="M939.41,1081.982l-2.185,2.6-15.564-13.059-4.73,5.637-2.083-1.748c2.493-2.972,3.959-6.336,1.169-9.669l1.671-1.991Z" style="fill: #181716"/>
    <path d="M942.76,1067.352c2.268,1.589,4.9.877,6.65-1.207,2.674-3.186,1.2-7.088-4.281-11.946l-.113.01a7.432,7.432,0,0,1-1.214,7.543c-3.7,4.412-8.729,4.37-13.019.77-4.2-3.521-4.61-8.879-1.088-13.077,3.394-4.043,8.423-5.619,16.633,1.271,7.507,6.3,9.8,12.087,5.379,17.356-3.059,3.646-7.112,4.682-11.132,1.883ZM931.892,1051.5c-2.6,3.094-1.092,6.34,1.573,8.577a5.808,5.808,0,0,0,8.194-.433c2.288-2.727,1.522-6.293-1.052-8.453C937.941,1048.951,934.333,1048.586,931.892,1051.5Z" style="fill: #181716"/>
    <path d="M957.055,1050.314c2.269,1.59,4.9.877,6.651-1.207,2.673-3.185,1.2-7.087-4.282-11.945l-.112.01a7.434,7.434,0,0,1-1.215,7.544c-3.7,4.411-8.729,4.369-13.019.769-4.2-3.521-4.609-8.879-1.087-13.076,3.393-4.044,8.423-5.62,16.633,1.27,7.506,6.3,9.8,12.087,5.379,17.356-3.06,3.647-7.113,4.682-11.133,1.883Zm-10.868-15.854c-2.6,3.1-1.092,6.341,1.573,8.577a5.809,5.809,0,0,0,8.2-.433c2.288-2.727,1.521-6.293-1.052-8.453C952.237,1031.915,948.629,1031.549,946.187,1034.46Z" style="fill: #181716"/>
    <path d="M976.531,1022.746l2.469-2.94,2.3,1.927-2.469,2.942,5.085,4.266-2.057,2.452-5.085-4.267-7.994,9.527-2.512-2.107-5.821-21.747,1.748-2.083Zm-2.056,2.451-10.63-8.92-.051.062,4.562,16.15Z" style="fill: #181716"/>
  </g>
  <g>
    <path d="M1643.629,1079.769c-4.591-3.488-5.684-8.842-1.828-13.438,3.187-3.8,7.913-4.95,11.957-1.557,3.83,3.213,3.6,7.407,3.023,11.516-.633,4.115-1.644,8.121.615,10.9l9.357-11.151,2.3,1.928-11.9,14.184c-4.786-4.747-4.439-8.894-3.768-13.551.817-5.579,1.037-8.58-1.965-11.1a5.164,5.164,0,0,0-7.443.906c-2.545,3.033-.837,6.659,1.843,8.752Z" style="fill: #181716"/>
    <path d="M1656.251,1049.11c5.707-6.8,12.316-1.985,17.126,2.05,4.78,4.011,10.67,9.684,4.963,16.486s-12.317,1.985-17.1-2.025C1656.434,1061.585,1650.544,1055.912,1656.251,1049.11Zm19.792,16.608c3.728-4.443-1.763-9.1-5.01-11.826-3.217-2.7-8.757-7.3-12.484-2.853s1.762,9.1,4.978,11.8C1666.773,1065.562,1672.315,1070.16,1676.043,1065.718Z" style="fill: #181716"/>
    <path d="M1694.273,1047.91l-2.185,2.605-15.564-13.059-4.73,5.637-2.083-1.748c2.494-2.972,3.959-6.337,1.17-9.669l1.671-1.992Z" style="fill: #181716"/>
    <path d="M1702.805,1022.748l2.467-2.941,2.3,1.928-2.468,2.941,5.086,4.267-2.056,2.452-5.086-4.268-8,9.528-2.512-2.108-5.821-21.746,1.749-2.084Zm-2.057,2.451-10.63-8.92-.052.061,4.563,16.15Z" style="fill: #181716"/>
  </g>
  <g>
    <path d="M1012.036,1081.991l-2.185,2.605-15.564-13.06-4.729,5.638-2.084-1.748c2.493-2.972,3.959-6.337,1.17-9.67l1.67-1.991Z" style="fill: #181716"/>
    <path d="M1015.386,1067.36c2.268,1.59,4.9.877,6.65-1.207,2.673-3.185,1.2-7.088-4.282-11.945l-.111.01a7.436,7.436,0,0,1-1.214,7.544c-3.7,4.412-8.731,4.369-13.021.769-4.2-3.521-4.608-8.879-1.086-13.076,3.393-4.044,8.421-5.619,16.632,1.27,7.506,6.3,9.8,12.087,5.38,17.356-3.06,3.646-7.113,4.683-11.134,1.883Zm-10.869-15.854c-2.6,3.1-1.092,6.341,1.573,8.577a5.809,5.809,0,0,0,8.195-.433c2.288-2.726,1.522-6.294-1.052-8.453C1010.567,1048.961,1006.959,1048.6,1004.517,1051.506Z" style="fill: #181716"/>
    <path d="M1029.681,1050.323c2.268,1.59,4.9.877,6.65-1.206,2.674-3.186,1.2-7.089-4.281-11.945l-.112.01a7.432,7.432,0,0,1-1.214,7.543c-3.7,4.412-8.73,4.369-13.02.77-4.2-3.521-4.608-8.88-1.087-13.077,3.394-4.044,8.422-5.619,16.633,1.27,7.506,6.3,9.8,12.087,5.379,17.357-3.059,3.645-7.113,4.682-11.133,1.883Zm-10.869-15.854c-2.6,3.094-1.091,6.341,1.574,8.577a5.807,5.807,0,0,0,8.194-.433c2.288-2.726,1.522-6.294-1.052-8.453C1024.862,1031.924,1021.255,1031.559,1018.812,1034.469Z" style="fill: #181716"/>
    <path d="M1040.236,1015.531a4.541,4.541,0,0,0-6.305.921c-3.728,4.443.582,9.26,3.819,12.184l.112-.009a7.694,7.694,0,0,1,1.7-7.815c3.5-4.166,8.612-4.1,12.625-.734,3.156,2.648,5.8,7.895,1.2,13.378-5.4,6.434-12.155,2.54-16.719-1.29-5.975-5.013-10.125-11.576-4.933-17.766,3.008-3.584,6.907-4.124,10.687-1.473Zm2.336,16.317c2.7,2.262,6.23,2.407,8.62-.442,2.366-2.818,1.44-6.258-1.134-8.417-2.7-2.262-6.115-2.729-8.608.242C1039.008,1026.142,1039.847,1029.561,1042.572,1031.848Z" style="fill: #181716"/>
  </g>
  <g>
    <path d="M1716.249,1079.767c-4.592-3.488-5.685-8.842-1.829-13.438,3.188-3.8,7.913-4.95,11.958-1.557,3.829,3.214,3.6,7.408,3.022,11.517-.632,4.114-1.644,8.121.615,10.9l9.357-11.152,2.3,1.928-11.9,14.185c-4.787-4.748-4.44-8.894-3.768-13.551.817-5.58,1.036-8.58-1.966-11.1a5.164,5.164,0,0,0-7.442.907c-2.545,3.033-.838,6.658,1.843,8.752Z" style="fill: #181716"/>
    <path d="M1728.87,1049.109c5.707-6.8,12.318-1.986,17.126,2.05,4.78,4.01,10.67,9.683,4.963,16.485s-12.316,1.986-17.1-2.025C1729.055,1061.584,1723.163,1055.91,1728.87,1049.109Zm19.792,16.607c3.728-4.443-1.763-9.1-5.01-11.825-3.216-2.7-8.756-7.3-12.483-2.854s1.761,9.1,4.977,11.8C1739.394,1065.562,1744.935,1070.158,1748.662,1065.716Z" style="fill: #181716"/>
    <path d="M1766.893,1047.909l-2.186,2.6-15.563-13.06-4.73,5.638-2.083-1.749c2.493-2.972,3.958-6.336,1.169-9.669l1.671-1.991Z" style="fill: #181716"/>
    <path d="M1766.5,1015.522a4.544,4.544,0,0,0-6.307.921c-3.727,4.443.583,9.26,3.82,12.185l.112-.01a7.689,7.689,0,0,1,1.7-7.813c3.5-4.167,8.612-4.1,12.625-.736,3.156,2.648,5.8,7.895,1.2,13.378-5.4,6.435-12.154,2.54-16.719-1.29-5.973-5.012-10.125-11.576-4.932-17.764,3.008-3.585,6.906-4.125,10.687-1.475Zm2.336,16.317c2.7,2.263,6.228,2.408,8.62-.442,2.364-2.818,1.438-6.257-1.135-8.417-2.7-2.262-6.114-2.729-8.607.243C1765.274,1026.133,1766.112,1029.552,1768.839,1031.839Z" style="fill: #181716"/>
  </g>
  <g>
    <path d="M1084.666,1081.989l-2.185,2.605-15.563-13.06-4.73,5.638-2.084-1.749c2.494-2.972,3.959-6.336,1.169-9.669l1.671-1.991Z" style="fill: #181716"/>
    <path d="M1088.016,1067.357c2.268,1.591,4.9.877,6.65-1.206,2.674-3.186,1.2-7.088-4.28-11.945l-.114.01a7.431,7.431,0,0,1-1.213,7.543c-3.7,4.412-8.731,4.37-13.02.77-4.2-3.521-4.609-8.88-1.087-13.077,3.394-4.044,8.422-5.619,16.633,1.271,7.506,6.3,9.8,12.087,5.379,17.356-3.06,3.646-7.113,4.682-11.134,1.883Zm-10.869-15.853c-2.6,3.094-1.091,6.34,1.575,8.577a5.806,5.806,0,0,0,8.193-.434c2.288-2.726,1.522-6.293-1.052-8.452C1083.2,1048.958,1079.589,1048.593,1077.147,1051.5Z" style="fill: #181716"/>
    <path d="M1102.311,1050.321c2.268,1.59,4.9.877,6.65-1.207,2.674-3.185,1.2-7.088-4.28-11.945l-.113.01a7.434,7.434,0,0,1-1.214,7.544c-3.7,4.411-8.73,4.369-13.019.769-4.2-3.521-4.609-8.879-1.087-13.076,3.393-4.044,8.421-5.62,16.632,1.27,7.506,6.3,9.8,12.086,5.38,17.356-3.06,3.646-7.114,4.683-11.134,1.883Zm-10.869-15.854c-2.6,3.094-1.091,6.341,1.575,8.577a5.807,5.807,0,0,0,8.194-.434c2.287-2.726,1.521-6.293-1.053-8.452C1097.494,1031.921,1093.885,1031.556,1091.442,1034.467Z" style="fill: #181716"/>
    <path d="M1103.7,1015.2c3.985-4.749,8.316-4.247,11.074-1.933a6.567,6.567,0,0,1,1.983,6.781c3.012-1.91,5.966-1.572,8.662.69,4.2,3.522,3.943,8.739.576,12.751-3.5,4.167-8.371,5.56-12.813,1.832a7.155,7.155,0,0,1-2.235-8.349,6.409,6.409,0,0,1-7.048-.746C1100.311,1023.213,1100.9,1018.535,1103.7,1015.2Zm9.336,7.416a4.356,4.356,0,0,0-.485-6.515c-2.176-1.825-4.625-1.27-6.4.843-1.748,2.084-2.023,4.776.153,6.6C1108.69,1025.546,1111.233,1024.756,1113.033,1022.611Zm10.66,8.946a5.477,5.477,0,0,0-.5-7.99,5.584,5.584,0,0,0-7.888,1c-2.159,2.575-2.2,5.985.31,8.092C1118.22,1034.847,1121.432,1034.253,1123.693,1031.557Z" style="fill: #181716"/>
  </g>
  <g style="clip-path: url(#clip-path)">
    <g>
      <path d="M1861.49,1079.694c-4.592-3.487-5.684-8.841-1.828-13.436,3.188-3.8,7.913-4.951,11.957-1.558,3.829,3.214,3.6,7.406,3.023,11.517-.634,4.115-1.646,8.121.613,10.9l9.357-11.152,2.3,1.927-11.9,14.186c-4.787-4.748-4.441-8.894-3.769-13.552.818-5.579,1.038-8.579-1.964-11.1a5.166,5.166,0,0,0-7.444.907c-2.545,3.033-.838,6.658,1.844,8.752Z" style="fill: #181716"/>
      <path d="M1874.111,1049.037c5.707-6.8,12.318-1.986,17.127,2.05,4.78,4.01,10.669,9.684,4.962,16.484s-12.316,1.987-17.1-2.024C1874.3,1061.512,1868.4,1055.838,1874.111,1049.037Zm19.791,16.607c3.728-4.443-1.76-9.1-5.008-11.826-3.217-2.7-8.757-7.3-12.485-2.853s1.761,9.1,4.978,11.8C1884.635,1065.489,1890.175,1070.086,1893.9,1065.644Z" style="fill: #181716"/>
      <path d="M1890.081,1045.621c-4.592-3.487-5.685-8.842-1.828-13.437,3.187-3.8,7.913-4.951,11.957-1.557,3.829,3.214,3.6,7.406,3.022,11.517-.633,4.114-1.645,8.121.614,10.9l9.357-11.152,2.3,1.927-11.9,14.186c-4.787-4.748-4.441-8.895-3.769-13.552.817-5.579,1.038-8.579-1.964-11.1a5.167,5.167,0,0,0-7.444.908c-2.545,3.033-.838,6.658,1.844,8.752Z" style="fill: #181716"/>
      <path d="M1902.7,1014.963c5.707-6.8,12.318-1.985,17.127,2.051,4.779,4.009,10.669,9.682,4.962,16.484s-12.316,1.986-17.1-2.024C1902.886,1027.438,1897,1021.765,1902.7,1014.963Zm19.791,16.607c3.728-4.442-1.761-9.1-5.009-11.825-3.216-2.7-8.756-7.3-12.484-2.853s1.761,9.1,4.978,11.8C1913.226,1031.416,1918.766,1036.013,1922.493,1031.57Z" style="fill: #181716"/>
    </g>
  </g>
  <g>
    <path d="M1788.863,1079.7c-4.592-3.486-5.684-8.842-1.828-13.436,3.188-3.8,7.912-4.951,11.956-1.558,3.829,3.214,3.6,7.406,3.024,11.517-.634,4.115-1.646,8.121.613,10.9l9.357-11.152,2.3,1.927-11.9,14.185c-4.786-4.747-4.44-8.894-3.768-13.551.818-5.579,1.037-8.579-1.966-11.1a5.163,5.163,0,0,0-7.442.906c-2.545,3.033-.838,6.658,1.844,8.752Z" style="fill: #181716"/>
    <path d="M1801.484,1049.042c5.707-6.8,12.317-1.986,17.126,2.05,4.78,4.01,10.67,9.683,4.963,16.484s-12.317,1.986-17.1-2.024C1801.667,1061.517,1795.777,1055.843,1801.484,1049.042Zm19.791,16.606c3.728-4.442-1.761-9.1-5.009-11.825-3.217-2.7-8.756-7.3-12.484-2.853s1.761,9.1,4.978,11.8C1812.008,1065.494,1817.548,1070.091,1821.275,1065.648Z" style="fill: #181716"/>
    <path d="M1839.506,1047.842l-2.186,2.6-15.562-13.058-4.73,5.636-2.084-1.748c2.494-2.971,3.958-6.336,1.17-9.669l1.671-1.991Z" style="fill: #181716"/>
    <path d="M1829.946,1015.121c3.986-4.748,8.316-4.247,11.073-1.933a6.565,6.565,0,0,1,1.984,6.781c3.013-1.91,5.966-1.572,8.662.69,4.2,3.522,3.943,8.738.576,12.752-3.5,4.167-8.37,5.559-12.812,1.831a7.154,7.154,0,0,1-2.236-8.348,6.408,6.408,0,0,1-7.048-.748C1826.56,1023.139,1827.145,1018.461,1829.946,1015.121Zm9.335,7.416a4.354,4.354,0,0,0-.484-6.515c-2.175-1.825-4.624-1.27-6.4.844-1.748,2.083-2.023,4.776.152,6.6C1834.939,1025.472,1837.481,1024.682,1839.281,1022.537Zm10.662,8.946a5.478,5.478,0,0,0-.5-7.99,5.582,5.582,0,0,0-7.887,1c-2.16,2.573-2.2,5.983.309,8.091C1844.468,1034.772,1847.681,1034.18,1849.943,1031.483Z" style="fill: #181716"/>
  </g>
  <line x1="263.753" y1="1159.493" x2="323.785" y2="1159.493" style="fill: none;stroke: #da1918;stroke-linecap: round;stroke-linejoin: round;stroke-width: 8px;stroke-dasharray: 22.68000030517578,14.680000305175781"/>
  <g>
    <path d="M348.5,1146.137h-9.519v-3.2h22.836v3.2H352.3v25.355h-3.8Z" style="fill: #181716"/>
    <path d="M368.943,1150.336c6.559,0,10.038,4.759,10.038,10.838,0,6.039-3.479,10.8-10.038,10.8s-10.038-4.759-10.038-10.8C358.905,1155.1,362.384,1150.336,368.943,1150.336Zm0,18.637c3.559,0,6.439-2.8,6.439-7.8,0-5.039-2.88-7.839-6.439-7.839s-6.439,2.8-6.439,7.839C362.5,1166.173,365.383,1168.973,368.943,1168.973Z" style="fill: #181716"/>
    <path d="M387.7,1150.815h4.119v3H387.7v12.838c0,1.56.44,1.84,2.56,1.84h1.559v3h-2.6c-3.519,0-4.919-.72-4.919-4.519v-13.158h-3.52v-3h3.52v-6.2h3.4Z" style="fill: #181716"/>
    <path d="M413.9,1171.412a4.582,4.582,0,0,1-2.439.56c-1.76,0-2.879-.959-2.879-3.2a9.173,9.173,0,0,1-7.279,3.2c-3.76,0-6.839-1.68-6.839-5.8,0-4.679,3.479-5.679,7-6.359,3.76-.719,6.959-.48,6.959-3.04,0-2.959-2.439-3.439-4.6-3.439-2.88,0-5,.88-5.159,3.92h-3.4c.2-5.119,4.159-6.919,8.758-6.919,3.719,0,7.759.84,7.759,5.679v10.638c0,1.6,0,2.32,1.079,2.32a2.9,2.9,0,0,0,1.04-.2Zm-5.519-10.6c-1.319.959-3.879,1-6.159,1.4-2.239.4-4.159,1.2-4.159,3.72,0,2.239,1.92,3.039,4,3.039,4.48,0,6.319-2.8,6.319-4.68Z" style="fill: #181716"/>
    <path d="M417.263,1142.937h3.4v28.555h-3.4Z" style="fill: #181716"/>
  </g>
  <line x1="1015.753" y1="1159.493" x2="1075.785" y2="1159.493" style="fill: none;stroke: #535656;stroke-linecap: round;stroke-linejoin: round;stroke-width: 8px"/>
  <g>
    <path d="M1114.1,1151.535c-.8-4.039-4.04-6.078-8-6.078-6.8,0-9.678,5.6-9.678,11.558,0,6.518,2.879,11.958,9.718,11.958,5,0,7.878-3.52,8.238-8.239h3.8c-.72,7.119-5.16,11.438-12.358,11.438-8.879,0-13.2-6.559-13.2-14.877,0-8.279,4.719-15.038,13.518-15.038,5.959,0,10.878,3.2,11.757,9.278Z" style="fill: #181716"/>
    <path d="M1122.344,1142.937h3.4v10.918h.08c1.12-2.479,4.039-3.519,6.519-3.519,5.439,0,7.119,3.119,7.119,7.559v13.6h-3.4v-14a3.9,3.9,0,0,0-4.2-4.159c-4.119,0-6.119,2.76-6.119,6.479v11.678h-3.4Z" style="fill: #181716"/>
    <path d="M1162.9,1171.412a4.586,4.586,0,0,1-2.44.56c-1.76,0-2.879-.959-2.879-3.2a9.171,9.171,0,0,1-7.279,3.2c-3.759,0-6.839-1.68-6.839-5.8,0-4.679,3.479-5.679,7-6.359,3.76-.719,6.959-.48,6.959-3.04,0-2.959-2.44-3.439-4.6-3.439-2.879,0-5,.88-5.159,3.92h-3.4c.2-5.119,4.16-6.919,8.758-6.919,3.72,0,7.759.84,7.759,5.679v10.638c0,1.6,0,2.32,1.08,2.32a2.9,2.9,0,0,0,1.04-.2Zm-5.519-10.6c-1.32.959-3.879,1-6.159,1.4-2.24.4-4.16,1.2-4.16,3.72,0,2.239,1.92,3.039,4,3.039,4.48,0,6.32-2.8,6.32-4.68Z" style="fill: #181716"/>
    <path d="M1165.943,1150.815h3.2v4.36h.08c1.639-3.32,3.92-4.959,7.6-4.839v3.6c-5.478,0-7.478,3.119-7.478,8.358v9.2h-3.4Z" style="fill: #181716"/>
    <path d="M1179.5,1142.937h3.4v10.678h.08c1.12-2.279,3.759-3.279,6.6-3.279,6.359,0,9.519,5.039,9.519,10.878s-3.12,10.758-9.439,10.758c-2.12,0-5.159-.8-6.679-3.24h-.08v2.76h-3.4Zm9.6,10.4c-4.56,0-6.32,3.92-6.32,7.8,0,4.079,1.84,7.839,6.519,7.839,4.639,0,6.2-3.959,6.2-8C1195.5,1157.1,1193.5,1153.335,1189.1,1153.335Z" style="fill: #181716"/>
    <path d="M1212.021,1150.336c6.559,0,10.039,4.759,10.039,10.838,0,6.039-3.48,10.8-10.039,10.8s-10.039-4.759-10.039-10.8C1201.982,1155.1,1205.462,1150.336,1212.021,1150.336Zm0,18.637c3.559,0,6.439-2.8,6.439-7.8,0-5.039-2.88-7.839-6.439-7.839s-6.439,2.8-6.439,7.839C1205.582,1166.173,1208.462,1168.973,1212.021,1168.973Z" style="fill: #181716"/>
    <path d="M1226.062,1150.815h3.2v3.28h.08a7.2,7.2,0,0,1,6.719-3.759c5.439,0,7.119,3.119,7.119,7.559v13.6h-3.4v-14a3.9,3.9,0,0,0-4.2-4.159c-4.119,0-6.119,2.76-6.119,6.479v11.678h-3.4Z" style="fill: #181716"/>
  </g>
  <line x1="1383.753" y1="1159.493" x2="1443.785" y2="1159.493" style="fill: none;stroke: #6398a7;stroke-linecap: round;stroke-linejoin: round;stroke-width: 8px"/>
  <g>
    <path d="M1462.024,1142.937h12.519c5.679,0,8.758,3.16,8.758,8.439s-3.079,8.478-8.758,8.438h-8.719v11.678h-3.8Zm3.8,13.677h7.439c4.279.04,6.239-1.839,6.239-5.238s-1.96-5.239-6.239-5.239h-7.439Z" style="fill: #181716"/>
    <path d="M1505.021,1164.934c-.919,4.558-4.2,7.038-8.837,7.038-6.6,0-9.719-4.559-9.919-10.878,0-6.2,4.08-10.758,9.718-10.758,7.319,0,9.559,6.839,9.359,11.838h-15.478c-.12,3.6,1.92,6.8,6.44,6.8,2.8,0,4.758-1.36,5.358-4.039Zm-3.279-5.76a5.949,5.949,0,0,0-5.959-5.839c-3.559,0-5.679,2.68-5.919,5.839Zm-5.159-16.917h4.359l-5.239,5.72h-2.559Z" style="fill: #181716"/>
    <path d="M1513.583,1150.815h4.12v3h-4.12v12.838c0,1.56.44,1.84,2.56,1.84h1.56v3h-2.6c-3.52,0-4.92-.72-4.92-4.519v-13.158h-3.519v-3h3.519v-6.2h3.4Z" style="fill: #181716"/>
    <path d="M1521.344,1150.815h3.2v4.36h.08c1.64-3.32,3.92-4.959,7.6-4.839v3.6c-5.479,0-7.479,3.119-7.479,8.358v9.2h-3.4Z" style="fill: #181716"/>
    <path d="M1543.022,1150.336c6.559,0,10.039,4.759,10.039,10.838,0,6.039-3.48,10.8-10.039,10.8s-10.039-4.759-10.039-10.8C1532.983,1155.1,1536.463,1150.336,1543.022,1150.336Zm0,18.637c3.559,0,6.439-2.8,6.439-7.8,0-5.039-2.88-7.839-6.439-7.839s-6.439,2.8-6.439,7.839C1536.583,1166.173,1539.463,1168.973,1543.022,1168.973Z" style="fill: #181716"/>
    <path d="M1557.263,1142.937h3.4v28.555h-3.4Z" style="fill: #181716"/>
    <path d="M1583.579,1164.934c-.92,4.558-4.2,7.038-8.838,7.038-6.6,0-9.719-4.559-9.919-10.878,0-6.2,4.08-10.758,9.719-10.758,7.318,0,9.559,6.839,9.358,11.838h-15.477c-.12,3.6,1.92,6.8,6.439,6.8,2.8,0,4.759-1.36,5.359-4.039Zm-3.279-5.76a5.95,5.95,0,0,0-5.959-5.839c-3.56,0-5.679,2.68-5.919,5.839Z" style="fill: #181716"/>
    <path d="M1598.662,1142.937h3.4v10.678h.08c1.119-2.279,3.758-3.279,6.6-3.279,6.36,0,9.519,5.039,9.519,10.878s-3.119,10.758-9.439,10.758c-2.12,0-5.159-.8-6.678-3.24h-.08v2.76h-3.4Zm9.6,10.4c-4.56,0-6.32,3.92-6.32,7.8,0,4.079,1.84,7.839,6.519,7.839,4.64,0,6.2-3.959,6.2-8C1614.659,1157.1,1612.659,1153.335,1608.261,1153.335Z" style="fill: #181716"/>
    <path d="M1622.141,1150.815h3.2v4.36h.08c1.64-3.32,3.92-4.959,7.6-4.839v3.6c-5.479,0-7.479,3.119-7.479,8.358v9.2h-3.4Z" style="fill: #181716"/>
    <path d="M1652.7,1171.492h-3.2v-3.279h-.08a7.2,7.2,0,0,1-6.719,3.759c-5.439,0-7.119-3.119-7.119-7.559v-13.6h3.4v14a3.9,3.9,0,0,0,4.2,4.16c4.119,0,6.119-2.76,6.119-6.479v-11.679h3.4Z" style="fill: #181716"/>
    <path d="M1662.54,1150.815h4.12v3h-4.12v12.838c0,1.56.44,1.84,2.56,1.84h1.56v3h-2.6c-3.52,0-4.92-.72-4.92-4.519v-13.158h-3.519v-3h3.519v-6.2h3.4Z" style="fill: #181716"/>
  </g>
  <line x1="263.753" y1="1215.493" x2="323.785" y2="1215.493" style="fill: none;stroke: #008a90;stroke-linecap: round;stroke-linejoin: round;stroke-width: 8px"/>
  <line x1="1015.753" y1="1215.493" x2="1075.785" y2="1215.493" style="fill: none;stroke: #c6c7ca;stroke-linecap: round;stroke-linejoin: round;stroke-width: 8px"/>
  <g>
    <path d="M1115.381,1223.933a11.175,11.175,0,0,1-9.158,4.239c-8.519,0-13.6-6.959-13.6-14.4,0-8.318,4.56-15.517,13.6-15.517,6.239,0,11.2,2.8,12.278,9.478h-3.8c-.76-4.319-4.239-6.278-8.478-6.278-6.919,0-9.8,6-9.8,12.117,0,5.959,3.438,11.4,9.8,11.4,5.879,0,9.4-4.119,9.158-9.319h-9.118v-3.2h12.517v15.037h-2.4Z" style="fill: #181716"/>
    <path d="M1142.142,1227.412a4.592,4.592,0,0,1-2.441.56c-1.76,0-2.879-.959-2.879-3.2a9.171,9.171,0,0,1-7.279,3.2c-3.759,0-6.839-1.68-6.839-5.8,0-4.679,3.48-5.679,7-6.359,3.76-.719,6.959-.48,6.959-3.04,0-2.959-2.439-3.439-4.6-3.439-2.878,0-5,.88-5.159,3.92h-3.4c.2-5.119,4.16-6.919,8.759-6.919,3.719,0,7.758.84,7.758,5.679v10.638c0,1.6,0,2.32,1.081,2.32a2.909,2.909,0,0,0,1.04-.2Zm-5.52-10.6c-1.319.959-3.879,1-6.159,1.4-2.239.4-4.159,1.2-4.159,3.72,0,2.239,1.92,3.039,4,3.039,4.479,0,6.319-2.8,6.319-4.68Z" style="fill: #181716"/>
    <path d="M1143.624,1224.893l12.478-15.078h-11.678v-3H1160.5v2.321l-12.638,15.357h13.2v3h-17.438Z" style="fill: #181716"/>
    <path d="M1175.624,1206.815h3.2v3.28h.08a7.2,7.2,0,0,1,6.719-3.759c5.44,0,7.119,3.119,7.119,7.559v13.6h-3.4v-14a3.9,3.9,0,0,0-4.2-4.159c-4.12,0-6.12,2.76-6.12,6.479v11.678h-3.4Z" style="fill: #181716"/>
    <path d="M1216.181,1227.412a4.592,4.592,0,0,1-2.441.56c-1.76,0-2.879-.959-2.879-3.2a9.171,9.171,0,0,1-7.279,3.2c-3.759,0-6.839-1.68-6.839-5.8,0-4.679,3.48-5.679,7-6.359,3.76-.719,6.959-.48,6.959-3.04,0-2.959-2.439-3.439-4.6-3.439-2.879,0-5,.88-5.16,3.92h-3.4c.2-5.119,4.16-6.919,8.759-6.919,3.719,0,7.759.84,7.759,5.679v10.638c0,1.6,0,2.32,1.08,2.32a2.909,2.909,0,0,0,1.04-.2Zm-5.52-10.6c-1.319.959-3.879,1-6.159,1.4-2.239.4-4.159,1.2-4.159,3.72,0,2.239,1.92,3.039,4,3.039,4.479,0,6.319-2.8,6.319-4.68Z" style="fill: #181716"/>
    <path d="M1224.062,1206.815h4.12v3h-4.12v12.838c0,1.56.44,1.84,2.559,1.84h1.561v3h-2.6c-3.52,0-4.92-.72-4.92-4.519v-13.158h-3.518v-3h3.518v-6.2h3.4Z" style="fill: #181716"/>
    <path d="M1249.06,1227.492h-3.2v-3.279h-.08a7.2,7.2,0,0,1-6.718,3.759c-5.44,0-7.12-3.119-7.12-7.559v-13.6h3.4v14a3.9,3.9,0,0,0,4.2,4.16c4.119,0,6.119-2.76,6.119-6.479v-11.679h3.4Z" style="fill: #181716"/>
    <path d="M1254.062,1206.815h3.2v4.36h.08c1.639-3.32,3.92-4.959,7.6-4.839v3.6c-5.478,0-7.478,3.119-7.478,8.358v9.2h-3.4Z" style="fill: #181716"/>
    <path d="M1284.459,1220.934c-.92,4.558-4.2,7.038-8.838,7.038-6.6,0-9.719-4.559-9.919-10.878,0-6.2,4.08-10.758,9.719-10.758,7.318,0,9.558,6.839,9.358,11.838H1269.3c-.12,3.6,1.92,6.8,6.439,6.8,2.8,0,4.759-1.36,5.359-4.039Zm-3.279-5.76a5.95,5.95,0,0,0-5.959-5.839c-3.56,0-5.679,2.68-5.919,5.839Z" style="fill: #181716"/>
    <path d="M1288.5,1198.937h3.4v28.555h-3.4Z" style="fill: #181716"/>
  </g>
  <g>
    <path d="M343.488,1198.937h12.519c5.679,0,8.758,3.16,8.758,8.439s-3.079,8.478-8.758,8.438h-8.719v11.678h-3.8Zm3.8,13.677h7.439c4.279.04,6.239-1.839,6.239-5.238s-1.96-5.239-6.239-5.239h-7.439Z" style="fill: #181716"/>
    <path d="M368.729,1206.815h3.2v4.36h.08c1.639-3.32,3.92-4.959,7.6-4.839v3.6c-5.478,0-7.478,3.119-7.478,8.358v9.2h-3.4Z" style="fill: #181716"/>
    <path d="M391.087,1206.336c6.559,0,10.038,4.759,10.038,10.838,0,6.039-3.479,10.8-10.038,10.8s-10.039-4.759-10.039-10.8C381.048,1211.1,384.527,1206.336,391.087,1206.336Zm0,18.637c3.559,0,6.438-2.8,6.438-7.8,0-5.039-2.879-7.839-6.438-7.839s-6.44,2.8-6.44,7.839C384.647,1222.173,387.527,1224.973,391.087,1224.973Z" style="fill: #181716"/>
    <path d="M423.6,1227.492h-3.4v-2.8h-.08c-1.119,2.281-3.759,3.28-6.6,3.28-6.358,0-9.518-5.039-9.518-10.878s3.12-10.758,9.438-10.758c2.12,0,5.159.8,6.679,3.239h.08v-10.638h3.4Zm-9.6-2.519c4.558,0,6.318-3.919,6.318-7.8,0-4.079-1.84-7.839-6.518-7.839-4.64,0-6.2,3.96-6.2,8C407.607,1221.213,409.607,1224.973,414.007,1224.973Z" style="fill: #181716"/>
    <path d="M445.965,1227.492h-3.2v-3.279h-.08a7.2,7.2,0,0,1-6.719,3.759c-5.44,0-7.119-3.119-7.119-7.559v-13.6h3.4v14a3.9,3.9,0,0,0,4.2,4.16c4.119,0,6.119-2.76,6.119-6.479v-11.679h3.4Z" style="fill: #181716"/>
    <path d="M454.687,1203.1h-3.4v-4.16h3.4Zm-3.4,3.718h3.4v20.677h-3.4Z" style="fill: #181716"/>
    <path d="M464.686,1206.815h4.12v3h-4.12v12.838c0,1.56.44,1.84,2.559,1.84h1.561v3h-2.6c-3.519,0-4.92-.72-4.92-4.519v-13.158h-3.518v-3h3.518v-6.2h3.4Z" style="fill: #181716"/>
    <path d="M474.646,1220.974c.12,3.039,2.759,4,5.559,4,2.12,0,5-.48,5-3.079,0-2.64-3.359-3.081-6.759-3.84-3.359-.76-6.758-1.88-6.758-5.839,0-4.159,4.119-5.879,7.718-5.879,4.56,0,8.2,1.439,8.479,6.478h-3.4c-.24-2.639-2.559-3.479-4.8-3.479-2.04,0-4.4.561-4.4,2.64,0,2.439,3.6,2.839,6.759,3.6,3.4.76,6.759,1.88,6.759,5.879,0,4.919-4.6,6.519-8.8,6.519-4.639,0-8.559-1.879-8.758-7Z" style="fill: #181716"/>
    <path d="M503.566,1206.815h3.2v4.36h.08c1.639-3.32,3.92-4.959,7.6-4.839v3.6c-5.478,0-7.478,3.119-7.478,8.358v9.2h-3.4Z" style="fill: #181716"/>
    <path d="M535.323,1227.412a4.586,4.586,0,0,1-2.44.56c-1.76,0-2.879-.959-2.879-3.2a9.173,9.173,0,0,1-7.279,3.2c-3.759,0-6.839-1.68-6.839-5.8,0-4.679,3.479-5.679,7-6.359,3.76-.719,6.959-.48,6.959-3.04,0-2.959-2.44-3.439-4.6-3.439-2.879,0-5,.88-5.159,3.92h-3.4c.2-5.119,4.16-6.919,8.758-6.919,3.72,0,7.759.84,7.759,5.679v10.638c0,1.6,0,2.32,1.08,2.32a2.905,2.905,0,0,0,1.04-.2Zm-5.519-10.6c-1.32.959-3.879,1-6.159,1.4-2.24.4-4.16,1.2-4.16,3.72,0,2.239,1.92,3.039,4,3.039,4.48,0,6.32-2.8,6.32-4.68Z" style="fill: #181716"/>
    <path d="M539.885,1209.815h-3.48v-3h3.48v-3.079c0-3.359,2-5.119,5.719-5.119a8.36,8.36,0,0,1,2.2.32v2.959a6.377,6.377,0,0,0-1.92-.28c-1.64,0-2.6.521-2.6,2.321v2.878h4v3h-4v17.677h-3.4Z" style="fill: #181716"/>
    <path d="M551.725,1209.815h-3.48v-3h3.48v-3.079c0-3.359,2-5.119,5.719-5.119a8.36,8.36,0,0,1,2.2.32v2.959a6.377,6.377,0,0,0-1.92-.28c-1.64,0-2.6.521-2.6,2.321v2.878h4v3h-4v17.677h-3.4Zm10.638-6.718v-4.16h3.4v4.16Zm0,24.395v-20.677h3.4v20.677Z" style="fill: #181716"/>
    <path d="M571.045,1206.815h3.2v3.28h.08a7.2,7.2,0,0,1,6.719-3.759c5.439,0,7.119,3.119,7.119,7.559v13.6h-3.4v-14a3.9,3.9,0,0,0-4.2-4.159c-4.119,0-6.119,2.76-6.119,6.479v11.678h-3.4Z" style="fill: #181716"/>
    <path d="M610.921,1220.934c-.92,4.558-4.2,7.038-8.838,7.038-6.6,0-9.719-4.559-9.919-10.878,0-6.2,4.08-10.758,9.719-10.758,7.318,0,9.558,6.839,9.358,11.838H595.764c-.12,3.6,1.92,6.8,6.439,6.8,2.8,0,4.759-1.36,5.359-4.039Zm-3.279-5.76a5.951,5.951,0,0,0-5.959-5.839c-3.56,0-5.679,2.68-5.919,5.839Zm-5.16-16.917h4.36l-5.239,5.72h-2.56Z" style="fill: #181716"/>
    <path d="M616.844,1220.974c.119,3.039,2.759,4,5.558,4,2.12,0,5-.48,5-3.079,0-2.64-3.359-3.081-6.758-3.84-3.36-.76-6.759-1.88-6.759-5.839,0-4.159,4.119-5.879,7.719-5.879,4.559,0,8.2,1.439,8.478,6.478h-3.4c-.241-2.639-2.56-3.479-4.8-3.479-2.04,0-4.4.561-4.4,2.64,0,2.439,3.6,2.839,6.759,3.6,3.4.76,6.759,1.88,6.759,5.879,0,4.919-4.6,6.519-8.8,6.519-4.639,0-8.558-1.879-8.758-7Z" style="fill: #181716"/>
    <path d="M663.521,1220.934c-.92,4.558-4.2,7.038-8.838,7.038-6.6,0-9.719-4.559-9.919-10.878,0-6.2,4.08-10.758,9.718-10.758,7.319,0,9.559,6.839,9.359,11.838H648.363c-.12,3.6,1.92,6.8,6.44,6.8,2.8,0,4.759-1.36,5.358-4.039Zm-3.28-5.76a5.949,5.949,0,0,0-5.959-5.839c-3.559,0-5.678,2.68-5.919,5.839Z" style="fill: #181716"/>
    <path d="M672.082,1206.815h4.12v3h-4.12v12.838c0,1.56.44,1.84,2.56,1.84h1.56v3h-2.6c-3.52,0-4.92-.72-4.92-4.519v-13.158h-3.519v-3h3.519v-6.2h3.4Z" style="fill: #181716"/>
    <path d="M691.2,1198.937h3.4v10.678h.08c1.119-2.279,3.758-3.279,6.6-3.279,6.36,0,9.519,5.039,9.519,10.878s-3.119,10.758-9.439,10.758c-2.12,0-5.159-.8-6.678-3.24h-.08v2.76h-3.4Zm9.6,10.4c-4.56,0-6.32,3.92-6.32,7.8,0,4.079,1.84,7.839,6.519,7.839,4.64,0,6.2-3.959,6.2-8C707.2,1213.1,705.2,1209.335,700.8,1209.335Z" style="fill: #181716"/>
    <path d="M718.4,1203.1H715v-4.16h3.4Zm-3.4,3.718h3.4v20.677H715Z" style="fill: #181716"/>
    <path d="M732.6,1206.336c6.558,0,10.038,4.759,10.038,10.838,0,6.039-3.48,10.8-10.038,10.8s-10.039-4.759-10.039-10.8C722.562,1211.1,726.041,1206.336,732.6,1206.336Zm0,18.637c3.558,0,6.438-2.8,6.438-7.8,0-5.039-2.88-7.839-6.438-7.839s-6.44,2.8-6.44,7.839C726.161,1222.173,729.041,1224.973,732.6,1224.973Z" style="fill: #181716"/>
    <path d="M760.68,1213.454a4.815,4.815,0,0,0-5.119-4.119c-4.92,0-6.44,3.88-6.44,8.079,0,3.8,1.72,7.559,6.039,7.559,3.279,0,5.239-1.92,5.679-5.039h3.479c-.759,5.039-3.919,8.038-9.118,8.038-6.319,0-9.679-4.4-9.679-10.558,0-6.2,3.2-11.078,9.759-11.078,4.679,0,8.439,2.2,8.918,7.118Z" style="fill: #181716"/>
    <path d="M786.438,1227.412a4.586,4.586,0,0,1-2.44.56c-1.76,0-2.879-.959-2.879-3.2a9.171,9.171,0,0,1-7.279,3.2c-3.759,0-6.839-1.68-6.839-5.8,0-4.679,3.479-5.679,7-6.359,3.76-.719,6.959-.48,6.959-3.04,0-2.959-2.439-3.439-4.6-3.439-2.879,0-5,.88-5.159,3.92h-3.4c.2-5.119,4.16-6.919,8.759-6.919,3.719,0,7.758.84,7.758,5.679v10.638c0,1.6,0,2.32,1.08,2.32a2.9,2.9,0,0,0,1.04-.2Zm-5.519-10.6c-1.319.959-3.879,1-6.159,1.4-2.239.4-4.159,1.2-4.159,3.72,0,2.239,1.92,3.039,4,3.039,4.479,0,6.319-2.8,6.319-4.68Z" style="fill: #181716"/>
    <path d="M789.48,1206.815h3.2v4.36h.08c1.639-3.32,3.92-4.959,7.6-4.839v3.6c-5.478,0-7.478,3.119-7.478,8.358v9.2h-3.4Z" style="fill: #181716"/>
    <path d="M803.04,1198.937h3.4v10.678h.081c1.119-2.279,3.758-3.279,6.6-3.279,6.36,0,9.519,5.039,9.519,10.878s-3.119,10.758-9.439,10.758c-2.12,0-5.159-.8-6.678-3.24h-.081v2.76h-3.4Zm9.6,10.4c-4.56,0-6.32,3.92-6.32,7.8,0,4.079,1.84,7.839,6.519,7.839,4.64,0,6.2-3.959,6.2-8C819.037,1213.1,817.037,1209.335,812.639,1209.335Z" style="fill: #181716"/>
    <path d="M843.757,1227.492h-3.2v-3.279h-.08a7.2,7.2,0,0,1-6.719,3.759c-5.44,0-7.119-3.119-7.119-7.559v-13.6h3.4v14a3.9,3.9,0,0,0,4.2,4.16c4.119,0,6.119-2.76,6.119-6.479v-11.679h3.4Z" style="fill: #181716"/>
    <path d="M848.76,1206.815h3.2v4.36h.08c1.64-3.32,3.92-4.959,7.6-4.839v3.6c-5.479,0-7.479,3.119-7.479,8.358v9.2h-3.4Z" style="fill: #181716"/>
    <path d="M880.517,1227.412a4.592,4.592,0,0,1-2.441.56c-1.76,0-2.879-.959-2.879-3.2a9.171,9.171,0,0,1-7.279,3.2c-3.759,0-6.839-1.68-6.839-5.8,0-4.679,3.48-5.679,7-6.359,3.76-.719,6.959-.48,6.959-3.04,0-2.959-2.439-3.439-4.6-3.439-2.879,0-5,.88-5.16,3.92h-3.4c.2-5.119,4.16-6.919,8.759-6.919,3.719,0,7.758.84,7.758,5.679v10.638c0,1.6,0,2.32,1.081,2.32a2.909,2.909,0,0,0,1.04-.2Zm-5.52-10.6c-1.319.959-3.879,1-6.159,1.4-2.239.4-4.159,1.2-4.159,3.72,0,2.239,1.92,3.039,4,3.039,4.479,0,6.319-2.8,6.319-4.68Z" style="fill: #181716"/>
    <path d="M883.679,1206.815h3.2v3.28h.08a7.2,7.2,0,0,1,6.719-3.759c5.439,0,7.119,3.119,7.119,7.559v13.6h-3.4v-14a3.9,3.9,0,0,0-4.2-4.159c-4.119,0-6.119,2.76-6.119,6.479v11.678h-3.4Z" style="fill: #181716"/>
    <path d="M910.638,1206.815h4.12v3h-4.12v12.838c0,1.56.44,1.84,2.559,1.84h1.561v3h-2.6c-3.519,0-4.92-.72-4.92-4.519v-13.158H903.72v-3h3.518v-6.2h3.4Z" style="fill: #181716"/>
    <path d="M920.6,1220.974c.119,3.039,2.758,4,5.558,4,2.12,0,5-.48,5-3.079,0-2.64-3.359-3.081-6.759-3.84-3.359-.76-6.758-1.88-6.758-5.839,0-4.159,4.119-5.879,7.718-5.879,4.56,0,8.2,1.439,8.479,6.478h-3.4c-.241-2.639-2.56-3.479-4.8-3.479-2.04,0-4.4.561-4.4,2.64,0,2.439,3.6,2.839,6.759,3.6,3.4.76,6.759,1.88,6.759,5.879,0,4.919-4.6,6.519-8.8,6.519-4.639,0-8.559-1.879-8.758-7Z" style="fill: #181716"/>
  </g>
  <line x1="1383.753" y1="1215.493" x2="1443.785" y2="1215.493" style="fill: none;stroke: #fbd51d;stroke-linecap: round;stroke-linejoin: round;stroke-width: 8px"/>
  <g>
    <path d="M1462.024,1198.937h19.717v3.2h-15.917v9.078h14.838v3.2h-14.838v9.879h16.037v3.2h-19.837Zm10.119-7.758h4.359l-5.238,5.718h-2.56Z" style="fill: #181716"/>
    <path d="M1486.1,1198.937h3.4v28.555h-3.4Z" style="fill: #181716"/>
    <path d="M1512.421,1220.934c-.92,4.558-4.2,7.038-8.838,7.038-6.6,0-9.719-4.559-9.919-10.878,0-6.2,4.08-10.758,9.719-10.758,7.318,0,9.558,6.839,9.358,11.838h-15.477c-.12,3.6,1.92,6.8,6.439,6.8,2.8,0,4.759-1.36,5.359-4.039Zm-3.279-5.76a5.951,5.951,0,0,0-5.959-5.839c-3.56,0-5.679,2.68-5.919,5.839Z" style="fill: #181716"/>
    <path d="M1530.3,1213.454a4.815,4.815,0,0,0-5.119-4.119c-4.92,0-6.44,3.88-6.44,8.079,0,3.8,1.72,7.559,6.039,7.559,3.28,0,5.239-1.92,5.679-5.039h3.479c-.759,5.039-3.919,8.038-9.118,8.038-6.319,0-9.678-4.4-9.678-10.558,0-6.2,3.2-11.078,9.758-11.078,4.679,0,8.439,2.2,8.918,7.118Z" style="fill: #181716"/>
    <path d="M1542.462,1206.815h4.12v3h-4.12v12.838c0,1.56.44,1.84,2.559,1.84h1.561v3h-2.6c-3.519,0-4.92-.72-4.92-4.519v-13.158h-3.518v-3h3.518v-6.2h3.4Z" style="fill: #181716"/>
    <path d="M1550.223,1206.815h3.2v4.36h.08c1.64-3.32,3.92-4.959,7.6-4.839v3.6c-5.479,0-7.479,3.119-7.479,8.358v9.2h-3.4Z" style="fill: #181716"/>
    <path d="M1567.262,1203.1h-3.4v-4.16h3.4Zm-3.4,3.718h3.4v20.677h-3.4Z" style="fill: #181716"/>
    <path d="M1586.579,1213.454a4.813,4.813,0,0,0-5.119-4.119c-4.92,0-6.439,3.88-6.439,8.079,0,3.8,1.719,7.559,6.039,7.559,3.279,0,5.239-1.92,5.678-5.039h3.48c-.76,5.039-3.919,8.038-9.118,8.038-6.32,0-9.679-4.4-9.679-10.558,0-6.2,3.2-11.078,9.759-11.078,4.678,0,8.438,2.2,8.918,7.118Z" style="fill: #181716"/>
    <path d="M1597.62,1203.1h-3.4v-4.16h3.4Zm-3.4,3.718h3.4v20.677h-3.4Z" style="fill: #181716"/>
    <path d="M1607.619,1206.815h4.12v3h-4.12v12.838c0,1.56.441,1.84,2.56,1.84h1.56v3h-2.6c-3.52,0-4.92-.72-4.92-4.519v-13.158H1600.7v-3h3.519v-6.2h3.4Z" style="fill: #181716"/>
    <path d="M1633.137,1220.934c-.92,4.558-4.2,7.038-8.838,7.038-6.6,0-9.719-4.559-9.919-10.878,0-6.2,4.08-10.758,9.719-10.758,7.318,0,9.558,6.839,9.358,11.838h-15.478c-.12,3.6,1.92,6.8,6.44,6.8,2.8,0,4.759-1.36,5.358-4.039Zm-3.28-5.76a5.949,5.949,0,0,0-5.959-5.839c-3.559,0-5.678,2.68-5.919,5.839Zm-5.159-16.917h4.36l-5.24,5.72h-2.559Z" style="fill: #181716"/>
  </g>
  <line x1="1908.173" y1="983.415" x2="1908.173" y2="997.671" style="fill: none;stroke: #181716;stroke-linejoin: round;stroke-width: 2.4000000953674316px"/>
  <g style="clip-path: url(#clip-path)">
    <g>
      <path d="M6.52,8.508H31.5v4.219H11.066V23.18H29.957v3.984H11.066V38.836H31.855v4.1H6.52Z" style="fill: #181716"/>
      <path d="M37.047,17.836h4.008V21.4a11.252,11.252,0,0,1,3.774-3.164,10.068,10.068,0,0,1,4.429-.961q5.344,0,7.219,3.727a13.226,13.226,0,0,1,1.031,5.836v16.1H53.219V27.117a8.571,8.571,0,0,0-.679-3.7,4.123,4.123,0,0,0-4.079-2.344,8.309,8.309,0,0,0-2.461.3,6.334,6.334,0,0,0-3.046,2.063A6.185,6.185,0,0,0,41.583,26a17.262,17.262,0,0,0-.317,3.785V42.938H37.047Z" style="fill: #181716"/>
      <path d="M74.727,17.836H78.9V21.4A14.059,14.059,0,0,1,81.617,18.7a8.18,8.18,0,0,1,4.735-1.43A7.453,7.453,0,0,1,91.18,18.75a7.733,7.733,0,0,1,1.875,2.484,9.129,9.129,0,0,1,3.3-2.988,9.227,9.227,0,0,1,4.266-.973q5.063,0,6.891,3.657a11.954,11.954,0,0,1,.984,5.3V42.938h-4.383V25.5q0-2.508-1.254-3.445a4.962,4.962,0,0,0-3.058-.938,6.075,6.075,0,0,0-4.278,1.664q-1.793,1.665-1.793,5.555v14.6H89.445V26.555a8.519,8.519,0,0,0-.609-3.727A3.716,3.716,0,0,0,85.25,21.07,6.19,6.19,0,0,0,80.9,22.922q-1.956,1.851-1.957,6.7V42.938H74.727Z" style="fill: #181716"/>
      <path d="M114.183,8.508h4.289v4.781h-4.289Zm0,9.445h4.289V42.938h-4.289Z" style="fill: #181716"/>
      <path d="M124.436,8.508h4.219v34.43h-4.219Z" style="fill: #181716"/>
      <path d="M134.572,8.508h4.219v34.43h-4.219Z" style="fill: #181716"/>
      <path d="M144.591,8.508h4.289v4.781h-4.289Zm0,9.445h4.289V42.938h-4.289Z" style="fill: #181716"/>
      <path d="M168.181,27.746a2.291,2.291,0,0,0,1.945-1.216,3.747,3.747,0,0,0,.281-1.624,3.445,3.445,0,0,0-1.532-3.14,8.184,8.184,0,0,0-4.386-.977q-3.3,0-4.678,1.79a5.918,5.918,0,0,0-1.006,2.944h-3.937q.117-4.653,3.007-6.475a12.321,12.321,0,0,1,6.708-1.821,13.637,13.637,0,0,1,7.187,1.687,5.728,5.728,0,0,1,2.738,5.251V38.626a1.852,1.852,0,0,0,.27,1.055,1.3,1.3,0,0,0,1.137.4q.281,0,.632-.035t.75-.1v3.117a11.816,11.816,0,0,1-1.5.351,10.9,10.9,0,0,1-1.406.071,3.47,3.47,0,0,1-3.164-1.547,5.97,5.97,0,0,1-.727-2.32,10.734,10.734,0,0,1-3.7,2.93,11.464,11.464,0,0,1-5.32,1.241,7.919,7.919,0,0,1-5.707-2.118,7.033,7.033,0,0,1-2.215-5.3,6.824,6.824,0,0,1,2.18-5.407,10.378,10.378,0,0,1,5.719-2.365Zm-8.884,11.4a4.96,4.96,0,0,0,3.164,1.052,9.639,9.639,0,0,0,4.313-1.029,5.794,5.794,0,0,0,3.516-5.593V30.18A7.184,7.184,0,0,1,168.3,31a16.762,16.762,0,0,1-2.385.47l-2.55.327a9.873,9.873,0,0,0-3.448.959,3.731,3.731,0,0,0-1.957,3.508A3.465,3.465,0,0,0,159.3,39.143Z" style="fill: #181716"/>
      <path d="M181.012,17.836h4.008v4.336a9.565,9.565,0,0,1,2.414-3.082,6.257,6.257,0,0,1,4.429-1.817q.117,0,.4.024c.187.015.508.047.961.094v4.453a6.374,6.374,0,0,0-.692-.094c-.211-.016-.441-.023-.691-.023a6.022,6.022,0,0,0-4.9,2.05A7.165,7.165,0,0,0,185.23,28.5V42.938h-4.218Z" style="fill: #181716"/>
      <path d="M210.142,18.609a11.333,11.333,0,0,1,2.545,2.461V8.391h4.055V42.938h-3.8V39.445a9.119,9.119,0,0,1-3.479,3.352,9.935,9.935,0,0,1-4.6,1.031,9.3,9.3,0,0,1-7.238-3.527q-3.058-3.528-3.058-9.387a16.25,16.25,0,0,1,2.79-9.5,9.121,9.121,0,0,1,7.973-4.019A8.871,8.871,0,0,1,210.142,18.609ZM200.725,37.43a5.957,5.957,0,0,0,5.457,2.718,5.738,5.738,0,0,0,4.792-2.519q1.877-2.52,1.877-7.231,0-4.756-1.935-7.043a6.028,6.028,0,0,0-4.781-2.285,6.3,6.3,0,0,0-5.142,2.438q-1.969,2.438-1.97,7.172A12.493,12.493,0,0,0,200.725,37.43Z" style="fill: #181716"/>
      <path d="M225.026,35.062A6.049,6.049,0,0,0,226.1,38.3q1.628,2.038,5.646,2.039a8.461,8.461,0,0,0,4.21-1.02,3.372,3.372,0,0,0,1.818-3.152,2.689,2.689,0,0,0-1.453-2.461,17.466,17.466,0,0,0-3.668-1.2l-3.406-.844a16.757,16.757,0,0,1-4.811-1.781,5.308,5.308,0,0,1-2.764-4.735,7.192,7.192,0,0,1,2.6-5.765,10.465,10.465,0,0,1,7-2.2q5.748,0,8.289,3.328a7.164,7.164,0,0,1,1.545,4.547H237.12a4.779,4.779,0,0,0-1.032-2.588q-1.488-1.654-5.158-1.655a6.294,6.294,0,0,0-3.707.911,2.832,2.832,0,0,0-1.26,2.405,2.952,2.952,0,0,0,1.656,2.616,10,10,0,0,0,2.817,1.029l2.842.68a22.254,22.254,0,0,1,6.209,2.133,5.648,5.648,0,0,1,2.461,5.086,7.709,7.709,0,0,1-2.575,5.789Q236.8,43.9,231.531,43.9q-5.672,0-8.032-2.543a9.55,9.55,0,0,1-2.528-6.293Z" style="fill: #181716"/>
      <path d="M271.293,18.609a11.333,11.333,0,0,1,2.545,2.461V8.391h4.055V42.938h-3.8V39.445a9.119,9.119,0,0,1-3.479,3.352,9.935,9.935,0,0,1-4.6,1.031,9.3,9.3,0,0,1-7.238-3.527q-3.058-3.528-3.058-9.387a16.243,16.243,0,0,1,2.79-9.5,9.121,9.121,0,0,1,7.972-4.019A8.874,8.874,0,0,1,271.293,18.609ZM261.876,37.43a5.957,5.957,0,0,0,5.457,2.718,5.738,5.738,0,0,0,4.792-2.519Q274,35.109,274,30.4q0-4.756-1.936-7.043a6.025,6.025,0,0,0-4.78-2.285,6.3,6.3,0,0,0-5.142,2.438q-1.969,2.438-1.97,7.172A12.493,12.493,0,0,0,261.876,37.43Z" style="fill: #181716"/>
      <path d="M288.5,8.508l-.774,13.781h-2.719l-.773-13.781Z" style="fill: #181716"/>
      <path d="M307.858,18.527a9.511,9.511,0,0,1,3.8,3.246,11.232,11.232,0,0,1,1.677,4.43,29.1,29.1,0,0,1,.373,5.531H295.447a10.852,10.852,0,0,0,1.791,6.146,5.968,5.968,0,0,0,5.186,2.315,6.666,6.666,0,0,0,5.232-2.189,7.465,7.465,0,0,0,1.549-2.944h4.149a8.758,8.758,0,0,1-1.09,3.083,11.115,11.115,0,0,1-2.066,2.777,9.73,9.73,0,0,1-4.721,2.531,14.25,14.25,0,0,1-3.42.375,10.476,10.476,0,0,1-7.9-3.41q-3.237-3.409-3.237-9.551a14.483,14.483,0,0,1,3.261-9.82,10.728,10.728,0,0,1,8.525-3.774A11.325,11.325,0,0,1,307.858,18.527Zm1.511,9.856A11.026,11.026,0,0,0,308.184,24a6.064,6.064,0,0,0-5.741-3.047,6.338,6.338,0,0,0-4.834,2.1,7.96,7.96,0,0,0-2.068,5.332Z" style="fill: #181716"/>
      <path d="M322.74,17.836V34.5a7.2,7.2,0,0,0,.593,3.141,4.119,4.119,0,0,0,4.086,2.25,5.775,5.775,0,0,0,5.843-3.938,16,16,0,0,0,.845-5.789V17.836h4.219v25.1h-3.985l.047-3.7a8.453,8.453,0,0,1-2,2.414,8.694,8.694,0,0,1-5.749,1.969q-5.267,0-7.175-3.586a10.85,10.85,0,0,1-1.035-5.133V17.836Z" style="fill: #181716"/>
      <path d="M344.805,17.836h4.008v4.336a9.579,9.579,0,0,1,2.414-3.082,6.26,6.26,0,0,1,4.43-1.817c.078,0,.211.008.4.024s.508.047.961.094v4.453a6.358,6.358,0,0,0-.691-.094c-.211-.016-.442-.023-.692-.023a6.019,6.019,0,0,0-4.9,2.05,7.159,7.159,0,0,0-1.711,4.723V42.938h-4.219Z" style="fill: #181716"/>
      <path d="M378.332,20.341q3.328,3.232,3.328,9.507a16.384,16.384,0,0,1-2.932,10.023q-2.934,3.957-9.1,3.957a10.246,10.246,0,0,1-8.169-3.5q-3.026-3.5-3.025-9.4,0-6.323,3.188-10.069a10.671,10.671,0,0,1,8.565-3.747A11.252,11.252,0,0,1,378.332,20.341Zm-2.62,16.682a15.925,15.925,0,0,0,1.542-7.057,12.684,12.684,0,0,0-1.112-5.712,6.249,6.249,0,0,0-6.073-3.465,5.97,5.97,0,0,0-5.561,2.95,13.778,13.778,0,0,0-1.738,7.116,11.982,11.982,0,0,0,1.738,6.672,6.1,6.1,0,0,0,5.515,2.668Q374.172,40.2,375.712,37.023Z" style="fill: #181716"/>
      <path d="M388.82,35.062A6.049,6.049,0,0,0,389.9,38.3q1.626,2.038,5.646,2.039a8.454,8.454,0,0,0,4.209-1.02,3.371,3.371,0,0,0,1.819-3.152,2.691,2.691,0,0,0-1.453-2.461,17.466,17.466,0,0,0-3.668-1.2l-3.407-.844a16.781,16.781,0,0,1-4.811-1.781,5.309,5.309,0,0,1-2.763-4.735,7.192,7.192,0,0,1,2.6-5.765,10.465,10.465,0,0,1,7-2.2q5.748,0,8.289,3.328a7.164,7.164,0,0,1,1.545,4.547h-3.984a4.787,4.787,0,0,0-1.032-2.588q-1.488-1.654-5.158-1.655a6.294,6.294,0,0,0-3.707.911,2.832,2.832,0,0,0-1.26,2.405,2.952,2.952,0,0,0,1.656,2.616,10,10,0,0,0,2.817,1.029l2.842.68a22.254,22.254,0,0,1,6.209,2.133,5.648,5.648,0,0,1,2.461,5.086,7.709,7.709,0,0,1-2.575,5.789q-2.574,2.438-7.842,2.437-5.673,0-8.033-2.543a9.549,9.549,0,0,1-2.527-6.293Z" style="fill: #181716"/>
      <path d="M421.5,35.391q1.558-3.211,6.082-5.836l4.5-2.6a21.118,21.118,0,0,0,4.242-3,6.18,6.18,0,0,0,1.922-4.462,6.233,6.233,0,0,0-1.758-4.661A6.4,6.4,0,0,0,431.8,13.1q-4.337,0-6,3.291a11.793,11.793,0,0,0-.984,4.888h-4.29a15.056,15.056,0,0,1,1.618-7.148q2.742-4.875,9.679-4.875,5.766,0,8.426,3.117a10.426,10.426,0,0,1,2.66,6.937,9.429,9.429,0,0,1-2.836,6.891,27.747,27.747,0,0,1-5.882,4.031l-3.211,1.782a20.713,20.713,0,0,0-3.61,2.414,8.793,8.793,0,0,0-2.953,4.523h18.328v3.985H419.7A19.567,19.567,0,0,1,421.5,35.391Z" style="fill: #181716"/>
      <path d="M466.775,14.742q2.25,4.149,2.25,11.367a27.366,27.366,0,0,1-2.039,11.321q-2.952,6.422-9.656,6.422a9.67,9.67,0,0,1-9-5.25q-2.461-4.383-2.461-11.766a29.048,29.048,0,0,1,1.477-9.82q2.764-7.641,10.008-7.641Q463.869,9.375,466.775,14.742ZM462.53,37.1q1.949-2.907,1.949-10.829a26.714,26.714,0,0,0-1.409-9.41,5.359,5.359,0,0,0-5.47-3.691,5.718,5.718,0,0,0-5.458,3.5q-1.727,3.5-1.726,10.324a25.3,25.3,0,0,0,1.1,8.25q1.689,4.758,5.774,4.758A6.019,6.019,0,0,0,462.53,37.1Z" style="fill: #181716"/>
      <path d="M473.83,35.391q1.559-3.211,6.082-5.836l4.5-2.6a21.178,21.178,0,0,0,4.242-3,6.184,6.184,0,0,0,1.922-4.462,6.233,6.233,0,0,0-1.758-4.661A6.4,6.4,0,0,0,484.13,13.1q-4.335,0-6,3.291a11.809,11.809,0,0,0-.984,4.888h-4.289a15.068,15.068,0,0,1,1.617-7.148q2.742-4.875,9.68-4.875,5.766,0,8.426,3.117a10.431,10.431,0,0,1,2.66,6.937A9.433,9.433,0,0,1,492.4,26.2a27.787,27.787,0,0,1-5.883,4.031l-3.211,1.782A20.739,20.739,0,0,0,479.7,34.43a8.787,8.787,0,0,0-2.953,4.523h18.328v3.985H472.037A19.567,19.567,0,0,1,473.83,35.391Z" style="fill: #181716"/>
      <path d="M519.11,14.742q2.25,4.149,2.25,11.367a27.366,27.366,0,0,1-2.039,11.321q-2.952,6.422-9.656,6.422a9.67,9.67,0,0,1-9-5.25Q498.2,34.219,498.2,26.836a29.048,29.048,0,0,1,1.477-9.82q2.765-7.641,10.007-7.641Q516.2,9.375,519.11,14.742ZM514.865,37.1q1.948-2.907,1.948-10.829a26.716,26.716,0,0,0-1.408-9.41,5.359,5.359,0,0,0-5.47-3.691,5.718,5.718,0,0,0-5.458,3.5q-1.726,3.5-1.726,10.324a25.33,25.33,0,0,0,1.1,8.25q1.69,4.758,5.775,4.758A6.019,6.019,0,0,0,514.865,37.1Z" style="fill: #181716"/>
    </g>
  </g>
  <line x1="1835.664" y1="983.415" x2="1835.664" y2="997.671" style="fill: none;stroke: #181716;stroke-width: 2.4000000953674316px"/>
  <line x1="1618.14" y1="983.415" x2="1618.14" y2="997.671" style="fill: none;stroke: #181716;stroke-width: 2.4000000953674316px"/>
  <line x1="1038.072" y1="983.415" x2="1038.072" y2="997.671" style="fill: none;stroke: #181716;stroke-width: 2.4000000953674316px"/>
  <line x1="458.004" y1="983.415" x2="458.004" y2="997.671" style="fill: none;stroke: #181716;stroke-width: 2.4000000953674316px"/>
  <line x1="1400.614" y1="983.415" x2="1400.614" y2="997.671" style="fill: none;stroke: #181716;stroke-width: 2.4000000953674316px"/>
  <line x1="820.546" y1="983.415" x2="820.546" y2="997.671" style="fill: none;stroke: #181716;stroke-width: 2.4000000953674316px"/>
  <line x1="240.478" y1="983.415" x2="240.478" y2="997.671" style="fill: none;stroke: #181716;stroke-width: 2.4000000953674316px"/>
  <line x1="1763.156" y1="983.415" x2="1763.156" y2="997.671" style="fill: none;stroke: #181716;stroke-width: 2.4000000953674316px"/>
  <line x1="1183.088" y1="983.415" x2="1183.088" y2="997.671" style="fill: none;stroke: #181716;stroke-width: 2.4000000953674316px"/>
  <line x1="603.02" y1="983.415" x2="603.02" y2="997.671" style="fill: none;stroke: #181716;stroke-width: 2.4000000953674316px"/>
  <line x1="1545.631" y1="983.415" x2="1545.631" y2="997.671" style="fill: none;stroke: #181716;stroke-width: 2.4000000953674316px"/>
  <line x1="965.563" y1="983.415" x2="965.563" y2="997.671" style="fill: none;stroke: #181716;stroke-width: 2.4000000953674316px"/>
  <line x1="385.495" y1="983.415" x2="385.495" y2="997.671" style="fill: none;stroke: #181716;stroke-width: 2.4000000953674316px"/>
  <line x1="1328.105" y1="983.415" x2="1328.105" y2="997.671" style="fill: none;stroke: #181716;stroke-width: 2.4000000953674316px"/>
  <line x1="748.037" y1="983.415" x2="748.037" y2="997.671" style="fill: none;stroke: #181716;stroke-width: 2.4000000953674316px"/>
  <line x1="167.969" y1="983.415" x2="167.969" y2="997.671" style="fill: none;stroke: #181716;stroke-width: 2.4000000953674316px"/>
  <line x1="1690.648" y1="983.415" x2="1690.648" y2="997.671" style="fill: none;stroke: #181716;stroke-width: 2.4000000953674316px"/>
  <line x1="1110.58" y1="983.415" x2="1110.58" y2="997.671" style="fill: none;stroke: #181716;stroke-width: 2.4000000953674316px"/>
  <line x1="530.512" y1="983.415" x2="530.512" y2="997.671" style="fill: none;stroke: #181716;stroke-width: 2.4000000953674316px"/>
  <line x1="1473.122" y1="983.415" x2="1473.122" y2="997.671" style="fill: none;stroke: #181716;stroke-width: 2.4000000953674316px"/>
  <line x1="893.054" y1="983.415" x2="893.054" y2="997.671" style="fill: none;stroke: #181716;stroke-width: 2.4000000953674316px"/>
  <line x1="312.987" y1="983.415" x2="312.987" y2="997.671" style="fill: none;stroke: #181716;stroke-width: 2.4000000953674316px"/>
  <line x1="1255.596" y1="983.415" x2="1255.596" y2="997.671" style="fill: none;stroke: #181716;stroke-width: 2.4000000953674316px"/>
  <line x1="675.529" y1="983.415" x2="675.529" y2="997.671" style="fill: none;stroke: #181716;stroke-width: 2.4000000953674316px"/>
  <line x1="95.461" y1="109.551" x2="95.461" y2="997.671" style="fill: none;stroke: #181716;stroke-width: 2.4000000953674316px"/>
  <line x1="1908.434" y1="984.662" x2="84.058" y2="984.662" style="fill: none;stroke: #181716;stroke-width: 2.4000000953674316px"/>
  <line x1="209.3" y1="718.596" x2="238.228" y2="525.316" style="fill: none;stroke: #da1918;stroke-linecap: round;stroke-linejoin: round;stroke-width: 8px;stroke-dasharray: 24.360000610351562,16.360000610351562"/>
  <line x1="254.031" y1="535.596" x2="268.367" y2="569.7" style="fill: none;stroke: #da1918;stroke-linecap: round;stroke-linejoin: round;stroke-width: 8px;stroke-dasharray: 27.327999114990234,19.327999114990234"/>
  <line x1="289.975" y1="569.405" x2="304.535" y2="544.141" style="fill: none;stroke: #da1918;stroke-linecap: round;stroke-linejoin: round;stroke-width: 8px;stroke-dasharray: 22.104000091552734,14.104000091552734"/>
  <line x1="398.548" y1="555.625" x2="413.036" y2="527.993" style="fill: none;stroke: #da1918;stroke-linecap: round;stroke-linejoin: round;stroke-width: 8px;stroke-dasharray: 23.472000122070312,15.472000122070312"/>
  <line x1="428.416" y1="483.12" x2="453.728" y2="372.72" style="fill: none;stroke: #da1918;stroke-linecap: round;stroke-linejoin: round;stroke-width: 8px;stroke-dasharray: 24.23200035095215,16.23200035095215"/>
  <line x1="470.62" y1="336.311" x2="485.372" y2="316.407" style="fill: none;stroke: #da1918;stroke-linecap: round;stroke-linejoin: round;stroke-width: 8px;stroke-dasharray: 19.18400001525879,11.184000015258789"/>
  <line x1="543.308" y1="341.934" x2="557.708" y2="373.078" style="fill: none;stroke: #da1918;stroke-linecap: round;stroke-linejoin: round;stroke-width: 8px;stroke-dasharray: 25.54400062561035,17.54400062561035"/>
  <line x1="643.318" y1="447.58" x2="672.238" y2="644.996" style="fill: none;stroke: #da1918;stroke-linecap: round;stroke-linejoin: round;stroke-width: 8px;stroke-dasharray: 24.79199981689453,16.79199981689453"/>
  <line x1="1085.508" y1="732.715" x2="1100.228" y2="753.555" style="fill: none;stroke: #da1918;stroke-linecap: round;stroke-linejoin: round;stroke-width: 8px;stroke-dasharray: 19.672000885009766,11.67199993133545"/>
  <line x1="1151.735" y1="708.817" x2="1177.079" y2="606.353" style="fill: none;stroke: #da1918;stroke-linecap: round;stroke-linejoin: round;stroke-width: 8px;stroke-dasharray: 22.823999404907227,14.824000358581543"/>
  <line x1="1302.667" y1="592.135" x2="1317.227" y2="566.903" style="fill: none;stroke: #da1918;stroke-linecap: round;stroke-linejoin: round;stroke-width: 8px;stroke-dasharray: 22.08799934387207,14.088000297546387"/>
  <line x1="1334.688" y1="525.688" x2="1356.408" y2="459.728" style="fill: none;stroke: #da1918;stroke-linecap: round;stroke-linejoin: round;stroke-width: 8px;stroke-dasharray: 23.27199935913086,15.272000312805176"/>
  <line x1="1375.152" y1="414.373" x2="1389.568" y2="383.701" style="fill: none;stroke: #da1918;stroke-linecap: round;stroke-linejoin: round;stroke-width: 8px;stroke-dasharray: 25.263999938964844,17.263999938964844"/>
  <line x1="1443.298" y1="351.532" x2="1464.914" y2="271.004" style="fill: none;stroke: #da1918;stroke-linecap: round;stroke-linejoin: round;stroke-width: 8px;stroke-dasharray: 27.24799919128418,19.24799919128418"/>
  <line x1="1476.02" y1="277.412" x2="1503.492" y2="433.532" style="fill: none;stroke: #da1918;stroke-linecap: round;stroke-linejoin: round;stroke-width: 8px;stroke-dasharray: 24.871999740600586,16.871999740600586"/>
  <line x1="1519.909" y1="423.091" x2="1534.237" y2="388.403" style="fill: none;stroke: #da1918;stroke-linecap: round;stroke-linejoin: round;stroke-width: 8px;stroke-dasharray: 27.687999725341797,19.687999725341797"/>
  <line x1="1549.584" y1="340.634" x2="1574.92" y2="236.69" style="fill: none;stroke: #da1918;stroke-linecap: round;stroke-linejoin: round;stroke-width: 8px;stroke-dasharray: 23.08799934387207,15.088000297546387"/>
  <line x1="1591.856" y1="200.538" x2="1606.568" y2="179.666" style="fill: none;stroke: #da1918;stroke-linecap: round;stroke-linejoin: round;stroke-width: 8px;stroke-dasharray: 19.687999725341797,11.687999725341797"/>
  <line x1="1660.217" y1="237.633" x2="1681.921" y2="306.017" style="fill: none;stroke: #da1918;stroke-linecap: round;stroke-linejoin: round;stroke-width: 8px;stroke-dasharray: 23.92799949645996,15.928000450134277"/>
  <line x1="1694.3" y1="353.973" x2="1719.596" y2="469.277" style="fill: none;stroke: #da1918;stroke-linecap: round;stroke-linejoin: round;stroke-width: 8px;stroke-dasharray: 25.09600067138672,17.09600067138672"/>
  <line x1="1736.867" y1="518.628" x2="1751.243" y2="551.028" style="fill: none;stroke: #da1918;stroke-linecap: round;stroke-linejoin: round;stroke-width: 8px;stroke-dasharray: 26.29599952697754,18.29599952697754"/>
  <line x1="1773.003" y1="544.049" x2="1787.411" y2="513.065" style="fill: none;stroke: #da1918;stroke-linecap: round;stroke-linejoin: round;stroke-width: 8px;stroke-dasharray: 25.447999954223633,17.447999954223633"/>
  <line x1="1808.961" y1="473.395" x2="1823.577" y2="449.779" style="fill: none;stroke: #da1918;stroke-linecap: round;stroke-linejoin: round;stroke-width: 8px;stroke-dasharray: 21.18400001525879,13.184000015258789"/>
  <line x1="1873.842" y1="476.097" x2="1901.338" y2="622.625" style="fill: none;stroke: #da1918;stroke-linecap: round;stroke-linejoin: round;stroke-width: 8px;stroke-dasharray: 23.607999801635742,15.607999801635742"/>
  <path d="M1902.772,630.288l2.184,11.608m-47.08-196.968,10.912,4.224,2.176,11.6m-43.92-16.584,5.576-9.008,10.9,4.224m-52.44,65.768,5.368-11.544,5.568-9m-47.072,74.784,5.336,12.016,5.36-11.536m-44.216-82.248,2.688,12.256,5.328,12.024m-45.12-188.3,3.624,11.408,2.688,12.256m-49.168-138.824,10.312,12.6,3.616,11.4m-45.456-47.56,5.672-8.048,10.312,12.6m-49.216,49.92,2.736-11.224,5.672-8.04M1538,379.3l5.28-12.792,2.736-11.216m-41.056,86.536,2.152,12.248,5.288-12.792m-44.984-179.576,3.528-13.16,2.16,12.248m-49.144,116.856,10.816,5.624,3.536-13.16m-45.072,5.768,5.368-11.432,10.816,5.632M1358.8,452.48l3.64-11.056,5.376-11.432m-47.064,130.816,5.52-9.568,3.64-11.048m-50.776,76.688L1290.1,613.9l5.528-9.56m-52.408,12.44,10.72,6.952,10.968-2.984m-58.08-24.16,10.944,3.7,10.72,6.944m-49.632-8.064,2.744-11.08,10.936,3.688m-57.648,151.864,10.544-9.344,2.736-11.08m-44.584,35.112,5.68,8.04,10.536-9.344m-57.624-37.9,10.92-3.976,5.672,8.032m-52.344,14.976,10.5-9.848,10.92-3.976M989.82,758.6l10.944,3.624,10.5-9.848m-57.68-3.88,11.016,1.736,10.936,3.624M917.764,736.8l10.664,7.736,11.016,1.736m-57.688-37.744,10.5,9.768,10.664,7.736M845.052,683.88l11.04.776,10.5,9.776M809.068,687.1l10.856-4.976,11.04.776M773.236,708.24l10.52-9.56,10.864-4.968m-57.368,25.672,10.336,12.136,10.52-9.552M700.7,682.1l10.72,6.968,10.344,12.136m-48.3-47.9,1.792,12.264,10.72,6.96m-57.2-266.312,10.312,12.48,1.8,12.272m-48.8-50.728,10.832-5.3,10.32,12.488m-51.848-6.384,5.36,11.592,10.84-5.3m-57.968-76,10.96,3.1,5.368,11.584M488.7,311.92l5.712-7.7,10.968,3.1m-49.84,57.5L458.252,353l5.712-7.7M416.628,521.144l5.456-10.4,2.7-11.808M375.572,567.56l10.344,12.16,5.448-10.392m-52.608-34.792,10.992,2.648,10.336,12.16M308.06,538.032l5.52-9.576,10.984,2.656m-52.448,47.5,5.3,12.592,5.52-9.576m-43.5-64.4,1.808-12.04,5.3,12.592m-52.464,231.28,11-2.232,1.8-12.048M157.868,754.84l11.04-.68,11-2.232m-57.9,11.368,10.728-6.888,11.04-.688M96.572,779.64l10.728-6.888" style="fill: none;stroke: #da1918;stroke-linecap: round;stroke-linejoin: round;stroke-width: 8px"/>
  <path d="M87.458,693.474h8.864m-8.864-98.16h8.864M87.458,499.6h8.864m-8.864-98.16h8.864M87.458,305.73h8.864m-8.864-98.16h8.864m-8.864-95.712h8.864" style="fill: none;stroke: #9b9a9b;stroke-linejoin: round;stroke-width: 2.3440001010894775px"/>
  <path d="M96.572,868.755l35.624-2.408m0,0,37.72,4.816m0,0,35.624-2.408m0,0,35.624-14.44m0,0H276.78m0,0,37.72,2.408m0,0h35.624m0,0,35.624,2.4m0,0h35.624m0,0,37.72-7.216m0,0,35.616-4.816m0,0,35.624,7.224m0,0,37.72,7.216m0,0,35.624-2.408m0,0,35.624,2.408m0,0,35.624,7.224m0,0,37.712,9.632m0,0H748.26m0,0,35.624-7.224m0,0h35.624m0,0h37.72m0,0,35.616,7.224m0,0h35.624m0,0h35.624m0,0h37.72m0,0h35.624m0,0h35.624m0,0h37.712m0,0H1146.4m0,0h35.624m0,0h35.624m0,0h37.72m0,0h35.624m0,0,35.624-7.224m0,0,35.616-2.408m0,0h37.72m0,0,35.624,2.408m0,0,35.624-14.44m0,0,37.72,14.44m0,0,35.624-7.224m0,0,35.616-2.408m0,0h35.624m0,0,37.72,4.816m0,0,35.624,4.816m0,0,35.624,7.224m0,0h35.624m0,0,37.712-12.04m0,0h35.624m0,0,35.624,4.816m0,0,35.624,7.224" style="fill: none;stroke: #535656;stroke-linecap: round;stroke-linejoin: round;stroke-width: 8px"/>
  <path d="M96.572,792.431,132.2,770.583m0,0,37.72-7.28m0,0,35.624-7.288m0,0,35.624-228.184m0,0L276.78,622.5m0,0,37.72-60.688m0,0,35.624,9.712m0,0,35.624,48.552m0,0,35.624-60.688m0,0,37.72-121.384m0,0,35.616-24.272m0,0L530.332,472m0,0,37.72,63.112m0,0,35.624-21.848m0,0L639.3,559.391m0,0,35.624,199.056m0,0,37.712,7.28m0,0,35.624,26.7m0,0,35.624-31.56m0,0,35.624-12.136m0,0,37.72,9.712m0,0,35.616,19.424m0,0,35.624,2.424m0,0,35.624,4.856m0,0,37.72,7.28m0,0,35.624-36.416m0,0,35.624-12.136m0,0,37.712,41.272m0,0,35.624-24.28m0,0,35.624-116.52m0,0,35.624,26.7m0,0,37.72,24.272m0,0,35.624-2.424m0,0,35.624-38.84m0,0,35.616-77.68m0,0,37.72-48.552m0,0,35.624,14.568m0,0,35.624-92.248m0,0,37.72,189.344m0,0,35.624-36.408m0,0,35.616-109.24m0,0,35.624,9.712m0,0,37.72,29.128m0,0,35.624,53.408m0,0,35.624,92.24m0,0,35.624,43.7m0,0,37.712-48.552m0,0,35.624-26.7m0,0,35.624,24.272m0,0,35.624,114.1" style="fill: none;stroke: #6398a7;stroke-linecap: round;stroke-linejoin: round;stroke-width: 8px"/>
  <path d="M96.572,892.054H132.2m0,0h37.72m0,0L205.54,896.9m0,0,35.624,7.28m0,0H276.78m0,0,37.72-7.28m0,0,35.624,7.28m0,0h35.624m0,0h35.624m0,0,37.72-26.688m0,0,35.616-2.424m0,0,35.624-38.824m0,0h37.72m0,0,35.624,4.856m0,0,35.624-2.424m0,0,35.624,14.552m0,0L712.636,841.1m0,0,35.624,16.984m0,0,35.624-9.7m0,0,35.624,2.424m0,0,37.72-4.848m0,0,35.616,4.848m0,0,35.624,9.7m0,0h35.624m0,0,37.72,2.424m0,0,35.624,4.856m0,0,35.624,7.28m0,0,37.712,7.28m0,0,35.624-12.136m0,0,35.624-4.848m0,0,35.624,2.424m0,0,37.72-12.128m0,0,35.624,7.272m0,0,35.624-16.976m0,0,35.616-16.992m0,0,37.72-4.848m0,0,35.624,2.424m0,0,35.624-2.424m0,0,37.72-2.424m0,0,35.624-41.248m0,0,35.616-31.544m0,0,35.624-38.816m0,0,37.72,12.128m0,0,35.624,14.56m0,0,35.624,53.376m0,0,35.624,24.264m0,0,37.712-14.56m0,0,35.624-26.688m0,0,35.624-26.688m0,0,35.624,43.672" style="fill: none;stroke: #008a90;stroke-linecap: round;stroke-linejoin: round;stroke-width: 8px"/>
  <path d="M96.572,884.42H132.2m0,0h37.72m0,0H205.54m0,0h35.624m0,0,35.616-12.088m0,0,37.72-2.416m0,0,35.624-7.256m0,0,35.624-2.416m0,0,35.624-2.416m0,0,37.72-12.1m0,0,35.616-19.344m0,0,35.624-14.5m0,0,37.72,2.416m0,0,35.624-4.832m0,0,35.624-2.424m0,0,35.624,21.768m0,0,37.712,24.176m0,0L748.26,855.4m0,0h35.624m0,0,35.624-4.832m0,0,37.72-9.672m0,0,35.616,7.256m0,0,35.624,4.832m0,0h35.624m0,0h37.72m0,0,35.624-2.416m0,0,35.624-4.84m0,0,37.712,4.84m0,0H1146.4m0,0,35.624-24.184m0,0,35.624-14.5m0,0,37.72,7.256m0,0,35.624-4.84m0,0,35.624-2.416m0,0,35.616-14.5m0,0,37.72-24.184m0,0,35.624,12.088m0,0,35.624-41.1m0,0,37.72,29.016m0,0,35.624-7.256m0,0,35.616-21.76m0,0,35.624-12.088m0,0h37.72m0,0,35.624,36.272m0,0,35.624,14.5m0,0,35.624,24.176m0,0,37.712-7.248m0,0,35.624-19.344m0,0,35.624,21.76m0,0,35.624,33.848" style="fill: none;stroke: #c6c7ca;stroke-linecap: round;stroke-linejoin: round;stroke-width: 8px"/>
  <path d="M96.572,887.344H132.2m0,0,37.72,2.336m0,0,35.624-2.336m0,0h35.624m0,0L276.78,885m0,0H314.5m0,0h35.624m0,0,35.624-2.344m0,0,35.624-2.336m0,0,37.72,2.336m0,0,35.616,4.688m0,0L530.332,885m0,0,37.72,4.68m0,0,35.624,4.68m0,0L639.3,896.7m0,0,35.624,2.336m0,0h37.712m0,0H748.26m0,0,35.624,4.68m0,0,35.624,2.344m0,0,37.72,2.344m0,0,35.616,2.336m0,0,35.624,4.68m0,0,35.624,7.024m0,0h37.72m0,0h35.624m0,0h35.624m0,0,37.712-7.024m0,0,35.624,7.024m0,0h35.624m0,0h35.624m0,0h37.72m0,0,35.624-9.36m0,0,35.624-2.344m0,0,35.616,2.344m0,0,37.72,2.336m0,0,35.624-11.7m0,0,35.624,11.7m0,0,37.72-21.064m0,0,35.624,2.344m0,0,35.616,16.384m0,0,35.624-9.368m0,0h37.72m0,0,35.624,4.688m0,0h35.624m0,0,35.624-11.7m0,0,37.712,2.336m0,0,35.624,14.048m0,0,35.624-7.024m0,0,35.624-9.36" style="fill: none;stroke: #fbd51d;stroke-linecap: round;stroke-linejoin: round;stroke-width: 8px"/>
</svg>
