<svg id="Calque_1" data-name="Calque 1" xmlns="http://www.w3.org/2000/svg" xmlns:xlink="http://www.w3.org/1999/xlink" viewBox="0 0 1940 1050.638">
  <defs>
    <clipPath id="clip-path">
      <rect x="-11.29" y="9.354" width="1946.832" height="1043.152" style="fill: none"/>
    </clipPath>
  </defs>
  <rect x="182.59" y="942.234" width="34.016" height="34.016" style="fill: #3fc0ee"/>
  <g>
    <path d="M230.808,947.694h4.039l15.037,23.156h.08V947.694h3.6V976.25H249.4l-14.917-22.917h-.08V976.25h-3.6Z" style="fill: #181716"/>
    <path d="M268.085,955.093c6.56,0,10.039,4.759,10.039,10.838,0,6.04-3.479,10.8-10.039,10.8s-10.038-4.758-10.038-10.8C258.047,959.852,261.526,955.093,268.085,955.093Zm0,18.637c3.56,0,6.439-2.8,6.439-7.8,0-5.039-2.879-7.839-6.439-7.839s-6.439,2.8-6.439,7.839C261.646,970.93,264.526,973.73,268.085,973.73Z" style="fill: #181716"/>
    <path d="M282.006,955.573h3.2v4.359h.08c1.64-3.319,3.919-4.959,7.6-4.839v3.6c-5.479,0-7.479,3.119-7.479,8.358v9.2h-3.4Z" style="fill: #181716"/>
    <path d="M304.765,976.25h-3.64l-7.678-20.677h3.8l5.8,17.238h.08l5.639-17.238h3.559Z" style="fill: #181716"/>
    <path d="M333.083,969.691c-.919,4.559-4.2,7.038-8.838,7.038-6.6,0-9.719-4.558-9.918-10.878,0-6.2,4.079-10.758,9.718-10.758,7.319,0,9.558,6.839,9.358,11.838H317.926c-.12,3.6,1.92,6.8,6.439,6.8,2.8,0,4.759-1.359,5.359-4.039Zm-3.279-5.76a5.95,5.95,0,0,0-5.959-5.839c-3.559,0-5.679,2.68-5.919,5.839Zm-11.518-16.917h4.359l3.439,5.72h-2.559Z" style="fill: #181716"/>
    <path d="M354.763,974.49c0,6.719-3.08,10.158-9.6,10.158-3.88,0-8.359-1.559-8.559-6.079h3.4c.16,2.48,3.12,3.36,5.359,3.36,4.44,0,6.2-3.2,6.2-7.838V972.73h-.08a6.888,6.888,0,0,1-6.439,3.76c-6.159,0-9.238-4.84-9.238-10.479,0-4.879,2.4-10.918,9.558-10.918a6.745,6.745,0,0,1,6.159,3.44h.04v-2.96h3.2Zm-3.36-9c0-3.64-1.6-7.4-5.879-7.4-4.359,0-6.119,3.56-6.119,7.519,0,3.72,1.36,7.879,5.84,7.879S351.4,969.371,351.4,965.492Z" style="fill: #181716"/>
    <path d="M377.522,969.691c-.919,4.559-4.2,7.038-8.838,7.038-6.6,0-9.719-4.558-9.918-10.878,0-6.2,4.079-10.758,9.718-10.758,7.319,0,9.558,6.839,9.358,11.838H362.365c-.12,3.6,1.92,6.8,6.439,6.8,2.8,0,4.759-1.359,5.359-4.039Zm-3.279-5.76a5.95,5.95,0,0,0-5.959-5.839c-3.559,0-5.679,2.68-5.919,5.839Z" style="fill: #181716"/>
  </g>
  <rect x="654.59" y="942.234" width="34.016" height="34.016" style="fill: #800904"/>
  <g>
    <path d="M702.848,947.694h13.437c5.36,0,8.679,2.92,8.679,7.479,0,3.44-1.52,6.279-4.96,7.239v.08c3.32.639,4,3.08,4.28,5.879.24,2.8.08,5.919,1.679,7.879h-4.239c-1.079-1.16-.479-4.239-1.039-7.04-.4-2.8-1.081-5.159-4.76-5.159h-9.278v12.2h-3.8Zm11.717,13.158c3.56,0,6.6-.92,6.6-5.079,0-2.8-1.52-4.879-5.08-4.879h-9.438v9.958Z" style="fill: #181716"/>
    <path d="M746.805,976.25h-3.2v-3.279h-.08a7.2,7.2,0,0,1-6.719,3.758c-5.439,0-7.118-3.119-7.118-7.559v-13.6h3.4v14a3.9,3.9,0,0,0,4.2,4.159c4.12,0,6.119-2.76,6.119-6.479V955.573h3.4Z" style="fill: #181716"/>
    <path d="M754.007,969.731c.12,3.04,2.76,4,5.559,4,2.12,0,5-.479,5-3.079,0-2.64-3.359-3.08-6.759-3.84-3.359-.76-6.759-1.88-6.759-5.839,0-4.159,4.12-5.879,7.719-5.879,4.559,0,8.2,1.44,8.479,6.479h-3.4c-.24-2.64-2.559-3.48-4.8-3.48-2.04,0-4.4.561-4.4,2.64,0,2.439,3.6,2.84,6.759,3.6,3.4.759,6.759,1.879,6.759,5.878,0,4.92-4.6,6.519-8.8,6.519-4.639,0-8.558-1.878-8.759-7Z" style="fill: #181716"/>
    <path d="M774.007,969.731c.12,3.04,2.76,4,5.559,4,2.12,0,5-.479,5-3.079,0-2.64-3.359-3.08-6.759-3.84-3.359-.76-6.759-1.88-6.759-5.839,0-4.159,4.12-5.879,7.719-5.879,4.559,0,8.2,1.44,8.479,6.479h-3.4c-.24-2.64-2.559-3.48-4.8-3.48-2.04,0-4.4.561-4.4,2.64,0,2.439,3.6,2.84,6.759,3.6,3.4.759,6.759,1.879,6.759,5.878,0,4.92-4.6,6.519-8.8,6.519-4.639,0-8.558-1.878-8.759-7Z" style="fill: #181716"/>
    <path d="M795.527,951.854h-3.4v-4.16h3.4Zm-3.4,3.719h3.4V976.25h-3.4Z" style="fill: #181716"/>
    <path d="M818.444,969.691c-.92,4.559-4.2,7.038-8.839,7.038-6.6,0-9.718-4.558-9.917-10.878,0-6.2,4.079-10.758,9.718-10.758,7.319,0,9.558,6.839,9.358,11.838H803.287c-.12,3.6,1.92,6.8,6.439,6.8,2.8,0,4.759-1.359,5.359-4.039Zm-3.279-5.76a5.95,5.95,0,0,0-5.959-5.839c-3.56,0-5.679,2.68-5.919,5.839Z" style="fill: #181716"/>
  </g>
  <rect x="1158.59" y="942.234" width="34.016" height="34.016" style="fill: #c0e3ed"/>
  <g>
    <path d="M1206.847,947.694h12.518c5.679,0,8.758,3.16,8.758,8.439s-3.079,8.479-8.758,8.439h-8.719V976.25h-3.8Zm3.8,13.678h7.439c4.279.04,6.239-1.839,6.239-5.239s-1.96-5.239-6.239-5.239h-7.439Z" style="fill: #181716"/>
    <path d="M1250.524,976.17a4.586,4.586,0,0,1-2.44.559c-1.76,0-2.879-.958-2.879-3.2a9.174,9.174,0,0,1-7.279,3.2c-3.759,0-6.839-1.679-6.839-5.8,0-4.679,3.479-5.679,7-6.358,3.76-.72,6.959-.481,6.959-3.04,0-2.959-2.44-3.44-4.6-3.44-2.879,0-5,.88-5.159,3.92h-3.4c.2-5.119,4.159-6.919,8.759-6.919,3.719,0,7.758.84,7.758,5.679v10.639c0,1.6,0,2.319,1.08,2.319a2.919,2.919,0,0,0,1.04-.2Zm-5.519-10.6c-1.319.959-3.879,1-6.159,1.4-2.24.4-4.159,1.2-4.159,3.72,0,2.24,1.919,3.039,4,3.039,4.479,0,6.319-2.8,6.319-4.68Z" style="fill: #181716"/>
    <path d="M1261.805,979.01c-1.56,4.039-2.959,5.518-6,5.518a6.794,6.794,0,0,1-2.361-.359v-3.12a6.973,6.973,0,0,0,2,.48,2.936,2.936,0,0,0,2.8-1.88l1.4-3.519-8.2-20.557h3.839l6.039,16.917h.08l5.8-16.917h3.6Z" style="fill: #181716"/>
    <path d="M1275.767,969.731c.119,3.04,2.758,4,5.558,4,2.12,0,5-.479,5-3.079,0-2.64-3.359-3.08-6.759-3.84-3.359-.76-6.758-1.88-6.758-5.839,0-4.159,4.119-5.879,7.718-5.879,4.56,0,8.2,1.44,8.479,6.479h-3.4c-.24-2.64-2.559-3.48-4.8-3.48-2.04,0-4.4.561-4.4,2.64,0,2.439,3.6,2.84,6.759,3.6,3.4.759,6.759,1.879,6.759,5.878,0,4.92-4.6,6.519-8.8,6.519-4.639,0-8.559-1.878-8.758-7Z" style="fill: #181716"/>
    <path d="M1293.127,963.532h11.558v3.2h-11.558Z" style="fill: #181716"/>
    <path d="M1309.806,947.694h10.358c2.52,0,5.839,0,7.559,1.04a6.777,6.777,0,0,1,3.359,5.959,6.6,6.6,0,0,1-4.239,6.4v.08a6.544,6.544,0,0,1,5.439,6.879c0,4.2-3,8.2-8.678,8.2h-13.8Zm3.8,12.278h7.6c4.319,0,6.079-1.559,6.079-4.559,0-3.959-2.8-4.519-6.079-4.519h-7.6Zm0,13.079h9.519c3.279,0,5.358-2,5.358-5.12,0-3.72-3-4.76-6.2-4.76h-8.679Z" style="fill: #181716"/>
    <path d="M1354.964,976.17a4.59,4.59,0,0,1-2.441.559c-1.759,0-2.878-.958-2.878-3.2a9.176,9.176,0,0,1-7.28,3.2c-3.759,0-6.839-1.679-6.839-5.8,0-4.679,3.48-5.679,7-6.358,3.76-.72,6.959-.481,6.959-3.04,0-2.959-2.439-3.44-4.6-3.44-2.879,0-5,.88-5.159,3.92h-3.4c.2-5.119,4.159-6.919,8.759-6.919,3.72,0,7.759.84,7.759,5.679v10.639c0,1.6,0,2.319,1.08,2.319a2.926,2.926,0,0,0,1.04-.2Zm-5.52-10.6c-1.319.959-3.879,1-6.159,1.4-2.239.4-4.159,1.2-4.159,3.72,0,2.24,1.92,3.039,4,3.039,4.479,0,6.319-2.8,6.319-4.68Z" style="fill: #181716"/>
    <path d="M1360.205,969.731c.119,3.04,2.759,4,5.559,4,2.12,0,5-.479,5-3.079,0-2.64-3.36-3.08-6.759-3.84-3.359-.76-6.759-1.88-6.759-5.839,0-4.159,4.119-5.879,7.719-5.879,4.559,0,8.2,1.44,8.478,6.479h-3.4c-.24-2.64-2.56-3.48-4.8-3.48-2.04,0-4.4.561-4.4,2.64,0,2.439,3.6,2.84,6.759,3.6,3.4.759,6.758,1.879,6.758,5.878,0,4.92-4.6,6.519-8.8,6.519-4.638,0-8.558-1.878-8.757-7Z" style="fill: #181716"/>
  </g>
  <rect x="1662.59" y="942.234" width="34.016" height="34.016" style="fill: #ffec0e"/>
  <g>
    <path d="M1718.605,947.694h4.2l11.158,28.556h-4.2l-3.119-8.6h-12.079l-3.2,8.6h-3.92Zm-2.838,16.758h9.677l-4.758-13.319h-.081Z" style="fill: #181716"/>
    <path d="M1736.407,947.694h3.4V976.25h-3.4Z" style="fill: #181716"/>
    <path d="M1762.923,974.49c0,6.719-3.079,10.158-9.6,10.158-3.879,0-8.358-1.559-8.558-6.079h3.4c.16,2.48,3.12,3.36,5.359,3.36,4.44,0,6.2-3.2,6.2-7.838V972.73h-.08a6.892,6.892,0,0,1-6.44,3.76c-6.158,0-9.238-4.84-9.238-10.479,0-4.879,2.4-10.918,9.558-10.918a6.749,6.749,0,0,1,6.16,3.44h.04v-2.96h3.2Zm-3.36-9c0-3.64-1.6-7.4-5.878-7.4-4.36,0-6.12,3.56-6.12,7.519,0,3.72,1.36,7.879,5.839,7.879S1759.563,969.371,1759.563,965.492Z" style="fill: #181716"/>
    <path d="M1785.683,969.691c-.92,4.559-4.2,7.038-8.838,7.038-6.6,0-9.719-4.558-9.919-10.878,0-6.2,4.08-10.758,9.719-10.758,7.318,0,9.558,6.839,9.358,11.838h-15.478c-.12,3.6,1.92,6.8,6.44,6.8,2.8,0,4.759-1.359,5.358-4.039Zm-3.28-5.76a5.949,5.949,0,0,0-5.959-5.839c-3.559,0-5.678,2.68-5.919,5.839Zm-5.159-16.917h4.36l-5.24,5.72h-2.559Z" style="fill: #181716"/>
    <path d="M1789.405,955.573h3.2v4.359h.081c1.639-3.319,3.919-4.959,7.6-4.839v3.6c-5.478,0-7.478,3.119-7.478,8.358v9.2h-3.4Z" style="fill: #181716"/>
    <path d="M1806.444,951.854h-3.4v-4.16h3.4Zm-3.4,3.719h3.4V976.25h-3.4Z" style="fill: #181716"/>
    <path d="M1829.361,969.691c-.92,4.559-4.2,7.038-8.838,7.038-6.6,0-9.718-4.558-9.919-10.878,0-6.2,4.081-10.758,9.719-10.758,7.319,0,9.559,6.839,9.359,11.838H1814.2c-.12,3.6,1.92,6.8,6.44,6.8,2.8,0,4.758-1.359,5.358-4.039Zm-3.279-5.76a5.95,5.95,0,0,0-5.959-5.839c-3.56,0-5.679,2.68-5.919,5.839Z" style="fill: #181716"/>
  </g>
  <rect x="182.59" y="998.234" width="34.016" height="34.016" style="fill: #f39400"/>
  <g>
    <path d="M230.808,1003.694h4.039l15.037,23.157h.08v-23.157h3.6v28.556H249.4l-14.917-22.916h-.08v22.916h-3.6Z" style="fill: #181716"/>
    <path d="M262.767,1007.854h-3.4v-4.16h3.4Zm-3.4,3.719h3.4v20.677h-3.4Z" style="fill: #181716"/>
    <path d="M285.883,1030.49c0,6.719-3.079,10.158-9.6,10.158-3.879,0-8.359-1.559-8.558-6.079h3.4c.16,2.48,3.119,3.36,5.359,3.36,4.439,0,6.2-3.2,6.2-7.838v-1.361h-.08a6.889,6.889,0,0,1-6.439,3.76c-6.159,0-9.238-4.84-9.238-10.478,0-4.879,2.4-10.918,9.558-10.918a6.749,6.749,0,0,1,6.159,3.439h.04v-2.96h3.2Zm-3.359-9c0-3.639-1.6-7.4-5.879-7.4-4.359,0-6.119,3.559-6.119,7.518,0,3.72,1.36,7.879,5.839,7.879S282.524,1025.371,282.524,1021.492Z" style="fill: #181716"/>
    <path d="M308.643,1025.691c-.92,4.559-4.2,7.038-8.839,7.038-6.6,0-9.718-4.558-9.918-10.877,0-6.2,4.079-10.758,9.718-10.758,7.319,0,9.559,6.839,9.359,11.838H293.485c-.12,3.6,1.92,6.8,6.439,6.8,2.8,0,4.76-1.359,5.36-4.039Zm-3.28-5.759a5.948,5.948,0,0,0-5.959-5.839c-3.559,0-5.678,2.679-5.919,5.839Z" style="fill: #181716"/>
    <path d="M312.365,1011.573h3.2v4.36h.08c1.64-3.32,3.919-4.959,7.6-4.839v3.6c-5.479,0-7.479,3.119-7.479,8.359v9.2h-3.4Z" style="fill: #181716"/>
    <path d="M329.405,1007.854h-3.4v-4.16h3.4Zm-3.4,3.719h3.4v20.677h-3.4Z" style="fill: #181716"/>
    <path d="M353,1032.17a4.582,4.582,0,0,1-2.439.559c-1.76,0-2.879-.958-2.879-3.2a9.175,9.175,0,0,1-7.279,3.2c-3.76,0-6.839-1.679-6.839-5.8,0-4.679,3.479-5.679,7-6.359,3.76-.719,6.959-.48,6.959-3.04,0-2.959-2.439-3.439-4.6-3.439-2.88,0-5,.88-5.159,3.92h-3.4c.2-5.119,4.159-6.919,8.758-6.919,3.719,0,7.759.84,7.759,5.678v10.639c0,1.6,0,2.319,1.079,2.319a2.911,2.911,0,0,0,1.04-.2Zm-5.519-10.6c-1.319.959-3.879,1-6.159,1.4-2.239.4-4.159,1.2-4.159,3.719,0,2.24,1.92,3.039,4,3.039,4.479,0,6.318-2.8,6.318-4.679Z" style="fill: #181716"/>
    <path d="M372.883,1040.169c-3.839-6-6.279-11.719-6.279-18.717a31.457,31.457,0,0,1,6.279-18.437h2.6a33.089,33.089,0,0,0-5.279,18.437,33.714,33.714,0,0,0,5.279,18.717Z" style="fill: #181716"/>
    <path d="M385.762,1035.01c-1.559,4.039-2.959,5.518-6,5.518a6.787,6.787,0,0,1-2.359-.359v-3.12a6.943,6.943,0,0,0,2,.48,2.935,2.935,0,0,0,2.8-1.88l1.4-3.519-8.2-20.557h3.839l6.039,16.917h.08l5.8-16.917h3.6Z" style="fill: #181716"/>
    <path d="M395.443,1027.811h4.44v4.439h-4.44Z" style="fill: #181716"/>
    <path d="M419.841,1018.212a4.813,4.813,0,0,0-5.119-4.119c-4.919,0-6.439,3.88-6.439,8.079,0,3.8,1.72,7.558,6.039,7.558,3.28,0,5.24-1.919,5.679-5.039h3.48c-.76,5.039-3.919,8.038-9.119,8.038-6.319,0-9.678-4.4-9.678-10.557,0-6.2,3.2-11.078,9.758-11.078,4.68,0,8.439,2.2,8.919,7.118Z" style="fill: #181716"/>
    <path d="M428.043,1027.811h4.439v4.439h-4.439Z" style="fill: #181716"/>
    <path d="M451.6,1025.731c.12,3.04,2.759,4,5.559,4,2.119,0,5-.479,5-3.079,0-2.639-3.36-3.08-6.759-3.839-3.36-.76-6.759-1.88-6.759-5.839,0-4.16,4.119-5.879,7.719-5.879,4.559,0,8.2,1.439,8.478,6.478h-3.4c-.24-2.639-2.56-3.479-4.8-3.479-2.04,0-4.4.56-4.4,2.639,0,2.44,3.6,2.84,6.758,3.6,3.4.76,6.759,1.88,6.759,5.879,0,4.919-4.6,6.518-8.8,6.518-4.64,0-8.559-1.878-8.759-7Z" style="fill: #181716"/>
    <path d="M490,1032.25h-3.6l-4.2-16.438h-.08l-4.16,16.438h-3.679l-6.639-20.677h3.76l4.679,16.917h.08l4.159-16.917h3.72l4.319,16.917h.08l4.639-16.917h3.52Z" style="fill: #181716"/>
    <path d="M518.16,1032.17a4.586,4.586,0,0,1-2.44.559c-1.76,0-2.879-.958-2.879-3.2a9.175,9.175,0,0,1-7.279,3.2c-3.76,0-6.839-1.679-6.839-5.8,0-4.679,3.479-5.679,7-6.359,3.759-.719,6.959-.48,6.959-3.04,0-2.959-2.44-3.439-4.6-3.439-2.88,0-5,.88-5.16,3.92h-3.4c.2-5.119,4.159-6.919,8.758-6.919,3.719,0,7.759.84,7.759,5.678v10.639c0,1.6,0,2.319,1.08,2.319a2.919,2.919,0,0,0,1.04-.2Zm-5.519-10.6c-1.32.959-3.88,1-6.16,1.4-2.239.4-4.159,1.2-4.159,3.719,0,2.24,1.92,3.039,4,3.039,4.479,0,6.319-2.8,6.319-4.679Z" style="fill: #181716"/>
    <path d="M521.442,1011.573h3.4v2.8h.08c1.12-2.279,3.759-3.279,6.6-3.279,6.358,0,9.518,5.039,9.518,10.878s-3.12,10.757-9.438,10.757c-2.12,0-5.16-.8-6.679-3.239h-.08v10.679h-3.4Zm9.6,2.52c-4.56,0-6.319,3.92-6.319,7.8,0,4.079,1.84,7.838,6.519,7.838,4.639,0,6.2-3.959,6.2-8C537.439,1017.853,535.44,1014.093,531.041,1014.093Z" style="fill: #181716"/>
    <path d="M547.122,1025.731c.12,3.04,2.759,4,5.559,4,2.119,0,5-.479,5-3.079,0-2.639-3.36-3.08-6.759-3.839-3.359-.76-6.759-1.88-6.759-5.839,0-4.16,4.119-5.879,7.719-5.879,4.559,0,8.2,1.439,8.478,6.478h-3.4c-.24-2.639-2.56-3.479-4.8-3.479-2.04,0-4.4.56-4.4,2.639,0,2.44,3.6,2.84,6.759,3.6,3.4.76,6.758,1.88,6.758,5.879,0,4.919-4.6,6.518-8.8,6.518-4.64,0-8.559-1.878-8.759-7Z" style="fill: #181716"/>
    <path d="M562.083,1040.169a33.09,33.09,0,0,0,5.279-18.438,33.713,33.713,0,0,0-5.279-18.716h2.6c3.839,6,6.279,11.718,6.279,18.716a31.46,31.46,0,0,1-6.279,18.438Z" style="fill: #181716"/>
  </g>
  <rect x="654.59" y="998.234" width="34.016" height="34.016" style="fill: #e41e0d"/>
  <g>
    <path d="M726.124,1034.729l-4.36-3.519a13.14,13.14,0,0,1-6.839,1.72c-9.078,0-13.677-7.2-13.677-14.957s4.6-14.958,13.677-14.958,13.678,7.2,13.678,14.958a15.757,15.757,0,0,1-4.319,11.357l3.759,3Zm-8.4-10.637,3.8,3.039c2.24-2.2,3.28-5.719,3.28-9.158,0-5.76-2.92-11.758-9.879-11.758s-9.878,6-9.878,11.758,2.92,11.757,9.878,11.757a9.739,9.739,0,0,0,3.96-.8l-3.16-2.52Z" style="fill: #181716"/>
    <path d="M751,1032.17a4.582,4.582,0,0,1-2.439.559c-1.76,0-2.879-.958-2.879-3.2a9.175,9.175,0,0,1-7.279,3.2c-3.76,0-6.839-1.679-6.839-5.8,0-4.679,3.479-5.679,7-6.359,3.76-.719,6.959-.48,6.959-3.04,0-2.959-2.439-3.439-4.6-3.439-2.88,0-5,.88-5.159,3.92h-3.4c.2-5.119,4.159-6.919,8.758-6.919,3.719,0,7.759.84,7.759,5.678v10.639c0,1.6,0,2.319,1.079,2.319a2.915,2.915,0,0,0,1.04-.2Zm-5.519-10.6c-1.319.959-3.879,1-6.159,1.4-2.239.4-4.159,1.2-4.159,3.719,0,2.24,1.92,3.039,4,3.039,4.479,0,6.318-2.8,6.318-4.679Z" style="fill: #181716"/>
    <path d="M758.886,1011.573h4.119v3h-4.119v12.838c0,1.56.44,1.84,2.56,1.84h1.559v3h-2.6c-3.519,0-4.919-.72-4.919-4.52v-13.157h-3.52v-3h3.52v-6.2h3.4Z" style="fill: #181716"/>
    <path d="M785.083,1032.17a4.585,4.585,0,0,1-2.439.559c-1.76,0-2.88-.958-2.88-3.2a9.174,9.174,0,0,1-7.279,3.2c-3.759,0-6.839-1.679-6.839-5.8,0-4.679,3.479-5.679,7-6.359,3.759-.719,6.959-.48,6.959-3.04,0-2.959-2.439-3.439-4.6-3.439-2.88,0-5,.88-5.159,3.92h-3.4c.2-5.119,4.159-6.919,8.759-6.919,3.719,0,7.758.84,7.758,5.678v10.639c0,1.6,0,2.319,1.08,2.319a2.919,2.919,0,0,0,1.04-.2Zm-5.519-10.6c-1.32.959-3.879,1-6.159,1.4-2.239.4-4.159,1.2-4.159,3.719,0,2.24,1.92,3.039,4,3.039,4.479,0,6.319-2.8,6.319-4.679Z" style="fill: #181716"/>
    <path d="M788.125,1011.573h3.2v4.36h.08c1.64-3.32,3.919-4.959,7.6-4.839v3.6c-5.479,0-7.479,3.119-7.479,8.359v9.2h-3.4Z" style="fill: #181716"/>
  </g>
  <rect x="1158.59" y="998.234" width="34.016" height="34.016" style="fill: #99c316"/>
  <g>
    <path d="M1214.605,1003.694h4.2l11.158,28.556h-4.2l-3.119-8.6h-12.079l-3.2,8.6h-3.92Zm-2.838,16.758h9.677l-4.758-13.318h-.081Z" style="fill: #181716"/>
    <path d="M1249.324,1032.25h-3.2v-3.279h-.08a7.2,7.2,0,0,1-6.719,3.758c-5.439,0-7.119-3.119-7.119-7.558v-13.6h3.4v14a3.9,3.9,0,0,0,4.2,4.159c4.119,0,6.119-2.759,6.119-6.478v-11.679h3.4Z" style="fill: #181716"/>
    <path d="M1259.166,1011.573h4.12v3h-4.12v12.838c0,1.56.44,1.84,2.56,1.84h1.56v3h-2.6c-3.52,0-4.92-.72-4.92-4.52v-13.157h-3.519v-3h3.519v-6.2h3.4Z" style="fill: #181716"/>
    <path d="M1266.927,1011.573h3.2v4.36h.08c1.64-3.32,3.92-4.959,7.6-4.839v3.6c-5.479,0-7.479,3.119-7.479,8.359v9.2h-3.4Z" style="fill: #181716"/>
    <path d="M1297.323,1025.691c-.92,4.559-4.2,7.038-8.838,7.038-6.6,0-9.718-4.558-9.919-10.877,0-6.2,4.08-10.758,9.719-10.758,7.319,0,9.559,6.839,9.359,11.838h-15.478c-.12,3.6,1.92,6.8,6.439,6.8,2.8,0,4.759-1.359,5.359-4.039Zm-3.279-5.759a5.949,5.949,0,0,0-5.959-5.839c-3.56,0-5.679,2.679-5.919,5.839Z" style="fill: #181716"/>
    <path d="M1303.246,1025.731c.119,3.04,2.759,4,5.559,4,2.12,0,5-.479,5-3.079,0-2.639-3.36-3.08-6.759-3.839-3.359-.76-6.759-1.88-6.759-5.839,0-4.16,4.119-5.879,7.719-5.879,4.559,0,8.2,1.439,8.478,6.478h-3.4c-.24-2.639-2.56-3.479-4.8-3.479-2.04,0-4.4.56-4.4,2.639,0,2.44,3.6,2.84,6.759,3.6,3.4.76,6.758,1.88,6.758,5.879,0,4.919-4.6,6.518-8.8,6.518-4.638,0-8.558-1.878-8.757-7Z" style="fill: #181716"/>
    <path d="M1349.922,1025.691c-.92,4.559-4.2,7.038-8.838,7.038-6.6,0-9.719-4.558-9.919-10.877,0-6.2,4.08-10.758,9.719-10.758,7.318,0,9.558,6.839,9.358,11.838h-15.477c-.12,3.6,1.92,6.8,6.439,6.8,2.8,0,4.759-1.359,5.358-4.039Zm-3.279-5.759a5.95,5.95,0,0,0-5.959-5.839c-3.56,0-5.679,2.679-5.919,5.839Z" style="fill: #181716"/>
    <path d="M1358.483,1011.573h4.121v3h-4.121v12.838c0,1.56.441,1.84,2.56,1.84h1.561v3H1360c-3.52,0-4.92-.72-4.92-4.52v-13.157h-3.519v-3h3.519v-6.2h3.4Z" style="fill: #181716"/>
    <path d="M1381.084,1007.854h-3.4v-4.16h3.4Zm-3.4,3.719h3.4v20.677h-3.4Z" style="fill: #181716"/>
    <path d="M1386.364,1011.573h3.2v3.28h.081a7.2,7.2,0,0,1,6.718-3.759c5.44,0,7.119,3.119,7.119,7.558v13.6h-3.4v-14a3.9,3.9,0,0,0-4.2-4.159c-4.119,0-6.119,2.76-6.119,6.479v11.678h-3.4Z" style="fill: #181716"/>
    <path d="M1427.08,1032.25h-3.4v-2.8h-.08c-1.12,2.28-3.759,3.279-6.6,3.279-6.358,0-9.519-5.039-9.519-10.877s3.121-10.758,9.439-10.758c2.12,0,5.159.8,6.679,3.239h.08v-10.639h3.4Zm-9.6-2.52c4.559,0,6.319-3.918,6.319-7.8,0-4.079-1.84-7.839-6.519-7.839-4.639,0-6.2,3.96-6.2,8C1411.083,1025.971,1413.083,1029.73,1417.482,1029.73Z" style="fill: #181716"/>
    <path d="M1449.96,1025.691c-.92,4.559-4.2,7.038-8.838,7.038-6.6,0-9.719-4.558-9.919-10.877,0-6.2,4.08-10.758,9.719-10.758,7.318,0,9.558,6.839,9.358,11.838H1434.8c-.12,3.6,1.92,6.8,6.439,6.8,2.8,0,4.759-1.359,5.359-4.039Zm-3.279-5.759a5.949,5.949,0,0,0-5.959-5.839c-3.56,0-5.679,2.679-5.919,5.839Zm-5.16-16.917h4.36l-5.239,5.719h-2.56Z" style="fill: #181716"/>
    <path d="M1458.521,1011.573h4.121v3h-4.121v12.838c0,1.56.441,1.84,2.56,1.84h1.561v3h-2.6c-3.52,0-4.92-.72-4.92-4.52v-13.157H1451.6v-3h3.518v-6.2h3.4Z" style="fill: #181716"/>
    <path d="M1484.039,1025.691c-.92,4.559-4.2,7.038-8.838,7.038-6.6,0-9.719-4.558-9.919-10.877,0-6.2,4.08-10.758,9.719-10.758,7.318,0,9.559,6.839,9.358,11.838h-15.477c-.12,3.6,1.92,6.8,6.439,6.8,2.8,0,4.759-1.359,5.359-4.039Zm-3.279-5.759a5.949,5.949,0,0,0-5.959-5.839c-3.56,0-5.679,2.679-5.919,5.839Z" style="fill: #181716"/>
    <path d="M1487.762,1011.573h3.2v4.36h.08c1.64-3.32,3.92-4.959,7.6-4.839v3.6c-5.479,0-7.479,3.119-7.479,8.359v9.2h-3.4Z" style="fill: #181716"/>
    <path d="M1501.2,1011.573h3.2v3.04h.08a7.622,7.622,0,0,1,6.679-3.519c2.52,0,4.84,1,5.68,3.519a7.648,7.648,0,0,1,6.478-3.519c4.12,0,6.879,1.719,6.879,6v15.157h-3.4v-13.558c0-2.559-.68-4.6-4-4.6a5.009,5.009,0,0,0-5.4,5.279v12.878H1514v-13.558c0-2.679-.84-4.6-3.879-4.6a5.576,5.576,0,0,0-5.519,5.279v12.878h-3.4Z" style="fill: #181716"/>
    <path d="M1538.921,1007.854h-3.4v-4.16h3.4Zm-3.4,3.719h3.4v20.677h-3.4Z" style="fill: #181716"/>
    <path d="M1544.2,1011.573h3.2v3.28h.08a7.2,7.2,0,0,1,6.719-3.759c5.44,0,7.119,3.119,7.119,7.558v13.6h-3.4v-14a3.9,3.9,0,0,0-4.2-4.159c-4.119,0-6.119,2.76-6.119,6.479v11.678h-3.4Z" style="fill: #181716"/>
    <path d="M1584.077,1025.691c-.92,4.559-4.2,7.038-8.838,7.038-6.6,0-9.718-4.558-9.919-10.877,0-6.2,4.08-10.758,9.719-10.758,7.318,0,9.559,6.839,9.358,11.838H1568.92c-.12,3.6,1.92,6.8,6.439,6.8,2.8,0,4.759-1.359,5.359-4.039Zm-3.279-5.759a5.949,5.949,0,0,0-5.959-5.839c-3.56,0-5.679,2.679-5.919,5.839Zm-5.159-16.917H1580l-5.239,5.719h-2.56Z" style="fill: #181716"/>
    <path d="M1590,1025.731c.119,3.04,2.759,4,5.559,4,2.12,0,5-.479,5-3.079,0-2.639-3.36-3.08-6.759-3.839-3.36-.76-6.759-1.88-6.759-5.839,0-4.16,4.119-5.879,7.719-5.879,4.559,0,8.2,1.439,8.478,6.478h-3.4c-.24-2.639-2.56-3.479-4.8-3.479-2.04,0-4.4.56-4.4,2.639,0,2.44,3.6,2.84,6.758,3.6,3.4.76,6.759,1.88,6.759,5.879,0,4.919-4.6,6.518-8.8,6.518-4.638,0-8.558-1.878-8.757-7Z" style="fill: #181716"/>
  </g>
  <g>
    <path d="M34.8,106.5c-5.719,5.679-10.358,16.077-10.878,24.956h-3.8c.64-9.6,5.239-18.357,11.2-24.676H16.446v-3.2H34.8Z" style="fill: #181716"/>
    <path d="M47.405,103.1c8.878,0,9.438,8.159,9.438,14.438,0,6.239-.56,14.4-9.438,14.4s-9.439-8.159-9.439-14.4C37.966,111.256,38.526,103.1,47.405,103.1Zm0,25.836c5.8,0,5.839-7.2,5.839-11.438,0-4.2-.04-11.4-5.839-11.4s-5.839,7.2-5.839,11.4C41.566,121.734,41.606,128.933,47.405,128.933Z" style="fill: #181716"/>
    <path d="M69.245,103.1c8.879,0,9.439,8.159,9.439,14.438,0,6.239-.56,14.4-9.439,14.4s-9.438-8.159-9.438-14.4C59.807,111.256,60.367,103.1,69.245,103.1Zm0,25.836c5.8,0,5.839-7.2,5.839-11.438,0-4.2-.04-11.4-5.839-11.4s-5.839,7.2-5.839,11.4C63.406,121.734,63.446,128.933,69.245,128.933Z" style="fill: #181716"/>
  </g>
  <g>
    <path d="M31,203.774a4.543,4.543,0,0,0-4.759-4.24c-5.8,0-6.719,6.4-6.879,10.758l.08.081a7.689,7.689,0,0,1,7.079-3.72c5.439,0,8.678,3.959,8.678,9.2,0,4.119-2.319,9.518-9.478,9.518-8.4,0-9.759-7.679-9.759-13.638,0-7.8,2.36-15.2,10.439-15.2,4.679,0,7.6,2.639,8,7.239Zm-11,12.278c0,3.519,2.16,6.319,5.879,6.319,3.679,0,5.719-2.92,5.719-6.279,0-3.52-1.84-6.439-5.719-6.439C22.085,209.653,20.006,212.492,20.006,216.052Z" style="fill: #181716"/>
    <path d="M47.405,196.535c8.878,0,9.438,8.158,9.438,14.438,0,6.238-.56,14.4-9.438,14.4s-9.439-8.159-9.439-14.4C37.966,204.693,38.526,196.535,47.405,196.535Zm0,25.836c5.8,0,5.839-7.2,5.839-11.438,0-4.2-.04-11.4-5.839-11.4s-5.839,7.2-5.839,11.4C41.566,215.172,41.606,222.371,47.405,222.371Z" style="fill: #181716"/>
    <path d="M69.245,196.535c8.879,0,9.439,8.158,9.439,14.438,0,6.238-.56,14.4-9.439,14.4s-9.438-8.159-9.438-14.4C59.807,204.693,60.367,196.535,69.245,196.535Zm0,25.836c5.8,0,5.839-7.2,5.839-11.438,0-4.2-.04-11.4-5.839-11.4s-5.839,7.2-5.839,11.4C63.406,215.172,63.446,222.371,69.245,222.371Z" style="fill: #181716"/>
  </g>
  <g>
    <path d="M33.244,293.452H21.806l-1.52,8.158.08.08a7.174,7.174,0,0,1,5.279-2.039c5.039,0,9.158,3.239,9.158,9.718,0,4.8-3.319,9.439-9.918,9.439-4.919,0-8.919-3-9.038-8.119h3.4c.2,2.919,2.56,5.119,5.959,5.119,3.239,0,6-2.2,6-6.719a6.142,6.142,0,0,0-6.4-6.439,6.806,6.806,0,0,0-5.279,2.68l-2.92-.16,2.64-14.718h14Z" style="fill: #181716"/>
    <path d="M47.405,289.972c8.878,0,9.438,8.159,9.438,14.438,0,6.239-.56,14.4-9.438,14.4s-9.439-8.159-9.439-14.4C37.966,298.131,38.526,289.972,47.405,289.972Zm0,25.836c5.8,0,5.839-7.2,5.839-11.438,0-4.2-.04-11.4-5.839-11.4s-5.839,7.2-5.839,11.4C41.566,308.609,41.606,315.808,47.405,315.808Z" style="fill: #181716"/>
    <path d="M69.245,289.972c8.879,0,9.439,8.159,9.439,14.438,0,6.239-.56,14.4-9.439,14.4s-9.438-8.159-9.438-14.4C59.807,298.131,60.367,289.972,69.245,289.972Zm0,25.836c5.8,0,5.839-7.2,5.839-11.438,0-4.2-.04-11.4-5.839-11.4s-5.839,7.2-5.839,11.4C63.406,308.609,63.446,315.808,69.245,315.808Z" style="fill: #181716"/>
  </g>
  <g>
    <path d="M31.2,402.127h3.839v3H31.2v6.639H28v-6.639H15.566v-3.279L28.484,383.41H31.2Zm-3.2,0V388.249h-.08l-9.438,13.878Z" style="fill: #181716"/>
    <path d="M47.405,383.41c8.878,0,9.438,8.158,9.438,14.438,0,6.238-.56,14.4-9.438,14.4s-9.439-8.159-9.439-14.4C37.966,391.568,38.526,383.41,47.405,383.41Zm0,25.836c5.8,0,5.839-7.2,5.839-11.438,0-4.2-.04-11.4-5.839-11.4s-5.839,7.2-5.839,11.4C41.566,402.047,41.606,409.246,47.405,409.246Z" style="fill: #181716"/>
    <path d="M69.245,383.41c8.879,0,9.439,8.158,9.439,14.438,0,6.238-.56,14.4-9.439,14.4s-9.438-8.159-9.438-14.4C59.807,391.568,60.367,383.41,69.245,383.41Zm0,25.836c5.8,0,5.839-7.2,5.839-11.438,0-4.2-.04-11.4-5.839-11.4s-5.839,7.2-5.839,11.4C63.406,402.047,63.446,409.246,69.245,409.246Z" style="fill: #181716"/>
  </g>
  <g>
    <path d="M23.166,489.013c.519.04,1,.04,1.479.04,2.879,0,5.4-1.559,5.4-4.639,0-2.959-2.16-4.56-5.039-4.56-3.719,0-5.319,2.84-5.359,6.16h-3.4c.2-5.4,3.079-9.159,8.758-9.159,4.919,0,8.639,2.36,8.639,7.6a6.5,6.5,0,0,1-3.92,5.639v.08c3.44.76,5.119,3.479,5.119,6.879,0,5.679-4.439,8.638-9.758,8.638-5.759,0-9.559-3.4-9.439-9.238h3.4c.12,3.679,2.16,6.239,6.039,6.239,3.319,0,6.159-2.04,6.159-5.479,0-3.56-2.68-5.439-6.039-5.439a16.713,16.713,0,0,0-2.039.12Z" style="fill: #181716"/>
    <path d="M47.405,476.855c8.878,0,9.438,8.159,9.438,14.438,0,6.239-.56,14.4-9.438,14.4s-9.439-8.158-9.439-14.4C37.966,485.014,38.526,476.855,47.405,476.855Zm0,25.836c5.8,0,5.839-7.2,5.839-11.438,0-4.2-.04-11.4-5.839-11.4s-5.839,7.2-5.839,11.4C41.566,495.492,41.606,502.691,47.405,502.691Z" style="fill: #181716"/>
    <path d="M69.245,476.855c8.879,0,9.439,8.159,9.439,14.438,0,6.239-.56,14.4-9.439,14.4s-9.438-8.158-9.438-14.4C59.807,485.014,60.367,476.855,69.245,476.855Zm0,25.836c5.8,0,5.839-7.2,5.839-11.438,0-4.2-.04-11.4-5.839-11.4s-5.839,7.2-5.839,11.4C63.406,495.492,63.446,502.691,69.245,502.691Z" style="fill: #181716"/>
  </g>
  <g>
    <path d="M16.207,580.331c-.28-5.759,3.119-10.039,9.118-10.039,4.959,0,8.879,2.88,8.879,8.16,0,5-3.36,7.518-6.879,9.717-3.56,2.161-7.279,3.96-7.959,7.48H33.923v3H15.407c.559-6.719,3.959-9.118,7.958-11.6,4.8-2.96,7.239-4.719,7.239-8.638a5.166,5.166,0,0,0-5.479-5.12c-3.959,0-5.639,3.639-5.519,7.039Z" style="fill: #181716"/>
    <path d="M47.405,570.292c8.878,0,9.438,8.16,9.438,14.438,0,6.239-.56,14.4-9.438,14.4s-9.439-8.158-9.439-14.4C37.966,578.452,38.526,570.292,47.405,570.292Zm0,25.836c5.8,0,5.839-7.2,5.839-11.438,0-4.2-.04-11.4-5.839-11.4s-5.839,7.2-5.839,11.4C41.566,588.929,41.606,596.128,47.405,596.128Z" style="fill: #181716"/>
    <path d="M69.245,570.292c8.879,0,9.439,8.16,9.439,14.438,0,6.239-.56,14.4-9.439,14.4s-9.438-8.158-9.438-14.4C59.807,578.452,60.367,570.292,69.245,570.292Zm0,25.836c5.8,0,5.839-7.2,5.839-11.438,0-4.2-.04-11.4-5.839-11.4s-5.839,7.2-5.839,11.4C63.406,588.929,63.446,596.128,69.245,596.128Z" style="fill: #181716"/>
  </g>
  <g>
    <path d="M28.685,692.085h-3.4V671.769H17.926v-2.72c3.88,0,7.4-1.04,8.159-5.319h2.6Z" style="fill: #181716"/>
    <path d="M47.405,663.73c8.878,0,9.438,8.159,9.438,14.437,0,6.24-.56,14.4-9.438,14.4s-9.439-8.158-9.439-14.4C37.966,671.889,38.526,663.73,47.405,663.73Zm0,25.836c5.8,0,5.839-7.2,5.839-11.439,0-4.2-.04-11.4-5.839-11.4s-5.839,7.2-5.839,11.4C41.566,682.367,41.606,689.566,47.405,689.566Z" style="fill: #181716"/>
    <path d="M69.245,663.73c8.879,0,9.439,8.159,9.439,14.437,0,6.24-.56,14.4-9.439,14.4s-9.438-8.158-9.438-14.4C59.807,671.889,60.367,663.73,69.245,663.73Zm0,25.836c5.8,0,5.839-7.2,5.839-11.439,0-4.2-.04-11.4-5.839-11.4s-5.839,7.2-5.839,11.4C63.406,682.367,63.446,689.566,69.245,689.566Z" style="fill: #181716"/>
  </g>
  <path d="M69.167,757.175c8.878,0,9.438,8.159,9.438,14.438,0,6.239-.56,14.4-9.438,14.4s-9.439-8.158-9.439-14.4C59.728,765.334,60.288,757.175,69.167,757.175Zm0,25.836c5.8,0,5.838-7.2,5.838-11.438,0-4.2-.04-11.4-5.838-11.4s-5.839,7.2-5.839,11.4C63.328,775.812,63.368,783.011,69.167,783.011Z" style="fill: #181716"/>
  <g>
    <path d="M931.137,873.385l-2.185,2.6L913.389,862.93l-4.73,5.637-2.083-1.748c2.493-2.972,3.959-6.336,1.169-9.669l1.671-1.991Z" style="fill: #181716"/>
    <path d="M934.255,859.03c2.268,1.59,4.9.876,6.652-1.207,2.673-3.186,1.2-7.088-4.282-11.946l-.113.01a7.431,7.431,0,0,1-1.214,7.544c-3.7,4.411-8.73,4.369-13.019.77-4.2-3.522-4.609-8.879-1.087-13.076,3.393-4.044,8.422-5.62,16.632,1.269,7.507,6.3,9.8,12.087,5.38,17.356-3.059,3.646-7.113,4.683-11.134,1.883Zm-10.868-15.855c-2.6,3.094-1.092,6.341,1.574,8.577a5.808,5.808,0,0,0,8.195-.433c2.288-2.727,1.521-6.293-1.053-8.452C929.438,840.629,925.829,840.264,923.387,843.175Z" style="fill: #181716"/>
    <path d="M948.293,842.3c2.269,1.59,4.9.877,6.652-1.207,2.674-3.185,1.2-7.088-4.281-11.945l-.113.01a7.434,7.434,0,0,1-1.215,7.544c-3.7,4.411-8.73,4.369-13.019.769-4.2-3.521-4.609-8.879-1.087-13.076,3.394-4.044,8.423-5.619,16.633,1.27,7.507,6.3,9.8,12.086,5.379,17.356-3.059,3.647-7.113,4.683-11.134,1.883Zm-10.868-15.854c-2.6,3.094-1.092,6.341,1.575,8.577a5.807,5.807,0,0,0,8.194-.434c2.288-2.726,1.521-6.293-1.053-8.452C943.476,823.9,939.867,823.534,937.425,826.445Z" style="fill: #181716"/>
    <path d="M957.179,803.651l-7.352,8.762,5.273,6.409.112-.011a7.172,7.172,0,0,1,1.83-5.355c3.24-3.861,8.369-4.933,13.332-.769,3.676,3.085,5.1,8.609.855,13.664-3.162,3.769-8.03,4.9-12.029,1.706l2.185-2.6c2.366,1.723,5.568,1.33,7.752-1.275,2.083-2.481,2.172-6.009-1.291-8.914a6.142,6.142,0,0,0-9.046.763,6.809,6.809,0,0,0-1.341,5.766l-2,2.134-9.577-11.481,9-10.723Z" style="fill: #181716"/>
  </g>
  <g>
    <path d="M86.392,873.4,84.207,876,68.644,862.944l-4.73,5.637-2.083-1.748c2.493-2.972,3.959-6.337,1.169-9.669l1.67-1.993Z" style="fill: #181716"/>
    <path d="M89.485,859.074c2.267,1.59,4.9.877,6.651-1.207,2.673-3.186,1.2-7.088-4.282-11.946l-.113.01a7.433,7.433,0,0,1-1.214,7.544c-3.7,4.411-8.729,4.369-13.019.77-4.2-3.522-4.609-8.879-1.087-13.077,3.393-4.043,8.422-5.62,16.632,1.27,7.507,6.3,9.8,12.087,5.38,17.356-3.059,3.647-7.113,4.682-11.133,1.883ZM78.617,843.219c-2.6,3.094-1.092,6.34,1.573,8.577a5.809,5.809,0,0,0,8.2-.433c2.287-2.727,1.521-6.293-1.052-8.453C84.667,840.673,81.059,840.308,78.617,843.219Z" style="fill: #181716"/>
    <path d="M99.311,819.178c.674,8.032,5.657,18.269,12.124,24.375l-2.442,2.91c-6.941-6.66-10.694-15.812-11.7-24.439l-9.563,11.4-2.452-2.056,11.8-14.062Z" style="fill: #181716"/>
    <path d="M112.578,816.994c.364-.373.672-.741.981-1.109,1.851-2.206,2.276-5.137-.084-7.118-2.267-1.9-4.879-1.275-6.73.93-2.391,2.849-1.245,5.9,1.272,8.064l-2.185,2.6c-4.006-3.623-5.037-8.245-1.386-12.6,3.162-3.769,7.36-5.1,11.374-1.733a6.5,6.5,0,0,1,1.8,6.628l.062.05c2.792-2.146,5.955-1.684,8.56.5,4.349,3.651,3.762,8.953.343,13.029-3.7,4.411-8.747,5.136-13.143,1.291l2.185-2.6c2.9,2.274,6.168,2.357,8.662-.615,2.133-2.543,2.4-6.03-.24-8.241-2.726-2.287-5.888-1.443-8.048,1.131a16.89,16.89,0,0,0-1.218,1.639Z" style="fill: #181716"/>
  </g>
  <g>
    <path d="M739.863,873.406l-2.185,2.6-15.564-13.059-4.73,5.637L715.3,866.84c2.494-2.971,3.96-6.337,1.17-9.669l1.671-1.991Z" style="fill: #181716"/>
    <path d="M742.981,859.05c2.269,1.591,4.9.877,6.65-1.206,2.674-3.186,1.2-7.089-4.281-11.945l-.112.01a7.434,7.434,0,0,1-1.214,7.544c-3.7,4.411-8.73,4.368-13.019.769-4.2-3.521-4.609-8.879-1.088-13.076,3.394-4.045,8.422-5.62,16.633,1.27,7.506,6.3,9.8,12.086,5.379,17.356-3.059,3.645-7.113,4.682-11.133,1.883ZM732.112,843.2c-2.6,3.094-1.091,6.34,1.574,8.577a5.807,5.807,0,0,0,8.194-.434c2.288-2.726,1.522-6.293-1.051-8.453C738.164,840.651,734.555,840.286,732.112,843.2Z" style="fill: #181716"/>
    <path d="M757.019,842.321c2.269,1.59,4.9.877,6.65-1.207,2.674-3.186,1.2-7.088-4.281-11.946l-.112.01a7.431,7.431,0,0,1-1.214,7.544c-3.7,4.411-8.73,4.369-13.019.77-4.2-3.522-4.609-8.879-1.087-13.076,3.393-4.044,8.421-5.621,16.632,1.269,7.506,6.3,9.8,12.087,5.379,17.357-3.059,3.646-7.113,4.681-11.133,1.882Zm-10.868-15.855c-2.6,3.094-1.092,6.34,1.573,8.577a5.807,5.807,0,0,0,8.194-.433c2.289-2.727,1.522-6.293-1.051-8.453C752.2,823.92,748.593,823.555,746.151,826.466Z" style="fill: #181716"/>
    <path d="M758.3,807.318c5.706-6.8,12.317-1.986,17.126,2.049,4.779,4.01,10.669,9.683,4.963,16.485s-12.317,1.986-17.1-2.024C758.486,819.792,752.6,814.119,758.3,807.318Zm19.791,16.606c3.727-4.442-1.762-9.1-5.009-11.825-3.217-2.7-8.757-7.3-12.484-2.853s1.761,9.1,4.978,11.8C768.826,823.769,774.366,828.367,778.094,823.924Z" style="fill: #181716"/>
  </g>
  <g>
    <path d="M548.612,873.386l-2.185,2.6-15.564-13.059-4.73,5.637-2.083-1.748c2.494-2.972,3.959-6.336,1.169-9.668l1.671-1.992Z" style="fill: #181716"/>
    <path d="M551.731,859.031c2.267,1.591,4.9.877,6.65-1.206,2.674-3.187,1.2-7.089-4.281-11.947l-.113.011a7.434,7.434,0,0,1-1.214,7.543c-3.7,4.412-8.729,4.37-13.019.771-4.2-3.522-4.609-8.88-1.087-13.078,3.393-4.043,8.422-5.619,16.632,1.27,7.507,6.3,9.8,12.088,5.379,17.357-3.059,3.646-7.113,4.682-11.133,1.883Zm-10.869-15.855c-2.6,3.095-1.092,6.341,1.574,8.578a5.808,5.808,0,0,0,8.194-.433c2.288-2.727,1.522-6.294-1.052-8.453C546.913,840.631,543.3,840.266,540.862,843.176Z" style="fill: #181716"/>
    <path d="M552.859,824.211c3.984-4.748,8.315-4.247,11.073-1.933a6.568,6.568,0,0,1,1.985,6.781c3.012-1.909,5.965-1.572,8.662.691,4.2,3.521,3.942,8.738.574,12.751-3.5,4.166-8.37,5.559-12.811,1.832a7.155,7.155,0,0,1-2.235-8.35,6.413,6.413,0,0,1-7.049-.745C549.473,832.229,550.057,827.551,552.859,824.211Zm9.335,7.416a4.354,4.354,0,0,0-.484-6.514c-2.176-1.826-4.625-1.271-6.4.844-1.748,2.083-2.024,4.775.151,6.6C557.853,834.562,560.4,833.772,562.194,831.627Zm10.662,8.947a5.478,5.478,0,0,0-.5-7.991,5.584,5.584,0,0,0-7.888,1c-2.16,2.574-2.2,5.984.309,8.091C567.381,843.863,570.594,843.269,572.856,840.574Z" style="fill: #181716"/>
    <path d="M574.653,803.652l-7.352,8.762,5.273,6.409.113-.01a7.167,7.167,0,0,1,1.83-5.355c3.239-3.861,8.368-4.934,13.331-.77,3.678,3.085,5.1,8.61.855,13.665-3.161,3.769-8.029,4.9-12.028,1.706l2.185-2.6c2.366,1.723,5.567,1.33,7.752-1.275,2.082-2.481,2.172-6.009-1.291-8.914a6.142,6.142,0,0,0-9.046.763,6.806,6.806,0,0,0-1.341,5.766l-2,2.134-9.577-11.482,9-10.723Z" style="fill: #181716"/>
  </g>
  <g>
    <path d="M357.364,873.364l-2.185,2.6-15.563-13.059-4.73,5.637L332.8,866.8c2.493-2.971,3.959-6.336,1.17-9.669l1.671-1.991Z" style="fill: #181716"/>
    <path d="M360.457,859.039c2.268,1.589,4.9.877,6.65-1.206,2.674-3.187,1.2-7.089-4.281-11.947l-.113.011a7.432,7.432,0,0,1-1.213,7.543c-3.7,4.412-8.73,4.37-13.021.77-4.2-3.521-4.608-8.879-1.086-13.077,3.394-4.044,8.422-5.619,16.633,1.27,7.506,6.3,9.8,12.088,5.379,17.357-3.059,3.646-7.113,4.682-11.134,1.883Zm-10.869-15.855c-2.6,3.1-1.091,6.341,1.574,8.577a5.808,5.808,0,0,0,8.194-.432c2.288-2.727,1.521-6.294-1.052-8.453C355.639,840.639,352.03,840.274,349.588,843.184Z" style="fill: #181716"/>
    <path d="M361.611,824.189c3.985-4.749,8.315-4.248,11.072-1.934a6.566,6.566,0,0,1,1.985,6.782c3.012-1.911,5.965-1.573,8.662.689,4.2,3.522,3.943,8.739.576,12.752-3.5,4.167-8.37,5.56-12.813,1.832a7.159,7.159,0,0,1-2.235-8.35,6.407,6.407,0,0,1-7.049-.746C358.224,832.207,358.809,827.528,361.611,824.189Zm9.336,7.415a4.356,4.356,0,0,0-.485-6.515c-2.175-1.825-4.625-1.269-6.4.844-1.748,2.084-2.023,4.775.152,6.6C366.6,834.54,369.147,833.75,370.947,831.6Zm10.661,8.946a5.479,5.479,0,0,0-.5-7.99,5.587,5.587,0,0,0-7.889,1c-2.159,2.573-2.2,5.984.31,8.092C376.133,843.84,379.346,843.247,381.608,840.55Z" style="fill: #181716"/>
    <path d="M375.778,807.305c5.707-6.8,12.317-1.985,17.127,2.05,4.779,4.011,10.669,9.684,4.962,16.485s-12.317,1.987-17.1-2.024C375.961,819.781,370.071,814.107,375.778,807.305Zm19.791,16.608c3.727-4.443-1.761-9.1-5.008-11.826-3.217-2.7-8.758-7.295-12.485-2.853s1.761,9.1,4.978,11.8C386.3,823.758,391.841,828.355,395.569,823.913Z" style="fill: #181716"/>
  </g>
  <g>
    <path d="M1100.273,871.142c-4.592-3.487-5.685-8.842-1.829-13.437,3.188-3.8,7.912-4.951,11.957-1.557,3.83,3.213,3.6,7.406,3.024,11.516-.634,4.115-1.646,8.121.613,10.9l9.358-11.151,2.3,1.927-11.9,14.185c-4.786-4.748-4.439-8.894-3.768-13.551.817-5.58,1.037-8.58-1.965-11.1a5.166,5.166,0,0,0-7.443.907c-2.545,3.033-.838,6.659,1.844,8.752Z" style="fill: #181716"/>
    <path d="M1112.662,840.759c5.707-6.8,12.317-1.985,17.127,2.051,4.779,4.011,10.669,9.683,4.962,16.484s-12.316,1.987-17.1-2.024C1112.847,853.235,1106.955,847.561,1112.662,840.759Zm19.792,16.608c3.728-4.443-1.762-9.1-5.01-11.825-3.216-2.7-8.756-7.3-12.483-2.854s1.761,9.1,4.977,11.8C1123.187,857.212,1128.727,861.809,1132.454,857.367Z" style="fill: #181716"/>
    <path d="M1126.727,824c5.707-6.8,12.317-1.986,17.127,2.049,4.779,4.011,10.668,9.684,4.961,16.486s-12.316,1.986-17.1-2.025C1126.91,836.473,1121.02,830.8,1126.727,824Zm19.792,16.607c3.727-4.442-1.762-9.1-5.01-11.826-3.217-2.7-8.756-7.295-12.484-2.853s1.76,9.1,4.977,11.8C1137.25,840.451,1142.791,845.048,1146.519,840.606Z" style="fill: #181716"/>
    <path d="M1140.765,807.268c5.707-6.8,12.317-1.985,17.127,2.051,4.779,4.011,10.669,9.682,4.962,16.484s-12.317,1.987-17.1-2.024C1140.948,819.744,1135.058,814.07,1140.765,807.268Zm19.792,16.607c3.727-4.442-1.762-9.1-5.01-11.825-3.217-2.7-8.756-7.3-12.484-2.853s1.76,9.1,4.977,11.8C1151.288,823.721,1156.829,828.318,1160.557,823.875Z" style="fill: #181716"/>
  </g>
  <g>
    <path d="M1291.529,871.167c-4.591-3.488-5.684-8.842-1.828-13.438,3.188-3.8,7.913-4.95,11.957-1.557,3.83,3.213,3.6,7.407,3.023,11.517-.633,4.115-1.645,8.121.613,10.9l9.357-11.151,2.3,1.928-11.9,14.184c-4.786-4.747-4.441-8.893-3.769-13.551.819-5.579,1.037-8.579-1.965-11.1a5.165,5.165,0,0,0-7.443.907c-2.545,3.033-.837,6.658,1.844,8.752Z" style="fill: #181716"/>
    <path d="M1303.919,840.785c5.707-6.8,12.317-1.987,17.127,2.049,4.78,4.011,10.669,9.684,4.962,16.485s-12.316,1.986-17.1-2.025C1304.1,853.259,1298.212,847.585,1303.919,840.785Zm19.792,16.606c3.727-4.442-1.763-9.1-5.01-11.825-3.217-2.7-8.757-7.3-12.484-2.853s1.762,9.1,4.978,11.8C1314.442,857.237,1319.983,861.833,1323.711,857.391Z" style="fill: #181716"/>
    <path d="M1317.983,824.023c5.707-6.8,12.317-1.985,17.126,2.051,4.781,4.01,10.67,9.682,4.963,16.484s-12.316,1.986-17.1-2.024C1318.166,836.5,1312.276,830.825,1317.983,824.023Zm19.792,16.607c3.728-4.442-1.762-9.1-5.009-11.825-3.217-2.7-8.757-7.3-12.485-2.853s1.761,9.1,4.978,11.8C1328.506,840.476,1334.048,845.073,1337.775,840.63Z" style="fill: #181716"/>
    <path d="M1339.622,803.648l-7.352,8.762,5.274,6.409.113-.011a7.166,7.166,0,0,1,1.83-5.354c3.239-3.861,8.368-4.934,13.331-.77,3.677,3.085,5.1,8.609.855,13.664-3.162,3.769-8.029,4.9-12.028,1.706l2.185-2.6c2.364,1.724,5.566,1.33,7.752-1.275,2.082-2.481,2.171-6.008-1.291-8.913a6.141,6.141,0,0,0-9.046.763,6.8,6.8,0,0,0-1.341,5.766l-2,2.133-9.576-11.481,9-10.723Z" style="fill: #181716"/>
  </g>
  <g>
    <path d="M1482.779,871.175c-4.591-3.487-5.685-8.842-1.829-13.437,3.188-3.8,7.914-4.95,11.958-1.557,3.829,3.214,3.6,7.406,3.023,11.517-.634,4.114-1.646,8.121.614,10.9l9.357-11.152,2.3,1.927-11.9,14.185c-4.786-4.747-4.439-8.894-3.768-13.552.818-5.578,1.038-8.578-1.965-11.1a5.165,5.165,0,0,0-7.443.907c-2.545,3.032-.837,6.658,1.844,8.751Z" style="fill: #181716"/>
    <path d="M1495.168,840.793c5.707-6.8,12.318-1.986,17.128,2.05,4.779,4.01,10.668,9.684,4.961,16.485s-12.316,1.986-17.1-2.024C1495.353,853.268,1489.461,847.594,1495.168,840.793ZM1514.96,857.4c3.728-4.442-1.761-9.1-5.009-11.825-3.217-2.7-8.757-7.3-12.484-2.854s1.761,9.1,4.977,11.8C1505.692,857.246,1511.232,861.842,1514.96,857.4Z" style="fill: #181716"/>
    <path d="M1532.959,839.87l-2.185,2.6-15.562-13.058-4.731,5.636L1508.4,833.3c2.494-2.971,3.959-6.337,1.169-9.669l1.671-1.991Z" style="fill: #181716"/>
    <path d="M1523.271,807.3c5.707-6.8,12.318-1.986,17.127,2.05,4.78,4.011,10.668,9.684,4.961,16.484s-12.315,1.987-17.094-2.023C1523.455,819.777,1517.563,814.1,1523.271,807.3Zm19.791,16.607c3.728-4.443-1.761-9.1-5.009-11.826-3.217-2.7-8.756-7.295-12.484-2.853s1.761,9.1,4.978,11.8C1533.8,823.754,1539.335,828.351,1543.062,823.909Z" style="fill: #181716"/>
  </g>
  <g style="clip-path: url(#clip-path)">
    <g>
      <path d="M1865.323,871.169c-4.592-3.487-5.683-8.841-1.828-13.437,3.188-3.8,7.913-4.95,11.957-1.557,3.829,3.214,3.6,7.407,3.023,11.517-.633,4.114-1.646,8.121.614,10.9l9.357-11.152,2.3,1.928-11.9,14.184c-4.787-4.747-4.44-8.893-3.769-13.552.818-5.578,1.038-8.578-1.965-11.1a5.164,5.164,0,0,0-7.442.907c-2.545,3.032-.838,6.658,1.844,8.751Z" style="fill: #181716"/>
      <path d="M1877.714,840.788c5.707-6.8,12.316-1.987,17.126,2.049,4.779,4.01,10.67,9.684,4.963,16.485s-12.318,1.986-17.1-2.024C1877.9,853.262,1872.007,847.588,1877.714,840.788Zm19.791,16.606c3.727-4.442-1.762-9.1-5.01-11.825-3.217-2.7-8.756-7.3-12.483-2.854s1.759,9.1,4.976,11.8C1888.236,857.24,1893.777,861.836,1897.505,857.394Z" style="fill: #181716"/>
      <path d="M1893.451,837.648c-4.592-3.487-5.683-8.842-1.828-13.438,3.189-3.8,7.913-4.95,11.957-1.556,3.829,3.213,3.6,7.4,3.024,11.515-.634,4.116-1.646,8.122.613,10.9l9.357-11.152,2.3,1.928-11.9,14.185c-4.787-4.748-4.44-8.895-3.769-13.552.818-5.579,1.038-8.579-1.965-11.1a5.164,5.164,0,0,0-7.442.907c-2.545,3.033-.838,6.659,1.844,8.751Z" style="fill: #181716"/>
      <path d="M1905.842,807.265c5.707-6.8,12.316-1.985,17.126,2.051,4.779,4.01,10.67,9.683,4.963,16.484s-12.318,1.987-17.1-2.024C1906.024,819.741,1900.135,814.067,1905.842,807.265Zm19.791,16.608c3.727-4.443-1.762-9.1-5.01-11.826-3.217-2.7-8.756-7.3-12.483-2.853s1.76,9.1,4.977,11.8C1916.365,823.718,1921.905,828.315,1925.633,823.873Z" style="fill: #181716"/>
    </g>
  </g>
  <g>
    <path d="M1674.074,871.171c-4.591-3.486-5.684-8.84-1.828-13.436,3.188-3.8,7.913-4.95,11.958-1.557,3.829,3.213,3.6,7.4,3.023,11.516-.634,4.115-1.646,8.121.614,10.9l9.357-11.152,2.3,1.928-11.9,14.184c-4.787-4.747-4.44-8.893-3.769-13.551.818-5.579,1.037-8.579-1.965-11.1a5.164,5.164,0,0,0-7.443.906c-2.545,3.033-.837,6.658,1.843,8.752Z" style="fill: #181716"/>
    <path d="M1686.464,840.79c5.707-6.8,12.318-1.986,17.128,2.049,4.779,4.011,10.668,9.684,4.961,16.486s-12.316,1.985-17.1-2.025C1686.648,853.265,1680.757,847.591,1686.464,840.79Zm19.792,16.607c3.727-4.442-1.761-9.1-5.009-11.826-3.217-2.7-8.757-7.3-12.484-2.853s1.76,9.1,4.977,11.8C1696.988,857.242,1702.528,861.839,1706.256,857.4Z" style="fill: #181716"/>
    <path d="M1724.255,839.866l-2.185,2.6-15.563-13.058-4.731,5.636-2.083-1.748c2.494-2.971,3.959-6.336,1.169-9.669l1.671-1.991Z" style="fill: #181716"/>
    <path d="M1722.194,803.622l-7.352,8.762,5.273,6.408.113-.009a7.165,7.165,0,0,1,1.831-5.355c3.239-3.86,8.368-4.934,13.331-.769,3.676,3.085,5.095,8.609.854,13.665-3.162,3.767-8.029,4.9-12.028,1.705l2.184-2.6c2.367,1.724,5.568,1.329,7.753-1.274,2.082-2.482,2.171-6.01-1.292-8.915a6.141,6.141,0,0,0-9.046.763,6.805,6.805,0,0,0-1.339,5.766l-2,2.134-9.579-11.482,9-10.723Z" style="fill: #181716"/>
  </g>
  <line x1="762.726" y1="785.949" x2="762.726" y2="773.133" style="fill: none;stroke: #181716;stroke-linejoin: round;stroke-width: 2.4000000953674316px"/>
  <line x1="188.179" y1="785.949" x2="188.179" y2="773.133" style="fill: none;stroke: #181716;stroke-linejoin: round;stroke-width: 2.4000000953674316px"/>
  <line x1="149.866" y1="785.949" x2="149.866" y2="773.133" style="fill: none;stroke: #181716;stroke-linejoin: round;stroke-width: 2.4000000953674316px"/>
  <line x1="839.32" y1="785.949" x2="839.32" y2="773.133" style="fill: none;stroke: #181716;stroke-linejoin: round;stroke-width: 2.4000000953674316px"/>
  <line x1="264.788" y1="785.949" x2="264.788" y2="773.133" style="fill: none;stroke: #181716;stroke-linejoin: round;stroke-width: 2.4000000953674316px"/>
  <line x1="1107.444" y1="785.949" x2="1107.444" y2="773.133" style="fill: none;stroke: #181716;stroke-linejoin: round;stroke-width: 2.4000000953674316px"/>
  <line x1="417.992" y1="785.949" x2="417.992" y2="773.133" style="fill: none;stroke: #181716;stroke-linejoin: round;stroke-width: 2.4000000953674316px"/>
  <line x1="1184.046" y1="785.949" x2="1184.046" y2="773.133" style="fill: none;stroke: #181716;stroke-linejoin: round;stroke-width: 2.4000000953674316px"/>
  <line x1="494.608" y1="785.949" x2="494.608" y2="773.133" style="fill: none;stroke: #181716;stroke-linejoin: round;stroke-width: 2.4000000953674316px"/>
  <line x1="1490.468" y1="785.949" x2="1490.468" y2="773.133" style="fill: none;stroke: #181716;stroke-linejoin: round;stroke-width: 2.4000000953674316px"/>
  <line x1="915.928" y1="785.949" x2="915.928" y2="773.133" style="fill: none;stroke: #181716;stroke-linejoin: round;stroke-width: 2.4000000953674316px"/>
  <line x1="341.382" y1="785.949" x2="341.382" y2="773.133" style="fill: none;stroke: #181716;stroke-linejoin: round;stroke-width: 2.4000000953674316px"/>
  <line x1="992.53" y1="785.949" x2="992.53" y2="773.133" style="fill: none;stroke: #181716;stroke-linejoin: round;stroke-width: 2.4000000953674316px"/>
  <line x1="1260.656" y1="785.949" x2="1260.656" y2="773.133" style="fill: none;stroke: #181716;stroke-linejoin: round;stroke-width: 2.4000000953674316px"/>
  <line x1="571.202" y1="785.949" x2="571.202" y2="773.133" style="fill: none;stroke: #181716;stroke-linejoin: round;stroke-width: 2.4000000953674316px"/>
  <line x1="1605.382" y1="785.949" x2="1605.382" y2="773.133" style="fill: none;stroke: #181716;stroke-linejoin: round;stroke-width: 2.4000000953674316px"/>
  <line x1="1873.492" y1="785.949" x2="1873.492" y2="773.133" style="fill: none;stroke: #181716;stroke-linejoin: round;stroke-width: 2.4000000953674316px"/>
  <line x1="801.03" y1="785.949" x2="801.03" y2="773.133" style="fill: none;stroke: #181716;stroke-linejoin: round;stroke-width: 2.4000000953674316px"/>
  <line x1="226.484" y1="785.949" x2="226.484" y2="773.133" style="fill: none;stroke: #181716;stroke-linejoin: round;stroke-width: 2.4000000953674316px"/>
  <line x1="877.624" y1="785.949" x2="877.624" y2="773.133" style="fill: none;stroke: #181716;stroke-linejoin: round;stroke-width: 2.4000000953674316px"/>
  <line x1="303.077" y1="785.949" x2="303.077" y2="773.133" style="fill: none;stroke: #181716;stroke-linejoin: round;stroke-width: 2.4000000953674316px"/>
  <line x1="954.241" y1="785.949" x2="954.241" y2="773.133" style="fill: none;stroke: #181716;stroke-linejoin: round;stroke-width: 2.4000000953674316px"/>
  <line x1="1145.741" y1="785.949" x2="1145.741" y2="773.133" style="fill: none;stroke: #181716;stroke-linejoin: round;stroke-width: 2.4000000953674316px"/>
  <line x1="456.304" y1="785.949" x2="456.304" y2="773.133" style="fill: none;stroke: #181716;stroke-linejoin: round;stroke-width: 2.4000000953674316px"/>
  <line x1="1222.351" y1="785.949" x2="1222.351" y2="773.133" style="fill: none;stroke: #181716;stroke-linejoin: round;stroke-width: 2.4000000953674316px"/>
  <line x1="532.897" y1="785.949" x2="532.897" y2="773.133" style="fill: none;stroke: #181716;stroke-linejoin: round;stroke-width: 2.4000000953674316px"/>
  <line x1="1528.772" y1="785.949" x2="1528.772" y2="773.133" style="fill: none;stroke: #181716;stroke-linejoin: round;stroke-width: 2.4000000953674316px"/>
  <line x1="1567.077" y1="785.949" x2="1567.077" y2="773.133" style="fill: none;stroke: #181716;stroke-linejoin: round;stroke-width: 2.4000000953674316px"/>
  <line x1="1758.585" y1="785.949" x2="1758.585" y2="773.133" style="fill: none;stroke: #181716;stroke-linejoin: round;stroke-width: 2.4000000953674316px"/>
  <line x1="1796.897" y1="785.949" x2="1796.897" y2="773.133" style="fill: none;stroke: #181716;stroke-linejoin: round;stroke-width: 2.4000000953674316px"/>
  <line x1="1835.202" y1="785.949" x2="1835.202" y2="773.133" style="fill: none;stroke: #181716;stroke-linejoin: round;stroke-width: 2.4000000953674316px"/>
  <line x1="1030.835" y1="785.949" x2="1030.835" y2="773.133" style="fill: none;stroke: #181716;stroke-linejoin: round;stroke-width: 2.4000000953674316px"/>
  <line x1="1298.96" y1="785.949" x2="1298.96" y2="773.133" style="fill: none;stroke: #181716;stroke-linejoin: round;stroke-width: 2.4000000953674316px"/>
  <line x1="609.507" y1="785.949" x2="609.507" y2="773.133" style="fill: none;stroke: #181716;stroke-linejoin: round;stroke-width: 2.4000000953674316px"/>
  <line x1="1375.561" y1="785.949" x2="1375.561" y2="773.133" style="fill: none;stroke: #181716;stroke-linejoin: round;stroke-width: 2.4000000953674316px"/>
  <line x1="1413.859" y1="785.949" x2="1413.859" y2="773.133" style="fill: none;stroke: #181716;stroke-linejoin: round;stroke-width: 2.4000000953674316px"/>
  <line x1="686.108" y1="785.949" x2="686.108" y2="773.133" style="fill: none;stroke: #181716;stroke-linejoin: round;stroke-width: 2.4000000953674316px"/>
  <line x1="1643.687" y1="785.949" x2="1643.687" y2="773.133" style="fill: none;stroke: #181716;stroke-linejoin: round;stroke-width: 2.4000000953674316px"/>
  <line x1="1681.984" y1="785.949" x2="1681.984" y2="773.133" style="fill: none;stroke: #181716;stroke-linejoin: round;stroke-width: 2.4000000953674316px"/>
  <line x1="1911.796" y1="785.949" x2="1911.796" y2="773.133" style="fill: none;stroke: #181716;stroke-linejoin: round;stroke-width: 2.4000000953674316px"/>
  <line x1="1069.14" y1="785.949" x2="1069.14" y2="773.133" style="fill: none;stroke: #181716;stroke-linejoin: round;stroke-width: 2.4000000953674316px"/>
  <line x1="379.687" y1="785.949" x2="379.687" y2="773.133" style="fill: none;stroke: #181716;stroke-linejoin: round;stroke-width: 2.4000000953674316px"/>
  <line x1="1337.257" y1="785.949" x2="1337.257" y2="773.133" style="fill: none;stroke: #181716;stroke-linejoin: round;stroke-width: 2.4000000953674316px"/>
  <line x1="647.82" y1="785.949" x2="647.82" y2="773.133" style="fill: none;stroke: #181716;stroke-linejoin: round;stroke-width: 2.4000000953674316px"/>
  <line x1="1452.171" y1="785.949" x2="1452.171" y2="773.133" style="fill: none;stroke: #181716;stroke-linejoin: round;stroke-width: 2.4000000953674316px"/>
  <line x1="724.421" y1="785.949" x2="724.421" y2="773.133" style="fill: none;stroke: #181716;stroke-linejoin: round;stroke-width: 2.4000000953674316px"/>
  <line x1="1720.288" y1="785.949" x2="1720.288" y2="773.133" style="fill: none;stroke: #181716;stroke-linejoin: round;stroke-width: 2.4000000953674316px"/>
  <line x1="1910.032" y1="117.249" x2="115.408" y2="117.249" style="fill: none;stroke: #cfd0d0;stroke-miterlimit: 10;stroke-width: 2.4000000953674316px;stroke-dasharray: 16.016000747680664,8.015999794006348"/>
  <line x1="97.604" y1="117.249" x2="112.868" y2="117.249" style="fill: none;stroke: #181716;stroke-linejoin: round;stroke-width: 2.4000000953674316px"/>
  <line x1="115.406" y1="210.998" x2="1910.03" y2="210.998" style="fill: none;stroke: #cfd0d0;stroke-linejoin: round;stroke-width: 2.4000000953674316px;stroke-dasharray: 16.016000747680664,8.015999794006348"/>
  <line x1="115.406" y1="398.49" x2="1910.03" y2="398.49" style="fill: none;stroke: #cfd0d0;stroke-linejoin: round;stroke-width: 2.4000000953674316px;stroke-dasharray: 16.016000747680664,8.015999794006348"/>
  <line x1="115.406" y1="304.741" x2="1910.03" y2="304.741" style="fill: none;stroke: #cfd0d0;stroke-linejoin: round;stroke-width: 2.4000000953674316px;stroke-dasharray: 16.016000747680664,8.015999794006348"/>
  <line x1="115.406" y1="492.241" x2="1910.03" y2="492.241" style="fill: none;stroke: #cfd0d0;stroke-linejoin: round;stroke-width: 2.4000000953674316px;stroke-dasharray: 16.016000747680664,8.015999794006348"/>
  <line x1="97.604" y1="210.998" x2="111.212" y2="210.998" style="fill: none;stroke: #181716;stroke-linejoin: round;stroke-width: 2.4000000953674316px"/>
  <line x1="97.604" y1="304.741" x2="111.212" y2="304.741" style="fill: none;stroke: #181716;stroke-linejoin: round;stroke-width: 2.4000000953674316px"/>
  <line x1="115.406" y1="585.983" x2="1910.03" y2="585.983" style="fill: none;stroke: #cfd0d0;stroke-linejoin: round;stroke-width: 2.4000000953674316px;stroke-dasharray: 16.016000747680664,8.015999794006348"/>
  <line x1="115.406" y1="679.725" x2="1910.03" y2="679.725" style="fill: none;stroke: #cfd0d0;stroke-linejoin: round;stroke-width: 2.4000000953674316px;stroke-dasharray: 16.016000747680664,8.015999794006348"/>
  <line x1="97.604" y1="679.733" x2="111.212" y2="679.733" style="fill: none;stroke: #181716;stroke-linejoin: round;stroke-width: 2.4000000953674316px"/>
  <line x1="97.604" y1="585.983" x2="111.212" y2="585.983" style="fill: none;stroke: #181716;stroke-linejoin: round;stroke-width: 2.4000000953674316px"/>
  <line x1="97.604" y1="492.233" x2="111.212" y2="492.233" style="fill: none;stroke: #181716;stroke-linejoin: round;stroke-width: 2.4000000953674316px"/>
  <line x1="97.604" y1="398.49" x2="111.212" y2="398.49" style="fill: none;stroke: #181716;stroke-linejoin: round;stroke-width: 2.4000000953674316px"/>
  <g style="clip-path: url(#clip-path)">
    <g>
      <path d="M9.818,10.929H34.8v4.219H14.365V25.6h18.89v3.984H14.365V41.257H35.154v4.1H9.818Z" style="fill: #181716"/>
      <path d="M40.346,20.257h4.008V23.82a11.226,11.226,0,0,1,3.773-3.164,10.058,10.058,0,0,1,4.43-.961q5.343,0,7.218,3.726a13.227,13.227,0,0,1,1.032,5.836v16.1H56.518V29.539a8.572,8.572,0,0,0-.68-3.7,4.12,4.12,0,0,0-4.078-2.343,8.308,8.308,0,0,0-2.461.3,6.344,6.344,0,0,0-3.047,2.063,6.208,6.208,0,0,0-1.371,2.566,17.268,17.268,0,0,0-.317,3.785V45.359H40.346Z" style="fill: #181716"/>
      <path d="M102.755,10.929v4.1h-11.6V45.359H86.442V15.031h-11.6v-4.1Z" style="fill: #181716"/>
      <path d="M108.85,10.929,115.34,38.9l7.783-27.972h5.041l7.8,28.025,6.491-28.025h5.113l-9.047,34.43h-4.9l-7.946-28.547-7.992,28.547h-4.9l-9-34.43Z" style="fill: #181716"/>
      <path d="M150.826,10.812h4.218V23.656a12.179,12.179,0,0,1,2.7-2.672,9.087,9.087,0,0,1,5.086-1.336q5.46,0,7.406,3.82a13.032,13.032,0,0,1,1.055,5.789v16.1h-4.336V29.539a8.858,8.858,0,0,0-.7-4.055q-1.149-2.062-4.313-2.063a7.186,7.186,0,0,0-4.758,1.8q-2.133,1.8-2.133,6.82V45.359h-4.218Z" style="fill: #181716"/>
      <path d="M189.513,10.929H204.92a10.455,10.455,0,0,1,7.378,2.59,9.406,9.406,0,0,1,2.809,7.277,10.584,10.584,0,0,1-2.507,7.02q-2.506,2.988-7.672,2.988H194.177V45.359h-4.664ZM207.6,15.664a10.009,10.009,0,0,0-4.212-.727h-9.215v11.93h9.215a8.764,8.764,0,0,0,5.061-1.336q1.942-1.336,1.943-4.711Q210.4,17.024,207.6,15.664Z" style="fill: #181716"/>
      <path d="M244.955,13.437a12.221,12.221,0,0,1,3.961,7.828h-4.547a9.492,9.492,0,0,0-3.027-5.273,9.475,9.475,0,0,0-6.364-1.946,10.122,10.122,0,0,0-8.068,3.578q-3.072,3.576-3.072,10.966a16.147,16.147,0,0,0,2.774,9.817q2.775,3.765,8.277,3.764A8.7,8.7,0,0,0,242.6,38.21a15.228,15.228,0,0,0,2.095-5.484h4.547a15.624,15.624,0,0,1-3.985,9.117q-4.053,4.429-10.935,4.43a14.325,14.325,0,0,1-9.962-3.635q-5.306-4.807-5.305-14.846,0-7.622,3.984-12.5,4.308-5.3,11.884-5.3Q241.387,9.992,244.955,13.437Z" style="fill: #181716"/>
      <path d="M257.786,34.25a9.669,9.669,0,0,0,1.332,4.757q2.235,3.423,7.88,3.422a13.49,13.49,0,0,0,4.606-.75q4.017-1.454,4.018-5.2a4.55,4.55,0,0,0-1.7-4.008,16.86,16.86,0,0,0-5.4-2.039L264,29.375A20.076,20.076,0,0,1,257.73,27.1a7.272,7.272,0,0,1-3.178-6.445,10.057,10.057,0,0,1,3.124-7.617q3.125-2.977,8.85-2.977a15.073,15.073,0,0,1,8.952,2.613q3.682,2.613,3.683,8.356h-4.383a8.851,8.851,0,0,0-1.438-4.242q-2.045-2.7-6.943-2.7-3.955,0-5.686,1.735a5.537,5.537,0,0,0-1.73,4.031,3.962,3.962,0,0,0,2.044,3.7,29.3,29.3,0,0,0,6.064,1.875l4.678,1.1a14.076,14.076,0,0,1,5.222,2.179,8.263,8.263,0,0,1,3.18,7.008q0,5.72-4.057,8.18a17.827,17.827,0,0,1-9.429,2.461q-6.263,0-9.806-3.282A11.206,11.206,0,0,1,253.4,34.25Z" style="fill: #181716"/>
    </g>
    <path d="M284.949,15.519V13.633a10.03,10.03,0,0,0,3.717-.867,4.276,4.276,0,0,0,1.571-2.876h1.94V29.375h-2.623V15.519Z" style="fill: #181716"/>
  </g>
  <polygon points="112.57 772.377 150.874 772.377 189.178 771.841 227.482 767.985 265.786 757.297 304.09 754.721 342.394 752.073 380.698 747.193 419.002 745.953 457.306 746.345 495.61 747.297 533.914 748.833 572.218 746.833 610.522 733.905 648.826 718.449 687.13 715.937 725.434 712.385 763.738 713.449 802.042 710.361 840.346 707.209 878.65 709.585 916.954 693.961 955.266 689.689 993.57 661.649 1031.874 657.689 1070.178 659.825 1108.482 633.337 1146.786 641.425 1185.09 644.209 1223.394 638.361 1261.698 639.577 1300.002 642.065 1338.306 656.441 1376.61 635.105 1414.914 629.385 1453.218 619.249 1491.522 612.921 1529.826 602.009 1568.13 588.105 1606.434 555.737 1644.738 566.361 1683.042 551.769 1721.346 544.785 1759.65 560.161 1797.954 553.113 1836.258 567.737 1874.562 561.425 1912.866 592.033 1912.866 772.377 1874.562 772.377 1836.258 772.377 1797.954 772.377 1759.65 772.377 1721.346 772.377 1683.042 772.377 1644.738 772.377 1606.434 772.377 1568.13 772.377 1529.826 772.377 1491.522 772.377 1453.218 772.377 1414.914 772.377 1376.61 772.377 1338.306 772.377 1300.002 772.377 1261.698 772.377 1223.394 772.377 1185.09 772.377 1146.786 772.377 1108.482 772.377 1070.178 772.377 1031.874 772.377 993.57 772.377 955.266 772.377 916.954 772.377 878.65 772.377 840.346 772.377 802.042 772.377 763.738 772.377 725.434 772.377 687.13 772.377 648.826 772.377 610.522 772.377 572.218 772.377 533.914 772.377 495.61 772.377 457.306 772.377 419.002 772.377 380.698 772.377 342.394 772.377 304.09 772.377 265.786 772.377 227.482 772.377 189.178 772.377 150.874 772.377 112.57 772.377" style="fill: #3fc0ee"/>
  <polygon points="112.57 772.377 150.874 756.969 189.178 755.793 227.482 757.585 265.786 738.649 304.09 729.777 342.394 727.617 380.698 711.305 419.002 704.017 457.306 709.217 495.61 710.841 533.914 703.785 572.218 680.369 610.522 641.833 648.826 634.505 687.13 633.561 725.434 628.241 763.738 611.753 802.042 601.097 840.346 591.473 878.65 599.113 916.954 577.137 955.266 564.753 993.57 542.793 1031.874 552.649 1070.178 555.969 1108.482 508.265 1146.786 516.705 1185.09 536.753 1223.394 528.737 1261.698 532.561 1300.002 542.241 1338.306 558.385 1376.61 559.313 1414.914 567.657 1453.218 549.057 1491.522 540.713 1529.826 530.073 1568.13 514.945 1606.434 474.433 1644.738 464.441 1683.042 482.329 1721.346 483.113 1759.65 458.449 1797.954 454.825 1836.258 461.457 1874.562 444.761 1912.866 507.769 1912.866 592.033 1874.562 561.425 1836.258 567.737 1797.954 553.113 1759.65 560.161 1721.346 544.785 1683.042 551.769 1644.738 566.361 1606.434 555.737 1568.13 588.105 1529.826 602.009 1491.522 612.921 1453.218 619.249 1414.914 629.385 1376.61 635.105 1338.306 656.441 1300.002 642.065 1261.698 639.577 1223.394 638.361 1185.09 644.209 1146.786 641.425 1108.482 633.337 1070.178 659.825 1031.874 657.689 993.57 661.649 955.266 689.689 916.954 693.961 878.65 709.585 840.346 707.209 802.042 710.361 763.738 713.449 725.434 712.385 687.13 715.937 648.826 718.449 610.522 733.905 572.218 746.833 533.914 748.833 495.61 747.297 457.306 746.345 419.002 745.953 380.698 747.193 342.394 752.073 304.09 754.721 265.786 757.297 227.482 767.985 189.178 771.841 150.874 772.377 112.57 772.377" style="fill: #800904"/>
  <polygon points="112.57 697.03 150.874 680.326 189.178 679.982 227.482 662.214 265.786 648.046 304.09 635.966 342.394 624.318 380.698 609.638 419.002 615.614 457.306 655.534 495.61 642.014 533.914 636.03 572.218 608.934 610.522 591.406 648.826 595.454 687.13 603.198 725.434 590.766 763.738 572.238 802.042 552.99 840.346 538.526 878.65 555.646 916.954 532.35 955.266 517.334 993.57 486.926 1031.874 503.854 1070.178 504.302 1108.482 454.926 1146.786 464.87 1185.09 484.958 1223.394 474.63 1261.698 459.454 1300.002 450.23 1338.306 476.918 1376.61 469.518 1414.914 483.406 1453.218 462.566 1491.522 461.334 1529.826 454.942 1568.13 421.718 1606.434 392.47 1644.738 385.326 1683.042 420.182 1721.346 425.158 1759.65 401.95 1797.954 401.862 1836.258 409.958 1874.562 400.654 1912.866 470.278 1912.866 507.774 1874.562 444.758 1836.258 461.462 1797.954 454.83 1759.65 458.446 1721.346 483.11 1683.042 482.334 1644.738 464.446 1606.434 474.43 1568.13 514.942 1529.826 530.078 1491.522 540.71 1453.218 549.054 1414.914 567.654 1376.61 559.31 1338.306 558.39 1300.002 542.238 1261.698 532.558 1223.394 528.742 1185.09 536.75 1146.786 516.702 1108.482 508.27 1070.178 555.966 1031.874 552.654 993.57 542.79 955.266 564.758 916.954 577.142 878.65 599.11 840.346 591.478 802.042 601.102 763.738 611.758 725.434 628.246 687.13 633.558 648.826 634.502 610.522 641.83 572.218 680.366 533.914 703.782 495.61 710.846 457.306 709.214 419.002 704.014 380.698 711.302 342.394 727.614 304.09 729.774 265.786 738.654 227.482 757.582 189.178 755.798 150.874 756.974 112.57 772.374 112.57 697.03" style="fill: #c0e3ed"/>
  <polygon points="112.57 680.225 150.874 662.249 189.178 657.689 227.482 630.225 265.786 620.657 304.09 605.481 342.394 593.353 380.698 588.249 419.002 572.433 457.306 587.553 495.61 558.849 533.914 551.769 572.218 526.609 610.522 510.937 648.826 496.697 687.13 509.001 725.434 496.497 763.738 474.769 802.042 456.569 840.346 440.145 878.65 461.001 916.954 448.217 955.266 438.425 993.57 407.833 1031.874 404.265 1070.178 400.385 1108.482 347.393 1146.786 359.417 1185.09 380.625 1223.394 365.801 1261.698 358.017 1300.002 389.897 1338.306 396.657 1376.61 393.281 1414.914 402.401 1453.218 383.913 1491.522 381.937 1529.826 385.993 1568.13 361.609 1606.434 350.889 1644.738 332.937 1683.042 374.937 1721.346 383.561 1759.65 350.993 1797.954 360.953 1836.258 372.625 1874.562 359.913 1912.866 431.041 1912.866 470.281 1874.562 400.649 1836.258 409.961 1797.954 401.865 1759.65 401.945 1721.346 425.153 1683.042 420.185 1644.738 385.329 1606.434 392.473 1568.13 421.721 1529.826 454.945 1491.522 461.337 1453.218 462.569 1414.914 483.409 1376.61 469.513 1338.306 476.913 1300.002 450.225 1261.698 459.457 1223.394 474.633 1185.09 484.953 1146.786 464.865 1108.482 454.929 1070.178 504.305 1031.874 503.849 993.57 486.921 955.266 517.337 916.954 532.353 878.65 555.649 840.346 538.529 802.042 552.993 763.738 572.241 725.434 590.769 687.13 603.201 648.826 595.449 610.522 591.401 572.218 608.937 533.914 636.025 495.61 642.017 457.306 655.537 419.002 615.609 380.698 609.641 342.394 624.321 304.09 635.969 265.786 648.049 227.482 662.209 189.178 679.985 150.874 680.321 112.57 697.033 112.57 680.225" style="fill: #ffec0e"/>
  <polygon points="112.57 680.225 150.874 662.249 189.178 657.689 227.482 630.225 265.786 620.657 304.09 605.481 342.394 593.353 380.698 588.249 419.002 572.433 457.306 587.553 495.61 558.849 533.914 551.769 572.218 526.609 610.522 510.937 648.826 496.697 687.13 509.001 725.434 496.497 763.738 474.769 802.042 456.569 840.346 440.145 878.65 461.001 916.954 448.217 955.266 438.425 993.57 407.833 1031.874 404.265 1070.178 400.385 1108.482 347.393 1146.786 359.417 1185.09 380.625 1223.394 331.121 1261.698 319.849 1300.002 350.745 1338.306 358.633 1376.61 348.993 1414.914 369.697 1453.218 358.841 1491.522 368.913 1529.826 348.169 1568.13 324.745 1606.434 323.145 1644.738 321.993 1683.042 364.953 1721.346 371.689 1759.65 336.129 1797.954 328.825 1836.258 337.321 1874.562 308.937 1912.866 393.985 1912.866 431.041 1874.562 359.913 1836.258 372.625 1797.954 360.953 1759.65 350.993 1721.346 383.561 1683.042 374.937 1644.738 332.937 1606.434 350.889 1568.13 361.609 1529.826 385.993 1491.522 381.937 1453.218 383.913 1414.914 402.401 1376.61 393.281 1338.306 396.657 1300.002 389.897 1261.698 358.017 1223.394 365.801 1185.09 380.625 1146.786 359.417 1108.482 347.393 1070.178 400.385 1031.874 404.265 993.57 407.833 955.266 438.425 916.954 448.217 878.65 461.001 840.346 440.145 802.042 456.569 763.738 474.769 725.434 496.497 687.13 509.001 648.826 496.697 610.522 510.937 572.218 526.609 533.914 551.769 495.61 558.849 457.306 587.553 419.002 572.433 380.698 588.249 342.394 593.353 304.09 605.481 265.786 620.657 227.482 630.225 189.178 657.689 150.874 662.249 112.57 680.225" style="fill: #f39400"/>
  <polygon points="112.57 680.225 150.874 662.249 189.178 657.689 227.482 630.225 265.786 620.657 304.09 605.481 342.394 593.353 380.698 588.249 419.002 572.433 457.306 587.553 495.61 558.849 533.914 551.769 572.218 526.609 610.522 510.937 648.826 496.697 687.13 509.001 725.434 496.497 763.738 474.769 802.042 456.569 840.346 440.145 878.65 461.001 916.954 448.217 955.266 438.425 993.57 407.833 1031.874 404.265 1070.178 400.385 1108.482 347.393 1146.786 359.417 1185.09 380.625 1223.394 331.121 1261.698 319.849 1300.002 350.745 1338.306 358.633 1376.61 348.993 1414.914 369.697 1453.218 358.841 1491.522 363.785 1529.826 320.233 1568.13 295.497 1606.434 304.273 1644.738 306.457 1683.042 356.209 1721.346 366.937 1759.65 327.769 1797.954 307.417 1836.258 322.489 1874.562 285.129 1912.866 386.473 1912.866 393.985 1874.562 308.937 1836.258 337.321 1797.954 328.825 1759.65 336.129 1721.346 371.689 1683.042 364.953 1644.738 321.993 1606.434 323.145 1568.13 324.745 1529.826 348.169 1491.522 368.913 1453.218 358.841 1414.914 369.697 1376.61 348.993 1338.306 358.633 1300.002 350.745 1261.698 319.849 1223.394 331.121 1185.09 380.625 1146.786 359.417 1108.482 347.393 1070.178 400.385 1031.874 404.265 993.57 407.833 955.266 438.425 916.954 448.217 878.65 461.001 840.346 440.145 802.042 456.569 763.738 474.769 725.434 496.497 687.13 509.001 648.826 496.697 610.522 510.937 572.218 526.609 533.914 551.769 495.61 558.849 457.306 587.553 419.002 572.433 380.698 588.249 342.394 593.353 304.09 605.481 265.786 620.657 227.482 630.225 189.178 657.689 150.874 662.249 112.57 680.225" style="fill: #e41e0d"/>
  <polygon points="112.57 680.225 150.874 662.249 189.178 657.689 227.482 630.225 265.786 620.345 304.09 605.425 342.394 593.049 380.698 575.961 419.002 560.873 457.306 574.993 495.61 543.609 533.914 551.305 572.218 526.185 610.522 509.529 648.826 495.089 687.13 509.001 725.434 496.489 763.738 474.769 802.042 456.569 840.346 440.145 878.65 461.001 916.954 448.217 955.266 433.249 993.57 406.665 1031.874 404.265 1070.178 400.385 1108.482 344.545 1146.786 332.513 1185.09 341.057 1223.394 320.017 1261.698 308.673 1300.002 290.673 1338.306 270.209 1376.61 288.009 1414.914 315.025 1453.218 288.585 1491.522 281.113 1529.826 264.329 1568.13 241.233 1606.434 261.337 1644.738 259.441 1683.042 287.465 1721.346 297.257 1759.65 274.905 1797.954 251.729 1836.258 242.857 1874.562 182.377 1912.866 274.233 1912.866 386.473 1874.562 285.129 1836.258 322.489 1797.954 307.417 1759.65 327.769 1721.346 366.937 1683.042 356.209 1644.738 306.457 1606.434 304.273 1568.13 295.497 1529.826 320.233 1491.522 363.785 1453.218 358.841 1414.914 369.697 1376.61 348.993 1338.306 358.633 1300.002 350.745 1261.698 319.849 1223.394 331.121 1185.09 380.625 1146.786 359.417 1108.482 347.393 1070.178 400.385 1031.874 404.265 993.57 407.833 955.266 438.425 916.954 448.217 878.65 461.001 840.346 440.145 802.042 456.569 763.738 474.769 725.434 496.497 687.13 509.001 648.826 496.697 610.522 510.937 572.218 526.609 533.914 551.769 495.61 558.849 457.306 587.553 419.002 572.433 380.698 588.249 342.394 593.353 304.09 605.481 265.786 620.657 227.482 630.225 189.178 657.689 150.874 662.249 112.57 680.225" style="fill: #99c316"/>
  <line x1="96.994" y1="773.483" x2="1912.866" y2="773.483" style="fill: none;stroke: #181716;stroke-linejoin: round;stroke-width: 2.4000000953674316px"/>
  <line x1="111.569" y1="788.797" x2="111.569" y2="117.357" style="fill: none;stroke: #181716;stroke-linejoin: round;stroke-width: 2.4000000953674316px"/>
</svg>
