<?xml version="1.0" encoding="UTF-8" standalone="no"?>
<svg
   id="Calque_1"
   data-name="Calque 1"
   viewBox="0 0 1940 1139.383"
   version="1.1"
   sodipodi:docname="repartition-conso-energ-primiaire-CGDD.svg"
   inkscape:version="1.1.2 (0a00cf5339, 2022-02-04)"
   xmlns:inkscape="http://www.inkscape.org/namespaces/inkscape"
   xmlns:sodipodi="http://sodipodi.sourceforge.net/DTD/sodipodi-0.dtd"
   xmlns="http://www.w3.org/2000/svg"
   xmlns:svg="http://www.w3.org/2000/svg">
  <sodipodi:namedview
     id="namedview526"
     pagecolor="#ffffff"
     bordercolor="#666666"
     borderopacity="1.0"
     inkscape:pageshadow="2"
     inkscape:pageopacity="0.0"
     inkscape:pagecheckerboard="0"
     showgrid="false"
     inkscape:zoom="0.65386263"
     inkscape:cx="970.38731"
     inkscape:cy="569.69153"
     inkscape:window-width="1546"
     inkscape:window-height="836"
     inkscape:window-x="0"
     inkscape:window-y="0"
     inkscape:window-maximized="1"
     inkscape:current-layer="Calque_1" />
  <defs
     id="defs5">
    <clipPath
       id="clip-path">
      <rect
         x="6.326"
         y="9.25"
         width="1927.56"
         height="1152"
         style="fill: none"
         id="rect2" />
    </clipPath>
  </defs>
  <g
     clip-path="url(#clip-path)"
     id="g105">
    <g
       id="g103">
      <path
         d="M 10.426,10.821 H 35.41 V 15.04 H 14.973 v 10.453 h 18.89 v 3.984 h -18.89 v 11.672 h 20.789 v 4.1 H 10.426 Z"
         style="fill:#181716"
         id="path7" />
      <path
         d="m 40.954,20.149 h 4.007 v 3.562 a 11.262,11.262 0 0 1 3.774,-3.164 10.072,10.072 0 0 1 4.43,-0.961 q 5.343,0 7.218,3.727 a 13.224,13.224 0 0 1 1.032,5.836 v 16.1 h -4.29 V 29.43 a 8.571,8.571 0 0 0 -0.679,-3.7 4.122,4.122 0 0 0 -4.078,-2.344 8.3,8.3 0 0 0 -2.461,0.3 6.337,6.337 0 0 0 -3.047,2.064 6.217,6.217 0 0 0 -1.371,2.567 17.262,17.262 0 0 0 -0.317,3.785 V 45.25 h -4.218 z"
         style="fill:#181716"
         id="path9" />
      <path
         d="m 91.031,15.1 a 7.9,7.9 0 0 1 2.391,5.777 8.168,8.168 0 0 1 -16.336,0 7.9,7.9 0 0 1 2.391,-5.777 8.148,8.148 0 0 1 11.554,0 z m -2.355,9.188 a 4.81,4.81 0 0 0 0,-6.821 4.835,4.835 0 0 0 -8.262,3.41 4.839,4.839 0 0 0 8.262,3.411 z m 16.183,-12.457 h 2.616 L 88.7,46.141 h -2.614 z m 9.164,19.48 a 8.166,8.166 0 0 1 0,11.547 8.168,8.168 0 0 1 -13.945,-5.773 8.168,8.168 0 0 1 13.945,-5.774 z m -2.355,9.189 a 4.831,4.831 0 1 0 -3.41,1.421 4.668,4.668 0 0 0 3.41,-1.421 z"
         style="fill:#181716"
         id="path11" />
      <path
         d="m 143.406,10.258 a 81.813,81.813 0 0 0 -4.781,10.524 38.452,38.452 0 0 0 -1.665,11.859 38.647,38.647 0 0 0 1.9,12.422 74.943,74.943 0 0 0 4.617,9.984 h -2.837 q -3.421,-5.343 -4.242,-6.82 a 31.524,31.524 0 0 1 -1.781,-4.008 32.893,32.893 0 0 1 -1.828,-7.406 31.027,31.027 0 0 1 -0.258,-3.891 32.856,32.856 0 0 1 2.179,-12.351 71.086,71.086 0 0 1 5.766,-10.313 z"
         style="fill:#181716"
         id="path13" />
      <path
         d="m 161.544,20.922 a 11.333,11.333 0 0 1 2.545,2.461 V 10.7 h 4.055 v 34.55 h -3.8 v -3.492 a 9.119,9.119 0 0 1 -3.479,3.352 9.935,9.935 0 0 1 -4.6,1.031 9.3,9.3 0 0 1 -7.238,-3.527 q -3.058,-3.528 -3.058,-9.387 a 16.243,16.243 0 0 1 2.79,-9.5 9.121,9.121 0 0 1 7.972,-4.019 8.874,8.874 0 0 1 4.813,1.214 z m -9.417,18.821 a 5.957,5.957 0 0 0 5.457,2.718 5.738,5.738 0 0 0 4.792,-2.519 q 1.876,-2.52 1.877,-7.231 0,-4.756 -1.936,-7.043 a 6.025,6.025 0 0 0 -4.78,-2.285 6.3,6.3 0 0 0 -5.142,2.438 q -1.97,2.438 -1.97,7.172 a 12.493,12.493 0 0 0 1.702,6.75 z"
         style="fill:#181716"
         id="path15" />
      <path
         d="m 192.107,22.654 q 3.328,3.233 3.329,9.507 A 16.384,16.384 0 0 1 192.5,42.184 q -2.932,3.957 -9.1,3.957 a 10.246,10.246 0 0 1 -8.169,-3.5 q -3.025,-3.5 -3.025,-9.4 0,-6.322 3.188,-10.069 a 10.671,10.671 0 0 1 8.565,-3.747 11.25,11.25 0 0 1 8.148,3.229 z m -2.619,16.682 a 15.924,15.924 0 0 0 1.541,-7.057 12.684,12.684 0 0 0 -1.112,-5.712 6.247,6.247 0 0 0 -6.072,-3.465 5.97,5.97 0 0 0 -5.562,2.95 13.778,13.778 0 0 0 -1.738,7.116 11.982,11.982 0 0 0 1.738,6.672 6.1,6.1 0 0 0 5.516,2.668 q 4.148,0 5.689,-3.172 z"
         style="fill:#181716"
         id="path17" />
      <path
         d="m 200.087,20.149 h 4.013 v 3.562 a 11.262,11.262 0 0 1 3.774,-3.164 10.068,10.068 0 0 1 4.429,-0.961 q 5.344,0 7.219,3.727 a 13.226,13.226 0 0 1 1.031,5.836 v 16.1 h -4.289 V 29.43 a 8.571,8.571 0 0 0 -0.679,-3.7 4.123,4.123 0 0 0 -4.079,-2.344 8.3,8.3 0 0 0 -2.46,0.3 6.337,6.337 0 0 0 -3.047,2.062 6.206,6.206 0 0 0 -1.371,2.567 17.262,17.262 0 0 0 -0.317,3.785 v 13.15 h -4.219 z"
         style="fill:#181716"
         id="path19" />
      <path
         d="m 226.255,20.149 h 4.008 v 3.562 a 11.249,11.249 0 0 1 3.773,-3.164 10.072,10.072 0 0 1 4.43,-0.961 q 5.343,0 7.219,3.727 a 13.24,13.24 0 0 1 1.031,5.836 v 16.1 h -4.289 V 29.43 a 8.57,8.57 0 0 0 -0.68,-3.7 4.121,4.121 0 0 0 -4.078,-2.344 8.309,8.309 0 0 0 -2.461,0.3 6.342,6.342 0 0 0 -3.047,2.062 6.217,6.217 0 0 0 -1.371,2.567 17.273,17.273 0 0 0 -0.316,3.785 v 13.15 h -4.219 z"
         style="fill:#181716"
         id="path21" />
      <path
         d="m 267.927,20.84 a 9.518,9.518 0 0 1 3.8,3.246 11.247,11.247 0 0 1 1.676,4.43 29.1,29.1 0 0 1 0.373,5.531 h -18.26 a 10.837,10.837 0 0 0 1.791,6.146 5.967,5.967 0 0 0 5.185,2.315 6.669,6.669 0 0 0 5.233,-2.189 7.463,7.463 0 0 0 1.548,-2.944 h 4.149 a 8.758,8.758 0 0 1 -1.09,3.083 11.113,11.113 0 0 1 -2.065,2.777 9.734,9.734 0 0 1 -4.722,2.531 14.245,14.245 0 0 1 -3.42,0.375 10.478,10.478 0 0 1 -7.9,-3.41 q -3.237,-3.41 -3.237,-9.551 a 14.483,14.483 0 0 1 3.261,-9.82 10.729,10.729 0 0 1 8.526,-3.774 11.325,11.325 0 0 1 5.152,1.254 z m 1.511,9.856 a 11.008,11.008 0 0 0 -1.186,-4.383 6.063,6.063 0 0 0 -5.74,-3.047 6.336,6.336 0 0 0 -4.834,2.1 7.961,7.961 0 0 0 -2.069,5.332 z m -1.688,-20.649 -6.258,6.774 h -3.234 l 4.289,-6.774 z"
         style="fill:#181716"
         id="path23" />
      <path
         d="m 294.094,20.84 a 9.518,9.518 0 0 1 3.8,3.246 11.248,11.248 0 0 1 1.677,4.43 29.188,29.188 0 0 1 0.373,5.531 h -18.261 a 10.852,10.852 0 0 0 1.791,6.146 5.968,5.968 0 0 0 5.186,2.315 6.668,6.668 0 0 0 5.232,-2.189 7.465,7.465 0 0 0 1.549,-2.944 h 4.148 a 8.734,8.734 0 0 1 -1.089,3.083 11.115,11.115 0 0 1 -2.066,2.777 9.734,9.734 0 0 1 -4.722,2.531 14.242,14.242 0 0 1 -3.419,0.375 10.476,10.476 0 0 1 -7.9,-3.41 q -3.237,-3.41 -3.237,-9.551 a 14.483,14.483 0 0 1 3.261,-9.82 10.728,10.728 0 0 1 8.525,-3.774 11.325,11.325 0 0 1 5.152,1.254 z m 1.511,9.856 a 11.008,11.008 0 0 0 -1.186,-4.383 6.062,6.062 0 0 0 -5.74,-3.047 6.338,6.338 0 0 0 -4.834,2.1 7.955,7.955 0 0 0 -2.068,5.332 z"
         style="fill:#181716"
         id="path25" />
      <path
         d="m 307.265,37.375 a 6.04,6.04 0 0 0 1.076,3.235 q 1.626,2.038 5.645,2.039 a 8.458,8.458 0 0 0 4.21,-1.02 3.371,3.371 0 0 0 1.819,-3.152 2.691,2.691 0 0 0 -1.453,-2.461 17.466,17.466 0 0 0 -3.668,-1.2 l -3.407,-0.844 a 16.781,16.781 0 0 1 -4.811,-1.781 5.309,5.309 0 0 1 -2.763,-4.735 7.192,7.192 0 0 1 2.6,-5.765 10.465,10.465 0 0 1 7,-2.2 q 5.748,0 8.289,3.328 a 7.164,7.164 0 0 1 1.545,4.547 h -3.985 a 4.778,4.778 0 0 0 -1.031,-2.588 q -1.488,-1.655 -5.159,-1.655 a 6.3,6.3 0 0 0 -3.707,0.911 2.833,2.833 0 0 0 -1.259,2.4 2.953,2.953 0 0 0 1.655,2.616 10.017,10.017 0 0 0 2.818,1.029 l 2.842,0.68 a 22.221,22.221 0 0 1 6.209,2.133 5.648,5.648 0 0 1 2.461,5.086 7.709,7.709 0 0 1 -2.575,5.789 q -2.574,2.438 -7.842,2.437 -5.673,0 -8.033,-2.543 a 9.549,9.549 0 0 1 -2.527,-6.293 z"
         style="fill:#181716"
         id="path27" />
      <path
         d="m 339.789,20.149 h 4.011 v 3.562 a 11.262,11.262 0 0 1 3.774,-3.164 10.072,10.072 0 0 1 4.43,-0.961 q 5.343,0 7.218,3.727 a 13.224,13.224 0 0 1 1.032,5.836 v 16.1 h -4.29 V 29.43 a 8.571,8.571 0 0 0 -0.679,-3.7 4.122,4.122 0 0 0 -4.078,-2.344 8.3,8.3 0 0 0 -2.461,0.3 6.337,6.337 0 0 0 -3.046,2.064 6.217,6.217 0 0 0 -1.371,2.567 17.262,17.262 0 0 0 -0.317,3.785 V 45.25 h -4.218 z"
         style="fill:#181716"
         id="path29" />
      <path
         d="m 384.144,22.654 q 3.327,3.233 3.328,9.507 a 16.384,16.384 0 0 1 -2.933,10.023 q -2.933,3.957 -9.1,3.957 a 10.244,10.244 0 0 1 -8.168,-3.5 q -3.027,-3.5 -3.026,-9.4 0,-6.322 3.189,-10.069 a 10.669,10.669 0 0 1 8.566,-3.75 11.254,11.254 0 0 1 8.144,3.232 z m -2.62,16.682 a 15.924,15.924 0 0 0 1.541,-7.057 12.684,12.684 0 0 0 -1.112,-5.712 6.247,6.247 0 0 0 -6.072,-3.465 5.972,5.972 0 0 0 -5.562,2.95 13.778,13.778 0 0 0 -1.738,7.116 11.982,11.982 0 0 0 1.738,6.672 6.1,6.1 0 0 0 5.516,2.668 q 4.148,0 5.689,-3.172 z"
         style="fill:#181716"
         id="path31" />
      <path
         d="m 392.123,20.149 h 4.008 v 3.562 a 11.249,11.249 0 0 1 3.773,-3.164 10.072,10.072 0 0 1 4.43,-0.961 q 5.343,0 7.219,3.727 a 13.24,13.24 0 0 1 1.031,5.836 v 16.1 H 408.3 V 29.43 a 8.57,8.57 0 0 0 -0.68,-3.7 4.121,4.121 0 0 0 -4.078,-2.344 8.309,8.309 0 0 0 -2.461,0.3 6.342,6.342 0 0 0 -3.047,2.062 6.217,6.217 0 0 0 -1.371,2.567 17.273,17.273 0 0 0 -0.316,3.785 v 13.15 h -4.219 z"
         style="fill:#181716"
         id="path33" />
      <path
         d="m 446.385,21.485 q 2.66,2.063 3.2,7.1 h -4.1 a 7.569,7.569 0 0 0 -1.711,-3.855 5.4,5.4 0 0 0 -4.289,-1.535 5.926,5.926 0 0 0 -5.765,3.932 15.612,15.612 0 0 0 -1.125,6.3 11.838,11.838 0 0 0 1.594,6.345 6.189,6.189 0 0 0 9.175,0.975 8.769,8.769 0 0 0 2.121,-4.377 h 4.1 q -0.7,4.992 -3.516,7.3 a 10.963,10.963 0 0 1 -7.195,2.309 9.606,9.606 0 0 1 -7.852,-3.6 13.768,13.768 0 0 1 -2.929,-8.988 q 0,-6.609 3.211,-10.289 a 10.375,10.375 0 0 1 8.179,-3.68 10.946,10.946 0 0 1 6.902,2.063 z"
         style="fill:#181716"
         id="path35" />
      <path
         d="m 471.462,22.654 q 3.328,3.233 3.328,9.507 a 16.384,16.384 0 0 1 -2.933,10.023 q -2.933,3.957 -9.1,3.957 a 10.246,10.246 0 0 1 -8.169,-3.5 q -3.026,-3.5 -3.026,-9.4 0,-6.322 3.189,-10.069 a 10.669,10.669 0 0 1 8.564,-3.747 11.252,11.252 0 0 1 8.147,3.229 z m -2.62,16.682 a 15.925,15.925 0 0 0 1.542,-7.057 12.67,12.67 0 0 0 -1.113,-5.712 6.247,6.247 0 0 0 -6.071,-3.467 5.97,5.97 0 0 0 -5.561,2.95 13.779,13.779 0 0 0 -1.739,7.116 11.982,11.982 0 0 0 1.739,6.672 6.1,6.1 0 0 0 5.515,2.668 q 4.146,0.002 5.688,-3.17 z"
         style="fill:#181716"
         id="path37" />
      <path
         d="m 479.559,20.149 h 4.008 v 4.336 a 9.579,9.579 0 0 1 2.414,-3.082 6.26,6.26 0 0 1 4.43,-1.817 c 0.078,0 0.211,0.008 0.4,0.024 0.189,0.016 0.508,0.047 0.961,0.094 v 4.453 a 6.358,6.358 0 0 0 -0.691,-0.094 c -0.211,-0.016 -0.442,-0.023 -0.692,-0.023 a 6.019,6.019 0 0 0 -4.9,2.05 7.159,7.159 0 0 0 -1.711,4.723 V 45.25 h -4.219 z"
         style="fill:#181716"
         id="path39" />
      <path
         d="m 495.016,20.149 h 4.007 v 4.336 a 9.585,9.585 0 0 1 2.415,-3.082 6.257,6.257 0 0 1 4.429,-1.817 q 0.117,0 0.4,0.024 c 0.187,0.015 0.507,0.047 0.961,0.094 v 4.453 a 6.374,6.374 0 0 0 -0.692,-0.094 c -0.211,-0.016 -0.441,-0.023 -0.691,-0.023 a 6.022,6.022 0 0 0 -4.9,2.05 7.165,7.165 0 0 0 -1.711,4.723 V 45.25 h -4.218 z"
         style="fill:#181716"
         id="path41" />
      <path
         d="m 510.354,10.821 h 4.29 V 15.6 h -4.29 z m 0,9.445 h 4.29 V 45.25 h -4.29 z"
         style="fill:#181716"
         id="path43" />
      <path
         d="m 534.446,21.157 a 11.6,11.6 0 0 1 2.428,2.39 v -3.164 h 3.89 v 22.828 a 16.886,16.886 0 0 1 -1.4,7.547 q -2.616,5.11 -9.881,5.11 a 12.092,12.092 0 0 1 -6.8,-1.817 7.093,7.093 0 0 1 -3.084,-5.683 h 4.289 a 4.781,4.781 0 0 0 1.212,2.6 6.157,6.157 0 0 0 4.476,1.406 q 4.824,0 6.317,-3.421 0.885,-2.016 0.815,-7.2 a 8.255,8.255 0 0 1 -3.034,2.86 10.854,10.854 0 0 1 -11.8,-1.957 q -3.047,-2.895 -3.046,-9.575 0,-6.3 3.069,-9.843 a 9.478,9.478 0 0 1 7.413,-3.539 9.09,9.09 0 0 1 5.136,1.458 z m 0.515,4.523 a 6.112,6.112 0 0 0 -4.873,-2.25 6.019,6.019 0 0 0 -6.063,4.172 16.441,16.441 0 0 0 -0.862,5.836 q 0,4.242 1.713,6.457 a 5.523,5.523 0 0 0 4.606,2.215 6.462,6.462 0 0 0 6.365,-4.1 13.27,13.27 0 0 0 1.027,-5.414 q 0,-4.665 -1.913,-6.916 z"
         style="fill:#181716"
         id="path45" />
      <path
         d="m 562.163,20.84 a 9.518,9.518 0 0 1 3.8,3.246 11.263,11.263 0 0 1 1.677,4.43 29.188,29.188 0 0 1 0.373,5.531 h -18.261 a 10.852,10.852 0 0 0 1.791,6.146 5.968,5.968 0 0 0 5.186,2.315 6.668,6.668 0 0 0 5.232,-2.189 7.477,7.477 0 0 0 1.549,-2.944 h 4.148 a 8.719,8.719 0 0 1 -1.09,3.083 11.089,11.089 0 0 1 -2.065,2.777 9.734,9.734 0 0 1 -4.722,2.531 14.242,14.242 0 0 1 -3.419,0.375 10.475,10.475 0 0 1 -7.9,-3.41 q -3.237,-3.41 -3.237,-9.551 a 14.478,14.478 0 0 1 3.261,-9.82 10.727,10.727 0 0 1 8.525,-3.774 11.325,11.325 0 0 1 5.152,1.254 z m 1.511,9.856 a 11.008,11.008 0 0 0 -1.186,-4.383 6.062,6.062 0 0 0 -5.74,-3.047 6.338,6.338 0 0 0 -4.834,2.1 7.955,7.955 0 0 0 -2.068,5.332 z m -1.688,-20.649 -6.257,6.774 h -3.235 l 4.289,-6.774 z"
         style="fill:#181716"
         id="path47" />
      <path
         d="m 588.33,20.84 a 9.518,9.518 0 0 1 3.8,3.246 11.263,11.263 0 0 1 1.677,4.43 29.188,29.188 0 0 1 0.373,5.531 h -18.261 a 10.852,10.852 0 0 0 1.791,6.146 5.968,5.968 0 0 0 5.186,2.315 6.668,6.668 0 0 0 5.232,-2.189 7.477,7.477 0 0 0 1.549,-2.944 h 4.148 a 8.719,8.719 0 0 1 -1.09,3.083 11.089,11.089 0 0 1 -2.065,2.777 9.734,9.734 0 0 1 -4.722,2.531 14.242,14.242 0 0 1 -3.419,0.375 10.475,10.475 0 0 1 -7.9,-3.41 q -3.237,-3.41 -3.237,-9.551 a 14.478,14.478 0 0 1 3.261,-9.82 10.727,10.727 0 0 1 8.525,-3.774 11.325,11.325 0 0 1 5.152,1.254 z m 1.511,9.856 a 11.008,11.008 0 0 0 -1.186,-4.383 6.062,6.062 0 0 0 -5.74,-3.047 6.338,6.338 0 0 0 -4.834,2.1 7.955,7.955 0 0 0 -2.068,5.332 z"
         style="fill:#181716"
         id="path49" />
      <path
         d="m 601.5,37.375 a 6.049,6.049 0 0 0 1.077,3.235 q 1.626,2.038 5.645,2.039 a 8.458,8.458 0 0 0 4.21,-1.02 3.37,3.37 0 0 0 1.818,-3.152 2.689,2.689 0 0 0 -1.453,-2.461 17.423,17.423 0 0 0 -3.668,-1.2 l -3.406,-0.844 a 16.781,16.781 0 0 1 -4.811,-1.781 5.309,5.309 0 0 1 -2.763,-4.735 7.192,7.192 0 0 1 2.6,-5.765 10.463,10.463 0 0 1 7,-2.2 q 5.748,0 8.289,3.328 a 7.164,7.164 0 0 1 1.545,4.547 h -3.985 a 4.779,4.779 0 0 0 -1.032,-2.588 q -1.486,-1.655 -5.158,-1.655 a 6.3,6.3 0 0 0 -3.707,0.911 2.833,2.833 0 0 0 -1.259,2.4 2.953,2.953 0 0 0 1.655,2.616 10.017,10.017 0 0 0 2.818,1.029 l 2.841,0.68 a 22.2,22.2 0 0 1 6.209,2.133 5.646,5.646 0 0 1 2.461,5.086 7.708,7.708 0 0 1 -2.574,5.789 q -2.575,2.438 -7.843,2.437 -5.671,0 -8.032,-2.543 a 9.549,9.549 0 0 1 -2.527,-6.293 z"
         style="fill:#181716"
         id="path51" />
      <path
         d="m 647.768,20.922 a 11.311,11.311 0 0 1 2.544,2.461 V 10.7 h 4.055 v 34.55 h -3.8 v -3.492 a 9.105,9.105 0 0 1 -3.479,3.352 9.93,9.93 0 0 1 -4.6,1.031 9.3,9.3 0 0 1 -7.238,-3.527 q -3.058,-3.528 -3.059,-9.387 a 16.25,16.25 0 0 1 2.79,-9.5 9.122,9.122 0 0 1 7.973,-4.019 8.874,8.874 0 0 1 4.814,1.214 z m -9.417,18.821 a 5.956,5.956 0 0 0 5.457,2.718 5.74,5.74 0 0 0 4.792,-2.519 q 1.876,-2.52 1.877,-7.231 0,-4.756 -1.936,-7.043 a 6.028,6.028 0 0 0 -4.78,-2.285 6.3,6.3 0 0 0 -5.142,2.438 q -1.971,2.438 -1.971,7.172 a 12.493,12.493 0 0 0 1.703,6.75 z"
         style="fill:#181716"
         id="path53" />
      <path
         d="m 675.649,20.84 a 9.518,9.518 0 0 1 3.8,3.246 11.263,11.263 0 0 1 1.677,4.43 29.188,29.188 0 0 1 0.373,5.531 h -18.261 a 10.845,10.845 0 0 0 1.791,6.146 5.968,5.968 0 0 0 5.185,2.315 6.669,6.669 0 0 0 5.233,-2.189 7.477,7.477 0 0 0 1.553,-2.944 h 4.148 a 8.738,8.738 0 0 1 -1.09,3.083 11.089,11.089 0 0 1 -2.065,2.777 9.734,9.734 0 0 1 -4.722,2.531 14.242,14.242 0 0 1 -3.419,0.375 10.475,10.475 0 0 1 -7.9,-3.41 q -3.238,-3.41 -3.238,-9.551 a 14.478,14.478 0 0 1 3.262,-9.82 10.725,10.725 0 0 1 8.525,-3.774 11.325,11.325 0 0 1 5.148,1.254 z m 1.511,9.86 a 11.008,11.008 0 0 0 -1.186,-4.383 6.062,6.062 0 0 0 -5.74,-3.047 6.338,6.338 0 0 0 -4.834,2.1 7.955,7.955 0 0 0 -2.068,5.332 z"
         style="fill:#181716"
         id="path55" />
      <path
         d="m 688.819,37.375 a 6.049,6.049 0 0 0 1.081,3.235 q 1.626,2.038 5.646,2.039 a 8.454,8.454 0 0 0 4.209,-1.02 3.371,3.371 0 0 0 1.819,-3.152 2.691,2.691 0 0 0 -1.453,-2.461 17.466,17.466 0 0 0 -3.668,-1.2 l -3.406,-0.844 a 16.777,16.777 0 0 1 -4.817,-1.772 5.309,5.309 0 0 1 -2.763,-4.735 7.192,7.192 0 0 1 2.6,-5.765 10.465,10.465 0 0 1 7,-2.2 q 5.748,0 8.289,3.328 a 7.164,7.164 0 0 1 1.545,4.547 h -3.984 a 4.779,4.779 0 0 0 -1.032,-2.588 q -1.488,-1.655 -5.158,-1.655 a 6.294,6.294 0 0 0 -3.707,0.911 2.832,2.832 0 0 0 -1.26,2.4 2.952,2.952 0 0 0 1.656,2.616 10,10 0 0 0 2.817,1.029 l 2.842,0.68 a 22.221,22.221 0 0 1 6.205,2.132 5.648,5.648 0 0 1 2.461,5.086 7.709,7.709 0 0 1 -2.575,5.789 q -2.574,2.438 -7.842,2.437 -5.673,0 -8.032,-2.543 a 9.55,9.55 0 0 1 -2.528,-6.293 z"
         style="fill:#181716"
         id="path57" />
      <path
         d="m 723.369,20.149 6.7,20.437 6.985,-20.437 h 4.617 l -9.45,25.1 h -4.5 l -9.258,-25.1 z"
         style="fill:#181716"
         id="path59" />
      <path
         d="m 758.221,30.059 a 2.291,2.291 0 0 0 1.945,-1.216 3.747,3.747 0 0 0 0.281,-1.624 3.444,3.444 0 0 0 -1.532,-3.14 8.184,8.184 0 0 0 -4.386,-0.977 q -3.3,0 -4.678,1.79 a 5.918,5.918 0 0 0 -1.006,2.944 h -3.937 q 0.117,-4.653 3.008,-6.475 a 12.315,12.315 0 0 1 6.707,-1.821 13.637,13.637 0 0 1 7.187,1.687 5.728,5.728 0 0 1 2.738,5.251 v 14.461 a 1.852,1.852 0 0 0 0.27,1.055 1.3,1.3 0 0 0 1.137,0.4 q 0.28,0 0.632,-0.035 0.352,-0.035 0.75,-0.105 v 3.117 a 11.816,11.816 0 0 1 -1.5,0.351 10.9,10.9 0 0 1 -1.406,0.071 3.47,3.47 0 0 1 -3.164,-1.547 5.955,5.955 0 0 1 -0.726,-2.32 10.748,10.748 0 0 1 -3.7,2.93 11.464,11.464 0 0 1 -5.32,1.241 7.919,7.919 0 0 1 -5.707,-2.118 7.033,7.033 0 0 1 -2.215,-5.3 6.824,6.824 0 0 1 2.18,-5.407 10.378,10.378 0 0 1 5.719,-2.365 z m -8.884,11.4 a 4.96,4.96 0 0 0 3.164,1.052 9.639,9.639 0 0 0 4.313,-1.029 5.794,5.794 0 0 0 3.516,-5.593 v -3.396 a 7.184,7.184 0 0 1 -1.989,0.823 16.762,16.762 0 0 1 -2.385,0.47 l -2.55,0.327 a 9.879,9.879 0 0 0 -3.448,0.959 3.731,3.731 0 0 0 -1.958,3.508 3.465,3.465 0 0 0 1.337,2.876 z"
         style="fill:#181716"
         id="path61" />
      <path
         d="m 771.052,20.149 h 4.008 v 4.336 a 9.565,9.565 0 0 1 2.414,-3.082 6.257,6.257 0 0 1 4.429,-1.817 q 0.117,0 0.4,0.024 c 0.187,0.015 0.508,0.047 0.961,0.094 v 4.453 a 6.374,6.374 0 0 0 -0.692,-0.094 c -0.211,-0.016 -0.441,-0.023 -0.691,-0.023 a 6.022,6.022 0 0 0 -4.9,2.05 7.164,7.164 0 0 0 -1.71,4.723 V 45.25 h -4.219 z"
         style="fill:#181716"
         id="path63" />
      <path
         d="m 786.391,10.821 h 4.289 V 15.6 h -4.289 z m 0,9.445 h 4.289 V 45.25 h -4.289 z"
         style="fill:#181716"
         id="path65" />
      <path
         d="m 809.98,30.059 a 2.291,2.291 0 0 0 1.946,-1.216 3.747,3.747 0 0 0 0.281,-1.624 3.443,3.443 0 0 0 -1.533,-3.14 8.177,8.177 0 0 0 -4.385,-0.977 q -3.3,0 -4.678,1.79 a 5.918,5.918 0 0 0 -1.006,2.944 h -3.938 q 0.118,-4.653 3.008,-6.475 a 12.318,12.318 0 0 1 6.707,-1.821 13.632,13.632 0 0 1 7.187,1.687 5.727,5.727 0 0 1 2.739,5.251 v 14.461 a 1.852,1.852 0 0 0 0.27,1.055 1.3,1.3 0 0 0 1.136,0.4 q 0.282,0 0.633,-0.035 0.351,-0.035 0.75,-0.105 v 3.117 a 11.816,11.816 0 0 1 -1.5,0.351 10.913,10.913 0 0 1 -1.406,0.071 3.47,3.47 0 0 1 -3.164,-1.547 5.97,5.97 0 0 1 -0.727,-2.32 10.734,10.734 0 0 1 -3.7,2.93 11.467,11.467 0 0 1 -5.32,1.241 7.917,7.917 0 0 1 -5.707,-2.118 7.033,7.033 0 0 1 -2.215,-5.3 6.824,6.824 0 0 1 2.18,-5.407 10.377,10.377 0 0 1 5.718,-2.365 z m -8.883,11.4 a 4.958,4.958 0 0 0 3.164,1.052 9.639,9.639 0 0 0 4.313,-1.029 5.8,5.8 0 0 0 3.515,-5.593 v -3.396 a 7.163,7.163 0 0 1 -1.988,0.823 16.748,16.748 0 0 1 -2.386,0.47 l -2.549,0.327 a 9.873,9.873 0 0 0 -3.448,0.959 3.731,3.731 0 0 0 -1.957,3.508 3.465,3.465 0 0 0 1.339,2.876 z"
         style="fill:#181716"
         id="path67" />
      <path
         d="m 823.538,13.141 h 4.262 v 7.008 h 4.008 v 3.445 H 827.8 v 16.383 a 1.774,1.774 0 0 0 0.89,1.758 3.784,3.784 0 0 0 1.641,0.258 q 0.3,0 0.656,-0.016 c 0.235,-0.01 0.508,-0.036 0.821,-0.078 v 3.351 a 9.35,9.35 0 0 1 -1.512,0.3 14.272,14.272 0 0 1 -1.7,0.094 q -2.954,0 -4.008,-1.512 a 6.719,6.719 0 0 1 -1.055,-3.926 V 23.594 h -3.4 v -3.445 h 3.4 z"
         style="fill:#181716"
         id="path69" />
      <path
         d="m 835.55,10.821 h 4.289 V 15.6 h -4.289 z m 0,9.445 h 4.289 V 45.25 h -4.289 z"
         style="fill:#181716"
         id="path71" />
      <path
         d="m 863.874,22.654 q 3.327,3.233 3.328,9.507 a 16.384,16.384 0 0 1 -2.933,10.023 q -2.933,3.957 -9.1,3.957 A 10.248,10.248 0 0 1 847,42.641 q -3.026,-3.5 -3.025,-9.4 0,-6.322 3.189,-10.069 a 10.669,10.669 0 0 1 8.564,-3.747 11.254,11.254 0 0 1 8.146,3.229 z m -2.62,16.682 a 15.924,15.924 0 0 0 1.541,-7.057 12.684,12.684 0 0 0 -1.112,-5.712 6.247,6.247 0 0 0 -6.072,-3.465 5.972,5.972 0 0 0 -5.562,2.95 13.778,13.778 0 0 0 -1.738,7.116 11.982,11.982 0 0 0 1.738,6.672 6.1,6.1 0 0 0 5.516,2.668 q 4.148,0 5.689,-3.172 z"
         style="fill:#181716"
         id="path73" />
      <path
         d="m 871.854,20.149 h 4.007 v 3.562 a 11.262,11.262 0 0 1 3.774,-3.164 10.068,10.068 0 0 1 4.429,-0.961 q 5.345,0 7.219,3.727 a 13.226,13.226 0 0 1 1.031,5.836 v 16.1 h -4.289 V 29.43 a 8.571,8.571 0 0 0 -0.679,-3.7 4.122,4.122 0 0 0 -4.078,-2.344 8.3,8.3 0 0 0 -2.461,0.3 6.337,6.337 0 0 0 -3.047,2.062 6.217,6.217 0 0 0 -1.371,2.567 17.262,17.262 0 0 0 -0.317,3.785 v 13.15 h -4.218 z"
         style="fill:#181716"
         id="path75" />
      <path
         d="m 900.528,37.375 a 6.057,6.057 0 0 0 1.072,3.235 q 1.627,2.038 5.646,2.039 a 8.458,8.458 0 0 0 4.21,-1.02 3.372,3.372 0 0 0 1.818,-3.152 2.689,2.689 0 0 0 -1.453,-2.461 17.444,17.444 0 0 0 -3.668,-1.2 l -3.406,-0.844 a 16.781,16.781 0 0 1 -4.807,-1.772 5.309,5.309 0 0 1 -2.763,-4.735 7.191,7.191 0 0 1 2.6,-5.765 10.467,10.467 0 0 1 7,-2.2 q 5.748,0 8.29,3.328 a 7.158,7.158 0 0 1 1.544,4.547 h -3.984 a 4.779,4.779 0 0 0 -1.032,-2.588 q -1.486,-1.655 -5.158,-1.655 a 6.3,6.3 0 0 0 -3.707,0.911 2.833,2.833 0 0 0 -1.259,2.4 2.953,2.953 0 0 0 1.655,2.616 10.021,10.021 0 0 0 2.817,1.029 l 2.842,0.68 a 22.208,22.208 0 0 1 6.209,2.133 5.646,5.646 0 0 1 2.461,5.086 7.706,7.706 0 0 1 -2.575,5.789 q -2.574,2.438 -7.842,2.437 -5.672,0 -8.032,-2.543 a 9.549,9.549 0 0 1 -2.527,-6.293 z"
         style="fill:#181716"
         id="path77" />
      <path
         d="m 949.587,21.485 q 2.659,2.063 3.2,7.1 h -4.1 a 7.577,7.577 0 0 0 -1.711,-3.855 5.407,5.407 0 0 0 -4.289,-1.535 5.927,5.927 0 0 0 -5.766,3.932 15.612,15.612 0 0 0 -1.125,6.3 11.838,11.838 0 0 0 1.594,6.345 6.189,6.189 0 0 0 9.175,0.975 8.778,8.778 0 0 0 2.122,-4.377 h 4.1 q -0.7,4.992 -3.515,7.3 a 10.966,10.966 0 0 1 -7.2,2.309 9.6,9.6 0 0 1 -7.851,-3.6 13.769,13.769 0 0 1 -2.93,-8.988 q 0,-6.609 3.211,-10.289 a 10.377,10.377 0 0 1 8.18,-3.68 10.945,10.945 0 0 1 6.905,2.063 z"
         style="fill:#181716"
         id="path79" />
      <path
         d="m 956.642,10.821 h 4.219 V 45.25 h -4.219 z"
         style="fill:#181716"
         id="path81" />
      <path
         d="m 966.661,10.821 h 4.289 V 15.6 h -4.289 z m 0,9.445 h 4.289 V 45.25 h -4.289 z"
         style="fill:#181716"
         id="path83" />
      <path
         d="m 976.8,20.149 h 4.172 v 3.562 a 14.031,14.031 0 0 1 2.719,-2.695 8.174,8.174 0 0 1 4.734,-1.43 7.453,7.453 0 0 1 4.828,1.477 7.719,7.719 0 0 1 1.875,2.484 9.123,9.123 0 0 1 3.3,-2.988 9.22,9.22 0 0 1 4.265,-0.973 q 5.063,0 6.891,3.657 a 11.954,11.954 0 0 1 0.984,5.3 V 45.25 h -4.382 V 27.813 q 0,-2.508 -1.254,-3.445 a 4.965,4.965 0 0 0 -3.059,-0.938 6.072,6.072 0 0 0 -4.277,1.664 q -1.794,1.665 -1.793,5.555 v 14.6 h -4.289 V 28.868 a 8.516,8.516 0 0 0 -0.61,-3.727 3.715,3.715 0 0 0 -3.586,-1.758 6.184,6.184 0 0 0 -4.347,1.852 q -1.957,1.851 -1.957,6.7 V 45.25 H 976.8 Z"
         style="fill:#181716"
         id="path85" />
      <path
         d="m 1029.706,30.059 a 2.29,2.29 0 0 0 1.945,-1.216 3.731,3.731 0 0 0 0.282,-1.624 3.443,3.443 0 0 0 -1.533,-3.14 8.177,8.177 0 0 0 -4.385,-0.977 q -3.3,0 -4.678,1.79 a 5.918,5.918 0 0 0 -1.006,2.944 h -3.937 q 0.117,-4.653 3.007,-6.475 a 12.318,12.318 0 0 1 6.707,-1.821 13.632,13.632 0 0 1 7.187,1.687 5.727,5.727 0 0 1 2.739,5.251 v 14.461 a 1.852,1.852 0 0 0 0.27,1.055 1.3,1.3 0 0 0 1.136,0.4 q 0.282,0 0.633,-0.035 0.351,-0.035 0.75,-0.105 v 3.117 a 11.816,11.816 0 0 1 -1.5,0.351 10.913,10.913 0 0 1 -1.406,0.071 3.47,3.47 0 0 1 -3.164,-1.547 5.97,5.97 0 0 1 -0.727,-2.32 10.734,10.734 0 0 1 -3.7,2.93 11.467,11.467 0 0 1 -5.32,1.241 7.917,7.917 0 0 1 -5.707,-2.118 7.033,7.033 0 0 1 -2.215,-5.3 6.824,6.824 0 0 1 2.18,-5.407 10.377,10.377 0 0 1 5.718,-2.365 z m -8.883,11.4 a 4.96,4.96 0 0 0 3.164,1.052 9.639,9.639 0 0 0 4.313,-1.029 5.793,5.793 0 0 0 3.515,-5.593 v -3.396 a 7.163,7.163 0 0 1 -1.988,0.823 16.748,16.748 0 0 1 -2.386,0.47 l -2.549,0.327 a 9.873,9.873 0 0 0 -3.448,0.959 3.731,3.731 0 0 0 -1.957,3.508 3.465,3.465 0 0 0 1.336,2.876 z"
         style="fill:#181716"
         id="path87" />
      <path
         d="m 1043.265,13.141 h 4.265 v 7.008 h 4.008 v 3.445 h -4.008 v 16.383 a 1.773,1.773 0 0 0 0.891,1.758 3.784,3.784 0 0 0 1.641,0.258 c 0.2,0 0.421,-0.005 0.656,-0.016 0.235,-0.011 0.508,-0.036 0.82,-0.078 v 3.351 a 9.307,9.307 0 0 1 -1.512,0.3 14.248,14.248 0 0 1 -1.7,0.094 q -2.954,0 -4.008,-1.512 a 6.719,6.719 0 0 1 -1.054,-3.926 V 23.594 h -3.4 v -3.445 h 3.4 z"
         style="fill:#181716"
         id="path89" />
      <path
         d="m 1055.276,10.821 h 4.289 V 15.6 h -4.289 z m 0,9.445 h 4.289 V 45.25 h -4.289 z"
         style="fill:#181716"
         id="path91" />
      <path
         d="m 1079.571,21.157 a 9.268,9.268 0 0 1 2.247,2.484 v -3.492 h 3.985 v 35.109 h -4.219 v -12.89 a 7.564,7.564 0 0 1 -2.914,2.683 9.769,9.769 0 0 1 -4.647,1 9.907,9.907 0 0 1 -7.162,-3.14 q -3.161,-3.141 -3.16,-9.563 a 15.806,15.806 0 0 1 2.961,-9.89 9.224,9.224 0 0 1 7.666,-3.868 8.592,8.592 0 0 1 5.243,1.567 z M 1069.02,38.5 a 5.8,5.8 0 0 0 5.779,3.915 6.047,6.047 0 0 0 6.06,-4.125 15.781,15.781 0 0 0 0.912,-5.813 12.975,12.975 0 0 0 -1,-5.437 6.083,6.083 0 0 0 -6.014,-3.727 5.885,5.885 0 0 0 -4.69,2.379 q -1.954,2.379 -1.955,7.348 a 14.3,14.3 0 0 0 0.908,5.46 z"
         style="fill:#181716"
         id="path93" />
      <path
         d="m 1095.8,20.149 v 16.664 a 7.173,7.173 0 0 0 0.594,3.141 4.118,4.118 0 0 0 4.086,2.25 5.774,5.774 0 0 0 5.842,-3.938 15.981,15.981 0 0 0 0.845,-5.789 V 20.149 h 4.219 v 25.1 h -3.986 l 0.047,-3.7 a 8.467,8.467 0 0 1 -2,2.414 8.694,8.694 0 0 1 -5.749,1.969 q -5.265,0 -7.175,-3.586 a 10.85,10.85 0 0 1 -1.035,-5.133 V 20.149 Z"
         style="fill:#181716"
         id="path95" />
      <path
         d="m 1133.252,20.84 a 9.518,9.518 0 0 1 3.8,3.246 11.248,11.248 0 0 1 1.677,4.43 29.188,29.188 0 0 1 0.373,5.531 h -18.258 a 10.852,10.852 0 0 0 1.791,6.146 5.968,5.968 0 0 0 5.185,2.315 6.669,6.669 0 0 0 5.233,-2.189 7.477,7.477 0 0 0 1.549,-2.944 h 4.148 a 8.738,8.738 0 0 1 -1.09,3.083 11.089,11.089 0 0 1 -2.065,2.777 9.734,9.734 0 0 1 -4.722,2.531 14.25,14.25 0 0 1 -3.42,0.375 10.474,10.474 0 0 1 -7.895,-3.41 q -3.239,-3.41 -3.238,-9.551 a 14.483,14.483 0 0 1 3.261,-9.82 10.729,10.729 0 0 1 8.526,-3.774 11.325,11.325 0 0 1 5.145,1.254 z m 1.511,9.856 a 11.008,11.008 0 0 0 -1.186,-4.383 6.061,6.061 0 0 0 -5.74,-3.047 6.338,6.338 0 0 0 -4.834,2.1 7.955,7.955 0 0 0 -2.068,5.332 z"
         style="fill:#181716"
         id="path97" />
      <path
         d="m 1146.422,37.375 a 6.049,6.049 0 0 0 1.076,3.235 q 1.626,2.038 5.646,2.039 a 8.461,8.461 0 0 0 4.21,-1.02 3.374,3.374 0 0 0 1.818,-3.152 2.689,2.689 0 0 0 -1.453,-2.461 17.444,17.444 0 0 0 -3.668,-1.2 l -3.406,-0.844 a 16.789,16.789 0 0 1 -4.812,-1.781 5.309,5.309 0 0 1 -2.763,-4.735 7.2,7.2 0 0 1 2.6,-5.765 10.463,10.463 0 0 1 6.995,-2.2 q 5.748,0 8.289,3.328 a 7.159,7.159 0 0 1 1.545,4.547 h -3.984 a 4.779,4.779 0 0 0 -1.032,-2.588 q -1.488,-1.655 -5.159,-1.655 a 6.3,6.3 0 0 0 -3.706,0.911 2.832,2.832 0 0 0 -1.26,2.4 2.952,2.952 0 0 0 1.656,2.616 10.008,10.008 0 0 0 2.817,1.029 l 2.842,0.68 a 22.208,22.208 0 0 1 6.209,2.133 5.648,5.648 0 0 1 2.461,5.086 7.709,7.709 0 0 1 -2.575,5.789 q -2.574,2.438 -7.842,2.437 -5.671,0 -8.032,-2.543 a 9.55,9.55 0 0 1 -2.528,-6.293 z"
         style="fill:#181716"
         id="path99" />
      <path
         d="m 1166.005,55.047 a 82.849,82.849 0 0 0 4.8,-10.593 38.272,38.272 0 0 0 1.64,-11.813 38.591,38.591 0 0 0 -1.9,-12.4 75.072,75.072 0 0 0 -4.617,-9.985 h 2.836 q 3.609,5.766 4.371,7.114 a 27.6,27.6 0 0 1 1.652,3.714 30.021,30.021 0 0 1 1.6,5.789 33.185,33.185 0 0 1 0.481,5.508 32.722,32.722 0 0 1 -2.2,12.375 67.989,67.989 0 0 1 -5.742,10.289 z"
         style="fill:#181716"
         id="path101" />
    </g>
  </g>
  <line
     x1="636.75201"
     y1="558.03497"
     x2="675.30402"
     y2="1034.259"
     style="fill:none;stroke:#181716;stroke-width:2.4px"
     id="line107" />
  <line
     x1="636.75098"
     y1="558.03497"
     x2="625.41498"
     y2="1034.251"
     style="fill:none;stroke:#181716;stroke-width:2.4px"
     id="line109" />
  <rect
     x="1280.006"
     y="236.858"
     width="446.168"
     height="223.664"
     style="fill:#a6b925"
     id="rect111"
     ry="0" />
  <rect
     x="1280.006"
     y="460.522"
     width="446.168"
     height="124.728"
     style="fill:#00a6dd"
     id="rect113" />
  <rect
     x="1280.006"
     y="585.25"
     width="446.168"
     height="66.216003"
     style="fill:#008a90"
     id="rect115" />
  <rect
     x="1280.006"
     y="650.56201"
     width="446.168"
     height="66.216003"
     style="fill:#db2118"
     id="rect117" />
  <rect
     x="1280.006"
     y="716.77802"
     width="446.168"
     height="79.344002"
     style="fill:#7dcae7"
     id="rect119" />
  <rect
     x="1280.006"
     y="796.12201"
     width="446.168"
     height="91.463997"
     style="fill:#75bd73"
     id="rect121" />
  <path
     d="m 1038.141,732.655 235.84,151.936 M 1040.405,387.959 1273.981,238.287"
     style="fill:none;stroke:#6398a7;stroke-width:2.4px;stroke-linejoin:round"
     id="path123" />
  <g
     id="g139">
    <path
       d="m 695.177,1051.934 c -0.8,-4.039 -4.04,-6.079 -8,-6.079 -6.8,0 -9.678,5.6 -9.678,11.558 0,6.519 2.879,11.958 9.718,11.958 5,0 7.879,-3.519 8.239,-8.238 h 3.8 c -0.72,7.118 -5.159,11.437 -12.358,11.437 -8.878,0 -13.2,-6.558 -13.2,-14.877 0,-8.279 4.719,-15.038 13.518,-15.038 5.959,0 10.878,3.2 11.758,9.279 z"
       style="fill:#181716"
       id="path125" />
    <path
       d="m 703.419,1043.335 h 3.4 v 10.919 h 0.08 c 1.12,-2.48 4.039,-3.52 6.519,-3.52 5.439,0 7.119,3.12 7.119,7.559 v 13.6 h -3.4 v -14 a 3.9,3.9 0 0 0 -4.2,-4.16 c -4.12,0 -6.119,2.76 -6.119,6.48 v 11.678 h -3.4 z"
       style="fill:#181716"
       id="path127" />
    <path
       d="m 743.976,1071.811 a 4.585,4.585 0 0 1 -2.439,0.559 c -1.76,0 -2.88,-0.959 -2.88,-3.2 a 9.174,9.174 0 0 1 -7.279,3.2 c -3.759,0 -6.838,-1.68 -6.838,-5.8 0,-4.678 3.479,-5.678 7,-6.358 3.759,-0.72 6.959,-0.481 6.959,-3.04 0,-2.959 -2.439,-3.44 -4.6,-3.44 -2.88,0 -5,0.88 -5.159,3.92 h -3.4 c 0.2,-5.119 4.16,-6.919 8.759,-6.919 3.719,0 7.758,0.84 7.758,5.679 v 10.639 c 0,1.6 0,2.319 1.081,2.319 a 2.918,2.918 0 0 0 1.039,-0.2 z m -5.519,-10.6 c -1.32,0.959 -3.879,1 -6.159,1.4 -2.239,0.4 -4.159,1.2 -4.159,3.72 0,2.239 1.92,3.039 4,3.039 4.479,0 6.319,-2.8 6.319,-4.68 z"
       style="fill:#181716"
       id="path129" />
    <path
       d="m 747.019,1051.214 h 3.2 v 4.359 h 0.08 c 1.64,-3.319 3.919,-4.959 7.6,-4.839 v 3.6 c -5.479,0 -7.479,3.119 -7.479,8.358 v 9.2 h -3.4 z"
       style="fill:#181716"
       id="path131" />
    <path
       d="m 760.579,1043.335 h 3.4 v 10.679 h 0.08 c 1.12,-2.28 3.759,-3.28 6.6,-3.28 6.359,0 9.518,5.039 9.518,10.878 0,5.839 -3.119,10.758 -9.438,10.758 -2.12,0 -5.159,-0.8 -6.679,-3.239 h -0.08 v 2.76 h -3.4 z m 9.6,10.4 c -4.559,0 -6.319,3.92 -6.319,7.8 0,4.079 1.84,7.839 6.519,7.839 4.639,0 6.2,-3.959 6.2,-8 -0.003,-3.881 -2.003,-7.641 -6.402,-7.641 z"
       style="fill:#181716"
       id="path133" />
    <path
       d="m 793.1,1050.734 c 6.559,0 10.038,4.759 10.038,10.838 0,6.039 -3.479,10.8 -10.038,10.8 -6.559,0 -10.038,-4.759 -10.038,-10.8 -0.003,-6.079 3.476,-10.838 10.038,-10.838 z m 0,18.637 c 3.559,0 6.439,-2.8 6.439,-7.8 0,-5.039 -2.88,-7.839 -6.439,-7.839 -3.559,0 -6.439,2.8 -6.439,7.839 -0.003,5 2.876,7.8 6.439,7.8 z"
       style="fill:#181716"
       id="path135" />
    <path
       d="m 807.138,1051.214 h 3.2 v 3.279 h 0.08 a 7.2,7.2 0 0 1 6.719,-3.759 c 5.439,0 7.119,3.12 7.119,7.559 v 13.6 h -3.4 v -14 a 3.9,3.9 0 0 0 -4.2,-4.16 c -4.119,0 -6.119,2.76 -6.119,6.48 v 11.678 h -3.4 z"
       style="fill:#181716"
       id="path137" />
  </g>
  <g
     id="g147">
    <path
       d="m 723.342,1101.573 c -0.28,-5.759 3.119,-10.038 9.118,-10.038 4.959,0 8.879,2.88 8.879,8.159 0,5 -3.36,7.519 -6.879,9.718 -3.56,2.16 -7.279,3.96 -7.959,7.48 h 14.558 v 3 h -18.517 c 0.56,-6.719 3.959,-9.119 7.958,-11.6 4.8,-2.96 7.239,-4.72 7.239,-8.639 a 5.166,5.166 0 0 0 -5.479,-5.119 c -3.959,0 -5.639,3.639 -5.519,7.038 z"
       style="fill:#181716"
       id="path141" />
    <path
       d="m 747.142,1115.451 h 4.439 v 4.039 c 0,3 -1.32,5.4 -4.4,6.28 v -2 a 3.828,3.828 0 0 0 2.319,-3.879 h -2.359 z"
       style="fill:#181716"
       id="path143" />
    <path
       d="M 773.739,1095.015 H 762.3 l -1.52,8.159 0.08,0.08 a 7.173,7.173 0 0 1 5.279,-2.04 c 5.039,0 9.158,3.239 9.158,9.718 0,4.8 -3.319,9.438 -9.918,9.438 -4.919,0 -8.919,-3 -9.038,-8.118 h 3.4 c 0.2,2.92 2.56,5.119 5.959,5.119 3.239,0 6,-2.2 6,-6.719 a 6.141,6.141 0 0 0 -6.4,-6.439 6.806,6.806 0 0 0 -5.279,2.68 l -2.919,-0.161 2.639,-14.716 h 14 z"
       style="fill:#181716"
       id="path145" />
  </g>
  <g
     id="g195">
    <path
       d="m 145.342,1043.335 h 9.8 c 8.8,0 13.717,4.4 13.717,13.6 0,9.557 -4.2,14.957 -13.717,14.957 h -9.8 z m 3.8,25.356 h 6.318 c 2.6,0 9.6,-0.719 9.6,-11.238 0,-6.8 -2.52,-10.918 -9.518,-10.918 h -6.4 z"
       style="fill:#181716"
       id="path149" />
    <path
       d="m 190.579,1065.332 c -0.92,4.559 -4.2,7.038 -8.839,7.038 -6.6,0 -9.718,-4.558 -9.918,-10.878 0,-6.2 4.079,-10.758 9.719,-10.758 7.318,0 9.558,6.839 9.358,11.838 h -15.478 c -0.12,3.6 1.92,6.8 6.439,6.8 2.8,0 4.76,-1.359 5.36,-4.039 z m -3.28,-5.76 a 5.949,5.949 0 0 0 -5.959,-5.839 c -3.559,0 -5.678,2.68 -5.919,5.839 z m -5.159,-16.917 h 4.36 l -5.239,5.72 H 178.7 Z"
       style="fill:#181716"
       id="path151" />
    <path
       d="m 208.459,1057.853 a 4.814,4.814 0 0 0 -5.119,-4.12 c -4.919,0 -6.439,3.88 -6.439,8.079 0,3.8 1.72,7.559 6.039,7.559 3.279,0 5.239,-1.92 5.679,-5.039 h 3.48 c -0.761,5.039 -3.92,8.038 -9.119,8.038 -6.319,0 -9.678,-4.4 -9.678,-10.558 0,-6.2 3.2,-11.078 9.758,-11.078 4.679,0 8.439,2.2 8.919,7.119 z"
       style="fill:#181716"
       id="path153" />
    <path
       d="m 215.9,1043.335 h 3.4 v 10.919 h 0.08 c 1.12,-2.48 4.039,-3.52 6.519,-3.52 5.439,0 7.119,3.12 7.119,7.559 v 13.6 h -3.4 v -14 a 3.9,3.9 0 0 0 -4.2,-4.16 c -4.119,0 -6.119,2.76 -6.119,6.48 v 11.678 h -3.4 z"
       style="fill:#181716"
       id="path155" />
    <path
       d="m 255.778,1065.332 c -0.92,4.559 -4.2,7.038 -8.839,7.038 -6.6,0 -9.718,-4.558 -9.918,-10.878 0,-6.2 4.08,-10.758 9.719,-10.758 7.319,0 9.558,6.839 9.358,11.838 h -15.477 c -0.121,3.6 1.92,6.8 6.439,6.8 2.8,0 4.759,-1.359 5.359,-4.039 z m -3.279,-5.76 a 5.95,5.95 0 0 0 -5.959,-5.839 c -3.56,0 -5.679,2.68 -5.919,5.839 z"
       style="fill:#181716"
       id="path157" />
    <path
       d="m 264.34,1051.214 h 4.119 v 3 h -4.119 v 12.838 c 0,1.559 0.44,1.84 2.559,1.84 h 1.56 v 3 h -2.6 c -3.519,0 -4.919,-0.72 -4.919,-4.52 v -13.157 h -3.519 v -3 h 3.519 v -6.2 h 3.4 z"
       style="fill:#181716"
       id="path159" />
    <path
       d="m 274.3,1065.372 c 0.12,3.039 2.76,4 5.559,4 2.12,0 5,-0.479 5,-3.079 0,-2.64 -3.359,-3.08 -6.758,-3.84 -3.36,-0.76 -6.759,-1.88 -6.759,-5.839 0,-4.159 4.119,-5.879 7.719,-5.879 4.559,0 8.2,1.44 8.478,6.479 h -3.4 c -0.24,-2.64 -2.56,-3.48 -4.8,-3.48 -2.039,0 -4.4,0.561 -4.4,2.64 0,2.439 3.6,2.84 6.759,3.6 3.4,0.759 6.759,1.88 6.759,5.879 0,4.919 -4.6,6.518 -8.8,6.518 -4.64,0 -8.559,-1.879 -8.759,-7 z"
       style="fill:#181716"
       id="path161" />
    <path
       d="m 303.34,1051.214 h 3.2 v 3.279 h 0.08 a 7.2,7.2 0 0 1 6.719,-3.759 c 5.439,0 7.119,3.12 7.119,7.559 v 13.6 h -3.4 v -14 a 3.9,3.9 0 0 0 -4.2,-4.16 c -4.119,0 -6.119,2.76 -6.119,6.48 v 11.678 h -3.4 z"
       style="fill:#181716"
       id="path163" />
    <path
       d="m 334.5,1050.734 c 6.559,0 10.038,4.759 10.038,10.838 0,6.039 -3.479,10.8 -10.038,10.8 -6.559,0 -10.039,-4.759 -10.039,-10.8 -0.001,-6.079 3.478,-10.838 10.039,-10.838 z m 0,18.637 c 3.559,0 6.439,-2.8 6.439,-7.8 0,-5.039 -2.88,-7.839 -6.439,-7.839 -3.559,0 -6.439,2.8 -6.439,7.839 -10e-4,5 2.878,7.8 6.439,7.8 z"
       style="fill:#181716"
       id="path165" />
    <path
       d="m 348.54,1051.214 h 3.2 v 3.279 h 0.08 a 7.2,7.2 0 0 1 6.719,-3.759 c 5.439,0 7.119,3.12 7.119,7.559 v 13.6 h -3.4 v -14 a 3.9,3.9 0 0 0 -4.2,-4.16 c -4.12,0 -6.119,2.76 -6.119,6.48 v 11.678 h -3.4 z"
       style="fill:#181716"
       id="path167" />
    <path
       d="m 381.779,1051.214 h 3.2 v 4.359 h 0.08 c 1.64,-3.319 3.919,-4.959 7.6,-4.839 v 3.6 c -5.479,0 -7.479,3.119 -7.479,8.358 v 9.2 h -3.4 z"
       style="fill:#181716"
       id="path169" />
    <path
       d="m 412.136,1065.332 c -0.92,4.559 -4.2,7.038 -8.839,7.038 -6.6,0 -9.718,-4.558 -9.918,-10.878 0,-6.2 4.079,-10.758 9.719,-10.758 7.319,0 9.558,6.839 9.358,11.838 h -15.477 c -0.121,3.6 1.919,6.8 6.438,6.8 2.8,0 4.76,-1.359 5.36,-4.039 z m -3.28,-5.76 a 5.949,5.949 0 0 0 -5.959,-5.839 c -3.559,0 -5.678,2.68 -5.918,5.839 z"
       style="fill:#181716"
       id="path171" />
    <path
       d="m 415.979,1051.214 h 3.2 v 3.279 h 0.08 a 7.2,7.2 0 0 1 6.719,-3.759 c 5.439,0 7.119,3.12 7.119,7.559 v 13.6 h -3.4 v -14 a 3.9,3.9 0 0 0 -4.2,-4.16 c -4.12,0 -6.119,2.76 -6.119,6.48 v 11.678 h -3.4 z"
       style="fill:#181716"
       id="path173" />
    <path
       d="m 447.137,1050.734 c 6.559,0 10.039,4.759 10.039,10.838 0,6.039 -3.48,10.8 -10.039,10.8 -6.559,0 -10.038,-4.759 -10.038,-10.8 0.001,-6.079 3.479,-10.838 10.038,-10.838 z m 0,18.637 c 3.56,0 6.439,-2.8 6.439,-7.8 0,-5.039 -2.879,-7.839 -6.439,-7.839 -3.56,0 -6.439,2.8 -6.439,7.839 0.002,5 2.88,7.8 6.439,7.8 z"
       style="fill:#181716"
       id="path175" />
    <path
       d="m 478.3,1071.891 h -3.2 v -3.28 h -0.08 a 7.2,7.2 0 0 1 -6.719,3.759 c -5.439,0 -7.119,-3.119 -7.119,-7.558 v -13.6 h 3.4 v 14 a 3.9,3.9 0 0 0 4.2,4.159 c 4.119,0 6.119,-2.76 6.119,-6.478 v -11.679 h 3.4 z"
       style="fill:#181716"
       id="path177" />
    <path
       d="M 492.737,1071.891 H 489.1 l -7.679,-20.677 h 3.8 l 5.8,17.237 h 0.08 l 5.639,-17.237 h 3.56 z"
       style="fill:#181716"
       id="path179" />
    <path
       d="m 521.056,1065.332 c -0.92,4.559 -4.2,7.038 -8.839,7.038 -6.6,0 -9.718,-4.558 -9.918,-10.878 0,-6.2 4.079,-10.758 9.718,-10.758 7.319,0 9.558,6.839 9.358,11.838 H 505.9 c -0.12,3.6 1.92,6.8 6.439,6.8 2.8,0 4.759,-1.359 5.359,-4.039 z m -3.28,-5.76 a 5.95,5.95 0 0 0 -5.959,-5.839 c -3.559,0 -5.679,2.68 -5.919,5.839 z"
       style="fill:#181716"
       id="path181" />
    <path
       d="m 525.1,1043.335 h 3.4 v 28.556 h -3.4 z"
       style="fill:#181716"
       id="path183" />
    <path
       d="m 552.094,1071.811 a 4.585,4.585 0 0 1 -2.439,0.559 c -1.76,0 -2.88,-0.959 -2.88,-3.2 a 9.172,9.172 0 0 1 -7.278,3.2 c -3.76,0 -6.839,-1.68 -6.839,-5.8 0,-4.678 3.479,-5.678 7,-6.358 3.76,-0.72 6.959,-0.481 6.959,-3.04 0,-2.959 -2.439,-3.44 -4.6,-3.44 -2.88,0 -5,0.88 -5.159,3.92 h -3.4 c 0.2,-5.119 4.159,-6.919 8.758,-6.919 3.72,0 7.759,0.84 7.759,5.679 v 10.639 c 0,1.6 0,2.319 1.08,2.319 a 2.918,2.918 0 0 0 1.039,-0.2 z m -5.519,-10.6 c -1.32,0.959 -3.879,1 -6.159,1.4 -2.239,0.4 -4.159,1.2 -4.159,3.72 0,2.239 1.92,3.039 4,3.039 4.479,0 6.319,-2.8 6.319,-4.68 z"
       style="fill:#181716"
       id="path185" />
    <path
       d="m 555.377,1043.335 h 3.4 v 10.679 h 0.08 c 1.12,-2.28 3.76,-3.28 6.6,-3.28 6.359,0 9.519,5.039 9.519,10.878 0,5.839 -3.12,10.758 -9.439,10.758 -2.119,0 -5.159,-0.8 -6.679,-3.239 h -0.08 v 2.76 h -3.4 z m 9.6,10.4 c -4.559,0 -6.319,3.92 -6.319,7.8 0,4.079 1.84,7.839 6.519,7.839 4.639,0 6.2,-3.959 6.2,-8 -0.003,-3.881 -2.002,-7.641 -6.402,-7.641 z"
       style="fill:#181716"
       id="path187" />
    <path
       d="m 579.176,1043.335 h 3.4 v 28.556 h -3.4 z"
       style="fill:#181716"
       id="path189" />
    <path
       d="m 605.493,1065.332 c -0.92,4.559 -4.2,7.038 -8.839,7.038 -6.6,0 -9.718,-4.558 -9.918,-10.878 0,-6.2 4.079,-10.758 9.718,-10.758 7.319,0 9.558,6.839 9.358,11.838 h -15.477 c -0.12,3.6 1.92,6.8 6.439,6.8 2.8,0 4.759,-1.359 5.359,-4.039 z m -3.28,-5.76 a 5.95,5.95 0 0 0 -5.959,-5.839 c -3.559,0 -5.679,2.68 -5.919,5.839 z"
       style="fill:#181716"
       id="path191" />
    <path
       d="m 611.415,1065.372 c 0.12,3.039 2.759,4 5.559,4 2.119,0 5,-0.479 5,-3.079 0,-2.64 -3.36,-3.08 -6.759,-3.84 -3.36,-0.76 -6.759,-1.88 -6.759,-5.839 0,-4.159 4.119,-5.879 7.719,-5.879 4.559,0 8.2,1.44 8.478,6.479 h -3.4 c -0.24,-2.64 -2.56,-3.48 -4.8,-3.48 -2.04,0 -4.4,0.561 -4.4,2.64 0,2.439 3.6,2.84 6.758,3.6 3.4,0.759 6.759,1.88 6.759,5.879 0,4.919 -4.6,6.518 -8.8,6.518 -4.64,0 -8.559,-1.879 -8.759,-7 z"
       style="fill:#181716"
       id="path193" />
  </g>
  <g
     id="g203">
    <path
       d="m 367.821,1091.535 c 8.879,0 9.439,8.159 9.439,14.438 0,6.239 -0.56,14.4 -9.439,14.4 -8.879,0 -9.438,-8.158 -9.438,-14.4 0,-6.279 0.56,-14.438 9.438,-14.438 z m 0,25.836 c 5.8,0 5.839,-7.2 5.839,-11.438 0,-4.2 -0.04,-11.4 -5.839,-11.4 -5.799,0 -5.839,7.2 -5.839,11.4 0,4.239 0.04,11.438 5.839,11.438 z"
       style="fill:#181716"
       id="path197" />
    <path
       d="m 382.263,1115.451 h 4.437 v 4.039 c 0,3 -1.32,5.4 -4.4,6.28 v -2 a 3.829,3.829 0 0 0 2.32,-3.879 h -2.36 z"
       style="fill:#181716"
       id="path199" />
    <path
       d="m 400.981,1091.535 c 6.2,0 8.6,3.64 8.6,7.239 a 6.565,6.565 0 0 1 -3.92,5.879 c 3.4,1.08 5.04,3.56 5.04,7.079 0,5.479 -4.16,8.638 -9.4,8.638 -5.439,0 -9.638,-2.839 -9.638,-8.638 a 7.156,7.156 0 0 1 4.959,-7.079 6.408,6.408 0 0 1 -3.959,-5.879 c 0,-4.674 3.959,-7.239 8.318,-7.239 z m 0.32,25.836 a 5.477,5.477 0 0 0 5.8,-5.519 5.584,5.584 0 0 0 -5.839,-5.4 c -3.359,0 -6,2.159 -6,5.439 0,3.4 2.52,5.48 6.038,5.48 z m 0,-13.918 a 4.355,4.355 0 0 0 4.679,-4.558 c 0,-2.84 -2,-4.36 -4.759,-4.36 -2.72,0 -4.959,1.52 -4.959,4.36 0,3.119 2.238,4.558 5.038,4.558 z"
       style="fill:#181716"
       id="path201" />
  </g>
  <g
     id="g237">
    <path
       d="m 1351.592,310.422 h 10.358 c 2.52,0 5.839,0 7.559,1.039 a 6.779,6.779 0 0 1 3.359,5.96 6.6,6.6 0 0 1 -4.239,6.4 v 0.079 a 6.545,6.545 0 0 1 5.439,6.879 c 0,4.2 -3,8.2 -8.678,8.2 h -13.8 z m 3.8,12.278 h 7.6 c 4.32,0 6.079,-1.56 6.079,-4.559 0,-3.96 -2.8,-4.52 -6.079,-4.52 h -7.6 z m 0,13.078 h 9.518 c 3.279,0 5.359,-2 5.359,-5.119 0,-3.72 -3,-4.76 -6.2,-4.76 h -8.678 z"
       style="fill:#181716"
       id="path209" />
    <path
       d="m 1382.032,314.581 h -3.4 v -4.159 h 3.4 z m -3.4,3.719 h 3.4 v 20.677 h -3.4 z"
       style="fill:#181716"
       id="path211" />
    <path
       d="m 1396.23,317.821 c 6.559,0 10.039,4.759 10.039,10.838 0,6.039 -3.48,10.8 -10.039,10.8 -6.559,0 -10.039,-4.759 -10.039,-10.8 0,-6.079 3.48,-10.838 10.039,-10.838 z m 0,18.637 c 3.559,0 6.439,-2.8 6.439,-7.8 0,-5.039 -2.88,-7.839 -6.439,-7.839 -3.559,0 -6.439,2.8 -6.439,7.839 0,5 2.88,7.8 6.439,7.8 z"
       style="fill:#181716"
       id="path213" />
    <path
       d="m 1410.271,318.3 h 3.2 v 3.04 h 0.08 a 7.622,7.622 0 0 1 6.678,-3.519 c 2.52,0 4.84,1 5.68,3.519 a 7.649,7.649 0 0 1 6.479,-3.519 c 4.119,0 6.879,1.72 6.879,6 v 15.157 h -3.4 v -13.559 c 0,-2.559 -0.679,-4.6 -4,-4.6 a 5.008,5.008 0 0 0 -5.4,5.279 v 12.878 h -3.4 v -13.557 c 0,-2.679 -0.84,-4.6 -3.879,-4.6 a 5.576,5.576 0 0 0 -5.519,5.279 v 12.878 h -3.4 z"
       style="fill:#181716"
       id="path215" />
    <path
       d="m 1462.708,338.9 a 4.588,4.588 0 0 1 -2.44,0.56 c -1.76,0 -2.879,-0.96 -2.879,-3.2 a 9.176,9.176 0 0 1 -7.28,3.2 c -3.758,0 -6.838,-1.68 -6.838,-5.8 0,-4.679 3.479,-5.679 7,-6.359 3.759,-0.72 6.959,-0.48 6.959,-3.04 0,-2.959 -2.44,-3.439 -4.6,-3.439 -2.879,0 -5,0.88 -5.159,3.919 h -3.4 c 0.2,-5.119 4.16,-6.918 8.759,-6.918 3.72,0 7.759,0.84 7.759,5.679 v 10.638 c 0,1.6 0,2.32 1.08,2.32 a 2.928,2.928 0 0 0 1.04,-0.2 z m -5.52,-10.6 c -1.319,0.96 -3.878,1 -6.159,1.4 -2.239,0.4 -4.159,1.2 -4.159,3.719 0,2.24 1.92,3.04 4,3.04 4.48,0 6.319,-2.8 6.319,-4.68 z"
       style="fill:#181716"
       id="path217" />
    <path
       d="m 1467.95,332.458 c 0.119,3.04 2.759,4 5.559,4 2.12,0 5,-0.48 5,-3.08 0,-2.64 -3.36,-3.08 -6.759,-3.839 -3.359,-0.76 -6.759,-1.88 -6.759,-5.839 0,-4.159 4.119,-5.879 7.719,-5.879 4.56,0 8.2,1.439 8.479,6.478 h -3.4 c -0.24,-2.639 -2.559,-3.479 -4.8,-3.479 -2.04,0 -4.4,0.56 -4.4,2.639 0,2.44 3.6,2.84 6.759,3.6 3.4,0.76 6.758,1.88 6.758,5.879 0,4.919 -4.6,6.519 -8.8,6.519 -4.639,0 -8.559,-1.88 -8.758,-7 z"
       style="fill:#181716"
       id="path219" />
    <path
       d="m 1487.95,332.458 c 0.119,3.04 2.759,4 5.559,4 2.12,0 5,-0.48 5,-3.08 0,-2.64 -3.36,-3.08 -6.759,-3.839 -3.359,-0.76 -6.759,-1.88 -6.759,-5.839 0,-4.159 4.119,-5.879 7.719,-5.879 4.56,0 8.2,1.439 8.479,6.478 h -3.4 c -0.24,-2.639 -2.559,-3.479 -4.8,-3.479 -2.04,0 -4.4,0.56 -4.4,2.639 0,2.44 3.6,2.84 6.759,3.6 3.4,0.76 6.758,1.88 6.758,5.879 0,4.919 -4.6,6.519 -8.8,6.519 -4.639,0 -8.559,-1.88 -8.758,-7 z"
       style="fill:#181716"
       id="path221" />
    <path
       d="m 1523.507,332.418 c -0.92,4.56 -4.2,7.039 -8.838,7.039 -6.6,0 -9.719,-4.559 -9.919,-10.878 0,-6.2 4.08,-10.758 9.719,-10.758 7.318,0 9.558,6.839 9.358,11.838 h -15.477 c -0.121,3.6 1.92,6.8 6.439,6.8 2.8,0 4.759,-1.36 5.358,-4.04 z m -3.279,-5.759 a 5.95,5.95 0 0 0 -5.959,-5.839 c -3.56,0 -5.679,2.68 -5.919,5.839 z"
       style="fill:#181716"
       id="path223" />
    <path
       d="m 1540.55,332.458 c 0.119,3.04 2.759,4 5.558,4 2.121,0 5,-0.48 5,-3.08 0,-2.64 -3.359,-3.08 -6.758,-3.839 -3.36,-0.76 -6.759,-1.88 -6.759,-5.839 0,-4.159 4.119,-5.879 7.719,-5.879 4.559,0 8.2,1.439 8.478,6.478 h -3.4 c -0.241,-2.639 -2.56,-3.479 -4.8,-3.479 -2.04,0 -4.4,0.56 -4.4,2.639 0,2.44 3.6,2.84 6.759,3.6 3.4,0.76 6.759,1.88 6.759,5.879 0,4.919 -4.6,6.519 -8.8,6.519 -4.638,0 -8.558,-1.88 -8.758,-7 z"
       style="fill:#181716"
       id="path225" />
    <path
       d="m 1567.389,317.821 c 6.558,0 10.038,4.759 10.038,10.838 0,6.039 -3.48,10.8 -10.038,10.8 -6.558,0 -10.039,-4.759 -10.039,-10.8 0,-6.079 3.479,-10.838 10.039,-10.838 z m 0,18.637 c 3.558,0 6.438,-2.8 6.438,-7.8 0,-5.039 -2.88,-7.839 -6.438,-7.839 -3.558,0 -6.44,2.8 -6.44,7.839 0,5 2.88,7.8 6.44,7.8 z"
       style="fill:#181716"
       id="path227" />
    <path
       d="m 1581.63,310.422 h 3.4 v 28.555 h -3.4 z"
       style="fill:#181716"
       id="path229" />
    <path
       d="m 1593.908,314.581 h -3.4 v -4.159 h 3.4 z m -3.4,3.719 h 3.4 v 20.677 h -3.4 z"
       style="fill:#181716"
       id="path231" />
    <path
       d="m 1617.665,338.977 h -3.4 v -2.8 h -0.08 c -1.12,2.279 -3.759,3.279 -6.6,3.279 -6.358,0 -9.519,-5.039 -9.519,-10.878 0,-5.839 3.12,-10.758 9.439,-10.758 2.12,0 5.159,0.8 6.679,3.239 h 0.08 v -10.637 h 3.4 z m -9.6,-2.519 c 4.559,0 6.319,-3.92 6.319,-7.8 0,-4.079 -1.84,-7.839 -6.519,-7.839 -4.639,0 -6.2,3.959 -6.2,8 0,3.881 2.003,7.639 6.402,7.639 z"
       style="fill:#181716"
       id="path233" />
    <path
       d="m 1640.545,332.418 c -0.92,4.56 -4.2,7.039 -8.838,7.039 -6.6,0 -9.719,-4.559 -9.919,-10.878 0,-6.2 4.08,-10.758 9.719,-10.758 7.318,0 9.558,6.839 9.358,11.838 h -15.477 c -0.12,3.6 1.92,6.8 6.439,6.8 2.8,0 4.759,-1.36 5.359,-4.04 z m -3.279,-5.759 a 5.95,5.95 0 0 0 -5.959,-5.839 c -3.56,0 -5.679,2.68 -5.919,5.839 z"
       style="fill:#181716"
       id="path235" />
  </g>
  <g
     id="g245">
    <path
       d="m 1484.112,377.339 h 3.84 v 3 h -3.84 v 6.639 h -3.2 v -6.639 h -12.437 v -3.279 l 12.918,-18.437 h 2.718 z m -3.2,0 v -13.878 h -0.08 l -9.438,13.878 z"
       style="fill:#181716"
       id="path239" />
    <path
       d="m 1492.915,382.538 h 4.439 v 4.039 c 0,3 -1.32,5.4 -4.4,6.279 v -2 a 3.826,3.826 0 0 0 2.319,-3.879 h -2.359 z"
       style="fill:#181716"
       id="path241" />
    <path
       d="m 1517.473,377.339 h 3.839 v 3 h -3.839 v 6.639 h -3.2 v -6.639 h -12.437 v -3.279 l 12.918,-18.437 h 2.719 z m -3.2,0 v -13.878 h -0.08 l -9.438,13.878 z"
       style="fill:#181716"
       id="path243" />
  </g>
  <g
     id="g275">
    <path
       d="m 1369.752,480.859 h 3.8 v 12.278 h 15.037 v -12.278 h 3.8 v 28.556 h -3.8 v -13.078 h -15.037 v 13.078 h -3.8 z"
       style="fill:#ffffff"
       id="path247" />
    <path
       d="m 1406.189,512.174 c -1.559,4.039 -2.959,5.519 -6,5.519 a 6.77,6.77 0 0 1 -2.36,-0.36 v -3.119 a 6.965,6.965 0 0 0 2,0.48 2.938,2.938 0 0 0 2.8,-1.88 l 1.4,-3.52 -8.2,-20.556 h 3.839 l 6.039,16.917 h 0.08 l 5.8,-16.917 h 3.6 z"
       style="fill:#ffffff"
       id="path249" />
    <path
       d="m 1436.548,509.415 h -3.4 v -2.8 h -0.08 c -1.119,2.28 -3.758,3.28 -6.6,3.28 -6.359,0 -9.519,-5.04 -9.519,-10.879 0,-5.839 3.12,-10.758 9.439,-10.758 2.12,0 5.159,0.8 6.678,3.24 h 0.08 v -10.639 h 3.4 z m -9.6,-2.52 c 4.559,0 6.319,-3.919 6.319,-7.8 0,-4.079 -1.84,-7.838 -6.519,-7.838 -4.64,0 -6.2,3.959 -6.2,8 0,3.879 2.003,7.643 6.402,7.643 z"
       style="fill:#ffffff"
       id="path251" />
    <path
       d="m 1441.671,488.738 h 3.2 v 4.362 h 0.08 c 1.64,-3.319 3.92,-4.959 7.6,-4.839 v 3.6 c -5.479,0 -7.479,3.12 -7.479,8.359 v 9.2 h -3.4 z"
       style="fill:#ffffff"
       id="path253" />
    <path
       d="m 1473.429,509.334 a 4.591,4.591 0 0 1 -2.441,0.561 c -1.759,0 -2.879,-0.96 -2.879,-3.2 a 9.174,9.174 0 0 1 -7.279,3.2 c -3.759,0 -6.839,-1.68 -6.839,-5.8 0,-4.679 3.48,-5.678 7,-6.359 3.76,-0.719 6.959,-0.48 6.959,-3.039 0,-2.96 -2.439,-3.439 -4.6,-3.439 -2.879,0 -5,0.879 -5.16,3.919 h -3.4 c 0.2,-5.119 4.16,-6.919 8.759,-6.919 3.72,0 7.759,0.84 7.759,5.679 v 10.638 c 0,1.6 0,2.32 1.08,2.32 a 2.926,2.926 0 0 0 1.04,-0.2 z m -5.52,-10.6 c -1.319,0.96 -3.879,1 -6.159,1.4 -2.239,0.4 -4.159,1.2 -4.159,3.719 0,2.24 1.92,3.04 4,3.04 4.479,0 6.319,-2.8 6.319,-4.679 z"
       style="fill:#ffffff"
       id="path255" />
    <path
       d="m 1493.708,509.415 h -3.2 v -3.28 h -0.08 a 7.2,7.2 0 0 1 -6.719,3.76 c -5.439,0 -7.119,-3.12 -7.119,-7.559 v -13.6 h 3.4 v 14 a 3.9,3.9 0 0 0 4.2,4.159 c 4.12,0 6.12,-2.76 6.12,-6.479 v -11.678 h 3.4 z"
       style="fill:#ffffff"
       id="path257" />
    <path
       d="m 1499.03,480.859 h 3.4 v 28.556 h -3.4 z"
       style="fill:#ffffff"
       id="path259" />
    <path
       d="m 1511.31,485.019 h -3.4 v -4.16 h 3.4 z m -3.4,3.719 h 3.4 v 20.677 h -3.4 z"
       style="fill:#ffffff"
       id="path261" />
    <path
       d="m 1535.065,517.333 h -3.4 v -10.718 h -0.08 c -1.119,2.28 -3.759,3.28 -6.6,3.28 -6.358,0 -9.518,-5.04 -9.518,-10.879 0,-5.839 3.12,-10.758 9.438,-10.758 2.12,0 5.159,0.8 6.679,3.24 h 0.08 v -2.76 h 3.4 z m -9.6,-10.438 c 4.558,0 6.318,-3.919 6.318,-7.8 0,-4.079 -1.84,-7.838 -6.518,-7.838 -4.64,0 -6.2,3.959 -6.2,8 0,3.879 2.003,7.643 6.403,7.643 z"
       style="fill:#ffffff"
       id="path263" />
    <path
       d="m 1557.426,509.415 h -3.2 v -3.28 h -0.081 a 7.2,7.2 0 0 1 -6.718,3.76 c -5.44,0 -7.119,-3.12 -7.119,-7.559 v -13.6 h 3.4 v 14 a 3.9,3.9 0 0 0 4.2,4.159 c 4.119,0 6.119,-2.76 6.119,-6.479 v -11.678 h 3.4 z"
       style="fill:#ffffff"
       id="path265" />
    <path
       d="m 1580.186,502.855 c -0.92,4.56 -4.2,7.04 -8.838,7.04 -6.6,0 -9.719,-4.56 -9.919,-10.879 0,-6.2 4.08,-10.758 9.718,-10.758 7.319,0 9.559,6.839 9.359,11.838 h -15.478 c -0.12,3.6 1.92,6.8 6.44,6.8 2.8,0 4.759,-1.36 5.358,-4.04 z m -3.28,-5.758 a 5.949,5.949 0 0 0 -5.959,-5.839 c -3.559,0 -5.678,2.679 -5.919,5.839 z"
       style="fill:#ffffff"
       id="path267" />
    <path
       d="m 1589.508,485.378 4.279,-1.6 0.8,1.92 -4.359,1.519 2.639,3.64 -1.639,1.24 -2.76,-3.84 -2.6,3.84 -1.8,-1.24 2.6,-3.64 -4.239,-1.519 0.719,-1.92 4.24,1.6 v -4.519 h 2.12 z"
       style="fill:#ffffff"
       id="path269" />
    <path
       d="m 1603.587,485.378 4.279,-1.6 0.8,1.92 -4.359,1.519 2.639,3.64 -1.639,1.24 -2.76,-3.84 -2.6,3.84 -1.8,-1.24 2.6,-3.64 -4.239,-1.519 0.72,-1.92 4.239,1.6 v -4.519 h 2.12 z"
       style="fill:#ffffff"
       id="path271" />
    <path
       d="m 1617.667,485.378 4.279,-1.6 0.8,1.92 -4.359,1.519 2.639,3.64 -1.639,1.24 -2.76,-3.84 -2.6,3.84 -1.8,-1.24 2.6,-3.64 -4.239,-1.519 0.72,-1.92 4.239,1.6 v -4.519 h 2.12 z"
       style="fill:#ffffff"
       id="path273" />
  </g>
  <g
     id="g283">
    <path
       d="m 1469.115,539.1 c -0.28,-5.76 3.119,-10.039 9.118,-10.039 4.959,0 8.879,2.88 8.879,8.159 0,5 -3.359,7.519 -6.879,9.719 -3.559,2.159 -7.279,3.959 -7.959,7.478 h 14.558 v 3 h -18.517 c 0.56,-6.719 3.959,-9.119 7.959,-11.6 4.8,-2.959 7.239,-4.719 7.239,-8.638 a 5.167,5.167 0 0 0 -5.48,-5.119 c -3.959,0 -5.638,3.639 -5.518,7.039 z"
       style="fill:#ffffff"
       id="path277" />
    <path
       d="m 1492.915,552.975 h 4.439 v 4.04 c 0,3 -1.32,5.4 -4.4,6.278 v -2 a 3.827,3.827 0 0 0 2.319,-3.879 h -2.359 z"
       style="fill:#ffffff"
       id="path279" />
    <path
       d="m 1517.473,547.776 h 3.839 v 3 h -3.839 v 6.639 h -3.2 v -6.639 h -12.437 V 547.5 l 12.918,-18.437 h 2.719 z m -3.2,0 V 533.9 h -0.08 l -9.438,13.878 z"
       style="fill:#ffffff"
       id="path281" />
  </g>
  <g
     id="g317">
    <path
       d="m 1339.354,604.1 h 10.358 c 2.519,0 5.839,0 7.559,1.04 a 6.779,6.779 0 0 1 3.359,5.959 6.6,6.6 0 0 1 -4.239,6.4 v 0.08 a 6.542,6.542 0 0 1 5.439,6.878 c 0,4.2 -3,8.2 -8.679,8.2 h -13.8 z m 3.8,12.278 h 7.6 c 4.319,0 6.079,-1.559 6.079,-4.559 0,-3.959 -2.8,-4.519 -6.079,-4.519 h -7.6 z m 0,13.079 h 9.519 c 3.279,0 5.358,-2 5.358,-5.12 0,-3.719 -3,-4.759 -6.2,-4.759 h -8.679 z"
       style="fill:#ffffff"
       id="path285" />
    <path
       d="m 1369.794,608.261 h -3.4 V 604.1 h 3.4 z m -3.4,3.719 h 3.4 v 20.677 h -3.4 z"
       style="fill:#ffffff"
       id="path287" />
    <path
       d="m 1383.992,611.5 c 6.559,0 10.038,4.759 10.038,10.838 0,6.039 -3.479,10.8 -10.038,10.8 -6.559,0 -10.039,-4.759 -10.039,-10.8 0,-6.079 3.48,-10.838 10.039,-10.838 z m 0,18.637 c 3.559,0 6.439,-2.8 6.439,-7.8 0,-5.039 -2.88,-7.838 -6.439,-7.838 -3.559,0 -6.439,2.8 -6.439,7.838 0,5 2.88,7.8 6.439,7.8 z"
       style="fill:#ffffff"
       id="path289" />
    <path
       d="m 1412.071,618.619 a 4.813,4.813 0 0 0 -5.119,-4.119 c -4.92,0 -6.439,3.879 -6.439,8.079 0,3.8 1.719,7.558 6.039,7.558 3.279,0 5.239,-1.92 5.678,-5.039 h 3.48 c -0.76,5.039 -3.919,8.038 -9.118,8.038 -6.32,0 -9.679,-4.4 -9.679,-10.557 0,-6.2 3.2,-11.079 9.759,-11.079 4.679,0 8.438,2.2 8.918,7.119 z"
       style="fill:#ffffff"
       id="path291" />
    <path
       d="m 1437.83,632.577 a 4.589,4.589 0 0 1 -2.44,0.559 c -1.76,0 -2.879,-0.959 -2.879,-3.2 a 9.176,9.176 0 0 1 -7.28,3.2 c -3.758,0 -6.838,-1.679 -6.838,-5.8 0,-4.678 3.479,-5.678 7,-6.358 3.759,-0.72 6.959,-0.48 6.959,-3.04 0,-2.959 -2.44,-3.439 -4.6,-3.439 -2.879,0 -5,0.879 -5.159,3.919 h -3.4 c 0.2,-5.119 4.16,-6.919 8.759,-6.919 3.72,0 7.759,0.84 7.759,5.679 v 10.639 c 0,1.6 0,2.319 1.08,2.319 a 2.923,2.923 0 0 0 1.04,-0.2 z m -5.519,-10.6 c -1.32,0.959 -3.879,1 -6.16,1.4 -2.239,0.4 -4.159,1.2 -4.159,3.72 0,2.239 1.92,3.039 4,3.039 4.48,0 6.32,-2.8 6.32,-4.679 z"
       style="fill:#ffffff"
       id="path293" />
    <path
       d="m 1440.872,611.98 h 3.2 v 4.359 h 0.08 c 1.64,-3.319 3.92,-4.959 7.6,-4.839 v 3.6 c -5.479,0 -7.479,3.119 -7.479,8.358 v 9.2 h -3.4 z"
       style="fill:#ffffff"
       id="path295" />
    <path
       d="m 1454.432,604.1 h 3.4 v 10.68 h 0.08 c 1.119,-2.28 3.759,-3.28 6.6,-3.28 6.359,0 9.518,5.04 9.518,10.878 0,5.838 -3.119,10.758 -9.438,10.758 -2.12,0 -5.159,-0.8 -6.679,-3.239 h -0.08 v 2.76 h -3.4 z m 9.6,10.4 c -4.559,0 -6.319,3.919 -6.319,7.8 0,4.079 1.84,7.839 6.518,7.839 4.64,0 6.2,-3.959 6.2,-8 0,-3.88 -2.002,-7.639 -6.401,-7.639 z"
       style="fill:#ffffff"
       id="path297" />
    <path
       d="m 1495.148,632.657 h -3.2 v -3.28 h -0.08 a 7.2,7.2 0 0 1 -6.719,3.759 c -5.439,0 -7.119,-3.119 -7.119,-7.558 v -13.6 h 3.4 v 14 a 3.9,3.9 0 0 0 4.2,4.159 c 4.119,0 6.119,-2.76 6.119,-6.478 V 611.98 h 3.4 z"
       style="fill:#ffffff"
       id="path299" />
    <path
       d="m 1500.15,611.98 h 3.2 v 4.359 h 0.08 c 1.639,-3.319 3.92,-4.959 7.6,-4.839 v 3.6 c -5.478,0 -7.478,3.119 -7.478,8.358 v 9.2 h -3.4 z"
       style="fill:#ffffff"
       id="path301" />
    <path
       d="m 1531.908,632.577 a 4.586,4.586 0 0 1 -2.44,0.559 c -1.76,0 -2.879,-0.959 -2.879,-3.2 a 9.175,9.175 0 0 1 -7.279,3.2 c -3.759,0 -6.839,-1.679 -6.839,-5.8 0,-4.678 3.479,-5.678 7,-6.358 3.759,-0.72 6.959,-0.48 6.959,-3.04 0,-2.959 -2.44,-3.439 -4.6,-3.439 -2.879,0 -5,0.879 -5.159,3.919 h -3.4 c 0.2,-5.119 4.159,-6.919 8.758,-6.919 3.72,0 7.759,0.84 7.759,5.679 v 10.639 c 0,1.6 0,2.319 1.08,2.319 a 2.923,2.923 0 0 0 1.04,-0.2 z m -5.519,-10.6 c -1.32,0.959 -3.879,1 -6.16,1.4 -2.239,0.4 -4.159,1.2 -4.159,3.72 0,2.239 1.92,3.039 4,3.039 4.48,0 6.32,-2.8 6.32,-4.679 z"
       style="fill:#ffffff"
       id="path303" />
    <path
       d="m 1535.07,611.98 h 3.2 v 3.279 h 0.08 a 7.2,7.2 0 0 1 6.718,-3.759 c 5.44,0 7.12,3.12 7.12,7.559 v 13.6 h -3.4 v -14 a 3.9,3.9 0 0 0 -4.2,-4.159 c -4.119,0 -6.119,2.759 -6.119,6.479 v 11.678 h -3.4 z"
       style="fill:#ffffff"
       id="path305" />
    <path
       d="m 1562.029,611.98 h 4.12 v 3 h -4.12 v 12.838 c 0,1.559 0.441,1.84 2.56,1.84 h 1.56 v 3 h -2.6 c -3.52,0 -4.92,-0.72 -4.92,-4.52 V 614.98 h -3.519 v -3 h 3.519 v -6.2 h 3.4 z"
       style="fill:#ffffff"
       id="path307" />
    <path
       d="m 1571.989,626.138 c 0.119,3.039 2.759,4 5.559,4 2.12,0 5,-0.479 5,-3.079 0,-2.64 -3.359,-3.08 -6.759,-3.84 -3.359,-0.76 -6.759,-1.88 -6.759,-5.839 0,-4.159 4.119,-5.879 7.719,-5.879 4.56,0 8.2,1.44 8.479,6.479 h -3.4 c -0.24,-2.64 -2.559,-3.479 -4.8,-3.479 -2.04,0 -4.4,0.56 -4.4,2.639 0,2.44 3.6,2.84 6.759,3.6 3.4,0.76 6.758,1.88 6.758,5.879 0,4.919 -4.6,6.518 -8.8,6.518 -4.639,0 -8.559,-1.879 -8.758,-7 z"
       style="fill:#ffffff"
       id="path309" />
    <path
       d="m 1612.707,632.657 h -3.4 V 612.34 h -7.359 v -2.719 c 3.879,0 7.4,-1.04 8.158,-5.32 h 2.6 z"
       style="fill:#ffffff"
       id="path311" />
    <path
       d="m 1624.029,628.217 h 4.44 v 4.039 c 0,3 -1.321,5.4 -4.4,6.28 v -2 a 3.827,3.827 0 0 0 2.32,-3.879 h -2.36 z"
       style="fill:#ffffff"
       id="path313" />
    <path
       d="m 1640.549,616.459 c 0.519,0.041 1,0.041 1.479,0.041 2.88,0 5.4,-1.56 5.4,-4.64 0,-2.959 -2.16,-4.559 -5.039,-4.559 -3.72,0 -5.32,2.839 -5.36,6.158 h -3.4 c 0.2,-5.4 3.079,-9.158 8.759,-9.158 4.919,0 8.638,2.36 8.638,7.6 a 6.5,6.5 0 0 1 -3.92,5.64 v 0.08 c 3.44,0.759 5.12,3.479 5.12,6.879 0,5.678 -4.44,8.637 -9.758,8.637 -5.76,0 -9.559,-3.4 -9.439,-9.238 h 3.4 c 0.119,3.68 2.159,6.239 6.039,6.239 3.319,0 6.158,-2.04 6.158,-5.479 0,-3.559 -2.68,-5.439 -6.039,-5.439 a 16.916,16.916 0 0 0 -2.039,0.12 z"
       style="fill:#ffffff"
       id="path315" />
  </g>
  <g
     id="g353">
    <path
       d="m 1303.393,669.421 h 12.518 c 5.679,0 8.758,3.161 8.758,8.44 0,5.279 -3.079,8.478 -8.758,8.438 h -8.719 v 11.678 h -3.8 z m 3.8,13.678 h 7.439 c 4.279,0.04 6.239,-1.839 6.239,-5.238 0,-3.399 -1.96,-5.239 -6.239,-5.239 h -7.439 z"
       style="fill:#ffffff"
       id="path319" />
    <path
       d="m 1337.672,676.821 c 6.558,0 10.038,4.759 10.038,10.838 0,6.039 -3.48,10.8 -10.038,10.8 -6.558,0 -10.039,-4.759 -10.039,-10.8 0,-6.079 3.479,-10.838 10.039,-10.838 z m 0,18.637 c 3.558,0 6.438,-2.8 6.438,-7.8 0,-5.039 -2.88,-7.839 -6.438,-7.839 -3.558,0 -6.44,2.8 -6.44,7.839 0,5 2.88,7.8 6.44,7.8 z"
       style="fill:#ffffff"
       id="path321" />
    <path
       d="m 1351.712,677.3 h 3.2 v 3.04 h 0.08 a 7.622,7.622 0 0 1 6.679,-3.519 c 2.519,0 4.84,1 5.68,3.519 a 7.646,7.646 0 0 1 6.478,-3.519 c 4.119,0 6.879,1.72 6.879,6 v 15.157 h -3.4 v -13.559 c 0,-2.559 -0.68,-4.6 -4,-4.6 a 5.009,5.009 0 0 0 -5.4,5.279 v 12.878 h -3.4 v -13.557 c 0,-2.679 -0.84,-4.6 -3.879,-4.6 a 5.577,5.577 0 0 0 -5.52,5.279 v 12.878 h -3.4 z"
       style="fill:#ffffff"
       id="path323" />
    <path
       d="m 1385.952,677.3 h 3.4 v 2.8 h 0.08 c 1.119,-2.279 3.758,-3.279 6.6,-3.279 6.36,0 9.519,5.039 9.519,10.878 0,5.839 -3.119,10.758 -9.439,10.758 -2.12,0 -5.159,-0.8 -6.678,-3.24 h -0.08 V 705.9 h -3.4 z m 9.6,2.52 c -4.56,0 -6.32,3.92 -6.32,7.8 0,4.079 1.84,7.839 6.519,7.839 4.64,0 6.2,-3.959 6.2,-8 0,-3.879 -2.002,-7.639 -6.4,-7.639 z"
       style="fill:#ffffff"
       id="path325" />
    <path
       d="m 1427.188,691.418 c -0.919,4.559 -4.2,7.039 -8.837,7.039 -6.6,0 -9.719,-4.559 -9.919,-10.878 0,-6.2 4.08,-10.758 9.718,-10.758 7.319,0 9.559,6.839 9.359,11.838 h -15.478 c -0.12,3.6 1.92,6.8 6.44,6.8 2.8,0 4.758,-1.36 5.358,-4.04 z m -3.279,-5.759 a 5.949,5.949 0 0 0 -5.959,-5.839 c -3.559,0 -5.679,2.68 -5.919,5.839 z"
       style="fill:#ffffff"
       id="path327" />
    <path
       d="m 1433.111,691.458 c 0.119,3.04 2.759,4 5.559,4 2.12,0 5,-0.48 5,-3.08 0,-2.639 -3.359,-3.08 -6.759,-3.839 -3.359,-0.76 -6.759,-1.88 -6.759,-5.839 0,-4.159 4.12,-5.879 7.719,-5.879 4.56,0 8.2,1.439 8.479,6.478 h -3.4 c -0.24,-2.639 -2.559,-3.479 -4.8,-3.479 -2.04,0 -4.4,0.56 -4.4,2.639 0,2.44 3.6,2.84 6.759,3.6 3.4,0.76 6.759,1.88 6.759,5.879 0,4.919 -4.6,6.519 -8.8,6.519 -4.639,0 -8.559,-1.879 -8.758,-7 z"
       style="fill:#ffffff"
       id="path329" />
    <path
       d="m 1480.469,697.9 a 4.592,4.592 0 0 1 -2.441,0.56 c -1.759,0 -2.879,-0.959 -2.879,-3.2 a 9.17,9.17 0 0 1 -7.279,3.2 c -3.759,0 -6.839,-1.68 -6.839,-5.8 0,-4.679 3.48,-5.679 7,-6.359 3.76,-0.719 6.959,-0.48 6.959,-3.04 0,-2.959 -2.439,-3.439 -4.6,-3.439 -2.879,0 -5,0.88 -5.16,3.92 h -3.4 c 0.2,-5.119 4.159,-6.919 8.759,-6.919 3.72,0 7.759,0.84 7.759,5.679 v 10.638 c 0,1.6 0,2.32 1.08,2.32 a 2.931,2.931 0 0 0 1.04,-0.2 z m -5.52,-10.6 c -1.319,0.959 -3.879,1 -6.159,1.4 -2.239,0.4 -4.159,1.2 -4.159,3.719 0,2.24 1.92,3.04 4,3.04 4.479,0 6.319,-2.8 6.319,-4.68 z m -9.958,-18.557 h 4.36 l 3.439,5.719 h -2.56 z"
       style="fill:#ffffff"
       id="path331" />
    <path
       d="m 1508.789,683.939 a 4.813,4.813 0 0 0 -5.119,-4.119 c -4.92,0 -6.44,3.88 -6.44,8.079 0,3.8 1.72,7.559 6.04,7.559 3.279,0 5.239,-1.92 5.678,-5.04 h 3.48 c -0.76,5.04 -3.919,8.039 -9.118,8.039 -6.32,0 -9.679,-4.4 -9.679,-10.558 0,-6.2 3.2,-11.078 9.759,-11.078 4.678,0 8.438,2.2 8.918,7.118 z"
       style="fill:#ffffff"
       id="path333" />
    <path
       d="m 1516.23,669.421 h 3.4 v 10.919 h 0.08 c 1.12,-2.479 4.039,-3.519 6.519,-3.519 5.439,0 7.119,3.119 7.119,7.558 v 13.6 h -3.4 v -14 a 3.9,3.9 0 0 0 -4.2,-4.159 c -4.119,0 -6.119,2.76 -6.119,6.479 v 11.678 h -3.4 z"
       style="fill:#ffffff"
       id="path335" />
    <path
       d="m 1556.787,697.9 a 4.586,4.586 0 0 1 -2.44,0.56 c -1.76,0 -2.879,-0.959 -2.879,-3.2 a 9.173,9.173 0 0 1 -7.28,3.2 c -3.758,0 -6.838,-1.68 -6.838,-5.8 0,-4.679 3.479,-5.679 7,-6.359 3.759,-0.719 6.959,-0.48 6.959,-3.04 0,-2.959 -2.44,-3.439 -4.6,-3.439 -2.879,0 -5,0.88 -5.159,3.92 h -3.4 c 0.2,-5.119 4.16,-6.919 8.759,-6.919 3.72,0 7.759,0.84 7.759,5.679 v 10.638 c 0,1.6 0,2.32 1.08,2.32 a 2.928,2.928 0 0 0 1.04,-0.2 z m -5.519,-10.6 c -1.32,0.959 -3.879,1 -6.16,1.4 -2.239,0.4 -4.159,1.2 -4.159,3.719 0,2.24 1.92,3.04 4,3.04 4.48,0 6.32,-2.8 6.32,-4.68 z"
       style="fill:#ffffff"
       id="path337" />
    <path
       d="m 1560.15,669.421 h 3.4 v 28.556 h -3.4 z"
       style="fill:#ffffff"
       id="path339" />
    <path
       d="m 1586.466,691.418 c -0.92,4.559 -4.2,7.039 -8.838,7.039 -6.6,0 -9.719,-4.559 -9.919,-10.878 0,-6.2 4.08,-10.758 9.719,-10.758 7.318,0 9.558,6.839 9.358,11.838 h -15.477 c -0.121,3.6 1.92,6.8 6.439,6.8 2.8,0 4.759,-1.36 5.358,-4.04 z m -3.279,-5.759 a 5.95,5.95 0 0 0 -5.959,-5.839 c -3.56,0 -5.679,2.68 -5.919,5.839 z"
       style="fill:#ffffff"
       id="path341" />
    <path
       d="m 1607.426,697.977 h -3.2 V 694.7 h -0.081 a 7.2,7.2 0 0 1 -6.718,3.759 c -5.44,0 -7.119,-3.12 -7.119,-7.559 v -13.6 h 3.4 v 14 a 3.9,3.9 0 0 0 4.2,4.16 c 4.119,0 6.119,-2.76 6.119,-6.479 V 677.3 h 3.4 z"
       style="fill:#ffffff"
       id="path343" />
    <path
       d="m 1612.429,677.3 h 3.2 v 4.36 h 0.08 c 1.64,-3.32 3.92,-4.959 7.6,-4.839 v 3.6 c -5.479,0 -7.479,3.12 -7.479,8.359 v 9.2 h -3.4 z"
       style="fill:#ffffff"
       id="path345" />
    <path
       d="m 1648.666,697.977 h -3.4 v -20.316 h -7.359 v -2.72 c 3.879,0 7.4,-1.04 8.158,-5.319 h 2.6 z"
       style="fill:#ffffff"
       id="path347" />
    <path
       d="m 1659.988,693.538 h 4.44 v 4.039 c 0,3 -1.321,5.4 -4.4,6.279 v -2 a 3.827,3.827 0 0 0 2.32,-3.879 h -2.36 z"
       style="fill:#ffffff"
       id="path349" />
    <path
       d="m 1676.508,681.78 c 0.519,0.04 1,0.04 1.479,0.04 2.88,0 5.4,-1.56 5.4,-4.64 0,-2.959 -2.16,-4.558 -5.039,-4.558 -3.72,0 -5.32,2.838 -5.36,6.158 h -3.4 c 0.2,-5.4 3.079,-9.158 8.759,-9.158 4.919,0 8.638,2.359 8.638,7.6 a 6.5,6.5 0 0 1 -3.92,5.64 v 0.08 c 3.44,0.76 5.12,3.479 5.12,6.879 0,5.679 -4.44,8.638 -9.758,8.638 -5.76,0 -9.559,-3.4 -9.439,-9.239 h 3.4 c 0.119,3.68 2.159,6.24 6.039,6.24 3.319,0 6.158,-2.041 6.158,-5.48 0,-3.559 -2.68,-5.438 -6.039,-5.438 a 16.916,16.916 0 0 0 -2.039,0.12 z"
       style="fill:#ffffff"
       id="path351" />
  </g>
  <g
     id="g373">
    <path
       d="m 1410.475,742.218 h 19.716 v 3.2 h -15.917 v 9.082 h 14.837 v 3.2 h -14.837 v 9.879 h 16.038 v 3.2 h -19.837 z m 10.118,-7.758 h 4.359 l -5.238,5.719 h -2.56 z"
       style="fill:#181716"
       id="path355" />
    <path
       d="m 1443.273,749.618 c 6.559,0 10.039,4.758 10.039,10.838 0,6.039 -3.48,10.8 -10.039,10.8 -6.559,0 -10.039,-4.758 -10.039,-10.8 0,-6.08 3.48,-10.838 10.039,-10.838 z m 0,18.636 c 3.559,0 6.439,-2.8 6.439,-7.8 0,-5.039 -2.88,-7.839 -6.439,-7.839 -3.559,0 -6.439,2.8 -6.439,7.839 0,5.001 2.88,7.8 6.439,7.8 z"
       style="fill:#181716"
       id="path357" />
    <path
       d="m 1457.515,742.218 h 3.4 v 28.556 h -3.4 z"
       style="fill:#181716"
       id="path359" />
    <path
       d="m 1469.793,746.378 h -3.4 v -4.16 h 3.4 z m -3.4,3.719 h 3.4 v 20.677 h -3.4 z"
       style="fill:#181716"
       id="path361" />
    <path
       d="m 1492.71,764.215 c -0.92,4.559 -4.2,7.038 -8.838,7.038 -6.6,0 -9.719,-4.558 -9.919,-10.878 0,-6.2 4.08,-10.757 9.719,-10.757 7.318,0 9.558,6.839 9.358,11.838 h -15.477 c -0.12,3.6 1.92,6.8 6.439,6.8 2.8,0 4.759,-1.359 5.359,-4.039 z m -3.279,-5.759 a 5.949,5.949 0 0 0 -5.959,-5.839 c -3.56,0 -5.679,2.679 -5.919,5.839 z"
       style="fill:#181716"
       id="path363" />
    <path
       d="m 1496.553,750.1 h 3.2 v 3.279 h 0.08 a 7.2,7.2 0 0 1 6.719,-3.758 c 5.439,0 7.119,3.119 7.119,7.558 v 13.6 h -3.4 v -14 a 3.9,3.9 0 0 0 -4.2,-4.159 c -4.119,0 -6.119,2.759 -6.119,6.479 v 11.678 h -3.4 z"
       style="fill:#181716"
       id="path365" />
    <path
       d="m 1541.591,770.774 h -3.4 v -20.316 h -7.358 v -2.72 c 3.879,0 7.4,-1.04 8.158,-5.32 h 2.6 z"
       style="fill:#181716"
       id="path367" />
    <path
       d="m 1552.912,766.334 h 4.44 v 4.04 c 0,3 -1.321,5.4 -4.4,6.279 v -2 a 3.825,3.825 0 0 0 2.319,-3.879 h -2.359 z"
       style="fill:#181716"
       id="path369" />
    <path
       d="m 1577.271,749.658 a 4.545,4.545 0 0 0 -4.76,-4.24 c -5.8,0 -6.719,6.4 -6.879,10.758 l 0.08,0.08 a 7.691,7.691 0 0 1 7.079,-3.719 c 5.438,0 8.679,3.96 8.679,9.2 0,4.119 -2.321,9.517 -9.479,9.517 -8.4,0 -9.759,-7.678 -9.759,-13.637 0,-7.8 2.36,-15.2 10.439,-15.2 4.679,0 7.6,2.64 8,7.24 z m -11,12.277 c 0,3.52 2.161,6.319 5.88,6.319 3.679,0 5.719,-2.92 5.719,-6.279 0,-3.519 -1.84,-6.438 -5.719,-6.438 -3.799,0 -5.88,2.839 -5.88,6.398 z"
       style="fill:#181716"
       id="path371" />
  </g>
  <g
     id="g393">
    <path
       d="m 1415.233,824.617 h 4.2 l 11.158,28.555 h -4.2 l -3.12,-8.6 h -12.078 l -3.2,8.6 h -3.92 z m -2.838,16.758 h 9.677 l -4.759,-13.319 h -0.08 z"
       style="fill:#ffffff"
       id="path375" />
    <path
       d="m 1449.952,853.172 h -3.2 v -3.279 h -0.08 a 7.2,7.2 0 0 1 -6.719,3.759 c -5.439,0 -7.119,-3.119 -7.119,-7.559 V 832.5 h 3.4 v 14 a 3.9,3.9 0 0 0 4.2,4.159 c 4.119,0 6.119,-2.76 6.119,-6.479 V 832.5 h 3.4 z"
       style="fill:#ffffff"
       id="path377" />
    <path
       d="m 1459.794,832.5 h 4.12 v 3 h -4.12 v 12.837 c 0,1.56 0.44,1.84 2.56,1.84 h 1.56 v 3 h -2.6 c -3.519,0 -4.919,-0.719 -4.919,-4.519 V 835.5 h -3.519 v -3 h 3.519 v -6.2 h 3.4 z"
       style="fill:#ffffff"
       id="path379" />
    <path
       d="m 1467.555,832.5 h 3.2 v 4.359 h 0.08 c 1.64,-3.319 3.92,-4.959 7.6,-4.839 v 3.6 c -5.479,0 -7.479,3.119 -7.479,8.358 v 9.2 h -3.4 z"
       style="fill:#ffffff"
       id="path381" />
    <path
       d="m 1497.951,846.614 c -0.92,4.558 -4.2,7.038 -8.838,7.038 -6.6,0 -9.718,-4.559 -9.919,-10.878 0,-6.2 4.08,-10.758 9.719,-10.758 7.318,0 9.559,6.839 9.358,11.838 h -15.477 c -0.12,3.6 1.92,6.8 6.439,6.8 2.8,0 4.759,-1.36 5.359,-4.039 z m -3.279,-5.76 a 5.95,5.95 0 0 0 -5.959,-5.839 c -3.56,0 -5.679,2.68 -5.919,5.839 z"
       style="fill:#ffffff"
       id="path383" />
    <path
       d="m 1503.874,846.654 c 0.119,3.039 2.759,4 5.559,4 2.12,0 5,-0.48 5,-3.079 0,-2.64 -3.36,-3.08 -6.759,-3.84 -3.36,-0.76 -6.759,-1.88 -6.759,-5.839 0,-4.159 4.119,-5.879 7.719,-5.879 4.559,0 8.2,1.44 8.478,6.479 h -3.4 c -0.24,-2.64 -2.56,-3.48 -4.8,-3.48 -2.04,0 -4.4,0.561 -4.4,2.64 0,2.439 3.6,2.84 6.758,3.6 3.4,0.76 6.759,1.88 6.759,5.879 0,4.919 -4.6,6.519 -8.8,6.519 -4.638,0 -8.558,-1.879 -8.757,-7 z"
       style="fill:#ffffff"
       id="path385" />
    <path
       d="m 1544.591,853.172 h -3.4 v -20.316 h -7.358 v -2.72 c 3.879,0 7.4,-1.04 8.158,-5.319 h 2.6 z"
       style="fill:#ffffff"
       id="path387" />
    <path
       d="m 1555.913,848.733 h 4.44 v 4.039 c 0,3 -1.321,5.4 -4.4,6.279 v -2 a 3.824,3.824 0 0 0 2.319,-3.879 h -2.359 z"
       style="fill:#ffffff"
       id="path389" />
    <path
       d="m 1569.073,846.333 c 0.239,2.76 2.48,4.32 5.2,4.32 4.16,0 6.2,-3.64 6.4,-10.958 l -0.08,-0.08 a 7.431,7.431 0 0 1 -6.559,3.919 c -5.759,0 -8.959,-3.879 -8.959,-9.479 0,-5.478 3.84,-9.238 9.319,-9.238 5.279,0 9.718,2.84 9.718,13.558 0,9.8 -2.959,15.277 -9.838,15.277 -4.759,0 -8.159,-2.44 -8.6,-7.319 z m 5.159,-18.516 c -4.04,0 -5.559,3.239 -5.559,6.719 a 5.808,5.808 0 0 0 5.6,6 c 3.559,0 5.8,-2.88 5.8,-6.24 0,-3.48 -2.042,-6.479 -5.841,-6.479 z"
       style="fill:#ffffff"
       id="path391" />
  </g>
  <g
     clip-path="url(#clip-path)"
     id="g409">
    <path
       d="M 636.681,558.059 614.017,990.515 C 375.177,978 191.705,774.235 204.225,535.4 a 440.549,440.549 0 0 1 12.264,-82.1 z"
       style="fill:#6398a7"
       id="path395" />
    <path
       d="m 636.681,558.059 v 433.056 c -9.328,0 -13.352,-0.112 -22.664,-0.6 z"
       style="fill:#8b61a3"
       id="path397" />
    <path
       d="m 636.681,558.059 67.744,427.72 a 414.938,414.938 0 0 1 -67.744,5.336 z"
       style="fill:#535656"
       id="path399" />
    <path
       d="M 636.681,558.059 1032.3,734.2 C 970.913,872.067 853.481,962.171 704.425,985.779 Z"
       style="fill:#c6c7ca"
       id="path401" />
    <path
       d="m 636.681,558.059 398.624,-169.208 c 48.128,113.384 47.088,232.824 -3.008,345.344 z"
       style="fill:#62ac36"
       id="path403" />
    <path
       d="M 636.681,558.059 216.489,453.291 c 57.864,-232.064 292.9,-373.28 524.96,-315.424 138.768,34.6 237.976,119.328 293.856,250.984 z"
       style="fill:#fbd51d"
       id="path405" />
    <path
       d="M 637.134,813.836 C 778.422,813.836 892.958,699.3 892.958,558 892.958,416.7 778.422,302.188 637.134,302.188 495.846,302.188 381.31,416.716 381.31,558 c 0,141.284 114.536,255.836 255.824,255.836"
       style="fill:#ffffff"
       id="path407" />
  </g>
  <g
     id="g433">
    <path
       d="m 541.517,177.062 h 4.039 l 15.038,23.157 h 0.08 v -23.157 h 3.6 v 28.556 h -4.159 L 545.2,182.7 h -0.08 v 22.916 h -3.6 z"
       style="fill:#181716"
       id="path411" />
    <path
       d="m 586.994,205.618 h -3.2 v -3.28 h -0.08 A 7.2,7.2 0 0 1 577,206.1 c -5.439,0 -7.119,-3.12 -7.119,-7.559 v -13.6 h 3.4 v 14 a 3.9,3.9 0 0 0 4.2,4.159 c 4.12,0 6.119,-2.76 6.119,-6.479 v -11.68 h 3.4 z"
       style="fill:#181716"
       id="path413" />
    <path
       d="m 606.154,191.58 a 4.813,4.813 0 0 0 -5.119,-4.119 c -4.919,0 -6.439,3.879 -6.439,8.079 0,3.8 1.719,7.558 6.039,7.558 3.279,0 5.239,-1.92 5.679,-5.039 h 3.479 c -0.76,5.039 -3.919,8.039 -9.118,8.039 -6.319,0 -9.678,-4.4 -9.678,-10.558 0,-6.2 3.2,-11.079 9.758,-11.079 4.679,0 8.438,2.2 8.918,7.119 z"
       style="fill:#181716"
       id="path415" />
    <path
       d="m 613.8,177.062 h 3.4 v 28.556 h -3.4 z"
       style="fill:#181716"
       id="path417" />
    <path
       d="m 640.113,199.059 c -0.92,4.559 -4.2,7.039 -8.839,7.039 -6.6,0 -9.718,-4.559 -9.918,-10.879 0,-6.2 4.079,-10.758 9.718,-10.758 7.319,0 9.558,6.839 9.359,11.838 h -15.478 c -0.12,3.6 1.92,6.8 6.439,6.8 2.8,0 4.759,-1.36 5.359,-4.039 z m -3.28,-5.759 a 5.949,5.949 0 0 0 -5.959,-5.839 c -3.559,0 -5.679,2.679 -5.919,5.839 z m -5.159,-16.917 h 4.359 l -5.239,5.719 h -2.56 z"
       style="fill:#181716"
       id="path419" />
    <path
       d="m 662.272,205.538 a 4.594,4.594 0 0 1 -2.439,0.56 c -1.76,0 -2.88,-0.96 -2.88,-3.2 a 9.174,9.174 0 0 1 -7.279,3.2 c -3.759,0 -6.839,-1.68 -6.839,-5.8 0,-4.679 3.479,-5.678 7,-6.359 3.759,-0.719 6.959,-0.48 6.959,-3.039 0,-2.96 -2.439,-3.439 -4.6,-3.439 -2.88,0 -5,0.879 -5.159,3.919 h -3.4 c 0.2,-5.119 4.159,-6.919 8.759,-6.919 3.719,0 7.758,0.84 7.758,5.679 v 10.638 c 0,1.6 0,2.32 1.08,2.32 a 2.919,2.919 0 0 0 1.04,-0.2 z m -5.519,-10.6 c -1.32,0.96 -3.879,1 -6.159,1.4 -2.24,0.4 -4.159,1.2 -4.159,3.72 0,2.239 1.919,3.039 4,3.039 4.479,0 6.319,-2.8 6.319,-4.679 z"
       style="fill:#181716"
       id="path421" />
    <path
       d="m 669.034,181.222 h -3.4 v -4.16 h 3.4 z m -3.4,3.719 h 3.4 v 20.677 h -3.4 z"
       style="fill:#181716"
       id="path423" />
    <path
       d="m 674.193,184.941 h 3.2 v 4.359 h 0.08 c 1.64,-3.319 3.919,-4.959 7.6,-4.839 v 3.6 c -5.479,0 -7.479,3.119 -7.479,8.358 v 9.2 h -3.4 z"
       style="fill:#181716"
       id="path425" />
    <path
       d="m 704.551,199.059 c -0.92,4.559 -4.2,7.039 -8.839,7.039 -6.6,0 -9.718,-4.559 -9.918,-10.879 0,-6.2 4.079,-10.758 9.718,-10.758 7.319,0 9.558,6.839 9.359,11.838 h -15.478 c -0.12,3.6 1.92,6.8 6.439,6.8 2.8,0 4.759,-1.36 5.359,-4.039 z m -3.28,-5.759 a 5.949,5.949 0 0 0 -5.959,-5.839 c -3.559,0 -5.679,2.679 -5.919,5.839 z"
       style="fill:#181716"
       id="path427" />
    <path
       d="m 713.872,181.582 4.279,-1.6 0.8,1.92 -4.359,1.519 2.639,3.64 -1.639,1.24 -2.759,-3.84 -2.6,3.84 -1.8,-1.24 2.6,-3.64 -4.24,-1.519 0.72,-1.92 4.239,1.6 v -4.52 h 2.12 z"
       style="fill:#181716"
       id="path429" />
    <path
       d="m 727.952,181.582 4.279,-1.6 0.8,1.92 -4.36,1.519 2.64,3.64 -1.64,1.24 -2.759,-3.84 -2.6,3.84 -1.8,-1.24 2.6,-3.64 -4.239,-1.519 0.72,-1.92 4.239,1.6 v -4.52 h 2.12 z"
       style="fill:#181716"
       id="path431" />
  </g>
  <g
     id="g443">
    <path
       d="m 614.035,243.979 h 3.839 v 3 h -3.839 v 6.639 h -3.2 v -6.639 H 598.4 V 243.7 l 12.918,-18.437 h 2.72 z m -3.2,0 V 230.1 h -0.08 l -9.438,13.877 z"
       style="fill:#181716"
       id="path435" />
    <path
       d="m 630.636,225.262 c 8.878,0 9.438,8.159 9.438,14.438 0,6.239 -0.56,14.4 -9.438,14.4 -8.878,0 -9.439,-8.159 -9.439,-14.4 0.003,-6.279 0.56,-14.438 9.439,-14.438 z m 0,25.836 c 5.8,0 5.839,-7.2 5.839,-11.438 0,-4.2 -0.04,-11.4 -5.839,-11.4 -5.799,0 -5.839,7.2 -5.839,11.4 0.003,4.24 0.04,11.44 5.839,11.44 z"
       style="fill:#181716"
       id="path437" />
    <path
       d="m 645.077,249.178 h 4.439 v 4.04 c 0,3 -1.32,5.4 -4.4,6.279 v -2 a 3.827,3.827 0 0 0 2.32,-3.879 h -2.36 z"
       style="fill:#181716"
       id="path439" />
    <path
       d="m 664,225.262 c 8.878,0 9.438,8.159 9.438,14.438 0,6.239 -0.56,14.4 -9.438,14.4 -8.878,0 -9.439,-8.159 -9.439,-14.4 -0.004,-6.279 0.556,-14.438 9.439,-14.438 z m 0,25.836 c 5.8,0 5.838,-7.2 5.838,-11.438 0,-4.2 -0.04,-11.4 -5.838,-11.4 -5.798,0 -5.839,7.2 -5.839,11.4 -0.004,4.24 0.039,11.44 5.839,11.44 z"
       style="fill:#181716"
       id="path441" />
  </g>
  <g
     id="g465">
    <path
       d="m 802.273,803.019 a 11.177,11.177 0 0 1 -9.159,4.239 c -8.518,0 -13.6,-6.959 -13.6,-14.4 0,-8.319 4.559,-15.518 13.6,-15.518 6.239,0 11.2,2.8 12.278,9.479 h -3.8 c -0.76,-4.32 -4.239,-6.279 -8.479,-6.279 -6.919,0 -9.8,6 -9.8,12.118 0,5.959 3.439,11.4 9.8,11.4 5.879,0 9.4,-4.119 9.159,-9.318 h -9.119 v -3.2 h 12.518 v 15.037 h -2.4 z"
       style="fill:#181716"
       id="path445" />
    <path
       d="m 829.033,806.5 a 4.586,4.586 0 0 1 -2.44,0.559 c -1.76,0 -2.879,-0.959 -2.879,-3.2 a 9.175,9.175 0 0 1 -7.279,3.2 c -3.76,0 -6.839,-1.68 -6.839,-5.8 0,-4.678 3.479,-5.678 7,-6.358 3.759,-0.72 6.959,-0.481 6.959,-3.04 0,-2.959 -2.44,-3.44 -4.6,-3.44 -2.88,0 -5,0.88 -5.16,3.92 h -3.4 c 0.2,-5.119 4.159,-6.919 8.758,-6.919 3.72,0 7.759,0.84 7.759,5.679 v 10.639 c 0,1.6 0,2.319 1.08,2.319 a 2.919,2.919 0 0 0 1.04,-0.2 z m -5.519,-10.6 c -1.32,0.959 -3.88,1 -6.16,1.4 -2.239,0.4 -4.159,1.2 -4.159,3.72 0,2.239 1.92,3.039 4,3.039 4.479,0 6.319,-2.8 6.319,-4.68 z"
       style="fill:#181716"
       id="path447" />
    <path
       d="M 830.516,803.979 842.994,788.9 h -11.679 v -3 h 16.078 v 2.32 l -12.638,15.36 h 13.2 v 3 h -17.439 z"
       style="fill:#181716"
       id="path449" />
    <path
       d="m 862.515,785.9 h 3.2 v 3.279 h 0.079 a 7.2,7.2 0 0 1 6.72,-3.759 c 5.439,0 7.118,3.12 7.118,7.559 v 13.6 h -3.4 v -14 a 3.9,3.9 0 0 0 -4.2,-4.16 c -4.12,0 -6.119,2.76 -6.119,6.48 v 11.678 h -3.4 z"
       style="fill:#181716"
       id="path451" />
    <path
       d="m 903.072,806.5 a 4.585,4.585 0 0 1 -2.439,0.559 c -1.76,0 -2.88,-0.959 -2.88,-3.2 a 9.172,9.172 0 0 1 -7.278,3.2 c -3.76,0 -6.839,-1.68 -6.839,-5.8 0,-4.678 3.479,-5.678 7,-6.358 3.76,-0.72 6.959,-0.481 6.959,-3.04 0,-2.959 -2.439,-3.44 -4.6,-3.44 -2.88,0 -5,0.88 -5.159,3.92 h -3.4 c 0.2,-5.119 4.159,-6.919 8.758,-6.919 3.719,0 7.759,0.84 7.759,5.679 v 10.639 c 0,1.6 0,2.319 1.079,2.319 a 2.919,2.919 0 0 0 1.04,-0.2 z m -5.519,-10.6 c -1.32,0.959 -3.879,1 -6.159,1.4 -2.239,0.4 -4.159,1.2 -4.159,3.72 0,2.239 1.92,3.039 4,3.039 4.479,0 6.319,-2.8 6.319,-4.68 z"
       style="fill:#181716"
       id="path453" />
    <path
       d="m 910.954,785.9 h 4.119 v 3 h -4.119 v 12.84 c 0,1.559 0.44,1.84 2.56,1.84 h 1.559 v 3 h -2.6 c -3.519,0 -4.919,-0.72 -4.919,-4.52 V 788.9 h -3.52 v -3 h 3.52 v -6.2 h 3.4 z"
       style="fill:#181716"
       id="path455" />
    <path
       d="m 935.951,806.579 h -3.2 V 803.3 h -0.079 a 7.2,7.2 0 0 1 -6.719,3.759 c -5.439,0 -7.119,-3.119 -7.119,-7.558 V 785.9 h 3.4 v 14 a 3.9,3.9 0 0 0 4.2,4.159 c 4.119,0 6.119,-2.76 6.119,-6.478 V 785.9 h 3.4 z"
       style="fill:#181716"
       id="path457" />
    <path
       d="m 940.954,785.9 h 3.2 v 4.359 h 0.08 c 1.64,-3.319 3.919,-4.959 7.6,-4.839 v 3.6 c -5.479,0 -7.479,3.119 -7.479,8.358 v 9.2 h -3.4 z"
       style="fill:#181716"
       id="path459" />
    <path
       d="m 971.352,800.02 c -0.921,4.559 -4.2,7.038 -8.84,7.038 -6.6,0 -9.718,-4.558 -9.918,-10.878 0,-6.2 4.079,-10.758 9.718,-10.758 7.319,0 9.559,6.839 9.359,11.838 h -15.478 c -0.12,3.6 1.92,6.8 6.439,6.8 2.8,0 4.76,-1.359 5.36,-4.039 z m -3.281,-5.76 a 5.949,5.949 0 0 0 -5.959,-5.839 c -3.559,0 -5.678,2.68 -5.919,5.839 z"
       style="fill:#181716"
       id="path461" />
    <path
       d="m 975.394,778.023 h 3.4 v 28.556 h -3.4 z"
       style="fill:#181716"
       id="path463" />
  </g>
  <g
     id="g475">
    <path
       d="m 854.957,854.579 h -3.4 V 834.262 H 844.2 v -2.72 c 3.88,0 7.4,-1.04 8.159,-5.319 h 2.6 z"
       style="fill:#181716"
       id="path467" />
    <path
       d="m 881.756,829.7 h -11.438 l -1.52,8.159 0.08,0.08 a 7.173,7.173 0 0 1 5.279,-2.04 c 5.039,0 9.158,3.239 9.158,9.718 0,4.8 -3.319,9.438 -9.918,9.438 -4.919,0 -8.918,-3 -9.038,-8.118 h 3.4 c 0.2,2.92 2.56,5.119 5.959,5.119 3.24,0 6,-2.2 6,-6.719 a 6.141,6.141 0 0 0 -6.4,-6.439 6.806,6.806 0 0 0 -5.279,2.68 l -2.919,-0.161 2.639,-14.716 h 14 z"
       style="fill:#181716"
       id="path469" />
    <path
       d="m 888.518,850.139 h 4.44 v 4.039 c 0,3 -1.32,5.4 -4.4,6.28 v -2 a 3.827,3.827 0 0 0 2.32,-3.879 h -2.36 z"
       style="fill:#181716"
       id="path471" />
    <path
       d="m 907.237,826.223 c 6.2,0 8.6,3.64 8.6,7.239 a 6.564,6.564 0 0 1 -3.919,5.879 c 3.4,1.08 5.04,3.56 5.04,7.079 0,5.479 -4.16,8.638 -9.4,8.638 -5.439,0 -9.639,-2.839 -9.639,-8.638 a 7.157,7.157 0 0 1 4.96,-7.079 6.409,6.409 0 0 1 -3.96,-5.879 c -10e-4,-4.679 3.959,-7.239 8.318,-7.239 z m 0.32,25.836 a 5.477,5.477 0 0 0 5.8,-5.519 5.584,5.584 0 0 0 -5.839,-5.4 c -3.359,0 -6,2.159 -6,5.439 0,3.4 2.52,5.48 6.039,5.48 z m 0,-13.918 a 4.355,4.355 0 0 0 4.679,-4.558 c 0,-2.84 -2,-4.36 -4.759,-4.36 -2.72,0 -4.959,1.52 -4.959,4.36 0,3.117 2.239,4.558 5.039,4.558 z"
       style="fill:#181716"
       id="path473" />
  </g>
  <g
     id="g485">
    <path
       d="m 938.6,505.906 h 19.716 v 3.2 H 942.4 v 9.079 h 14.837 v 3.2 H 942.4 v 9.878 h 16.037 v 3.2 H 938.6 Z"
       style="fill:#ffffff"
       id="path477" />
    <path
       d="m 962.476,513.785 h 3.2 v 3.279 h 0.08 a 7.2,7.2 0 0 1 6.719,-3.759 c 5.439,0 7.119,3.119 7.119,7.559 v 13.6 h -3.4 v -14 a 3.9,3.9 0 0 0 -4.2,-4.159 c -4.119,0 -6.119,2.759 -6.119,6.478 v 11.678 h -3.4 z"
       style="fill:#ffffff"
       id="path479" />
    <path
       d="m 985.275,505.906 h 13.439 c 5.358,0 8.678,2.92 8.678,7.479 0,3.439 -1.52,6.279 -4.959,7.239 v 0.08 c 3.319,0.64 4,3.079 4.279,5.879 0.24,2.8 0.08,5.919 1.68,7.878 h -4.24 c -1.08,-1.159 -0.479,-4.239 -1.04,-7.039 -0.4,-2.8 -1.079,-5.158 -4.758,-5.158 h -9.279 v 12.2 h -3.8 z m 11.719,13.158 c 3.559,0 6.6,-0.92 6.6,-5.079 0,-2.8 -1.52,-4.88 -5.079,-4.88 h -9.439 v 9.959 z"
       style="fill:#ffffff"
       id="path481" />
    <path
       d="m 1017.6,510.425 4.279,-1.6 0.8,1.92 -4.36,1.519 2.64,3.64 -1.64,1.24 -2.759,-3.84 -2.6,3.84 -1.8,-1.24 2.6,-3.64 -4.239,-1.519 0.719,-1.92 4.24,1.6 v -4.519 h 2.12 z"
       style="fill:#ffffff"
       id="path483" />
  </g>
  <g
     id="g495">
    <path
       d="m 954.875,582.461 h -3.4 v -20.316 h -7.359 v -2.72 c 3.88,0 7.4,-1.04 8.159,-5.319 h 2.6 z"
       style="fill:#ffffff"
       id="path487" />
    <path
       d="m 964.637,564.145 c -0.28,-5.76 3.119,-10.039 9.118,-10.039 4.959,0 8.879,2.88 8.879,8.159 0,5 -3.36,7.519 -6.879,9.718 -3.56,2.16 -7.279,3.959 -7.959,7.479 h 14.558 v 3 h -18.517 c 0.559,-6.718 3.959,-9.118 7.959,-11.6 4.8,-2.959 7.238,-4.719 7.238,-8.638 a 5.167,5.167 0 0 0 -5.479,-5.12 c -3.959,0 -5.639,3.64 -5.519,7.04 z"
       style="fill:#ffffff"
       id="path489" />
    <path
       d="m 988.437,578.022 h 4.439 v 4.04 c 0,3 -1.32,5.4 -4.4,6.278 v -2 a 3.826,3.826 0 0 0 2.319,-3.879 h -2.359 z"
       style="fill:#ffffff"
       id="path491" />
    <path
       d="m 1001.6,575.623 c 0.239,2.759 2.479,4.319 5.2,4.319 4.159,0 6.2,-3.64 6.4,-10.958 l -0.08,-0.08 a 7.431,7.431 0 0 1 -6.558,3.919 c -5.759,0 -8.959,-3.879 -8.959,-9.478 0,-5.479 3.84,-9.239 9.318,-9.239 5.279,0 9.719,2.84 9.719,13.558 0,9.8 -2.959,15.277 -9.838,15.277 -4.76,0 -8.159,-2.439 -8.6,-7.318 z m 5.159,-18.518 c -4.04,0 -5.56,3.24 -5.56,6.72 a 5.809,5.809 0 0 0 5.6,6 c 3.559,0 5.8,-2.88 5.8,-6.24 0,-3.48 -2.045,-6.48 -5.844,-6.48 z"
       style="fill:#ffffff"
       id="path493" />
  </g>
  <g
     id="g511">
    <path
       d="m 306.518,739.468 h 12.518 c 5.679,0 8.758,3.16 8.758,8.44 0,5.28 -3.079,8.478 -8.758,8.438 h -8.719 v 11.678 h -3.8 z m 3.8,13.678 h 7.439 c 4.279,0.04 6.239,-1.839 6.239,-5.238 0,-3.399 -1.96,-5.24 -6.239,-5.24 h -7.439 z"
       style="fill:#ffffff"
       id="path497" />
    <path
       d="m 349.515,761.465 c -0.92,4.559 -4.2,7.038 -8.839,7.038 -6.6,0 -9.718,-4.558 -9.918,-10.878 0,-6.2 4.079,-10.757 9.719,-10.757 7.318,0 9.558,6.839 9.358,11.838 h -15.478 c -0.12,3.6 1.92,6.8 6.439,6.8 2.8,0 4.76,-1.359 5.36,-4.039 z m -3.28,-5.759 a 5.948,5.948 0 0 0 -5.959,-5.839 c -3.559,0 -5.678,2.679 -5.919,5.839 z m -5.159,-16.917 h 4.36 l -5.24,5.719 h -2.559 z"
       style="fill:#ffffff"
       id="path499" />
    <path
       d="m 358.077,747.347 h 4.123 v 3 h -4.119 v 12.838 c 0,1.56 0.44,1.84 2.559,1.84 h 1.56 v 3 h -2.6 c -3.519,0 -4.919,-0.72 -4.919,-4.52 v -13.158 h -3.519 v -3 h 3.519 v -6.2 h 3.4 z"
       style="fill:#ffffff"
       id="path501" />
    <path
       d="m 365.837,747.347 h 3.2 v 4.36 h 0.08 c 1.639,-3.32 3.919,-4.959 7.6,-4.839 v 3.6 c -5.479,0 -7.479,3.119 -7.479,8.359 v 9.2 h -3.4 z"
       style="fill:#ffffff"
       id="path503" />
    <path
       d="m 387.475,746.868 c 6.559,0 10.039,4.758 10.039,10.838 0,6.039 -3.48,10.8 -10.039,10.8 -6.559,0 -10.038,-4.758 -10.038,-10.8 0,-6.08 3.479,-10.838 10.038,-10.838 z m 0,18.636 c 3.56,0 6.439,-2.8 6.439,-7.8 0,-5.039 -2.879,-7.839 -6.439,-7.839 -3.56,0 -6.439,2.8 -6.439,7.839 0,5.001 2.88,7.796 6.439,7.796 z"
       style="fill:#ffffff"
       id="path505" />
    <path
       d="m 401.716,739.468 h 3.4 v 28.556 h -3.4 z"
       style="fill:#ffffff"
       id="path507" />
    <path
       d="m 428.033,761.465 c -0.92,4.559 -4.2,7.038 -8.839,7.038 -6.6,0 -9.718,-4.558 -9.918,-10.878 0,-6.2 4.079,-10.757 9.718,-10.757 7.319,0 9.558,6.839 9.359,11.838 h -15.478 c -0.12,3.6 1.92,6.8 6.439,6.8 2.8,0 4.759,-1.359 5.359,-4.039 z m -3.28,-5.759 a 5.949,5.949 0 0 0 -5.959,-5.839 c -3.559,0 -5.679,2.679 -5.919,5.839 z"
       style="fill:#ffffff"
       id="path509" />
  </g>
  <g
     id="g521">
    <path
       d="m 329.2,797.707 c -0.28,-5.759 3.12,-10.039 9.118,-10.039 4.96,0 8.879,2.88 8.879,8.16 0,5 -3.359,7.518 -6.879,9.717 -3.559,2.161 -7.278,3.96 -7.959,7.48 h 14.558 v 3 H 328.4 c 0.56,-6.719 3.959,-9.118 7.959,-11.6 4.8,-2.96 7.239,-4.719 7.239,-8.638 a 5.167,5.167 0 0 0 -5.479,-5.12 c -3.96,0 -5.639,3.639 -5.519,7.039 z"
       style="fill:#ffffff"
       id="path513" />
    <path
       d="m 360.6,787.668 c 6.2,0 8.6,3.64 8.6,7.24 a 6.565,6.565 0 0 1 -3.919,5.879 c 3.4,1.08 5.039,3.559 5.039,7.079 0,5.478 -4.159,8.637 -9.4,8.637 -5.439,0 -9.639,-2.838 -9.639,-8.637 a 7.156,7.156 0 0 1 4.96,-7.079 6.41,6.41 0 0 1 -3.96,-5.879 c -0.004,-4.68 3.956,-7.24 8.319,-7.24 z m 0.32,25.836 a 5.478,5.478 0 0 0 5.8,-5.519 5.585,5.585 0 0 0 -5.839,-5.4 c -3.359,0 -6,2.16 -6,5.439 -0.004,3.4 2.519,5.476 6.035,5.476 z m 0,-13.918 a 4.354,4.354 0 0 0 4.679,-4.558 c 0,-2.84 -2,-4.36 -4.759,-4.36 -2.72,0 -4.96,1.52 -4.96,4.36 -0.004,3.119 2.236,4.558 5.036,4.558 z"
       style="fill:#ffffff"
       id="path515" />
    <path
       d="m 375.237,811.584 h 4.439 v 4.04 c 0,3 -1.32,5.4 -4.4,6.279 v -2 a 3.827,3.827 0 0 0 2.32,-3.879 h -2.36 z"
       style="fill:#ffffff"
       id="path517" />
    <path
       d="m 397.275,816.024 h -3.4 v -20.316 h -7.359 v -2.72 c 3.879,0 7.4,-1.04 8.159,-5.32 h 2.6 z"
       style="fill:#ffffff"
       id="path519" />
  </g>
</svg>
