<?xml version="1.0" encoding="UTF-8" standalone="no"?>
<!-- Created with Inkscape (http://www.inkscape.org/) -->

<svg
   xmlns:dc="http://purl.org/dc/elements/1.1/"
   xmlns:cc="http://creativecommons.org/ns#"
   xmlns:rdf="http://www.w3.org/1999/02/22-rdf-syntax-ns#"
   xmlns:svg="http://www.w3.org/2000/svg"
   xmlns="http://www.w3.org/2000/svg"
   xmlns:sodipodi="http://sodipodi.sourceforge.net/DTD/sodipodi-0.dtd"
   xmlns:inkscape="http://www.inkscape.org/namespaces/inkscape"
   version="1.1"
   id="svg2"
   xml:space="preserve"
   width="607.98749"
   height="682.6665"
   viewBox="0 0 607.98751 682.6665"
   sodipodi:docname="Maxpid.svg"
   inkscape:version="0.92.3 (2405546, 2018-03-11)"><metadata
     id="metadata8"><rdf:RDF><cc:Work
         rdf:about=""><dc:format>image/svg+xml</dc:format><dc:type
           rdf:resource="http://purl.org/dc/dcmitype/StillImage" /><dc:title></dc:title></cc:Work></rdf:RDF></metadata><defs
     id="defs6"><clipPath
       clipPathUnits="userSpaceOnUse"
       id="clipPath18"><path
         d="M 0,0 H 960 V 540 H 0 Z"
         id="path16"
         inkscape:connector-curvature="0"
         style="clip-rule:evenodd" /></clipPath></defs><sodipodi:namedview
     pagecolor="#ffffff"
     bordercolor="#666666"
     borderopacity="1"
     objecttolerance="10"
     gridtolerance="10"
     guidetolerance="10"
     inkscape:pageopacity="0"
     inkscape:pageshadow="2"
     inkscape:window-width="3110"
     inkscape:window-height="1697"
     id="namedview4"
     showgrid="false"
     fit-margin-top="0"
     fit-margin-left="0"
     fit-margin-right="0"
     fit-margin-bottom="0"
     inkscape:zoom="0.32779498"
     inkscape:cx="287.97494"
     inkscape:cy="342.24762"
     inkscape:window-x="90"
     inkscape:window-y="55"
     inkscape:window-maximized="1"
     inkscape:current-layer="g10" /><g
     id="g10"
     inkscape:groupmode="layer"
     inkscape:label="Maxpid"
     transform="matrix(1.3333333,0,0,-1.3333333,-352.01249,700.39998)"><g
       id="g24"><path
         d="m 639.4,310.3 0.2,-1.1 0.3,-1.3 0.2,-1.2 0.2,-1.3 0.1,-1.2 0.1,-1.2 0.2,-1.3 v -1.3 l 0.1,-1.2 v -1.3"
         style="fill:none;stroke:#ed7d31;stroke-width:0.99049997;stroke-linecap:butt;stroke-linejoin:miter;stroke-miterlimit:10;stroke-dasharray:none;stroke-opacity:1"
         id="path26"
         inkscape:connector-curvature="0" /></g><path
       d="m 637.7,316.5 5,-5.1 -0.6,-0.9 -3.2,3.5 1.1,-4.1 -1,-0.3 -1.1,4.1 -1,-4.7 -0.9,0.6 z"
       style="fill:#ed7d31;fill-opacity:1;fill-rule:evenodd;stroke:none"
       id="path28"
       inkscape:connector-curvature="0" /><g
       id="g30"><path
         d="m 298.1,219.3 -23.6,88.9"
         style="fill:none;stroke:#000000;stroke-width:0.99049997;stroke-linecap:butt;stroke-linejoin:miter;stroke-miterlimit:7.66129017;stroke-dasharray:none;stroke-opacity:1"
         id="path32"
         inkscape:connector-curvature="0" /></g><g
       id="g34"><path
         d="M 298.1,219.3 Z"
         style="fill:none;stroke:#000000;stroke-width:0.99049997;stroke-linecap:butt;stroke-linejoin:miter;stroke-miterlimit:7.66129017;stroke-dasharray:none;stroke-opacity:1"
         id="path36"
         inkscape:connector-curvature="0" /></g><g
       id="g38"><path
         d="M 274.5,308.2 Z"
         style="fill:none;stroke:#000000;stroke-width:0.99049997;stroke-linecap:butt;stroke-linejoin:miter;stroke-miterlimit:7.66129017;stroke-dasharray:none;stroke-opacity:1"
         id="path40"
         inkscape:connector-curvature="0" /></g><g
       id="g42"><path
         d="M 286.2,295.7 557.3,370"
         style="fill:none;stroke:#000000;stroke-width:0.99049997;stroke-linecap:butt;stroke-linejoin:miter;stroke-miterlimit:10;stroke-dasharray:none;stroke-opacity:1"
         id="path44"
         inkscape:connector-curvature="0" /></g><path
       d="m 279.9,294 5.1,5 0.9,-0.5 -3.5,-3.3 4.1,1.1 0.3,-0.9 -4.1,-1.2 4.6,-1 -0.5,-0.9 z"
       style="fill:#000000;fill-opacity:1;fill-rule:evenodd;stroke:none"
       id="path46"
       inkscape:connector-curvature="0" /><path
       d="m 563.6,371.7 -5,-5 -1,0.5 3.5,3.3 -4.1,-1.2 -0.2,1 4.1,1.1 -4.7,1.1 0.5,0.9 z"
       style="fill:#000000;fill-opacity:1;fill-rule:evenodd;stroke:none"
       id="path48"
       inkscape:connector-curvature="0" /><g
       id="g50"><path
         d="m 583.4,299.6 -23.6,88.8"
         style="fill:none;stroke:#000000;stroke-width:0.99049997;stroke-linecap:butt;stroke-linejoin:miter;stroke-miterlimit:7.66129017;stroke-dasharray:none;stroke-opacity:1"
         id="path52"
         inkscape:connector-curvature="0" /></g><g
       id="g54"><path
         d="M 583.4,299.6 Z"
         style="fill:none;stroke:#000000;stroke-width:0.99049997;stroke-linecap:butt;stroke-linejoin:miter;stroke-miterlimit:7.66129017;stroke-dasharray:none;stroke-opacity:1"
         id="path56"
         inkscape:connector-curvature="0" /></g><g
       id="g58"><path
         d="M 559.8,388.4 Z"
         style="fill:none;stroke:#000000;stroke-width:0.99049997;stroke-linecap:butt;stroke-linejoin:miter;stroke-miterlimit:7.66129017;stroke-dasharray:none;stroke-opacity:1"
         id="path60"
         inkscape:connector-curvature="0" /></g><g
       id="g62"><path
         d="M 584.2,298.4 H 714.4"
         style="fill:none;stroke:#000000;stroke-width:0.99049997;stroke-linecap:butt;stroke-linejoin:miter;stroke-miterlimit:10;stroke-dasharray:none;stroke-opacity:1"
         id="path64"
         inkscape:connector-curvature="0" /></g><path
       d="m 720,298.4 -6,-3 v 5.9 z"
       style="fill:#000000;fill-opacity:1;fill-rule:evenodd;stroke:none"
       id="path66"
       inkscape:connector-curvature="0" /><g
       id="g68"><path
         d="M 505.1,34.8 649.8,520"
         style="fill:none;stroke:#4472c4;stroke-width:0.99049997;stroke-linecap:butt;stroke-linejoin:miter;stroke-miterlimit:10;stroke-dasharray:none;stroke-opacity:1"
         id="path70"
         inkscape:connector-curvature="0" /></g><path
       d="m 651.4,525.3 1.1,-6.5 -5.7,1.7 z"
       style="fill:#4472c4;fill-opacity:1;fill-rule:evenodd;stroke:none"
       id="path72"
       inkscape:connector-curvature="0" /><g
       id="g74"><path
         d="M 298.1,36 V 346.5"
         style="fill:none;stroke:#000000;stroke-width:0.99049997;stroke-linecap:butt;stroke-linejoin:miter;stroke-miterlimit:10;stroke-dasharray:none;stroke-opacity:1"
         id="path76"
         inkscape:connector-curvature="0" /></g><path
       d="m 298.1,352 3,-5.9 h -5.9 z"
       style="fill:#000000;fill-opacity:1;fill-rule:evenodd;stroke:none"
       id="path78"
       inkscape:connector-curvature="0" /><g
       id="g80"><path
         d="M 297.7,34.8 H 655.9"
         style="fill:none;stroke:#000000;stroke-width:0.99049997;stroke-linecap:butt;stroke-linejoin:miter;stroke-miterlimit:10;stroke-dasharray:none;stroke-opacity:1"
         id="path82"
         inkscape:connector-curvature="0" /></g><path
       d="m 661.5,34.8 -6,-3 v 6 z"
       style="fill:#000000;fill-opacity:1;fill-rule:evenodd;stroke:none"
       id="path84"
       inkscape:connector-curvature="0" /><g
       id="g86"><path
         d="m 530.1,84.9 2.2,-1.4 2.6,-1.6 2.4,-1.8 2.3,-2 2.2,-2 2.1,-2.2 2.1,-2.3 1.8,-2.3 1.8,-2.5 1.5,-2.6 1.5,-2.6 1.3,-2.7 1.2,-2.8 1.1,-2.9 0.8,-2.9 0.7,-2.9 0.6,-3 0.4,-3 0.2,-3 0.1,-3"
         style="fill:none;stroke:#4472c4;stroke-width:0.99049997;stroke-linecap:butt;stroke-linejoin:miter;stroke-miterlimit:10;stroke-dasharray:none;stroke-opacity:1"
         id="path88"
         inkscape:connector-curvature="0" /></g><path
       d="m 524.3,87.7 7.1,0.4 0.3,-1 -4.7,-0.1 3.7,-1.9 -0.4,-0.9 -3.8,1.9 2.8,-3.9 -1,-0.4 z"
       style="fill:#4472c4;fill-opacity:1;fill-rule:evenodd;stroke:none"
       id="path90"
       inkscape:connector-curvature="0" /><g
       id="g92"><path
         d="M 298.3,221.7 710.1,334.4"
         style="fill:none;stroke:#ed7d31;stroke-width:0.99049997;stroke-linecap:butt;stroke-linejoin:miter;stroke-miterlimit:10;stroke-dasharray:none;stroke-opacity:1"
         id="path94"
         inkscape:connector-curvature="0" /></g><path
       d="m 715.5,335.8 -5,-4.4 -1.5,5.7 z"
       style="fill:#ed7d31;fill-opacity:1;fill-rule:evenodd;stroke:none"
       id="path96"
       inkscape:connector-curvature="0" /><g
       id="g98"><path
         d="M 298.2,34.5 H 487.4"
         style="fill:none;stroke:#000000;stroke-width:2.99979997;stroke-linecap:butt;stroke-linejoin:miter;stroke-miterlimit:7.66129017;stroke-dasharray:none;stroke-opacity:1"
         id="path100"
         inkscape:connector-curvature="0" /></g><g
       id="g102"><path
         d="m 297.6,33.7 0.1,166.6"
         style="fill:none;stroke:#000000;stroke-width:2.99979997;stroke-linecap:butt;stroke-linejoin:miter;stroke-miterlimit:7.66129017;stroke-dasharray:none;stroke-opacity:1"
         id="path104"
         inkscape:connector-curvature="0" /></g><g
       id="g106"><path
         d="M 505.1,33.7 642.7,496"
         style="fill:none;stroke:#4472c4;stroke-width:2.99979997;stroke-linecap:butt;stroke-linejoin:miter;stroke-miterlimit:7.66129017;stroke-dasharray:none;stroke-opacity:1"
         id="path108"
         inkscape:connector-curvature="0" /></g><path
       d="m 563.4,298.5 v 0 1 l 0.1,1 0.2,1.1 0.1,1 0.3,1 0.3,1 0.3,1 0.4,0.9 0.5,0.9 0.5,1 0.5,0.8 0.6,0.9 0.6,0.8 0.7,0.8 0.7,0.7 0.8,0.8 0.7,0.6 0.8,0.7 0.9,0.6 0.9,0.5 0.9,0.5 0.9,0.4 1,0.4 1,0.4 1,0.3 1,0.2 1,0.2 1,0.1 1.1,0.1 h 1 v 0 h 1 l 1,-0.1 1.1,-0.1 1,-0.2 1,-0.2 1,-0.3 1,-0.4 0.9,-0.4 0.9,-0.4 1,-0.5 0.8,-0.5 0.9,-0.6 0.8,-0.7 0.8,-0.6 0.7,-0.8 0.8,-0.7 0.6,-0.8 0.7,-0.8 0.6,-0.9 0.5,-0.9 0.5,-0.9 0.4,-0.9 0.4,-0.9 0.4,-1 0.2,-1 0.3,-1 0.2,-1 0.1,-1.1 0.1,-1 v -1 0 -1 l -0.1,-1.1 -0.2,-1 -0.1,-1 -0.3,-1 -0.3,-1 -0.3,-1 -0.4,-0.9 -0.5,-1 -0.4,-0.9 -0.6,-0.9 -0.6,-0.8 -0.6,-0.8 -0.7,-0.8 -0.7,-0.8 -0.7,-0.7 -0.8,-0.7 -0.8,-0.6 -0.9,-0.6 -0.9,-0.5 -0.9,-0.5 -0.9,-0.5 -1,-0.4 -0.9,-0.3 -1,-0.3 -1,-0.3 -1,-0.1 -1.1,-0.2 -1,-0.1 h -1 v 0 l -1,0.1 -1.1,0.1 -1,0.1 -1,0.2 -1,0.2 -1,0.3 -1,0.3 -1,0.4 -0.9,0.5 -0.9,0.5 -0.9,0.5 -0.8,0.6 -0.8,0.6 -0.8,0.7 -0.8,0.7 -0.7,0.8 -0.7,0.8 -0.6,0.8 -0.6,0.8 -0.5,0.9 -0.5,0.9 -0.5,1 -0.4,0.9 -0.3,1 -0.3,1 -0.3,1 -0.1,1 -0.2,1 -0.1,1.1 z m 0,19.7 z M 603,278.7 Z"
       style="fill:#ffffff;fill-opacity:1;fill-rule:evenodd;stroke:none"
       id="path110"
       inkscape:connector-curvature="0" /><g
       id="g112"><path
         d="m 563.4,298.5 v 0 1 l 0.1,1 0.2,1.1 0.1,1 0.3,1 0.3,1 0.3,1 0.4,0.9 0.5,0.9 0.5,1 0.5,0.8 0.6,0.9 0.6,0.8 0.7,0.8 0.7,0.7 0.8,0.8 0.7,0.6 0.8,0.7 0.9,0.6 0.9,0.5 0.9,0.5 0.9,0.4 1,0.4 1,0.4 1,0.3 1,0.2 1,0.2 1,0.1 1.1,0.1 h 1 v 0 h 1 l 1,-0.1 1.1,-0.1 1,-0.2 1,-0.2 1,-0.3 1,-0.4 0.9,-0.4 0.9,-0.4 1,-0.5 0.8,-0.5 0.9,-0.6 0.8,-0.7 0.8,-0.6 0.7,-0.8 0.8,-0.7 0.6,-0.8 0.7,-0.8 0.6,-0.9 0.5,-0.9 0.5,-0.9 0.4,-0.9 0.4,-0.9 0.4,-1 0.2,-1 0.3,-1 0.2,-1 0.1,-1.1 0.1,-1 v -1 0 -1 l -0.1,-1.1 -0.2,-1 -0.1,-1 -0.3,-1 -0.3,-1 -0.3,-1 -0.4,-0.9 -0.5,-1 -0.4,-0.9 -0.6,-0.9 -0.6,-0.8 -0.6,-0.8 -0.7,-0.8 -0.7,-0.8 -0.7,-0.7 -0.8,-0.7 -0.8,-0.6 -0.9,-0.6 -0.9,-0.5 -0.9,-0.5 -0.9,-0.5 -1,-0.4 -0.9,-0.3 -1,-0.3 -1,-0.3 -1,-0.1 -1.1,-0.2 -1,-0.1 h -1 v 0 l -1,0.1 -1.1,0.1 -1,0.1 -1,0.2 -1,0.2 -1,0.3 -1,0.3 -1,0.4 -0.9,0.5 -0.9,0.5 -0.9,0.5 -0.8,0.6 -0.8,0.6 -0.8,0.7 -0.8,0.7 -0.7,0.8 -0.7,0.8 -0.6,0.8 -0.6,0.8 -0.5,0.9 -0.5,0.9 -0.5,1 -0.4,0.9 -0.3,1 -0.3,1 -0.3,1 -0.1,1 -0.2,1 -0.1,1.1 z"
         style="fill:none;stroke:#7030a0;stroke-width:2.99979997;stroke-linecap:butt;stroke-linejoin:miter;stroke-miterlimit:7.66129017;stroke-dasharray:none;stroke-opacity:1"
         id="path114"
         inkscape:connector-curvature="0" /></g><g
       id="g116"><path
         d="M 563.4,318.2 Z"
         style="fill:none;stroke:#7030a0;stroke-width:2.99979997;stroke-linecap:butt;stroke-linejoin:miter;stroke-miterlimit:7.66129017;stroke-dasharray:none;stroke-opacity:1"
         id="path118"
         inkscape:connector-curvature="0" /></g><g
       id="g120"><path
         d="M 603,278.7 Z"
         style="fill:none;stroke:#7030a0;stroke-width:2.99979997;stroke-linecap:butt;stroke-linejoin:miter;stroke-miterlimit:7.66129017;stroke-dasharray:none;stroke-opacity:1"
         id="path122"
         inkscape:connector-curvature="0" /></g><path
       d="m 622.2,429.2 -62.2,18 14.4,49.4 124.3,-36 -14.4,-49.5 z"
       style="fill:#5b9bd5;fill-opacity:1;fill-rule:evenodd;stroke:none"
       id="path124"
       inkscape:connector-curvature="0" /><g
       id="g126"><path
         d="m 622.2,429.2 -62.2,18 14.4,49.4 124.3,-36 -14.4,-49.5 z"
         style="fill:none;stroke:#4472c4;stroke-width:2.99979997;stroke-linecap:butt;stroke-linejoin:miter;stroke-miterlimit:7.66129017;stroke-dasharray:none;stroke-opacity:1"
         id="path128"
         inkscape:connector-curvature="0" /></g><g
       id="g130"><path
         d="M 381.4,275.5 319.8,259"
         style="fill:none;stroke:#70ad47;stroke-width:2.99979997;stroke-linecap:butt;stroke-linejoin:miter;stroke-miterlimit:7.66129017;stroke-dasharray:none;stroke-opacity:1"
         id="path132"
         inkscape:connector-curvature="0" /></g><g
       id="g134"><path
         d="m 328.1,229.6 -7.9,30"
         style="fill:none;stroke:#70ad47;stroke-width:2.99979997;stroke-linecap:butt;stroke-linejoin:miter;stroke-miterlimit:7.66129017;stroke-dasharray:none;stroke-opacity:1"
         id="path136"
         inkscape:connector-curvature="0" /></g><path
       d="m 391.6,230 -35.1,-9.5 -8.2,30.5 70.2,18.9 8.3,-30.5 z"
       style="fill:#ffffff;fill-opacity:1;fill-rule:evenodd;stroke:none"
       id="path138"
       inkscape:connector-curvature="0" /><g
       id="g140"><path
         d="m 391.6,230 -35.1,-9.5 -8.2,30.5 70.2,18.9 8.3,-30.5 z"
         style="fill:none;stroke:#70ad47;stroke-width:2.99979997;stroke-linecap:butt;stroke-linejoin:miter;stroke-miterlimit:7.66129017;stroke-dasharray:none;stroke-opacity:1"
         id="path142"
         inkscape:connector-curvature="0" /></g><g
       id="g144"><path
         d="M 538.9,287.4 336.2,231.7"
         style="fill:none;stroke:#ed7d31;stroke-width:2.99979997;stroke-linecap:butt;stroke-linejoin:miter;stroke-miterlimit:7.66129017;stroke-dasharray:none;stroke-opacity:1"
         id="path146"
         inkscape:connector-curvature="0" /></g><g
       id="g148"><path
         d="m 382.9,261.5 -3.5,12.9"
         style="fill:none;stroke:#70ad47;stroke-width:2.99979997;stroke-linecap:butt;stroke-linejoin:miter;stroke-miterlimit:7.66129017;stroke-dasharray:none;stroke-opacity:1"
         id="path150"
         inkscape:connector-curvature="0" /></g><g
       id="g152"><path
         d="m 329.3,229.4 -22.4,-6.2"
         style="fill:none;stroke:#70ad47;stroke-width:2.99979997;stroke-linecap:butt;stroke-linejoin:miter;stroke-miterlimit:7.66129017;stroke-dasharray:none;stroke-opacity:1"
         id="path154"
         inkscape:connector-curvature="0" /></g><path
       d="m 277.9,220.1 v 0 1 l 0.1,1 0.1,1.1 0.2,1 0.3,1 0.2,1 0.4,1 0.4,0.9 0.4,0.9 0.5,1 0.6,0.8 0.6,0.9 0.6,0.8 0.7,0.8 0.7,0.7 0.7,0.8 0.8,0.6 0.8,0.7 0.9,0.5 0.9,0.6 0.9,0.5 0.9,0.4 1,0.4 0.9,0.4 1,0.2 1,0.3 1,0.2 1.1,0.1 1,0.1 h 1 v 0 h 1.1 l 1,-0.1 1,-0.1 1,-0.2 1,-0.3 1,-0.2 1,-0.4 1,-0.4 0.9,-0.4 0.9,-0.5 0.9,-0.6 0.9,-0.5 0.8,-0.7 0.7,-0.6 0.8,-0.8 0.7,-0.7 0.7,-0.8 0.6,-0.8 0.6,-0.9 0.6,-0.9 0.4,-0.9 0.5,-0.9 0.4,-0.9 0.3,-1 0.3,-1 0.3,-1 0.1,-1 0.2,-1.1 0.1,-1 v -1 0 l -0.1,-1.1 v -1 l -0.2,-1 -0.2,-1 -0.2,-1 -0.3,-1 -0.3,-1 -0.4,-1 -0.5,-0.9 -0.5,-0.9 -0.5,-0.9 -0.6,-0.8 -0.6,-0.8 -0.7,-0.8 -0.7,-0.8 -0.8,-0.7 -0.7,-0.7 -0.9,-0.6 -0.8,-0.6 -0.9,-0.5 -0.9,-0.5 -0.9,-0.5 -1,-0.4 -1,-0.3 -1,-0.3 -1,-0.3 -1,-0.1 -1,-0.2 -1,-0.1 h -1.1 v 0 l -1,0.1 -1,0.1 -1.1,0.1 -1,0.2 -1,0.2 -1,0.3 -0.9,0.3 -1,0.4 -0.9,0.5 -0.9,0.5 -0.9,0.5 -0.9,0.6 -0.8,0.6 -0.8,0.7 -0.7,0.7 -0.7,0.8 -0.7,0.8 -0.6,0.8 -0.6,0.8 -0.6,0.9 -0.5,0.9 -0.4,0.9 -0.4,1 -0.4,1 -0.2,1 -0.3,1 -0.2,1 -0.1,1 -0.1,1 z m 0,19.7 z m 39.5,-39.5 z"
       style="fill:#ffffff;fill-opacity:1;fill-rule:evenodd;stroke:none"
       id="path156"
       inkscape:connector-curvature="0" /><g
       id="g158"><path
         d="m 277.9,220.1 v 0 1 l 0.1,1 0.1,1.1 0.2,1 0.3,1 0.2,1 0.4,1 0.4,0.9 0.4,0.9 0.5,1 0.6,0.8 0.6,0.9 0.6,0.8 0.7,0.8 0.7,0.7 0.7,0.8 0.8,0.6 0.8,0.7 0.9,0.5 0.9,0.6 0.9,0.5 0.9,0.4 1,0.4 0.9,0.4 1,0.2 1,0.3 1,0.2 1.1,0.1 1,0.1 h 1 v 0 h 1.1 l 1,-0.1 1,-0.1 1,-0.2 1,-0.3 1,-0.2 1,-0.4 1,-0.4 0.9,-0.4 0.9,-0.5 0.9,-0.6 0.9,-0.5 0.8,-0.7 0.7,-0.6 0.8,-0.8 0.7,-0.7 0.7,-0.8 0.6,-0.8 0.6,-0.9 0.6,-0.9 0.4,-0.9 0.5,-0.9 0.4,-0.9 0.3,-1 0.3,-1 0.3,-1 0.1,-1 0.2,-1.1 0.1,-1 v -1 0 l -0.1,-1.1 v -1 l -0.2,-1 -0.2,-1 -0.2,-1 -0.3,-1 -0.3,-1 -0.4,-1 -0.5,-0.9 -0.5,-0.9 -0.5,-0.9 -0.6,-0.8 -0.6,-0.8 -0.7,-0.8 -0.7,-0.8 -0.8,-0.7 -0.7,-0.7 -0.9,-0.6 -0.8,-0.6 -0.9,-0.5 -0.9,-0.5 -0.9,-0.5 -1,-0.4 -1,-0.3 -1,-0.3 -1,-0.3 -1,-0.1 -1,-0.2 -1,-0.1 h -1.1 v 0 l -1,0.1 -1,0.1 -1.1,0.1 -1,0.2 -1,0.2 -1,0.3 -0.9,0.3 -1,0.4 -0.9,0.5 -0.9,0.5 -0.9,0.5 -0.9,0.6 -0.8,0.6 -0.8,0.7 -0.7,0.7 -0.7,0.8 -0.7,0.8 -0.6,0.8 -0.6,0.8 -0.6,0.9 -0.5,0.9 -0.4,0.9 -0.4,1 -0.4,1 -0.2,1 -0.3,1 -0.2,1 -0.1,1 -0.1,1 z"
         style="fill:none;stroke:#000000;stroke-width:2.99979997;stroke-linecap:butt;stroke-linejoin:miter;stroke-miterlimit:7.66129017;stroke-dasharray:none;stroke-opacity:1"
         id="path160"
         inkscape:connector-curvature="0" /></g><g
       id="g162"><path
         d="M 277.9,239.8 Z"
         style="fill:none;stroke:#000000;stroke-width:2.99979997;stroke-linecap:butt;stroke-linejoin:miter;stroke-miterlimit:7.66129017;stroke-dasharray:none;stroke-opacity:1"
         id="path164"
         inkscape:connector-curvature="0" /></g><g
       id="g166"><path
         d="M 317.4,200.3 Z"
         style="fill:none;stroke:#000000;stroke-width:2.99979997;stroke-linecap:butt;stroke-linejoin:miter;stroke-miterlimit:7.66129017;stroke-dasharray:none;stroke-opacity:1"
         id="path168"
         inkscape:connector-curvature="0" /></g><g
       id="g170"><path
         d="m 349.1,218.7 -7.9,30.1"
         style="fill:none;stroke:#ed7d31;stroke-width:2.99979997;stroke-linecap:butt;stroke-linejoin:miter;stroke-miterlimit:7.66129017;stroke-dasharray:none;stroke-opacity:1"
         id="path172"
         inkscape:connector-curvature="0" /></g><g
       id="g174"><path
         d="m 433.1,242.7 -7.9,30"
         style="fill:none;stroke:#ed7d31;stroke-width:2.99979997;stroke-linecap:butt;stroke-linejoin:miter;stroke-miterlimit:7.66129017;stroke-dasharray:none;stroke-opacity:1"
         id="path176"
         inkscape:connector-curvature="0" /></g><g
       id="g178"><path
         d="M 571.1,327.2 484.9,303.4"
         style="fill:none;stroke:#7030a0;stroke-width:2.99979997;stroke-linecap:butt;stroke-linejoin:miter;stroke-miterlimit:7.66129017;stroke-dasharray:none;stroke-opacity:1"
         id="path180"
         inkscape:connector-curvature="0" /></g><g
       id="g182"><path
         d="m 489.4,289.9 -3.5,13"
         style="fill:none;stroke:#7030a0;stroke-width:2.99979997;stroke-linecap:butt;stroke-linejoin:miter;stroke-miterlimit:7.66129017;stroke-dasharray:none;stroke-opacity:1"
         id="path184"
         inkscape:connector-curvature="0" /></g><g
       id="g186"><path
         d="M 574.5,315.1 571.1,328"
         style="fill:none;stroke:#7030a0;stroke-width:2.99979997;stroke-linecap:butt;stroke-linejoin:miter;stroke-miterlimit:7.66129017;stroke-dasharray:none;stroke-opacity:1"
         id="path188"
         inkscape:connector-curvature="0" /></g><path
       d="m 484,34.5 v 0 1 l 0.1,1.1 0.1,1 0.2,1 0.3,1 0.3,1 0.3,1 0.4,0.9 0.4,1 0.5,0.9 0.6,0.9 0.6,0.8 0.6,0.9 0.7,0.7 0.7,0.8 0.7,0.7 0.8,0.7 0.8,0.6 0.9,0.6 0.9,0.5 0.9,0.5 0.9,0.5 1,0.4 1,0.3 0.9,0.3 1,0.2 1.1,0.2 1,0.2 h 1 l 1,0.1 v 0 l 1.1,-0.1 h 1 l 1,-0.2 1.1,-0.2 0.9,-0.2 1,-0.3 1,-0.3 1,-0.4 0.9,-0.5 0.9,-0.5 0.9,-0.5 0.9,-0.6 0.8,-0.6 0.8,-0.7 0.7,-0.7 0.7,-0.8 0.7,-0.7 0.6,-0.9 0.6,-0.8 0.6,-0.9 0.4,-0.9 0.5,-1 0.4,-0.9 0.3,-1 0.3,-1 0.3,-1 0.1,-1 0.2,-1 0.1,-1.1 v -1 0 l -0.1,-1 v -1.1 l -0.2,-1 -0.2,-1 -0.2,-1 -0.3,-1 -0.3,-1 -0.4,-0.9 -0.5,-0.9 -0.5,-1 -0.5,-0.8 -0.6,-0.9 -0.6,-0.8 -0.7,-0.8 -0.7,-0.7 -0.7,-0.8 -0.8,-0.6 -0.9,-0.7 -0.8,-0.5 -0.9,-0.6 -0.9,-0.5 -0.9,-0.4 -1,-0.4 -1,-0.4 -1,-0.3 -0.9,-0.2 -1.1,-0.2 -1,-0.1 -1,-0.1 h -1.1 v 0 h -1 l -1,0.1 -1,0.1 -1.1,0.2 -1,0.3 -0.9,0.2 -1,0.4 -1,0.4 -0.9,0.4 -0.9,0.5 -0.9,0.6 -0.8,0.6 -0.9,0.6 -0.8,0.7 -0.7,0.7 -0.7,0.7 -0.7,0.8 -0.6,0.8 -0.6,0.9 -0.5,0.8 -0.6,1 -0.4,0.9 -0.4,1 -0.3,0.9 -0.3,1 -0.3,1 -0.2,1 -0.1,1 -0.1,1.1 z m 0,19.8 z m 39.5,-39.6 z"
       style="fill:#ffffff;fill-opacity:1;fill-rule:evenodd;stroke:none"
       id="path190"
       inkscape:connector-curvature="0" /><g
       id="g192"><path
         d="m 484,34.5 v 0 1 l 0.1,1.1 0.1,1 0.2,1 0.3,1 0.3,1 0.3,1 0.4,0.9 0.4,1 0.5,0.9 0.6,0.9 0.6,0.8 0.6,0.9 0.7,0.7 0.7,0.8 0.7,0.7 0.8,0.7 0.8,0.6 0.9,0.6 0.9,0.5 0.9,0.5 0.9,0.5 1,0.4 1,0.3 0.9,0.3 1,0.2 1.1,0.2 1,0.2 h 1 l 1,0.1 v 0 l 1.1,-0.1 h 1 l 1,-0.2 1.1,-0.2 0.9,-0.2 1,-0.3 1,-0.3 1,-0.4 0.9,-0.5 0.9,-0.5 0.9,-0.5 0.9,-0.6 0.8,-0.6 0.8,-0.7 0.7,-0.7 0.7,-0.8 0.7,-0.7 0.6,-0.9 0.6,-0.8 0.6,-0.9 0.4,-0.9 0.5,-1 0.4,-0.9 0.3,-1 0.3,-1 0.3,-1 0.1,-1 0.2,-1 0.1,-1.1 v -1 0 l -0.1,-1 v -1.1 l -0.2,-1 -0.2,-1 -0.2,-1 -0.3,-1 -0.3,-1 -0.4,-0.9 -0.5,-0.9 -0.5,-1 -0.5,-0.8 -0.6,-0.9 -0.6,-0.8 -0.7,-0.8 -0.7,-0.7 -0.7,-0.8 -0.8,-0.6 -0.9,-0.7 -0.8,-0.5 -0.9,-0.6 -0.9,-0.5 -0.9,-0.4 -1,-0.4 -1,-0.4 -1,-0.3 -0.9,-0.2 -1.1,-0.2 -1,-0.1 -1,-0.1 h -1.1 v 0 h -1 l -1,0.1 -1,0.1 -1.1,0.2 -1,0.3 -0.9,0.2 -1,0.4 -1,0.4 -0.9,0.4 -0.9,0.5 -0.9,0.6 -0.8,0.6 -0.9,0.6 -0.8,0.7 -0.7,0.7 -0.7,0.7 -0.7,0.8 -0.6,0.8 -0.6,0.9 -0.5,0.8 -0.6,1 -0.4,0.9 -0.4,1 -0.3,0.9 -0.3,1 -0.3,1 -0.2,1 -0.1,1 -0.1,1.1 z"
         style="fill:none;stroke:#000000;stroke-width:2.99979997;stroke-linecap:butt;stroke-linejoin:miter;stroke-miterlimit:7.66129017;stroke-dasharray:none;stroke-opacity:1"
         id="path194"
         inkscape:connector-curvature="0" /></g><g
       id="g196"><path
         d="M 484,54.3 Z"
         style="fill:none;stroke:#000000;stroke-width:2.99979997;stroke-linecap:butt;stroke-linejoin:miter;stroke-miterlimit:7.66129017;stroke-dasharray:none;stroke-opacity:1"
         id="path198"
         inkscape:connector-curvature="0" /></g><g
       id="g200"><path
         d="M 523.5,14.7 Z"
         style="fill:none;stroke:#000000;stroke-width:2.99979997;stroke-linecap:butt;stroke-linejoin:miter;stroke-miterlimit:7.66129017;stroke-dasharray:none;stroke-opacity:1"
         id="path202"
         inkscape:connector-curvature="0" /></g><g
       id="g204"><text
         transform="matrix(1,0,0,-1,266.7,340.7)"
         style="font-variant:normal;font-weight:normal;font-size:28px;font-family:Carlito;-inkscape-font-specification:Carlito;writing-mode:lr-tb;fill:#000000;fill-opacity:1;fill-rule:nonzero;stroke:none"
         id="text208"><tspan
           x="0"
           y="0"
           id="tspan206">y</tspan></text>
</g><g
       id="g210"><text
         transform="matrix(1,0,0,-1,279.4,333.7)"
         style="font-variant:normal;font-weight:normal;font-size:16.20000076px;font-family:Carlito;-inkscape-font-specification:Carlito;writing-mode:lr-tb;fill:#000000;fill-opacity:1;fill-rule:nonzero;stroke:none"
         id="text214"><tspan
           x="0"
           y="0"
           id="tspan212">0</tspan></text>
</g><g
       id="g216"><text
         transform="matrix(1,0,0,-1,696.1,271.3)"
         style="font-variant:normal;font-weight:normal;font-size:28px;font-family:Carlito;-inkscape-font-specification:Carlito;writing-mode:lr-tb;fill:#000000;fill-opacity:1;fill-rule:nonzero;stroke:none"
         id="text220"><tspan
           x="0"
           y="0"
           id="tspan218">x</tspan></text>
</g><g
       id="g222"><text
         transform="matrix(1,0,0,-1,708.2,264.3)"
         style="font-variant:normal;font-weight:normal;font-size:16.20000076px;font-family:Carlito;-inkscape-font-specification:Carlito;writing-mode:lr-tb;fill:#000000;fill-opacity:1;fill-rule:nonzero;stroke:none"
         id="text226"><tspan
           x="0"
           y="0"
           id="tspan224">0</tspan></text>
</g><g
       id="g228"><text
         transform="matrix(1,0,0,-1,558.7,62.4)"
         style="font-variant:normal;font-weight:normal;font-size:24px;font-family:Carlito;-inkscape-font-specification:Carlito;writing-mode:lr-tb;fill:#4472c4;fill-opacity:1;fill-rule:nonzero;stroke:none"
         id="text232"><tspan
           x="0"
           y="0"
           id="tspan230">θ</tspan></text>
</g><g
       id="g234"><text
         transform="matrix(1,0,0,-1,571.4,56.4)"
         style="font-variant:normal;font-weight:normal;font-size:13.89999962px;font-family:Carlito;-inkscape-font-specification:Carlito;writing-mode:lr-tb;fill:#4472c4;fill-opacity:1;fill-rule:nonzero;stroke:none"
         id="text238"><tspan
           x="0"
           y="0"
           id="tspan236">1</tspan></text>
</g><g
       id="g240"><path
         d="m 412.2,237.6 -0.1,-0.8 -0.2,-0.8 -0.1,-0.7 -0.2,-0.7 -0.2,-0.7 -0.2,-0.6 -0.3,-0.6 -0.3,-0.6 -0.3,-0.5 -0.3,-0.4 -0.4,-0.4 -0.3,-0.4 -0.4,-0.3 -0.4,-0.3 -0.5,-0.2 -0.4,-0.1 -0.5,-0.1 h -0.4 l -0.5,-0.1 -0.5,0.1 -0.5,0.1 -0.6,0.1 -0.5,0.2 -0.5,0.3 -0.5,0.3 -0.6,0.4 -0.5,0.4 -0.6,0.4 -0.5,0.5 -0.6,0.6 -0.5,0.6 -0.6,0.6 -0.5,0.7 -0.6,0.7 -0.5,0.7 -0.5,0.8 -0.5,0.8 -0.5,0.9 -0.5,0.8 -0.5,0.9 -0.4,0.9 -0.4,1 -0.5,1 -0.4,0.9 -0.3,1 -0.4,1.1 -0.3,1 -0.4,1 -0.3,1.1 -0.2,1 -0.3,1 -0.2,1.1 -0.2,1 -0.2,1.1 -0.1,1 -0.1,1 -0.1,1 -0.1,0.9 v 1 0.9 0.9 0.9 l 0.1,0.8 0.1,0.9 0.1,0.8 0.1,0.7 0.2,0.7 0.2,0.7 0.3,0.7 0.2,0.5 0.3,0.6 0.3,0.5 0.3,0.5 0.4,0.4 0.3,0.4 0.4,0.2 0.4,0.3 0.5,0.2 0.4,0.2 0.4,0.1 0.5,0.1 h 0.5 0.5 l 0.5,-0.2 0.5,-0.1 0.5,-0.2 0.6,-0.2 0.5,-0.3 0.6,-0.4 0.5,-0.4 0.6,-0.4 0.5,-0.5 0.6,-0.5 0.5,-0.6 0.6,-0.6 0.5,-0.7 0.5,-0.7 0.6,-0.7 0.5,-0.8 0.5,-0.8 0.5,-0.8 0.5,-0.9 0.5,-0.9 0.4,-0.9 0.4,-1"
         style="fill:none;stroke:#000000;stroke-width:0.99049997;stroke-linecap:butt;stroke-linejoin:miter;stroke-miterlimit:10;stroke-dasharray:none;stroke-opacity:1"
         id="path242"
         inkscape:connector-curvature="0" /></g><path
       d="m 412.2,244 3.4,-6.2 -0.7,-0.7 -2.3,4.2 v -4.2 h -1 v 4.2 l -2.2,-4.2 -0.7,0.8 z"
       style="fill:#000000;fill-opacity:1;fill-rule:evenodd;stroke:none"
       id="path244"
       inkscape:connector-curvature="0" /><g
       id="g246"><text
         transform="matrix(1,0,0,-1,697.8,346.6)"
         style="font-variant:normal;font-weight:normal;font-size:28px;font-family:Carlito;-inkscape-font-specification:Carlito;writing-mode:lr-tb;fill:#ed7d31;fill-opacity:1;fill-rule:nonzero;stroke:none"
         id="text250"><tspan
           x="0"
           y="0"
           id="tspan248">x</tspan></text>
</g><g
       id="g252"><text
         transform="matrix(1,0,0,-1,709.9,339.6)"
         style="font-variant:normal;font-weight:normal;font-size:16.20000076px;font-family:Carlito;-inkscape-font-specification:Carlito;writing-mode:lr-tb;fill:#ed7d31;fill-opacity:1;fill-rule:nonzero;stroke:none"
         id="text256"><tspan
           x="0"
           y="0"
           id="tspan254">3</tspan></text>
</g><g
       id="g258"><text
         transform="matrix(1,0,0,-1,278.2,65.7)"
         style="font-variant:normal;font-weight:normal;font-size:28px;font-family:Carlito;-inkscape-font-specification:Carlito;writing-mode:lr-tb;fill:#000000;fill-opacity:1;fill-rule:nonzero;stroke:none"
         id="text262"><tspan
           x="0"
           y="0"
           id="tspan260">0</tspan></text>
</g><g
       id="g264"><text
         transform="matrix(1,0,0,-1,518.8,145.2)"
         style="font-variant:normal;font-weight:normal;font-size:28px;font-family:Carlito;-inkscape-font-specification:Carlito;writing-mode:lr-tb;fill:#4472c4;fill-opacity:1;fill-rule:nonzero;stroke:none"
         id="text268"><tspan
           x="0"
           y="0"
           id="tspan266">1</tspan></text>
</g><g
       id="g270"><text
         transform="matrix(1,0,0,-1,330.2,269.7)"
         style="font-variant:normal;font-weight:normal;font-size:28px;font-family:Carlito;-inkscape-font-specification:Carlito;writing-mode:lr-tb;fill:#70ad47;fill-opacity:1;fill-rule:nonzero;stroke:none"
         id="text274"><tspan
           x="0"
           y="0"
           id="tspan272">2</tspan></text>
</g><g
       id="g276"><text
         transform="matrix(1,0,0,-1,420.5,282.3)"
         style="font-variant:normal;font-weight:normal;font-size:28px;font-family:Carlito;-inkscape-font-specification:Carlito;writing-mode:lr-tb;fill:#ed7d31;fill-opacity:1;fill-rule:nonzero;stroke:none"
         id="text280"><tspan
           x="0"
           y="0"
           id="tspan278">3</tspan></text>
</g><g
       id="g282"><text
         transform="matrix(1,0,0,-1,509.6,321.2)"
         style="font-variant:normal;font-weight:normal;font-size:28px;font-family:Carlito;-inkscape-font-specification:Carlito;writing-mode:lr-tb;fill:#7030a0;fill-opacity:1;fill-rule:nonzero;stroke:none"
         id="text286"><tspan
           x="0"
           y="0"
           id="tspan284">4</tspan></text>
</g><g
       id="g288"><text
         transform="matrix(1,0,0,-1,271.9,18.3)"
         style="font-variant:normal;font-weight:normal;font-size:28px;font-family:Carlito;-inkscape-font-specification:Carlito;writing-mode:lr-tb;fill:#000000;fill-opacity:1;fill-rule:nonzero;stroke:none"
         id="text292"><tspan
           x="0"
           y="0"
           id="tspan290">O</tspan></text>
</g><g
       id="g294"><text
         transform="matrix(1,0,0,-1,263.9,237.8)"
         style="font-variant:normal;font-weight:normal;font-size:28px;font-family:Carlito;-inkscape-font-specification:Carlito;writing-mode:lr-tb;fill:#000000;fill-opacity:1;fill-rule:nonzero;stroke:none"
         id="text298"><tspan
           x="0"
           y="0"
           id="tspan296">A</tspan></text>
</g><g
       id="g300"><text
         transform="matrix(1,0,0,-1,476.4,53.7)"
         style="font-variant:normal;font-weight:normal;font-size:28px;font-family:Carlito;-inkscape-font-specification:Carlito;writing-mode:lr-tb;fill:#000000;fill-opacity:1;fill-rule:nonzero;stroke:none"
         id="text304"><tspan
           x="0"
           y="0"
           id="tspan302">B</tspan></text>
</g><g
       id="g306"><text
         transform="matrix(1,0,0,-1,610.3,317.8)"
         style="font-variant:normal;font-weight:normal;font-size:28px;font-family:Carlito;-inkscape-font-specification:Carlito;writing-mode:lr-tb;fill:#000000;fill-opacity:1;fill-rule:nonzero;stroke:none"
         id="text310"><tspan
           x="0"
           y="0"
           id="tspan308">C</tspan></text>
</g><g
       id="g312"><text
         transform="matrix(1,0,0,-1,595.3,453.8)"
         style="font-variant:normal;font-weight:normal;font-size:28px;font-family:Carlito;-inkscape-font-specification:Carlito;writing-mode:lr-tb;fill:#000000;fill-opacity:1;fill-rule:nonzero;stroke:none"
         id="text316"><tspan
           x="0"
           y="0"
           id="tspan314">G</tspan></text>
</g><g
       id="g318"><path
         d="m 618,438.6 28.3,28.3"
         style="fill:none;stroke:#000000;stroke-width:0.50940001;stroke-linecap:butt;stroke-linejoin:miter;stroke-miterlimit:7.66129017;stroke-dasharray:none;stroke-opacity:1"
         id="path320"
         inkscape:connector-curvature="0" /></g><g
       id="g322"><path
         d="m 618,466.9 28.3,-28.3"
         style="fill:none;stroke:#000000;stroke-width:0.50940001;stroke-linecap:butt;stroke-linejoin:miter;stroke-miterlimit:7.66129017;stroke-dasharray:none;stroke-opacity:1"
         id="path324"
         inkscape:connector-curvature="0" /></g><path
       d="m 498.9,258.8 -35.1,-9.4 -8.2,30.5 70.2,18.9 8.2,-30.5 z"
       style="fill:#ffffff;fill-opacity:1;fill-rule:evenodd;stroke:none"
       id="path326"
       inkscape:connector-curvature="0" /><g
       id="g328"><path
         d="m 498.9,258.8 -35.1,-9.4 -8.2,30.5 70.2,18.9 8.2,-30.5 z"
         style="fill:none;stroke:#7030a0;stroke-width:2.99979997;stroke-linecap:butt;stroke-linejoin:miter;stroke-miterlimit:7.66129017;stroke-dasharray:none;stroke-opacity:1"
         id="path330"
         inkscape:connector-curvature="0" /></g><g
       id="g332"><path
         d="m 533.6,269 -76.1,9.7"
         style="fill:none;stroke:#7030a0;stroke-width:2.99979997;stroke-linecap:butt;stroke-linejoin:miter;stroke-miterlimit:7.66129017;stroke-dasharray:none;stroke-opacity:1"
         id="path334"
         inkscape:connector-curvature="0" /></g><g
       id="g336"><text
         transform="matrix(1,0,0,-1,415.7,209)"
         style="font-variant:normal;font-weight:normal;font-size:24px;font-family:Carlito;-inkscape-font-specification:Carlito;writing-mode:lr-tb;fill:#000000;fill-opacity:1;fill-rule:nonzero;stroke:none"
         id="text340"><tspan
           x="0"
           y="0"
           id="tspan338">θ</tspan></text>
</g><g
       id="g342"><text
         transform="matrix(1,0,0,-1,428.5,203)"
         style="font-variant:normal;font-weight:normal;font-size:13.89999962px;font-family:Carlito;-inkscape-font-specification:Carlito;writing-mode:lr-tb;fill:#000000;fill-opacity:1;fill-rule:nonzero;stroke:none"
         id="text346"><tspan
           x="0"
           y="0"
           id="tspan344">m</tspan></text>
</g><g
       id="g348"><text
         transform="matrix(1,0,0,-1,659.1,507.2)"
         style="font-variant:normal;font-weight:normal;font-size:28px;font-family:Carlito;-inkscape-font-specification:Carlito;writing-mode:lr-tb;fill:#4472c4;fill-opacity:1;fill-rule:nonzero;stroke:none"
         id="text352"><tspan
           x="0"
           y="0"
           id="tspan350">x</tspan></text>
</g><g
       id="g354"><text
         transform="matrix(1,0,0,-1,671.3,500.2)"
         style="font-variant:normal;font-weight:normal;font-size:16.20000076px;font-family:Carlito;-inkscape-font-specification:Carlito;writing-mode:lr-tb;fill:#4472c4;fill-opacity:1;fill-rule:nonzero;stroke:none"
         id="text358"><tspan
           x="0"
           y="0"
           id="tspan356">1</tspan></text>
</g><g
       id="g360"><text
         transform="matrix(1,0,0,-1,636,268.7)"
         style="font-variant:normal;font-weight:normal;font-size:24px;font-family:Carlito;-inkscape-font-specification:Carlito;writing-mode:lr-tb;fill:#ed7d31;fill-opacity:1;fill-rule:nonzero;stroke:none"
         id="text364"><tspan
           x="0"
           y="0"
           id="tspan362">θ</tspan></text>
</g><g
       id="g366"><text
         transform="matrix(1,0,0,-1,648.7,262.6)"
         style="font-variant:normal;font-weight:normal;font-size:13.89999962px;font-family:Carlito;-inkscape-font-specification:Carlito;writing-mode:lr-tb;fill:#ed7d31;fill-opacity:1;fill-rule:nonzero;stroke:none"
         id="text370"><tspan
           x="0"
           y="0"
           id="tspan368">3</tspan></text>
</g><g
       id="g372"><text
         transform="matrix(0.96944,0.2453,0.2453,-0.96944,416.6,343.4)"
         style="font-variant:normal;font-weight:normal;font-size:27.99980354px;font-family:Carlito;-inkscape-font-specification:Carlito;writing-mode:lr-tb;fill:#000000;fill-opacity:1;fill-rule:nonzero;stroke:none"
         id="text376"><tspan
           x="0"
           y="0"
           id="tspan374">L</tspan></text>
</g></g></svg>