<?xml version="1.0" encoding="UTF-8" standalone="no"?>
<svg
   fill-opacity="1"
   color-rendering="auto"
   color-interpolation="auto"
   text-rendering="auto"
   stroke="#000000"
   stroke-linecap="square"
   width="5.34375in"
   stroke-miterlimit="10"
   shape-rendering="auto"
   stroke-opacity="1"
   fill="#000000"
   stroke-dasharray="none"
   font-weight="normal"
   stroke-width="1"
   viewBox="0 0 513.00001 226.00001"
   height="2.3541667in"
   font-family="Arial"
   font-style="normal"
   stroke-linejoin="miter"
   font-size="12px"
   stroke-dashoffset="0"
   image-rendering="auto"
   version="1.1"
   id="svg1032"
   sodipodi:docname="DR01_cor.svg"
   inkscape:version="1.2.2 (b0a8486541, 2022-12-01)"
   xmlns:inkscape="http://www.inkscape.org/namespaces/inkscape"
   xmlns:sodipodi="http://sodipodi.sourceforge.net/DTD/sodipodi-0.dtd"
   xmlns="http://www.w3.org/2000/svg"
   xmlns:svg="http://www.w3.org/2000/svg">
  <sodipodi:namedview
     id="namedview1034"
     pagecolor="#ffffff"
     bordercolor="#666666"
     borderopacity="1.0"
     inkscape:showpageshadow="2"
     inkscape:pageopacity="0.0"
     inkscape:pagecheckerboard="0"
     inkscape:deskcolor="#d1d1d1"
     inkscape:document-units="in"
     showgrid="false"
     inkscape:zoom="0.96326534"
     inkscape:cx="262.12923"
     inkscape:cy="118.34745"
     inkscape:window-width="1600"
     inkscape:window-height="831"
     inkscape:window-x="0"
     inkscape:window-y="32"
     inkscape:window-maximized="1"
     inkscape:current-layer="svg1032" />
  <!--Generated by the Batik Graphics2D SVG Generator
 This is MagicDraw diagram.-->
  <defs
     id="genericDefs">
    <defs
       id="defs1">
      <linearGradient
         x1="203"
         gradientUnits="userSpaceOnUse"
         x2="357"
         y1="35"
         y2="203"
         id="linearGradient1"
         spreadMethod="pad">
        <stop
           stop-opacity="1"
           stop-color="rgb(221,205,158)"
           offset="0%"
           id="stop896" />
        <stop
           stop-opacity="1"
           stop-color="rgb(255,255,225)"
           offset="100%"
           id="stop898" />
      </linearGradient>
      <linearGradient
         x1="35"
         gradientUnits="userSpaceOnUse"
         x2="158"
         y1="133"
         y2="210"
         id="linearGradient2"
         spreadMethod="pad">
        <stop
           stop-opacity="1"
           stop-color="rgb(221,205,158)"
           offset="0%"
           id="stop901" />
        <stop
           stop-opacity="1"
           stop-color="rgb(255,255,225)"
           offset="100%"
           id="stop903" />
      </linearGradient>
      <linearGradient
         x1="49"
         gradientUnits="userSpaceOnUse"
         x2="147"
         y1="35"
         y2="84"
         id="linearGradient3"
         spreadMethod="pad">
        <stop
           stop-opacity="1"
           stop-color="rgb(221,205,158)"
           offset="0%"
           id="stop906" />
        <stop
           stop-opacity="1"
           stop-color="rgb(255,255,225)"
           offset="100%"
           id="stop908" />
      </linearGradient>
      <linearGradient
         x1="399"
         gradientUnits="userSpaceOnUse"
         x2="497"
         y1="147"
         y2="203"
         id="linearGradient4"
         spreadMethod="pad">
        <stop
           stop-opacity="1"
           stop-color="rgb(221,205,158)"
           offset="0%"
           id="stop911" />
        <stop
           stop-opacity="1"
           stop-color="rgb(255,255,225)"
           offset="100%"
           id="stop913" />
      </linearGradient>
      <linearGradient
         x1="378"
         gradientUnits="userSpaceOnUse"
         x2="469"
         y1="28"
         y2="98"
         id="linearGradient5"
         spreadMethod="pad">
        <stop
           stop-opacity="1"
           stop-color="rgb(221,205,158)"
           offset="0%"
           id="stop916" />
        <stop
           stop-opacity="1"
           stop-color="rgb(255,255,225)"
           offset="100%"
           id="stop918" />
      </linearGradient>
      <clipPath
         clipPathUnits="userSpaceOnUse"
         id="clipPath1">
        <path
           d="M 0,0 H 532 V 245 H 0 Z"
           id="path921" />
      </clipPath>
      <clipPath
         clipPathUnits="userSpaceOnUse"
         id="clipPath2">
        <path
           d="m -31.1241,171.3949 369.8443,-354.061 155.5932,162.5292 -369.8443,354.061 z"
           id="path924" />
      </clipPath>
    </defs>
  </defs>
  <rect
     fill="none"
     x="5"
     width="512"
     height="225"
     y="5"
     clip-path="url(#clipPath1)"
     id="rect942"
     transform="translate(-4.5,-4.5)"
     style="stroke:#424242;stroke-linecap:butt;stroke-linejoin:round;text-rendering:geometricPrecision" />
  <path
     fill="#000000"
     d="m 118.8438,18.4978 v -7.875 h 2.7187 q 0.9219,0 1.4063,0.1094 0.6718,0.1562 1.1562,0.5625 0.6094,0.5312 0.9219,1.3515 0.3125,0.8204 0.3125,1.8672 0,0.9063 -0.211,1.5938 -0.2109,0.6875 -0.539,1.1406 -0.3282,0.4531 -0.7188,0.7188 -0.3906,0.2656 -0.9375,0.3984 -0.5469,0.1328 -1.2656,0.1328 z m 1.0468,-0.9219 h 1.6875 q 0.7657,0 1.211,-0.1484 0.4453,-0.1484 0.7109,-0.4141 0.375,-0.375 0.5781,-1 0.2031,-0.625 0.2031,-1.5156 0,-1.2344 -0.4062,-1.8984 -0.4062,-0.6641 -0.9844,-0.8828 -0.4218,-0.1563 -1.3437,-0.1563 h -1.6563 z m 5.8438,-5.8437 v -1.1094 h 0.9687 v 1.1094 z m 0,6.7656 v -5.7031 h 0.9687 v 5.7031 z m 5.7187,-0.7031 q -0.5469,0.4531 -1.039,0.6406 -0.4922,0.1875 -1.0703,0.1875 -0.9376,0 -1.4454,-0.4609 -0.5078,-0.461 -0.5078,-1.1641 0,-0.4219 0.1953,-0.7656 0.1953,-0.3438 0.5,-0.5547 0.3047,-0.2109 0.6953,-0.3203 0.2813,-0.0781 0.8594,-0.1406 1.1719,-0.1407 1.7188,-0.3438 0.0156,-0.1875 0.0156,-0.25 0,-0.5937 -0.2812,-0.8281 -0.3594,-0.3281 -1.0938,-0.3281 -0.6875,0 -1.0078,0.2343 -0.3203,0.2344 -0.4766,0.8438 l -0.9531,-0.125 q 0.125,-0.6094 0.4219,-0.9844 0.2968,-0.375 0.8594,-0.5703 0.5624,-0.1953 1.2968,-0.1953 0.7344,0 1.1875,0.1719 0.4531,0.1718 0.6641,0.4296 0.2109,0.2579 0.3047,0.6485 0.0469,0.25 0.0469,0.9062 v 1.2813 q 0,1.3437 0.0624,1.7031 0.0626,0.3594 0.25,0.6875 h -1.0156 q -0.1562,-0.2969 -0.1875,-0.7031 z m -0.0937,-2.1563 q -0.5156,0.2188 -1.5782,0.3594 -0.5937,0.0938 -0.8359,0.1953 -0.2422,0.1016 -0.3828,0.3125 -0.1406,0.211 -0.1406,0.461 0,0.3906 0.2969,0.6484 0.2968,0.2578 0.8593,0.2578 0.5625,0 0.9922,-0.25 0.4297,-0.25 0.6485,-0.6719 0.1406,-0.3281 0.1406,-0.9687 z m 2.1875,3.3282 0.9375,0.1406 q 0.0625,0.4375 0.3281,0.6406 0.3594,0.2656 0.9844,0.2656 0.6719,0 1.039,-0.2656 0.3672,-0.2656 0.4922,-0.75 0.0781,-0.2969 0.0781,-1.25 -0.6406,0.75 -1.5937,0.75 -1.1719,0 -1.8125,-0.8516 -0.6406,-0.8515 -0.6406,-2.039 0,-0.8125 0.2968,-1.5 0.2969,-0.6875 0.8516,-1.0625 0.5547,-0.375 1.3203,-0.375 1,0 1.6563,0.8125 v -0.6875 h 0.8906 v 4.9219 q 0,1.3437 -0.2656,1.8984 -0.2656,0.5547 -0.8594,0.875 -0.5938,0.3203 -1.4531,0.3203 -1.0157,0 -1.6407,-0.4609 -0.625,-0.461 -0.6093,-1.3828 z m 0.7969,-3.4219 q 0,1.125 0.4453,1.6406 0.4453,0.5156 1.1171,0.5156 0.6719,0 1.125,-0.5156 0.4532,-0.5156 0.4532,-1.6094 0,-1.0468 -0.4688,-1.5781 -0.4687,-0.5312 -1.125,-0.5312 -0.6406,0 -1.0937,0.5234 -0.4531,0.5234 -0.4531,1.5547 z m 5.375,2.9531 v -5.7031 h 0.8593 v 0.8594 q 0.3438,-0.6094 0.625,-0.7969 0.2813,-0.1875 0.6094,-0.1875 0.5,0 1,0.3125 l -0.3281,0.8906 q -0.3594,-0.2031 -0.7188,-0.2031 -0.3125,0 -0.5625,0.1875 -0.25,0.1875 -0.3593,0.5312 -0.1563,0.5157 -0.1563,1.125 v 2.9844 z m 7.7343,-0.7031 q -0.5469,0.4531 -1.039,0.6406 -0.4922,0.1875 -1.0703,0.1875 -0.9376,0 -1.4454,-0.4609 -0.5078,-0.461 -0.5078,-1.1641 0,-0.4219 0.1953,-0.7656 0.1953,-0.3438 0.5,-0.5547 0.3047,-0.2109 0.6953,-0.3203 0.2813,-0.0781 0.8594,-0.1406 1.1719,-0.1407 1.7188,-0.3438 0.0156,-0.1875 0.0156,-0.25 0,-0.5937 -0.2812,-0.8281 -0.3594,-0.3281 -1.0938,-0.3281 -0.6875,0 -1.0078,0.2343 -0.3203,0.2344 -0.4766,0.8438 l -0.9531,-0.125 q 0.125,-0.6094 0.4219,-0.9844 0.2968,-0.375 0.8594,-0.5703 0.5624,-0.1953 1.2968,-0.1953 0.7344,0 1.1875,0.1719 0.4531,0.1718 0.6641,0.4296 0.2109,0.2579 0.3047,0.6485 0.0469,0.25 0.0469,0.9062 v 1.2813 q 0,1.3437 0.0624,1.7031 0.0626,0.3594 0.25,0.6875 h -1.0156 q -0.1562,-0.2969 -0.1875,-0.7031 z m -0.0937,-2.1563 q -0.5156,0.2188 -1.5782,0.3594 -0.5937,0.0938 -0.8359,0.1953 -0.2422,0.1016 -0.3828,0.3125 -0.1406,0.211 -0.1406,0.461 0,0.3906 0.2969,0.6484 0.2968,0.2578 0.8593,0.2578 0.5625,0 0.9922,-0.25 0.4297,-0.25 0.6485,-0.6719 0.1406,-0.3281 0.1406,-0.9687 z m 2.3594,2.8594 v -5.7031 h 0.875 v 0.7969 q 0.2656,-0.4219 0.7109,-0.6719 0.4453,-0.25 1.0078,-0.25 0.6406,0 1.0469,0.2578 0.4062,0.2578 0.5781,0.7422 0.6719,-1 1.75,-1 0.8594,0 1.3125,0.4687 0.4531,0.4688 0.4531,1.4375 v 3.9219 H 156.5 v -3.5937 q 0,-0.5782 -0.0938,-0.836 -0.0937,-0.2578 -0.3437,-0.414 -0.25,-0.1563 -0.5781,-0.1563 -0.6094,0 -1.0078,0.4063 -0.3985,0.4062 -0.3985,1.2812 v 3.3125 h -0.9687 v -3.7031 q 0,-0.6406 -0.2344,-0.9688 -0.2344,-0.3281 -0.7656,-0.3281 -0.4063,0 -0.7578,0.2188 -0.3516,0.2187 -0.5078,0.6328 -0.1563,0.414 -0.1563,1.1953 v 2.9531 z m 8,0 v -5.7031 h 0.875 v 0.7969 q 0.2656,-0.4219 0.7109,-0.6719 0.4453,-0.25 1.0078,-0.25 0.6406,0 1.0469,0.2578 0.4062,0.2578 0.5781,0.7422 0.6719,-1 1.75,-1 0.8594,0 1.3125,0.4687 0.4531,0.4688 0.4531,1.4375 v 3.9219 H 164.5 v -3.5937 q 0,-0.5782 -0.0938,-0.836 -0.0937,-0.2578 -0.3437,-0.414 -0.25,-0.1563 -0.5781,-0.1563 -0.6094,0 -1.0078,0.4063 -0.3985,0.4062 -0.3985,1.2812 v 3.3125 h -0.9687 v -3.7031 q 0,-0.6406 -0.2344,-0.9688 -0.2344,-0.3281 -0.7656,-0.3281 -0.4063,0 -0.7578,0.2188 -0.3516,0.2187 -0.5078,0.6328 -0.1563,0.414 -0.1563,1.1953 v 2.9531 z m 11.9062,-1.8437 1,0.125 q -0.2344,0.875 -0.875,1.3593 -0.6406,0.4844 -1.625,0.4844 -1.25,0 -1.9844,-0.7656 -0.7344,-0.7656 -0.7344,-2.1563 0,-1.4531 0.7422,-2.2422 0.7422,-0.789 1.9141,-0.789 1.1563,0 1.875,0.7734 0.7187,0.7735 0.7187,2.1953 0,0.0782 0,0.25 h -4.25 q 0.0469,0.9375 0.5235,1.4375 0.4765,0.5 1.1953,0.5 0.5312,0 0.9062,-0.2734 0.375,-0.2734 0.5938,-0.8984 z m -3.1719,-1.5625 h 3.1875 q -0.0625,-0.7188 -0.3594,-1.0782 -0.4687,-0.5468 -1.2031,-0.5468 -0.6719,0 -1.125,0.4453 -0.4531,0.4453 -0.5,1.1797 z m 11.9688,3.4062 v -0.7187 q -0.5313,0.8437 -1.5938,0.8437 -0.6719,0 -1.25,-0.375 -0.5781,-0.375 -0.8906,-1.0469 -0.3125,-0.6718 -0.3125,-1.5468 0,-0.8594 0.2891,-1.5547 0.289,-0.6953 0.8515,-1.0625 0.5625,-0.3672 1.2656,-0.3672 0.5157,0 0.9219,0.2187 0.4063,0.2188 0.6563,0.5625 v -2.8281 h 0.9687 v 7.875 z m -3.0469,-2.8437 q 0,1.0937 0.4609,1.6328 0.461,0.539 1.086,0.539 0.6406,0 1.0781,-0.5156 0.4375,-0.5156 0.4375,-1.5781 0,-1.1719 -0.4453,-1.7188 -0.4453,-0.5468 -1.1172,-0.5468 -0.6406,0 -1.0703,0.5234 -0.4297,0.5234 -0.4297,1.6641 z m 9.25,1 1,0.125 q -0.2344,0.875 -0.875,1.3593 -0.6406,0.4844 -1.625,0.4844 -1.25,0 -1.9844,-0.7656 -0.7344,-0.7656 -0.7344,-2.1563 0,-1.4531 0.7422,-2.2422 0.7422,-0.789 1.9141,-0.789 1.1563,0 1.875,0.7734 0.7187,0.7735 0.7187,2.1953 0,0.0782 0,0.25 h -4.25 q 0.0469,0.9375 0.5235,1.4375 0.4765,0.5 1.1953,0.5 0.5312,0 0.9062,-0.2734 0.375,-0.2734 0.5938,-0.8984 z m -3.1719,-1.5625 h 3.1875 q -0.0625,-0.7188 -0.3594,-1.0782 -0.4687,-0.5468 -1.2031,-0.5468 -0.6719,0 -1.125,0.4453 -0.4531,0.4453 -0.5,1.1797 z m 12,1.3125 0.9375,0.125 q -0.1406,0.9843 -0.789,1.539 -0.6485,0.5547 -1.5704,0.5547 -1.1718,0 -1.8828,-0.7656 -0.7109,-0.7656 -0.7109,-2.1875 0,-0.9219 0.3047,-1.6172 0.3047,-0.6953 0.9297,-1.0391 0.625,-0.3437 1.3593,-0.3437 0.9219,0 1.5157,0.4687 0.5937,0.4688 0.7656,1.3282 l -0.9531,0.1406 q -0.125,-0.5625 -0.4688,-0.8516 -0.3437,-0.289 -0.8281,-0.289 -0.7187,0 -1.1797,0.5234 -0.4609,0.5234 -0.4609,1.6484 0,1.1563 0.4375,1.6719 0.4375,0.5156 1.1562,0.5156 0.5625,0 0.9453,-0.3437 0.3829,-0.3438 0.4922,-1.0781 z m 1.9063,-0.7657 q 0,-1.5781 0.8906,-2.3437 0.7344,-0.625 1.7969,-0.625 1.1719,0 1.914,0.7656 0.7422,0.7656 0.7422,2.125 0,1.1094 -0.3281,1.7422 -0.3281,0.6328 -0.9609,0.9766 -0.6329,0.3437 -1.3672,0.3437 -1.2031,0 -1.9453,-0.7656 -0.7422,-0.7656 -0.7422,-2.2188 z m 1,0 q 0,1.1094 0.4765,1.6485 0.4766,0.539 1.211,0.539 0.7187,0 1.1953,-0.5468 0.4766,-0.5469 0.4766,-1.6719 0,-1.0469 -0.4844,-1.5938 -0.4844,-0.5468 -1.1875,-0.5468 -0.7344,0 -1.211,0.539 -0.4765,0.5391 -0.4765,1.6328 z m 5.3594,2.8594 v -5.7031 h 0.875 v 0.8125 q 0.625,-0.9375 1.8124,-0.9375 0.5157,0 0.9532,0.1797 0.4375,0.1797 0.6484,0.4843 0.211,0.3047 0.3047,0.711 0.0469,0.2812 0.0469,0.9531 v 3.5 h -0.9688 v -3.4687 q 0,-0.5938 -0.1094,-0.8829 -0.1093,-0.289 -0.3984,-0.4687 -0.289,-0.1797 -0.6797,-0.1797 -0.6093,0 -1.0625,0.3906 -0.4531,0.3907 -0.4531,1.5 v 3.1094 z m 8.125,-0.8594 0.125,0.8438 q -0.4063,0.0937 -0.7188,0.0937 -0.5312,0 -0.8203,-0.1718 -0.2891,-0.1719 -0.4063,-0.4375 -0.1172,-0.2657 -0.1172,-1.1407 v -3.2812 h -0.7187 v -0.75 h 0.7187 v -1.4063 l 0.9532,-0.5937 v 2 h 0.9844 v 0.75 h -0.9844 v 3.3437 q 0,0.4063 0.0547,0.5235 0.0547,0.1172 0.1718,0.1875 0.1172,0.0703 0.3203,0.0703 0.1719,0 0.4376,-0.0313 z m 4.7812,-0.9843 1,0.125 q -0.2344,0.875 -0.875,1.3593 -0.6406,0.4844 -1.625,0.4844 -1.25,0 -1.9844,-0.7656 -0.7344,-0.7656 -0.7344,-2.1563 0,-1.4531 0.7422,-2.2422 0.7422,-0.789 1.9141,-0.789 1.1563,0 1.875,0.7734 0.7187,0.7735 0.7187,2.1953 0,0.0782 0,0.25 h -4.25 q 0.0469,0.9375 0.5235,1.4375 0.4765,0.5 1.1953,0.5 0.5312,0 0.9062,-0.2734 0.375,-0.2734 0.5938,-0.8984 z m -3.1719,-1.5625 h 3.1875 q -0.0625,-0.7188 -0.3594,-1.0782 -0.4687,-0.5468 -1.2031,-0.5468 -0.6719,0 -1.125,0.4453 -0.4531,0.4453 -0.5,1.1797 z m 4.625,3.4062 2.0938,-2.9687 -1.9375,-2.7344 h 1.2031 l 0.8906,1.3437 q 0.2344,0.375 0.3907,0.625 0.2343,-0.3437 0.4374,-0.625 l 0.9532,-1.3437 h 1.1562 l -1.9687,2.6875 2.125,3.0156 h -1.1875 l -1.1719,-1.7656 -0.3125,-0.4844 -1.5,2.25 z m 8.7657,-0.8594 0.125,0.8438 q -0.4063,0.0937 -0.7188,0.0937 -0.5312,0 -0.8203,-0.1718 -0.2891,-0.1719 -0.4063,-0.4375 -0.1172,-0.2657 -0.1172,-1.1407 v -3.2812 h -0.7187 v -0.75 h 0.7187 v -1.4063 l 0.9532,-0.5937 v 2 h 0.9844 v 0.75 h -0.9844 v 3.3437 q 0,0.4063 0.0547,0.5235 0.0547,0.1172 0.1718,0.1875 0.1172,0.0703 0.3203,0.0703 0.1719,0 0.4376,-0.0313 z m 4.7812,-0.9843 1,0.125 q -0.2344,0.875 -0.875,1.3593 -0.6406,0.4844 -1.625,0.4844 -1.25,0 -1.9844,-0.7656 -0.7344,-0.7656 -0.7344,-2.1563 0,-1.4531 0.7422,-2.2422 0.7422,-0.789 1.9141,-0.789 1.1563,0 1.875,0.7734 0.7187,0.7735 0.7187,2.1953 0,0.0782 0,0.25 h -4.25 q 0.0469,0.9375 0.5235,1.4375 0.4765,0.5 1.1953,0.5 0.5312,0 0.9062,-0.2734 0.375,-0.2734 0.5938,-0.8984 z m -3.1719,-1.5625 h 3.1875 q -0.0625,-0.7188 -0.3594,-1.0782 -0.4687,-0.5468 -1.2031,-0.5468 -0.6719,0 -1.125,0.4453 -0.4531,0.4453 -0.5,1.1797 z"
     clip-path="url(#clipPath1)"
     stroke="none"
     id="path944"
     transform="translate(-4.5,-4.5)"
     style="stroke-linecap:butt;stroke-linejoin:round;text-rendering:geometricPrecision" />
  <path
     fill="#000000"
     d="M 37.75,20.6853 V 10.6228 h 2.125 v 0.7969 h -1.1562 v 8.4687 h 1.1562 v 0.7969 z m 3.0625,-2.1875 v -7.875 h 1.5781 l 1.8594,5.5781 q 0.25,0.7813 0.375,1.1563 0.1406,-0.4219 0.4219,-1.25 l 1.875,-5.4844 h 1.4062 v 7.875 h -1 v -6.5937 l -2.2969,6.5937 h -0.9374 l -2.2657,-6.7031 v 6.7031 z m 7.5469,-2.8594 q 0,-1.5781 0.8906,-2.3437 0.7344,-0.625 1.7969,-0.625 1.1719,0 1.914,0.7656 0.7422,0.7656 0.7422,2.125 0,1.1094 -0.3281,1.7422 -0.3281,0.6328 -0.9609,0.9766 -0.6329,0.3437 -1.3672,0.3437 -1.2031,0 -1.9453,-0.7656 -0.7422,-0.7656 -0.7422,-2.2188 z m 1,0 q 0,1.1094 0.4765,1.6485 0.4766,0.539 1.211,0.539 0.7187,0 1.1953,-0.5468 0.4766,-0.5469 0.4766,-1.6719 0,-1.0469 -0.4844,-1.5938 -0.4844,-0.5468 -1.1875,-0.5468 -0.7344,0 -1.211,0.539 -0.4765,0.5391 -0.4765,1.6328 z m 9.0625,2.8594 v -0.7187 q -0.5313,0.8437 -1.5938,0.8437 -0.6719,0 -1.25,-0.375 Q 55,17.8728 54.6875,17.2009 54.375,16.5291 54.375,15.6541 q 0,-0.8594 0.2891,-1.5547 0.289,-0.6953 0.8515,-1.0625 0.5625,-0.3672 1.2656,-0.3672 0.5157,0 0.9219,0.2187 0.4063,0.2188 0.6563,0.5625 v -2.8281 h 0.9687 v 7.875 z M 55.375,15.6541 q 0,1.0937 0.4609,1.6328 0.461,0.539 1.086,0.539 0.6406,0 1.0781,-0.5156 0.4375,-0.5156 0.4375,-1.5781 0,-1.1719 -0.4453,-1.7188 -0.4453,-0.5468 -1.1172,-0.5468 -0.6406,0 -1.0703,0.5234 -0.4297,0.5234 -0.4297,1.6641 z m 9.25,1 1,0.125 q -0.2344,0.875 -0.875,1.3593 -0.6406,0.4844 -1.625,0.4844 -1.25,0 -1.9844,-0.7656 -0.7344,-0.7656 -0.7344,-2.1563 0,-1.4531 0.7422,-2.2422 0.7422,-0.789 1.9141,-0.789 1.1563,0 1.875,0.7734 0.7187,0.7735 0.7187,2.1953 0,0.0782 0,0.25 h -4.25 q 0.0469,0.9375 0.5235,1.4375 0.4765,0.5 1.1953,0.5 0.5312,0 0.9062,-0.2734 0.375,-0.2734 0.5938,-0.8984 z m -3.1719,-1.5625 h 3.1875 q -0.0625,-0.7188 -0.3594,-1.0782 -0.4687,-0.5468 -1.2031,-0.5468 -0.6719,0 -1.125,0.4453 -0.4531,0.4453 -0.5,1.1797 z m 1.3281,-3.5938 H 62 L 60.7656,9.9822 h 1.2813 z m 3.9219,7 v -7.875 h 0.9688 v 7.875 z m 5.9219,-1.8437 1,0.125 q -0.2344,0.875 -0.875,1.3593 -0.6406,0.4844 -1.625,0.4844 -1.25,0 -1.9844,-0.7656 -0.7344,-0.7656 -0.7344,-2.1563 0,-1.4531 0.7422,-2.2422 0.7422,-0.789 1.9141,-0.789 1.1563,0 1.875,0.7734 0.7187,0.7735 0.7187,2.1953 0,0.0782 0,0.25 h -4.25 q 0.0469,0.9375 0.5235,1.4375 0.4765,0.5 1.1953,0.5 0.5312,0 0.9062,-0.2734 0.375,-0.2734 0.5938,-0.8984 z m -3.1719,-1.5625 h 3.1875 q -0.0625,-0.7188 -0.3594,-1.0782 -0.4687,-0.5468 -1.2031,-0.5468 -0.6719,0 -1.125,0.4453 -0.4531,0.4453 -0.5,1.1797 z m 6.8907,5.5937 h -2.1407 v -0.7969 h 1.1719 v -8.4687 h -1.1719 v -0.7969 h 2.1407 z"
     clip-path="url(#clipPath1)"
     stroke="none"
     id="path946"
     transform="translate(-4.5,-4.5)"
     style="stroke-linecap:butt;stroke-linejoin:round;text-rendering:geometricPrecision" />
  <path
     fill="#000000"
     d="m 81.8125,18.4978 v -7.875 h 1.5781 l 1.8594,5.5781 q 0.25,0.7813 0.375,1.1563 0.1406,-0.4219 0.4219,-1.25 l 1.875,-5.4844 h 1.4062 v 7.875 h -1 v -6.5937 l -2.2969,6.5937 h -0.9374 l -2.2657,-6.7031 v 6.7031 z m 7.5469,-2.8594 q 0,-1.5781 0.8906,-2.3437 0.7344,-0.625 1.7969,-0.625 1.1719,0 1.914,0.7656 0.7422,0.7656 0.7422,2.125 0,1.1094 -0.3281,1.7422 -0.3281,0.6328 -0.9609,0.9766 -0.6329,0.3437 -1.3672,0.3437 -1.2031,0 -1.9453,-0.7656 -0.7422,-0.7656 -0.7422,-2.2188 z m 1,0 q 0,1.1094 0.4765,1.6485 0.4766,0.539 1.211,0.539 0.7187,0 1.1953,-0.5468 0.4766,-0.5469 0.4766,-1.6719 0,-1.0469 -0.4844,-1.5938 -0.4844,-0.5468 -1.1875,-0.5468 -0.7344,0 -1.211,0.539 -0.4765,0.5391 -0.4765,1.6328 z m 9.0625,2.8594 v -0.7187 q -0.5313,0.8437 -1.5938,0.8437 -0.6719,0 -1.25,-0.375 Q 96,17.8728 95.6875,17.2009 95.375,16.5291 95.375,15.6541 q 0,-0.8594 0.2891,-1.5547 0.289,-0.6953 0.8515,-1.0625 0.5625,-0.3672 1.2656,-0.3672 0.5157,0 0.9219,0.2187 0.4063,0.2188 0.6563,0.5625 v -2.8281 h 0.9687 v 7.875 z M 96.375,15.6541 q 0,1.0937 0.4609,1.6328 0.461,0.539 1.086,0.539 0.6406,0 1.0781,-0.5156 0.4375,-0.5156 0.4375,-1.5781 0,-1.1719 -0.4453,-1.7188 -0.4453,-0.5468 -1.1172,-0.5468 -0.6406,0 -1.0703,0.5234 -0.4297,0.5234 -0.4297,1.6641 z m 9.25,1 1,0.125 q -0.2344,0.875 -0.875,1.3593 -0.6406,0.4844 -1.625,0.4844 -1.25,0 -1.9844,-0.7656 -0.7344,-0.7656 -0.7344,-2.1563 0,-1.4531 0.7422,-2.2422 0.7422,-0.789 1.9141,-0.789 1.1563,0 1.875,0.7734 0.7187,0.7735 0.7187,2.1953 0,0.0782 0,0.25 h -4.25 q 0.0469,0.9375 0.5235,1.4375 0.4765,0.5 1.1953,0.5 0.5312,0 0.9062,-0.2734 0.375,-0.2734 0.5938,-0.8984 z m -3.1719,-1.5625 h 3.1875 q -0.0625,-0.7188 -0.3594,-1.0782 -0.4687,-0.5468 -1.2031,-0.5468 -0.6719,0 -1.125,0.4453 -0.4531,0.4453 -0.5,1.1797 z m 5.25,3.4062 v -7.875 h 0.9688 v 7.875 z"
     clip-path="url(#clipPath1)"
     stroke="none"
     id="path948"
     transform="translate(-4.5,-4.5)"
     style="stroke-linecap:butt;stroke-linejoin:round;text-rendering:geometricPrecision" />
  <path
     fill="#000000"
     d="m 12.7188,18.4978 v -7.875 h 1.5156 v 2.8438 q 0.7031,-0.7969 1.6562,-0.7969 1.0469,0 1.7266,0.75 0.6797,0.75 0.6797,2.1719 0,1.4531 -0.6953,2.2421 -0.6954,0.7891 -1.6954,0.7891 -0.4843,0 -0.9609,-0.2422 -0.4765,-0.2422 -0.8203,-0.7265 v 0.8437 z m 1.5,-2.9687 q 0,0.875 0.2812,1.2968 0.3906,0.6094 1.0469,0.6094 0.5,0 0.8515,-0.4297 0.3516,-0.4297 0.3516,-1.3515 0,-0.9688 -0.3516,-1.3985 -0.3515,-0.4297 -0.914,-0.4297 -0.5469,0 -0.9063,0.4219 -0.3593,0.4219 -0.3593,1.2813 z m 10.7968,2.9687 H 23.625 v -0.8437 q -0.3594,0.5 -0.8359,0.7343 -0.4766,0.2344 -0.9453,0.2344 -0.9844,0 -1.6876,-0.7891 -0.7031,-0.789 -0.7031,-2.2109 0,-1.4531 0.6797,-2.2031 0.6797,-0.75 1.7266,-0.75 0.9531,0 1.6562,0.7969 v -2.8438 h 1.5 z M 21,15.5291 q 0,0.9062 0.25,1.3125 0.3594,0.5937 1.0156,0.5937 0.5156,0 0.8828,-0.4453 0.3672,-0.4453 0.3672,-1.3203 0,-0.9844 -0.3515,-1.4141 -0.3516,-0.4297 -0.9141,-0.4297 -0.5312,0 -0.8906,0.4219 Q 21,14.6697 21,15.5291 Z m 11.0156,2.9687 H 30.625 v -0.8437 q -0.3594,0.5 -0.8359,0.7343 -0.4766,0.2344 -0.9453,0.2344 -0.9844,0 -1.6876,-0.7891 -0.7031,-0.789 -0.7031,-2.2109 0,-1.4531 0.6797,-2.2031 0.6797,-0.75 1.7266,-0.75 0.9531,0 1.6562,0.7969 v -2.8438 h 1.5 z M 28,15.5291 q 0,0.9062 0.25,1.3125 0.3594,0.5937 1.0156,0.5937 0.5156,0 0.8828,-0.4453 0.3672,-0.4453 0.3672,-1.3203 0,-0.9844 -0.3515,-1.4141 -0.3516,-0.4297 -0.9141,-0.4297 -0.5312,0 -0.8906,0.4219 Q 28,14.6697 28,15.5291 Z"
     clip-path="url(#clipPath1)"
     stroke="none"
     id="path950"
     transform="translate(-4.5,-4.5)"
     style="stroke-linecap:butt;stroke-linejoin:round;text-rendering:geometricPrecision" />
  <path
     fill="#000000"
     d="M 111.75,20.6853 V 10.6228 h 2.125 v 0.7969 h -1.1562 v 8.4687 h 1.1562 v 0.7969 z"
     clip-path="url(#clipPath1)"
     stroke="none"
     id="path952"
     transform="translate(-4.5,-4.5)"
     style="stroke-linecap:butt;stroke-linejoin:round;text-rendering:geometricPrecision" />
  <path
     fill="#000000"
     d="m 237.3438,20.6853 h -2.1407 v -0.7969 h 1.1719 v -8.4687 h -1.1719 v -0.7969 h 2.1407 z"
     clip-path="url(#clipPath1)"
     stroke="none"
     id="path954"
     transform="translate(-4.5,-4.5)"
     style="stroke-linecap:butt;stroke-linejoin:round;text-rendering:geometricPrecision" />
  <line
     y2="23"
     fill="none"
     x1="5"
     clip-path="url(#clipPath1)"
     x2="233"
     y1="23"
     id="line956"
     transform="translate(-4.5,-4.5)"
     style="stroke:#424242;stroke-linecap:butt;stroke-linejoin:round;text-rendering:geometricPrecision" />
  <line
     y2="17"
     fill="none"
     x1="242"
     clip-path="url(#clipPath1)"
     x2="242"
     y1="5"
     id="line958"
     transform="translate(-4.5,-4.5)"
     style="stroke:#424242;stroke-linecap:butt;stroke-linejoin:round;text-rendering:geometricPrecision" />
  <line
     y2="17"
     fill="none"
     x1="233"
     clip-path="url(#clipPath1)"
     x2="242"
     y1="23"
     id="line960"
     transform="translate(-4.5,-4.5)"
     style="stroke:#424242;stroke-linecap:butt;stroke-linejoin:round;text-rendering:geometricPrecision" />
  <rect
     x="206"
     y="38"
     clip-path="url(#clipPath1)"
     fill="#b2b2b2"
     width="154"
     height="168"
     stroke="none"
     id="rect962"
     transform="translate(-4.5,-4.5)"
     style="stroke-linecap:butt;stroke-linejoin:round;text-rendering:geometricPrecision" />
  <rect
     x="203"
     y="35"
     clip-path="url(#clipPath1)"
     fill="url(#linearGradient1)"
     width="154"
     height="168"
     stroke="none"
     id="rect964"
     style="fill:url(#linearGradient1);stroke-linecap:butt;stroke-linejoin:round;text-rendering:geometricPrecision"
     transform="translate(-4.5,-4.5)" />
  <rect
     x="203"
     y="35"
     clip-path="url(#clipPath1)"
     fill="none"
     width="154"
     height="168"
     stroke="#99795c"
     id="rect966"
     transform="translate(-4.5,-4.5)"
     style="stroke-linecap:butt;stroke-linejoin:round;text-rendering:geometricPrecision" />
  <line
     clip-path="url(#clipPath1)"
     fill="none"
     x1="203"
     x2="357"
     y1="68"
     y2="68"
     stroke="#99795c"
     id="line968"
     transform="translate(-4.5,-4.5)"
     style="stroke-linecap:butt;stroke-linejoin:round;text-rendering:geometricPrecision" />
  <path
     fill="#000000"
     d="m 257.8281,45.6541 1.3907,2.4531 h -0.7813 l -1.7187,-2.4531 1.7187,-2.4375 h 0.7969 z m 2.0781,0 1.4219,2.4531 H 260.5 l -1.6719,-2.4531 1.6719,-2.4375 h 0.8281 z m 2.4376,1.1406 0.9531,-0.1563 q 0.0781,0.5782 0.4453,0.8828 0.3672,0.3047 1.0234,0.3047 0.6719,0 0.9922,-0.2656 0.3203,-0.2656 0.3203,-0.6406 0,-0.3281 -0.2812,-0.5156 -0.2031,-0.125 -0.9844,-0.3282 -1.0625,-0.2656 -1.4766,-0.4609 -0.414,-0.1953 -0.625,-0.5391 -0.2109,-0.3437 -0.2109,-0.7656 0,-0.3906 0.1719,-0.7109 0.1719,-0.3203 0.4843,-0.5391 0.2188,-0.1719 0.6094,-0.2812 0.3906,-0.1094 0.8282,-0.1094 0.6718,0 1.1796,0.1875 0.5078,0.1875 0.75,0.5234 0.2422,0.336 0.336,0.8828 l -0.9375,0.125 q -0.0781,-0.4375 -0.3828,-0.6797 -0.3047,-0.2421 -0.8672,-0.2421 -0.6719,0 -0.9531,0.2187 -0.2813,0.2188 -0.2813,0.5156 0,0.1875 0.1094,0.3282 0.125,0.1562 0.375,0.2656 0.1406,0.0469 0.8593,0.25 1.0157,0.2656 1.4219,0.4375 0.4063,0.1719 0.6407,0.5078 0.2343,0.3359 0.2343,0.8359 0,0.4844 -0.2812,0.9063 -0.2813,0.4219 -0.8125,0.6562 -0.5313,0.2344 -1.2032,0.2344 -1.1093,0 -1.6953,-0.4609 -0.5859,-0.461 -0.7421,-1.3672 z m 6.3437,3.9062 -0.1094,-0.9062 q 0.3125,0.0781 0.5469,0.0781 0.3281,0 0.5234,-0.1094 0.1954,-0.1093 0.3047,-0.2968 0.0938,-0.1407 0.2969,-0.7188 0.0312,-0.0781 0.0938,-0.2344 l -2.1719,-5.7187 h 1.0469 l 1.1874,3.2969 q 0.2344,0.6406 0.4063,1.3281 0.1719,-0.6719 0.4063,-1.2969 l 1.2187,-3.3281 h 0.9687 l -2.1718,5.7969 q -0.3438,0.9375 -0.5469,1.2968 -0.25,0.4844 -0.5859,0.7032 -0.336,0.2187 -0.7891,0.2187 -0.2813,0 -0.625,-0.1094 z m 5.6563,-3.9062 0.9531,-0.1563 q 0.0781,0.5782 0.4453,0.8828 0.3672,0.3047 1.0234,0.3047 0.6719,0 0.9922,-0.2656 0.3203,-0.2656 0.3203,-0.6406 0,-0.3281 -0.2812,-0.5156 -0.2031,-0.125 -0.9844,-0.3282 -1.0625,-0.2656 -1.4766,-0.4609 -0.414,-0.1953 -0.625,-0.5391 -0.2109,-0.3437 -0.2109,-0.7656 0,-0.3906 0.1719,-0.7109 0.1719,-0.3203 0.4843,-0.5391 0.2188,-0.1719 0.6094,-0.2812 0.3906,-0.1094 0.8282,-0.1094 0.6718,0 1.1796,0.1875 0.5078,0.1875 0.75,0.5234 0.2422,0.336 0.336,0.8828 l -0.9375,0.125 q -0.0781,-0.4375 -0.3828,-0.6797 -0.3047,-0.2421 -0.8672,-0.2421 -0.6719,0 -0.9531,0.2187 -0.2813,0.2188 -0.2813,0.5156 0,0.1875 0.1094,0.3282 0.125,0.1562 0.375,0.2656 0.1406,0.0469 0.8593,0.25 1.0157,0.2656 1.4219,0.4375 0.4063,0.1719 0.6407,0.5078 0.2343,0.3359 0.2343,0.8359 0,0.4844 -0.2812,0.9063 -0.2813,0.4219 -0.8125,0.6562 -0.5313,0.2344 -1.2032,0.2344 -1.1093,0 -1.6953,-0.4609 -0.5859,-0.461 -0.7421,-1.3672 z m 8.5,0.8437 0.125,0.8438 q -0.4063,0.0937 -0.7188,0.0937 -0.5312,0 -0.8203,-0.1718 -0.2891,-0.1719 -0.4063,-0.4375 -0.1172,-0.2657 -0.1172,-1.1407 v -3.2812 h -0.7187 v -0.75 h 0.7187 v -1.4063 l 0.9532,-0.5937 v 2 h 0.9844 v 0.75 h -0.9844 v 3.3437 q 0,0.4063 0.0547,0.5235 0.0547,0.1172 0.1718,0.1875 0.1172,0.0703 0.3203,0.0703 0.1719,0 0.4376,-0.0313 z m 4.7812,-0.9843 1,0.125 q -0.2344,0.875 -0.875,1.3593 -0.6406,0.4844 -1.625,0.4844 -1.25,0 -1.9844,-0.7656 -0.7344,-0.7656 -0.7344,-2.1563 0,-1.4531 0.7422,-2.2422 0.7422,-0.789 1.9141,-0.789 1.1563,0 1.875,0.7734 0.7187,0.7735 0.7187,2.1953 0,0.0782 0,0.25 h -4.25 q 0.0469,0.9375 0.5235,1.4375 0.4765,0.5 1.1953,0.5 0.5312,0 0.9062,-0.2734 0.375,-0.2734 0.5938,-0.8984 z m -3.1719,-1.5625 h 3.1875 q -0.0625,-0.7188 -0.3594,-1.0782 -0.4687,-0.5468 -1.2031,-0.5468 -0.6719,0 -1.125,0.4453 -0.4531,0.4453 -0.5,1.1797 z m 5.2657,3.4062 v -5.7031 h 0.875 v 0.7969 q 0.2656,-0.4219 0.7109,-0.6719 0.4453,-0.25 1.0078,-0.25 0.6406,0 1.0469,0.2578 0.4062,0.2578 0.5781,0.7422 0.6719,-1 1.75,-1 0.8594,0 1.3125,0.4687 0.4531,0.4688 0.4531,1.4375 v 3.9219 H 296.5 v -3.5937 q 0,-0.5782 -0.0938,-0.836 -0.0937,-0.2578 -0.3437,-0.414 -0.25,-0.1563 -0.5781,-0.1563 -0.6094,0 -1.0078,0.4063 -0.3985,0.4062 -0.3985,1.2812 v 3.3125 h -0.9687 v -3.7031 q 0,-0.6406 -0.2344,-0.9688 -0.2344,-0.3281 -0.7656,-0.3281 -0.4063,0 -0.7578,0.2188 -0.3516,0.2187 -0.5078,0.6328 -0.1563,0.414 -0.1563,1.1953 v 2.9531 z m 11.5312,-2.8437 -1.4062,-2.4375 h 0.7968 l 1.7188,2.4375 -1.7188,2.4531 h -0.7812 z m -2.0781,0 -1.4219,-2.4375 h 0.8125 l 1.6875,2.4375 -1.6875,2.4531 H 297.75 Z"
     clip-path="url(#clipPath1)"
     stroke="none"
     id="path976"
     transform="translate(-4.5,-4.5)"
     style="stroke-linecap:butt;stroke-linejoin:round;text-rendering:geometricPrecision" />
  <path
     fill="#000000"
     d="M 230.8125,63.4978 228,55.6228 h 1.7188 l 2,5.8281 1.9218,-5.8281 h 1.6875 l -2.8281,7.875 z m 9.2813,-1.8125 1.5,0.25 q -0.2813,0.8281 -0.9063,1.2578 -0.625,0.4297 -1.5781,0.4297 -1.4844,0 -2.2032,-0.9687 -0.5624,-0.7813 -0.5624,-1.9688 0,-1.4219 0.7421,-2.2187 0.7422,-0.7969 1.8829,-0.7969 1.2656,0 2,0.8359 0.7343,0.836 0.7031,2.5703 h -3.7813 q 0.0156,0.6719 0.3672,1.0469 0.3516,0.375 0.8672,0.375 0.3594,0 0.6016,-0.1953 0.2422,-0.1953 0.3672,-0.6172 z m 0.0781,-1.5312 q -0.0157,-0.6563 -0.336,-0.9922 -0.3203,-0.336 -0.7734,-0.336 -0.5,0 -0.8281,0.3594 -0.3125,0.3594 -0.3125,0.9688 z m -2.125,-3.6563 0.75,-1.6094 h 1.6875 L 239,56.4978 Z m 5.75,7 v -7.875 h 1.5 v 7.875 z m 2.6406,-2.9375 q 0,-0.75 0.375,-1.4531 0.375,-0.7031 1.0547,-1.0703 0.6797,-0.3672 1.5078,-0.3672 1.2969,0 2.125,0.8359 0.8281,0.836 0.8281,2.1172 0,1.2969 -0.8359,2.1484 -0.836,0.8516 -2.1016,0.8516 -0.7812,0 -1.4922,-0.3516 -0.7109,-0.3515 -1.0859,-1.039 -0.375,-0.6875 -0.375,-1.6719 z m 1.5469,0.0781 q 0,0.8594 0.4062,1.3125 0.4063,0.4532 1,0.4532 0.5782,0 0.9844,-0.4532 0.4062,-0.4531 0.4062,-1.3125 0,-0.8437 -0.4062,-1.2968 -0.4062,-0.4532 -0.9844,-0.4532 -0.5937,0 -1,0.4532 -0.4062,0.4531 -0.4062,1.2968 z m 8.8125,2.8594 v -7.875 h 2.5625 q 1.4375,0 1.8906,0.125 0.6719,0.1719 1.125,0.7656 0.4531,0.5938 0.4531,1.5313 0,0.7187 -0.2578,1.2187 -0.2578,0.5 -0.6641,0.7813 -0.4062,0.2812 -0.8281,0.375 -0.5781,0.1094 -1.6562,0.1094 h -1.0313 v 2.9687 z m 1.5937,-6.5469 v 2.2344 h 0.875 q 0.9375,0 1.25,-0.125 0.3125,-0.125 0.4922,-0.3828 0.1797,-0.2578 0.1797,-0.6172 0,-0.4219 -0.25,-0.7031 -0.25,-0.2813 -0.6406,-0.3438 -0.2813,-0.0625 -1.1407,-0.0625 z m 6.8438,6.5469 h -1.5156 v -5.7031 h 1.4062 v 0.8125 q 0.3594,-0.5781 0.6484,-0.7578 0.2891,-0.1797 0.6485,-0.1797 0.5156,0 1,0.2812 l -0.4688,1.3125 q -0.375,-0.25 -0.7031,-0.25 -0.3281,0 -0.5469,0.1797 -0.2187,0.1797 -0.3437,0.6328 -0.125,0.4532 -0.125,1.9063 z m 3.2031,-2.9375 q 0,-0.75 0.375,-1.4531 0.375,-0.7031 1.0547,-1.0703 0.6797,-0.3672 1.5078,-0.3672 1.2969,0 2.125,0.8359 0.8281,0.836 0.8281,2.1172 0,1.2969 -0.8359,2.1484 -0.836,0.8516 -2.1016,0.8516 -0.7812,0 -1.4922,-0.3516 -0.7109,-0.3515 -1.0859,-1.039 -0.375,-0.6875 -0.375,-1.6719 z m 1.5469,0.0781 q 0,0.8594 0.4062,1.3125 0.4063,0.4532 1,0.4532 0.5782,0 0.9844,-0.4532 0.4062,-0.4531 0.4062,-1.3125 0,-0.8437 -0.4062,-1.2968 -0.4062,-0.4532 -0.9844,-0.4532 -0.5937,0 -1,0.4532 -0.4062,0.4531 -0.4062,1.2968 z m 5.6406,0.7657 v -1.5157 h 2.9531 v 1.5157 z m 4.1875,2.0937 v -7.875 h 5.3906 v 1.3281 h -3.7969 v 1.875 h 3.2813 v 1.3282 h -3.2813 v 3.3437 z m 5.625,-2.9375 q 0,-0.75 0.375,-1.4531 0.375,-0.7031 1.0547,-1.0703 0.6797,-0.3672 1.5078,-0.3672 1.2969,0 2.125,0.8359 0.8281,0.836 0.8281,2.1172 0,1.2969 -0.8359,2.1484 -0.836,0.8516 -2.1016,0.8516 -0.7812,0 -1.4922,-0.3516 -0.7109,-0.3515 -1.0859,-1.039 -0.375,-0.6875 -0.375,-1.6719 z m 1.5469,0.0781 q 0,0.8594 0.4062,1.3125 0.4063,0.4532 1,0.4532 0.5782,0 0.9844,-0.4532 0.4062,-0.4531 0.4062,-1.3125 0,-0.8437 -0.4062,-1.2968 -0.4062,-0.4532 -0.9844,-0.4532 -0.5937,0 -1,0.4532 -0.4062,0.4531 -0.4062,1.2968 z m 7.25,2.8594 h -1.5156 v -5.7031 h 1.4062 v 0.8125 q 0.3594,-0.5781 0.6484,-0.7578 0.2891,-0.1797 0.6485,-0.1797 0.5156,0 1,0.2812 l -0.4688,1.3125 q -0.375,-0.25 -0.7031,-0.25 -0.3281,0 -0.5469,0.1797 -0.2187,0.1797 -0.3437,0.6328 -0.125,0.4532 -0.125,1.9063 z m 3.4375,-5.7031 h 1.3906 v 0.7812 q 0.75,-0.9062 1.7813,-0.9062 0.5468,0 0.9531,0.2265 0.4062,0.2266 0.6562,0.6797 0.375,-0.4531 0.8125,-0.6797 0.4375,-0.2265 0.9375,-0.2265 0.625,0 1.0625,0.25 0.4375,0.25 0.6406,0.75 0.1563,0.3594 0.1563,1.1875 v 3.6406 h -1.5 v -3.2656 q 0,-0.8438 -0.1563,-1.0938 -0.2187,-0.3125 -0.6562,-0.3125 -0.3125,0 -0.5938,0.1875 -0.2812,0.1875 -0.3984,0.5625 -0.1172,0.375 -0.1172,1.1875 v 2.7344 h -1.5156 v -3.125 q 0,-0.8281 -0.0781,-1.0703 -0.0781,-0.2422 -0.25,-0.3594 -0.1719,-0.1172 -0.4688,-0.1172 -0.3437,0 -0.625,0.1875 -0.2812,0.1875 -0.3984,0.5391 -0.1172,0.3516 -0.1172,1.1797 v 2.7656 h -1.5156 z m 15.9062,5.7031 v -6.5469 h -2.3437 V 55.6228 H 317.5 v 1.3281 h -2.3438 v 6.5469 z m 5.2188,-7.875 h 2.9062 q 0.9844,0 1.5,0.1563 0.6875,0.2031 1.1797,0.7187 0.4922,0.5156 0.75,1.2734 0.2578,0.7579 0.2578,1.8672 0,0.9688 -0.2344,1.6719 -0.2968,0.8594 -0.8437,1.3906 -0.4219,0.4063 -1.125,0.625 -0.5156,0.1719 -1.4063,0.1719 h -2.9843 z m 1.5937,1.3281 v 5.2188 h 1.1875 q 0.6563,0 0.9531,-0.0781 0.3907,-0.0938 0.6485,-0.3204 0.2578,-0.2265 0.4141,-0.7578 0.1562,-0.5312 0.1562,-1.4531 0,-0.9062 -0.1562,-1.3984 -0.1563,-0.4922 -0.4532,-0.7657 -0.2968,-0.2734 -0.7344,-0.3671 -0.3281,-0.0782 -1.3124,-0.0782 z m 5.4219,6.5469 v -7.875 h 5.3906 v 1.3281 h -3.7969 v 1.875 h 3.2813 v 1.3282 h -3.2813 v 3.3437 z"
     clip-path="url(#clipPath1)"
     stroke="none"
     id="path978"
     transform="translate(-4.5,-4.5)"
     style="stroke-linecap:butt;stroke-linejoin:round;text-rendering:geometricPrecision" />
  <rect
     x="38"
     y="136"
     clip-path="url(#clipPath1)"
     fill="#b2b2b2"
     width="123"
     height="77"
     stroke="none"
     id="rect980"
     transform="translate(-4.5,-4.5)"
     style="stroke-linecap:butt;stroke-linejoin:round;text-rendering:geometricPrecision" />
  <rect
     x="35"
     y="133"
     clip-path="url(#clipPath1)"
     fill="url(#linearGradient2)"
     width="123"
     height="77"
     stroke="none"
     id="rect982"
     style="fill:url(#linearGradient2);stroke-linecap:butt;stroke-linejoin:round;text-rendering:geometricPrecision"
     transform="translate(-4.5,-4.5)" />
  <rect
     x="35"
     y="133"
     clip-path="url(#clipPath1)"
     fill="none"
     width="123"
     height="77"
     stroke="#99795c"
     id="rect984"
     transform="translate(-4.5,-4.5)"
     style="stroke-linecap:butt;stroke-linejoin:round;text-rendering:geometricPrecision" />
  <path
     fill="#000000"
     d="m 72.8281,143.6541 1.3907,2.4531 h -0.7813 l -1.7187,-2.4531 1.7187,-2.4375 h 0.7969 z m 2.0781,0 1.4219,2.4531 H 75.5 l -1.6719,-2.4531 1.6719,-2.4375 h 0.8281 z m 6.7188,1 1,0.125 q -0.2344,0.875 -0.875,1.3593 -0.6406,0.4844 -1.625,0.4844 -1.25,0 -1.9844,-0.7656 -0.7344,-0.7656 -0.7344,-2.1563 0,-1.4531 0.7422,-2.2422 0.7422,-0.789 1.9141,-0.789 1.1563,0 1.875,0.7734 0.7187,0.7735 0.7187,2.1953 0,0.0782 0,0.25 h -4.25 q 0.0469,0.9375 0.5235,1.4375 0.4765,0.5 1.1953,0.5 0.5312,0 0.9062,-0.2734 0.375,-0.2734 0.5938,-0.8984 z m -3.1719,-1.5625 h 3.1875 q -0.0625,-0.7188 -0.3594,-1.0782 -0.4687,-0.5468 -1.2031,-0.5468 -0.6719,0 -1.125,0.4453 -0.4531,0.4453 -0.5,1.1797 z m 4.625,3.4062 2.0938,-2.9687 -1.9375,-2.7344 h 1.2031 l 0.8906,1.3437 q 0.2344,0.375 0.3907,0.625 0.2343,-0.3437 0.4374,-0.625 l 0.9532,-1.3437 h 1.1562 l -1.9687,2.6875 2.125,3.0156 h -1.1875 l -1.1719,-1.7656 -0.3125,-0.4844 -1.5,2.25 z m 8.7657,-0.8594 0.125,0.8438 q -0.4063,0.0937 -0.7188,0.0937 -0.5312,0 -0.8203,-0.1718 -0.2891,-0.1719 -0.4063,-0.4375 -0.1172,-0.2657 -0.1172,-1.1407 v -3.2812 h -0.7187 v -0.75 h 0.7187 v -1.4063 l 0.9532,-0.5937 v 2 h 0.9844 v 0.75 h -0.9844 v 3.3437 q 0,0.4063 0.0547,0.5235 0.0547,0.1172 0.1718,0.1875 0.1172,0.0703 0.3203,0.0703 0.1719,0 0.4376,-0.0313 z m 4.7812,-0.9843 1,0.125 q -0.2344,0.875 -0.875,1.3593 -0.6406,0.4844 -1.625,0.4844 -1.25,0 -1.9844,-0.7656 -0.7344,-0.7656 -0.7344,-2.1563 0,-1.4531 0.7422,-2.2422 0.7422,-0.789 1.9141,-0.789 1.1563,0 1.875,0.7734 0.7187,0.7735 0.7187,2.1953 0,0.0782 0,0.25 h -4.25 q 0.0469,0.9375 0.5235,1.4375 0.4765,0.5 1.1953,0.5 0.5312,0 0.9062,-0.2734 0.375,-0.2734 0.5938,-0.8984 z m -3.1719,-1.5625 h 3.1875 q -0.0625,-0.7188 -0.3594,-1.0782 -0.4687,-0.5468 -1.2031,-0.5468 -0.6719,0 -1.125,0.4453 -0.4531,0.4453 -0.5,1.1797 z m 5.2657,3.4062 v -5.7031 h 0.8593 v 0.8594 q 0.3438,-0.6094 0.625,-0.7969 0.2813,-0.1875 0.6094,-0.1875 0.5,0 1,0.3125 l -0.3281,0.8906 q -0.3594,-0.2031 -0.7188,-0.2031 -0.3125,0 -0.5625,0.1875 -0.25,0.1875 -0.3593,0.5312 -0.1563,0.5157 -0.1563,1.125 v 2.9844 z m 4,0 v -5.7031 h 0.875 v 0.8125 q 0.625,-0.9375 1.8124,-0.9375 0.5157,0 0.9532,0.1797 0.4375,0.1797 0.6484,0.4843 0.211,0.3047 0.3047,0.711 0.0469,0.2812 0.0469,0.9531 v 3.5 h -0.9688 v -3.4687 q 0,-0.5938 -0.1094,-0.8829 -0.1093,-0.289 -0.3984,-0.4687 -0.289,-0.1797 -0.6797,-0.1797 -0.6093,0 -1.0625,0.3906 -0.4531,0.3907 -0.4531,1.5 v 3.1094 z m 9.7343,-0.7031 q -0.5469,0.4531 -1.039,0.6406 -0.4922,0.1875 -1.0703,0.1875 -0.9376,0 -1.4454,-0.4609 -0.5078,-0.461 -0.5078,-1.1641 0,-0.4219 0.1953,-0.7656 0.1953,-0.3438 0.5,-0.5547 0.3047,-0.2109 0.6953,-0.3203 0.2813,-0.0781 0.8594,-0.1406 1.1719,-0.1407 1.7188,-0.3438 0.0156,-0.1875 0.0156,-0.25 0,-0.5937 -0.2812,-0.8281 -0.3594,-0.3281 -1.0938,-0.3281 -0.6875,0 -1.0078,0.2343 -0.3203,0.2344 -0.4766,0.8438 l -0.9531,-0.125 q 0.125,-0.6094 0.4219,-0.9844 0.2968,-0.375 0.8594,-0.5703 0.5624,-0.1953 1.2968,-0.1953 0.7344,0 1.1875,0.1719 0.4531,0.1718 0.6641,0.4296 0.2109,0.2579 0.3047,0.6485 0.0469,0.25 0.0469,0.9062 v 1.2813 q 0,1.3437 0.0624,1.7031 0.0626,0.3594 0.25,0.6875 h -1.0156 q -0.1562,-0.2969 -0.1875,-0.7031 z m -0.0937,-2.1563 q -0.5156,0.2188 -1.5782,0.3594 -0.5937,0.0938 -0.8359,0.1953 -0.2422,0.1016 -0.3828,0.3125 -0.1406,0.211 -0.1406,0.461 0,0.3906 0.2969,0.6484 0.2968,0.2578 0.8593,0.2578 0.5625,0 0.9922,-0.25 0.4297,-0.25 0.6485,-0.6719 0.1406,-0.3281 0.1406,-0.9687 z m 2.3437,2.8594 v -7.875 h 0.9688 v 7.875 z m 5.5469,-2.8437 -1.4062,-2.4375 h 0.7968 l 1.7188,2.4375 -1.7188,2.4531 h -0.7812 z m -2.0781,0 -1.4219,-2.4375 h 0.8125 l 1.6875,2.4375 -1.6875,2.4531 H 116.75 Z"
     clip-path="url(#clipPath1)"
     stroke="none"
     id="path986"
     transform="translate(-4.5,-4.5)"
     style="stroke-linecap:butt;stroke-linejoin:round;text-rendering:geometricPrecision" />
  <path
     fill="#000000"
     d="m 38.7812,161.4978 v -7.875 h 2.375 l 1.4376,5.375 1.4062,-5.375 h 2.3906 v 7.875 h -1.4844 v -6.2031 l -1.5624,6.2031 H 41.8125 L 40.25,155.2947 v 6.2031 z m 11.1407,-3.9687 -1.375,-0.25 q 0.2343,-0.8125 0.7969,-1.211 0.5624,-0.3984 1.6718,-0.3984 1.0156,0 1.5078,0.2344 0.4922,0.2343 0.6954,0.6015 0.2031,0.3672 0.2031,1.3516 l -0.0157,1.7656 q 0,0.75 0.0704,1.1094 0.0703,0.3594 0.2734,0.7656 h -1.5 q -0.0625,-0.1562 -0.1406,-0.4531 -0.0313,-0.125 -0.0469,-0.1719 -0.3906,0.375 -0.8359,0.5625 -0.4454,0.1875 -0.9454,0.1875 -0.875,0 -1.3828,-0.4766 -0.5078,-0.4765 -0.5078,-1.2109 0,-0.4844 0.2344,-0.8594 0.2344,-0.375 0.6484,-0.5781 0.4141,-0.2031 1.1954,-0.3594 1.0624,-0.1875 1.4687,-0.3593 v -0.1563 q 0,-0.4375 -0.2187,-0.6172 -0.2188,-0.1797 -0.8126,-0.1797 -0.3906,0 -0.6171,0.1563 -0.2266,0.1562 -0.3672,0.5469 z m 2.0156,1.2343 q -0.2969,0.0938 -0.9219,0.2266 -0.625,0.1328 -0.8125,0.2578 -0.2969,0.2188 -0.2969,0.5313 0,0.3281 0.2344,0.5546 0.2344,0.2266 0.5938,0.2266 0.4062,0 0.7812,-0.2656 0.2813,-0.2031 0.3594,-0.5 0.0625,-0.1875 0.0625,-0.7344 z m 2.8594,-3.75 v -1.3906 h 1.5 v 1.3906 z m 0,6.4844 v -5.7031 h 1.5 v 5.7031 z m 2.4687,-1.625 1.5,-0.2344 q 0.1094,0.4375 0.3985,0.6641 0.289,0.2266 0.8203,0.2266 0.5937,0 0.8906,-0.2032 0.2031,-0.1562 0.2031,-0.4062 0,-0.1719 -0.1093,-0.2813 -0.125,-0.1093 -0.5157,-0.2031 -1.8125,-0.4062 -2.3125,-0.7344 -0.6718,-0.4687 -0.6718,-1.2812 0,-0.75 0.5859,-1.25 0.5859,-0.5 1.8203,-0.5 1.1719,0 1.7344,0.375 0.5625,0.375 0.7812,1.125 l -1.4218,0.2656 q -0.0938,-0.3281 -0.3438,-0.5078 -0.25,-0.1797 -0.7344,-0.1797 -0.5937,0 -0.8437,0.1719 -0.1719,0.1094 -0.1719,0.2969 0,0.1718 0.1406,0.2812 0.2032,0.1563 1.4141,0.4297 1.2109,0.2734 1.6797,0.6641 0.4844,0.4062 0.4844,1.125 0,0.7812 -0.6563,1.3437 -0.6563,0.5625 -1.9531,0.5625 -1.1563,0 -1.836,-0.4687 -0.6796,-0.4688 -0.8828,-1.2813 z m 7.1719,-1.3125 q 0,-0.75 0.375,-1.4531 0.375,-0.7031 1.0547,-1.0703 0.6797,-0.3672 1.5078,-0.3672 1.2969,0 2.125,0.8359 0.8281,0.836 0.8281,2.1172 0,1.2969 -0.8359,2.1484 -0.836,0.8516 -2.1016,0.8516 -0.7812,0 -1.4922,-0.3516 -0.7109,-0.3515 -1.0859,-1.039 -0.375,-0.6875 -0.375,-1.6719 z m 1.5469,0.0781 q 0,0.8594 0.4062,1.3125 0.4063,0.4532 1,0.4532 0.5782,0 0.9844,-0.4532 0.4062,-0.4531 0.4062,-1.3125 0,-0.8437 -0.4062,-1.2968 -0.4062,-0.4532 -0.9844,-0.4532 -0.5937,0 -1,0.4532 -0.4062,0.4531 -0.4062,1.2968 z m 11,2.8594 h -1.5156 v -2.9062 q 0,-0.9219 -0.0938,-1.1954 -0.0938,-0.2734 -0.3125,-0.4218 -0.2187,-0.1485 -0.5313,-0.1485 -0.3906,0 -0.7031,0.211 -0.3125,0.2109 -0.4297,0.5625 -0.1172,0.3515 -0.1172,1.3203 v 2.5781 h -1.5 v -5.7031 h 1.4063 v 0.8437 q 0.7344,-0.9687 1.875,-0.9687 0.5,0 0.9141,0.1797 0.414,0.1797 0.625,0.4531 0.2109,0.2734 0.2968,0.6328 0.086,0.3594 0.086,1.0156 z m 1,0.1406 1.9531,-8.1562 h 1.125 l -1.9687,8.1562 z m 10.9218,-0.1406 h -1.7343 l -0.6875,-1.7812 h -3.1406 l -0.6563,1.7812 H 81 l 3.0625,-7.875 H 85.75 Z m -2.9374,-3.1094 -1.0782,-2.9218 -1.0625,2.9218 z m 3.7812,-2.5937 h 1.4062 v 0.8437 q 0.2657,-0.4375 0.7344,-0.7031 0.4688,-0.2656 1.0469,-0.2656 0.9844,0 1.6797,0.7734 0.6953,0.7735 0.6953,2.1641 0,1.4375 -0.6953,2.2265 -0.6953,0.7891 -1.6953,0.7891 -0.4688,0 -0.8516,-0.1875 -0.3828,-0.1875 -0.8203,-0.6406 v 2.875 h -1.5 z m 1.4844,2.75 q 0,0.9687 0.3828,1.4297 0.3828,0.4609 0.9297,0.4609 0.5312,0 0.8828,-0.4219 0.3515,-0.4218 0.3515,-1.3906 0,-0.8906 -0.3593,-1.3281 -0.3594,-0.4375 -0.8907,-0.4375 -0.5624,0 -0.9296,0.4297 -0.3672,0.4297 -0.3672,1.2578 z m 5.5156,-2.75 h 1.4062 v 0.8437 q 0.2657,-0.4375 0.7344,-0.7031 0.4688,-0.2656 1.0469,-0.2656 0.9844,0 1.6797,0.7734 0.6953,0.7735 0.6953,2.1641 0,1.4375 -0.6953,2.2265 -0.6953,0.7891 -1.6953,0.7891 -0.4688,0 -0.8516,-0.1875 -0.3828,-0.1875 -0.8203,-0.6406 v 2.875 h -1.5 z m 1.4844,2.75 q 0,0.9687 0.3828,1.4297 0.3828,0.4609 0.9297,0.4609 0.5312,0 0.8828,-0.4219 0.3515,-0.4218 0.3515,-1.3906 0,-0.8906 -0.3593,-1.3281 -0.3594,-0.4375 -0.8907,-0.4375 -0.5624,0 -0.9296,0.4297 -0.3672,0.4297 -0.3672,1.2578 z m 6.6875,-1.0156 -1.375,-0.25 q 0.2343,-0.8125 0.7969,-1.211 0.5624,-0.3984 1.6718,-0.3984 1.0156,0 1.5078,0.2344 0.4922,0.2343 0.6954,0.6015 0.2031,0.3672 0.2031,1.3516 l -0.0157,1.7656 q 0,0.75 0.0704,1.1094 0.0703,0.3594 0.2734,0.7656 h -1.5 q -0.0625,-0.1562 -0.1406,-0.4531 -0.0313,-0.125 -0.0469,-0.1719 -0.3906,0.375 -0.8359,0.5625 -0.4454,0.1875 -0.9454,0.1875 -0.875,0 -1.3828,-0.4766 -0.5078,-0.4765 -0.5078,-1.2109 0,-0.4844 0.2344,-0.8594 0.2344,-0.375 0.6484,-0.5781 0.4141,-0.2031 1.1954,-0.3594 1.0624,-0.1875 1.4687,-0.3593 v -0.1563 q 0,-0.4375 -0.2187,-0.6172 -0.2188,-0.1797 -0.8126,-0.1797 -0.3906,0 -0.6171,0.1563 -0.2266,0.1562 -0.3672,0.5469 z m 2.0156,1.2343 q -0.2969,0.0938 -0.9219,0.2266 -0.625,0.1328 -0.8125,0.2578 -0.2969,0.2188 -0.2969,0.5313 0,0.3281 0.2344,0.5546 0.2344,0.2266 0.5938,0.2266 0.4062,0 0.7812,-0.2656 0.2813,-0.2031 0.3594,-0.5 0.0625,-0.1875 0.0625,-0.7344 z m 4.2969,2.7344 h -1.5156 v -5.7031 h 1.4062 v 0.8125 q 0.3594,-0.5781 0.6484,-0.7578 0.2891,-0.1797 0.6485,-0.1797 0.5156,0 1,0.2812 l -0.4688,1.3125 q -0.375,-0.25 -0.7031,-0.25 -0.3281,0 -0.5469,0.1797 -0.2187,0.1797 -0.3437,0.6328 -0.125,0.4532 -0.125,1.9063 z m 6.1718,-5.7031 v 1.2031 h -1.0312 v 2.2969 q 0,0.7031 0.0312,0.8203 0.0313,0.1172 0.1329,0.1875 0.1015,0.0703 0.2578,0.0703 0.2031,0 0.6093,-0.1406 l 0.125,1.1719 q -0.5312,0.2187 -1.1874,0.2187 -0.4219,0 -0.75,-0.1328 -0.3282,-0.1328 -0.4766,-0.3516 -0.1484,-0.2187 -0.211,-0.5937 -0.0468,-0.2656 -0.0468,-1.0625 v -2.4844 h -0.6875 v -1.2031 h 0.6875 v -1.1406 l 1.5156,-0.875 v 2.0156 z m 4.6876,3.8906 1.5,0.25 q -0.2813,0.8281 -0.9063,1.2578 -0.625,0.4297 -1.5781,0.4297 -1.4844,0 -2.2032,-0.9687 -0.5624,-0.7813 -0.5624,-1.9688 0,-1.4219 0.7421,-2.2187 0.7422,-0.7969 1.8829,-0.7969 1.2656,0 2,0.8359 0.7343,0.836 0.7031,2.5703 h -3.7813 q 0.0156,0.6719 0.3672,1.0469 0.3516,0.375 0.8672,0.375 0.3594,0 0.6016,-0.1953 0.2422,-0.1953 0.3672,-0.6172 z m 0.0781,-1.5312 q -0.0157,-0.6563 -0.336,-0.9922 -0.3203,-0.336 -0.7734,-0.336 -0.5,0 -0.8281,0.3594 -0.3125,0.3594 -0.3125,0.9688 z m 3.5,-2.3594 h 1.3906 v 0.7812 q 0.75,-0.9062 1.7813,-0.9062 0.5468,0 0.9531,0.2265 0.4062,0.2266 0.6562,0.6797 0.375,-0.4531 0.8125,-0.6797 0.4375,-0.2265 0.9375,-0.2265 0.625,0 1.0625,0.25 0.4375,0.25 0.6406,0.75 0.1563,0.3594 0.1563,1.1875 v 3.6406 h -1.5 v -3.2656 q 0,-0.8438 -0.1563,-1.0938 -0.2187,-0.3125 -0.6562,-0.3125 -0.3125,0 -0.5938,0.1875 -0.2812,0.1875 -0.3984,0.5625 -0.1172,0.375 -0.1172,1.1875 v 2.7344 h -1.5156 v -3.125 q 0,-0.8281 -0.0781,-1.0703 -0.0781,-0.2422 -0.25,-0.3594 -0.1719,-0.1172 -0.4688,-0.1172 -0.3437,0 -0.625,0.1875 -0.2812,0.1875 -0.3984,0.5391 -0.1172,0.3516 -0.1172,1.1797 v 2.7656 h -1.5156 z m 14.4219,3.8906 1.5,0.25 q -0.2813,0.8281 -0.9063,1.2578 -0.625,0.4297 -1.5781,0.4297 -1.4844,0 -2.2032,-0.9687 -0.5624,-0.7813 -0.5624,-1.9688 0,-1.4219 0.7421,-2.2187 0.7422,-0.7969 1.8829,-0.7969 1.2656,0 2,0.8359 0.7343,0.836 0.7031,2.5703 h -3.7813 q 0.0156,0.6719 0.3672,1.0469 0.3516,0.375 0.8672,0.375 0.3594,0 0.6016,-0.1953 0.2422,-0.1953 0.3672,-0.6172 z m 0.0781,-1.5312 q -0.0157,-0.6563 -0.336,-0.9922 -0.3203,-0.336 -0.7734,-0.336 -0.5,0 -0.8281,0.3594 -0.3125,0.3594 -0.3125,0.9688 z m 8.8125,3.3437 h -1.5156 v -2.9062 q 0,-0.9219 -0.0938,-1.1954 -0.0938,-0.2734 -0.3125,-0.4218 -0.2187,-0.1485 -0.5313,-0.1485 -0.3906,0 -0.7031,0.211 -0.3125,0.2109 -0.4297,0.5625 -0.1172,0.3515 -0.1172,1.3203 v 2.5781 h -1.5 v -5.7031 h 1.4063 v 0.8437 q 0.7344,-0.9687 1.875,-0.9687 0.5,0 0.9141,0.1797 0.414,0.1797 0.625,0.4531 0.2109,0.2734 0.2968,0.6328 0.086,0.3594 0.086,1.0156 z m 4.4218,-5.7031 v 1.2031 h -1.0312 v 2.2969 q 0,0.7031 0.0312,0.8203 0.0313,0.1172 0.1329,0.1875 0.1015,0.0703 0.2578,0.0703 0.2031,0 0.6093,-0.1406 l 0.125,1.1719 q -0.5312,0.2187 -1.1874,0.2187 -0.4219,0 -0.75,-0.1328 -0.3282,-0.1328 -0.4766,-0.3516 -0.1484,-0.2187 -0.211,-0.5937 -0.0468,-0.2656 -0.0468,-1.0625 v -2.4844 h -0.6875 v -1.2031 h 0.6875 v -1.1406 l 1.5156,-0.875 v 2.0156 z"
     clip-path="url(#clipPath1)"
     stroke="none"
     id="path988"
     transform="translate(-4.5,-4.5)"
     style="stroke-linecap:butt;stroke-linejoin:round;text-rendering:geometricPrecision" />
  <rect
     x="52"
     y="38"
     clip-path="url(#clipPath1)"
     fill="#b2b2b2"
     width="98"
     height="49"
     stroke="none"
     id="rect990"
     transform="translate(-4.5,-4.5)"
     style="stroke-linecap:butt;stroke-linejoin:round;text-rendering:geometricPrecision" />
  <rect
     x="49"
     y="35"
     clip-path="url(#clipPath1)"
     fill="url(#linearGradient3)"
     width="98"
     height="49"
     stroke="none"
     id="rect992"
     style="fill:url(#linearGradient3);stroke-linecap:butt;stroke-linejoin:round;text-rendering:geometricPrecision"
     transform="translate(-4.5,-4.5)" />
  <rect
     x="49"
     y="35"
     clip-path="url(#clipPath1)"
     fill="none"
     width="98"
     height="49"
     stroke="#99795c"
     id="rect994"
     transform="translate(-4.5,-4.5)"
     style="stroke-linecap:butt;stroke-linejoin:round;text-rendering:geometricPrecision" />
  <path
     fill="#000000"
     d="m 73.8281,45.6541 1.3907,2.4531 h -0.7813 l -1.7187,-2.4531 1.7187,-2.4375 h 0.7969 z m 2.0781,0 1.4219,2.4531 H 76.5 L 74.8281,45.6541 76.5,43.2166 h 0.8281 z m 6.7188,1 1,0.125 q -0.2344,0.875 -0.875,1.3593 -0.6406,0.4844 -1.625,0.4844 -1.25,0 -1.9844,-0.7656 -0.7344,-0.7656 -0.7344,-2.1563 0,-1.4531 0.7422,-2.2422 0.7422,-0.789 1.9141,-0.789 1.1563,0 1.875,0.7734 0.7187,0.7735 0.7187,2.1953 0,0.0782 0,0.25 h -4.25 q 0.0469,0.9375 0.5235,1.4375 0.4765,0.5 1.1953,0.5 0.5312,0 0.9062,-0.2734 0.375,-0.2734 0.5938,-0.8984 z m -3.1719,-1.5625 h 3.1875 q -0.0625,-0.7188 -0.3594,-1.0782 -0.4687,-0.5468 -1.2031,-0.5468 -0.6719,0 -1.125,0.4453 -0.4531,0.4453 -0.5,1.1797 z m 4.625,3.4062 2.0938,-2.9687 -1.9375,-2.7344 h 1.2031 l 0.8906,1.3437 q 0.2344,0.375 0.3907,0.625 0.2343,-0.3437 0.4374,-0.625 l 0.9532,-1.3437 h 1.1562 l -1.9687,2.6875 2.125,3.0156 h -1.1875 l -1.1719,-1.7656 -0.3125,-0.4844 -1.5,2.25 z m 8.7657,-0.8594 0.125,0.8438 q -0.4063,0.0937 -0.7188,0.0937 -0.5312,0 -0.8203,-0.1718 -0.2891,-0.1719 -0.4063,-0.4375 -0.1172,-0.2657 -0.1172,-1.1407 v -3.2812 h -0.7187 v -0.75 h 0.7187 v -1.4063 l 0.9532,-0.5937 v 2 h 0.9844 v 0.75 h -0.9844 v 3.3437 q 0,0.4063 0.0547,0.5235 0.0547,0.1172 0.1718,0.1875 0.1172,0.0703 0.3203,0.0703 0.1719,0 0.4376,-0.0313 z m 4.7812,-0.9843 1,0.125 q -0.2344,0.875 -0.875,1.3593 -0.6406,0.4844 -1.625,0.4844 -1.25,0 -1.9844,-0.7656 -0.7344,-0.7656 -0.7344,-2.1563 0,-1.4531 0.7422,-2.2422 0.7422,-0.789 1.9141,-0.789 1.1563,0 1.875,0.7734 0.7187,0.7735 0.7187,2.1953 0,0.0782 0,0.25 h -4.25 q 0.0469,0.9375 0.5235,1.4375 0.4765,0.5 1.1953,0.5 0.5312,0 0.9062,-0.2734 0.375,-0.2734 0.5938,-0.8984 z m -3.1719,-1.5625 h 3.1875 q -0.0625,-0.7188 -0.3594,-1.0782 -0.4687,-0.5468 -1.2031,-0.5468 -0.6719,0 -1.125,0.4453 -0.4531,0.4453 -0.5,1.1797 z m 5.2657,3.4062 v -5.7031 h 0.8593 v 0.8594 q 0.3438,-0.6094 0.625,-0.7969 0.2813,-0.1875 0.6094,-0.1875 0.5,0 1,0.3125 l -0.3281,0.8906 q -0.3594,-0.2031 -0.7188,-0.2031 -0.3125,0 -0.5625,0.1875 -0.25,0.1875 -0.3593,0.5312 -0.1563,0.5157 -0.1563,1.125 v 2.9844 z m 4,0 v -5.7031 h 0.875 v 0.8125 q 0.625,-0.9375 1.8124,-0.9375 0.5157,0 0.9532,0.1797 0.4375,0.1797 0.6484,0.4843 0.211,0.3047 0.3047,0.711 0.0469,0.2812 0.0469,0.9531 v 3.5 h -0.9688 v -3.4687 q 0,-0.5938 -0.1094,-0.8829 -0.1093,-0.289 -0.3984,-0.4687 -0.289,-0.1797 -0.6797,-0.1797 -0.6093,0 -1.0625,0.3906 -0.4531,0.3907 -0.4531,1.5 v 3.1094 z m 9.7343,-0.7031 q -0.5469,0.4531 -1.039,0.6406 -0.4922,0.1875 -1.0703,0.1875 -0.9376,0 -1.4454,-0.4609 -0.5078,-0.461 -0.5078,-1.1641 0,-0.4219 0.1953,-0.7656 0.1953,-0.3438 0.5,-0.5547 0.3047,-0.2109 0.6953,-0.3203 0.2813,-0.0781 0.8594,-0.1406 1.1719,-0.1407 1.7188,-0.3438 0.0156,-0.1875 0.0156,-0.25 0,-0.5937 -0.2812,-0.8281 -0.3594,-0.3281 -1.0938,-0.3281 -0.6875,0 -1.0078,0.2343 -0.3203,0.2344 -0.4766,0.8438 l -0.9531,-0.125 q 0.125,-0.6094 0.4219,-0.9844 0.2968,-0.375 0.8594,-0.5703 0.5624,-0.1953 1.2968,-0.1953 0.7344,0 1.1875,0.1719 0.4531,0.1718 0.6641,0.4296 0.2109,0.2579 0.3047,0.6485 0.0469,0.25 0.0469,0.9062 v 1.2813 q 0,1.3437 0.0624,1.7031 0.0626,0.3594 0.25,0.6875 h -1.0156 q -0.1562,-0.2969 -0.1875,-0.7031 z m -0.0937,-2.1563 q -0.5156,0.2188 -1.5782,0.3594 -0.5937,0.0938 -0.8359,0.1953 -0.2422,0.1016 -0.3828,0.3125 -0.1406,0.211 -0.1406,0.461 0,0.3906 0.2969,0.6484 0.2968,0.2578 0.8593,0.2578 0.5625,0 0.9922,-0.25 0.4297,-0.25 0.6485,-0.6719 0.1406,-0.3281 0.1406,-0.9687 z m 2.3437,2.8594 v -7.875 h 0.9688 v 7.875 z m 5.5469,-2.8437 -1.4062,-2.4375 h 0.7968 l 1.7188,2.4375 -1.7188,2.4531 h -0.7812 z m -2.0781,0 -1.4219,-2.4375 h 0.8125 l 1.6875,2.4375 -1.6875,2.4531 H 117.75 Z"
     clip-path="url(#clipPath1)"
     stroke="none"
     id="path996"
     transform="translate(-4.5,-4.5)"
     style="stroke-linecap:butt;stroke-linejoin:round;text-rendering:geometricPrecision" />
  <path
     fill="#000000"
     d="m 81.8438,60.6072 1.5312,0.4844 q -0.3438,1.2812 -1.1719,1.914 -0.8281,0.6328 -2.0937,0.6328 -1.5625,0 -2.5782,-1.0781 -1.0156,-1.0781 -1.0156,-2.9375 0,-1.9531 1.0156,-3.0469 1.0157,-1.0937 2.6719,-1.0937 1.4531,0 2.3438,0.8594 0.5469,0.5 0.8125,1.4531 l -1.5782,0.375 q -0.1406,-0.6094 -0.5781,-0.9688 -0.4375,-0.3593 -1.0781,-0.3593 -0.875,0 -1.4219,0.6328 -0.5469,0.6328 -0.5469,2.039 0,1.4844 0.5391,2.125 0.5391,0.6407 1.3985,0.6407 0.6406,0 1.0937,-0.4063 0.4531,-0.4062 0.6563,-1.2656 z m 2.2343,-2.8125 h 1.6094 l 1.3594,4.0469 1.3281,-4.0469 h 1.5625 l -2.0156,5.4844 -0.3594,1 q -0.1875,0.5 -0.3672,0.7656 -0.1797,0.2656 -0.4141,0.4219 -0.2343,0.1562 -0.5781,0.25 -0.3437,0.0937 -0.7812,0.0937 -0.4219,0 -0.8438,-0.0937 l -0.1406,-1.1719 q 0.3594,0.0625 0.6406,0.0625 0.5313,0 0.7813,-0.3047 0.25,-0.3047 0.3906,-0.7891 z m 11.6875,1.6875 -1.4844,0.2656 q -0.0781,-0.4375 -0.3437,-0.6641 -0.2656,-0.2265 -0.6875,-0.2265 -0.5625,0 -0.8984,0.3828 -0.336,0.3828 -0.336,1.3047 0,1.0156 0.336,1.4375 0.3359,0.4219 0.914,0.4219 0.4375,0 0.711,-0.25 0.2734,-0.25 0.3828,-0.8438 l 1.4844,0.25 q -0.2344,1.0313 -0.8907,1.5469 -0.6562,0.5156 -1.75,0.5156 -1.2656,0 -2.0078,-0.7891 -0.7422,-0.789 -0.7422,-2.1796 0,-1.4219 0.75,-2.2032 0.75,-0.7812 2.0157,-0.7812 1.0468,0 1.664,0.4453 0.6172,0.4453 0.8828,1.3672 z m 1.0313,4.0156 v -7.875 h 1.5 v 7.875 z m 3,-6.4844 v -1.3906 h 1.5 v 1.3906 z m 0,6.4844 v -5.7031 h 1.5 v 5.7031 z m 2.4687,-1.625 1.5,-0.2344 q 0.1094,0.4375 0.3985,0.6641 0.289,0.2266 0.8203,0.2266 0.5937,0 0.8906,-0.2032 0.2031,-0.1562 0.2031,-0.4062 0,-0.1719 -0.1093,-0.2813 -0.125,-0.1093 -0.5157,-0.2031 -1.8125,-0.4062 -2.3125,-0.7344 -0.6718,-0.4687 -0.6718,-1.2812 0,-0.75 0.5859,-1.25 0.5859,-0.5 1.8203,-0.5 1.1719,0 1.7344,0.375 0.5625,0.375 0.7812,1.125 l -1.4218,0.2656 q -0.0938,-0.3281 -0.3438,-0.5078 -0.25,-0.1797 -0.7344,-0.1797 -0.5937,0 -0.8437,0.1719 -0.1719,0.1094 -0.1719,0.2969 0,0.1718 0.1406,0.2812 0.2032,0.1563 1.4141,0.4297 1.2109,0.2734 1.6797,0.6641 0.4844,0.4062 0.4844,1.125 0,0.7812 -0.6563,1.3437 -0.6563,0.5625 -1.9531,0.5625 -1.1563,0 -1.836,-0.4687 -0.6796,-0.4688 -0.8828,-1.2813 z m 10.1406,-4.0781 v 1.2031 h -1.0312 v 2.2969 q 0,0.7031 0.0312,0.8203 0.0313,0.1172 0.1329,0.1875 0.1015,0.0703 0.2578,0.0703 0.2031,0 0.6093,-0.1406 l 0.125,1.1719 q -0.5312,0.2187 -1.1874,0.2187 -0.4219,0 -0.75,-0.1328 -0.3282,-0.1328 -0.4766,-0.3516 -0.1484,-0.2187 -0.211,-0.5937 -0.0468,-0.2656 -0.0468,-1.0625 v -2.4844 h -0.6875 v -1.2031 h 0.6875 v -1.1406 l 1.5156,-0.875 v 2.0156 z m 4.6876,3.8906 1.5,0.25 q -0.2813,0.8281 -0.9063,1.2578 -0.625,0.4297 -1.5781,0.4297 -1.4844,0 -2.2032,-0.9687 -0.5624,-0.7813 -0.5624,-1.9688 0,-1.4219 0.7421,-2.2187 0.7422,-0.7969 1.8829,-0.7969 1.2656,0 2,0.8359 0.7343,0.836 0.7031,2.5703 h -3.7813 q 0.0156,0.6719 0.3672,1.0469 0.3516,0.375 0.8672,0.375 0.3594,0 0.6016,-0.1953 0.2422,-0.1953 0.3672,-0.6172 z m 0.0781,-1.5312 q -0.0157,-0.6563 -0.336,-0.9922 -0.3203,-0.336 -0.7734,-0.336 -0.5,0 -0.8281,0.3594 -0.3125,0.3594 -0.3125,0.9688 z"
     clip-path="url(#clipPath1)"
     stroke="none"
     id="path998"
     transform="translate(-4.5,-4.5)"
     style="stroke-linecap:butt;stroke-linejoin:round;text-rendering:geometricPrecision" />
  <rect
     x="402"
     y="150"
     clip-path="url(#clipPath1)"
     fill="#b2b2b2"
     width="98"
     height="56"
     stroke="none"
     id="rect1000"
     transform="translate(-4.5,-4.5)"
     style="stroke-linecap:butt;stroke-linejoin:round;text-rendering:geometricPrecision" />
  <rect
     x="399"
     y="147"
     clip-path="url(#clipPath1)"
     fill="url(#linearGradient4)"
     width="98"
     height="56"
     stroke="none"
     id="rect1002"
     style="fill:url(#linearGradient4);stroke-linecap:butt;stroke-linejoin:round;text-rendering:geometricPrecision"
     transform="translate(-4.5,-4.5)" />
  <rect
     x="399"
     y="147"
     clip-path="url(#clipPath1)"
     fill="none"
     width="98"
     height="56"
     stroke="#99795c"
     id="rect1004"
     transform="translate(-4.5,-4.5)"
     style="stroke-linecap:butt;stroke-linejoin:round;text-rendering:geometricPrecision" />
  <path
     fill="#000000"
     d="m 423.8281,157.6541 1.3907,2.4531 h -0.7813 l -1.7187,-2.4531 1.7187,-2.4375 h 0.7969 z m 2.0781,0 1.4219,2.4531 H 426.5 l -1.6719,-2.4531 1.6719,-2.4375 h 0.8281 z m 6.7188,1 1,0.125 q -0.2344,0.875 -0.875,1.3593 -0.6406,0.4844 -1.625,0.4844 -1.25,0 -1.9844,-0.7656 -0.7344,-0.7656 -0.7344,-2.1563 0,-1.4531 0.7422,-2.2422 0.7422,-0.789 1.9141,-0.789 1.1563,0 1.875,0.7734 0.7187,0.7735 0.7187,2.1953 0,0.0782 0,0.25 h -4.25 q 0.0469,0.9375 0.5235,1.4375 0.4765,0.5 1.1953,0.5 0.5312,0 0.9062,-0.2734 0.375,-0.2734 0.5938,-0.8984 z m -3.1719,-1.5625 h 3.1875 q -0.0625,-0.7188 -0.3594,-1.0782 -0.4687,-0.5468 -1.2031,-0.5468 -0.6719,0 -1.125,0.4453 -0.4531,0.4453 -0.5,1.1797 z m 4.625,3.4062 2.0938,-2.9687 -1.9375,-2.7344 h 1.2031 l 0.8906,1.3437 q 0.2344,0.375 0.3907,0.625 0.2343,-0.3437 0.4374,-0.625 l 0.9532,-1.3437 h 1.1562 l -1.9687,2.6875 2.125,3.0156 h -1.1875 l -1.1719,-1.7656 -0.3125,-0.4844 -1.5,2.25 z m 8.7657,-0.8594 0.125,0.8438 q -0.4063,0.0937 -0.7188,0.0937 -0.5312,0 -0.8203,-0.1718 -0.2891,-0.1719 -0.4063,-0.4375 -0.1172,-0.2657 -0.1172,-1.1407 v -3.2812 h -0.7187 v -0.75 h 0.7187 v -1.4063 l 0.9532,-0.5937 v 2 h 0.9844 v 0.75 h -0.9844 v 3.3437 q 0,0.4063 0.0547,0.5235 0.0547,0.1172 0.1718,0.1875 0.1172,0.0703 0.3203,0.0703 0.1719,0 0.4376,-0.0313 z m 4.7812,-0.9843 1,0.125 q -0.2344,0.875 -0.875,1.3593 -0.6406,0.4844 -1.625,0.4844 -1.25,0 -1.9844,-0.7656 -0.7344,-0.7656 -0.7344,-2.1563 0,-1.4531 0.7422,-2.2422 0.7422,-0.789 1.9141,-0.789 1.1563,0 1.875,0.7734 0.7187,0.7735 0.7187,2.1953 0,0.0782 0,0.25 h -4.25 q 0.0469,0.9375 0.5235,1.4375 0.4765,0.5 1.1953,0.5 0.5312,0 0.9062,-0.2734 0.375,-0.2734 0.5938,-0.8984 z m -3.1719,-1.5625 h 3.1875 q -0.0625,-0.7188 -0.3594,-1.0782 -0.4687,-0.5468 -1.2031,-0.5468 -0.6719,0 -1.125,0.4453 -0.4531,0.4453 -0.5,1.1797 z m 5.2657,3.4062 v -5.7031 h 0.8593 v 0.8594 q 0.3438,-0.6094 0.625,-0.7969 0.2813,-0.1875 0.6094,-0.1875 0.5,0 1,0.3125 l -0.3281,0.8906 q -0.3594,-0.2031 -0.7188,-0.2031 -0.3125,0 -0.5625,0.1875 -0.25,0.1875 -0.3593,0.5312 -0.1563,0.5157 -0.1563,1.125 v 2.9844 z m 4,0 v -5.7031 h 0.875 v 0.8125 q 0.625,-0.9375 1.8124,-0.9375 0.5157,0 0.9532,0.1797 0.4375,0.1797 0.6484,0.4843 0.211,0.3047 0.3047,0.711 0.0469,0.2812 0.0469,0.9531 v 3.5 h -0.9688 v -3.4687 q 0,-0.5938 -0.1094,-0.8829 -0.1093,-0.289 -0.3984,-0.4687 -0.289,-0.1797 -0.6797,-0.1797 -0.6093,0 -1.0625,0.3906 -0.4531,0.3907 -0.4531,1.5 v 3.1094 z m 9.7343,-0.7031 q -0.5469,0.4531 -1.039,0.6406 -0.4922,0.1875 -1.0703,0.1875 -0.9376,0 -1.4454,-0.4609 -0.5078,-0.461 -0.5078,-1.1641 0,-0.4219 0.1953,-0.7656 0.1953,-0.3438 0.5,-0.5547 0.3047,-0.2109 0.6953,-0.3203 0.2813,-0.0781 0.8594,-0.1406 1.1719,-0.1407 1.7188,-0.3438 0.0156,-0.1875 0.0156,-0.25 0,-0.5937 -0.2812,-0.8281 -0.3594,-0.3281 -1.0938,-0.3281 -0.6875,0 -1.0078,0.2343 -0.3203,0.2344 -0.4766,0.8438 l -0.9531,-0.125 q 0.125,-0.6094 0.4219,-0.9844 0.2968,-0.375 0.8594,-0.5703 0.5624,-0.1953 1.2968,-0.1953 0.7344,0 1.1875,0.1719 0.4531,0.1718 0.6641,0.4296 0.2109,0.2579 0.3047,0.6485 0.0469,0.25 0.0469,0.9062 v 1.2813 q 0,1.3437 0.0624,1.7031 0.0626,0.3594 0.25,0.6875 h -1.0156 q -0.1562,-0.2969 -0.1875,-0.7031 z m -0.0937,-2.1563 q -0.5156,0.2188 -1.5782,0.3594 -0.5937,0.0938 -0.8359,0.1953 -0.2422,0.1016 -0.3828,0.3125 -0.1406,0.211 -0.1406,0.461 0,0.3906 0.2969,0.6484 0.2968,0.2578 0.8593,0.2578 0.5625,0 0.9922,-0.25 0.4297,-0.25 0.6485,-0.6719 0.1406,-0.3281 0.1406,-0.9687 z m 2.3437,2.8594 v -7.875 h 0.9688 v 7.875 z m 5.5469,-2.8437 -1.4062,-2.4375 h 0.7968 l 1.7188,2.4375 -1.7188,2.4531 h -0.7812 z m -2.0781,0 -1.4219,-2.4375 h 0.8125 l 1.6875,2.4375 -1.6875,2.4531 H 467.75 Z"
     clip-path="url(#clipPath1)"
     stroke="none"
     id="path1006"
     transform="translate(-4.5,-4.5)"
     style="stroke-linecap:butt;stroke-linejoin:round;text-rendering:geometricPrecision" />
  <path
     fill="#000000"
     d="m 414.8125,167.6228 h 3.1406 q 0.9375,0 1.3985,0.0781 0.4609,0.0782 0.8203,0.3282 0.3593,0.25 0.6015,0.6562 0.2422,0.4063 0.2422,0.9219 0,0.5469 -0.2968,1.0078 -0.2969,0.4609 -0.8126,0.6953 0.7188,0.2188 1.1094,0.7188 0.3906,0.5 0.3906,1.1875 0,0.5312 -0.25,1.039 -0.25,0.5078 -0.6874,0.8125 -0.4376,0.3047 -1.0626,0.3828 -0.4062,0.0313 -1.9218,0.0469 h -2.6719 z m 1.5781,1.3125 v 1.8125 h 1.0469 q 0.9219,0 1.1563,-0.0156 0.4062,-0.0469 0.6406,-0.2813 0.2344,-0.2343 0.2344,-0.625 0,-0.3593 -0.2032,-0.5859 -0.2031,-0.2266 -0.5937,-0.2734 -0.2344,-0.0313 -1.3594,-0.0313 z m 0,3.125 v 2.1094 h 1.4844 q 0.8594,0 1.0781,-0.0469 0.3594,-0.0625 0.586,-0.3125 0.2265,-0.25 0.2265,-0.6719 0,-0.3593 -0.1718,-0.6015 -0.1719,-0.2422 -0.5,-0.3594 -0.3282,-0.1172 -1.4219,-0.1172 z m 5.0469,0.5 q 0,-0.75 0.375,-1.4531 0.375,-0.7031 1.0547,-1.0703 0.6797,-0.3672 1.5078,-0.3672 1.2969,0 2.125,0.8359 0.8281,0.836 0.8281,2.1172 0,1.2969 -0.8359,2.1484 -0.836,0.8516 -2.1016,0.8516 -0.7812,0 -1.4922,-0.3516 -0.7109,-0.3515 -1.0859,-1.039 -0.375,-0.6875 -0.375,-1.6719 z m 1.5469,0.0781 q 0,0.8594 0.4062,1.3125 0.4063,0.4532 1,0.4532 0.5782,0 0.9844,-0.4532 0.4062,-0.4531 0.4062,-1.3125 0,-0.8437 -0.4062,-1.2968 -0.4062,-0.4532 -0.9844,-0.4532 -0.5937,0 -1,0.4532 -0.4062,0.4531 -0.4062,1.2968 z m 5.0781,2.8594 2.0625,-2.9375 -1.9688,-2.7656 H 430 l 1,1.5625 1.0625,-1.5625 h 1.7813 l -1.9376,2.7031 2.1094,3 h -1.8594 L 431,173.7322 l -1.1719,1.7656 z m 9.7344,-6.4844 v -1.3906 h 1.5 v 1.3906 z m 0,6.4844 v -5.7031 h 1.5 v 5.7031 z m 8.1875,0 h -1.5156 v -2.9062 q 0,-0.9219 -0.0938,-1.1954 -0.0938,-0.2734 -0.3125,-0.4218 -0.2187,-0.1485 -0.5313,-0.1485 -0.3906,0 -0.7031,0.211 -0.3125,0.2109 -0.4297,0.5625 -0.1172,0.3515 -0.1172,1.3203 v 2.5781 h -1.5 v -5.7031 h 1.4063 v 0.8437 q 0.7344,-0.9687 1.875,-0.9687 0.5,0 0.9141,0.1797 0.414,0.1797 0.625,0.4531 0.2109,0.2734 0.2968,0.6328 0.086,0.3594 0.086,1.0156 z m 4.4218,-5.7031 v 1.2031 h -1.0312 v 2.2969 q 0,0.7031 0.0312,0.8203 0.0313,0.1172 0.1329,0.1875 0.1015,0.0703 0.2578,0.0703 0.2031,0 0.6093,-0.1406 l 0.125,1.1719 q -0.5312,0.2187 -1.1874,0.2187 -0.4219,0 -0.75,-0.1328 -0.3282,-0.1328 -0.4766,-0.3516 -0.1484,-0.2187 -0.211,-0.5937 -0.0468,-0.2656 -0.0468,-1.0625 v -2.4844 h -0.6875 v -1.2031 h 0.6875 v -1.1406 l 1.5156,-0.875 v 2.0156 z m 4.6876,3.8906 1.5,0.25 q -0.2813,0.8281 -0.9063,1.2578 -0.625,0.4297 -1.5781,0.4297 -1.4844,0 -2.2032,-0.9687 -0.5624,-0.7813 -0.5624,-1.9688 0,-1.4219 0.7421,-2.2187 0.7422,-0.7969 1.8829,-0.7969 1.2656,0 2,0.8359 0.7343,0.836 0.7031,2.5703 h -3.7813 q 0.0156,0.6719 0.3672,1.0469 0.3516,0.375 0.8672,0.375 0.3594,0 0.6016,-0.1953 0.2422,-0.1953 0.3672,-0.6172 z m 0.0781,-1.5312 q -0.0157,-0.6563 -0.336,-0.9922 -0.3203,-0.336 -0.7734,-0.336 -0.5,0 -0.8281,0.3594 -0.3125,0.3594 -0.3125,0.9688 z m 5.0625,3.3437 h -1.5156 v -5.7031 h 1.4062 v 0.8125 q 0.3594,-0.5781 0.6484,-0.7578 0.2891,-0.1797 0.6485,-0.1797 0.5156,0 1,0.2812 l -0.4688,1.3125 q -0.375,-0.25 -0.7031,-0.25 -0.3281,0 -0.5469,0.1797 -0.2187,0.1797 -0.3437,0.6328 -0.125,0.4532 -0.125,1.9063 z m 8.75,0 h -1.5156 v -2.9062 q 0,-0.9219 -0.0938,-1.1954 -0.0938,-0.2734 -0.3125,-0.4218 -0.2187,-0.1485 -0.5313,-0.1485 -0.3906,0 -0.7031,0.211 -0.3125,0.2109 -0.4297,0.5625 -0.1172,0.3515 -0.1172,1.3203 v 2.5781 h -1.5 v -5.7031 h 1.4063 v 0.8437 q 0.7344,-0.9687 1.875,-0.9687 0.5,0 0.9141,0.1797 0.414,0.1797 0.625,0.4531 0.2109,0.2734 0.2968,0.6328 0.086,0.3594 0.086,1.0156 z m 5.1094,-1.8125 1.5,0.25 q -0.2813,0.8281 -0.9063,1.2578 -0.625,0.4297 -1.5781,0.4297 -1.4844,0 -2.2032,-0.9687 -0.5624,-0.7813 -0.5624,-1.9688 0,-1.4219 0.7421,-2.2187 0.7422,-0.7969 1.8829,-0.7969 1.2656,0 2,0.8359 0.7343,0.836 0.7031,2.5703 h -3.7813 q 0.0156,0.6719 0.3672,1.0469 0.3516,0.375 0.8672,0.375 0.3594,0 0.6016,-0.1953 0.2422,-0.1953 0.3672,-0.6172 z m 0.0781,-1.5312 q -0.0157,-0.6563 -0.336,-0.9922 -0.3203,-0.336 -0.7734,-0.336 -0.5,0 -0.8281,0.3594 -0.3125,0.3594 -0.3125,0.9688 z m 6.2343,-2.3594 v 1.2031 h -1.0312 v 2.2969 q 0,0.7031 0.0312,0.8203 0.0313,0.1172 0.1329,0.1875 0.1015,0.0703 0.2578,0.0703 0.2031,0 0.6093,-0.1406 l 0.125,1.1719 q -0.5312,0.2187 -1.1874,0.2187 -0.4219,0 -0.75,-0.1328 -0.3282,-0.1328 -0.4766,-0.3516 -0.1484,-0.2187 -0.211,-0.5937 -0.0468,-0.2656 -0.0468,-1.0625 v -2.4844 h -0.6875 v -1.2031 h 0.6875 v -1.1406 l 1.5156,-0.875 v 2.0156 z"
     clip-path="url(#clipPath1)"
     stroke="none"
     id="path1008"
     transform="translate(-4.5,-4.5)"
     style="stroke-linecap:butt;stroke-linejoin:round;text-rendering:geometricPrecision" />
  <rect
     x="381"
     y="31"
     clip-path="url(#clipPath1)"
     fill="#b2b2b2"
     width="91"
     height="70"
     stroke="none"
     id="rect1010"
     transform="translate(-4.5,-4.5)"
     style="stroke-linecap:butt;stroke-linejoin:round;text-rendering:geometricPrecision" />
  <rect
     x="378"
     y="28"
     clip-path="url(#clipPath1)"
     fill="url(#linearGradient5)"
     width="91"
     height="70"
     stroke="none"
     id="rect1012"
     style="fill:url(#linearGradient5);stroke-linecap:butt;stroke-linejoin:round;text-rendering:geometricPrecision"
     transform="translate(-4.5,-4.5)" />
  <rect
     x="378"
     y="28"
     clip-path="url(#clipPath1)"
     fill="none"
     width="91"
     height="70"
     stroke="#99795c"
     id="rect1014"
     transform="translate(-4.5,-4.5)"
     style="stroke-linecap:butt;stroke-linejoin:round;text-rendering:geometricPrecision" />
  <path
     fill="#000000"
     d="m 399.8281,38.6541 1.3907,2.4531 h -0.7813 l -1.7187,-2.4531 1.7187,-2.4375 h 0.7969 z m 2.0781,0 1.4219,2.4531 H 402.5 l -1.6719,-2.4531 1.6719,-2.4375 h 0.8281 z m 6.7188,1 1,0.125 q -0.2344,0.875 -0.875,1.3593 -0.6406,0.4844 -1.625,0.4844 -1.25,0 -1.9844,-0.7656 -0.7344,-0.7656 -0.7344,-2.1563 0,-1.4531 0.7422,-2.2422 0.7422,-0.789 1.9141,-0.789 1.1563,0 1.875,0.7734 0.7187,0.7735 0.7187,2.1953 0,0.0782 0,0.25 h -4.25 q 0.0469,0.9375 0.5235,1.4375 0.4765,0.5 1.1953,0.5 0.5312,0 0.9062,-0.2734 0.375,-0.2734 0.5938,-0.8984 z m -3.1719,-1.5625 h 3.1875 q -0.0625,-0.7188 -0.3594,-1.0782 -0.4687,-0.5468 -1.2031,-0.5468 -0.6719,0 -1.125,0.4453 -0.4531,0.4453 -0.5,1.1797 z m 4.625,3.4062 2.0938,-2.9687 -1.9375,-2.7344 h 1.2031 l 0.8906,1.3437 q 0.2344,0.375 0.3907,0.625 0.2343,-0.3437 0.4374,-0.625 l 0.9532,-1.3437 h 1.1562 l -1.9687,2.6875 2.125,3.0156 h -1.1875 l -1.1719,-1.7656 -0.3125,-0.4844 -1.5,2.25 z m 8.7657,-0.8594 0.125,0.8438 q -0.4063,0.0937 -0.7188,0.0937 -0.5312,0 -0.8203,-0.1718 -0.2891,-0.1719 -0.4063,-0.4375 -0.1172,-0.2657 -0.1172,-1.1407 v -3.2812 h -0.7187 v -0.75 h 0.7187 v -1.4063 l 0.9532,-0.5937 v 2 h 0.9844 v 0.75 h -0.9844 v 3.3437 q 0,0.4063 0.0547,0.5235 0.0547,0.1172 0.1718,0.1875 0.1172,0.0703 0.3203,0.0703 0.1719,0 0.4376,-0.0313 z m 4.7812,-0.9843 1,0.125 q -0.2344,0.875 -0.875,1.3593 -0.6406,0.4844 -1.625,0.4844 -1.25,0 -1.9844,-0.7656 -0.7344,-0.7656 -0.7344,-2.1563 0,-1.4531 0.7422,-2.2422 0.7422,-0.789 1.9141,-0.789 1.1563,0 1.875,0.7734 0.7187,0.7735 0.7187,2.1953 0,0.0782 0,0.25 h -4.25 q 0.0469,0.9375 0.5235,1.4375 0.4765,0.5 1.1953,0.5 0.5312,0 0.9062,-0.2734 0.375,-0.2734 0.5938,-0.8984 z m -3.1719,-1.5625 h 3.1875 q -0.0625,-0.7188 -0.3594,-1.0782 -0.4687,-0.5468 -1.2031,-0.5468 -0.6719,0 -1.125,0.4453 -0.4531,0.4453 -0.5,1.1797 z m 5.2657,3.4062 v -5.7031 h 0.8593 v 0.8594 q 0.3438,-0.6094 0.625,-0.7969 0.2813,-0.1875 0.6094,-0.1875 0.5,0 1,0.3125 l -0.3281,0.8906 q -0.3594,-0.2031 -0.7188,-0.2031 -0.3125,0 -0.5625,0.1875 -0.25,0.1875 -0.3593,0.5312 -0.1563,0.5157 -0.1563,1.125 v 2.9844 z m 4,0 v -5.7031 h 0.875 v 0.8125 q 0.625,-0.9375 1.8124,-0.9375 0.5157,0 0.9532,0.1797 0.4375,0.1797 0.6484,0.4843 0.211,0.3047 0.3047,0.711 0.0469,0.2812 0.0469,0.9531 v 3.5 h -0.9688 v -3.4687 q 0,-0.5938 -0.1094,-0.8829 -0.1093,-0.289 -0.3984,-0.4687 -0.289,-0.1797 -0.6797,-0.1797 -0.6093,0 -1.0625,0.3906 -0.4531,0.3907 -0.4531,1.5 v 3.1094 z m 9.7343,-0.7031 q -0.5469,0.4531 -1.039,0.6406 -0.4922,0.1875 -1.0703,0.1875 -0.9376,0 -1.4454,-0.4609 -0.5078,-0.461 -0.5078,-1.1641 0,-0.4219 0.1953,-0.7656 0.1953,-0.3438 0.5,-0.5547 0.3047,-0.2109 0.6953,-0.3203 0.2813,-0.0781 0.8594,-0.1406 1.1719,-0.1407 1.7188,-0.3438 0.0156,-0.1875 0.0156,-0.25 0,-0.5937 -0.2812,-0.8281 -0.3594,-0.3281 -1.0938,-0.3281 -0.6875,0 -1.0078,0.2343 -0.3203,0.2344 -0.4766,0.8438 l -0.9531,-0.125 q 0.125,-0.6094 0.4219,-0.9844 0.2968,-0.375 0.8594,-0.5703 0.5624,-0.1953 1.2968,-0.1953 0.7344,0 1.1875,0.1719 0.4531,0.1718 0.6641,0.4296 0.2109,0.2579 0.3047,0.6485 0.0469,0.25 0.0469,0.9062 v 1.2813 q 0,1.3437 0.0624,1.7031 0.0626,0.3594 0.25,0.6875 h -1.0156 q -0.1562,-0.2969 -0.1875,-0.7031 z m -0.0937,-2.1563 q -0.5156,0.2188 -1.5782,0.3594 -0.5937,0.0938 -0.8359,0.1953 -0.2422,0.1016 -0.3828,0.3125 -0.1406,0.211 -0.1406,0.461 0,0.3906 0.2969,0.6484 0.2968,0.2578 0.8593,0.2578 0.5625,0 0.9922,-0.25 0.4297,-0.25 0.6485,-0.6719 0.1406,-0.3281 0.1406,-0.9687 z m 2.3437,2.8594 v -7.875 h 0.9688 v 7.875 z m 5.5469,-2.8437 -1.4062,-2.4375 h 0.7968 l 1.7188,2.4375 -1.7188,2.4531 h -0.7812 z m -2.0781,0 -1.4219,-2.4375 h 0.8125 l 1.6875,2.4375 -1.6875,2.4531 H 443.75 Z"
     clip-path="url(#clipPath1)"
     stroke="none"
     id="path1016"
     transform="translate(-4.5,-4.5)"
     style="stroke-linecap:butt;stroke-linejoin:round;text-rendering:geometricPrecision" />
  <path
     fill="#000000"
     d="m 392.8125,56.4978 v -7.875 h 3.3437 q 1.2657,0 1.836,0.2109 0.5703,0.211 0.914,0.7579 0.3438,0.5468 0.3438,1.2343 0,0.8907 -0.5234,1.4688 -0.5235,0.5781 -1.5547,0.7344 0.5156,0.2968 0.8515,0.6562 0.336,0.3594 0.8985,1.2813 l 0.9687,1.5312 h -1.9062 l -1.1563,-1.7187 q -0.6093,-0.9063 -0.8359,-1.1485 -0.2266,-0.2422 -0.4766,-0.3281 -0.25,-0.0859 -0.7968,-0.0859 h -0.3282 v 3.2812 z m 1.5781,-4.5469 h 1.1875 q 1.1407,0 1.4219,-0.0937 0.2812,-0.0938 0.4453,-0.3281 0.1641,-0.2344 0.1641,-0.5938 0,-0.4062 -0.211,-0.6484 -0.2109,-0.2422 -0.6015,-0.3047 -0.1875,-0.0313 -1.1563,-0.0313 h -1.25 z m 8.7032,2.7344 1.5,0.25 q -0.2813,0.8281 -0.9063,1.2578 -0.625,0.4297 -1.5781,0.4297 -1.4844,0 -2.2032,-0.9687 -0.5624,-0.7813 -0.5624,-1.9688 0,-1.4219 0.7421,-2.2187 0.7422,-0.7969 1.8829,-0.7969 1.2656,0 2,0.8359 0.7343,0.836 0.7031,2.5703 h -3.7813 q 0.0156,0.6719 0.3672,1.0469 0.3516,0.375 0.8672,0.375 0.3594,0 0.6016,-0.1953 0.2422,-0.1953 0.3672,-0.6172 z m 0.0781,-1.5312 q -0.0157,-0.6563 -0.336,-0.9922 -0.3203,-0.336 -0.7734,-0.336 -0.5,0 -0.8281,0.3594 -0.3125,0.3594 -0.3125,0.9688 z m -2.125,-3.6563 0.75,-1.6094 h 1.6875 L 402,49.4978 Z m 5.2187,5.375 1.5,-0.2344 q 0.1094,0.4375 0.3985,0.6641 0.289,0.2266 0.8203,0.2266 0.5937,0 0.8906,-0.2032 0.2031,-0.1562 0.2031,-0.4062 0,-0.1719 -0.1093,-0.2813 -0.125,-0.1093 -0.5157,-0.2031 -1.8125,-0.4062 -2.3125,-0.7344 -0.6718,-0.4687 -0.6718,-1.2812 0,-0.75 0.5859,-1.25 0.5859,-0.5 1.8203,-0.5 1.1719,0 1.7344,0.375 0.5625,0.375 0.7812,1.125 l -1.4218,0.2656 q -0.0938,-0.3281 -0.3438,-0.5078 -0.25,-0.1797 -0.7344,-0.1797 -0.5937,0 -0.8437,0.1719 -0.1719,0.1094 -0.1719,0.2969 0,0.1718 0.1406,0.2812 0.2032,0.1563 1.4141,0.4297 1.2109,0.2734 1.6797,0.6641 0.4844,0.4062 0.4844,1.125 0,0.7812 -0.6563,1.3437 -0.6563,0.5625 -1.9531,0.5625 -1.1563,0 -1.836,-0.4687 -0.6796,-0.4688 -0.8828,-1.2813 z m 10.8282,-0.1875 1.5,0.25 q -0.2813,0.8281 -0.9063,1.2578 -0.625,0.4297 -1.5781,0.4297 -1.4844,0 -2.2032,-0.9687 -0.5624,-0.7813 -0.5624,-1.9688 0,-1.4219 0.7421,-2.2187 0.7422,-0.7969 1.8829,-0.7969 1.2656,0 2,0.8359 0.7343,0.836 0.7031,2.5703 h -3.7813 q 0.0156,0.6719 0.3672,1.0469 0.3516,0.375 0.8672,0.375 0.3594,0 0.6016,-0.1953 0.2422,-0.1953 0.3672,-0.6172 z m 0.0781,-1.5312 q -0.0157,-0.6563 -0.336,-0.9922 -0.3203,-0.336 -0.7734,-0.336 -0.5,0 -0.8281,0.3594 -0.3125,0.3594 -0.3125,0.9688 z m 4.75,-0.625 -1.375,-0.25 q 0.2343,-0.8125 0.7969,-1.211 0.5624,-0.3984 1.6718,-0.3984 1.0156,0 1.5078,0.2344 0.4922,0.2343 0.6954,0.6015 0.2031,0.3672 0.2031,1.3516 l -0.0157,1.7656 q 0,0.75 0.0704,1.1094 0.0703,0.3594 0.2734,0.7656 h -1.5 q -0.0625,-0.1562 -0.1406,-0.4531 -0.0313,-0.125 -0.0469,-0.1719 -0.3906,0.375 -0.8359,0.5625 -0.4454,0.1875 -0.9454,0.1875 -0.875,0 -1.3828,-0.4766 -0.5078,-0.4765 -0.5078,-1.2109 0,-0.4844 0.2344,-0.8594 0.2344,-0.375 0.6484,-0.5781 0.4141,-0.2031 1.1954,-0.3594 1.0624,-0.1875 1.4687,-0.3593 v -0.1563 q 0,-0.4375 -0.2187,-0.6172 -0.2188,-0.1797 -0.8126,-0.1797 -0.3906,0 -0.6171,0.1563 -0.2266,0.1562 -0.3672,0.5469 z m 2.0156,1.2343 q -0.2969,0.0938 -0.9219,0.2266 -0.625,0.1328 -0.8125,0.2578 -0.2969,0.2188 -0.2969,0.5313 0,0.3281 0.2344,0.5546 0.2344,0.2266 0.5938,0.2266 0.4062,0 0.7812,-0.2656 0.2813,-0.2031 0.3594,-0.5 0.0625,-0.1875 0.0625,-0.7344 z m 6.6094,2.7344 v -0.8594 q -0.3125,0.4688 -0.8203,0.7266 -0.5078,0.2578 -1.0704,0.2578 -0.5781,0 -1.0312,-0.25 -0.4531,-0.25 -0.6641,-0.7109 -0.2109,-0.461 -0.2109,-1.2578 v -3.6094 h 1.5156 v 2.625 q 0,1.2031 0.086,1.4687 0.0859,0.2657 0.3046,0.4297 0.2188,0.1641 0.5626,0.1641 0.375,0 0.6874,-0.211 0.3126,-0.2109 0.4219,-0.5312 0.1094,-0.3203 0.1094,-1.5391 v -2.4062 h 1.5156 v 5.7031 z m 6.25,0 v -7.875 h 5.8437 v 1.3281 h -4.25 v 1.75 h 3.9532 v 1.3282 h -3.9532 v 2.1406 h 4.4063 v 1.3281 z m 6,-7.875 h 2.9062 q 0.9844,0 1.5,0.1563 0.6875,0.2031 1.1797,0.7187 0.4922,0.5156 0.75,1.2734 0.2578,0.7579 0.2578,1.8672 0,0.9688 -0.2344,1.6719 -0.2968,0.8594 -0.8437,1.3906 -0.4219,0.4063 -1.125,0.625 -0.5156,0.1719 -1.4063,0.1719 h -2.9843 z m 1.5937,1.3281 v 5.2188 h 1.1875 q 0.6563,0 0.9531,-0.0781 0.3907,-0.0938 0.6485,-0.3204 0.2578,-0.2265 0.4141,-0.7578 0.1562,-0.5312 0.1562,-1.4531 0,-0.9062 -0.1562,-1.3984 -0.1563,-0.4922 -0.4532,-0.7657 -0.2968,-0.2734 -0.7344,-0.3671 -0.3281,-0.0782 -1.3124,-0.0782 z m 5.4219,6.5469 v -7.875 h 5.3906 v 1.3281 h -3.7969 v 1.875 h 3.2813 v 1.3282 h -3.2813 v 3.3437 z"
     clip-path="url(#clipPath1)"
     stroke="none"
     id="path1018"
     transform="translate(-4.5,-4.5)"
     style="stroke-linecap:butt;stroke-linejoin:round;text-rendering:geometricPrecision" />
  <path
     fill="none"
     d="M 203,94 147,75"
     clip-path="url(#clipPath1)"
     id="path1020"
     transform="translate(-4.5,-4.5)"
     style="stroke:#424242;stroke-linecap:butt;stroke-linejoin:round;text-rendering:geometricPrecision" />
  <path
     fill="none"
     d="M 203,140 H 158"
     clip-path="url(#clipPath1)"
     id="path1022"
     transform="translate(-4.5,-4.5)"
     style="stroke:#424242;stroke-linecap:butt;stroke-linejoin:round;text-rendering:geometricPrecision" />
  <path
     fill="none"
     d="M 399,161 H 357"
     clip-path="url(#clipPath1)"
     id="path1024"
     transform="translate(-4.5,-4.5)"
     style="stroke:#424242;stroke-linecap:butt;stroke-linejoin:round;text-rendering:geometricPrecision" />
  <path
     fill="none"
     d="M 378,46 H 357"
     clip-path="url(#clipPath1)"
     id="path1026"
     transform="translate(-4.5,-4.5)"
     style="stroke:#424242;stroke-linecap:butt;stroke-linejoin:round;text-rendering:geometricPrecision" />
</svg>
