<?xml version="1.0" encoding="UTF-8" standalone="no"?>
<svg
   fill-opacity="1"
   color-rendering="auto"
   color-interpolation="auto"
   text-rendering="auto"
   stroke="#000000"
   stroke-linecap="square"
   width="4.2604165in"
   stroke-miterlimit="10"
   shape-rendering="auto"
   stroke-opacity="1"
   fill="#000000"
   stroke-dasharray="none"
   font-weight="normal"
   stroke-width="1"
   viewBox="0 0 408.99997 226.99999"
   height="2.3645833in"
   font-family="Arial"
   font-style="normal"
   stroke-linejoin="miter"
   font-size="12px"
   stroke-dashoffset="0"
   image-rendering="auto"
   version="1.1"
   id="svg121"
   sodipodi:docname="DR02.svg"
   inkscape:version="1.2.2 (b0a8486541, 2022-12-01)"
   xmlns:inkscape="http://www.inkscape.org/namespaces/inkscape"
   xmlns:sodipodi="http://sodipodi.sourceforge.net/DTD/sodipodi-0.dtd"
   xmlns="http://www.w3.org/2000/svg"
   xmlns:svg="http://www.w3.org/2000/svg">
  <sodipodi:namedview
     id="namedview123"
     pagecolor="#ffffff"
     bordercolor="#666666"
     borderopacity="1.0"
     inkscape:showpageshadow="2"
     inkscape:pageopacity="0.0"
     inkscape:pagecheckerboard="0"
     inkscape:deskcolor="#d1d1d1"
     inkscape:document-units="in"
     showgrid="false"
     inkscape:zoom="0.95934959"
     inkscape:cx="207.95339"
     inkscape:cy="118.83051"
     inkscape:window-width="1600"
     inkscape:window-height="831"
     inkscape:window-x="0"
     inkscape:window-y="32"
     inkscape:window-maximized="1"
     inkscape:current-layer="svg121" />
  <!--Generated by the Batik Graphics2D SVG Generator
 This is MagicDraw diagram.-->
  <defs
     id="genericDefs">
    <defs
       id="defs1">
      <linearGradient
         x1="161"
         gradientUnits="userSpaceOnUse"
         x2="392"
         y1="32"
         y2="210"
         id="linearGradient1"
         spreadMethod="pad">
        <stop
           stop-opacity="1"
           stop-color="rgb(212,221,255)"
           offset="0%"
           id="stop3" />
        <stop
           stop-opacity="1"
           stop-color="white"
           offset="100%"
           id="stop5" />
      </linearGradient>
      <linearGradient
         x1="210"
         gradientUnits="userSpaceOnUse"
         x2="350"
         y1="84"
         y2="164"
         id="linearGradient2"
         spreadMethod="pad">
        <stop
           stop-opacity="1"
           stop-color="rgb(255,255,204)"
           offset="0%"
           id="stop8" />
        <stop
           stop-opacity="1"
           stop-color="white"
           offset="100%"
           id="stop10" />
      </linearGradient>
      <linearGradient
         x1="63"
         gradientUnits="userSpaceOnUse"
         x2="90"
         y1="105"
         y2="132"
         id="linearGradient3"
         spreadMethod="pad">
        <stop
           stop-opacity="1"
           stop-color="rgb(255,255,204)"
           offset="0%"
           id="stop13" />
        <stop
           stop-opacity="1"
           stop-color="white"
           offset="100%"
           id="stop15" />
      </linearGradient>
      <clipPath
         clipPathUnits="userSpaceOnUse"
         id="clipPath1">
        <path
           d="M 0,0 H 428 V 246 H 0 Z"
           id="path18" />
      </clipPath>
      <clipPath
         clipPathUnits="userSpaceOnUse"
         id="clipPath2">
        <path
           d="M -31.1241,171.3949 263.5956,-110.7475 419.8803,52.5041 125.1606,334.6465 Z"
           id="path21" />
      </clipPath>
    </defs>
  </defs>
  <rect
     fill="none"
     x="5"
     width="408"
     height="226"
     y="5"
     clip-path="url(#clipPath1)"
     id="rect39"
     transform="translate(-4.5,-4.5)"
     style="stroke:#424242;stroke-linecap:butt;stroke-linejoin:round;text-rendering:geometricPrecision" />
  <path
     fill="#000000"
     d="m 110.8438,18.4978 v -7.875 h 2.7187 q 0.9219,0 1.4063,0.1094 0.6718,0.1562 1.1562,0.5625 0.6094,0.5312 0.9219,1.3515 0.3125,0.8204 0.3125,1.8672 0,0.9063 -0.211,1.5938 -0.2109,0.6875 -0.539,1.1406 -0.3282,0.4531 -0.7188,0.7188 -0.3906,0.2656 -0.9375,0.3984 -0.5469,0.1328 -1.2656,0.1328 z m 1.0468,-0.9219 h 1.6875 q 0.7657,0 1.211,-0.1484 0.4453,-0.1484 0.7109,-0.4141 0.375,-0.375 0.5781,-1 0.2031,-0.625 0.2031,-1.5156 0,-1.2344 -0.4062,-1.8984 -0.4062,-0.6641 -0.9844,-0.8828 -0.4218,-0.1563 -1.3437,-0.1563 h -1.6563 z m 5.8438,-5.8437 v -1.1094 h 0.9687 v 1.1094 z m 0,6.7656 v -5.7031 h 0.9687 v 5.7031 z m 5.7187,-0.7031 q -0.5469,0.4531 -1.039,0.6406 -0.4922,0.1875 -1.0703,0.1875 -0.9376,0 -1.4454,-0.4609 -0.5078,-0.461 -0.5078,-1.1641 0,-0.4219 0.1953,-0.7656 0.1953,-0.3438 0.5,-0.5547 0.3047,-0.2109 0.6953,-0.3203 0.2813,-0.0781 0.8594,-0.1406 1.1719,-0.1407 1.7188,-0.3438 0.0156,-0.1875 0.0156,-0.25 0,-0.5937 -0.2812,-0.8281 -0.3594,-0.3281 -1.0938,-0.3281 -0.6875,0 -1.0078,0.2343 -0.3203,0.2344 -0.4766,0.8438 l -0.9531,-0.125 q 0.125,-0.6094 0.4219,-0.9844 0.2968,-0.375 0.8594,-0.5703 0.5624,-0.1953 1.2968,-0.1953 0.7344,0 1.1875,0.1719 0.4531,0.1718 0.6641,0.4296 0.2109,0.2579 0.3047,0.6485 0.0469,0.25 0.0469,0.9062 v 1.2813 q 0,1.3437 0.0624,1.7031 0.0626,0.3594 0.25,0.6875 h -1.0156 q -0.1562,-0.2969 -0.1875,-0.7031 z m -0.0937,-2.1563 q -0.5156,0.2188 -1.5782,0.3594 -0.5937,0.0938 -0.8359,0.1953 -0.2422,0.1016 -0.3828,0.3125 -0.1406,0.211 -0.1406,0.461 0,0.3906 0.2969,0.6484 0.2968,0.2578 0.8593,0.2578 0.5625,0 0.9922,-0.25 0.4297,-0.25 0.6485,-0.6719 0.1406,-0.3281 0.1406,-0.9687 z m 2.1875,3.3282 0.9375,0.1406 q 0.0625,0.4375 0.3281,0.6406 0.3594,0.2656 0.9844,0.2656 0.6719,0 1.039,-0.2656 0.3672,-0.2656 0.4922,-0.75 0.0781,-0.2969 0.0781,-1.25 -0.6406,0.75 -1.5937,0.75 -1.1719,0 -1.8125,-0.8516 -0.6406,-0.8515 -0.6406,-2.039 0,-0.8125 0.2968,-1.5 0.2969,-0.6875 0.8516,-1.0625 0.5547,-0.375 1.3203,-0.375 1,0 1.6563,0.8125 v -0.6875 h 0.8906 v 4.9219 q 0,1.3437 -0.2656,1.8984 -0.2656,0.5547 -0.8594,0.875 -0.5938,0.3203 -1.4531,0.3203 -1.0157,0 -1.6407,-0.4609 -0.625,-0.461 -0.6093,-1.3828 z m 0.7969,-3.4219 q 0,1.125 0.4453,1.6406 0.4453,0.5156 1.1171,0.5156 0.6719,0 1.125,-0.5156 0.4532,-0.5156 0.4532,-1.6094 0,-1.0468 -0.4688,-1.5781 -0.4687,-0.5312 -1.125,-0.5312 -0.6406,0 -1.0937,0.5234 -0.4531,0.5234 -0.4531,1.5547 z m 5.375,2.9531 v -5.7031 h 0.8593 v 0.8594 q 0.3438,-0.6094 0.625,-0.7969 0.2813,-0.1875 0.6094,-0.1875 0.5,0 1,0.3125 l -0.3281,0.8906 q -0.3594,-0.2031 -0.7188,-0.2031 -0.3125,0 -0.5625,0.1875 -0.25,0.1875 -0.3593,0.5312 -0.1563,0.5157 -0.1563,1.125 v 2.9844 z m 7.7343,-0.7031 q -0.5469,0.4531 -1.039,0.6406 -0.4922,0.1875 -1.0703,0.1875 -0.9376,0 -1.4454,-0.4609 -0.5078,-0.461 -0.5078,-1.1641 0,-0.4219 0.1953,-0.7656 0.1953,-0.3438 0.5,-0.5547 0.3047,-0.2109 0.6953,-0.3203 0.2813,-0.0781 0.8594,-0.1406 1.1719,-0.1407 1.7188,-0.3438 0.0156,-0.1875 0.0156,-0.25 0,-0.5937 -0.2812,-0.8281 -0.3594,-0.3281 -1.0938,-0.3281 -0.6875,0 -1.0078,0.2343 -0.3203,0.2344 -0.4766,0.8438 l -0.9531,-0.125 q 0.125,-0.6094 0.4219,-0.9844 0.2968,-0.375 0.8594,-0.5703 0.5624,-0.1953 1.2968,-0.1953 0.7344,0 1.1875,0.1719 0.4531,0.1718 0.6641,0.4296 0.2109,0.2579 0.3047,0.6485 0.0469,0.25 0.0469,0.9062 v 1.2813 q 0,1.3437 0.0624,1.7031 0.0626,0.3594 0.25,0.6875 h -1.0156 q -0.1562,-0.2969 -0.1875,-0.7031 z m -0.0937,-2.1563 q -0.5156,0.2188 -1.5782,0.3594 -0.5937,0.0938 -0.8359,0.1953 -0.2422,0.1016 -0.3828,0.3125 -0.1406,0.211 -0.1406,0.461 0,0.3906 0.2969,0.6484 0.2968,0.2578 0.8593,0.2578 0.5625,0 0.9922,-0.25 0.4297,-0.25 0.6485,-0.6719 0.1406,-0.3281 0.1406,-0.9687 z m 2.3594,2.8594 v -5.7031 h 0.875 v 0.7969 q 0.2656,-0.4219 0.7109,-0.6719 0.4453,-0.25 1.0078,-0.25 0.6406,0 1.0469,0.2578 0.4062,0.2578 0.5781,0.7422 0.6719,-1 1.75,-1 0.8594,0 1.3125,0.4687 0.4531,0.4688 0.4531,1.4375 v 3.9219 H 148.5 v -3.5937 q 0,-0.5782 -0.0938,-0.836 -0.0937,-0.2578 -0.3437,-0.414 -0.25,-0.1563 -0.5781,-0.1563 -0.6094,0 -1.0078,0.4063 -0.3985,0.4062 -0.3985,1.2812 v 3.3125 h -0.9687 v -3.7031 q 0,-0.6406 -0.2344,-0.9688 -0.2344,-0.3281 -0.7656,-0.3281 -0.4063,0 -0.7578,0.2188 -0.3516,0.2187 -0.5078,0.6328 -0.1563,0.414 -0.1563,1.1953 v 2.9531 z m 8,0 v -5.7031 h 0.875 v 0.7969 q 0.2656,-0.4219 0.7109,-0.6719 0.4453,-0.25 1.0078,-0.25 0.6406,0 1.0469,0.2578 0.4062,0.2578 0.5781,0.7422 0.6719,-1 1.75,-1 0.8594,0 1.3125,0.4687 0.4531,0.4688 0.4531,1.4375 v 3.9219 H 156.5 v -3.5937 q 0,-0.5782 -0.0938,-0.836 -0.0937,-0.2578 -0.3437,-0.414 -0.25,-0.1563 -0.5781,-0.1563 -0.6094,0 -1.0078,0.4063 -0.3985,0.4062 -0.3985,1.2812 v 3.3125 h -0.9687 v -3.7031 q 0,-0.6406 -0.2344,-0.9688 -0.2344,-0.3281 -0.7656,-0.3281 -0.4063,0 -0.7578,0.2188 -0.3516,0.2187 -0.5078,0.6328 -0.1563,0.414 -0.1563,1.1953 v 2.9531 z m 11.9062,-1.8437 1,0.125 q -0.2344,0.875 -0.875,1.3593 -0.6406,0.4844 -1.625,0.4844 -1.25,0 -1.9844,-0.7656 -0.7344,-0.7656 -0.7344,-2.1563 0,-1.4531 0.7422,-2.2422 0.7422,-0.789 1.9141,-0.789 1.1563,0 1.875,0.7734 0.7187,0.7735 0.7187,2.1953 0,0.0782 0,0.25 h -4.25 q 0.0469,0.9375 0.5235,1.4375 0.4765,0.5 1.1953,0.5 0.5312,0 0.9062,-0.2734 0.375,-0.2734 0.5938,-0.8984 z m -3.1719,-1.5625 h 3.1875 q -0.0625,-0.7188 -0.3594,-1.0782 -0.4687,-0.5468 -1.2031,-0.5468 -0.6719,0 -1.125,0.4453 -0.4531,0.4453 -0.5,1.1797 z m 11.9688,3.4062 v -0.7187 q -0.5313,0.8437 -1.5938,0.8437 -0.6719,0 -1.25,-0.375 -0.5781,-0.375 -0.8906,-1.0469 -0.3125,-0.6718 -0.3125,-1.5468 0,-0.8594 0.2891,-1.5547 0.289,-0.6953 0.8515,-1.0625 0.5625,-0.3672 1.2656,-0.3672 0.5157,0 0.9219,0.2187 0.4063,0.2188 0.6563,0.5625 v -2.8281 h 0.9687 v 7.875 z m -3.0469,-2.8437 q 0,1.0937 0.4609,1.6328 0.461,0.539 1.086,0.539 0.6406,0 1.0781,-0.5156 0.4375,-0.5156 0.4375,-1.5781 0,-1.1719 -0.4453,-1.7188 -0.4453,-0.5468 -1.1172,-0.5468 -0.6406,0 -1.0703,0.5234 -0.4297,0.5234 -0.4297,1.6641 z m 9.25,1 1,0.125 q -0.2344,0.875 -0.875,1.3593 -0.6406,0.4844 -1.625,0.4844 -1.25,0 -1.9844,-0.7656 -0.7344,-0.7656 -0.7344,-2.1563 0,-1.4531 0.7422,-2.2422 0.7422,-0.789 1.9141,-0.789 1.1563,0 1.875,0.7734 0.7187,0.7735 0.7187,2.1953 0,0.0782 0,0.25 h -4.25 q 0.0469,0.9375 0.5235,1.4375 0.4765,0.5 1.1953,0.5 0.5312,0 0.9062,-0.2734 0.375,-0.2734 0.5938,-0.8984 z m -3.1719,-1.5625 h 3.1875 q -0.0625,-0.7188 -0.3594,-1.0782 -0.4687,-0.5468 -1.2031,-0.5468 -0.6719,0 -1.125,0.4453 -0.4531,0.4453 -0.5,1.1797 z m 4.8907,1.7031 0.9531,-0.1563 q 0.0781,0.5782 0.4453,0.8828 0.3672,0.3047 1.0234,0.3047 0.6719,0 0.9922,-0.2656 0.3203,-0.2656 0.3203,-0.6406 0,-0.3281 -0.2812,-0.5156 -0.2031,-0.125 -0.9844,-0.3282 -1.0625,-0.2656 -1.4766,-0.4609 -0.414,-0.1953 -0.625,-0.5391 -0.2109,-0.3437 -0.2109,-0.7656 0,-0.3906 0.1719,-0.7109 0.1719,-0.3203 0.4843,-0.5391 0.2188,-0.1719 0.6094,-0.2812 0.3906,-0.1094 0.8282,-0.1094 0.6718,0 1.1796,0.1875 0.5078,0.1875 0.75,0.5234 0.2422,0.336 0.336,0.8828 l -0.9375,0.125 q -0.0781,-0.4375 -0.3828,-0.6797 -0.3047,-0.2421 -0.8672,-0.2421 -0.6719,0 -0.9531,0.2187 -0.2813,0.2188 -0.2813,0.5156 0,0.1875 0.1094,0.3282 0.125,0.1562 0.375,0.2656 0.1406,0.0469 0.8593,0.25 1.0157,0.2656 1.4219,0.4375 0.4063,0.1719 0.6407,0.5078 0.2343,0.3359 0.2343,0.8359 0,0.4844 -0.2812,0.9063 -0.2813,0.4219 -0.8125,0.6562 -0.5313,0.2344 -1.2032,0.2344 -1.1093,0 -1.6953,-0.4609 -0.5859,-0.461 -0.7421,-1.3672 z m 18.125,-1.0625 1.0468,0.2656 q -0.3281,1.2813 -1.1797,1.9609 -0.8515,0.6797 -2.0859,0.6797 -1.2812,0 -2.0781,-0.5234 -0.7969,-0.5234 -1.211,-1.5078 -0.414,-0.9844 -0.414,-2.1094 0,-1.2187 0.4687,-2.1406 0.4688,-0.9219 1.336,-1.3985 0.8672,-0.4765 1.914,-0.4765 1.1875,0 1.9922,0.6015 0.8047,0.6016 1.1172,1.6954 l -1.0312,0.25 q -0.2657,-0.8594 -0.7891,-1.25 -0.5235,-0.3907 -1.3047,-0.3907 -0.9219,0 -1.5312,0.4297 -0.6094,0.4297 -0.8516,1.1641 -0.2422,0.7344 -0.2422,1.5156 0,1 0.2891,1.75 0.289,0.75 0.9062,1.125 0.6172,0.375 1.3359,0.375 0.875,0 1.4844,-0.5078 0.6094,-0.5078 0.8282,-1.5078 z m 4.9843,2.0625 q -0.5469,0.4531 -1.039,0.6406 -0.4922,0.1875 -1.0703,0.1875 -0.9376,0 -1.4454,-0.4609 -0.5078,-0.461 -0.5078,-1.1641 0,-0.4219 0.1953,-0.7656 0.1953,-0.3438 0.5,-0.5547 0.3047,-0.2109 0.6953,-0.3203 0.2813,-0.0781 0.8594,-0.1406 1.1719,-0.1407 1.7188,-0.3438 0.0156,-0.1875 0.0156,-0.25 0,-0.5937 -0.2812,-0.8281 -0.3594,-0.3281 -1.0938,-0.3281 -0.6875,0 -1.0078,0.2343 -0.3203,0.2344 -0.4766,0.8438 l -0.9531,-0.125 q 0.125,-0.6094 0.4219,-0.9844 0.2968,-0.375 0.8594,-0.5703 0.5624,-0.1953 1.2968,-0.1953 0.7344,0 1.1875,0.1719 0.4531,0.1718 0.6641,0.4296 0.2109,0.2579 0.3047,0.6485 0.0469,0.25 0.0469,0.9062 v 1.2813 q 0,1.3437 0.0624,1.7031 0.0626,0.3594 0.25,0.6875 h -1.0156 q -0.1562,-0.2969 -0.1875,-0.7031 z m -0.0937,-2.1563 q -0.5156,0.2188 -1.5782,0.3594 -0.5937,0.0938 -0.8359,0.1953 -0.2422,0.1016 -0.3828,0.3125 -0.1406,0.211 -0.1406,0.461 0,0.3906 0.2969,0.6484 0.2968,0.2578 0.8593,0.2578 0.5625,0 0.9922,-0.25 0.4297,-0.25 0.6485,-0.6719 0.1406,-0.3281 0.1406,-0.9687 z m 1.9844,1.1563 0.9531,-0.1563 q 0.0781,0.5782 0.4453,0.8828 0.3672,0.3047 1.0234,0.3047 0.6719,0 0.9922,-0.2656 0.3203,-0.2656 0.3203,-0.6406 0,-0.3281 -0.2812,-0.5156 -0.2031,-0.125 -0.9844,-0.3282 -1.0625,-0.2656 -1.4766,-0.4609 -0.414,-0.1953 -0.625,-0.5391 -0.2109,-0.3437 -0.2109,-0.7656 0,-0.3906 0.1719,-0.7109 0.1719,-0.3203 0.4843,-0.5391 0.2188,-0.1719 0.6094,-0.2812 0.3906,-0.1094 0.8282,-0.1094 0.6718,0 1.1796,0.1875 0.5078,0.1875 0.75,0.5234 0.2422,0.336 0.336,0.8828 l -0.9375,0.125 q -0.0781,-0.4375 -0.3828,-0.6797 -0.3047,-0.2421 -0.8672,-0.2421 -0.6719,0 -0.9531,0.2187 -0.2813,0.2188 -0.2813,0.5156 0,0.1875 0.1094,0.3282 0.125,0.1562 0.375,0.2656 0.1406,0.0469 0.8593,0.25 1.0157,0.2656 1.4219,0.4375 0.4063,0.1719 0.6407,0.5078 0.2343,0.3359 0.2343,0.8359 0,0.4844 -0.2812,0.9063 -0.2813,0.4219 -0.8125,0.6562 -0.5313,0.2344 -1.2032,0.2344 -1.1093,0 -1.6953,-0.4609 -0.5859,-0.461 -0.7421,-1.3672 z m 13.0781,1.7031 v -0.7187 q -0.5313,0.8437 -1.5938,0.8437 -0.6719,0 -1.25,-0.375 -0.5781,-0.375 -0.8906,-1.0469 -0.3125,-0.6718 -0.3125,-1.5468 0,-0.8594 0.2891,-1.5547 0.289,-0.6953 0.8515,-1.0625 0.5625,-0.3672 1.2656,-0.3672 0.5157,0 0.9219,0.2187 0.4063,0.2188 0.6563,0.5625 v -2.8281 h 0.9687 v 7.875 z m -3.0469,-2.8437 q 0,1.0937 0.4609,1.6328 0.461,0.539 1.086,0.539 0.6406,0 1.0781,-0.5156 0.4375,-0.5156 0.4375,-1.5781 0,-1.1719 -0.4453,-1.7188 -0.4453,-0.5468 -1.1172,-0.5468 -0.6406,0 -1.0703,0.5234 -0.4297,0.5234 -0.4297,1.6641 z m 5.3594,-2.25 -0.25,-1.4688 v -1.3125 h 1.0937 v 1.3125 l -0.25,1.4688 z m 7.2812,-2.7813 h 1.0469 v 4.5469 q 0,1.1875 -0.2734,1.8906 -0.2735,0.7031 -0.9688,1.1406 -0.6953,0.4375 -1.8359,0.4375 -1.1094,0 -1.8125,-0.3828 -0.7031,-0.3828 -1.0078,-1.1094 -0.3047,-0.7265 -0.3047,-1.9765 v -4.5469 h 1.0468 v 4.5469 q 0,1.0312 0.1876,1.5156 0.1874,0.4844 0.6562,0.7422 0.4688,0.2578 1.1406,0.2578 1.1406,0 1.6328,-0.5156 0.4922,-0.5156 0.4922,-2 z m 3.8282,7.0156 0.125,0.8438 q -0.4063,0.0937 -0.7188,0.0937 -0.5312,0 -0.8203,-0.1718 -0.2891,-0.1719 -0.4063,-0.4375 -0.1172,-0.2657 -0.1172,-1.1407 v -3.2812 h -0.7187 v -0.75 h 0.7187 v -1.4063 l 0.9532,-0.5937 v 2 h 0.9844 v 0.75 h -0.9844 v 3.3437 q 0,0.4063 0.0547,0.5235 0.0547,0.1172 0.1718,0.1875 0.1172,0.0703 0.3203,0.0703 0.1719,0 0.4376,-0.0313 z m 0.8906,-5.9062 v -1.1094 h 0.9687 v 1.1094 z m 0,6.7656 v -5.7031 h 0.9687 v 5.7031 z m 1.9687,0 v -7.875 h 0.9688 v 7.875 z m 2.0313,-6.7656 v -1.1094 h 0.9687 v 1.1094 z m 0,6.7656 v -5.7031 h 0.9687 v 5.7031 z m 1.6094,-1.7031 0.9531,-0.1563 q 0.0781,0.5782 0.4453,0.8828 0.3672,0.3047 1.0234,0.3047 0.6719,0 0.9922,-0.2656 0.3203,-0.2656 0.3203,-0.6406 0,-0.3281 -0.2812,-0.5156 -0.2031,-0.125 -0.9844,-0.3282 -1.0625,-0.2656 -1.4766,-0.4609 -0.414,-0.1953 -0.625,-0.5391 -0.2109,-0.3437 -0.2109,-0.7656 0,-0.3906 0.1719,-0.7109 0.1719,-0.3203 0.4843,-0.5391 0.2188,-0.1719 0.6094,-0.2812 0.3906,-0.1094 0.8282,-0.1094 0.6718,0 1.1796,0.1875 0.5078,0.1875 0.75,0.5234 0.2422,0.336 0.336,0.8828 l -0.9375,0.125 q -0.0781,-0.4375 -0.3828,-0.6797 -0.3047,-0.2421 -0.8672,-0.2421 -0.6719,0 -0.9531,0.2187 -0.2813,0.2188 -0.2813,0.5156 0,0.1875 0.1094,0.3282 0.125,0.1562 0.375,0.2656 0.1406,0.0469 0.8593,0.25 1.0157,0.2656 1.4219,0.4375 0.4063,0.1719 0.6407,0.5078 0.2343,0.3359 0.2343,0.8359 0,0.4844 -0.2812,0.9063 -0.2813,0.4219 -0.8125,0.6562 -0.5313,0.2344 -1.2032,0.2344 -1.1093,0 -1.6953,-0.4609 -0.5859,-0.461 -0.7421,-1.3672 z m 10.1093,1 q -0.5469,0.4531 -1.039,0.6406 -0.4922,0.1875 -1.0703,0.1875 -0.9376,0 -1.4454,-0.4609 -0.5078,-0.461 -0.5078,-1.1641 0,-0.4219 0.1953,-0.7656 0.1953,-0.3438 0.5,-0.5547 0.3047,-0.2109 0.6953,-0.3203 0.2813,-0.0781 0.8594,-0.1406 1.1719,-0.1407 1.7188,-0.3438 0.0156,-0.1875 0.0156,-0.25 0,-0.5937 -0.2812,-0.8281 -0.3594,-0.3281 -1.0938,-0.3281 -0.6875,0 -1.0078,0.2343 -0.3203,0.2344 -0.4766,0.8438 l -0.9531,-0.125 q 0.125,-0.6094 0.4219,-0.9844 0.2968,-0.375 0.8594,-0.5703 0.5624,-0.1953 1.2968,-0.1953 0.7344,0 1.1875,0.1719 0.4531,0.1718 0.6641,0.4296 0.2109,0.2579 0.3047,0.6485 0.0469,0.25 0.0469,0.9062 v 1.2813 q 0,1.3437 0.0624,1.7031 0.0626,0.3594 0.25,0.6875 h -1.0156 q -0.1562,-0.2969 -0.1875,-0.7031 z m -0.0937,-2.1563 q -0.5156,0.2188 -1.5782,0.3594 -0.5937,0.0938 -0.8359,0.1953 -0.2422,0.1016 -0.3828,0.3125 -0.1406,0.211 -0.1406,0.461 0,0.3906 0.2969,0.6484 0.2968,0.2578 0.8593,0.2578 0.5625,0 0.9922,-0.25 0.4297,-0.25 0.6485,-0.6719 0.1406,-0.3281 0.1406,-0.9687 z m 4.4844,2 0.125,0.8438 q -0.4063,0.0937 -0.7188,0.0937 -0.5312,0 -0.8203,-0.1718 -0.2891,-0.1719 -0.4063,-0.4375 -0.1172,-0.2657 -0.1172,-1.1407 v -3.2812 h -0.7187 v -0.75 h 0.7187 v -1.4063 l 0.9532,-0.5937 v 2 h 0.9844 v 0.75 h -0.9844 v 3.3437 q 0,0.4063 0.0547,0.5235 0.0547,0.1172 0.1718,0.1875 0.1172,0.0703 0.3203,0.0703 0.1719,0 0.4376,-0.0313 z m 0.8906,-5.9062 v -1.1094 h 0.9687 v 1.1094 z m 0,6.7656 v -5.7031 h 0.9687 v 5.7031 z m 1.625,-2.8594 q 0,-1.5781 0.8906,-2.3437 0.7344,-0.625 1.7969,-0.625 1.1719,0 1.914,0.7656 0.7422,0.7656 0.7422,2.125 0,1.1094 -0.3281,1.7422 -0.3281,0.6328 -0.9609,0.9766 -0.6329,0.3437 -1.3672,0.3437 -1.2031,0 -1.9453,-0.7656 -0.7422,-0.7656 -0.7422,-2.2188 z m 1,0 q 0,1.1094 0.4765,1.6485 0.4766,0.539 1.211,0.539 0.7187,0 1.1953,-0.5468 0.4766,-0.5469 0.4766,-1.6719 0,-1.0469 -0.4844,-1.5938 -0.4844,-0.5468 -1.1875,-0.5468 -0.7344,0 -1.211,0.539 -0.4765,0.5391 -0.4765,1.6328 z m 5.3594,2.8594 v -5.7031 h 0.875 v 0.8125 q 0.625,-0.9375 1.8124,-0.9375 0.5157,0 0.9532,0.1797 0.4375,0.1797 0.6484,0.4843 0.211,0.3047 0.3047,0.711 0.0469,0.2812 0.0469,0.9531 v 3.5 h -0.9688 v -3.4687 q 0,-0.5938 -0.1094,-0.8829 -0.1093,-0.289 -0.3984,-0.4687 -0.289,-0.1797 -0.6797,-0.1797 -0.6093,0 -1.0625,0.3906 -0.4531,0.3907 -0.4531,1.5 v 3.1094 z"
     clip-path="url(#clipPath1)"
     stroke="none"
     id="path41"
     transform="translate(-4.5,-4.5)"
     style="stroke-linecap:butt;stroke-linejoin:round;text-rendering:geometricPrecision" />
  <path
     fill="#000000"
     d="M 29.75,20.6853 V 10.6228 h 2.125 v 0.7969 h -1.1562 v 8.4687 h 1.1562 v 0.7969 z m 3.0625,-2.1875 v -7.875 h 1.5781 l 1.8594,5.5781 q 0.25,0.7813 0.375,1.1563 0.1406,-0.4219 0.4219,-1.25 l 1.875,-5.4844 h 1.4062 v 7.875 h -1 v -6.5937 l -2.2969,6.5937 h -0.9374 l -2.2657,-6.7031 v 6.7031 z m 7.5469,-2.8594 q 0,-1.5781 0.8906,-2.3437 0.7344,-0.625 1.7969,-0.625 1.1719,0 1.914,0.7656 0.7422,0.7656 0.7422,2.125 0,1.1094 -0.3281,1.7422 -0.3281,0.6328 -0.9609,0.9766 -0.6329,0.3437 -1.3672,0.3437 -1.2031,0 -1.9453,-0.7656 -0.7422,-0.7656 -0.7422,-2.2188 z m 1,0 q 0,1.1094 0.4765,1.6485 0.4766,0.539 1.211,0.539 0.7187,0 1.1953,-0.5468 0.4766,-0.5469 0.4766,-1.6719 0,-1.0469 -0.4844,-1.5938 -0.4844,-0.5468 -1.1875,-0.5468 -0.7344,0 -1.211,0.539 -0.4765,0.5391 -0.4765,1.6328 z m 9.0625,2.8594 v -0.7187 q -0.5313,0.8437 -1.5938,0.8437 -0.6719,0 -1.25,-0.375 Q 47,17.8728 46.6875,17.2009 46.375,16.5291 46.375,15.6541 q 0,-0.8594 0.2891,-1.5547 0.289,-0.6953 0.8515,-1.0625 0.5625,-0.3672 1.2656,-0.3672 0.5157,0 0.9219,0.2187 0.4063,0.2188 0.6563,0.5625 v -2.8281 h 0.9687 v 7.875 z M 47.375,15.6541 q 0,1.0937 0.4609,1.6328 0.461,0.539 1.086,0.539 0.6406,0 1.0781,-0.5156 0.4375,-0.5156 0.4375,-1.5781 0,-1.1719 -0.4453,-1.7188 -0.4453,-0.5468 -1.1172,-0.5468 -0.6406,0 -1.0703,0.5234 -0.4297,0.5234 -0.4297,1.6641 z m 9.25,1 1,0.125 q -0.2344,0.875 -0.875,1.3593 -0.6406,0.4844 -1.625,0.4844 -1.25,0 -1.9844,-0.7656 -0.7344,-0.7656 -0.7344,-2.1563 0,-1.4531 0.7422,-2.2422 0.7422,-0.789 1.9141,-0.789 1.1563,0 1.875,0.7734 0.7187,0.7735 0.7187,2.1953 0,0.0782 0,0.25 h -4.25 q 0.0469,0.9375 0.5235,1.4375 0.4765,0.5 1.1953,0.5 0.5312,0 0.9062,-0.2734 0.375,-0.2734 0.5938,-0.8984 z m -3.1719,-1.5625 h 3.1875 q -0.0625,-0.7188 -0.3594,-1.0782 -0.4687,-0.5468 -1.2031,-0.5468 -0.6719,0 -1.125,0.4453 -0.4531,0.4453 -0.5,1.1797 z m 1.3281,-3.5938 H 54 L 52.7656,9.9822 h 1.2813 z m 3.9219,7 v -7.875 h 0.9688 v 7.875 z m 5.9219,-1.8437 1,0.125 q -0.2344,0.875 -0.875,1.3593 -0.6406,0.4844 -1.625,0.4844 -1.25,0 -1.9844,-0.7656 -0.7344,-0.7656 -0.7344,-2.1563 0,-1.4531 0.7422,-2.2422 0.7422,-0.789 1.9141,-0.789 1.1563,0 1.875,0.7734 0.7187,0.7735 0.7187,2.1953 0,0.0782 0,0.25 h -4.25 q 0.0469,0.9375 0.5235,1.4375 0.4765,0.5 1.1953,0.5 0.5312,0 0.9062,-0.2734 0.375,-0.2734 0.5938,-0.8984 z m -3.1719,-1.5625 h 3.1875 q -0.0625,-0.7188 -0.3594,-1.0782 -0.4687,-0.5468 -1.2031,-0.5468 -0.6719,0 -1.125,0.4453 -0.4531,0.4453 -0.5,1.1797 z m 6.8907,5.5937 h -2.1407 v -0.7969 h 1.1719 v -8.4687 h -1.1719 v -0.7969 h 2.1407 z"
     clip-path="url(#clipPath1)"
     stroke="none"
     id="path43"
     transform="translate(-4.5,-4.5)"
     style="stroke-linecap:butt;stroke-linejoin:round;text-rendering:geometricPrecision" />
  <path
     fill="#000000"
     d="m 73.8125,18.4978 v -7.875 h 1.5781 l 1.8594,5.5781 q 0.25,0.7813 0.375,1.1563 0.1406,-0.4219 0.4219,-1.25 l 1.875,-5.4844 h 1.4062 v 7.875 h -1 v -6.5937 l -2.2969,6.5937 h -0.9374 l -2.2657,-6.7031 v 6.7031 z m 7.5469,-2.8594 q 0,-1.5781 0.8906,-2.3437 0.7344,-0.625 1.7969,-0.625 1.1719,0 1.914,0.7656 0.7422,0.7656 0.7422,2.125 0,1.1094 -0.3281,1.7422 -0.3281,0.6328 -0.9609,0.9766 -0.6329,0.3437 -1.3672,0.3437 -1.2031,0 -1.9453,-0.7656 -0.7422,-0.7656 -0.7422,-2.2188 z m 1,0 q 0,1.1094 0.4765,1.6485 0.4766,0.539 1.211,0.539 0.7187,0 1.1953,-0.5468 0.4766,-0.5469 0.4766,-1.6719 0,-1.0469 -0.4844,-1.5938 -0.4844,-0.5468 -1.1875,-0.5468 -0.7344,0 -1.211,0.539 -0.4765,0.5391 -0.4765,1.6328 z m 9.0625,2.8594 v -0.7187 q -0.5313,0.8437 -1.5938,0.8437 -0.6719,0 -1.25,-0.375 Q 88,17.8728 87.6875,17.2009 87.375,16.5291 87.375,15.6541 q 0,-0.8594 0.2891,-1.5547 0.289,-0.6953 0.8515,-1.0625 0.5625,-0.3672 1.2656,-0.3672 0.5157,0 0.9219,0.2187 0.4063,0.2188 0.6563,0.5625 v -2.8281 h 0.9687 v 7.875 z M 88.375,15.6541 q 0,1.0937 0.4609,1.6328 0.461,0.539 1.086,0.539 0.6406,0 1.0781,-0.5156 0.4375,-0.5156 0.4375,-1.5781 0,-1.1719 -0.4453,-1.7188 -0.4453,-0.5468 -1.1172,-0.5468 -0.6406,0 -1.0703,0.5234 -0.4297,0.5234 -0.4297,1.6641 z m 9.25,1 1,0.125 q -0.2344,0.875 -0.875,1.3593 -0.6406,0.4844 -1.625,0.4844 -1.25,0 -1.9844,-0.7656 -0.7344,-0.7656 -0.7344,-2.1563 0,-1.4531 0.7422,-2.2422 0.7422,-0.789 1.9141,-0.789 1.1563,0 1.875,0.7734 0.7187,0.7735 0.7187,2.1953 0,0.0782 0,0.25 h -4.25 q 0.0469,0.9375 0.5235,1.4375 0.4765,0.5 1.1953,0.5 0.5312,0 0.9062,-0.2734 0.375,-0.2734 0.5938,-0.8984 z m -3.1719,-1.5625 h 3.1875 q -0.0625,-0.7188 -0.3594,-1.0782 -0.4687,-0.5468 -1.2031,-0.5468 -0.6719,0 -1.125,0.4453 -0.4531,0.4453 -0.5,1.1797 z m 5.25,3.4062 v -7.875 h 0.9688 v 7.875 z"
     clip-path="url(#clipPath1)"
     stroke="none"
     id="path45"
     transform="translate(-4.5,-4.5)"
     style="stroke-linecap:butt;stroke-linejoin:round;text-rendering:geometricPrecision" />
  <path
     fill="#000000"
     d="m 16.5469,18.4978 v -0.8594 q -0.3125,0.4688 -0.8203,0.7266 -0.5078,0.2578 -1.0704,0.2578 -0.5781,0 -1.0312,-0.25 -0.4531,-0.25 -0.6641,-0.7109 Q 12.75,17.2009 12.75,16.4041 v -3.6094 h 1.5156 v 2.625 q 0,1.2031 0.086,1.4687 0.0859,0.2657 0.3046,0.4297 0.2188,0.1641 0.5626,0.1641 0.375,0 0.6874,-0.211 0.3126,-0.2109 0.4219,-0.5312 0.1094,-0.3203 0.1094,-1.5391 v -2.4062 h 1.5156 v 5.7031 z m 8.2187,-4.0156 -1.4844,0.2656 q -0.0781,-0.4375 -0.3437,-0.6641 -0.2656,-0.2265 -0.6875,-0.2265 -0.5625,0 -0.8984,0.3828 -0.336,0.3828 -0.336,1.3047 0,1.0156 0.336,1.4375 0.3359,0.4219 0.914,0.4219 0.4375,0 0.711,-0.25 0.2734,-0.25 0.3828,-0.8438 l 1.4844,0.25 q -0.2344,1.0313 -0.8907,1.5469 -0.6562,0.5156 -1.75,0.5156 -1.2656,0 -2.0078,-0.7891 -0.7422,-0.789 -0.7422,-2.1796 0,-1.4219 0.75,-2.2032 0.75,-0.7812 2.0157,-0.7812 1.0468,0 1.664,0.4453 0.6172,0.4453 0.8828,1.3672 z"
     clip-path="url(#clipPath1)"
     stroke="none"
     id="path47"
     transform="translate(-4.5,-4.5)"
     style="stroke-linecap:butt;stroke-linejoin:round;text-rendering:geometricPrecision" />
  <path
     fill="#000000"
     d="M 103.75,20.6853 V 10.6228 h 2.125 v 0.7969 h -1.1562 v 8.4687 h 1.1562 v 0.7969 z"
     clip-path="url(#clipPath1)"
     stroke="none"
     id="path49"
     transform="translate(-4.5,-4.5)"
     style="stroke-linecap:butt;stroke-linejoin:round;text-rendering:geometricPrecision" />
  <path
     fill="#000000"
     d="m 271.3438,20.6853 h -2.1407 v -0.7969 h 1.1719 v -8.4687 h -1.1719 v -0.7969 h 2.1407 z"
     clip-path="url(#clipPath1)"
     stroke="none"
     id="path51"
     transform="translate(-4.5,-4.5)"
     style="stroke-linecap:butt;stroke-linejoin:round;text-rendering:geometricPrecision" />
  <line
     y2="23"
     fill="none"
     x1="5"
     clip-path="url(#clipPath1)"
     x2="267"
     y1="23"
     id="line53"
     transform="translate(-4.5,-4.5)"
     style="stroke:#424242;stroke-linecap:butt;stroke-linejoin:round;text-rendering:geometricPrecision" />
  <line
     y2="17"
     fill="none"
     x1="276"
     clip-path="url(#clipPath1)"
     x2="276"
     y1="5"
     id="line55"
     transform="translate(-4.5,-4.5)"
     style="stroke:#424242;stroke-linecap:butt;stroke-linejoin:round;text-rendering:geometricPrecision" />
  <line
     y2="17"
     fill="none"
     x1="267"
     clip-path="url(#clipPath1)"
     x2="276"
     y1="23"
     id="line57"
     transform="translate(-4.5,-4.5)"
     style="stroke:#424242;stroke-linecap:butt;stroke-linejoin:round;text-rendering:geometricPrecision" />
  <rect
     x="164"
     y="50"
     clip-path="url(#clipPath1)"
     fill="#b2b2b2"
     width="231"
     height="163"
     stroke="none"
     id="rect59"
     transform="translate(-4.5,-4.5)"
     style="stroke-linecap:butt;stroke-linejoin:round;text-rendering:geometricPrecision" />
  <rect
     x="164"
     y="35"
     clip-path="url(#clipPath1)"
     fill="#b2b2b2"
     width="82"
     height="15"
     stroke="none"
     id="rect61"
     transform="translate(-4.5,-4.5)"
     style="stroke-linecap:butt;stroke-linejoin:round;text-rendering:geometricPrecision" />
  <polygon
     fill="url(#linearGradient1)"
     clip-path="url(#clipPath1)"
     points="161,47 243,47 243,32 161,32 161,210 392,210 392,47 "
     stroke="none"
     id="polygon63"
     style="fill:url(#linearGradient1);stroke-linecap:butt;stroke-linejoin:round;text-rendering:geometricPrecision"
     transform="translate(-4.5,-4.5)" />
  <polygon
     fill="none"
     clip-path="url(#clipPath1)"
     points="161,47 243,47 243,32 161,32 161,210 392,210 392,47 "
     stroke="#6b7599"
     id="polygon65"
     transform="translate(-4.5,-4.5)"
     style="stroke-linecap:butt;stroke-linejoin:round;text-rendering:geometricPrecision" />
  <polygon
     fill="none"
     clip-path="url(#clipPath1)"
     points="375,63 379,56 383,63 "
     stroke="#000000"
     id="polygon69"
     transform="translate(-4.5,-4.5)"
     style="stroke-linecap:butt;stroke-linejoin:round;text-rendering:geometricPrecision" />
  <ellipse
     clip-path="url(#clipPath1)"
     fill="#b2b2b2"
     rx="70"
     cx="283"
     ry="40"
     cy="127"
     stroke="none"
     id="ellipse71"
     transform="translate(-4.5,-4.5)"
     style="stroke-linecap:butt;stroke-linejoin:round;text-rendering:geometricPrecision" />
  <ellipse
     clip-path="url(#clipPath1)"
     fill="url(#linearGradient2)"
     rx="70"
     cx="280"
     ry="40"
     cy="124"
     stroke="none"
     id="ellipse73"
     style="fill:url(#linearGradient2);stroke-linecap:butt;stroke-linejoin:round;text-rendering:geometricPrecision"
     transform="translate(-4.5,-4.5)" />
  <ellipse
     clip-path="url(#clipPath1)"
     fill="none"
     rx="70"
     cx="280"
     ry="40"
     cy="124"
     stroke="#666647"
     id="ellipse75"
     transform="translate(-4.5,-4.5)"
     style="stroke-linecap:butt;stroke-linejoin:round;text-rendering:geometricPrecision" />
</svg>
