<?xml version="1.0" encoding="UTF-8" standalone="no"?>
<svg
   xmlns:dc="http://purl.org/dc/elements/1.1/"
   xmlns:cc="http://creativecommons.org/ns#"
   xmlns:rdf="http://www.w3.org/1999/02/22-rdf-syntax-ns#"
   xmlns:svg="http://www.w3.org/2000/svg"
   xmlns="http://www.w3.org/2000/svg"
   xmlns:sodipodi="http://sodipodi.sourceforge.net/DTD/sodipodi-0.dtd"
   xmlns:inkscape="http://www.inkscape.org/namespaces/inkscape"
   width="5.3541665in"
   stroke-miterlimit="10"
   font-weight="normal"
   viewBox="0 0 513.99997 247.00001"
   height="2.5729167in"
   font-style="normal"
   font-size="12"
   id="svg6156"
   version="1.1"
   inkscape:version="0.91 r13725"
   sodipodi:docname="BDD_corrige.svg"
   style="font-style:normal;font-weight:normal;font-size:12px;font-family:Arial;color-interpolation:auto;fill:#000000;fill-opacity:1;stroke:#000000;stroke-width:1;stroke-linecap:square;stroke-linejoin:miter;stroke-miterlimit:10;stroke-dasharray:none;stroke-dashoffset:0;stroke-opacity:1;color-rendering:auto;image-rendering:auto;shape-rendering:auto;text-rendering:auto">
  <g
     style="fill:#424242;stroke:#424242;stroke-linecap:butt;stroke-linejoin:round;text-rendering:geometricPrecision"
     id="g6231"
     transform="translate(-4.5,-4.5)">
    <rect
       style="fill:none"
       id="rect6233"
       clip-path="url(#clipPath1)"
       y="5"
       height="246"
       width="513"
       x="5" />
    <path
       style="fill:#000000;stroke:none"
       inkscape:connector-curvature="0"
       id="path6235"
       clip-path="url(#clipPath1)"
       d="m 159.8438,18.4978 0,-7.875 2.7187,0 q 0.9219,0 1.4063,0.1094 0.6718,0.1562 1.1562,0.5625 0.6094,0.5312 0.9219,1.3515 0.3125,0.8204 0.3125,1.8672 0,0.9063 -0.211,1.5938 -0.2109,0.6875 -0.539,1.1406 -0.3282,0.4531 -0.7188,0.7188 -0.3906,0.2656 -0.9375,0.3984 -0.5469,0.1328 -1.2656,0.1328 l -2.8437,0 z m 1.0468,-0.9219 1.6875,0 q 0.7657,0 1.211,-0.1484 0.4453,-0.1484 0.7109,-0.4141 0.375,-0.375 0.5781,-1 0.2031,-0.625 0.2031,-1.5156 0,-1.2344 -0.4062,-1.8984 -0.4062,-0.6641 -0.9844,-0.8828 -0.4218,-0.1563 -1.3437,-0.1563 l -1.6563,0 0,6.0156 z m 9.7344,-0.9218 1,0.125 q -0.2344,0.875 -0.875,1.3593 -0.6406,0.4844 -1.625,0.4844 -1.25,0 -1.9844,-0.7656 -0.7344,-0.7656 -0.7344,-2.1563 0,-1.4531 0.7422,-2.2422 0.7422,-0.789 1.9141,-0.789 1.1563,0 1.875,0.7734 0.7187,0.7735 0.7187,2.1953 0,0.0782 0,0.25 l -4.25,0 q 0.0469,0.9375 0.5235,1.4375 0.4765,0.5 1.1953,0.5 0.5312,0 0.9062,-0.2734 0.375,-0.2734 0.5938,-0.8984 z m -3.1719,-1.5625 3.1875,0 q -0.0625,-0.7188 -0.3594,-1.0782 -0.4687,-0.5468 -1.2031,-0.5468 -0.6719,0 -1.125,0.4453 -0.4531,0.4453 -0.5,1.1797 z m 0.7344,-3.5938 0.7187,-1.5156 1.2657,0 -1.1719,1.5156 -0.8125,0 z m 4.7656,7 0,-4.9531 -0.8437,0 0,-0.75 0.8437,0 0,-0.6094 q 0,-0.5781 0.1094,-0.8594 0.1406,-0.375 0.4922,-0.6093 0.3515,-0.2344 0.9765,-0.2344 0.4063,0 0.9063,0.1094 l -0.1406,0.8437 q -0.3125,-0.0625 -0.5781,-0.0625 -0.4376,0 -0.6172,0.1875 -0.1797,0.1875 -0.1797,0.7031 l 0,0.5313 1.1093,0 0,0.75 -1.1093,0 0,4.9531 -0.9688,0 z m 3.7813,-6.7656 0,-1.1094 0.9687,0 0,1.1094 -0.9687,0 z m 0,6.7656 0,-5.7031 0.9687,0 0,5.7031 -0.9687,0 z m 1.9844,0 0,-5.7031 0.875,0 0,0.8125 q 0.625,-0.9375 1.8124,-0.9375 0.5157,0 0.9532,0.1797 0.4375,0.1797 0.6484,0.4843 0.211,0.3047 0.3047,0.711 0.0469,0.2812 0.0469,0.9531 l 0,3.5 -0.9688,0 0,-3.4687 q 0,-0.5938 -0.1094,-0.8829 -0.1093,-0.289 -0.3984,-0.4687 -0.289,-0.1797 -0.6797,-0.1797 -0.6093,0 -1.0625,0.3906 -0.4531,0.3907 -0.4531,1.5 l 0,3.1094 -0.9687,0 z m 6.0156,-6.7656 0,-1.1094 0.9687,0 0,1.1094 -0.9687,0 z m 0,6.7656 0,-5.7031 0.9687,0 0,5.7031 -0.9687,0 z m 4.1094,-0.8594 0.125,0.8438 q -0.4063,0.0937 -0.7188,0.0937 -0.5312,0 -0.8203,-0.1718 -0.2891,-0.1719 -0.4063,-0.4375 -0.1172,-0.2657 -0.1172,-1.1407 l 0,-3.2812 -0.7187,0 0,-0.75 0.7187,0 0,-1.4063 0.9532,-0.5937 0,2 0.9844,0 0,0.75 -0.9844,0 0,3.3437 q 0,0.4063 0.0547,0.5235 0.0547,0.1172 0.1718,0.1875 0.1172,0.0703 0.3203,0.0703 0.1719,0 0.4376,-0.0313 z m 0.8906,-5.9062 0,-1.1094 0.9687,0 0,1.1094 -0.9687,0 z m 0,6.7656 0,-5.7031 0.9687,0 0,5.7031 -0.9687,0 z m 1.625,-2.8594 q 0,-1.5781 0.8906,-2.3437 0.7344,-0.625 1.7969,-0.625 1.1719,0 1.914,0.7656 0.7422,0.7656 0.7422,2.125 0,1.1094 -0.3281,1.7422 -0.3281,0.6328 -0.9609,0.9766 -0.6329,0.3437 -1.3672,0.3437 -1.2031,0 -1.9453,-0.7656 -0.7422,-0.7656 -0.7422,-2.2188 z m 1,0 q 0,1.1094 0.4765,1.6485 0.4766,0.539 1.211,0.539 0.7187,0 1.1953,-0.5468 0.4766,-0.5469 0.4766,-1.6719 0,-1.0469 -0.4844,-1.5938 -0.4844,-0.5468 -1.1875,-0.5468 -0.7344,0 -1.211,0.539 -0.4765,0.5391 -0.4765,1.6328 z m 5.3594,2.8594 0,-5.7031 0.875,0 0,0.8125 q 0.625,-0.9375 1.8124,-0.9375 0.5157,0 0.9532,0.1797 0.4375,0.1797 0.6484,0.4843 0.211,0.3047 0.3047,0.711 0.0469,0.2812 0.0469,0.9531 l 0,3.5 -0.9688,0 0,-3.4687 q 0,-0.5938 -0.1094,-0.8829 -0.1093,-0.289 -0.3984,-0.4687 -0.289,-0.1797 -0.6797,-0.1797 -0.6093,0 -1.0625,0.3906 -0.4531,0.3907 -0.4531,1.5 l 0,3.1094 -0.9687,0 z m 12.7031,0 0,-0.7187 q -0.5313,0.8437 -1.5938,0.8437 -0.6719,0 -1.25,-0.375 -0.5781,-0.375 -0.8906,-1.0469 -0.3125,-0.6718 -0.3125,-1.5468 0,-0.8594 0.2891,-1.5547 0.289,-0.6953 0.8515,-1.0625 0.5625,-0.3672 1.2656,-0.3672 0.5157,0 0.9219,0.2187 0.4063,0.2188 0.6563,0.5625 l 0,-2.8281 0.9687,0 0,7.875 -0.9062,0 z m -3.0469,-2.8437 q 0,1.0937 0.4609,1.6328 0.461,0.539 1.086,0.539 0.6406,0 1.0781,-0.5156 0.4375,-0.5156 0.4375,-1.5781 0,-1.1719 -0.4453,-1.7188 -0.4453,-0.5468 -1.1172,-0.5468 -0.6406,0 -1.0703,0.5234 -0.4297,0.5234 -0.4297,1.6641 z m 9.25,1 1,0.125 q -0.2344,0.875 -0.875,1.3593 -0.6406,0.4844 -1.625,0.4844 -1.25,0 -1.9844,-0.7656 -0.7344,-0.7656 -0.7344,-2.1563 0,-1.4531 0.7422,-2.2422 0.7422,-0.789 1.9141,-0.789 1.1563,0 1.875,0.7734 0.7187,0.7735 0.7187,2.1953 0,0.0782 0,0.25 l -4.25,0 q 0.0469,0.9375 0.5235,1.4375 0.4765,0.5 1.1953,0.5 0.5312,0 0.9062,-0.2734 0.375,-0.2734 0.5938,-0.8984 z m -3.1719,-1.5625 3.1875,0 q -0.0625,-0.7188 -0.3594,-1.0782 -0.4687,-0.5468 -1.2031,-0.5468 -0.6719,0 -1.125,0.4453 -0.4531,0.4453 -0.5,1.1797 z m 9.1563,3.4062 -0.8906,0 0,-7.875 0.9687,0 0,2.8125 q 0.6094,-0.7656 1.5625,-0.7656 0.5312,0 1,0.2109 0.4688,0.211 0.7734,0.5938 0.3047,0.3828 0.4766,0.9218 0.1719,0.5391 0.1719,1.1641 0,1.4688 -0.7266,2.2656 -0.7265,0.7969 -1.7422,0.7969 -1.0156,0 -1.5937,-0.8437 l 0,0.7187 z m 0,-2.8906 q 0,1.0156 0.2812,1.4844 0.4532,0.7343 1.2344,0.7343 0.625,0 1.0859,-0.5468 0.461,-0.5469 0.461,-1.6407 0,-1.1093 -0.4375,-1.6406 -0.4375,-0.5312 -1.0782,-0.5312 -0.625,0 -1.0859,0.5468 -0.4609,0.5469 -0.4609,1.5938 z m 5.0937,2.8906 0,-7.875 0.9688,0 0,7.875 -0.9688,0 z m 1.6563,-2.8594 q 0,-1.5781 0.8906,-2.3437 0.7344,-0.625 1.7969,-0.625 1.1719,0 1.914,0.7656 0.7422,0.7656 0.7422,2.125 0,1.1094 -0.3281,1.7422 -0.3281,0.6328 -0.9609,0.9766 -0.6329,0.3437 -1.3672,0.3437 -1.2031,0 -1.9453,-0.7656 -0.7422,-0.7656 -0.7422,-2.2188 z m 1,0 q 0,1.1094 0.4765,1.6485 0.4766,0.539 1.211,0.539 0.7187,0 1.1953,-0.5468 0.4766,-0.5469 0.4766,-1.6719 0,-1.0469 -0.4844,-1.5938 -0.4844,-0.5468 -1.1875,-0.5468 -0.7344,0 -1.211,0.539 -0.4765,0.5391 -0.4765,1.6328 z m 9.0937,0.7657 0.9375,0.125 q -0.1406,0.9843 -0.789,1.539 -0.6485,0.5547 -1.5704,0.5547 -1.1718,0 -1.8828,-0.7656 -0.7109,-0.7656 -0.7109,-2.1875 0,-0.9219 0.3047,-1.6172 0.3047,-0.6953 0.9297,-1.0391 0.625,-0.3437 1.3593,-0.3437 0.9219,0 1.5157,0.4687 0.5937,0.4688 0.7656,1.3282 l -0.9531,0.1406 q -0.125,-0.5625 -0.4688,-0.8516 -0.3437,-0.289 -0.8281,-0.289 -0.7187,0 -1.1797,0.5234 -0.4609,0.5234 -0.4609,1.6484 0,1.1563 0.4375,1.6719 0.4375,0.5156 1.1562,0.5156 0.5625,0 0.9453,-0.3437 0.3829,-0.3438 0.4922,-1.0781 z m 1.8907,0.3906 0.9531,-0.1563 q 0.0781,0.5782 0.4453,0.8828 0.3672,0.3047 1.0234,0.3047 0.6719,0 0.9922,-0.2656 0.3203,-0.2656 0.3203,-0.6406 0,-0.3281 -0.2812,-0.5156 -0.2031,-0.125 -0.9844,-0.3282 -1.0625,-0.2656 -1.4766,-0.4609 -0.414,-0.1953 -0.625,-0.5391 -0.2109,-0.3437 -0.2109,-0.7656 0,-0.3906 0.1719,-0.7109 0.1719,-0.3203 0.4843,-0.5391 0.2188,-0.1719 0.6094,-0.2812 0.3906,-0.1094 0.8282,-0.1094 0.6718,0 1.1796,0.1875 0.5078,0.1875 0.75,0.5234 0.2422,0.336 0.336,0.8828 l -0.9375,0.125 q -0.0781,-0.4375 -0.3828,-0.6797 -0.3047,-0.2421 -0.8672,-0.2421 -0.6719,0 -0.9531,0.2187 -0.2813,0.2188 -0.2813,0.5156 0,0.1875 0.1094,0.3282 0.125,0.1562 0.375,0.2656 0.1406,0.0469 0.8593,0.25 1.0157,0.2656 1.4219,0.4375 0.4063,0.1719 0.6407,0.5078 0.2343,0.3359 0.2343,0.8359 0,0.4844 -0.2812,0.9063 -0.2813,0.4219 -0.8125,0.6562 -0.5313,0.2344 -1.2032,0.2344 -1.1093,0 -1.6953,-0.4609 -0.5859,-0.461 -0.7421,-1.3672 z" />
    <path
       style="fill:#000000;stroke:none"
       inkscape:connector-curvature="0"
       id="path6237"
       clip-path="url(#clipPath1)"
       d="m 81.8438,18.4978 0,-7.875 2.9687,0 q 0.7969,0 1.2031,0.0781 0.5782,0.0938 0.9688,0.3672 0.3906,0.2735 0.6328,0.7578 0.2422,0.4844 0.2422,1.0782 0,1 -0.6406,1.6953 -0.6407,0.6953 -2.3126,0.6953 l -2.0156,0 0,3.2031 -1.0468,0 z m 1.0468,-4.125 2.0313,0 q 1.0156,0 1.4375,-0.375 0.4218,-0.375 0.4218,-1.0625 0,-0.5 -0.25,-0.8516 -0.25,-0.3515 -0.6562,-0.4609 -0.2656,-0.0625 -0.9688,-0.0625 l -2.0156,0 0,2.8125 z m 4.8282,4.125 0,-5.7031 0.8593,0 0,0.8594 q 0.3438,-0.6094 0.625,-0.7969 0.2813,-0.1875 0.6094,-0.1875 0.5,0 1,0.3125 l -0.3281,0.8906 q -0.3594,-0.2031 -0.7188,-0.2031 -0.3125,0 -0.5625,0.1875 -0.25,0.1875 -0.3593,0.5312 -0.1563,0.5157 -0.1563,1.125 l 0,2.9844 -0.9687,0 z m 7.9062,-1.8437 1,0.125 q -0.2344,0.875 -0.875,1.3593 -0.6406,0.4844 -1.625,0.4844 -1.25,0 -1.9844,-0.7656 -0.7344,-0.7656 -0.7344,-2.1563 0,-1.4531 0.7422,-2.2422 0.7422,-0.789 1.9141,-0.789 1.1563,0 1.875,0.7734 0.7187,0.7735 0.7187,2.1953 0,0.0782 0,0.25 l -4.25,0 q 0.0469,0.9375 0.5235,1.4375 0.4765,0.5 1.1953,0.5 0.5312,0 0.9062,-0.2734 0.375,-0.2734 0.5938,-0.8984 z m -3.1719,-1.5625 3.1875,0 q -0.0625,-0.7188 -0.3594,-1.0782 -0.4687,-0.5468 -1.2031,-0.5468 -0.6719,0 -1.125,0.4453 -0.4531,0.4453 -0.5,1.1797 z m 4.8907,1.7031 0.9531,-0.1563 q 0.0781,0.5782 0.4453,0.8828 0.3672,0.3047 1.0234,0.3047 0.6719,0 0.9922,-0.2656 0.3203,-0.2656 0.3203,-0.6406 0,-0.3281 -0.2812,-0.5156 -0.2031,-0.125 -0.9844,-0.3282 Q 98.75,15.8103 98.3359,15.615 97.9219,15.4197 97.7109,15.0759 97.5,14.7322 97.5,14.3103 q 0,-0.3906 0.1719,-0.7109 0.1719,-0.3203 0.4843,-0.5391 0.2188,-0.1719 0.6094,-0.2812 0.3906,-0.1094 0.8282,-0.1094 0.6718,0 1.1796,0.1875 0.5078,0.1875 0.75,0.5234 0.2422,0.336 0.336,0.8828 l -0.9375,0.125 q -0.0781,-0.4375 -0.3828,-0.6797 -0.3047,-0.2421 -0.8672,-0.2421 -0.6719,0 -0.9531,0.2187 -0.2813,0.2188 -0.2813,0.5156 0,0.1875 0.1094,0.3282 0.125,0.1562 0.375,0.2656 0.1406,0.0469 0.8593,0.25 1.0157,0.2656 1.4219,0.4375 0.4063,0.1719 0.6407,0.5078 0.2343,0.3359 0.2343,0.8359 0,0.4844 -0.2812,0.9063 -0.2813,0.4219 -0.8125,0.6562 -0.5313,0.2344 -1.2032,0.2344 -1.1093,0 -1.6953,-0.4609 -0.5859,-0.461 -0.7421,-1.3672 z m 6,0 0.9531,-0.1563 q 0.0781,0.5782 0.4453,0.8828 0.3672,0.3047 1.0234,0.3047 0.6719,0 0.9922,-0.2656 0.3203,-0.2656 0.3203,-0.6406 0,-0.3281 -0.2812,-0.5156 -0.2031,-0.125 -0.9844,-0.3282 -1.0625,-0.2656 -1.4766,-0.4609 -0.414,-0.1953 -0.625,-0.5391 -0.2109,-0.3437 -0.2109,-0.7656 0,-0.3906 0.1719,-0.7109 0.1719,-0.3203 0.4843,-0.5391 0.2188,-0.1719 0.6094,-0.2812 0.3906,-0.1094 0.8282,-0.1094 0.6718,0 1.1796,0.1875 0.5078,0.1875 0.75,0.5234 0.2422,0.336 0.336,0.8828 l -0.9375,0.125 q -0.0781,-0.4375 -0.3828,-0.6797 -0.3047,-0.2421 -0.8672,-0.2421 -0.6719,0 -0.9531,0.2187 -0.2813,0.2188 -0.2813,0.5156 0,0.1875 0.1094,0.3282 0.125,0.1562 0.375,0.2656 0.1406,0.0469 0.8593,0.25 1.0157,0.2656 1.4219,0.4375 0.4063,0.1719 0.6407,0.5078 0.2343,0.3359 0.2343,0.8359 0,0.4844 -0.2812,0.9063 -0.2813,0.4219 -0.8125,0.6562 -0.5313,0.2344 -1.2032,0.2344 -1.1093,0 -1.6953,-0.4609 -0.5859,-0.461 -0.7421,-1.3672 z m 10.2812,-0.1406 1,0.125 q -0.2344,0.875 -0.875,1.3593 -0.6406,0.4844 -1.625,0.4844 -1.25,0 -1.9844,-0.7656 -0.7344,-0.7656 -0.7344,-2.1563 0,-1.4531 0.7422,-2.2422 0.7422,-0.789 1.9141,-0.789 1.1563,0 1.875,0.7734 0.7187,0.7735 0.7187,2.1953 0,0.0782 0,0.25 l -4.25,0 q 0.0469,0.9375 0.5235,1.4375 0.4765,0.5 1.1953,0.5 0.5312,0 0.9062,-0.2734 0.375,-0.2734 0.5938,-0.8984 z m -3.1719,-1.5625 3.1875,0 q -0.0625,-0.7188 -0.3594,-1.0782 -0.4687,-0.5468 -1.2031,-0.5468 -0.6719,0 -1.125,0.4453 -0.4531,0.4453 -0.5,1.1797 z m 12,1.3125 0.9375,0.125 q -0.1406,0.9843 -0.789,1.539 -0.6485,0.5547 -1.5704,0.5547 -1.1718,0 -1.8828,-0.7656 -0.7109,-0.7656 -0.7109,-2.1875 0,-0.9219 0.3047,-1.6172 0.3047,-0.6953 0.9297,-1.0391 0.625,-0.3437 1.3593,-0.3437 0.9219,0 1.5157,0.4687 0.5937,0.4688 0.7656,1.3282 l -0.9531,0.1406 q -0.125,-0.5625 -0.4688,-0.8516 -0.3437,-0.289 -0.8281,-0.289 -0.7187,0 -1.1797,0.5234 -0.4609,0.5234 -0.4609,1.6484 0,1.1563 0.4375,1.6719 0.4375,0.5156 1.1562,0.5156 0.5625,0 0.9453,-0.3437 0.3829,-0.3438 0.4922,-1.0781 z m 2.2813,-4.6719 0,-1.1094 0.9687,0 0,1.1094 -0.9687,0 z m 0,6.7656 0,-5.7031 0.9687,0 0,5.7031 -0.9687,0 z m 1.6094,-1.7031 0.9531,-0.1563 q 0.0781,0.5782 0.4453,0.8828 0.3672,0.3047 1.0234,0.3047 0.6719,0 0.9922,-0.2656 0.3203,-0.2656 0.3203,-0.6406 0,-0.3281 -0.2812,-0.5156 -0.2031,-0.125 -0.9844,-0.3282 -1.0625,-0.2656 -1.4766,-0.4609 -0.414,-0.1953 -0.625,-0.5391 -0.2109,-0.3437 -0.2109,-0.7656 0,-0.3906 0.1719,-0.7109 0.1719,-0.3203 0.4843,-0.5391 0.2188,-0.1719 0.6094,-0.2812 0.3906,-0.1094 0.8282,-0.1094 0.6718,0 1.1796,0.1875 0.5078,0.1875 0.75,0.5234 0.2422,0.336 0.336,0.8828 l -0.9375,0.125 q -0.0781,-0.4375 -0.3828,-0.6797 -0.3047,-0.2421 -0.8672,-0.2421 -0.6719,0 -0.9531,0.2187 -0.2813,0.2188 -0.2813,0.5156 0,0.1875 0.1094,0.3282 0.125,0.1562 0.375,0.2656 0.1406,0.0469 0.8593,0.25 1.0157,0.2656 1.4219,0.4375 0.4063,0.1719 0.6407,0.5078 0.2343,0.3359 0.2343,0.8359 0,0.4844 -0.2812,0.9063 -0.2813,0.4219 -0.8125,0.6562 -0.5313,0.2344 -1.2032,0.2344 -1.1093,0 -1.6953,-0.4609 -0.5859,-0.461 -0.7421,-1.3672 z m 10.1093,1 q -0.5469,0.4531 -1.039,0.6406 -0.4922,0.1875 -1.0703,0.1875 -0.9376,0 -1.4454,-0.4609 -0.5078,-0.461 -0.5078,-1.1641 0,-0.4219 0.1953,-0.7656 0.1953,-0.3438 0.5,-0.5547 0.3047,-0.2109 0.6953,-0.3203 0.2813,-0.0781 0.8594,-0.1406 1.1719,-0.1407 1.7188,-0.3438 0.0156,-0.1875 0.0156,-0.25 0,-0.5937 -0.2812,-0.8281 -0.3594,-0.3281 -1.0938,-0.3281 -0.6875,0 -1.0078,0.2343 -0.3203,0.2344 -0.4766,0.8438 l -0.9531,-0.125 q 0.125,-0.6094 0.4219,-0.9844 0.2968,-0.375 0.8594,-0.5703 0.5624,-0.1953 1.2968,-0.1953 0.7344,0 1.1875,0.1719 0.4531,0.1718 0.6641,0.4296 0.2109,0.2579 0.3047,0.6485 0.0469,0.25 0.0469,0.9062 l 0,1.2813 q 0,1.3437 0.0624,1.7031 0.0626,0.3594 0.25,0.6875 l -1.0156,0 q -0.1562,-0.2969 -0.1875,-0.7031 z m -0.0937,-2.1563 q -0.5156,0.2188 -1.5782,0.3594 -0.5937,0.0938 -0.8359,0.1953 -0.2422,0.1016 -0.3828,0.3125 -0.1406,0.211 -0.1406,0.461 0,0.3906 0.2969,0.6484 0.2968,0.2578 0.8593,0.2578 0.5625,0 0.9922,-0.25 0.4297,-0.25 0.6485,-0.6719 0.1406,-0.3281 0.1406,-0.9687 l 0,-0.3438 z m 2.375,-3.9062 0,-1.1094 0.9687,0 0,1.1094 -0.9687,0 z m 0,6.7656 0,-5.7031 0.9687,0 0,5.7031 -0.9687,0 z m 1.9687,0 0,-7.875 0.9688,0 0,7.875 -0.9688,0 z m 2,0 0,-7.875 0.9688,0 0,7.875 -0.9688,0 z m 5.9219,-1.8437 1,0.125 q -0.2344,0.875 -0.875,1.3593 -0.6406,0.4844 -1.625,0.4844 -1.25,0 -1.9844,-0.7656 -0.7344,-0.7656 -0.7344,-2.1563 0,-1.4531 0.7422,-2.2422 0.7422,-0.789 1.9141,-0.789 1.1563,0 1.875,0.7734 0.7187,0.7735 0.7187,2.1953 0,0.0782 0,0.25 l -4.25,0 q 0.0469,0.9375 0.5235,1.4375 0.4765,0.5 1.1953,0.5 0.5312,0 0.9062,-0.2734 0.375,-0.2734 0.5938,-0.8984 z m -3.1719,-1.5625 3.1875,0 q -0.0625,-0.7188 -0.3594,-1.0782 -0.4687,-0.5468 -1.2031,-0.5468 -0.6719,0 -1.125,0.4453 -0.4531,0.4453 -0.5,1.1797 z" />
    <path
       style="fill:#000000;stroke:none"
       inkscape:connector-curvature="0"
       id="path6239"
       clip-path="url(#clipPath1)"
       d="m 37.75,20.6853 0,-10.0625 2.125,0 0,0.7969 -1.1562,0 0,8.4687 1.1562,0 0,0.7969 -2.125,0 z m 3.0625,-2.1875 0,-7.875 1.5781,0 1.8594,5.5781 q 0.25,0.7813 0.375,1.1563 0.1406,-0.4219 0.4219,-1.25 l 1.875,-5.4844 1.4062,0 0,7.875 -1,0 0,-6.5937 -2.2969,6.5937 -0.9374,0 -2.2657,-6.7031 0,6.7031 -1.0156,0 z m 7.5469,-2.8594 q 0,-1.5781 0.8906,-2.3437 0.7344,-0.625 1.7969,-0.625 1.1719,0 1.914,0.7656 0.7422,0.7656 0.7422,2.125 0,1.1094 -0.3281,1.7422 -0.3281,0.6328 -0.9609,0.9766 -0.6329,0.3437 -1.3672,0.3437 -1.2031,0 -1.9453,-0.7656 -0.7422,-0.7656 -0.7422,-2.2188 z m 1,0 q 0,1.1094 0.4765,1.6485 0.4766,0.539 1.211,0.539 0.7187,0 1.1953,-0.5468 0.4766,-0.5469 0.4766,-1.6719 0,-1.0469 -0.4844,-1.5938 -0.4844,-0.5468 -1.1875,-0.5468 -0.7344,0 -1.211,0.539 -0.4765,0.5391 -0.4765,1.6328 z m 9.0625,2.8594 0,-0.7187 q -0.5313,0.8437 -1.5938,0.8437 -0.6719,0 -1.25,-0.375 Q 55,17.8728 54.6875,17.2009 54.375,16.5291 54.375,15.6541 q 0,-0.8594 0.2891,-1.5547 0.289,-0.6953 0.8515,-1.0625 0.5625,-0.3672 1.2656,-0.3672 0.5157,0 0.9219,0.2187 0.4063,0.2188 0.6563,0.5625 l 0,-2.8281 0.9687,0 0,7.875 -0.9062,0 z M 55.375,15.6541 q 0,1.0937 0.4609,1.6328 0.461,0.539 1.086,0.539 0.6406,0 1.0781,-0.5156 0.4375,-0.5156 0.4375,-1.5781 0,-1.1719 -0.4453,-1.7188 -0.4453,-0.5468 -1.1172,-0.5468 -0.6406,0 -1.0703,0.5234 -0.4297,0.5234 -0.4297,1.6641 z m 9.25,1 1,0.125 q -0.2344,0.875 -0.875,1.3593 -0.6406,0.4844 -1.625,0.4844 -1.25,0 -1.9844,-0.7656 -0.7344,-0.7656 -0.7344,-2.1563 0,-1.4531 0.7422,-2.2422 0.7422,-0.789 1.9141,-0.789 1.1563,0 1.875,0.7734 0.7187,0.7735 0.7187,2.1953 0,0.0782 0,0.25 l -4.25,0 q 0.0469,0.9375 0.5235,1.4375 0.4765,0.5 1.1953,0.5 0.5312,0 0.9062,-0.2734 0.375,-0.2734 0.5938,-0.8984 z m -3.1719,-1.5625 3.1875,0 q -0.0625,-0.7188 -0.3594,-1.0782 -0.4687,-0.5468 -1.2031,-0.5468 -0.6719,0 -1.125,0.4453 -0.4531,0.4453 -0.5,1.1797 z m 1.3281,-3.5938 -0.7812,0 -1.2344,-1.5156 1.2813,0 0.7343,1.5156 z m 3.9219,7 0,-7.875 0.9688,0 0,7.875 -0.9688,0 z m 5.9219,-1.8437 1,0.125 q -0.2344,0.875 -0.875,1.3593 -0.6406,0.4844 -1.625,0.4844 -1.25,0 -1.9844,-0.7656 -0.7344,-0.7656 -0.7344,-2.1563 0,-1.4531 0.7422,-2.2422 0.7422,-0.789 1.9141,-0.789 1.1563,0 1.875,0.7734 0.7187,0.7735 0.7187,2.1953 0,0.0782 0,0.25 l -4.25,0 q 0.0469,0.9375 0.5235,1.4375 0.4765,0.5 1.1953,0.5 0.5312,0 0.9062,-0.2734 0.375,-0.2734 0.5938,-0.8984 z m -3.1719,-1.5625 3.1875,0 q -0.0625,-0.7188 -0.3594,-1.0782 -0.4687,-0.5468 -1.2031,-0.5468 -0.6719,0 -1.125,0.4453 -0.4531,0.4453 -0.5,1.1797 z m 6.8907,5.5937 -2.1407,0 0,-0.7969 1.1719,0 0,-8.4687 -1.1719,0 0,-0.7969 2.1407,0 0,10.0625 z" />
    <path
       style="fill:#000000;stroke:none"
       inkscape:connector-curvature="0"
       id="path6241"
       clip-path="url(#clipPath1)"
       d="m 12.7188,18.4978 0,-7.875 1.5156,0 0,2.8438 q 0.7031,-0.7969 1.6562,-0.7969 1.0469,0 1.7266,0.75 0.6797,0.75 0.6797,2.1719 0,1.4531 -0.6953,2.2421 -0.6954,0.7891 -1.6954,0.7891 -0.4843,0 -0.9609,-0.2422 -0.4765,-0.2422 -0.8203,-0.7265 l 0,0.8437 -1.4062,0 z m 1.5,-2.9687 q 0,0.875 0.2812,1.2968 0.3906,0.6094 1.0469,0.6094 0.5,0 0.8515,-0.4297 0.3516,-0.4297 0.3516,-1.3515 0,-0.9688 -0.3516,-1.3985 -0.3515,-0.4297 -0.914,-0.4297 -0.5469,0 -0.9063,0.4219 -0.3593,0.4219 -0.3593,1.2813 z m 10.7968,2.9687 -1.3906,0 0,-0.8437 q -0.3594,0.5 -0.8359,0.7343 -0.4766,0.2344 -0.9453,0.2344 -0.9844,0 -1.6876,-0.7891 -0.7031,-0.789 -0.7031,-2.2109 0,-1.4531 0.6797,-2.2031 0.6797,-0.75 1.7266,-0.75 0.9531,0 1.6562,0.7969 l 0,-2.8438 1.5,0 0,7.875 z M 21,15.5291 q 0,0.9062 0.25,1.3125 0.3594,0.5937 1.0156,0.5937 0.5156,0 0.8828,-0.4453 0.3672,-0.4453 0.3672,-1.3203 0,-0.9844 -0.3515,-1.4141 -0.3516,-0.4297 -0.9141,-0.4297 -0.5312,0 -0.8906,0.4219 Q 21,14.6697 21,15.5291 Z m 11.0156,2.9687 -1.3906,0 0,-0.8437 q -0.3594,0.5 -0.8359,0.7343 -0.4766,0.2344 -0.9453,0.2344 -0.9844,0 -1.6876,-0.7891 -0.7031,-0.789 -0.7031,-2.2109 0,-1.4531 0.6797,-2.2031 0.6797,-0.75 1.7266,-0.75 0.9531,0 1.6562,0.7969 l 0,-2.8438 1.5,0 0,7.875 z M 28,15.5291 q 0,0.9062 0.25,1.3125 0.3594,0.5937 1.0156,0.5937 0.5156,0 0.8828,-0.4453 0.3672,-0.4453 0.3672,-1.3203 0,-0.9844 -0.3515,-1.4141 -0.3516,-0.4297 -0.9141,-0.4297 -0.5312,0 -0.8906,0.4219 Q 28,14.6697 28,15.5291 Z" />
    <path
       style="fill:#000000;stroke:none"
       inkscape:connector-curvature="0"
       id="path6243"
       clip-path="url(#clipPath1)"
       d="m 152.75,20.6853 0,-10.0625 2.125,0 0,0.7969 -1.1562,0 0,8.4687 1.1562,0 0,0.7969 -2.125,0 z" />
    <path
       style="fill:#000000;stroke:none"
       inkscape:connector-curvature="0"
       id="path6245"
       clip-path="url(#clipPath1)"
       d="m 253.3438,20.6853 -2.1407,0 0,-0.7969 1.1719,0 0,-8.4687 -1.1719,0 0,-0.7969 2.1407,0 0,10.0625 z" />
    <line
       style="fill:none"
       id="line6247"
       y1="23"
       x2="249"
       clip-path="url(#clipPath1)"
       x1="5"
       y2="23" />
    <line
       style="fill:none"
       id="line6249"
       y1="5"
       x2="258"
       clip-path="url(#clipPath1)"
       x1="258"
       y2="17" />
    <line
       style="fill:none"
       id="line6251"
       y1="23"
       x2="258"
       clip-path="url(#clipPath1)"
       x1="249"
       y2="17" />
    <rect
       style="fill:#b2b2b2;stroke:none"
       id="rect6253"
       height="42"
       width="448"
       clip-path="url(#clipPath1)"
       y="52"
       x="45" />
    <rect
       style="fill:url(#linearGradient1);stroke:none"
       id="rect6255"
       height="42"
       width="448"
       clip-path="url(#clipPath1)"
       y="49"
       x="42" />
    <rect
       style="fill:none;stroke:#99795c"
       id="rect6257"
       height="42"
       width="448"
       clip-path="url(#clipPath1)"
       y="49"
       x="42" />
    <path
       style="fill:#000000;stroke:none"
       inkscape:connector-curvature="0"
       id="path6259"
       clip-path="url(#clipPath1)"
       d="m 243.8281,59.6541 1.3907,2.4531 -0.7813,0 -1.7187,-2.4531 1.7187,-2.4375 0.7969,0 -1.4063,2.4375 z m 2.0781,0 1.4219,2.4531 -0.8281,0 -1.6719,-2.4531 1.6719,-2.4375 0.8281,0 -1.4219,2.4375 z m 2.4376,1.1406 0.9531,-0.1563 q 0.0781,0.5782 0.4453,0.8828 0.3672,0.3047 1.0234,0.3047 0.6719,0 0.9922,-0.2656 0.3203,-0.2656 0.3203,-0.6406 0,-0.3281 -0.2812,-0.5156 -0.2031,-0.125 -0.9844,-0.3282 -1.0625,-0.2656 -1.4766,-0.4609 -0.414,-0.1953 -0.625,-0.5391 -0.2109,-0.3437 -0.2109,-0.7656 0,-0.3906 0.1719,-0.7109 0.1719,-0.3203 0.4843,-0.5391 0.2188,-0.1719 0.6094,-0.2812 0.3906,-0.1094 0.8282,-0.1094 0.6718,0 1.1796,0.1875 0.5078,0.1875 0.75,0.5234 0.2422,0.336 0.336,0.8828 l -0.9375,0.125 q -0.0781,-0.4375 -0.3828,-0.6797 -0.3047,-0.2421 -0.8672,-0.2421 -0.6719,0 -0.9531,0.2187 -0.2813,0.2188 -0.2813,0.5156 0,0.1875 0.1094,0.3282 0.125,0.1562 0.375,0.2656 0.1406,0.0469 0.8593,0.25 1.0157,0.2656 1.4219,0.4375 0.4063,0.1719 0.6407,0.5078 0.2343,0.3359 0.2343,0.8359 0,0.4844 -0.2812,0.9063 -0.2813,0.4219 -0.8125,0.6562 -0.5313,0.2344 -1.2032,0.2344 -1.1093,0 -1.6953,-0.4609 -0.5859,-0.461 -0.7421,-1.3672 z m 6.3437,3.9062 -0.1094,-0.9062 q 0.3125,0.0781 0.5469,0.0781 0.3281,0 0.5234,-0.1094 0.1954,-0.1093 0.3047,-0.2968 0.0938,-0.1407 0.2969,-0.7188 0.0312,-0.0781 0.0938,-0.2344 l -2.1719,-5.7187 1.0469,0 1.1874,3.2969 q 0.2344,0.6406 0.4063,1.3281 0.1719,-0.6719 0.4063,-1.2969 l 1.2187,-3.3281 0.9687,0 -2.1718,5.7969 q -0.3438,0.9375 -0.5469,1.2968 -0.25,0.4844 -0.5859,0.7032 -0.336,0.2187 -0.7891,0.2187 -0.2813,0 -0.625,-0.1094 z m 5.6563,-3.9062 0.9531,-0.1563 q 0.0781,0.5782 0.4453,0.8828 0.3672,0.3047 1.0234,0.3047 0.6719,0 0.9922,-0.2656 0.3203,-0.2656 0.3203,-0.6406 0,-0.3281 -0.2812,-0.5156 -0.2031,-0.125 -0.9844,-0.3282 -1.0625,-0.2656 -1.4766,-0.4609 -0.414,-0.1953 -0.625,-0.5391 -0.2109,-0.3437 -0.2109,-0.7656 0,-0.3906 0.1719,-0.7109 0.1719,-0.3203 0.4843,-0.5391 0.2188,-0.1719 0.6094,-0.2812 0.3906,-0.1094 0.8282,-0.1094 0.6718,0 1.1796,0.1875 0.5078,0.1875 0.75,0.5234 0.2422,0.336 0.336,0.8828 l -0.9375,0.125 q -0.0781,-0.4375 -0.3828,-0.6797 -0.3047,-0.2421 -0.8672,-0.2421 -0.6719,0 -0.9531,0.2187 -0.2813,0.2188 -0.2813,0.5156 0,0.1875 0.1094,0.3282 0.125,0.1562 0.375,0.2656 0.1406,0.0469 0.8593,0.25 1.0157,0.2656 1.4219,0.4375 0.4063,0.1719 0.6407,0.5078 0.2343,0.3359 0.2343,0.8359 0,0.4844 -0.2812,0.9063 -0.2813,0.4219 -0.8125,0.6562 -0.5313,0.2344 -1.2032,0.2344 -1.1093,0 -1.6953,-0.4609 -0.5859,-0.461 -0.7421,-1.3672 z m 8.5,0.8437 0.125,0.8438 q -0.4063,0.0937 -0.7188,0.0937 -0.5312,0 -0.8203,-0.1718 -0.2891,-0.1719 -0.4063,-0.4375 -0.1172,-0.2657 -0.1172,-1.1407 l 0,-3.2812 -0.7187,0 0,-0.75 0.7187,0 0,-1.4063 0.9532,-0.5937 0,2 0.9844,0 0,0.75 -0.9844,0 0,3.3437 q 0,0.4063 0.0547,0.5235 0.0547,0.1172 0.1718,0.1875 0.1172,0.0703 0.3203,0.0703 0.1719,0 0.4376,-0.0313 z m 4.7812,-0.9843 1,0.125 q -0.2344,0.875 -0.875,1.3593 -0.6406,0.4844 -1.625,0.4844 -1.25,0 -1.9844,-0.7656 -0.7344,-0.7656 -0.7344,-2.1563 0,-1.4531 0.7422,-2.2422 0.7422,-0.789 1.9141,-0.789 1.1563,0 1.875,0.7734 0.7187,0.7735 0.7187,2.1953 0,0.0782 0,0.25 l -4.25,0 q 0.0469,0.9375 0.5235,1.4375 0.4765,0.5 1.1953,0.5 0.5312,0 0.9062,-0.2734 0.375,-0.2734 0.5938,-0.8984 z m -3.1719,-1.5625 3.1875,0 q -0.0625,-0.7188 -0.3594,-1.0782 -0.4687,-0.5468 -1.2031,-0.5468 -0.6719,0 -1.125,0.4453 -0.4531,0.4453 -0.5,1.1797 z m 5.2657,3.4062 0,-5.7031 0.875,0 0,0.7969 q 0.2656,-0.4219 0.7109,-0.6719 0.4453,-0.25 1.0078,-0.25 0.6406,0 1.0469,0.2578 0.4062,0.2578 0.5781,0.7422 0.6719,-1 1.75,-1 0.8594,0 1.3125,0.4687 0.4531,0.4688 0.4531,1.4375 l 0,3.9219 -0.9531,0 0,-3.5937 q 0,-0.5782 -0.0938,-0.836 -0.0937,-0.2578 -0.3437,-0.414 -0.25,-0.1563 -0.5781,-0.1563 -0.6094,0 -1.0078,0.4063 -0.3985,0.4062 -0.3985,1.2812 l 0,3.3125 -0.9687,0 0,-3.7031 q 0,-0.6406 -0.2344,-0.9688 -0.2344,-0.3281 -0.7656,-0.3281 -0.4063,0 -0.7578,0.2188 -0.3516,0.2187 -0.5078,0.6328 -0.1563,0.414 -0.1563,1.1953 l 0,2.9531 -0.9687,0 z m 11.5312,-2.8437 -1.4062,-2.4375 0.7968,0 1.7188,2.4375 -1.7188,2.4531 -0.7812,0 1.3906,-2.4531 z m -2.0781,0 -1.4219,-2.4375 0.8125,0 1.6875,2.4375 -1.6875,2.4531 -0.8125,0 1.4219,-2.4531 z" />
    <path
       style="fill:#000000;stroke:none"
       inkscape:connector-curvature="0"
       id="path6261"
       clip-path="url(#clipPath1)"
       d="m 225.7969,77.4978 0,-7.875 2.5625,0 q 1.4375,0 1.8906,0.125 0.6719,0.1719 1.125,0.7656 0.4531,0.5938 0.4531,1.5313 0,0.7187 -0.2578,1.2187 -0.2578,0.5 -0.6641,0.7813 -0.4062,0.2812 -0.8281,0.375 -0.5781,0.1094 -1.6562,0.1094 l -1.0313,0 0,2.9687 -1.5937,0 z m 1.5937,-6.5469 0,2.2344 0.875,0 q 0.9375,0 1.25,-0.125 0.3125,-0.125 0.4922,-0.3828 0.1797,-0.2578 0.1797,-0.6172 0,-0.4219 -0.25,-0.7031 -0.25,-0.2813 -0.6406,-0.3438 -0.2813,-0.0625 -1.1407,-0.0625 l -0.7656,0 z m 6.8438,6.5469 -1.5156,0 0,-5.7031 1.4062,0 0,0.8125 q 0.3594,-0.5781 0.6484,-0.7578 0.2891,-0.1797 0.6485,-0.1797 0.5156,0 1,0.2812 l -0.4688,1.3125 q -0.375,-0.25 -0.7031,-0.25 -0.3281,0 -0.5469,0.1797 -0.2187,0.1797 -0.3437,0.6328 -0.125,0.4532 -0.125,1.9063 l 0,1.7656 z m 6.8594,-1.8125 1.5,0.25 q -0.2813,0.8281 -0.9063,1.2578 -0.625,0.4297 -1.5781,0.4297 -1.4844,0 -2.2032,-0.9687 -0.5624,-0.7813 -0.5624,-1.9688 0,-1.4219 0.7421,-2.2187 0.7422,-0.7969 1.8829,-0.7969 1.2656,0 2,0.8359 0.7343,0.836 0.7031,2.5703 l -3.7813,0 q 0.0156,0.6719 0.3672,1.0469 0.3516,0.375 0.8672,0.375 0.3594,0 0.6016,-0.1953 0.2422,-0.1953 0.3672,-0.6172 z m 0.0781,-1.5312 q -0.0157,-0.6563 -0.336,-0.9922 -0.3203,-0.336 -0.7734,-0.336 -0.5,0 -0.8281,0.3594 -0.3125,0.3594 -0.3125,0.9688 l 2.25,0 z m 3.0937,1.7187 1.5,-0.2344 q 0.1094,0.4375 0.3985,0.6641 0.289,0.2266 0.8203,0.2266 0.5937,0 0.8906,-0.2032 0.2031,-0.1562 0.2031,-0.4062 0,-0.1719 -0.1093,-0.2813 -0.125,-0.1093 -0.5157,-0.2031 -1.8125,-0.4062 -2.3125,-0.7344 -0.6718,-0.4687 -0.6718,-1.2812 0,-0.75 0.5859,-1.25 0.5859,-0.5 1.8203,-0.5 1.1719,0 1.7344,0.375 0.5625,0.375 0.7812,1.125 l -1.4218,0.2656 q -0.0938,-0.3281 -0.3438,-0.5078 -0.25,-0.1797 -0.7344,-0.1797 -0.5937,0 -0.8437,0.1719 -0.1719,0.1094 -0.1719,0.2969 0,0.1718 0.1406,0.2812 0.2032,0.1563 1.4141,0.4297 1.2109,0.2734 1.6797,0.6641 0.4844,0.4062 0.4844,1.125 0,0.7812 -0.6563,1.3437 -0.6563,0.5625 -1.9531,0.5625 -1.1563,0 -1.836,-0.4687 -0.6796,-0.4688 -0.8828,-1.2813 z m 7,0 1.5,-0.2344 q 0.1094,0.4375 0.3985,0.6641 0.289,0.2266 0.8203,0.2266 0.5937,0 0.8906,-0.2032 0.2031,-0.1562 0.2031,-0.4062 0,-0.1719 -0.1093,-0.2813 -0.125,-0.1093 -0.5157,-0.2031 -1.8125,-0.4062 -2.3125,-0.7344 -0.6718,-0.4687 -0.6718,-1.2812 0,-0.75 0.5859,-1.25 0.5859,-0.5 1.8203,-0.5 1.1719,0 1.7344,0.375 0.5625,0.375 0.7812,1.125 l -1.4218,0.2656 q -0.0938,-0.3281 -0.3438,-0.5078 -0.25,-0.1797 -0.7344,-0.1797 -0.5937,0 -0.8437,0.1719 -0.1719,0.1094 -0.1719,0.2969 0,0.1718 0.1406,0.2812 0.2032,0.1563 1.4141,0.4297 1.2109,0.2734 1.6797,0.6641 0.4844,0.4062 0.4844,1.125 0,0.7812 -0.6563,1.3437 -0.6563,0.5625 -1.9531,0.5625 -1.1563,0 -1.836,-0.4687 -0.6796,-0.4688 -0.8828,-1.2813 z m 10.8282,-0.1875 1.5,0.25 q -0.2813,0.8281 -0.9063,1.2578 -0.625,0.4297 -1.5781,0.4297 -1.4844,0 -2.2032,-0.9687 -0.5624,-0.7813 -0.5624,-1.9688 0,-1.4219 0.7421,-2.2187 0.7422,-0.7969 1.8829,-0.7969 1.2656,0 2,0.8359 0.7343,0.836 0.7031,2.5703 l -3.7813,0 q 0.0156,0.6719 0.3672,1.0469 0.3516,0.375 0.8672,0.375 0.3594,0 0.6016,-0.1953 0.2422,-0.1953 0.3672,-0.6172 z m 0.0781,-1.5312 q -0.0157,-0.6563 -0.336,-0.9922 -0.3203,-0.336 -0.7734,-0.336 -0.5,0 -0.8281,0.3594 -0.3125,0.3594 -0.3125,0.9688 l 2.25,0 z m 11.5937,-0.6719 -1.4844,0.2656 q -0.0781,-0.4375 -0.3437,-0.6641 -0.2656,-0.2265 -0.6875,-0.2265 -0.5625,0 -0.8984,0.3828 -0.336,0.3828 -0.336,1.3047 0,1.0156 0.336,1.4375 0.3359,0.4219 0.914,0.4219 0.4375,0 0.711,-0.25 0.2734,-0.25 0.3828,-0.8438 l 1.4844,0.25 q -0.2344,1.0313 -0.8907,1.5469 -0.6562,0.5156 -1.75,0.5156 -1.2656,0 -2.0078,-0.7891 -0.7422,-0.789 -0.7422,-2.1796 0,-1.4219 0.75,-2.2032 0.75,-0.7812 2.0157,-0.7812 1.0468,0 1.664,0.4453 0.6172,0.4453 0.8828,1.3672 z m 1.0313,-2.4688 0,-1.3906 1.5,0 0,1.3906 -1.5,0 z m 0,6.4844 0,-5.7031 1.5,0 0,5.7031 -1.5,0 z m 2.4687,-1.625 1.5,-0.2344 q 0.1094,0.4375 0.3985,0.6641 0.289,0.2266 0.8203,0.2266 0.5937,0 0.8906,-0.2032 0.2031,-0.1562 0.2031,-0.4062 0,-0.1719 -0.1093,-0.2813 -0.125,-0.1093 -0.5157,-0.2031 -1.8125,-0.4062 -2.3125,-0.7344 -0.6718,-0.4687 -0.6718,-1.2812 0,-0.75 0.5859,-1.25 0.5859,-0.5 1.8203,-0.5 1.1719,0 1.7344,0.375 0.5625,0.375 0.7812,1.125 l -1.4218,0.2656 q -0.0938,-0.3281 -0.3438,-0.5078 -0.25,-0.1797 -0.7344,-0.1797 -0.5937,0 -0.8437,0.1719 -0.1719,0.1094 -0.1719,0.2969 0,0.1718 0.1406,0.2812 0.2032,0.1563 1.4141,0.4297 1.2109,0.2734 1.6797,0.6641 0.4844,0.4062 0.4844,1.125 0,0.7812 -0.6563,1.3437 -0.6563,0.5625 -1.9531,0.5625 -1.1563,0 -1.836,-0.4687 -0.6796,-0.4688 -0.8828,-1.2813 z m 8.6563,-2.3437 -1.375,-0.25 q 0.2343,-0.8125 0.7969,-1.211 0.5624,-0.3984 1.6718,-0.3984 1.0156,0 1.5078,0.2344 0.4922,0.2343 0.6954,0.6015 0.2031,0.3672 0.2031,1.3516 l -0.0157,1.7656 q 0,0.75 0.0704,1.1094 0.0703,0.3594 0.2734,0.7656 l -1.5,0 q -0.0625,-0.1562 -0.1406,-0.4531 -0.0313,-0.125 -0.0469,-0.1719 -0.3906,0.375 -0.8359,0.5625 -0.4454,0.1875 -0.9454,0.1875 -0.875,0 -1.3828,-0.4766 -0.5078,-0.4765 -0.5078,-1.2109 0,-0.4844 0.2344,-0.8594 0.2344,-0.375 0.6484,-0.5781 0.4141,-0.2031 1.1954,-0.3594 1.0624,-0.1875 1.4687,-0.3593 l 0,-0.1563 q 0,-0.4375 -0.2187,-0.6172 -0.2188,-0.1797 -0.8126,-0.1797 -0.3906,0 -0.6171,0.1563 -0.2266,0.1562 -0.3672,0.5469 z m 2.0156,1.2343 q -0.2969,0.0938 -0.9219,0.2266 -0.625,0.1328 -0.8125,0.2578 -0.2969,0.2188 -0.2969,0.5313 0,0.3281 0.2344,0.5546 0.2344,0.2266 0.5938,0.2266 0.4062,0 0.7812,-0.2656 0.2813,-0.2031 0.3594,-0.5 0.0625,-0.1875 0.0625,-0.7344 l 0,-0.2969 z m 2.8594,-3.75 0,-1.3906 1.5,0 0,1.3906 -1.5,0 z m 0,6.4844 0,-5.7031 1.5,0 0,5.7031 -1.5,0 z m 3,0 0,-7.875 1.5,0 0,7.875 -1.5,0 z m 3,0 0,-7.875 1.5,0 0,7.875 -1.5,0 z m 6.2969,-1.8125 1.5,0.25 q -0.2813,0.8281 -0.9063,1.2578 -0.625,0.4297 -1.5781,0.4297 -1.4844,0 -2.2032,-0.9687 -0.5624,-0.7813 -0.5624,-1.9688 0,-1.4219 0.7421,-2.2187 0.7422,-0.7969 1.8829,-0.7969 1.2656,0 2,0.8359 0.7343,0.836 0.7031,2.5703 l -3.7813,0 q 0.0156,0.6719 0.3672,1.0469 0.3516,0.375 0.8672,0.375 0.3594,0 0.6016,-0.1953 0.2422,-0.1953 0.3672,-0.6172 z m 0.0781,-1.5312 q -0.0157,-0.6563 -0.336,-0.9922 -0.3203,-0.336 -0.7734,-0.336 -0.5,0 -0.8281,0.3594 -0.3125,0.3594 -0.3125,0.9688 l 2.25,0 z" />
    <rect
       style="fill:#b2b2b2;stroke:none"
       id="rect6263"
       height="42"
       width="63"
       clip-path="url(#clipPath1)"
       y="129"
       x="153" />
    <rect
       style="fill:url(#linearGradient2);stroke:none"
       id="rect6265"
       height="42"
       width="63"
       clip-path="url(#clipPath1)"
       y="126"
       x="150" />
    <rect
       style="fill:none;stroke:#99795c"
       id="rect6267"
       height="42"
       width="63"
       clip-path="url(#clipPath1)"
       y="126"
       x="150" />
    <line
       style="fill:none;stroke:#99795c"
       id="line6269"
       y2="159"
       y1="159"
       x2="213"
       x1="150"
       clip-path="url(#clipPath1)" />
    <path
       style="fill:#000000;stroke:none"
       inkscape:connector-curvature="0"
       id="path6271"
       clip-path="url(#clipPath1)"
       d="m 164.8281,136.6541 1.3907,2.4531 -0.7813,0 -1.7187,-2.4531 1.7187,-2.4375 0.7969,0 -1.4063,2.4375 z m 2.0781,0 1.4219,2.4531 -0.8281,0 -1.6719,-2.4531 1.6719,-2.4375 0.8281,0 -1.4219,2.4375 z m 3.7032,2.8437 -0.8906,0 0,-7.875 0.9687,0 0,2.8125 q 0.6094,-0.7656 1.5625,-0.7656 0.5312,0 1,0.2109 0.4688,0.211 0.7734,0.5938 0.3047,0.3828 0.4766,0.9218 0.1719,0.5391 0.1719,1.1641 0,1.4688 -0.7266,2.2656 -0.7265,0.7969 -1.7422,0.7969 -1.0156,0 -1.5937,-0.8437 l 0,0.7187 z m 0,-2.8906 q 0,1.0156 0.2812,1.4844 0.4532,0.7343 1.2344,0.7343 0.625,0 1.0859,-0.5468 0.461,-0.5469 0.461,-1.6407 0,-1.1093 -0.4375,-1.6406 -0.4375,-0.5312 -1.0782,-0.5312 -0.625,0 -1.0859,0.5468 -0.4609,0.5469 -0.4609,1.5938 z m 5.0937,2.8906 0,-7.875 0.9688,0 0,7.875 -0.9688,0 z m 1.6563,-2.8594 q 0,-1.5781 0.8906,-2.3437 0.7344,-0.625 1.7969,-0.625 1.1719,0 1.914,0.7656 0.7422,0.7656 0.7422,2.125 0,1.1094 -0.3281,1.7422 -0.3281,0.6328 -0.9609,0.9766 -0.6329,0.3437 -1.3672,0.3437 -1.2031,0 -1.9453,-0.7656 -0.7422,-0.7656 -0.7422,-2.2188 z m 1,0 q 0,1.1094 0.4765,1.6485 0.4766,0.539 1.211,0.539 0.7187,0 1.1953,-0.5468 0.4766,-0.5469 0.4766,-1.6719 0,-1.0469 -0.4844,-1.5938 -0.4844,-0.5468 -1.1875,-0.5468 -0.7344,0 -1.211,0.539 -0.4765,0.5391 -0.4765,1.6328 z m 9.0937,0.7657 0.9375,0.125 q -0.1406,0.9843 -0.789,1.539 -0.6485,0.5547 -1.5704,0.5547 -1.1718,0 -1.8828,-0.7656 -0.7109,-0.7656 -0.7109,-2.1875 0,-0.9219 0.3047,-1.6172 0.3047,-0.6953 0.9297,-1.0391 0.625,-0.3437 1.3593,-0.3437 0.9219,0 1.5157,0.4687 0.5937,0.4688 0.7656,1.3282 l -0.9531,0.1406 q -0.125,-0.5625 -0.4688,-0.8516 -0.3437,-0.289 -0.8281,-0.289 -0.7187,0 -1.1797,0.5234 -0.4609,0.5234 -0.4609,1.6484 0,1.1563 0.4375,1.6719 0.4375,0.5156 1.1562,0.5156 0.5625,0 0.9453,-0.3437 0.3829,-0.3438 0.4922,-1.0781 z m 2.2813,2.0937 0,-7.875 0.9687,0 0,4.4844 2.2813,-2.3125 1.25,0 -2.1719,2.1094 2.3906,3.5937 -1.1875,0 -1.8906,-2.9219 -0.6719,0.6563 0,2.2656 -0.9687,0 z m 8.5156,-2.8437 -1.4062,-2.4375 0.7968,0 1.7188,2.4375 -1.7188,2.4531 -0.7812,0 1.3906,-2.4531 z m -2.0781,0 -1.4219,-2.4375 0.8125,0 1.6875,2.4375 -1.6875,2.4531 -0.8125,0 1.4219,-2.4531 z" />
    <path
       style="fill:#000000;stroke:none"
       inkscape:connector-curvature="0"
       id="path6273"
       clip-path="url(#clipPath1)"
       d="m 158.8438,151.6072 1.5312,0.4844 q -0.3438,1.2812 -1.1719,1.914 -0.8281,0.6328 -2.0937,0.6328 -1.5625,0 -2.5782,-1.0781 -1.0156,-1.0781 -1.0156,-2.9375 0,-1.9531 1.0156,-3.0469 1.0157,-1.0937 2.6719,-1.0937 1.4531,0 2.3438,0.8594 0.5469,0.5 0.8125,1.4531 l -1.5782,0.375 q -0.1406,-0.6094 -0.5781,-0.9688 -0.4375,-0.3593 -1.0781,-0.3593 -0.875,0 -1.4219,0.6328 -0.5469,0.6328 -0.5469,2.039 0,1.4844 0.5391,2.125 0.5391,0.6407 1.3985,0.6407 0.6406,0 1.0937,-0.4063 0.4531,-0.4062 0.6563,-1.2656 z m 2.5937,-0.0469 q 0,-0.75 0.375,-1.4531 0.375,-0.7031 1.0547,-1.0703 0.6797,-0.3672 1.5078,-0.3672 1.2969,0 2.125,0.8359 0.8281,0.836 0.8281,2.1172 0,1.2969 -0.8359,2.1484 -0.836,0.8516 -2.1016,0.8516 -0.7812,0 -1.4922,-0.3516 -0.7109,-0.3515 -1.0859,-1.039 -0.375,-0.6875 -0.375,-1.6719 z m 1.5469,0.0781 q 0,0.8594 0.4062,1.3125 0.4063,0.4532 1,0.4532 0.5782,0 0.9844,-0.4532 0.4062,-0.4531 0.4062,-1.3125 0,-0.8437 -0.4062,-1.2968 -0.4062,-0.4532 -0.9844,-0.4532 -0.5937,0 -1,0.4532 -0.4062,0.4531 -0.4062,1.2968 z m 9.5625,2.8594 0,-0.8594 q -0.3125,0.4688 -0.8203,0.7266 -0.5078,0.2578 -1.0704,0.2578 -0.5781,0 -1.0312,-0.25 -0.4531,-0.25 -0.6641,-0.7109 -0.2109,-0.461 -0.2109,-1.2578 l 0,-3.6094 1.5156,0 0,2.625 q 0,1.2031 0.086,1.4687 0.0859,0.2657 0.3046,0.4297 0.2188,0.1641 0.5626,0.1641 0.375,0 0.6874,-0.211 0.3126,-0.2109 0.4219,-0.5312 0.1094,-0.3203 0.1094,-1.5391 l 0,-2.4062 1.5156,0 0,5.7031 -1.4062,0 z m 4.8125,0 -2.2969,-5.7031 1.5781,0 1.0782,2.9062 0.3124,0.9688 q 0.125,-0.3594 0.1563,-0.4844 0.0781,-0.2344 0.1563,-0.4844 l 1.0937,-2.9062 1.5469,0 -2.2656,5.7031 -1.3594,0 z m 7.7344,-1.8125 1.5,0.25 q -0.2813,0.8281 -0.9063,1.2578 -0.625,0.4297 -1.5781,0.4297 -1.4844,0 -2.2032,-0.9687 -0.5624,-0.7813 -0.5624,-1.9688 0,-1.4219 0.7421,-2.2187 0.7422,-0.7969 1.8829,-0.7969 1.2656,0 2,0.8359 0.7343,0.836 0.7031,2.5703 l -3.7813,0 q 0.0156,0.6719 0.3672,1.0469 0.3516,0.375 0.8672,0.375 0.3594,0 0.6016,-0.1953 0.2422,-0.1953 0.3672,-0.6172 z m 0.0781,-1.5312 q -0.0157,-0.6563 -0.336,-0.9922 -0.3203,-0.336 -0.7734,-0.336 -0.5,0 -0.8281,0.3594 -0.3125,0.3594 -0.3125,0.9688 l 2.25,0 z m 5.0625,3.3437 -1.5156,0 0,-5.7031 1.4062,0 0,0.8125 q 0.3594,-0.5781 0.6484,-0.7578 0.2891,-0.1797 0.6485,-0.1797 0.5156,0 1,0.2812 l -0.4688,1.3125 q -0.375,-0.25 -0.7031,-0.25 -0.3281,0 -0.5469,0.1797 -0.2187,0.1797 -0.3437,0.6328 -0.125,0.4532 -0.125,1.9063 l 0,1.7656 z m 8.5312,-4.0156 -1.4844,0.2656 q -0.0781,-0.4375 -0.3437,-0.6641 -0.2656,-0.2265 -0.6875,-0.2265 -0.5625,0 -0.8984,0.3828 -0.336,0.3828 -0.336,1.3047 0,1.0156 0.336,1.4375 0.3359,0.4219 0.914,0.4219 0.4375,0 0.711,-0.25 0.2734,-0.25 0.3828,-0.8438 l 1.4844,0.25 q -0.2344,1.0313 -0.8907,1.5469 -0.6562,0.5156 -1.75,0.5156 -1.2656,0 -2.0078,-0.7891 -0.7422,-0.789 -0.7422,-2.1796 0,-1.4219 0.75,-2.2032 0.75,-0.7812 2.0157,-0.7812 1.0468,0 1.664,0.4453 0.6172,0.4453 0.8828,1.3672 z m 1.0313,4.0156 0,-7.875 1.5,0 0,7.875 -1.5,0 z m 6.2969,-1.8125 1.5,0.25 q -0.2813,0.8281 -0.9063,1.2578 -0.625,0.4297 -1.5781,0.4297 -1.4844,0 -2.2032,-0.9687 -0.5624,-0.7813 -0.5624,-1.9688 0,-1.4219 0.7421,-2.2187 0.7422,-0.7969 1.8829,-0.7969 1.2656,0 2,0.8359 0.7343,0.836 0.7031,2.5703 l -3.7813,0 q 0.0156,0.6719 0.3672,1.0469 0.3516,0.375 0.8672,0.375 0.3594,0 0.6016,-0.1953 0.2422,-0.1953 0.3672,-0.6172 z m 0.0781,-1.5312 q -0.0157,-0.6563 -0.336,-0.9922 -0.3203,-0.336 -0.7734,-0.336 -0.5,0 -0.8281,0.3594 -0.3125,0.3594 -0.3125,0.9688 l 2.25,0 z" />
    <rect
       style="fill:#b2b2b2;stroke:none"
       id="rect6275"
       height="42"
       width="61"
       clip-path="url(#clipPath1)"
       y="129"
       x="24" />
    <rect
       style="fill:url(#linearGradient3);stroke:none"
       id="rect6277"
       height="42"
       width="61"
       clip-path="url(#clipPath1)"
       y="126"
       x="21" />
    <rect
       style="fill:none;stroke:#99795c"
       id="rect6279"
       height="42"
       width="61"
       clip-path="url(#clipPath1)"
       y="126"
       x="21" />
    <line
       style="fill:none;stroke:#99795c"
       id="line6281"
       y2="159"
       y1="159"
       x2="82"
       x1="21"
       clip-path="url(#clipPath1)" />
    <path
       style="fill:#000000;stroke:none"
       inkscape:connector-curvature="0"
       id="path6283"
       clip-path="url(#clipPath1)"
       d="m 34.8281,136.6541 1.3907,2.4531 -0.7813,0 -1.7187,-2.4531 1.7187,-2.4375 0.7969,0 -1.4063,2.4375 z m 2.0781,0 1.4219,2.4531 -0.8281,0 -1.6719,-2.4531 1.6719,-2.4375 0.8281,0 -1.4219,2.4375 z m 3.7032,2.8437 -0.8906,0 0,-7.875 0.9687,0 0,2.8125 q 0.6094,-0.7656 1.5625,-0.7656 0.5312,0 1,0.2109 0.4688,0.211 0.7734,0.5938 0.3047,0.3828 0.4766,0.9218 0.1719,0.5391 0.1719,1.1641 0,1.4688 -0.7266,2.2656 -0.7265,0.7969 -1.7422,0.7969 -1.0156,0 -1.5937,-0.8437 l 0,0.7187 z m 0,-2.8906 q 0,1.0156 0.2812,1.4844 0.4532,0.7343 1.2344,0.7343 0.625,0 1.0859,-0.5468 0.461,-0.5469 0.461,-1.6407 0,-1.1093 -0.4375,-1.6406 -0.4375,-0.5312 -1.0782,-0.5312 -0.625,0 -1.0859,0.5468 -0.4609,0.5469 -0.4609,1.5938 z m 5.0937,2.8906 0,-7.875 0.9688,0 0,7.875 -0.9688,0 z m 1.6563,-2.8594 q 0,-1.5781 0.8906,-2.3437 0.7344,-0.625 1.7969,-0.625 1.1719,0 1.914,0.7656 0.7422,0.7656 0.7422,2.125 0,1.1094 -0.3281,1.7422 -0.3281,0.6328 -0.9609,0.9766 -0.6329,0.3437 -1.3672,0.3437 -1.2031,0 -1.9453,-0.7656 -0.7422,-0.7656 -0.7422,-2.2188 z m 1,0 q 0,1.1094 0.4765,1.6485 0.4766,0.539 1.211,0.539 0.7187,0 1.1953,-0.5468 0.4766,-0.5469 0.4766,-1.6719 0,-1.0469 -0.4844,-1.5938 -0.4844,-0.5468 -1.1875,-0.5468 -0.7344,0 -1.211,0.539 -0.4765,0.5391 -0.4765,1.6328 z m 9.0937,0.7657 0.9375,0.125 q -0.1406,0.9843 -0.789,1.539 -0.6485,0.5547 -1.5704,0.5547 -1.1718,0 -1.8828,-0.7656 -0.7109,-0.7656 -0.7109,-2.1875 0,-0.9219 0.3047,-1.6172 0.3047,-0.6953 0.9297,-1.0391 0.625,-0.3437 1.3593,-0.3437 0.9219,0 1.5157,0.4687 0.5937,0.4688 0.7656,1.3282 l -0.9531,0.1406 q -0.125,-0.5625 -0.4688,-0.8516 -0.3437,-0.289 -0.8281,-0.289 -0.7187,0 -1.1797,0.5234 -0.4609,0.5234 -0.4609,1.6484 0,1.1563 0.4375,1.6719 0.4375,0.5156 1.1562,0.5156 0.5625,0 0.9453,-0.3437 0.3829,-0.3438 0.4922,-1.0781 z m 2.2813,2.0937 0,-7.875 0.9687,0 0,4.4844 2.2813,-2.3125 1.25,0 -2.1719,2.1094 2.3906,3.5937 -1.1875,0 -1.8906,-2.9219 -0.6719,0.6563 0,2.2656 -0.9687,0 z m 8.5156,-2.8437 -1.4062,-2.4375 0.7968,0 1.7188,2.4375 -1.7188,2.4531 -0.7812,0 1.3906,-2.4531 z m -2.0781,0 -1.4219,-2.4375 0.8125,0 1.6875,2.4375 -1.6875,2.4531 -0.8125,0 1.4219,-2.4531 z" />
    <path
       style="fill:#000000;stroke:none"
       inkscape:connector-curvature="0"
       id="path6285"
       clip-path="url(#clipPath1)"
       d="m 24.7969,154.4978 0,-7.875 2.5625,0 q 1.4375,0 1.8906,0.125 0.6719,0.1719 1.125,0.7656 0.4531,0.5938 0.4531,1.5313 0,0.7187 -0.2578,1.2187 -0.2578,0.5 -0.6641,0.7813 -0.4062,0.2812 -0.8281,0.375 -0.5781,0.1094 -1.6562,0.1094 l -1.0313,0 0,2.9687 -1.5937,0 z m 1.5937,-6.5469 0,2.2344 0.875,0 q 0.9375,0 1.25,-0.125 0.3125,-0.125 0.4922,-0.3828 0.1797,-0.2578 0.1797,-0.6172 0,-0.4219 -0.25,-0.7031 -0.25,-0.2813 -0.6406,-0.3438 -0.2813,-0.0625 -1.1407,-0.0625 l -0.7656,0 z m 5.0469,3.6094 q 0,-0.75 0.375,-1.4531 0.375,-0.7031 1.0547,-1.0703 0.6797,-0.3672 1.5078,-0.3672 1.2969,0 2.125,0.8359 0.8281,0.836 0.8281,2.1172 0,1.2969 -0.8359,2.1484 -0.836,0.8516 -2.1016,0.8516 -0.7812,0 -1.4922,-0.3516 -0.7109,-0.3515 -1.0859,-1.039 -0.375,-0.6875 -0.375,-1.6719 z m 1.5469,0.0781 q 0,0.8594 0.4062,1.3125 0.4063,0.4532 1,0.4532 0.5782,0 0.9844,-0.4532 0.4062,-0.4531 0.4062,-1.3125 0,-0.8437 -0.4062,-1.2968 -0.4062,-0.4532 -0.9844,-0.4532 -0.5937,0 -1,0.4532 -0.4062,0.4531 -0.4062,1.2968 z m 9.5625,2.8594 0,-0.8594 q -0.3125,0.4688 -0.8203,0.7266 -0.5078,0.2578 -1.0704,0.2578 -0.5781,0 -1.0312,-0.25 -0.4531,-0.25 -0.6641,-0.7109 -0.2109,-0.461 -0.2109,-1.2578 l 0,-3.6094 1.5156,0 0,2.625 q 0,1.2031 0.086,1.4687 0.0859,0.2657 0.3046,0.4297 0.2188,0.1641 0.5626,0.1641 0.375,0 0.6874,-0.211 0.3126,-0.2109 0.4219,-0.5312 0.1094,-0.3203 0.1094,-1.5391 l 0,-2.4062 1.5156,0 0,5.7031 -1.4062,0 z m 2.7187,-1.625 1.5,-0.2344 q 0.1094,0.4375 0.3985,0.6641 0.289,0.2266 0.8203,0.2266 0.5937,0 0.8906,-0.2032 0.2031,-0.1562 0.2031,-0.4062 0,-0.1719 -0.1093,-0.2813 -0.125,-0.1093 -0.5157,-0.2031 -1.8125,-0.4062 -2.3125,-0.7344 -0.6718,-0.4687 -0.6718,-1.2812 0,-0.75 0.5859,-1.25 0.5859,-0.5 1.8203,-0.5 1.1719,0 1.7344,0.375 0.5625,0.375 0.7812,1.125 l -1.4218,0.2656 q -0.0938,-0.3281 -0.3438,-0.5078 -0.25,-0.1797 -0.7344,-0.1797 -0.5937,0 -0.8437,0.1719 -0.1719,0.1094 -0.1719,0.2969 0,0.1718 0.1406,0.2812 0.2032,0.1563 1.4141,0.4297 1.2109,0.2734 1.6797,0.6641 0.4844,0.4062 0.4844,1.125 0,0.7812 -0.6563,1.3437 -0.6563,0.5625 -1.9531,0.5625 -1.1563,0 -1.836,-0.4687 -0.6796,-0.4688 -0.8828,-1.2813 z m 7,0 1.5,-0.2344 q 0.1094,0.4375 0.3985,0.6641 0.289,0.2266 0.8203,0.2266 0.5937,0 0.8906,-0.2032 0.2031,-0.1562 0.2031,-0.4062 0,-0.1719 -0.1093,-0.2813 -0.125,-0.1093 -0.5157,-0.2031 -1.8125,-0.4062 -2.3125,-0.7344 -0.6718,-0.4687 -0.6718,-1.2812 0,-0.75 0.5859,-1.25 0.5859,-0.5 1.8203,-0.5 1.1719,0 1.7344,0.375 0.5625,0.375 0.7812,1.125 l -1.4218,0.2656 q -0.0938,-0.3281 -0.3438,-0.5078 -0.25,-0.1797 -0.7344,-0.1797 -0.5937,0 -0.8437,0.1719 -0.1719,0.1094 -0.1719,0.2969 0,0.1718 0.1406,0.2812 0.2032,0.1563 1.4141,0.4297 1.2109,0.2734 1.6797,0.6641 0.4844,0.4062 0.4844,1.125 0,0.7812 -0.6563,1.3437 -0.6563,0.5625 -1.9531,0.5625 -1.1563,0 -1.836,-0.4687 -0.6796,-0.4688 -0.8828,-1.2813 z m 10.8282,-0.1875 1.5,0.25 q -0.2813,0.8281 -0.9063,1.2578 -0.625,0.4297 -1.5781,0.4297 -1.4844,0 -2.2032,-0.9687 -0.5624,-0.7813 -0.5624,-1.9688 0,-1.4219 0.7421,-2.2187 0.7422,-0.7969 1.8829,-0.7969 1.2656,0 2,0.8359 0.7343,0.836 0.7031,2.5703 l -3.7813,0 q 0.0156,0.6719 0.3672,1.0469 0.3516,0.375 0.8672,0.375 0.3594,0 0.6016,-0.1953 0.2422,-0.1953 0.3672,-0.6172 z m 0.0781,-1.5312 q -0.0157,-0.6563 -0.336,-0.9922 -0.3203,-0.336 -0.7734,-0.336 -0.5,0 -0.8281,0.3594 -0.3125,0.3594 -0.3125,0.9688 l 2.25,0 z m 7.375,3.3437 0,-0.8594 q -0.3125,0.4688 -0.8203,0.7266 -0.5078,0.2578 -1.0704,0.2578 -0.5781,0 -1.0312,-0.25 -0.4531,-0.25 -0.6641,-0.7109 -0.2109,-0.461 -0.2109,-1.2578 l 0,-3.6094 1.5156,0 0,2.625 q 0,1.2031 0.086,1.4687 0.0859,0.2657 0.3046,0.4297 0.2188,0.1641 0.5626,0.1641 0.375,0 0.6874,-0.211 0.3126,-0.2109 0.4219,-0.5312 0.1094,-0.3203 0.1094,-1.5391 l 0,-2.4062 1.5156,0 0,5.7031 -1.4062,0 z m 4.6875,0 -1.5156,0 0,-5.7031 1.4062,0 0,0.8125 q 0.3594,-0.5781 0.6484,-0.7578 0.2891,-0.1797 0.6485,-0.1797 0.5156,0 1,0.2812 l -0.4688,1.3125 q -0.375,-0.25 -0.7031,-0.25 -0.3281,0 -0.5469,0.1797 -0.2187,0.1797 -0.3437,0.6328 -0.125,0.4532 -0.125,1.9063 l 0,1.7656 z" />
    <rect
       style="fill:#b2b2b2;stroke:none"
       id="rect6287"
       height="42"
       width="59"
       clip-path="url(#clipPath1)"
       y="129"
       x="270" />
    <rect
       style="fill:url(#linearGradient4);stroke:none"
       id="rect6289"
       height="42"
       width="59"
       clip-path="url(#clipPath1)"
       y="126"
       x="267" />
    <rect
       style="fill:none;stroke:#99795c"
       id="rect6291"
       height="42"
       width="59"
       clip-path="url(#clipPath1)"
       y="126"
       x="267" />
    <line
       style="fill:none;stroke:#99795c"
       id="line6293"
       y2="159"
       y1="159"
       x2="326"
       x1="267"
       clip-path="url(#clipPath1)" />
    <path
       style="fill:#000000;stroke:none"
       inkscape:connector-curvature="0"
       id="path6295"
       clip-path="url(#clipPath1)"
       d="m 279.8281,136.6541 1.3907,2.4531 -0.7813,0 -1.7187,-2.4531 1.7187,-2.4375 0.7969,0 -1.4063,2.4375 z m 2.0781,0 1.4219,2.4531 -0.8281,0 -1.6719,-2.4531 1.6719,-2.4375 0.8281,0 -1.4219,2.4375 z m 3.7032,2.8437 -0.8906,0 0,-7.875 0.9687,0 0,2.8125 q 0.6094,-0.7656 1.5625,-0.7656 0.5312,0 1,0.2109 0.4688,0.211 0.7734,0.5938 0.3047,0.3828 0.4766,0.9218 0.1719,0.5391 0.1719,1.1641 0,1.4688 -0.7266,2.2656 -0.7265,0.7969 -1.7422,0.7969 -1.0156,0 -1.5937,-0.8437 l 0,0.7187 z m 0,-2.8906 q 0,1.0156 0.2812,1.4844 0.4532,0.7343 1.2344,0.7343 0.625,0 1.0859,-0.5468 0.461,-0.5469 0.461,-1.6407 0,-1.1093 -0.4375,-1.6406 -0.4375,-0.5312 -1.0782,-0.5312 -0.625,0 -1.0859,0.5468 -0.4609,0.5469 -0.4609,1.5938 z m 5.0937,2.8906 0,-7.875 0.9688,0 0,7.875 -0.9688,0 z m 1.6563,-2.8594 q 0,-1.5781 0.8906,-2.3437 0.7344,-0.625 1.7969,-0.625 1.1719,0 1.914,0.7656 0.7422,0.7656 0.7422,2.125 0,1.1094 -0.3281,1.7422 -0.3281,0.6328 -0.9609,0.9766 -0.6329,0.3437 -1.3672,0.3437 -1.2031,0 -1.9453,-0.7656 -0.7422,-0.7656 -0.7422,-2.2188 z m 1,0 q 0,1.1094 0.4765,1.6485 0.4766,0.539 1.211,0.539 0.7187,0 1.1953,-0.5468 0.4766,-0.5469 0.4766,-1.6719 0,-1.0469 -0.4844,-1.5938 -0.4844,-0.5468 -1.1875,-0.5468 -0.7344,0 -1.211,0.539 -0.4765,0.5391 -0.4765,1.6328 z m 9.0937,0.7657 0.9375,0.125 q -0.1406,0.9843 -0.789,1.539 -0.6485,0.5547 -1.5704,0.5547 -1.1718,0 -1.8828,-0.7656 -0.7109,-0.7656 -0.7109,-2.1875 0,-0.9219 0.3047,-1.6172 0.3047,-0.6953 0.9297,-1.0391 0.625,-0.3437 1.3593,-0.3437 0.9219,0 1.5157,0.4687 0.5937,0.4688 0.7656,1.3282 l -0.9531,0.1406 q -0.125,-0.5625 -0.4688,-0.8516 -0.3437,-0.289 -0.8281,-0.289 -0.7187,0 -1.1797,0.5234 -0.4609,0.5234 -0.4609,1.6484 0,1.1563 0.4375,1.6719 0.4375,0.5156 1.1562,0.5156 0.5625,0 0.9453,-0.3437 0.3829,-0.3438 0.4922,-1.0781 z m 2.2813,2.0937 0,-7.875 0.9687,0 0,4.4844 2.2813,-2.3125 1.25,0 -2.1719,2.1094 2.3906,3.5937 -1.1875,0 -1.8906,-2.9219 -0.6719,0.6563 0,2.2656 -0.9687,0 z m 8.5156,-2.8437 -1.4062,-2.4375 0.7968,0 1.7188,2.4375 -1.7188,2.4531 -0.7812,0 1.3906,-2.4531 z m -2.0781,0 -1.4219,-2.4375 0.8125,0 1.6875,2.4375 -1.6875,2.4531 -0.8125,0 1.4219,-2.4531 z" />
    <path
       style="fill:#000000;stroke:none"
       inkscape:connector-curvature="0"
       id="path6297"
       clip-path="url(#clipPath1)"
       d="m 270.7969,154.4978 0,-7.875 2.5625,0 q 1.4375,0 1.8906,0.125 0.6719,0.1719 1.125,0.7656 0.4531,0.5938 0.4531,1.5313 0,0.7187 -0.2578,1.2187 -0.2578,0.5 -0.6641,0.7813 -0.4062,0.2812 -0.8281,0.375 -0.5781,0.1094 -1.6562,0.1094 l -1.0313,0 0,2.9687 -1.5937,0 z m 1.5937,-6.5469 0,2.2344 0.875,0 q 0.9375,0 1.25,-0.125 0.3125,-0.125 0.4922,-0.3828 0.1797,-0.2578 0.1797,-0.6172 0,-0.4219 -0.25,-0.7031 -0.25,-0.2813 -0.6406,-0.3438 -0.2813,-0.0625 -1.1407,-0.0625 l -0.7656,0 z m 6.8438,6.5469 -1.5156,0 0,-5.7031 1.4062,0 0,0.8125 q 0.3594,-0.5781 0.6484,-0.7578 0.2891,-0.1797 0.6485,-0.1797 0.5156,0 1,0.2812 l -0.4688,1.3125 q -0.375,-0.25 -0.7031,-0.25 -0.3281,0 -0.5469,0.1797 -0.2187,0.1797 -0.3437,0.6328 -0.125,0.4532 -0.125,1.9063 l 0,1.7656 z m 6.8594,-1.8125 1.5,0.25 q -0.2813,0.8281 -0.9063,1.2578 -0.625,0.4297 -1.5781,0.4297 -1.4844,0 -2.2032,-0.9687 -0.5624,-0.7813 -0.5624,-1.9688 0,-1.4219 0.7421,-2.2187 0.7422,-0.7969 1.8829,-0.7969 1.2656,0 2,0.8359 0.7343,0.836 0.7031,2.5703 l -3.7813,0 q 0.0156,0.6719 0.3672,1.0469 0.3516,0.375 0.8672,0.375 0.3594,0 0.6016,-0.1953 0.2422,-0.1953 0.3672,-0.6172 z m 0.0781,-1.5312 q -0.0157,-0.6563 -0.336,-0.9922 -0.3203,-0.336 -0.7734,-0.336 -0.5,0 -0.8281,0.3594 -0.3125,0.3594 -0.3125,0.9688 l 2.25,0 z m 3.0937,1.7187 1.5,-0.2344 q 0.1094,0.4375 0.3985,0.6641 0.289,0.2266 0.8203,0.2266 0.5937,0 0.8906,-0.2032 0.2031,-0.1562 0.2031,-0.4062 0,-0.1719 -0.1093,-0.2813 -0.125,-0.1093 -0.5157,-0.2031 -1.8125,-0.4062 -2.3125,-0.7344 -0.6718,-0.4687 -0.6718,-1.2812 0,-0.75 0.5859,-1.25 0.5859,-0.5 1.8203,-0.5 1.1719,0 1.7344,0.375 0.5625,0.375 0.7812,1.125 l -1.4218,0.2656 q -0.0938,-0.3281 -0.3438,-0.5078 -0.25,-0.1797 -0.7344,-0.1797 -0.5937,0 -0.8437,0.1719 -0.1719,0.1094 -0.1719,0.2969 0,0.1718 0.1406,0.2812 0.2032,0.1563 1.4141,0.4297 1.2109,0.2734 1.6797,0.6641 0.4844,0.4062 0.4844,1.125 0,0.7812 -0.6563,1.3437 -0.6563,0.5625 -1.9531,0.5625 -1.1563,0 -1.836,-0.4687 -0.6796,-0.4688 -0.8828,-1.2813 z m 7,0 1.5,-0.2344 q 0.1094,0.4375 0.3985,0.6641 0.289,0.2266 0.8203,0.2266 0.5937,0 0.8906,-0.2032 0.2031,-0.1562 0.2031,-0.4062 0,-0.1719 -0.1093,-0.2813 -0.125,-0.1093 -0.5157,-0.2031 -1.8125,-0.4062 -2.3125,-0.7344 -0.6718,-0.4687 -0.6718,-1.2812 0,-0.75 0.5859,-1.25 0.5859,-0.5 1.8203,-0.5 1.1719,0 1.7344,0.375 0.5625,0.375 0.7812,1.125 l -1.4218,0.2656 q -0.0938,-0.3281 -0.3438,-0.5078 -0.25,-0.1797 -0.7344,-0.1797 -0.5937,0 -0.8437,0.1719 -0.1719,0.1094 -0.1719,0.2969 0,0.1718 0.1406,0.2812 0.2032,0.1563 1.4141,0.4297 1.2109,0.2734 1.6797,0.6641 0.4844,0.4062 0.4844,1.125 0,0.7812 -0.6563,1.3437 -0.6563,0.5625 -1.9531,0.5625 -1.1563,0 -1.836,-0.4687 -0.6796,-0.4688 -0.8828,-1.2813 z m 10.8282,-0.1875 1.5,0.25 q -0.2813,0.8281 -0.9063,1.2578 -0.625,0.4297 -1.5781,0.4297 -1.4844,0 -2.2032,-0.9687 -0.5624,-0.7813 -0.5624,-1.9688 0,-1.4219 0.7421,-2.2187 0.7422,-0.7969 1.8829,-0.7969 1.2656,0 2,0.8359 0.7343,0.836 0.7031,2.5703 l -3.7813,0 q 0.0156,0.6719 0.3672,1.0469 0.3516,0.375 0.8672,0.375 0.3594,0 0.6016,-0.1953 0.2422,-0.1953 0.3672,-0.6172 z m 0.0781,-1.5312 q -0.0157,-0.6563 -0.336,-0.9922 -0.3203,-0.336 -0.7734,-0.336 -0.5,0 -0.8281,0.3594 -0.3125,0.3594 -0.3125,0.9688 l 2.25,0 z m 7.375,3.3437 0,-0.8594 q -0.3125,0.4688 -0.8203,0.7266 -0.5078,0.2578 -1.0704,0.2578 -0.5781,0 -1.0312,-0.25 -0.4531,-0.25 -0.6641,-0.7109 -0.2109,-0.461 -0.2109,-1.2578 l 0,-3.6094 1.5156,0 0,2.625 q 0,1.2031 0.086,1.4687 0.0859,0.2657 0.3046,0.4297 0.2188,0.1641 0.5626,0.1641 0.375,0 0.6874,-0.211 0.3126,-0.2109 0.4219,-0.5312 0.1094,-0.3203 0.1094,-1.5391 l 0,-2.4062 1.5156,0 0,5.7031 -1.4062,0 z m 4.6875,0 -1.5156,0 0,-5.7031 1.4062,0 0,0.8125 q 0.3594,-0.5781 0.6484,-0.7578 0.2891,-0.1797 0.6485,-0.1797 0.5156,0 1,0.2812 l -0.4688,1.3125 q -0.375,-0.25 -0.7031,-0.25 -0.3281,0 -0.5469,0.1797 -0.2187,0.1797 -0.3437,0.6328 -0.125,0.4532 -0.125,1.9063 l 0,1.7656 z" />
    <rect
       style="fill:#b2b2b2;stroke:none"
       id="rect6299"
       height="42"
       width="58"
       clip-path="url(#clipPath1)"
       y="192"
       x="90" />
    <rect
       style="fill:url(#linearGradient5);stroke:none"
       id="rect6301"
       height="42"
       width="58"
       clip-path="url(#clipPath1)"
       y="189"
       x="87" />
    <rect
       style="fill:none;stroke:#99795c"
       id="rect6303"
       height="42"
       width="58"
       clip-path="url(#clipPath1)"
       y="189"
       x="87" />
    <line
       style="fill:none;stroke:#99795c"
       id="line6305"
       y2="222"
       y1="222"
       x2="145"
       x1="87"
       clip-path="url(#clipPath1)" />
    <path
       style="fill:#000000;stroke:none"
       inkscape:connector-curvature="0"
       id="path6307"
       clip-path="url(#clipPath1)"
       d="m 98.8281,199.6541 1.3907,2.4531 -0.7813,0 -1.7187,-2.4531 1.7187,-2.4375 0.7969,0 -1.4063,2.4375 z m 2.0781,0 1.4219,2.4531 -0.8281,0 -1.6719,-2.4531 1.6719,-2.4375 0.8281,0 -1.4219,2.4375 z m 3.7032,2.8437 -0.8906,0 0,-7.875 0.9687,0 0,2.8125 q 0.6094,-0.7656 1.5625,-0.7656 0.5312,0 1,0.2109 0.4688,0.211 0.7734,0.5938 0.3047,0.3828 0.4766,0.9218 0.1719,0.5391 0.1719,1.1641 0,1.4688 -0.7266,2.2656 -0.7265,0.7969 -1.7422,0.7969 -1.0156,0 -1.5937,-0.8437 l 0,0.7187 z m 0,-2.8906 q 0,1.0156 0.2812,1.4844 0.4532,0.7343 1.2344,0.7343 0.625,0 1.0859,-0.5468 0.461,-0.5469 0.461,-1.6407 0,-1.1093 -0.4375,-1.6406 -0.4375,-0.5312 -1.0782,-0.5312 -0.625,0 -1.0859,0.5468 -0.4609,0.5469 -0.4609,1.5938 z m 5.0937,2.8906 0,-7.875 0.9688,0 0,7.875 -0.9688,0 z m 1.6563,-2.8594 q 0,-1.5781 0.8906,-2.3437 0.7344,-0.625 1.7969,-0.625 1.1719,0 1.914,0.7656 0.7422,0.7656 0.7422,2.125 0,1.1094 -0.3281,1.7422 -0.3281,0.6328 -0.9609,0.9766 -0.6329,0.3437 -1.3672,0.3437 -1.2031,0 -1.9453,-0.7656 -0.7422,-0.7656 -0.7422,-2.2188 z m 1,0 q 0,1.1094 0.4765,1.6485 0.4766,0.539 1.211,0.539 0.7187,0 1.1953,-0.5468 0.4766,-0.5469 0.4766,-1.6719 0,-1.0469 -0.4844,-1.5938 -0.4844,-0.5468 -1.1875,-0.5468 -0.7344,0 -1.211,0.539 -0.4765,0.5391 -0.4765,1.6328 z m 9.0937,0.7657 0.9375,0.125 q -0.1406,0.9843 -0.789,1.539 -0.6485,0.5547 -1.5704,0.5547 -1.1718,0 -1.8828,-0.7656 -0.7109,-0.7656 -0.7109,-2.1875 0,-0.9219 0.3047,-1.6172 0.3047,-0.6953 0.9297,-1.0391 0.625,-0.3437 1.3593,-0.3437 0.9219,0 1.5157,0.4687 0.5937,0.4688 0.7656,1.3282 l -0.9531,0.1406 q -0.125,-0.5625 -0.4688,-0.8516 -0.3437,-0.289 -0.8281,-0.289 -0.7187,0 -1.1797,0.5234 -0.4609,0.5234 -0.4609,1.6484 0,1.1563 0.4375,1.6719 0.4375,0.5156 1.1562,0.5156 0.5625,0 0.9453,-0.3437 0.3829,-0.3438 0.4922,-1.0781 z m 2.2813,2.0937 0,-7.875 0.9687,0 0,4.4844 2.2813,-2.3125 1.25,0 -2.1719,2.1094 2.3906,3.5937 -1.1875,0 -1.8906,-2.9219 -0.6719,0.6563 0,2.2656 -0.9687,0 z m 8.5156,-2.8437 -1.4062,-2.4375 0.7968,0 1.7188,2.4375 -1.7188,2.4531 -0.7812,0 1.3906,-2.4531 z m -2.0781,0 -1.4219,-2.4375 0.8125,0 1.6875,2.4375 -1.6875,2.4531 -0.8125,0 1.4219,-2.4531 z" />
    <path
       style="fill:#000000;stroke:none"
       inkscape:connector-curvature="0"
       id="path6309"
       clip-path="url(#clipPath1)"
       d="m 95.8438,214.6072 1.5312,0.4844 q -0.3438,1.2812 -1.1719,1.914 -0.8281,0.6328 -2.0937,0.6328 -1.5625,0 -2.5782,-1.0781 -1.0156,-1.0781 -1.0156,-2.9375 0,-1.9531 1.0156,-3.0469 1.0157,-1.0937 2.6719,-1.0937 1.4531,0 2.3438,0.8594 0.5469,0.5 0.8125,1.4531 l -1.5782,0.375 q -0.1406,-0.6094 -0.5781,-0.9688 -0.4375,-0.3593 -1.0781,-0.3593 -0.875,0 -1.4219,0.6328 -0.5469,0.6328 -0.5469,2.039 0,1.4844 0.5391,2.125 0.5391,0.6407 1.3985,0.6407 0.6406,0 1.0937,-0.4063 0.4531,-0.4062 0.6563,-1.2656 z m 4.0781,-1.0781 -1.375,-0.25 q 0.2343,-0.8125 0.7969,-1.211 0.5624,-0.3984 1.6718,-0.3984 1.0156,0 1.5078,0.2344 0.4922,0.2343 0.6954,0.6015 0.2031,0.3672 0.2031,1.3516 l -0.0157,1.7656 q 0,0.75 0.0704,1.1094 0.0703,0.3594 0.2734,0.7656 l -1.5,0 q -0.0625,-0.1562 -0.1406,-0.4531 -0.0313,-0.125 -0.0469,-0.1719 -0.3906,0.375 -0.8359,0.5625 -0.4454,0.1875 -0.9454,0.1875 -0.875,0 -1.3828,-0.4766 -0.5078,-0.4765 -0.5078,-1.2109 0,-0.4844 0.2344,-0.8594 0.2344,-0.375 0.6484,-0.5781 0.4141,-0.2031 1.1954,-0.3594 1.0624,-0.1875 1.4687,-0.3593 l 0,-0.1563 q 0,-0.4375 -0.2187,-0.6172 -0.2188,-0.1797 -0.8126,-0.1797 -0.3906,0 -0.6171,0.1563 -0.2266,0.1562 -0.3672,0.5469 z m 2.0156,1.2343 q -0.2969,0.0938 -0.9219,0.2266 -0.625,0.1328 -0.8125,0.2578 -0.2969,0.2188 -0.2969,0.5313 0,0.3281 0.2344,0.5546 0.2344,0.2266 0.5938,0.2266 0.4062,0 0.7812,-0.2656 0.2813,-0.2031 0.3594,-0.5 0.0625,-0.1875 0.0625,-0.7344 l 0,-0.2969 z m 2.8125,-2.9687 1.4062,0 0,0.8437 q 0.2657,-0.4375 0.7344,-0.7031 0.4688,-0.2656 1.0469,-0.2656 0.9844,0 1.6797,0.7734 0.6953,0.7735 0.6953,2.1641 0,1.4375 -0.6953,2.2265 -0.6953,0.7891 -1.6953,0.7891 -0.4688,0 -0.8516,-0.1875 -0.3828,-0.1875 -0.8203,-0.6406 l 0,2.875 -1.5,0 0,-7.875 z m 1.4844,2.75 q 0,0.9687 0.3828,1.4297 0.3828,0.4609 0.9297,0.4609 0.5312,0 0.8828,-0.4219 0.3515,-0.4218 0.3515,-1.3906 0,-0.8906 -0.3593,-1.3281 -0.3594,-0.4375 -0.8907,-0.4375 -0.5624,0 -0.9296,0.4297 -0.3672,0.4297 -0.3672,1.2578 z m 8.1718,-2.75 0,1.2031 -1.0312,0 0,2.2969 q 0,0.7031 0.0312,0.8203 0.0313,0.1172 0.1329,0.1875 0.1015,0.0703 0.2578,0.0703 0.2031,0 0.6093,-0.1406 l 0.125,1.1719 q -0.5312,0.2187 -1.1874,0.2187 -0.4219,0 -0.75,-0.1328 -0.3282,-0.1328 -0.4766,-0.3516 -0.1484,-0.2187 -0.211,-0.5937 -0.0468,-0.2656 -0.0468,-1.0625 l 0,-2.4844 -0.6875,0 0,-1.2031 0.6875,0 0,-1.1406 1.5156,-0.875 0,2.0156 1.0312,0 z m 4.6876,3.8906 1.5,0.25 q -0.2813,0.8281 -0.9063,1.2578 -0.625,0.4297 -1.5781,0.4297 -1.4844,0 -2.2032,-0.9687 -0.5624,-0.7813 -0.5624,-1.9688 0,-1.4219 0.7421,-2.2187 0.7422,-0.7969 1.8829,-0.7969 1.2656,0 2,0.8359 0.7343,0.836 0.7031,2.5703 l -3.7813,0 q 0.0156,0.6719 0.3672,1.0469 0.3516,0.375 0.8672,0.375 0.3594,0 0.6016,-0.1953 0.2422,-0.1953 0.3672,-0.6172 z m 0.0781,-1.5312 q -0.0157,-0.6563 -0.336,-0.9922 -0.3203,-0.336 -0.7734,-0.336 -0.5,0 -0.8281,0.3594 -0.3125,0.3594 -0.3125,0.9688 l 2.25,0 z m 7.375,3.3437 0,-0.8594 q -0.3125,0.4688 -0.8203,0.7266 -0.5078,0.2578 -1.0704,0.2578 -0.5781,0 -1.0312,-0.25 -0.4531,-0.25 -0.6641,-0.7109 -0.2109,-0.461 -0.2109,-1.2578 l 0,-3.6094 1.5156,0 0,2.625 q 0,1.2031 0.086,1.4687 0.0859,0.2657 0.3046,0.4297 0.2188,0.1641 0.5626,0.1641 0.375,0 0.6874,-0.211 0.3126,-0.2109 0.4219,-0.5312 0.1094,-0.3203 0.1094,-1.5391 l 0,-2.4062 1.5156,0 0,5.7031 -1.4062,0 z m 4.6875,0 -1.5156,0 0,-5.7031 1.4062,0 0,0.8125 q 0.3594,-0.5781 0.6484,-0.7578 0.2891,-0.1797 0.6485,-0.1797 0.5156,0 1,0.2812 l -0.4688,1.3125 q -0.375,-0.25 -0.7031,-0.25 -0.3281,0 -0.5469,0.1797 -0.2187,0.1797 -0.3437,0.6328 -0.125,0.4532 -0.125,1.9063 l 0,1.7656 z m 3.0312,-1.625 1.5,-0.2344 q 0.1094,0.4375 0.3985,0.6641 0.289,0.2266 0.8203,0.2266 0.5937,0 0.8906,-0.2032 0.2031,-0.1562 0.2031,-0.4062 0,-0.1719 -0.1093,-0.2813 -0.125,-0.1093 -0.5157,-0.2031 -1.8125,-0.4062 -2.3125,-0.7344 -0.6718,-0.4687 -0.6718,-1.2812 0,-0.75 0.5859,-1.25 0.5859,-0.5 1.8203,-0.5 1.1719,0 1.7344,0.375 0.5625,0.375 0.7812,1.125 l -1.4218,0.2656 q -0.0938,-0.3281 -0.3438,-0.5078 -0.25,-0.1797 -0.7344,-0.1797 -0.5937,0 -0.8437,0.1719 -0.1719,0.1094 -0.1719,0.2969 0,0.1718 0.1406,0.2812 0.2032,0.1563 1.4141,0.4297 1.2109,0.2734 1.6797,0.6641 0.4844,0.4062 0.4844,1.125 0,0.7812 -0.6563,1.3437 -0.6563,0.5625 -1.9531,0.5625 -1.1563,0 -1.836,-0.4687 -0.6796,-0.4688 -0.8828,-1.2813 z" />
    <rect
       style="fill:#b2b2b2;stroke:none"
       id="rect6311"
       height="42"
       width="47"
       clip-path="url(#clipPath1)"
       y="122"
       x="383" />
    <rect
       style="fill:url(#linearGradient6);stroke:none"
       id="rect6313"
       height="42"
       width="47"
       clip-path="url(#clipPath1)"
       y="119"
       x="380" />
    <rect
       style="fill:none;stroke:#99795c"
       id="rect6315"
       height="42"
       width="47"
       clip-path="url(#clipPath1)"
       y="119"
       x="380" />
    <line
       style="fill:none;stroke:#99795c"
       id="line6317"
       y2="152"
       y1="152"
       x2="427"
       x1="380"
       clip-path="url(#clipPath1)" />
    <path
       style="fill:#000000;stroke:none"
       inkscape:connector-curvature="0"
       id="path6319"
       clip-path="url(#clipPath1)"
       d="m 386.8281,129.6541 1.3907,2.4531 -0.7813,0 -1.7187,-2.4531 1.7187,-2.4375 0.7969,0 -1.4063,2.4375 z m 2.0781,0 1.4219,2.4531 -0.8281,0 -1.6719,-2.4531 1.6719,-2.4375 0.8281,0 -1.4219,2.4375 z m 3.7032,2.8437 -0.8906,0 0,-7.875 0.9687,0 0,2.8125 q 0.6094,-0.7656 1.5625,-0.7656 0.5312,0 1,0.2109 0.4688,0.211 0.7734,0.5938 0.3047,0.3828 0.4766,0.9218 0.1719,0.5391 0.1719,1.1641 0,1.4688 -0.7266,2.2656 -0.7265,0.7969 -1.7422,0.7969 -1.0156,0 -1.5937,-0.8437 l 0,0.7187 z m 0,-2.8906 q 0,1.0156 0.2812,1.4844 0.4532,0.7343 1.2344,0.7343 0.625,0 1.0859,-0.5468 0.461,-0.5469 0.461,-1.6407 0,-1.1093 -0.4375,-1.6406 -0.4375,-0.5312 -1.0782,-0.5312 -0.625,0 -1.0859,0.5468 -0.4609,0.5469 -0.4609,1.5938 z m 5.0937,2.8906 0,-7.875 0.9688,0 0,7.875 -0.9688,0 z m 1.6563,-2.8594 q 0,-1.5781 0.8906,-2.3437 0.7344,-0.625 1.7969,-0.625 1.1719,0 1.914,0.7656 0.7422,0.7656 0.7422,2.125 0,1.1094 -0.3281,1.7422 -0.3281,0.6328 -0.9609,0.9766 -0.6329,0.3437 -1.3672,0.3437 -1.2031,0 -1.9453,-0.7656 -0.7422,-0.7656 -0.7422,-2.2188 z m 1,0 q 0,1.1094 0.4765,1.6485 0.4766,0.539 1.211,0.539 0.7187,0 1.1953,-0.5468 0.4766,-0.5469 0.4766,-1.6719 0,-1.0469 -0.4844,-1.5938 -0.4844,-0.5468 -1.1875,-0.5468 -0.7344,0 -1.211,0.539 -0.4765,0.5391 -0.4765,1.6328 z m 9.0937,0.7657 0.9375,0.125 q -0.1406,0.9843 -0.789,1.539 -0.6485,0.5547 -1.5704,0.5547 -1.1718,0 -1.8828,-0.7656 -0.7109,-0.7656 -0.7109,-2.1875 0,-0.9219 0.3047,-1.6172 0.3047,-0.6953 0.9297,-1.0391 0.625,-0.3437 1.3593,-0.3437 0.9219,0 1.5157,0.4687 0.5937,0.4688 0.7656,1.3282 l -0.9531,0.1406 q -0.125,-0.5625 -0.4688,-0.8516 -0.3437,-0.289 -0.8281,-0.289 -0.7187,0 -1.1797,0.5234 -0.4609,0.5234 -0.4609,1.6484 0,1.1563 0.4375,1.6719 0.4375,0.5156 1.1562,0.5156 0.5625,0 0.9453,-0.3437 0.3829,-0.3438 0.4922,-1.0781 z m 2.2813,2.0937 0,-7.875 0.9687,0 0,4.4844 2.2813,-2.3125 1.25,0 -2.1719,2.1094 2.3906,3.5937 -1.1875,0 -1.8906,-2.9219 -0.6719,0.6563 0,2.2656 -0.9687,0 z m 8.5156,-2.8437 -1.4062,-2.4375 0.7968,0 1.7188,2.4375 -1.7188,2.4531 -0.7812,0 1.3906,-2.4531 z m -2.0781,0 -1.4219,-2.4375 0.8125,0 1.6875,2.4375 -1.6875,2.4531 -0.8125,0 1.4219,-2.4531 z" />
    <path
       style="fill:#000000;stroke:none"
       inkscape:connector-curvature="0"
       id="path6321"
       clip-path="url(#clipPath1)"
       d="m 388.8438,144.6072 1.5312,0.4844 q -0.3438,1.2812 -1.1719,1.914 -0.8281,0.6328 -2.0937,0.6328 -1.5625,0 -2.5782,-1.0781 -1.0156,-1.0781 -1.0156,-2.9375 0,-1.9531 1.0156,-3.0469 1.0157,-1.0937 2.6719,-1.0937 1.4531,0 2.3438,0.8594 0.5469,0.5 0.8125,1.4531 l -1.5782,0.375 q -0.1406,-0.6094 -0.5781,-0.9688 -0.4375,-0.3593 -1.0781,-0.3593 -0.875,0 -1.4219,0.6328 -0.5469,0.6328 -0.5469,2.039 0,1.4844 0.5391,2.125 0.5391,0.6407 1.3985,0.6407 0.6406,0 1.0937,-0.4063 0.4531,-0.4062 0.6563,-1.2656 z m 2.9531,-3.5938 0,-1.3906 1.5,0 0,1.3906 -1.5,0 z m 0,6.4844 0,-5.7031 1.5,0 0,5.7031 -1.5,0 z m 2.4687,-1.625 1.5,-0.2344 q 0.1094,0.4375 0.3985,0.6641 0.289,0.2266 0.8203,0.2266 0.5937,0 0.8906,-0.2032 0.2031,-0.1562 0.2031,-0.4062 0,-0.1719 -0.1093,-0.2813 -0.125,-0.1093 -0.5157,-0.2031 -1.8125,-0.4062 -2.3125,-0.7344 -0.6718,-0.4687 -0.6718,-1.2812 0,-0.75 0.5859,-1.25 0.5859,-0.5 1.8203,-0.5 1.1719,0 1.7344,0.375 0.5625,0.375 0.7812,1.125 l -1.4218,0.2656 q -0.0938,-0.3281 -0.3438,-0.5078 -0.25,-0.1797 -0.7344,-0.1797 -0.5937,0 -0.8437,0.1719 -0.1719,0.1094 -0.1719,0.2969 0,0.1718 0.1406,0.2812 0.2032,0.1563 1.4141,0.4297 1.2109,0.2734 1.6797,0.6641 0.4844,0.4062 0.4844,1.125 0,0.7812 -0.6563,1.3437 -0.6563,0.5625 -1.9531,0.5625 -1.1563,0 -1.836,-0.4687 -0.6796,-0.4688 -0.8828,-1.2813 z m 8.6563,-2.3437 -1.375,-0.25 q 0.2343,-0.8125 0.7969,-1.211 0.5624,-0.3984 1.6718,-0.3984 1.0156,0 1.5078,0.2344 0.4922,0.2343 0.6954,0.6015 0.2031,0.3672 0.2031,1.3516 l -0.0157,1.7656 q 0,0.75 0.0704,1.1094 0.0703,0.3594 0.2734,0.7656 l -1.5,0 q -0.0625,-0.1562 -0.1406,-0.4531 -0.0313,-0.125 -0.0469,-0.1719 -0.3906,0.375 -0.8359,0.5625 -0.4454,0.1875 -0.9454,0.1875 -0.875,0 -1.3828,-0.4766 -0.5078,-0.4765 -0.5078,-1.2109 0,-0.4844 0.2344,-0.8594 0.2344,-0.375 0.6484,-0.5781 0.4141,-0.2031 1.1954,-0.3594 1.0624,-0.1875 1.4687,-0.3593 l 0,-0.1563 q 0,-0.4375 -0.2187,-0.6172 -0.2188,-0.1797 -0.8126,-0.1797 -0.3906,0 -0.6171,0.1563 -0.2266,0.1562 -0.3672,0.5469 z m 2.0156,1.2343 q -0.2969,0.0938 -0.9219,0.2266 -0.625,0.1328 -0.8125,0.2578 -0.2969,0.2188 -0.2969,0.5313 0,0.3281 0.2344,0.5546 0.2344,0.2266 0.5938,0.2266 0.4062,0 0.7812,-0.2656 0.2813,-0.2031 0.3594,-0.5 0.0625,-0.1875 0.0625,-0.7344 l 0,-0.2969 z m 2.8594,-3.75 0,-1.3906 1.5,0 0,1.3906 -1.5,0 z m 0,6.4844 0,-5.7031 1.5,0 0,5.7031 -1.5,0 z m 3,0 0,-7.875 1.5,0 0,7.875 -1.5,0 z m 3,0 0,-7.875 1.5,0 0,7.875 -1.5,0 z m 6.2969,-1.8125 1.5,0.25 q -0.2813,0.8281 -0.9063,1.2578 -0.625,0.4297 -1.5781,0.4297 -1.4844,0 -2.2032,-0.9687 -0.5624,-0.7813 -0.5624,-1.9688 0,-1.4219 0.7421,-2.2187 0.7422,-0.7969 1.8829,-0.7969 1.2656,0 2,0.8359 0.7343,0.836 0.7031,2.5703 l -3.7813,0 q 0.0156,0.6719 0.3672,1.0469 0.3516,0.375 0.8672,0.375 0.3594,0 0.6016,-0.1953 0.2422,-0.1953 0.3672,-0.6172 z m 0.0781,-1.5312 q -0.0157,-0.6563 -0.336,-0.9922 -0.3203,-0.336 -0.7734,-0.336 -0.5,0 -0.8281,0.3594 -0.3125,0.3594 -0.3125,0.9688 l 2.25,0 z" />
    <rect
       style="fill:#b2b2b2;stroke:none"
       id="rect6323"
       height="42"
       width="44"
       clip-path="url(#clipPath1)"
       y="192"
       x="435" />
    <rect
       style="fill:url(#linearGradient7);stroke:none"
       id="rect6325"
       height="42"
       width="44"
       clip-path="url(#clipPath1)"
       y="189"
       x="432" />
    <rect
       style="fill:none;stroke:#99795c"
       id="rect6327"
       height="42"
       width="44"
       clip-path="url(#clipPath1)"
       y="189"
       x="432" />
    <line
       style="fill:none;stroke:#99795c"
       id="line6329"
       y2="222"
       y1="222"
       x2="476"
       x1="432"
       clip-path="url(#clipPath1)" />
    <path
       style="fill:#000000;stroke:none"
       inkscape:connector-curvature="0"
       id="path6331"
       clip-path="url(#clipPath1)"
       d="m 436.8281,199.6541 1.3907,2.4531 -0.7813,0 -1.7187,-2.4531 1.7187,-2.4375 0.7969,0 -1.4063,2.4375 z m 2.0781,0 1.4219,2.4531 -0.8281,0 -1.6719,-2.4531 1.6719,-2.4375 0.8281,0 -1.4219,2.4375 z m 3.7032,2.8437 -0.8906,0 0,-7.875 0.9687,0 0,2.8125 q 0.6094,-0.7656 1.5625,-0.7656 0.5312,0 1,0.2109 0.4688,0.211 0.7734,0.5938 0.3047,0.3828 0.4766,0.9218 0.1719,0.5391 0.1719,1.1641 0,1.4688 -0.7266,2.2656 -0.7265,0.7969 -1.7422,0.7969 -1.0156,0 -1.5937,-0.8437 l 0,0.7187 z m 0,-2.8906 q 0,1.0156 0.2812,1.4844 0.4532,0.7343 1.2344,0.7343 0.625,0 1.0859,-0.5468 0.461,-0.5469 0.461,-1.6407 0,-1.1093 -0.4375,-1.6406 -0.4375,-0.5312 -1.0782,-0.5312 -0.625,0 -1.0859,0.5468 -0.4609,0.5469 -0.4609,1.5938 z m 5.0937,2.8906 0,-7.875 0.9688,0 0,7.875 -0.9688,0 z m 1.6563,-2.8594 q 0,-1.5781 0.8906,-2.3437 0.7344,-0.625 1.7969,-0.625 1.1719,0 1.914,0.7656 0.7422,0.7656 0.7422,2.125 0,1.1094 -0.3281,1.7422 -0.3281,0.6328 -0.9609,0.9766 -0.6329,0.3437 -1.3672,0.3437 -1.2031,0 -1.9453,-0.7656 -0.7422,-0.7656 -0.7422,-2.2188 z m 1,0 q 0,1.1094 0.4765,1.6485 0.4766,0.539 1.211,0.539 0.7187,0 1.1953,-0.5468 0.4766,-0.5469 0.4766,-1.6719 0,-1.0469 -0.4844,-1.5938 -0.4844,-0.5468 -1.1875,-0.5468 -0.7344,0 -1.211,0.539 -0.4765,0.5391 -0.4765,1.6328 z m 9.0937,0.7657 0.9375,0.125 q -0.1406,0.9843 -0.789,1.539 -0.6485,0.5547 -1.5704,0.5547 -1.1718,0 -1.8828,-0.7656 -0.7109,-0.7656 -0.7109,-2.1875 0,-0.9219 0.3047,-1.6172 0.3047,-0.6953 0.9297,-1.0391 0.625,-0.3437 1.3593,-0.3437 0.9219,0 1.5157,0.4687 0.5937,0.4688 0.7656,1.3282 l -0.9531,0.1406 q -0.125,-0.5625 -0.4688,-0.8516 -0.3437,-0.289 -0.8281,-0.289 -0.7187,0 -1.1797,0.5234 -0.4609,0.5234 -0.4609,1.6484 0,1.1563 0.4375,1.6719 0.4375,0.5156 1.1562,0.5156 0.5625,0 0.9453,-0.3437 0.3829,-0.3438 0.4922,-1.0781 z m 2.2813,2.0937 0,-7.875 0.9687,0 0,4.4844 2.2813,-2.3125 1.25,0 -2.1719,2.1094 2.3906,3.5937 -1.1875,0 -1.8906,-2.9219 -0.6719,0.6563 0,2.2656 -0.9687,0 z m 8.5156,-2.8437 -1.4062,-2.4375 0.7968,0 1.7188,2.4375 -1.7188,2.4531 -0.7812,0 1.3906,-2.4531 z m -2.0781,0 -1.4219,-2.4375 0.8125,0 1.6875,2.4375 -1.6875,2.4531 -0.8125,0 1.4219,-2.4531 z" />
    <path
       style="fill:#000000;stroke:none"
       inkscape:connector-curvature="0"
       id="path6333"
       clip-path="url(#clipPath1)"
       d="m 436.8125,209.6228 3.1406,0 q 0.9375,0 1.3985,0.0781 0.4609,0.0782 0.8203,0.3282 0.3593,0.25 0.6015,0.6562 0.2422,0.4063 0.2422,0.9219 0,0.5469 -0.2968,1.0078 -0.2969,0.4609 -0.8126,0.6953 0.7188,0.2188 1.1094,0.7188 0.3906,0.5 0.3906,1.1875 0,0.5312 -0.25,1.039 -0.25,0.5078 -0.6874,0.8125 -0.4376,0.3047 -1.0626,0.3828 -0.4062,0.0313 -1.9218,0.0469 l -2.6719,0 0,-7.875 z m 1.5781,1.3125 0,1.8125 1.0469,0 q 0.9219,0 1.1563,-0.0156 0.4062,-0.0469 0.6406,-0.2813 0.2344,-0.2343 0.2344,-0.625 0,-0.3593 -0.2032,-0.5859 -0.2031,-0.2266 -0.5937,-0.2734 -0.2344,-0.0313 -1.3594,-0.0313 l -0.9219,0 z m 0,3.125 0,2.1094 1.4844,0 q 0.8594,0 1.0781,-0.0469 0.3594,-0.0625 0.586,-0.3125 0.2265,-0.25 0.2265,-0.6719 0,-0.3593 -0.1718,-0.6015 -0.1719,-0.2422 -0.5,-0.3594 -0.3282,-0.1172 -1.4219,-0.1172 l -1.2813,0 z m 8.7032,1.625 1.5,0.25 q -0.2813,0.8281 -0.9063,1.2578 -0.625,0.4297 -1.5781,0.4297 -1.4844,0 -2.2032,-0.9687 -0.5624,-0.7813 -0.5624,-1.9688 0,-1.4219 0.7421,-2.2187 0.7422,-0.7969 1.8829,-0.7969 1.2656,0 2,0.8359 0.7343,0.836 0.7031,2.5703 l -3.7813,0 q 0.0156,0.6719 0.3672,1.0469 0.3516,0.375 0.8672,0.375 0.3594,0 0.6016,-0.1953 0.2422,-0.1953 0.3672,-0.6172 z m 0.0781,-1.5312 q -0.0157,-0.6563 -0.336,-0.9922 -0.3203,-0.336 -0.7734,-0.336 -0.5,0 -0.8281,0.3594 -0.3125,0.3594 -0.3125,0.9688 l 2.25,0 z m 8.8125,3.3437 -1.5156,0 0,-2.9062 q 0,-0.9219 -0.0938,-1.1954 -0.0938,-0.2734 -0.3125,-0.4218 -0.2187,-0.1485 -0.5313,-0.1485 -0.3906,0 -0.7031,0.211 -0.3125,0.2109 -0.4297,0.5625 -0.1172,0.3515 -0.1172,1.3203 l 0,2.5781 -1.5,0 0,-5.7031 1.4063,0 0,0.8437 q 0.7344,-0.9687 1.875,-0.9687 0.5,0 0.9141,0.1797 0.414,0.1797 0.625,0.4531 0.2109,0.2734 0.2968,0.6328 0.086,0.3594 0.086,1.0156 l 0,3.5469 z m 7,0 -1.5156,0 0,-2.9062 q 0,-0.9219 -0.0938,-1.1954 -0.0938,-0.2734 -0.3125,-0.4218 -0.2187,-0.1485 -0.5313,-0.1485 -0.3906,0 -0.7031,0.211 -0.3125,0.2109 -0.4297,0.5625 -0.1172,0.3515 -0.1172,1.3203 l 0,2.5781 -1.5,0 0,-5.7031 1.4063,0 0,0.8437 q 0.7344,-0.9687 1.875,-0.9687 0.5,0 0.9141,0.1797 0.414,0.1797 0.625,0.4531 0.2109,0.2734 0.2968,0.6328 0.086,0.3594 0.086,1.0156 l 0,3.5469 z m 5.1094,-1.8125 1.5,0.25 q -0.2813,0.8281 -0.9063,1.2578 -0.625,0.4297 -1.5781,0.4297 -1.4844,0 -2.2032,-0.9687 -0.5624,-0.7813 -0.5624,-1.9688 0,-1.4219 0.7421,-2.2187 0.7422,-0.7969 1.8829,-0.7969 1.2656,0 2,0.8359 0.7343,0.836 0.7031,2.5703 l -3.7813,0 q 0.0156,0.6719 0.3672,1.0469 0.3516,0.375 0.8672,0.375 0.3594,0 0.6016,-0.1953 0.2422,-0.1953 0.3672,-0.6172 z m 0.0781,-1.5312 q -0.0157,-0.6563 -0.336,-0.9922 -0.3203,-0.336 -0.7734,-0.336 -0.5,0 -0.8281,0.3594 -0.3125,0.3594 -0.3125,0.9688 l 2.25,0 z" />
    <rect
       style="fill:#b2b2b2;stroke:none"
       id="rect6335"
       height="42"
       width="44"
       clip-path="url(#clipPath1)"
       y="192"
       x="221" />
    <rect
       style="fill:url(#linearGradient8);stroke:none"
       id="rect6337"
       height="42"
       width="44"
       clip-path="url(#clipPath1)"
       y="189"
       x="218" />
    <rect
       style="fill:none;stroke:#99795c"
       id="rect6339"
       height="42"
       width="44"
       clip-path="url(#clipPath1)"
       y="189"
       x="218" />
    <line
       style="fill:none;stroke:#99795c"
       id="line6341"
       y2="222"
       y1="222"
       x2="262"
       x1="218"
       clip-path="url(#clipPath1)" />
    <path
       style="fill:#000000;stroke:none"
       inkscape:connector-curvature="0"
       id="path6343"
       clip-path="url(#clipPath1)"
       d="m 222.8281,199.6541 1.3907,2.4531 -0.7813,0 -1.7187,-2.4531 1.7187,-2.4375 0.7969,0 -1.4063,2.4375 z m 2.0781,0 1.4219,2.4531 -0.8281,0 -1.6719,-2.4531 1.6719,-2.4375 0.8281,0 -1.4219,2.4375 z m 3.7032,2.8437 -0.8906,0 0,-7.875 0.9687,0 0,2.8125 q 0.6094,-0.7656 1.5625,-0.7656 0.5312,0 1,0.2109 0.4688,0.211 0.7734,0.5938 0.3047,0.3828 0.4766,0.9218 0.1719,0.5391 0.1719,1.1641 0,1.4688 -0.7266,2.2656 -0.7265,0.7969 -1.7422,0.7969 -1.0156,0 -1.5937,-0.8437 l 0,0.7187 z m 0,-2.8906 q 0,1.0156 0.2812,1.4844 0.4532,0.7343 1.2344,0.7343 0.625,0 1.0859,-0.5468 0.461,-0.5469 0.461,-1.6407 0,-1.1093 -0.4375,-1.6406 -0.4375,-0.5312 -1.0782,-0.5312 -0.625,0 -1.0859,0.5468 -0.4609,0.5469 -0.4609,1.5938 z m 5.0937,2.8906 0,-7.875 0.9688,0 0,7.875 -0.9688,0 z m 1.6563,-2.8594 q 0,-1.5781 0.8906,-2.3437 0.7344,-0.625 1.7969,-0.625 1.1719,0 1.914,0.7656 0.7422,0.7656 0.7422,2.125 0,1.1094 -0.3281,1.7422 -0.3281,0.6328 -0.9609,0.9766 -0.6329,0.3437 -1.3672,0.3437 -1.2031,0 -1.9453,-0.7656 -0.7422,-0.7656 -0.7422,-2.2188 z m 1,0 q 0,1.1094 0.4765,1.6485 0.4766,0.539 1.211,0.539 0.7187,0 1.1953,-0.5468 0.4766,-0.5469 0.4766,-1.6719 0,-1.0469 -0.4844,-1.5938 -0.4844,-0.5468 -1.1875,-0.5468 -0.7344,0 -1.211,0.539 -0.4765,0.5391 -0.4765,1.6328 z m 9.0937,0.7657 0.9375,0.125 q -0.1406,0.9843 -0.789,1.539 -0.6485,0.5547 -1.5704,0.5547 -1.1718,0 -1.8828,-0.7656 -0.7109,-0.7656 -0.7109,-2.1875 0,-0.9219 0.3047,-1.6172 0.3047,-0.6953 0.9297,-1.0391 0.625,-0.3437 1.3593,-0.3437 0.9219,0 1.5157,0.4687 0.5937,0.4688 0.7656,1.3282 l -0.9531,0.1406 q -0.125,-0.5625 -0.4688,-0.8516 -0.3437,-0.289 -0.8281,-0.289 -0.7187,0 -1.1797,0.5234 -0.4609,0.5234 -0.4609,1.6484 0,1.1563 0.4375,1.6719 0.4375,0.5156 1.1562,0.5156 0.5625,0 0.9453,-0.3437 0.3829,-0.3438 0.4922,-1.0781 z m 2.2813,2.0937 0,-7.875 0.9687,0 0,4.4844 2.2813,-2.3125 1.25,0 -2.1719,2.1094 2.3906,3.5937 -1.1875,0 -1.8906,-2.9219 -0.6719,0.6563 0,2.2656 -0.9687,0 z m 8.5156,-2.8437 -1.4062,-2.4375 0.7968,0 1.7188,2.4375 -1.7188,2.4531 -0.7812,0 1.3906,-2.4531 z m -2.0781,0 -1.4219,-2.4375 0.8125,0 1.6875,2.4375 -1.6875,2.4531 -0.8125,0 1.4219,-2.4531 z" />
    <path
       style="fill:#000000;stroke:none"
       inkscape:connector-curvature="0"
       id="path6345"
       clip-path="url(#clipPath1)"
       d="m 227.5781,217.4978 0,-6.5469 -2.3437,0 0,-1.3281 6.2656,0 0,1.3281 -2.3438,0 0,6.5469 -1.5781,0 z m 5.2188,-6.4844 0,-1.3906 1.5,0 0,1.3906 -1.5,0 z m 0,6.4844 0,-5.7031 1.5,0 0,5.7031 -1.5,0 z m 4.4375,0 -1.5156,0 0,-5.7031 1.4062,0 0,0.8125 q 0.3594,-0.5781 0.6484,-0.7578 0.2891,-0.1797 0.6485,-0.1797 0.5156,0 1,0.2812 l -0.4688,1.3125 q -0.375,-0.25 -0.7031,-0.25 -0.3281,0 -0.5469,0.1797 -0.2187,0.1797 -0.3437,0.6328 -0.125,0.4532 -0.125,1.9063 l 0,1.7656 z m 3.2031,-2.9375 q 0,-0.75 0.375,-1.4531 0.375,-0.7031 1.0547,-1.0703 0.6797,-0.3672 1.5078,-0.3672 1.2969,0 2.125,0.8359 0.8281,0.836 0.8281,2.1172 0,1.2969 -0.8359,2.1484 -0.836,0.8516 -2.1016,0.8516 -0.7812,0 -1.4922,-0.3516 -0.7109,-0.3515 -1.0859,-1.039 -0.375,-0.6875 -0.375,-1.6719 z m 1.5469,0.0781 q 0,0.8594 0.4062,1.3125 0.4063,0.4532 1,0.4532 0.5782,0 0.9844,-0.4532 0.4062,-0.4531 0.4062,-1.3125 0,-0.8437 -0.4062,-1.2968 -0.4062,-0.4532 -0.9844,-0.4532 -0.5937,0 -1,0.4532 -0.4062,0.4531 -0.4062,1.2968 z m 5.8125,-3.625 0,-1.3906 1.5,0 0,1.3906 -1.5,0 z m 0,6.4844 0,-5.7031 1.5,0 0,5.7031 -1.5,0 z m 4.4375,0 -1.5156,0 0,-5.7031 1.4062,0 0,0.8125 q 0.3594,-0.5781 0.6484,-0.7578 0.2891,-0.1797 0.6485,-0.1797 0.5156,0 1,0.2812 l -0.4688,1.3125 q -0.375,-0.25 -0.7031,-0.25 -0.3281,0 -0.5469,0.1797 -0.2187,0.1797 -0.3437,0.6328 -0.125,0.4532 -0.125,1.9063 l 0,1.7656 z" />
    <rect
       style="fill:#b2b2b2;stroke:none"
       id="rect6347"
       height="42"
       width="44"
       clip-path="url(#clipPath1)"
       y="192"
       x="334" />
    <rect
       style="fill:url(#linearGradient9);stroke:none"
       id="rect6349"
       height="42"
       width="44"
       clip-path="url(#clipPath1)"
       y="189"
       x="331" />
    <rect
       style="fill:none;stroke:#99795c"
       id="rect6351"
       height="42"
       width="44"
       clip-path="url(#clipPath1)"
       y="189"
       x="331" />
    <line
       style="fill:none;stroke:#99795c"
       id="line6353"
       y2="222"
       y1="222"
       x2="375"
       x1="331"
       clip-path="url(#clipPath1)" />
    <path
       style="fill:#000000;stroke:none"
       inkscape:connector-curvature="0"
       id="path6355"
       clip-path="url(#clipPath1)"
       d="m 335.8281,199.6541 1.3907,2.4531 -0.7813,0 -1.7187,-2.4531 1.7187,-2.4375 0.7969,0 -1.4063,2.4375 z m 2.0781,0 1.4219,2.4531 -0.8281,0 -1.6719,-2.4531 1.6719,-2.4375 0.8281,0 -1.4219,2.4375 z m 3.7032,2.8437 -0.8906,0 0,-7.875 0.9687,0 0,2.8125 q 0.6094,-0.7656 1.5625,-0.7656 0.5312,0 1,0.2109 0.4688,0.211 0.7734,0.5938 0.3047,0.3828 0.4766,0.9218 0.1719,0.5391 0.1719,1.1641 0,1.4688 -0.7266,2.2656 -0.7265,0.7969 -1.7422,0.7969 -1.0156,0 -1.5937,-0.8437 l 0,0.7187 z m 0,-2.8906 q 0,1.0156 0.2812,1.4844 0.4532,0.7343 1.2344,0.7343 0.625,0 1.0859,-0.5468 0.461,-0.5469 0.461,-1.6407 0,-1.1093 -0.4375,-1.6406 -0.4375,-0.5312 -1.0782,-0.5312 -0.625,0 -1.0859,0.5468 -0.4609,0.5469 -0.4609,1.5938 z m 5.0937,2.8906 0,-7.875 0.9688,0 0,7.875 -0.9688,0 z m 1.6563,-2.8594 q 0,-1.5781 0.8906,-2.3437 0.7344,-0.625 1.7969,-0.625 1.1719,0 1.914,0.7656 0.7422,0.7656 0.7422,2.125 0,1.1094 -0.3281,1.7422 -0.3281,0.6328 -0.9609,0.9766 -0.6329,0.3437 -1.3672,0.3437 -1.2031,0 -1.9453,-0.7656 -0.7422,-0.7656 -0.7422,-2.2188 z m 1,0 q 0,1.1094 0.4765,1.6485 0.4766,0.539 1.211,0.539 0.7187,0 1.1953,-0.5468 0.4766,-0.5469 0.4766,-1.6719 0,-1.0469 -0.4844,-1.5938 -0.4844,-0.5468 -1.1875,-0.5468 -0.7344,0 -1.211,0.539 -0.4765,0.5391 -0.4765,1.6328 z m 9.0937,0.7657 0.9375,0.125 q -0.1406,0.9843 -0.789,1.539 -0.6485,0.5547 -1.5704,0.5547 -1.1718,0 -1.8828,-0.7656 -0.7109,-0.7656 -0.7109,-2.1875 0,-0.9219 0.3047,-1.6172 0.3047,-0.6953 0.9297,-1.0391 0.625,-0.3437 1.3593,-0.3437 0.9219,0 1.5157,0.4687 0.5937,0.4688 0.7656,1.3282 l -0.9531,0.1406 q -0.125,-0.5625 -0.4688,-0.8516 -0.3437,-0.289 -0.8281,-0.289 -0.7187,0 -1.1797,0.5234 -0.4609,0.5234 -0.4609,1.6484 0,1.1563 0.4375,1.6719 0.4375,0.5156 1.1562,0.5156 0.5625,0 0.9453,-0.3437 0.3829,-0.3438 0.4922,-1.0781 z m 2.2813,2.0937 0,-7.875 0.9687,0 0,4.4844 2.2813,-2.3125 1.25,0 -2.1719,2.1094 2.3906,3.5937 -1.1875,0 -1.8906,-2.9219 -0.6719,0.6563 0,2.2656 -0.9687,0 z m 8.5156,-2.8437 -1.4062,-2.4375 0.7968,0 1.7188,2.4375 -1.7188,2.4531 -0.7812,0 1.3906,-2.4531 z m -2.0781,0 -1.4219,-2.4375 0.8125,0 1.6875,2.4375 -1.6875,2.4531 -0.8125,0 1.4219,-2.4531 z" />
    <path
       style="fill:#000000;stroke:none"
       inkscape:connector-curvature="0"
       id="path6357"
       clip-path="url(#clipPath1)"
       d="m 336.8125,217.4978 -2.8125,-7.875 1.7188,0 2,5.8281 1.9218,-5.8281 1.6875,0 -2.8281,7.875 -1.6875,0 z m 9.2813,-1.8125 1.5,0.25 q -0.2813,0.8281 -0.9063,1.2578 -0.625,0.4297 -1.5781,0.4297 -1.4844,0 -2.2032,-0.9687 -0.5624,-0.7813 -0.5624,-1.9688 0,-1.4219 0.7421,-2.2187 0.7422,-0.7969 1.8829,-0.7969 1.2656,0 2,0.8359 0.7343,0.836 0.7031,2.5703 l -3.7813,0 q 0.0156,0.6719 0.3672,1.0469 0.3516,0.375 0.8672,0.375 0.3594,0 0.6016,-0.1953 0.2422,-0.1953 0.3672,-0.6172 z m 0.0781,-1.5312 q -0.0157,-0.6563 -0.336,-0.9922 -0.3203,-0.336 -0.7734,-0.336 -0.5,0 -0.8281,0.3594 -0.3125,0.3594 -0.3125,0.9688 l 2.25,0 z m -2.125,-3.6563 0.75,-1.6094 1.6875,0 -1.4844,1.6094 -0.9531,0 z m 7.1875,7 -1.5156,0 0,-5.7031 1.4062,0 0,0.8125 q 0.3594,-0.5781 0.6484,-0.7578 0.2891,-0.1797 0.6485,-0.1797 0.5156,0 1,0.2812 l -0.4688,1.3125 q -0.375,-0.25 -0.7031,-0.25 -0.3281,0 -0.5469,0.1797 -0.2187,0.1797 -0.3437,0.6328 -0.125,0.4532 -0.125,1.9063 l 0,1.7656 z m 3.5625,-6.4844 0,-1.3906 1.5,0 0,1.3906 -1.5,0 z m 0,6.4844 0,-5.7031 1.5,0 0,5.7031 -1.5,0 z m 8.1875,0 -1.5156,0 0,-2.9062 q 0,-0.9219 -0.0938,-1.1954 -0.0938,-0.2734 -0.3125,-0.4218 -0.2187,-0.1485 -0.5313,-0.1485 -0.3906,0 -0.7031,0.211 -0.3125,0.2109 -0.4297,0.5625 -0.1172,0.3515 -0.1172,1.3203 l 0,2.5781 -1.5,0 0,-5.7031 1.4063,0 0,0.8437 q 0.7344,-0.9687 1.875,-0.9687 0.5,0 0.9141,0.1797 0.414,0.1797 0.625,0.4531 0.2109,0.2734 0.2968,0.6328 0.086,0.3594 0.086,1.0156 l 0,3.5469 z m 1.2812,-1.625 1.5,-0.2344 q 0.1094,0.4375 0.3985,0.6641 0.289,0.2266 0.8203,0.2266 0.5937,0 0.8906,-0.2032 0.2031,-0.1562 0.2031,-0.4062 0,-0.1719 -0.1093,-0.2813 -0.125,-0.1093 -0.5157,-0.2031 -1.8125,-0.4062 -2.3125,-0.7344 -0.6718,-0.4687 -0.6718,-1.2812 0,-0.75 0.5859,-1.25 0.5859,-0.5 1.8203,-0.5 1.1719,0 1.7344,0.375 0.5625,0.375 0.7812,1.125 l -1.4218,0.2656 q -0.0938,-0.3281 -0.3438,-0.5078 -0.25,-0.1797 -0.7344,-0.1797 -0.5937,0 -0.8437,0.1719 -0.1719,0.1094 -0.1719,0.2969 0,0.1718 0.1406,0.2812 0.2032,0.1563 1.4141,0.4297 1.2109,0.2734 1.6797,0.6641 0.4844,0.4062 0.4844,1.125 0,0.7812 -0.6563,1.3437 -0.6563,0.5625 -1.9531,0.5625 -1.1563,0 -1.836,-0.4687 -0.6796,-0.4688 -0.8828,-1.2813 z" />
    <polygon
       style="fill:none"
       id="polygon6359"
       clip-path="url(#clipPath1)"
       points="441,96 443,103 445,96 443,91 " />
    <polygon
       style="stroke:none"
       id="polygon6361"
       clip-path="url(#clipPath1)"
       points="441,96 443,103 445,96 443,91 " />
    <polygon
       style="fill:none"
       id="polygon6363"
       clip-path="url(#clipPath1)"
       points="441,96 443,103 445,96 443,91 " />
    <path
       style="fill:none"
       inkscape:connector-curvature="0"
       id="path6365"
       clip-path="url(#clipPath1)"
       d="m 443,189 0,-86" />
    <polygon
       style="fill:none"
       id="polygon6367"
       clip-path="url(#clipPath1)"
       points="227,96 229,103 231,96 229,91 " />
    <polygon
       style="stroke:none"
       id="polygon6369"
       clip-path="url(#clipPath1)"
       points="227,96 229,103 231,96 229,91 " />
    <polygon
       style="fill:none"
       id="polygon6371"
       clip-path="url(#clipPath1)"
       points="227,96 229,103 231,96 229,91 " />
    <path
       style="fill:none"
       inkscape:connector-curvature="0"
       id="path6373"
       clip-path="url(#clipPath1)"
       d="m 229,189 0,-86" />
    <polygon
       style="fill:none"
       id="polygon6375"
       clip-path="url(#clipPath1)"
       points="103,96 105,103 107,96 105,91 " />
    <polygon
       style="stroke:none"
       id="polygon6377"
       clip-path="url(#clipPath1)"
       points="103,96 105,103 107,96 105,91 " />
    <polygon
       style="fill:none"
       id="polygon6379"
       clip-path="url(#clipPath1)"
       points="103,96 105,103 107,96 105,91 " />
    <path
       style="fill:none"
       inkscape:connector-curvature="0"
       id="path6381"
       clip-path="url(#clipPath1)"
       d="m 105,189 0,-86" />
    <polygon
       style="fill:none"
       id="polygon6383"
       clip-path="url(#clipPath1)"
       points="340,96 342,103 344,96 342,91 " />
    <polygon
       style="stroke:none"
       id="polygon6385"
       clip-path="url(#clipPath1)"
       points="340,96 342,103 344,96 342,91 " />
    <polygon
       style="fill:none"
       id="polygon6387"
       clip-path="url(#clipPath1)"
       points="340,96 342,103 344,96 342,91 " />
    <path
       style="fill:none"
       inkscape:connector-curvature="0"
       id="path6389"
       clip-path="url(#clipPath1)"
       d="m 342,189 0,-86" />
    <polygon
       style="fill:none"
       id="polygon6391"
       clip-path="url(#clipPath1)"
       points="283,96 285,103 287,96 285,91 " />
    <polygon
       style="stroke:none"
       id="polygon6393"
       clip-path="url(#clipPath1)"
       points="283,96 285,103 287,96 285,91 " />
    <polygon
       style="fill:none"
       id="polygon6395"
       clip-path="url(#clipPath1)"
       points="283,96 285,103 287,96 285,91 " />
    <path
       style="fill:none"
       inkscape:connector-curvature="0"
       id="path6397"
       clip-path="url(#clipPath1)"
       d="m 285,126 0,-23" />
    <polygon
       style="fill:none"
       id="polygon6399"
       clip-path="url(#clipPath1)"
       points="166,96 168,103 170,96 168,91 " />
    <polygon
       style="stroke:none"
       id="polygon6401"
       clip-path="url(#clipPath1)"
       points="166,96 168,103 170,96 168,91 " />
    <polygon
       style="fill:none"
       id="polygon6403"
       clip-path="url(#clipPath1)"
       points="166,96 168,103 170,96 168,91 " />
    <path
       style="fill:none"
       inkscape:connector-curvature="0"
       id="path6405"
       clip-path="url(#clipPath1)"
       d="m 168,126 0,-23" />
    <polygon
       style="fill:none"
       id="polygon6407"
       clip-path="url(#clipPath1)"
       points="47,96 49,103 51,96 49,91 " />
    <polygon
       style="stroke:none"
       id="polygon6409"
       clip-path="url(#clipPath1)"
       points="47,96 49,103 51,96 49,91 " />
    <polygon
       style="fill:none"
       id="polygon6411"
       clip-path="url(#clipPath1)"
       points="47,96 49,103 51,96 49,91 " />
    <path
       style="fill:none"
       inkscape:connector-curvature="0"
       id="path6413"
       clip-path="url(#clipPath1)"
       d="m 49,126 0,-23" />
    <polygon
       style="fill:none"
       id="polygon6415"
       clip-path="url(#clipPath1)"
       points="389,96 391,103 393,96 391,91 " />
    <polygon
       style="stroke:none"
       id="polygon6417"
       clip-path="url(#clipPath1)"
       points="389,96 391,103 393,96 391,91 " />
    <polygon
       style="fill:none"
       id="polygon6419"
       clip-path="url(#clipPath1)"
       points="389,96 391,103 393,96 391,91 " />
    <path
       style="fill:none"
       inkscape:connector-curvature="0"
       id="path6421"
       clip-path="url(#clipPath1)"
       d="m 391,119 0,-16" />
  </g>
  <metadata
     id="metadata6425">
    <rdf:RDF>
      <cc:Work
         rdf:about="">
        <dc:format>image/svg+xml</dc:format>
        <dc:type
           rdf:resource="http://purl.org/dc/dcmitype/StillImage" />
        <dc:title></dc:title>
      </cc:Work>
    </rdf:RDF>
  </metadata>
  <sodipodi:namedview
     pagecolor="#ffffff"
     bordercolor="#666666"
     borderopacity="1"
     objecttolerance="10"
     gridtolerance="10"
     guidetolerance="10"
     inkscape:pageopacity="0"
     inkscape:pageshadow="2"
     inkscape:window-width="1366"
     inkscape:window-height="705"
     id="namedview6423"
     showgrid="false"
     fit-margin-top="0"
     fit-margin-left="0"
     fit-margin-right="0"
     fit-margin-bottom="0"
     inkscape:zoom="0.74646652"
     inkscape:cx="67.452247"
     inkscape:cy="111.09375"
     inkscape:window-x="-8"
     inkscape:window-y="-8"
     inkscape:window-maximized="1"
     inkscape:current-layer="svg6156" />
  <!--Generated by the Batik Graphics2D SVG Generator
 This is MagicDraw diagram.-->
  <defs
     id="genericDefs">
    <defs
       id="defs1">
      <linearGradient
         spreadMethod="pad"
         id="linearGradient1"
         y2="91"
         y1="49"
         x2="490"
         gradientUnits="userSpaceOnUse"
         x1="42">
        <stop
           id="stop6163"
           offset="0%"
           stop-color="rgb(221,205,158)"
           stop-opacity="1" />
        <stop
           id="stop6165"
           offset="100%"
           stop-color="rgb(255,255,225)"
           stop-opacity="1" />
      </linearGradient>
      <linearGradient
         spreadMethod="pad"
         id="linearGradient2"
         y2="168"
         y1="126"
         x2="213"
         gradientUnits="userSpaceOnUse"
         x1="150">
        <stop
           id="stop6168"
           offset="0%"
           stop-color="rgb(221,205,158)"
           stop-opacity="1" />
        <stop
           id="stop6170"
           offset="100%"
           stop-color="rgb(255,255,225)"
           stop-opacity="1" />
      </linearGradient>
      <linearGradient
         spreadMethod="pad"
         id="linearGradient3"
         y2="168"
         y1="126"
         x2="82"
         gradientUnits="userSpaceOnUse"
         x1="21">
        <stop
           id="stop6173"
           offset="0%"
           stop-color="rgb(221,205,158)"
           stop-opacity="1" />
        <stop
           id="stop6175"
           offset="100%"
           stop-color="rgb(255,255,225)"
           stop-opacity="1" />
      </linearGradient>
      <linearGradient
         spreadMethod="pad"
         id="linearGradient4"
         y2="168"
         y1="126"
         x2="326"
         gradientUnits="userSpaceOnUse"
         x1="267">
        <stop
           id="stop6178"
           offset="0%"
           stop-color="rgb(221,205,158)"
           stop-opacity="1" />
        <stop
           id="stop6180"
           offset="100%"
           stop-color="rgb(255,255,225)"
           stop-opacity="1" />
      </linearGradient>
      <linearGradient
         spreadMethod="pad"
         id="linearGradient5"
         y2="231"
         y1="189"
         x2="145"
         gradientUnits="userSpaceOnUse"
         x1="87">
        <stop
           id="stop6183"
           offset="0%"
           stop-color="rgb(221,205,158)"
           stop-opacity="1" />
        <stop
           id="stop6185"
           offset="100%"
           stop-color="rgb(255,255,225)"
           stop-opacity="1" />
      </linearGradient>
      <linearGradient
         spreadMethod="pad"
         id="linearGradient6"
         y2="161"
         y1="119"
         x2="427"
         gradientUnits="userSpaceOnUse"
         x1="380">
        <stop
           id="stop6188"
           offset="0%"
           stop-color="rgb(221,205,158)"
           stop-opacity="1" />
        <stop
           id="stop6190"
           offset="100%"
           stop-color="rgb(255,255,225)"
           stop-opacity="1" />
      </linearGradient>
      <linearGradient
         spreadMethod="pad"
         id="linearGradient7"
         y2="231"
         y1="189"
         x2="476"
         gradientUnits="userSpaceOnUse"
         x1="432">
        <stop
           id="stop6193"
           offset="0%"
           stop-color="rgb(221,205,158)"
           stop-opacity="1" />
        <stop
           id="stop6195"
           offset="100%"
           stop-color="rgb(255,255,225)"
           stop-opacity="1" />
      </linearGradient>
      <linearGradient
         spreadMethod="pad"
         id="linearGradient8"
         y2="231"
         y1="189"
         x2="262"
         gradientUnits="userSpaceOnUse"
         x1="218">
        <stop
           id="stop6198"
           offset="0%"
           stop-color="rgb(221,205,158)"
           stop-opacity="1" />
        <stop
           id="stop6200"
           offset="100%"
           stop-color="rgb(255,255,225)"
           stop-opacity="1" />
      </linearGradient>
      <linearGradient
         spreadMethod="pad"
         id="linearGradient9"
         y2="231"
         y1="189"
         x2="375"
         gradientUnits="userSpaceOnUse"
         x1="331">
        <stop
           id="stop6203"
           offset="0%"
           stop-color="rgb(221,205,158)"
           stop-opacity="1" />
        <stop
           id="stop6205"
           offset="100%"
           stop-color="rgb(255,255,225)"
           stop-opacity="1" />
      </linearGradient>
      <clipPath
         id="clipPath1"
         clipPathUnits="userSpaceOnUse">
        <path
           id="path6208"
           d="m 0,-5 533,0 0,271 L 0,266 0,-5 Z"
           inkscape:connector-curvature="0" />
      </clipPath>
      <clipPath
         id="clipPath2"
         clipPathUnits="userSpaceOnUse">
        <path
           id="path6211"
           d="M 180.4191,-87.4252 362.4458,392.1947 132.4526,479.4824 -49.5741,-0.1376 180.4191,-87.4252 Z"
           inkscape:connector-curvature="0" />
      </clipPath>
    </defs>
  </defs>
</svg>
