<?xml version="1.0" encoding="UTF-8" standalone="no"?>
<!-- Created with Inkscape (http://www.inkscape.org/) -->

<svg
   xmlns:dc="http://purl.org/dc/elements/1.1/"
   xmlns:cc="http://creativecommons.org/ns#"
   xmlns:rdf="http://www.w3.org/1999/02/22-rdf-syntax-ns#"
   xmlns:svg="http://www.w3.org/2000/svg"
   xmlns="http://www.w3.org/2000/svg"
   xmlns:sodipodi="http://sodipodi.sourceforge.net/DTD/sodipodi-0.dtd"
   xmlns:inkscape="http://www.inkscape.org/namespaces/inkscape"
   id="svg3336"
   version="1.1"
   inkscape:version="0.91 r13725"
   xml:space="preserve"
   width="634.83923"
   height="48.9482"
   viewBox="0 0 634.83923 48.9482"
   sodipodi:docname="DR2.svg"><metadata
     id="metadata3342"><rdf:RDF><cc:Work
         rdf:about=""><dc:format>image/svg+xml</dc:format><dc:type
           rdf:resource="http://purl.org/dc/dcmitype/StillImage" /><dc:title></dc:title></cc:Work></rdf:RDF></metadata><defs
     id="defs3340" /><sodipodi:namedview
     pagecolor="#ffffff"
     bordercolor="#666666"
     borderopacity="1"
     objecttolerance="10"
     gridtolerance="10"
     guidetolerance="10"
     inkscape:pageopacity="0"
     inkscape:pageshadow="2"
     inkscape:window-width="1366"
     inkscape:window-height="705"
     id="namedview3338"
     showgrid="false"
     inkscape:zoom="0.52541568"
     inkscape:cx="229.30224"
     inkscape:cy="330.62448"
     inkscape:window-x="-8"
     inkscape:window-y="-8"
     inkscape:window-maximized="1"
     inkscape:current-layer="g3344"
     fit-margin-top="0"
     fit-margin-left="0"
     fit-margin-right="0"
     fit-margin-bottom="0" /><g
     id="g3344"
     inkscape:groupmode="layer"
     inkscape:label="Mines AADN PCSI 2007 (r-07)"
     transform="matrix(1.25,0,0,-1.25,-42.597759,239.51946)"><path
       d="m 357.98958,152.83201 43.08,0 0,32.16 -43.08,0 0,-32.16 z"
       style="fill:#ffffff;fill-opacity:1;fill-rule:nonzero;stroke:none"
       id="path3468"
       inkscape:connector-curvature="0" /><path
       d="m 401.06958,184.99201 -43.08,0 0,-32.16 43.08,0 0,32.16 z m -43.08,0 z"
       style="fill:none;stroke:#000000;stroke-width:0.75;stroke-linecap:round;stroke-linejoin:miter;stroke-miterlimit:8;stroke-dasharray:none;stroke-opacity:1"
       id="path3470"
       inkscape:connector-curvature="0" /><text
       transform="scale(1,-1)"
       style="font-variant:normal;font-weight:normal;font-stretch:normal;font-size:16.02000046px;font-family:'Times New Roman';-inkscape-font-specification:TimesNewRomanPSMT;writing-mode:lr-tb;fill:#000000;fill-opacity:1;fill-rule:nonzero;stroke:none"
       id="text3472"
       x="371.4296"
       y="-166.0923"><tspan
         x="371.4296"
         y="-166.0923"
         id="tspan3474">K</tspan></text>
<text
       transform="scale(1,-1)"
       style="font-variant:normal;font-weight:normal;font-stretch:normal;font-size:10.5px;font-family:'Times New Roman';-inkscape-font-specification:TimesNewRomanPSMT;writing-mode:lr-tb;fill:#000000;fill-opacity:1;fill-rule:nonzero;stroke:none"
       id="text3476"
       x="383.00958"
       y="-163.57231"><tspan
         x="383.00958"
         y="-163.57231"
         id="tspan3478">e</tspan></text>
<path
       d="m 459.26958,152.83201 43.02,0 0,32.16 -43.02,0 0,-32.16 z"
       style="fill:#ffffff;fill-opacity:1;fill-rule:nonzero;stroke:none"
       id="path3480"
       inkscape:connector-curvature="0" /><path
       d="m 502.28958,184.99201 -43.02,0 0,-32.16 43.02,0 0,32.16 z m -43.02,0 z"
       style="fill:none;stroke:#000000;stroke-width:0.75;stroke-linecap:round;stroke-linejoin:miter;stroke-miterlimit:8;stroke-dasharray:none;stroke-opacity:1"
       id="path3482"
       inkscape:connector-curvature="0" /><text
       transform="scale(1,-1)"
       style="font-variant:normal;font-weight:normal;font-stretch:normal;font-size:16.02000046px;font-family:'Times New Roman';-inkscape-font-specification:TimesNewRomanPSMT;writing-mode:lr-tb;fill:#000000;fill-opacity:1;fill-rule:nonzero;stroke:none"
       id="text3484"
       x="465.68958"
       y="-166.0923"><tspan
         x="465.68958 477.24481 482.56827 490.56705"
         y="-166.0923"
         sodipodi:role="line"
         id="tspan3486">G(p)</tspan></text>
<path
       d="m 400.34958,169.09201 54.12,0 0.24,-0.12 0.12,-0.24 -0.12,-0.24 -0.24,-0.12 -54.12,0 -0.24,0.12 -0.12,0.24 0.12,0.24 0.24,0.12 z m 53.1,2.64 6,-3 -6,-3"
       style="fill:#000000;fill-opacity:1;fill-rule:nonzero;stroke:none"
       id="path3488"
       inkscape:connector-curvature="0" /><path
       d="m 502.10958,169.09201 34.86,0 0.24,-0.12 0.12,-0.24 -0.12,-0.24 -0.24,-0.12 -34.86,0 -0.24,0.12 -0.12,0.24 0.12,0.24 0.24,0.12 z m 33.84,2.64 6,-3 -6,-3"
       style="fill:#000000;fill-opacity:1;fill-rule:nonzero;stroke:none"
       id="path3490"
       inkscape:connector-curvature="0" /><text
       transform="scale(1,-1)"
       style="font-variant:normal;font-weight:normal;font-stretch:normal;font-size:16.02000046px;font-family:'Times New Roman';-inkscape-font-specification:TimesNewRomanPSMT;writing-mode:lr-tb;fill:#000000;fill-opacity:1;fill-rule:nonzero;stroke:none"
       id="text3492"
       x="505.58957"
       y="-175.87231"><tspan
         x="505.58957 517.15283 522.48425 530.49109 535.82251"
         y="-175.87231"
         sodipodi:role="line"
         id="tspan3494">Y(p) </tspan><tspan
         x="409.22928"
         y="-175.51186"
         id="tspan3496">Q</tspan></text>
<text
       transform="scale(1,-1)"
       style="font-variant:normal;font-weight:normal;font-stretch:normal;font-size:10.5px;font-family:'Times New Roman';-inkscape-font-specification:TimesNewRomanPSMT;writing-mode:lr-tb;fill:#000000;fill-opacity:1;fill-rule:nonzero;stroke:none"
       id="text3498"
       x="420.80957"
       y="-172.99231"><tspan
         x="420.80957"
         y="-172.99231"
         id="tspan3500">1</tspan></text>
<text
       transform="scale(1,-1)"
       style="font-variant:normal;font-weight:normal;font-stretch:normal;font-size:16.02000046px;font-family:'Times New Roman';-inkscape-font-specification:TimesNewRomanPSMT;writing-mode:lr-tb;fill:#000000;fill-opacity:1;fill-rule:nonzero;stroke:none"
       id="text3502"
       x="426.08957"
       y="-175.51231"><tspan
         x="426.08957 431.39862 439.43906 444.74808"
         y="-175.51231"
         sodipodi:role="line"
         id="tspan3504">(p) </tspan></text>
<path
       d="m 39.989584,169.09201 23.94,0 0.3,-0.12 0.12,-0.24 -0.12,-0.24 -0.3,-0.12 -23.94,0 -0.24,0.12 -0.12,0.24 0.12,0.24 0.24,0.12 z m 22.98,2.64 6,-3 -6,-3"
       style="fill:#000000;fill-opacity:1;fill-rule:nonzero;stroke:none"
       id="path3508"
       inkscape:connector-curvature="0" /><text
       transform="scale(1,-1)"
       style="font-variant:normal;font-weight:normal;font-stretch:normal;font-size:16.02000046px;font-family:'Times New Roman';-inkscape-font-specification:TimesNewRomanPSMT;writing-mode:lr-tb;fill:#000000;fill-opacity:1;fill-rule:nonzero;stroke:none"
       id="text3510"
       x="33.929585"
       y="-180.49231"><tspan
         x="33.929585"
         y="-180.49231"
         id="tspan3512">Y</tspan></text>
<text
       transform="scale(1,-1)"
       style="font-variant:normal;font-weight:normal;font-stretch:normal;font-size:10.5px;font-family:'Times New Roman';-inkscape-font-specification:TimesNewRomanPSMT;writing-mode:lr-tb;fill:#000000;fill-opacity:1;fill-rule:nonzero;stroke:none"
       id="text3514"
       x="45.509583"
       y="-177.97231"><tspan
         x="45.509583"
         y="-177.97231"
         id="tspan3516">c</tspan></text>
<text
       transform="scale(1,-1)"
       style="font-variant:normal;font-weight:normal;font-stretch:normal;font-size:16.02000046px;font-family:'Times New Roman';-inkscape-font-specification:TimesNewRomanPSMT;writing-mode:lr-tb;fill:#000000;fill-opacity:1;fill-rule:nonzero;stroke:none"
       id="text3518"
       x="50.189583"
       y="-180.49231"><tspan
         x="50.189583 55.498611 63.539051 68.848076"
         y="-180.49231"
         sodipodi:role="line"
         id="tspan3520">(p) </tspan></text>
</g></svg>