<?xml version="1.0" encoding="UTF-8" standalone="no"?>
<!-- Created with Inkscape (http://www.inkscape.org/) -->

<svg
   version="1.1"
   id="svg2019"
   width="539.60132"
   height="29.921333"
   viewBox="0 0 539.60131 29.921333"
   sodipodi:docname="question.svg"
   inkscape:version="1.2.2 (b0a8486541, 2022-12-01)"
   xmlns:inkscape="http://www.inkscape.org/namespaces/inkscape"
   xmlns:sodipodi="http://sodipodi.sourceforge.net/DTD/sodipodi-0.dtd"
   xmlns="http://www.w3.org/2000/svg"
   xmlns:svg="http://www.w3.org/2000/svg">
  <defs
     id="defs2023">
    <clipPath
       clipPathUnits="userSpaceOnUse"
       id="clipPath2265">
      <path
         d="M 0,0 H 595.22 V 841.89 H 0 Z"
         id="path2263" />
    </clipPath>
    <clipPath
       clipPathUnits="userSpaceOnUse"
       id="clipPath2285">
      <path
         d="M 0,0 H 595.22 V 841.89 H 0 Z"
         id="path2283" />
    </clipPath>
    <clipPath
       clipPathUnits="userSpaceOnUse"
       id="clipPath2305">
      <path
         d="M 0,0 H 595.22 V 841.89 H 0 Z"
         id="path2303" />
    </clipPath>
    <clipPath
       clipPathUnits="userSpaceOnUse"
       id="clipPath2321">
      <path
         d="M 0,0 H 595.22 V 841.89 H 0 Z"
         id="path2319" />
    </clipPath>
    <clipPath
       clipPathUnits="userSpaceOnUse"
       id="clipPath2437">
      <path
         d="M 0,0 H 595.22 V 841.89 H 0 Z"
         id="path2435" />
    </clipPath>
  </defs>
  <sodipodi:namedview
     id="namedview2021"
     pagecolor="#ffffff"
     bordercolor="#000000"
     borderopacity="0.25"
     inkscape:showpageshadow="2"
     inkscape:pageopacity="0.0"
     inkscape:pagecheckerboard="0"
     inkscape:deskcolor="#d1d1d1"
     showgrid="false"
     inkscape:zoom="1.2027216"
     inkscape:cx="236.13111"
     inkscape:cy="102.68378"
     inkscape:window-width="1600"
     inkscape:window-height="831"
     inkscape:window-x="0"
     inkscape:window-y="32"
     inkscape:window-maximized="1"
     inkscape:current-layer="g2025" />
  <g
     id="g2025"
     inkscape:groupmode="layer"
     inkscape:label="si_c_2019_pt3"
     transform="matrix(1.3333333,0,0,-1.3333333,-170.16,265.07999)">
    <g
       id="g2239"
       transform="translate(148.7624,190.7306)"
       style="fill:#231f20;fill-opacity:1">
      <path
         d="m 0,0 -4.27,-7.47 h -11.177 l 4.27,7.47 z m 0.748,0.433 h -12.164 l -4.767,-8.315 h 12.164 z"
         style="fill:#231f20;fill-opacity:1;stroke:#231f20;stroke-width:0.28;stroke-linecap:butt;stroke-linejoin:miter;stroke-miterlimit:1;stroke-dasharray:none;stroke-opacity:1"
         id="path2241" />
    </g>
    <text
       xml:space="preserve"
       transform="matrix(1,0,0,-1,163.68,183.6301)"
       style="font-variant:normal;font-weight:normal;font-stretch:normal;font-size:10.98px;font-family:'JNKFPL +ArialMT';-inkscape-font-specification:ArialMT;writing-mode:lr-tb;fill:#231f20;fill-opacity:1;fill-rule:nonzero;stroke:none"
       id="text2245"><tspan
         x="0 6.11586 9.1792803 15.29514 21.410999"
         y="0"
         sodipodi:role="line"
         id="tspan2243">0,05 </tspan></text>
    <g
       id="g2251"
       transform="translate(261.4738,182.4064)"
       style="fill:#231f20;fill-opacity:1">
      <path
         d="M 0,0 V 0.34 H -6.134 V 9.716 H -6.483 V 0.34 h -6.134 V 0 Z"
         style="fill:#231f20;fill-opacity:1;stroke:#231f20;stroke-width:0.22;stroke-linecap:butt;stroke-linejoin:miter;stroke-miterlimit:1;stroke-dasharray:none;stroke-opacity:1"
         id="path2253" />
    </g>
    <g
       id="g2259"
       transform="translate(-0.37545986,-0.73362708)"
       style="fill:#231f20;fill-opacity:1">
      <g
         id="g2261"
         clip-path="url(#clipPath2265)"
         style="fill:#231f20;fill-opacity:1">
        <g
           id="g2267"
           transform="translate(281.5812,184.6052)"
           style="fill:#231f20;fill-opacity:1">
          <path
             d="m 0,0 c -0.666,-0.672 -1.49,-1.008 -2.47,-1.008 -0.558,0 -1.086,0.125 -1.586,0.375 L -0.553,5.37 C -0.074,5.043 0.305,4.624 0.583,4.111 0.861,3.599 1,3.055 1,2.478 1,1.499 0.666,0.672 0,0 Z m -4.375,-0.436 c -0.499,0.327 -0.885,0.745 -1.16,1.255 -0.275,0.51 -0.413,1.062 -0.413,1.658 0,0.981 0.336,1.805 1.008,2.471 0.672,0.667 1.498,1 2.478,1 0.55,0 1.072,-0.129 1.565,-0.387 z M 0.933,4.318 C 0.613,4.898 0.181,5.364 -0.362,5.716 L 0.913,7.909 0.558,8.101 -0.711,5.92 c -0.551,0.288 -1.137,0.432 -1.758,0.432 -1.096,0 -2.018,-0.372 -2.768,-1.115 -0.749,-0.743 -1.124,-1.663 -1.124,-2.758 0,-0.654 0.157,-1.272 0.472,-1.855 0.314,-0.583 0.746,-1.054 1.298,-1.413 l -1.28,-2.16 0.355,-0.192 1.269,2.161 c 0.551,-0.275 1.144,-0.413 1.778,-0.413 1.095,0 2.016,0.372 2.762,1.114 0.747,0.743 1.12,1.663 1.12,2.758 0,0.647 -0.16,1.26 -0.48,1.839 z"
             style="fill:#231f20;fill-opacity:1;stroke:#231f20;stroke-width:0.26;stroke-linecap:butt;stroke-linejoin:miter;stroke-miterlimit:1;stroke-dasharray:none;stroke-opacity:1"
             id="path2269" />
        </g>
      </g>
    </g>
    <text
       xml:space="preserve"
       transform="matrix(1,0,0,-1,285.60228,183.2701)"
       style="font-variant:normal;font-weight:normal;font-stretch:normal;font-size:10.98px;font-family:'JNKFPL +ArialMT';-inkscape-font-specification:ArialMT;writing-mode:lr-tb;fill:#231f20;fill-opacity:1;fill-rule:nonzero;stroke:none"
       id="text2273"><tspan
         x="0 6.11586 9.1792803"
         y="0"
         sodipodi:role="line"
         id="tspan2271">0,2</tspan></text>
    <g
       id="g2279"
       style="fill:#231f20;fill-opacity:1">
      <g
         id="g2281"
         clip-path="url(#clipPath2285)"
         style="fill:#231f20;fill-opacity:1">
        <g
           id="g2287"
           transform="translate(311.649,183.89)"
           style="fill:#231f20;fill-opacity:1">
          <path
             d="M 0,0 H 0.381 V 5.721 L 0.028,5.724 -1.926,0.653 -3.882,5.727 -4.233,5.721 V 0 h 0.381 V 4.596 L -2.072,0 H -1.78 L 0,4.596 Z m 1.524,-0.533 c -0.92,-0.92 -2.061,-1.38 -3.424,-1.38 -1.362,0 -2.507,0.46 -3.433,1.38 -0.926,0.921 -1.389,2.062 -1.389,3.424 0,1.351 0.465,2.49 1.394,3.416 0.929,0.926 2.072,1.389 3.428,1.389 1.345,0 2.482,-0.465 3.411,-1.394 C 2.44,5.373 2.905,4.236 2.905,2.891 2.905,1.529 2.445,0.388 1.524,-0.533 Z M 1.789,6.576 C 0.791,7.57 -0.44,8.068 -1.904,8.068 -3.368,8.068 -4.601,7.572 -5.601,6.58 -6.602,5.588 -7.102,4.36 -7.102,2.896 c 0,-1.464 0.5,-2.694 1.501,-3.689 1,-0.994 2.233,-1.492 3.697,-1.492 1.464,0 2.695,0.498 3.693,1.492 0.998,0.995 1.497,2.225 1.497,3.689 0,1.458 -0.499,2.685 -1.497,3.68 z"
             style="fill:#231f20;fill-opacity:1;stroke:#231f20;stroke-width:0.24;stroke-linecap:butt;stroke-linejoin:miter;stroke-miterlimit:1;stroke-dasharray:none;stroke-opacity:1"
             id="path2289" />
        </g>
      </g>
    </g>
    <text
       xml:space="preserve"
       transform="matrix(1,0,0,-1,331.44414,183.63244)"
       style="font-variant:normal;font-weight:normal;font-stretch:normal;font-size:10.98px;font-family:'JNKFPL +ArialMT';-inkscape-font-specification:ArialMT;writing-mode:lr-tb;fill:#231f20;fill-opacity:1;fill-rule:nonzero;stroke:none"
       id="text2293"><tspan
         x="0 7.9165802"
         y="0"
         sodipodi:role="line"
         id="tspan2291">C </tspan></text>
    <g
       id="g2299"
       style="fill:#231f20;fill-opacity:1">
      <g
         id="g2301"
         clip-path="url(#clipPath2305)"
         style="fill:#231f20;fill-opacity:1">
        <g
           id="g2307"
           transform="translate(406.5609,183.5968)"
           style="fill:#231f20;fill-opacity:1">
          <path
             d="M 0,0 C -0.878,0.045 -1.63,0.383 -2.258,1.014 -2.886,1.645 -3.219,2.399 -3.257,3.277 H 0 Z m 0,3.68 h -3.257 c 0.038,0.891 0.368,1.645 0.989,2.263 C -1.646,6.561 -0.89,6.896 0,6.947 Z M 3.68,3.277 C 3.635,2.393 3.3,1.637 2.674,1.009 2.048,0.381 1.294,0.045 0.413,0 V 3.277 Z M 0.413,3.68 V 6.947 C 1.307,6.896 2.064,6.563 2.684,5.948 3.303,5.333 3.635,4.577 3.68,3.68 Z M 5.765,3.277 V 3.68 H 4.087 C 4.042,4.692 3.671,5.544 2.974,6.236 2.277,6.928 1.423,7.299 0.413,7.351 V 9.032 H 0 V 7.351 C -1.006,7.299 -1.859,6.926 -2.561,6.231 -3.262,5.536 -3.635,4.686 -3.68,3.68 H -5.343 V 3.277 h 1.663 c 0.045,-1 0.419,-1.849 1.124,-2.547 C -1.851,0.032 -0.999,-0.339 0,-0.384 v -1.672 h 0.413 v 1.672 C 1.417,-0.339 2.269,0.03 2.969,0.725 3.67,1.42 4.042,2.271 4.087,3.277 Z"
             style="fill:#231f20;fill-opacity:1;stroke:#231f20;stroke-width:0.26;stroke-linecap:butt;stroke-linejoin:miter;stroke-miterlimit:1;stroke-dasharray:none;stroke-opacity:1"
             id="path2309" />
        </g>
      </g>
    </g>
    <g
       id="g2315"
       style="fill:#231f20;fill-opacity:1">
      <g
         id="g2317"
         clip-path="url(#clipPath2321)"
         style="fill:#231f20;fill-opacity:1">
        <g
           id="g2323"
           transform="translate(432.9605,184.6052)"
           style="fill:#231f20;fill-opacity:1">
          <path
             d="m 0,0 c -0.666,-0.672 -1.49,-1.008 -2.47,-1.008 -0.558,0 -1.086,0.125 -1.586,0.375 L -0.553,5.37 C -0.074,5.043 0.305,4.624 0.583,4.111 0.861,3.599 1,3.055 1,2.478 1,1.499 0.666,0.672 0,0 Z m -4.375,-0.436 c -0.499,0.327 -0.885,0.745 -1.16,1.255 -0.275,0.51 -0.413,1.062 -0.413,1.658 0,0.981 0.336,1.805 1.008,2.471 0.672,0.667 1.498,1 2.478,1 0.55,0 1.072,-0.129 1.565,-0.387 z M 0.933,4.318 C 0.613,4.898 0.181,5.364 -0.362,5.716 L 0.913,7.909 0.558,8.101 -0.711,5.92 c -0.551,0.288 -1.137,0.432 -1.758,0.432 -1.096,0 -2.018,-0.372 -2.768,-1.115 -0.749,-0.743 -1.124,-1.663 -1.124,-2.758 0,-0.654 0.157,-1.272 0.472,-1.855 0.314,-0.583 0.746,-1.054 1.298,-1.413 l -1.28,-2.16 0.355,-0.192 1.269,2.161 c 0.551,-0.275 1.144,-0.413 1.778,-0.413 1.095,0 2.016,0.372 2.762,1.114 0.747,0.743 1.12,1.663 1.12,2.758 0,0.647 -0.16,1.26 -0.48,1.839 z"
             style="fill:#231f20;fill-opacity:1;stroke:#231f20;stroke-width:0.26;stroke-linecap:butt;stroke-linejoin:miter;stroke-miterlimit:1;stroke-dasharray:none;stroke-opacity:1"
             id="path2325" />
        </g>
      </g>
    </g>
    <text
       xml:space="preserve"
       transform="matrix(1,0,0,-1,436.98228,183.2701)"
       style="font-variant:normal;font-weight:normal;font-stretch:normal;font-size:10.98px;font-family:'JNKFPL +ArialMT';-inkscape-font-specification:ArialMT;writing-mode:lr-tb;fill:#231f20;fill-opacity:1;fill-rule:nonzero;stroke:none"
       id="text2331"><tspan
         x="0 6.11586 9.1792803 15.24024"
         y="0"
         sodipodi:role="line"
         id="tspan2327">0,1 </tspan><tspan
         x="30.535379 38.451962 55.07568 62.388359 79.30854 86.621223"
         y="-0.36234"
         sodipodi:role="line"
         id="tspan2329">C B A </tspan></text>
    <path
       d="m 127.62,198.329 h 0.48 v 0.481 h -0.48 z"
       style="fill:#231f20;fill-opacity:1;fill-rule:nonzero;stroke:none"
       id="path2333" />
    <path
       d="m 127.62,198.329 h 67.14 v 0.481 h -67.14 z"
       style="fill:#231f20;fill-opacity:1;fill-rule:nonzero;stroke:none"
       id="path2335" />
    <path
       d="m 194.28,198.329 h 0.48 v 0.481 h -0.48 z"
       style="fill:#231f20;fill-opacity:1;fill-rule:nonzero;stroke:none"
       id="path2337" />
    <path
       d="m 242.82,198.329 h 0.48 v 0.481 h -0.48 z"
       style="fill:#231f20;fill-opacity:1;fill-rule:nonzero;stroke:none"
       id="path2339" />
    <path
       d="m 242.82,198.329 h 105.24 v 0.481 H 242.82 Z"
       style="fill:#231f20;fill-opacity:1;fill-rule:nonzero;stroke:none"
       id="path2341" />
    <path
       d="m 347.58,198.329 h 0.48 v 0.481 h -0.48 z"
       style="fill:#231f20;fill-opacity:1;fill-rule:nonzero;stroke:none"
       id="path2343" />
    <path
       d="m 394.44,198.329 h 0.48 v 0.481 h -0.48 z"
       style="fill:#231f20;fill-opacity:1;fill-rule:nonzero;stroke:none"
       id="path2345" />
    <path
       d="m 394.44,198.329 h 137.88 v 0.481 H 394.44 Z"
       style="fill:#231f20;fill-opacity:1;fill-rule:nonzero;stroke:none"
       id="path2347" />
    <path
       d="m 531.84,198.329 h 0.481 v 0.481 h -0.481 z"
       style="fill:#231f20;fill-opacity:1;fill-rule:nonzero;stroke:none"
       id="path2349" />
    <path
       d="m 127.62,176.369 h 0.48 v 21.96 h -0.48 z"
       style="fill:#231f20;fill-opacity:1;fill-rule:nonzero;stroke:none"
       id="path2351" />
    <path
       d="m 127.62,176.369 h 26.4 v 0.481 h -26.4 z"
       style="fill:#231f20;fill-opacity:1;fill-rule:nonzero;stroke:none"
       id="path2353" />
    <path
       d="m 154.02,176.369 h 0.481 v 21.96 h -0.481 z"
       style="fill:#231f20;fill-opacity:1;fill-rule:nonzero;stroke:none"
       id="path2355" />
    <path
       d="m 154.5,176.369 h 39.78 v 0.481 H 154.5 Z"
       style="fill:#231f20;fill-opacity:1;fill-rule:nonzero;stroke:none"
       id="path2357" />
    <path
       d="m 194.28,176.369 h 0.48 v 21.96 h -0.48 z"
       style="fill:#231f20;fill-opacity:1;fill-rule:nonzero;stroke:none"
       id="path2359" />
    <path
       d="m 194.28,176.369 h 0.48 v 0.481 h -0.48 z"
       style="fill:#231f20;fill-opacity:1;fill-rule:nonzero;stroke:none"
       id="path2361" />
    <path
       d="m 242.82,176.369 h 0.48 v 21.96 h -0.48 z"
       style="fill:#231f20;fill-opacity:1;fill-rule:nonzero;stroke:none"
       id="path2363" />
    <path
       d="m 242.82,176.369 h 24.24 v 0.481 h -24.24 z"
       style="fill:#231f20;fill-opacity:1;fill-rule:nonzero;stroke:none"
       id="path2365" />
    <path
       d="m 267.06,176.369 h 0.481 v 21.96 h -0.481 z"
       style="fill:#231f20;fill-opacity:1;fill-rule:nonzero;stroke:none"
       id="path2367" />
    <path
       d="m 267.54,176.369 h 55.26 v 0.481 h -55.26 z"
       style="fill:#231f20;fill-opacity:1;fill-rule:nonzero;stroke:none"
       id="path2369" />
    <path
       d="m 322.8,176.369 h 0.48 v 21.96 h -0.48 z"
       style="fill:#231f20;fill-opacity:1;fill-rule:nonzero;stroke:none"
       id="path2371" />
    <path
       d="m 323.28,176.369 h 24.3 v 0.481 h -24.3 z"
       style="fill:#231f20;fill-opacity:1;fill-rule:nonzero;stroke:none"
       id="path2373" />
    <path
       d="m 347.58,176.369 h 0.48 v 21.96 h -0.48 z"
       style="fill:#231f20;fill-opacity:1;fill-rule:nonzero;stroke:none"
       id="path2375" />
    <path
       d="m 347.58,176.369 h 0.48 v 0.481 h -0.48 z"
       style="fill:#231f20;fill-opacity:1;fill-rule:nonzero;stroke:none"
       id="path2377" />
    <path
       d="m 394.44,176.369 h 0.48 v 21.96 h -0.48 z"
       style="fill:#231f20;fill-opacity:1;fill-rule:nonzero;stroke:none"
       id="path2379" />
    <path
       d="m 394.44,176.369 h 24.24 v 0.481 h -24.24 z"
       style="fill:#231f20;fill-opacity:1;fill-rule:nonzero;stroke:none"
       id="path2381" />
    <path
       d="m 418.68,176.369 h 0.48 v 21.96 h -0.48 z"
       style="fill:#231f20;fill-opacity:1;fill-rule:nonzero;stroke:none"
       id="path2383" />
    <path
       d="m 419.16,176.369 h 39.96 v 0.481 h -39.96 z"
       style="fill:#231f20;fill-opacity:1;fill-rule:nonzero;stroke:none"
       id="path2385" />
    <path
       d="m 459.12,176.369 h 0.481 v 21.96 h -0.481 z"
       style="fill:#231f20;fill-opacity:1;fill-rule:nonzero;stroke:none"
       id="path2387" />
    <path
       d="m 459.6,176.369 h 23.76 v 0.481 H 459.6 Z"
       style="fill:#231f20;fill-opacity:1;fill-rule:nonzero;stroke:none"
       id="path2389" />
    <path
       d="m 483.36,176.369 h 0.48 v 21.96 h -0.48 z"
       style="fill:#231f20;fill-opacity:1;fill-rule:nonzero;stroke:none"
       id="path2391" />
    <path
       d="m 483.84,176.369 h 23.76 v 0.481 h -23.76 z"
       style="fill:#231f20;fill-opacity:1;fill-rule:nonzero;stroke:none"
       id="path2393" />
    <path
       d="m 507.6,176.369 h 0.48 v 21.96 h -0.48 z"
       style="fill:#231f20;fill-opacity:1;fill-rule:nonzero;stroke:none"
       id="path2395" />
    <path
       d="m 508.08,176.369 h 23.76 v 0.481 h -23.76 z"
       style="fill:#231f20;fill-opacity:1;fill-rule:nonzero;stroke:none"
       id="path2397" />
    <path
       d="m 531.84,176.369 h 0.481 v 21.96 h -0.481 z"
       style="fill:#231f20;fill-opacity:1;fill-rule:nonzero;stroke:none"
       id="path2399" />
    <path
       d="m 531.84,176.369 h 0.481 v 0.481 h -0.481 z"
       style="fill:#231f20;fill-opacity:1;fill-rule:nonzero;stroke:none"
       id="path2401" />
  </g>
</svg>
