<?xml version="1.0" encoding="UTF-8" standalone="no"?>
<svg
   xmlns:dc="http://purl.org/dc/elements/1.1/"
   xmlns:cc="http://creativecommons.org/ns#"
   xmlns:rdf="http://www.w3.org/1999/02/22-rdf-syntax-ns#"
   xmlns:svg="http://www.w3.org/2000/svg"
   xmlns="http://www.w3.org/2000/svg"
   xmlns:xlink="http://www.w3.org/1999/xlink"
   xmlns:sodipodi="http://sodipodi.sourceforge.net/DTD/sodipodi-0.dtd"
   xmlns:inkscape="http://www.inkscape.org/namespaces/inkscape"
   color-rendering="auto"
   color-interpolation="auto"
   text-rendering="auto"
   width="416.25"
   stroke-miterlimit="10"
   shape-rendering="auto"
   font-weight="normal"
   viewBox="0 0 444 262"
   height="245.625"
   font-style="normal"
   font-size="12"
   image-rendering="auto"
   id="svg4114"
   version="1.1"
   inkscape:version="0.48.4 r"
   sodipodi:docname="DiagContexte.svg"
   style="font-size:12px;font-style:normal;font-weight:normal;fill:#000000;fill-opacity:1;stroke:#000000;stroke-width:1;stroke-linecap:square;stroke-linejoin:miter;stroke-miterlimit:10;stroke-opacity:1;stroke-dasharray:none;stroke-dashoffset:0;font-family:Arial"
   inkscape:export-filename="D:\Documents\Corbu\Prepa\S01\TP01\Ilot_02_Cordeuse\Ressources\DiagContexte.png"
   inkscape:export-xdpi="136"
   inkscape:export-ydpi="136">
  <metadata
     id="metadata4236">
    <rdf:RDF>
      <cc:Work
         rdf:about="">
        <dc:format>image/svg+xml</dc:format>
        <dc:type
           rdf:resource="http://purl.org/dc/dcmitype/StillImage" />
        <dc:title></dc:title>
      </cc:Work>
    </rdf:RDF>
  </metadata>
  <sodipodi:namedview
     pagecolor="#ffffff"
     bordercolor="#666666"
     borderopacity="1"
     objecttolerance="10"
     gridtolerance="10"
     guidetolerance="10"
     inkscape:pageopacity="0"
     inkscape:pageshadow="2"
     inkscape:window-width="640"
     inkscape:window-height="480"
     id="namedview4234"
     showgrid="false"
     fit-margin-top="0"
     fit-margin-left="0"
     fit-margin-right="0"
     fit-margin-bottom="0"
     inkscape:zoom="0.89584816"
     inkscape:cx="212.8125"
     inkscape:cy="118.125"
     inkscape:window-x="0"
     inkscape:window-y="0"
     inkscape:window-maximized="0"
     inkscape:current-layer="svg4114" />
  <!--Generated by the Batik Graphics2D SVG Generator
 This is MagicDraw diagram.-->
  <defs
     id="genericDefs">
    <defs
       id="defs1">
      <linearGradient
         spreadMethod="pad"
         id="linearGradient1"
         y2="208"
         y1="63"
         x2="273"
         gradientUnits="userSpaceOnUse"
         x1="182">
        <stop
           id="stop4121"
           offset="0%"
           stop-color="rgb(221,205,158)"
           stop-opacity="1" />
        <stop
           id="stop4123"
           offset="100%"
           stop-color="rgb(255,255,225)"
           stop-opacity="1" />
      </linearGradient>
      <linearGradient
         spreadMethod="pad"
         id="linearGradient2"
         y2="160"
         y1="133"
         x2="101"
         gradientUnits="userSpaceOnUse"
         x1="74">
        <stop
           id="stop4126"
           offset="0%"
           stop-color="rgb(255,255,204)"
           stop-opacity="1" />
        <stop
           id="stop4128"
           offset="100%"
           stop-color="white"
           stop-opacity="1" />
      </linearGradient>
      <clipPath
         id="clipPath1"
         clipPathUnits="userSpaceOnUse">
        <path
           id="path4131"
           d="m 0,-5 463,0 0,286 L 0,281 0,-5 z"
           inkscape:connector-curvature="0" />
      </clipPath>
      <clipPath
         id="clipPath2"
         clipPathUnits="userSpaceOnUse">
        <path
           id="path4134"
           d="M 123.7445,-52.6646 529.0784,126.0907 423.762,364.8992 18.4282,186.1438 123.7445,-52.6646 z"
           inkscape:connector-curvature="0" />
      </clipPath>
    </defs>
    <linearGradient
       inkscape:collect="always"
       xlink:href="#linearGradient1"
       id="linearGradient4298"
       gradientUnits="userSpaceOnUse"
       spreadMethod="pad"
       x1="182"
       y1="63"
       x2="273"
       y2="208" />
    <linearGradient
       inkscape:collect="always"
       xlink:href="#linearGradient2"
       id="linearGradient4300"
       gradientUnits="userSpaceOnUse"
       spreadMethod="pad"
       x1="74"
       y1="133"
       x2="101"
       y2="160" />
    <linearGradient
       inkscape:collect="always"
       xlink:href="#linearGradient1"
       id="linearGradient4343"
       gradientUnits="userSpaceOnUse"
       spreadMethod="pad"
       x1="182"
       y1="63"
       x2="273"
       y2="208" />
    <linearGradient
       inkscape:collect="always"
       xlink:href="#linearGradient2"
       id="linearGradient4345"
       gradientUnits="userSpaceOnUse"
       spreadMethod="pad"
       x1="74"
       y1="133"
       x2="101"
       y2="160" />
  </defs>
  <g
     style="fill:#ffffff;stroke:#ffffff"
     id="g4136"
     transform="translate(-4.5,-4.5)">
    <rect
       style="stroke:none"
       id="rect4138"
       clip-path="url(#clipPath1)"
       y="5"
       height="261"
       width="443"
       x="5" />
  </g>
  <rect
     x="5"
     width="443"
     height="261"
     y="5"
     clip-path="url(#clipPath1)"
     id="rect4152"
     style="fill:none;stroke:#424242;stroke-linecap:butt;stroke-linejoin:round"
     transform="translate(-4.5,-4.5)" />
  <path
     d="m 112.8438,18.4978 0,-7.875 2.7187,0 q 0.9219,0 1.4063,0.1094 0.6718,0.1562 1.1562,0.5625 0.6094,0.5312 0.9219,1.3515 0.3125,0.8204 0.3125,1.8672 0,0.9063 -0.211,1.5938 -0.2109,0.6875 -0.539,1.1406 -0.3282,0.4531 -0.7188,0.7188 -0.3906,0.2656 -0.9375,0.3984 -0.5469,0.1328 -1.2656,0.1328 l -2.8437,0 z m 1.0468,-0.9219 1.6875,0 q 0.7657,0 1.211,-0.1484 0.4453,-0.1484 0.7109,-0.4141 0.375,-0.375 0.5781,-1 0.2031,-0.625 0.2031,-1.5156 0,-1.2344 -0.4062,-1.8984 -0.4062,-0.6641 -0.9844,-0.8828 -0.4218,-0.1563 -1.3437,-0.1563 l -1.6563,0 0,6.0156 z m 5.8438,-5.8437 0,-1.1094 0.9687,0 0,1.1094 -0.9687,0 z m 0,6.7656 0,-5.7031 0.9687,0 0,5.7031 -0.9687,0 z m 5.7187,-0.7031 q -0.5469,0.4531 -1.039,0.6406 -0.4922,0.1875 -1.0703,0.1875 -0.9376,0 -1.4454,-0.4609 -0.5078,-0.461 -0.5078,-1.1641 0,-0.4219 0.1953,-0.7656 0.1953,-0.3438 0.5,-0.5547 0.3047,-0.2109 0.6953,-0.3203 0.2813,-0.0781 0.8594,-0.1406 1.1719,-0.1407 1.7188,-0.3438 0.0156,-0.1875 0.0156,-0.25 0,-0.5937 -0.2812,-0.8281 -0.3594,-0.3281 -1.0938,-0.3281 -0.6875,0 -1.0078,0.2343 -0.3203,0.2344 -0.4766,0.8438 l -0.9531,-0.125 q 0.125,-0.6094 0.4219,-0.9844 0.2968,-0.375 0.8594,-0.5703 0.5624,-0.1953 1.2968,-0.1953 0.7344,0 1.1875,0.1719 0.4531,0.1718 0.6641,0.4296 0.2109,0.2579 0.3047,0.6485 0.0469,0.25 0.0469,0.9062 l 0,1.2813 q 0,1.3437 0.0624,1.7031 0.0626,0.3594 0.25,0.6875 l -1.0156,0 q -0.1562,-0.2969 -0.1875,-0.7031 z m -0.0937,-2.1563 q -0.5156,0.2188 -1.5782,0.3594 -0.5937,0.0938 -0.8359,0.1953 -0.2422,0.1016 -0.3828,0.3125 -0.1406,0.211 -0.1406,0.461 0,0.3906 0.2969,0.6484 0.2968,0.2578 0.8593,0.2578 0.5625,0 0.9922,-0.25 0.4297,-0.25 0.6485,-0.6719 0.1406,-0.3281 0.1406,-0.9687 l 0,-0.3438 z m 2.1875,3.3282 0.9375,0.1406 q 0.0625,0.4375 0.3281,0.6406 0.3594,0.2656 0.9844,0.2656 0.6719,0 1.039,-0.2656 0.3672,-0.2656 0.4922,-0.75 0.0781,-0.2969 0.0781,-1.25 -0.6406,0.75 -1.5937,0.75 -1.1719,0 -1.8125,-0.8516 -0.6406,-0.8515 -0.6406,-2.039 0,-0.8125 0.2968,-1.5 0.2969,-0.6875 0.8516,-1.0625 0.5547,-0.375 1.3203,-0.375 1,0 1.6563,0.8125 l 0,-0.6875 0.8906,0 0,4.9219 q 0,1.3437 -0.2656,1.8984 -0.2656,0.5547 -0.8594,0.875 -0.5938,0.3203 -1.4531,0.3203 -1.0157,0 -1.6407,-0.4609 -0.625,-0.461 -0.6093,-1.3828 z m 0.7969,-3.4219 q 0,1.125 0.4453,1.6406 0.4453,0.5156 1.1171,0.5156 0.6719,0 1.125,-0.5156 0.4532,-0.5156 0.4532,-1.6094 0,-1.0468 -0.4688,-1.5781 -0.4687,-0.5312 -1.125,-0.5312 -0.6406,0 -1.0937,0.5234 -0.4531,0.5234 -0.4531,1.5547 z m 11.125,0.1875 1.0468,0.2656 q -0.3281,1.2813 -1.1797,1.9609 -0.8515,0.6797 -2.0859,0.6797 -1.2812,0 -2.0781,-0.5234 -0.7969,-0.5234 -1.211,-1.5078 -0.414,-0.9844 -0.414,-2.1094 0,-1.2187 0.4687,-2.1406 0.4688,-0.9219 1.336,-1.3985 0.8672,-0.4765 1.914,-0.4765 1.1875,0 1.9922,0.6015 0.8047,0.6016 1.1172,1.6954 l -1.0312,0.25 q -0.2657,-0.8594 -0.7891,-1.25 -0.5235,-0.3907 -1.3047,-0.3907 -0.9219,0 -1.5312,0.4297 -0.6094,0.4297 -0.8516,1.1641 -0.2422,0.7344 -0.2422,1.5156 0,1 0.2891,1.75 0.289,0.75 0.9062,1.125 0.6172,0.375 1.3359,0.375 0.875,0 1.4844,-0.5078 0.6094,-0.5078 0.8282,-1.5078 z m 0.8906,-0.0938 q 0,-1.5781 0.8906,-2.3437 0.7344,-0.625 1.7969,-0.625 1.1719,0 1.914,0.7656 0.7422,0.7656 0.7422,2.125 0,1.1094 -0.3281,1.7422 -0.3281,0.6328 -0.9609,0.9766 -0.6329,0.3437 -1.3672,0.3437 -1.2031,0 -1.9453,-0.7656 -0.7422,-0.7656 -0.7422,-2.2188 z m 1,0 q 0,1.1094 0.4765,1.6485 0.4766,0.539 1.211,0.539 0.7187,0 1.1953,-0.5468 0.4766,-0.5469 0.4766,-1.6719 0,-1.0469 -0.4844,-1.5938 -0.4844,-0.5468 -1.1875,-0.5468 -0.7344,0 -1.211,0.539 -0.4765,0.5391 -0.4765,1.6328 z m 5.3594,2.8594 0,-5.7031 0.875,0 0,0.8125 q 0.625,-0.9375 1.8124,-0.9375 0.5157,0 0.9532,0.1797 0.4375,0.1797 0.6484,0.4843 0.211,0.3047 0.3047,0.711 0.0469,0.2812 0.0469,0.9531 l 0,3.5 -0.9688,0 0,-3.4687 q 0,-0.5938 -0.1094,-0.8829 -0.1093,-0.289 -0.3984,-0.4687 -0.289,-0.1797 -0.6797,-0.1797 -0.6093,0 -1.0625,0.3906 -0.4531,0.3907 -0.4531,1.5 l 0,3.1094 -0.9687,0 z m 8.125,-0.8594 0.125,0.8438 q -0.4063,0.0937 -0.7188,0.0937 -0.5312,0 -0.8203,-0.1718 -0.2891,-0.1719 -0.4063,-0.4375 -0.1172,-0.2657 -0.1172,-1.1407 l 0,-3.2812 -0.7187,0 0,-0.75 0.7187,0 0,-1.4063 0.9532,-0.5937 0,2 0.9844,0 0,0.75 -0.9844,0 0,3.3437 q 0,0.4063 0.0547,0.5235 0.0547,0.1172 0.1718,0.1875 0.1172,0.0703 0.3203,0.0703 0.1719,0 0.4376,-0.0313 z m 4.7812,-0.9843 1,0.125 q -0.2344,0.875 -0.875,1.3593 -0.6406,0.4844 -1.625,0.4844 -1.25,0 -1.9844,-0.7656 -0.7344,-0.7656 -0.7344,-2.1563 0,-1.4531 0.7422,-2.2422 0.7422,-0.789 1.9141,-0.789 1.1563,0 1.875,0.7734 0.7187,0.7735 0.7187,2.1953 0,0.0782 0,0.25 l -4.25,0 q 0.0469,0.9375 0.5235,1.4375 0.4765,0.5 1.1953,0.5 0.5312,0 0.9062,-0.2734 0.375,-0.2734 0.5938,-0.8984 z m -3.1719,-1.5625 3.1875,0 q -0.0625,-0.7188 -0.3594,-1.0782 -0.4687,-0.5468 -1.2031,-0.5468 -0.6719,0 -1.125,0.4453 -0.4531,0.4453 -0.5,1.1797 z m 4.625,3.4062 2.0938,-2.9687 -1.9375,-2.7344 1.2031,0 0.8906,1.3437 q 0.2344,0.375 0.3907,0.625 0.2343,-0.3437 0.4374,-0.625 l 0.9532,-1.3437 1.1562,0 -1.9687,2.6875 2.125,3.0156 -1.1875,0 -1.1719,-1.7656 -0.3125,-0.4844 -1.5,2.25 -1.1719,0 z m 8.7657,-0.8594 0.125,0.8438 q -0.4063,0.0937 -0.7188,0.0937 -0.5312,0 -0.8203,-0.1718 -0.2891,-0.1719 -0.4063,-0.4375 -0.1172,-0.2657 -0.1172,-1.1407 l 0,-3.2812 -0.7187,0 0,-0.75 0.7187,0 0,-1.4063 0.9532,-0.5937 0,2 0.9844,0 0,0.75 -0.9844,0 0,3.3437 q 0,0.4063 0.0547,0.5235 0.0547,0.1172 0.1718,0.1875 0.1172,0.0703 0.3203,0.0703 0.1719,0 0.4376,-0.0313 z m 4.7812,-0.9843 1,0.125 q -0.2344,0.875 -0.875,1.3593 -0.6406,0.4844 -1.625,0.4844 -1.25,0 -1.9844,-0.7656 -0.7344,-0.7656 -0.7344,-2.1563 0,-1.4531 0.7422,-2.2422 0.7422,-0.789 1.9141,-0.789 1.1563,0 1.875,0.7734 0.7187,0.7735 0.7187,2.1953 0,0.0782 0,0.25 l -4.25,0 q 0.0469,0.9375 0.5235,1.4375 0.4765,0.5 1.1953,0.5 0.5312,0 0.9062,-0.2734 0.375,-0.2734 0.5938,-0.8984 z m -3.1719,-1.5625 3.1875,0 q -0.0625,-0.7188 -0.3594,-1.0782 -0.4687,-0.5468 -1.2031,-0.5468 -0.6719,0 -1.125,0.4453 -0.4531,0.4453 -0.5,1.1797 z"
     clip-path="url(#clipPath1)"
     id="path4154"
     inkscape:connector-curvature="0"
     style="fill:#000000;stroke:none"
     transform="translate(-4.5,-4.5)" />
  <path
     d="m 37.75,20.6853 0,-10.0625 2.125,0 0,0.7969 -1.1562,0 0,8.4687 1.1562,0 0,0.7969 -2.125,0 z m 3.0625,-2.1875 0,-7.875 1.5781,0 1.8594,5.5781 q 0.25,0.7813 0.375,1.1563 0.1406,-0.4219 0.4219,-1.25 l 1.875,-5.4844 1.4062,0 0,7.875 -1,0 0,-6.5937 -2.2969,6.5937 -0.9374,0 -2.2657,-6.7031 0,6.7031 -1.0156,0 z m 7.5469,-2.8594 q 0,-1.5781 0.8906,-2.3437 0.7344,-0.625 1.7969,-0.625 1.1719,0 1.914,0.7656 0.7422,0.7656 0.7422,2.125 0,1.1094 -0.3281,1.7422 -0.3281,0.6328 -0.9609,0.9766 -0.6329,0.3437 -1.3672,0.3437 -1.2031,0 -1.9453,-0.7656 -0.7422,-0.7656 -0.7422,-2.2188 z m 1,0 q 0,1.1094 0.4765,1.6485 0.4766,0.539 1.211,0.539 0.7187,0 1.1953,-0.5468 0.4766,-0.5469 0.4766,-1.6719 0,-1.0469 -0.4844,-1.5938 -0.4844,-0.5468 -1.1875,-0.5468 -0.7344,0 -1.211,0.539 -0.4765,0.5391 -0.4765,1.6328 z m 9.0625,2.8594 0,-0.7187 q -0.5313,0.8437 -1.5938,0.8437 -0.6719,0 -1.25,-0.375 Q 55,17.8728 54.6875,17.2009 54.375,16.5291 54.375,15.6541 q 0,-0.8594 0.2891,-1.5547 0.289,-0.6953 0.8515,-1.0625 0.5625,-0.3672 1.2656,-0.3672 0.5157,0 0.9219,0.2187 0.4063,0.2188 0.6563,0.5625 l 0,-2.8281 0.9687,0 0,7.875 -0.9062,0 z M 55.375,15.6541 q 0,1.0937 0.4609,1.6328 0.461,0.539 1.086,0.539 0.6406,0 1.0781,-0.5156 0.4375,-0.5156 0.4375,-1.5781 0,-1.1719 -0.4453,-1.7188 -0.4453,-0.5468 -1.1172,-0.5468 -0.6406,0 -1.0703,0.5234 -0.4297,0.5234 -0.4297,1.6641 z m 9.25,1 1,0.125 q -0.2344,0.875 -0.875,1.3593 -0.6406,0.4844 -1.625,0.4844 -1.25,0 -1.9844,-0.7656 -0.7344,-0.7656 -0.7344,-2.1563 0,-1.4531 0.7422,-2.2422 0.7422,-0.789 1.9141,-0.789 1.1563,0 1.875,0.7734 0.7187,0.7735 0.7187,2.1953 0,0.0782 0,0.25 l -4.25,0 q 0.0469,0.9375 0.5235,1.4375 0.4765,0.5 1.1953,0.5 0.5312,0 0.9062,-0.2734 0.375,-0.2734 0.5938,-0.8984 z m -3.1719,-1.5625 3.1875,0 q -0.0625,-0.7188 -0.3594,-1.0782 -0.4687,-0.5468 -1.2031,-0.5468 -0.6719,0 -1.125,0.4453 -0.4531,0.4453 -0.5,1.1797 z m 1.3281,-3.5938 -0.7812,0 -1.2344,-1.5156 1.2813,0 0.7343,1.5156 z m 3.9219,7 0,-7.875 0.9688,0 0,7.875 -0.9688,0 z m 5.9219,-1.8437 1,0.125 q -0.2344,0.875 -0.875,1.3593 -0.6406,0.4844 -1.625,0.4844 -1.25,0 -1.9844,-0.7656 -0.7344,-0.7656 -0.7344,-2.1563 0,-1.4531 0.7422,-2.2422 0.7422,-0.789 1.9141,-0.789 1.1563,0 1.875,0.7734 0.7187,0.7735 0.7187,2.1953 0,0.0782 0,0.25 l -4.25,0 q 0.0469,0.9375 0.5235,1.4375 0.4765,0.5 1.1953,0.5 0.5312,0 0.9062,-0.2734 0.375,-0.2734 0.5938,-0.8984 z m -3.1719,-1.5625 3.1875,0 q -0.0625,-0.7188 -0.3594,-1.0782 -0.4687,-0.5468 -1.2031,-0.5468 -0.6719,0 -1.125,0.4453 -0.4531,0.4453 -0.5,1.1797 z m 6.8907,5.5937 -2.1407,0 0,-0.7969 1.1719,0 0,-8.4687 -1.1719,0 0,-0.7969 2.1407,0 0,10.0625 z"
     clip-path="url(#clipPath1)"
     id="path4156"
     inkscape:connector-curvature="0"
     style="fill:#000000;stroke:none"
     transform="translate(-4.5,-4.5)" />
  <path
     d="m 12.7188,18.4978 0,-7.875 1.5156,0 0,2.8438 q 0.7031,-0.7969 1.6562,-0.7969 1.0469,0 1.7266,0.75 0.6797,0.75 0.6797,2.1719 0,1.4531 -0.6953,2.2421 -0.6954,0.7891 -1.6954,0.7891 -0.4843,0 -0.9609,-0.2422 -0.4765,-0.2422 -0.8203,-0.7265 l 0,0.8437 -1.4062,0 z m 1.5,-2.9687 q 0,0.875 0.2812,1.2968 0.3906,0.6094 1.0469,0.6094 0.5,0 0.8515,-0.4297 0.3516,-0.4297 0.3516,-1.3515 0,-0.9688 -0.3516,-1.3985 -0.3515,-0.4297 -0.914,-0.4297 -0.5469,0 -0.9063,0.4219 -0.3593,0.4219 -0.3593,1.2813 z m 10.7968,2.9687 -1.3906,0 0,-0.8437 q -0.3594,0.5 -0.8359,0.7343 -0.4766,0.2344 -0.9453,0.2344 -0.9844,0 -1.6876,-0.7891 -0.7031,-0.789 -0.7031,-2.2109 0,-1.4531 0.6797,-2.2031 0.6797,-0.75 1.7266,-0.75 0.9531,0 1.6562,0.7969 l 0,-2.8438 1.5,0 0,7.875 z M 21,15.5291 q 0,0.9062 0.25,1.3125 0.3594,0.5937 1.0156,0.5937 0.5156,0 0.8828,-0.4453 0.3672,-0.4453 0.3672,-1.3203 0,-0.9844 -0.3515,-1.4141 -0.3516,-0.4297 -0.9141,-0.4297 -0.5312,0 -0.8906,0.4219 Q 21,14.6697 21,15.5291 z m 11.0156,2.9687 -1.3906,0 0,-0.8437 q -0.3594,0.5 -0.8359,0.7343 -0.4766,0.2344 -0.9453,0.2344 -0.9844,0 -1.6876,-0.7891 -0.7031,-0.789 -0.7031,-2.2109 0,-1.4531 0.6797,-2.2031 0.6797,-0.75 1.7266,-0.75 0.9531,0 1.6562,0.7969 l 0,-2.8438 1.5,0 0,7.875 z M 28,15.5291 q 0,0.9062 0.25,1.3125 0.3594,0.5937 1.0156,0.5937 0.5156,0 0.8828,-0.4453 0.3672,-0.4453 0.3672,-1.3203 0,-0.9844 -0.3515,-1.4141 -0.3516,-0.4297 -0.9141,-0.4297 -0.5312,0 -0.8906,0.4219 Q 28,14.6697 28,15.5291 z"
     clip-path="url(#clipPath1)"
     id="path4158"
     inkscape:connector-curvature="0"
     style="fill:#000000;stroke:none"
     transform="translate(-4.5,-4.5)" />
  <path
     d="m 81.8438,18.4978 0,-7.875 2.7187,0 q 0.9219,0 1.4063,0.1094 0.6718,0.1562 1.1562,0.5625 0.6094,0.5312 0.9219,1.3515 0.3125,0.8204 0.3125,1.8672 0,0.9063 -0.211,1.5938 -0.2109,0.6875 -0.539,1.1406 -0.3282,0.4531 -0.7188,0.7188 -0.3906,0.2656 -0.9375,0.3984 -0.5469,0.1328 -1.2656,0.1328 l -2.8437,0 z m 1.0468,-0.9219 1.6875,0 q 0.7657,0 1.211,-0.1484 0.4453,-0.1484 0.7109,-0.4141 0.375,-0.375 0.5781,-1 0.2031,-0.625 0.2031,-1.5156 0,-1.2344 -0.4062,-1.8984 -0.4062,-0.6641 -0.9844,-0.8828 -0.4218,-0.1563 -1.3437,-0.1563 l -1.6563,0 0,6.0156 z m 9.5625,0.2188 q -0.5469,0.4531 -1.039,0.6406 -0.4922,0.1875 -1.0703,0.1875 -0.9376,0 -1.4454,-0.4609 -0.5078,-0.461 -0.5078,-1.1641 0,-0.4219 0.1953,-0.7656 0.1953,-0.3438 0.5,-0.5547 0.3047,-0.2109 0.6953,-0.3203 0.2813,-0.0781 0.8594,-0.1406 1.1719,-0.1407 1.7188,-0.3438 0.0156,-0.1875 0.0156,-0.25 0,-0.5937 -0.2812,-0.8281 Q 91.7344,13.4666 91,13.4666 q -0.6875,0 -1.0078,0.2343 -0.3203,0.2344 -0.4766,0.8438 l -0.9531,-0.125 q 0.125,-0.6094 0.4219,-0.9844 0.2968,-0.375 0.8594,-0.5703 0.5624,-0.1953 1.2968,-0.1953 0.7344,0 1.1875,0.1719 0.4531,0.1718 0.6641,0.4296 0.2109,0.2579 0.3047,0.6485 0.0469,0.25 0.0469,0.9062 l 0,1.2813 q 0,1.3437 0.0624,1.7031 0.0626,0.3594 0.25,0.6875 l -1.0156,0 q -0.1562,-0.2969 -0.1875,-0.7031 z m -0.0937,-2.1563 q -0.5156,0.2188 -1.5782,0.3594 -0.5937,0.0938 -0.8359,0.1953 -0.2422,0.1016 -0.3828,0.3125 -0.1406,0.211 -0.1406,0.461 0,0.3906 0.2969,0.6484 0.2968,0.2578 0.8593,0.2578 0.5625,0 0.9922,-0.25 0.4297,-0.25 0.6485,-0.6719 0.1406,-0.3281 0.1406,-0.9687 l 0,-0.3438 z m 4.4844,2 0.125,0.8438 q -0.4063,0.0937 -0.7188,0.0937 -0.5312,0 -0.8203,-0.1718 -0.2891,-0.1719 -0.4063,-0.4375 -0.1172,-0.2657 -0.1172,-1.1407 l 0,-3.2812 -0.7187,0 0,-0.75 0.7187,0 0,-1.4063 0.9532,-0.5937 0,2 0.9844,0 0,0.75 -0.9844,0 0,3.3437 q 0,0.4063 0.0547,0.5235 0.0547,0.1172 0.1718,0.1875 0.1172,0.0703 0.3203,0.0703 0.1719,0 0.4376,-0.0313 z m 4.6093,0.1563 q -0.5469,0.4531 -1.039,0.6406 -0.4922,0.1875 -1.0703,0.1875 -0.9376,0 -1.4454,-0.4609 -0.5078,-0.461 -0.5078,-1.1641 0,-0.4219 0.1953,-0.7656 0.1953,-0.3438 0.5,-0.5547 0.3047,-0.2109 0.6953,-0.3203 0.2813,-0.0781 0.8594,-0.1406 1.1719,-0.1407 1.7188,-0.3438 0.0156,-0.1875 0.0156,-0.25 0,-0.5937 -0.2812,-0.8281 -0.3594,-0.3281 -1.0938,-0.3281 -0.6875,0 -1.0078,0.2343 -0.3203,0.2344 -0.4766,0.8438 l -0.9531,-0.125 q 0.125,-0.6094 0.4219,-0.9844 0.2968,-0.375 0.8594,-0.5703 0.5624,-0.1953 1.2968,-0.1953 0.7344,0 1.1875,0.1719 0.4531,0.1718 0.6641,0.4296 0.2109,0.2579 0.3047,0.6485 0.0469,0.25 0.0469,0.9062 l 0,1.2813 q 0,1.3437 0.0624,1.7031 0.0626,0.3594 0.25,0.6875 l -1.0156,0 q -0.1562,-0.2969 -0.1875,-0.7031 z m -0.0937,-2.1563 q -0.5156,0.2188 -1.5782,0.3594 -0.5937,0.0938 -0.8359,0.1953 -0.2422,0.1016 -0.3828,0.3125 -0.1406,0.211 -0.1406,0.461 0,0.3906 0.2969,0.6484 0.2968,0.2578 0.8593,0.2578 0.5625,0 0.9922,-0.25 0.4297,-0.25 0.6485,-0.6719 0.1406,-0.3281 0.1406,-0.9687 l 0,-0.3438 z"
     clip-path="url(#clipPath1)"
     id="path4160"
     inkscape:connector-curvature="0"
     style="fill:#000000;stroke:none"
     transform="translate(-4.5,-4.5)" />
  <path
     d="m 105.75,20.6853 0,-10.0625 2.125,0 0,0.7969 -1.1562,0 0,8.4687 1.1562,0 0,0.7969 -2.125,0 z"
     clip-path="url(#clipPath1)"
     id="path4162"
     inkscape:connector-curvature="0"
     style="fill:#000000;stroke:none"
     transform="translate(-4.5,-4.5)" />
  <path
     d="m 182.3438,20.6853 -2.1407,0 0,-0.7969 1.1719,0 0,-8.4687 -1.1719,0 0,-0.7969 2.1407,0 0,10.0625 z"
     clip-path="url(#clipPath1)"
     id="path4164"
     inkscape:connector-curvature="0"
     style="fill:#000000;stroke:none"
     transform="translate(-4.5,-4.5)" />
  <line
     y2="23"
     x1="5"
     clip-path="url(#clipPath1)"
     x2="178"
     y1="23"
     id="line4166"
     style="fill:none;stroke:#424242;stroke-linecap:butt;stroke-linejoin:round"
     transform="translate(-4.5,-4.5)" />
  <line
     y2="17"
     x1="187"
     clip-path="url(#clipPath1)"
     x2="187"
     y1="5"
     id="line4168"
     style="fill:none;stroke:#424242;stroke-linecap:butt;stroke-linejoin:round"
     transform="translate(-4.5,-4.5)" />
  <line
     y2="17"
     x1="178"
     clip-path="url(#clipPath1)"
     x2="187"
     y1="23"
     id="line4170"
     style="fill:none;stroke:#424242;stroke-linecap:butt;stroke-linejoin:round"
     transform="translate(-4.5,-4.5)" />
  <rect
     x="185"
     y="66"
     clip-path="url(#clipPath1)"
     width="91"
     height="145"
     id="rect4172"
     style="fill:#b2b2b2;stroke:none"
     transform="translate(-4.5,-4.5)" />
  <rect
     x="182"
     y="63"
     clip-path="url(#clipPath1)"
     width="91"
     height="145"
     id="rect4174"
     style="fill:url(#linearGradient4343);stroke:none"
     transform="translate(-4.5,-4.5)" />
  <rect
     x="182"
     y="63"
     clip-path="url(#clipPath1)"
     width="91"
     height="145"
     id="rect4176"
     style="fill:none;stroke:#99795c;stroke-linecap:butt;stroke-linejoin:round"
     transform="translate(-4.5,-4.5)" />
  <line
     clip-path="url(#clipPath1)"
     x1="182"
     x2="273"
     y1="96"
     y2="96"
     id="line4178"
     style="fill:none;stroke:#99795c;stroke-linecap:butt;stroke-linejoin:round"
     transform="translate(-4.5,-4.5)" />
  <path
     d="m 221.5156,141.5891 0.1875,-0.9062 0.9063,0 -0.1875,0.9062 -0.9063,0 z m 3,0 0.1875,-0.9062 0.9063,0 -0.1875,0.9062 -0.9063,0 z m 3,0 0.1875,-0.9062 0.9063,0 -0.1875,0.9062 -0.9063,0 z"
     clip-path="url(#clipPath1)"
     id="path4186"
     inkscape:connector-curvature="0"
     style="fill:#000000;stroke:none"
     transform="translate(-4.5,-4.5)" />
  <path
     d="m 205.8281,73.6541 1.3907,2.4531 -0.7813,0 -1.7187,-2.4531 1.7187,-2.4375 0.7969,0 -1.4063,2.4375 z m 2.0781,0 1.4219,2.4531 -0.8281,0 -1.6719,-2.4531 1.6719,-2.4375 0.8281,0 -1.4219,2.4375 z m 2.4376,1.1406 0.9531,-0.1563 q 0.0781,0.5782 0.4453,0.8828 0.3672,0.3047 1.0234,0.3047 0.6719,0 0.9922,-0.2656 0.3203,-0.2656 0.3203,-0.6406 0,-0.3281 -0.2812,-0.5156 -0.2031,-0.125 -0.9844,-0.3282 -1.0625,-0.2656 -1.4766,-0.4609 -0.414,-0.1953 -0.625,-0.5391 -0.2109,-0.3437 -0.2109,-0.7656 0,-0.3906 0.1719,-0.7109 0.1719,-0.3203 0.4843,-0.5391 0.2188,-0.1719 0.6094,-0.2812 0.3906,-0.1094 0.8282,-0.1094 0.6718,0 1.1796,0.1875 0.5078,0.1875 0.75,0.5234 0.2422,0.336 0.336,0.8828 l -0.9375,0.125 q -0.0781,-0.4375 -0.3828,-0.6797 -0.3047,-0.2421 -0.8672,-0.2421 -0.6719,0 -0.9531,0.2187 -0.2813,0.2188 -0.2813,0.5156 0,0.1875 0.1094,0.3282 0.125,0.1562 0.375,0.2656 0.1406,0.0469 0.8593,0.25 1.0157,0.2656 1.4219,0.4375 0.4063,0.1719 0.6407,0.5078 0.2343,0.3359 0.2343,0.8359 0,0.4844 -0.2812,0.9063 -0.2813,0.4219 -0.8125,0.6562 -0.5313,0.2344 -1.2032,0.2344 -1.1093,0 -1.6953,-0.4609 -0.5859,-0.461 -0.7421,-1.3672 z m 6.3437,3.9062 -0.1094,-0.9062 q 0.3125,0.0781 0.5469,0.0781 0.3281,0 0.5234,-0.1094 0.1954,-0.1093 0.3047,-0.2968 0.0938,-0.1407 0.2969,-0.7188 0.0312,-0.0781 0.0938,-0.2344 l -2.1719,-5.7187 1.0469,0 1.1874,3.2969 q 0.2344,0.6406 0.4063,1.3281 0.1719,-0.6719 0.4063,-1.2969 l 1.2187,-3.3281 0.9687,0 -2.1718,5.7969 q -0.3438,0.9375 -0.5469,1.2968 -0.25,0.4844 -0.5859,0.7032 -0.336,0.2187 -0.7891,0.2187 -0.2813,0 -0.625,-0.1094 z m 5.6563,-3.9062 0.9531,-0.1563 q 0.0781,0.5782 0.4453,0.8828 0.3672,0.3047 1.0234,0.3047 0.6719,0 0.9922,-0.2656 0.3203,-0.2656 0.3203,-0.6406 0,-0.3281 -0.2812,-0.5156 -0.2031,-0.125 -0.9844,-0.3282 -1.0625,-0.2656 -1.4766,-0.4609 -0.414,-0.1953 -0.625,-0.5391 -0.2109,-0.3437 -0.2109,-0.7656 0,-0.3906 0.1719,-0.7109 0.1719,-0.3203 0.4843,-0.5391 0.2188,-0.1719 0.6094,-0.2812 0.3906,-0.1094 0.8282,-0.1094 0.6718,0 1.1796,0.1875 0.5078,0.1875 0.75,0.5234 0.2422,0.336 0.336,0.8828 l -0.9375,0.125 q -0.0781,-0.4375 -0.3828,-0.6797 -0.3047,-0.2421 -0.8672,-0.2421 -0.6719,0 -0.9531,0.2187 -0.2813,0.2188 -0.2813,0.5156 0,0.1875 0.1094,0.3282 0.125,0.1562 0.375,0.2656 0.1406,0.0469 0.8593,0.25 1.0157,0.2656 1.4219,0.4375 0.4063,0.1719 0.6407,0.5078 0.2343,0.3359 0.2343,0.8359 0,0.4844 -0.2812,0.9063 -0.2813,0.4219 -0.8125,0.6562 -0.5313,0.2344 -1.2032,0.2344 -1.1093,0 -1.6953,-0.4609 -0.5859,-0.461 -0.7421,-1.3672 z m 8.5,0.8437 0.125,0.8438 q -0.4063,0.0937 -0.7188,0.0937 -0.5312,0 -0.8203,-0.1718 -0.2891,-0.1719 -0.4063,-0.4375 -0.1172,-0.2657 -0.1172,-1.1407 l 0,-3.2812 -0.7187,0 0,-0.75 0.7187,0 0,-1.4063 0.9532,-0.5937 0,2 0.9844,0 0,0.75 -0.9844,0 0,3.3437 q 0,0.4063 0.0547,0.5235 0.0547,0.1172 0.1718,0.1875 0.1172,0.0703 0.3203,0.0703 0.1719,0 0.4376,-0.0313 z m 4.7812,-0.9843 1,0.125 q -0.2344,0.875 -0.875,1.3593 -0.6406,0.4844 -1.625,0.4844 -1.25,0 -1.9844,-0.7656 -0.7344,-0.7656 -0.7344,-2.1563 0,-1.4531 0.7422,-2.2422 0.7422,-0.789 1.9141,-0.789 1.1563,0 1.875,0.7734 0.7187,0.7735 0.7187,2.1953 0,0.0782 0,0.25 l -4.25,0 q 0.0469,0.9375 0.5235,1.4375 0.4765,0.5 1.1953,0.5 0.5312,0 0.9062,-0.2734 0.375,-0.2734 0.5938,-0.8984 z m -3.1719,-1.5625 3.1875,0 q -0.0625,-0.7188 -0.3594,-1.0782 -0.4687,-0.5468 -1.2031,-0.5468 -0.6719,0 -1.125,0.4453 -0.4531,0.4453 -0.5,1.1797 z m 5.2657,3.4062 0,-5.7031 0.875,0 0,0.7969 q 0.2656,-0.4219 0.7109,-0.6719 0.4453,-0.25 1.0078,-0.25 0.6406,0 1.0469,0.2578 0.4062,0.2578 0.5781,0.7422 0.6719,-1 1.75,-1 0.8594,0 1.3125,0.4687 0.4531,0.4688 0.4531,1.4375 l 0,3.9219 -0.9531,0 0,-3.5937 q 0,-0.5782 -0.0938,-0.836 -0.0937,-0.2578 -0.3437,-0.414 -0.25,-0.1563 -0.5781,-0.1563 -0.6094,0 -1.0078,0.4063 -0.3985,0.4062 -0.3985,1.2812 l 0,3.3125 -0.9687,0 0,-3.7031 q 0,-0.6406 -0.2344,-0.9688 -0.2344,-0.3281 -0.7656,-0.3281 -0.4063,0 -0.7578,0.2188 -0.3516,0.2187 -0.5078,0.6328 -0.1563,0.414 -0.1563,1.1953 l 0,2.9531 -0.9687,0 z m 11.5312,-2.8437 -1.4062,-2.4375 0.7968,0 1.7188,2.4375 -1.7188,2.4531 -0.7812,0 1.3906,-2.4531 z m -2.0781,0 -1.4219,-2.4375 0.8125,0 1.6875,2.4375 -1.6875,2.4531 -0.8125,0 1.4219,-2.4531 z"
     clip-path="url(#clipPath1)"
     id="path4198"
     inkscape:connector-curvature="0"
     style="fill:#000000;stroke:none"
     transform="translate(-4.5,-4.5)" />
  <path
     d="m 190.8438,88.6072 1.5312,0.4844 q -0.3438,1.2812 -1.1719,1.914 -0.8281,0.6328 -2.0937,0.6328 -1.5625,0 -2.5782,-1.0781 -1.0156,-1.0781 -1.0156,-2.9375 0,-1.9531 1.0156,-3.0469 1.0157,-1.0937 2.6719,-1.0937 1.4531,0 2.3438,0.8594 0.5469,0.5 0.8125,1.4531 l -1.5782,0.375 q -0.1406,-0.6094 -0.5781,-0.9688 -0.4375,-0.3593 -1.0781,-0.3593 -0.875,0 -1.4219,0.6328 -0.5469,0.6328 -0.5469,2.039 0,1.4844 0.5391,2.125 0.5391,0.6407 1.3985,0.6407 0.6406,0 1.0937,-0.4063 0.4531,-0.4062 0.6563,-1.2656 z m 2.5937,-0.0469 q 0,-0.75 0.375,-1.4531 0.375,-0.7031 1.0547,-1.0703 0.6797,-0.3672 1.5078,-0.3672 1.2969,0 2.125,0.8359 0.8281,0.836 0.8281,2.1172 0,1.2969 -0.8359,2.1484 -0.836,0.8516 -2.1016,0.8516 -0.7812,0 -1.4922,-0.3516 -0.7109,-0.3515 -1.0859,-1.039 -0.375,-0.6875 -0.375,-1.6719 z m 1.5469,0.0781 q 0,0.8594 0.4062,1.3125 0.4063,0.4532 1,0.4532 0.5782,0 0.9844,-0.4532 0.4062,-0.4531 0.4062,-1.3125 0,-0.8437 -0.4062,-1.2968 -0.4062,-0.4532 -0.9844,-0.4532 -0.5937,0 -1,0.4532 -0.4062,0.4531 -0.4062,1.2968 z m 7.25,2.8594 -1.5156,0 0,-5.7031 1.4062,0 0,0.8125 q 0.3594,-0.5781 0.6484,-0.7578 0.2891,-0.1797 0.6485,-0.1797 0.5156,0 1,0.2812 l -0.4688,1.3125 q -0.375,-0.25 -0.7031,-0.25 -0.3281,0 -0.5469,0.1797 -0.2187,0.1797 -0.3437,0.6328 -0.125,0.4532 -0.125,1.9063 l 0,1.7656 z m 8.7812,0 -1.3906,0 0,-0.8437 q -0.3594,0.5 -0.8359,0.7343 -0.4766,0.2344 -0.9453,0.2344 -0.9844,0 -1.6876,-0.7891 -0.7031,-0.789 -0.7031,-2.2109 0,-1.4531 0.6797,-2.2031 0.6797,-0.75 1.7266,-0.75 0.9531,0 1.6562,0.7969 l 0,-2.8438 1.5,0 0,7.875 z M 207,88.5291 q 0,0.9062 0.25,1.3125 0.3594,0.5937 1.0156,0.5937 0.5156,0 0.8828,-0.4453 0.3672,-0.4453 0.3672,-1.3203 0,-0.9844 -0.3515,-1.4141 -0.3516,-0.4297 -0.9141,-0.4297 -0.5312,0 -0.8906,0.4219 Q 207,87.6697 207,88.5291 z m 9.0938,1.1562 1.5,0.25 q -0.2813,0.8281 -0.9063,1.2578 -0.625,0.4297 -1.5781,0.4297 -1.4844,0 -2.2032,-0.9687 -0.5624,-0.7813 -0.5624,-1.9688 0,-1.4219 0.7421,-2.2187 0.7422,-0.7969 1.8829,-0.7969 1.2656,0 2,0.8359 0.7343,0.836 0.7031,2.5703 l -3.7813,0 q 0.0156,0.6719 0.3672,1.0469 0.3516,0.375 0.8672,0.375 0.3594,0 0.6016,-0.1953 0.2422,-0.1953 0.3672,-0.6172 z m 0.0781,-1.5312 q -0.0157,-0.6563 -0.336,-0.9922 -0.3203,-0.336 -0.7734,-0.336 -0.5,0 -0.8281,0.3594 -0.3125,0.3594 -0.3125,0.9688 l 2.25,0 z m 7.375,3.3437 0,-0.8594 q -0.3125,0.4688 -0.8203,0.7266 -0.5078,0.2578 -1.0704,0.2578 -0.5781,0 -1.0312,-0.25 -0.4531,-0.25 -0.6641,-0.7109 -0.2109,-0.461 -0.2109,-1.2578 l 0,-3.6094 1.5156,0 0,2.625 q 0,1.2031 0.086,1.4687 0.0859,0.2657 0.3046,0.4297 0.2188,0.1641 0.5626,0.1641 0.375,0 0.6874,-0.211 0.3126,-0.2109 0.4219,-0.5312 0.1094,-0.3203 0.1094,-1.5391 l 0,-2.4062 1.5156,0 0,5.7031 -1.4062,0 z m 2.7187,-1.625 1.5,-0.2344 q 0.1094,0.4375 0.3985,0.6641 0.289,0.2266 0.8203,0.2266 0.5937,0 0.8906,-0.2032 0.2031,-0.1562 0.2031,-0.4062 0,-0.1719 -0.1093,-0.2813 -0.125,-0.1093 -0.5157,-0.2031 -1.8125,-0.4062 -2.3125,-0.7344 -0.6718,-0.4687 -0.6718,-1.2812 0,-0.75 0.5859,-1.25 0.5859,-0.5 1.8203,-0.5 1.1719,0 1.7344,0.375 0.5625,0.375 0.7812,1.125 l -1.4218,0.2656 q -0.0938,-0.3281 -0.3438,-0.5078 -0.25,-0.1797 -0.7344,-0.1797 -0.5937,0 -0.8437,0.1719 -0.1719,0.1094 -0.1719,0.2969 0,0.1718 0.1406,0.2812 0.2032,0.1563 1.4141,0.4297 1.2109,0.2734 1.6797,0.6641 0.4844,0.4062 0.4844,1.125 0,0.7812 -0.6563,1.3437 -0.6563,0.5625 -1.9531,0.5625 -1.1563,0 -1.836,-0.4687 -0.6796,-0.4688 -0.8828,-1.2813 z m 10.8282,-0.1875 1.5,0.25 q -0.2813,0.8281 -0.9063,1.2578 -0.625,0.4297 -1.5781,0.4297 -1.4844,0 -2.2032,-0.9687 -0.5624,-0.7813 -0.5624,-1.9688 0,-1.4219 0.7421,-2.2187 0.7422,-0.7969 1.8829,-0.7969 1.2656,0 2,0.8359 0.7343,0.836 0.7031,2.5703 l -3.7813,0 q 0.0156,0.6719 0.3672,1.0469 0.3516,0.375 0.8672,0.375 0.3594,0 0.6016,-0.1953 0.2422,-0.1953 0.3672,-0.6172 z m 0.0781,-1.5312 q -0.0157,-0.6563 -0.336,-0.9922 -0.3203,-0.336 -0.7734,-0.336 -0.5,0 -0.8281,0.3594 -0.3125,0.3594 -0.3125,0.9688 l 2.25,0 z m 6.2187,0.7812 1.5469,-0.1562 q 0.1406,0.7812 0.5703,1.1484 0.4297,0.3672 1.1484,0.3672 0.7813,0 1.1641,-0.3281 0.3828,-0.3282 0.3828,-0.75 0,-0.2813 -0.164,-0.4766 -0.1641,-0.1953 -0.5703,-0.3516 -0.2813,-0.0937 -1.2657,-0.3437 -1.2812,-0.3125 -1.7969,-0.7813 -0.7187,-0.6406 -0.7187,-1.5781 0,-0.5937 0.3359,-1.1172 0.336,-0.5234 0.9766,-0.8047 0.6406,-0.2812 1.5625,-0.2812 1.4687,0 2.2187,0.6562 0.75,0.6563 0.7969,1.7344 l -1.5937,0.0781 q -0.1094,-0.6093 -0.4375,-0.875 -0.3281,-0.2656 -1,-0.2656 -0.7031,0 -1.0938,0.2813 -0.25,0.1875 -0.25,0.4843 0,0.2813 0.2344,0.4844 0.2969,0.25 1.4609,0.5234 1.1641,0.2735 1.7188,0.5625 0.5547,0.2891 0.8672,0.7969 0.3125,0.5078 0.3125,1.2578 0,0.6875 -0.375,1.2735 -0.375,0.5859 -1.0625,0.875 -0.6875,0.289 -1.7188,0.289 -1.4844,0 -2.289,-0.6875 -0.8047,-0.6875 -0.961,-2.0156 z m 7.4063,2.5625 0,-7.875 2.5625,0 q 1.4375,0 1.8906,0.125 0.6719,0.1719 1.125,0.7656 0.4531,0.5938 0.4531,1.5313 0,0.7187 -0.2578,1.2187 -0.2578,0.5 -0.6641,0.7813 -0.4062,0.2812 -0.8281,0.375 -0.5781,0.1094 -1.6562,0.1094 l -1.0313,0 0,2.9687 -1.5937,0 z m 1.5937,-6.5469 0,2.2344 0.875,0 q 0.9375,0 1.25,-0.125 0.3125,-0.125 0.4922,-0.3828 0.1797,-0.2578 0.1797,-0.6172 0,-0.4219 -0.25,-0.7031 -0.25,-0.2813 -0.6406,-0.3438 -0.2813,-0.0625 -1.1407,-0.0625 l -0.7656,0 z m 5.0938,4.5157 L 259,89.3103 q 0.0625,0.5156 0.375,0.8125 0.3125,0.2969 0.7344,0.2969 0.4687,0 0.7968,-0.3828 0.3282,-0.3828 0.3282,-1.1485 0,-0.7343 -0.3282,-1.0937 -0.3281,-0.3594 -0.8437,-0.3594 -0.6563,0 -1.1719,0.5781 l -1.2187,-0.1875 0.7656,-4.0937 4,0 0,1.4062 -2.8437,0 -0.2344,1.3438 q 0.5,-0.25 1.0312,-0.25 1,0 1.6953,0.7265 0.6953,0.7266 0.6953,1.8985 0,0.9687 -0.5624,1.7344 -0.7657,1.0468 -2.125,1.0468 -1.0938,0 -1.7813,-0.5859 -0.6875,-0.5859 -0.8281,-1.5859 z m 6,0 L 265,89.3103 q 0.0625,0.5156 0.375,0.8125 0.3125,0.2969 0.7344,0.2969 0.4687,0 0.7968,-0.3828 0.3282,-0.3828 0.3282,-1.1485 0,-0.7343 -0.3282,-1.0937 -0.3281,-0.3594 -0.8437,-0.3594 -0.6563,0 -1.1719,0.5781 l -1.2187,-0.1875 0.7656,-4.0937 4,0 0,1.4062 -2.8437,0 -0.2344,1.3438 q 0.5,-0.25 1.0312,-0.25 1,0 1.6953,0.7265 0.6953,0.7266 0.6953,1.8985 0,0.9687 -0.5624,1.7344 -0.7657,1.0468 -2.125,1.0468 -1.0938,0 -1.7813,-0.5859 -0.6875,-0.5859 -0.8281,-1.5859 z"
     clip-path="url(#clipPath1)"
     id="path4200"
     inkscape:connector-curvature="0"
     style="fill:#000000;stroke:none"
     transform="translate(-4.5,-4.5)" />
  <line
     clip-path="url(#clipPath1)"
     x1="88"
     x2="88"
     y1="142"
     y2="152"
     id="line4202"
     style="fill:none;stroke:#b2b2b2;stroke-linecap:butt;stroke-linejoin:round"
     transform="translate(-4.5,-4.5)" />
  <line
     clip-path="url(#clipPath1)"
     x1="75"
     x2="101"
     y1="147"
     y2="147"
     id="line4204"
     style="fill:none;stroke:#b2b2b2;stroke-linecap:butt;stroke-linejoin:round"
     transform="translate(-4.5,-4.5)" />
  <line
     clip-path="url(#clipPath1)"
     x1="75"
     x2="88"
     y1="161"
     y2="152"
     id="line4206"
     style="fill:none;stroke:#b2b2b2;stroke-linecap:butt;stroke-linejoin:round"
     transform="translate(-4.5,-4.5)" />
  <line
     clip-path="url(#clipPath1)"
     x1="101"
     x2="88"
     y1="161"
     y2="152"
     id="line4208"
     style="fill:none;stroke:#b2b2b2;stroke-linecap:butt;stroke-linejoin:round"
     transform="translate(-4.5,-4.5)" />
  <line
     clip-path="url(#clipPath1)"
     x1="89"
     x2="89"
     y1="142"
     y2="153"
     id="line4210"
     style="fill:none;stroke:#b2b2b2;stroke-linecap:butt;stroke-linejoin:round"
     transform="translate(-4.5,-4.5)" />
  <line
     clip-path="url(#clipPath1)"
     x1="76"
     x2="102"
     y1="148"
     y2="148"
     id="line4212"
     style="fill:none;stroke:#b2b2b2;stroke-linecap:butt;stroke-linejoin:round"
     transform="translate(-4.5,-4.5)" />
  <line
     clip-path="url(#clipPath1)"
     x1="76"
     x2="89"
     y1="162"
     y2="153"
     id="line4214"
     style="fill:none;stroke:#b2b2b2;stroke-linecap:butt;stroke-linejoin:round"
     transform="translate(-4.5,-4.5)" />
  <line
     clip-path="url(#clipPath1)"
     x1="102"
     x2="89"
     y1="162"
     y2="153"
     id="line4216"
     style="fill:none;stroke:#b2b2b2;stroke-linecap:butt;stroke-linejoin:round"
     transform="translate(-4.5,-4.5)" />
  <circle
     r="4.5"
     clip-path="url(#clipPath1)"
     cx="89.5"
     cy="139.5"
     id="circle4218"
     sodipodi:cx="89.5"
     sodipodi:cy="139.5"
     sodipodi:rx="4.5"
     sodipodi:ry="4.5"
     style="fill:#b2b2b2;stroke:none"
     transform="translate(-4.5,-4.5)" />
  <circle
     r="4.5"
     clip-path="url(#clipPath1)"
     cx="87.5"
     cy="137.5"
     id="circle4220"
     style="fill:url(#linearGradient4345);stroke:none"
     sodipodi:cx="87.5"
     sodipodi:cy="137.5"
     sodipodi:rx="4.5"
     sodipodi:ry="4.5"
     transform="translate(-4.5,-4.5)" />
  <circle
     r="4.5"
     clip-path="url(#clipPath1)"
     cx="87.5"
     cy="137.5"
     id="circle4222"
     sodipodi:cx="87.5"
     sodipodi:cy="137.5"
     sodipodi:rx="4.5"
     sodipodi:ry="4.5"
     style="fill:none;stroke:#666647;stroke-linecap:butt;stroke-linejoin:round"
     transform="translate(-4.5,-4.5)" />
  <line
     clip-path="url(#clipPath1)"
     x1="87"
     x2="87"
     y1="142"
     y2="151"
     id="line4224"
     style="fill:none;stroke:#666647;stroke-linecap:butt;stroke-linejoin:round"
     transform="translate(-4.5,-4.5)" />
  <line
     clip-path="url(#clipPath1)"
     x1="74"
     x2="100"
     y1="146"
     y2="146"
     id="line4226"
     style="fill:none;stroke:#666647;stroke-linecap:butt;stroke-linejoin:round"
     transform="translate(-4.5,-4.5)" />
  <line
     clip-path="url(#clipPath1)"
     x1="74"
     x2="87"
     y1="160"
     y2="151"
     id="line4228"
     style="fill:none;stroke:#666647;stroke-linecap:butt;stroke-linejoin:round"
     transform="translate(-4.5,-4.5)" />
  <line
     clip-path="url(#clipPath1)"
     x1="100"
     x2="87"
     y1="160"
     y2="151"
     id="line4230"
     style="fill:none;stroke:#666647;stroke-linecap:butt;stroke-linejoin:round"
     transform="translate(-4.5,-4.5)" />
  <path
     d="m 182,141 -81,11"
     clip-path="url(#clipPath1)"
     id="path4232"
     inkscape:connector-curvature="0"
     style="fill:none;stroke:#424242;stroke-linecap:butt;stroke-linejoin:round"
     transform="translate(-4.5,-4.5)" />
</svg>
