<?xml version="1.0" encoding="UTF-8" standalone="no"?>
<svg
   xmlns:dc="http://purl.org/dc/elements/1.1/"
   xmlns:cc="http://creativecommons.org/ns#"
   xmlns:rdf="http://www.w3.org/1999/02/22-rdf-syntax-ns#"
   xmlns:svg="http://www.w3.org/2000/svg"
   xmlns="http://www.w3.org/2000/svg"
   xmlns:xlink="http://www.w3.org/1999/xlink"
   xmlns:sodipodi="http://sodipodi.sourceforge.net/DTD/sodipodi-0.dtd"
   xmlns:inkscape="http://www.inkscape.org/namespaces/inkscape"
   color-rendering="auto"
   color-interpolation="auto"
   text-rendering="auto"
   width="580.3125"
   stroke-miterlimit="10"
   shape-rendering="auto"
   font-weight="normal"
   viewBox="0 0 619 466"
   height="436.875"
   font-style="normal"
   font-size="12"
   image-rendering="auto"
   id="svg3208"
   version="1.1"
   inkscape:version="0.48.4 r"
   sodipodi:docname="etat.svg"
   style="font-size:12px;font-style:normal;font-weight:normal;fill:#000000;fill-opacity:1;stroke:#000000;stroke-width:1;stroke-linecap:square;stroke-linejoin:miter;stroke-miterlimit:10;stroke-opacity:1;stroke-dasharray:none;stroke-dashoffset:0;font-family:Arial"
   inkscape:export-filename="D:\Documents\Corbu\Prepa\S01\TP01\Ilot_02_Cordeuse\img\etat.png"
   inkscape:export-xdpi="136"
   inkscape:export-ydpi="136">
  <metadata
     id="metadata3394">
    <rdf:RDF>
      <cc:Work
         rdf:about="">
        <dc:format>image/svg+xml</dc:format>
        <dc:type
           rdf:resource="http://purl.org/dc/dcmitype/StillImage" />
        <dc:title />
      </cc:Work>
    </rdf:RDF>
  </metadata>
  <sodipodi:namedview
     pagecolor="#ffffff"
     bordercolor="#666666"
     borderopacity="1"
     objecttolerance="10"
     gridtolerance="10"
     guidetolerance="10"
     inkscape:pageopacity="0"
     inkscape:pageshadow="2"
     inkscape:window-width="1366"
     inkscape:window-height="705"
     id="namedview3392"
     showgrid="false"
     fit-margin-top="0"
     fit-margin-left="0"
     fit-margin-right="0"
     fit-margin-bottom="0"
     inkscape:zoom="1.2017167"
     inkscape:cx="290.15625"
     inkscape:cy="218.4375"
     inkscape:window-x="-8"
     inkscape:window-y="-8"
     inkscape:window-maximized="1"
     inkscape:current-layer="svg3208" />
  <!--Generated by the Batik Graphics2D SVG Generator
 This is MagicDraw diagram.-->
  <defs
     id="genericDefs">
    <defs
       id="defs1">
      <linearGradient
         spreadMethod="pad"
         id="linearGradient1"
         y2="450"
         y1="184"
         x2="567"
         gradientUnits="userSpaceOnUse"
         x1="42">
        <stop
           id="stop3215"
           offset="0%"
           stop-color="rgb(255,255,204)"
           stop-opacity="1" />
        <stop
           id="stop3217"
           offset="100%"
           stop-color="white"
           stop-opacity="1" />
      </linearGradient>
      <linearGradient
         spreadMethod="pad"
         id="linearGradient2"
         y2="401"
         y1="352"
         x2="406"
         gradientUnits="userSpaceOnUse"
         x1="287">
        <stop
           id="stop3220"
           offset="0%"
           stop-color="rgb(255,255,204)"
           stop-opacity="1" />
        <stop
           id="stop3222"
           offset="100%"
           stop-color="white"
           stop-opacity="1" />
      </linearGradient>
      <linearGradient
         spreadMethod="pad"
         id="linearGradient3"
         y2="275"
         y1="226"
         x2="259"
         gradientUnits="userSpaceOnUse"
         x1="154">
        <stop
           id="stop3225"
           offset="0%"
           stop-color="rgb(255,255,204)"
           stop-opacity="1" />
        <stop
           id="stop3227"
           offset="100%"
           stop-color="white"
           stop-opacity="1" />
      </linearGradient>
      <linearGradient
         spreadMethod="pad"
         id="linearGradient4"
         y2="268"
         y1="226"
         x2="532"
         gradientUnits="userSpaceOnUse"
         x1="427">
        <stop
           id="stop3230"
           offset="0%"
           stop-color="rgb(255,255,204)"
           stop-opacity="1" />
        <stop
           id="stop3232"
           offset="100%"
           stop-color="white"
           stop-opacity="1" />
      </linearGradient>
      <linearGradient
         spreadMethod="pad"
         id="linearGradient5"
         y2="149"
         y1="107"
         x2="217"
         gradientUnits="userSpaceOnUse"
         x1="112">
        <stop
           id="stop3235"
           offset="0%"
           stop-color="rgb(255,255,204)"
           stop-opacity="1" />
        <stop
           id="stop3237"
           offset="100%"
           stop-color="white"
           stop-opacity="1" />
      </linearGradient>
      <linearGradient
         spreadMethod="pad"
         id="linearGradient6"
         y2="60"
         y1="42"
         x2="478"
         gradientUnits="userSpaceOnUse"
         x1="460">
        <stop
           id="stop3240"
           offset="0%"
           stop-color="white"
           stop-opacity="1" />
        <stop
           id="stop3242"
           offset="100%"
           stop-color="white"
           stop-opacity="1" />
      </linearGradient>
      <clipPath
         id="clipPath1"
         clipPathUnits="userSpaceOnUse">
        <path
           id="path3245"
           d="m 0,-5 638,0 0,490 L 0,485 0,-5 z"
           inkscape:connector-curvature="0" />
      </clipPath>
      <clipPath
         id="clipPath2"
         clipPathUnits="userSpaceOnUse">
        <path
           id="path3248"
           d="M -69.7281,395.2195 358.3837,-50.4758 693.7369,271.6472 265.6252,717.3425 -69.7281,395.2195 z"
           inkscape:connector-curvature="0" />
      </clipPath>
    </defs>
    <linearGradient
       inkscape:collect="always"
       xlink:href="#linearGradient1"
       id="linearGradient3490"
       gradientUnits="userSpaceOnUse"
       spreadMethod="pad"
       x1="42"
       y1="184"
       x2="567"
       y2="450" />
    <linearGradient
       inkscape:collect="always"
       xlink:href="#linearGradient2"
       id="linearGradient3492"
       gradientUnits="userSpaceOnUse"
       spreadMethod="pad"
       x1="287"
       y1="352"
       x2="406"
       y2="401" />
    <linearGradient
       inkscape:collect="always"
       xlink:href="#linearGradient3"
       id="linearGradient3494"
       gradientUnits="userSpaceOnUse"
       spreadMethod="pad"
       x1="154"
       y1="226"
       x2="259"
       y2="275" />
    <linearGradient
       inkscape:collect="always"
       xlink:href="#linearGradient4"
       id="linearGradient3496"
       gradientUnits="userSpaceOnUse"
       spreadMethod="pad"
       x1="427"
       y1="226"
       x2="532"
       y2="268" />
    <linearGradient
       inkscape:collect="always"
       xlink:href="#linearGradient5"
       id="linearGradient3498"
       gradientUnits="userSpaceOnUse"
       spreadMethod="pad"
       x1="112"
       y1="107"
       x2="217"
       y2="149" />
    <linearGradient
       inkscape:collect="always"
       xlink:href="#linearGradient6"
       id="linearGradient3500"
       gradientUnits="userSpaceOnUse"
       spreadMethod="pad"
       x1="460"
       y1="42"
       x2="478"
       y2="60" />
    <linearGradient
       inkscape:collect="always"
       xlink:href="#linearGradient1"
       id="linearGradient3563"
       gradientUnits="userSpaceOnUse"
       spreadMethod="pad"
       x1="42"
       y1="184"
       x2="567"
       y2="450" />
    <linearGradient
       inkscape:collect="always"
       xlink:href="#linearGradient2"
       id="linearGradient3565"
       gradientUnits="userSpaceOnUse"
       spreadMethod="pad"
       x1="287"
       y1="352"
       x2="406"
       y2="401" />
    <linearGradient
       inkscape:collect="always"
       xlink:href="#linearGradient3"
       id="linearGradient3567"
       gradientUnits="userSpaceOnUse"
       spreadMethod="pad"
       x1="154"
       y1="226"
       x2="259"
       y2="275" />
    <linearGradient
       inkscape:collect="always"
       xlink:href="#linearGradient4"
       id="linearGradient3569"
       gradientUnits="userSpaceOnUse"
       spreadMethod="pad"
       x1="427"
       y1="226"
       x2="532"
       y2="268" />
    <linearGradient
       inkscape:collect="always"
       xlink:href="#linearGradient5"
       id="linearGradient3571"
       gradientUnits="userSpaceOnUse"
       spreadMethod="pad"
       x1="112"
       y1="107"
       x2="217"
       y2="149" />
    <linearGradient
       inkscape:collect="always"
       xlink:href="#linearGradient6"
       id="linearGradient3573"
       gradientUnits="userSpaceOnUse"
       spreadMethod="pad"
       x1="460"
       y1="42"
       x2="478"
       y2="60" />
  </defs>
  <g
     style="fill:#ffffff;stroke:#ffffff"
     id="g3250"
     transform="translate(-4.5,-4.5)">
    <rect
       style="stroke:none"
       id="rect3252"
       clip-path="url(#clipPath1)"
       y="5"
       height="465"
       width="618"
       x="5" />
  </g>
  <rect
     x="5"
     width="618"
     height="465"
     y="5"
     clip-path="url(#clipPath1)"
     id="rect3270"
     style="fill:none;stroke:#424242;stroke-linecap:butt;stroke-linejoin:round"
     transform="translate(-4.5,-4.5)" />
  <path
     d="m 38.75,20.6853 0,-10.0625 2.125,0 0,0.7969 -1.1562,0 0,8.4687 1.1562,0 0,0.7969 -2.125,0 z m 3.0625,-2.1875 0,-7.875 1.5781,0 1.8594,5.5781 q 0.25,0.7813 0.375,1.1563 0.1406,-0.4219 0.4219,-1.25 l 1.875,-5.4844 1.4062,0 0,7.875 -1,0 0,-6.5937 -2.2969,6.5937 -0.9374,0 -2.2657,-6.7031 0,6.7031 -1.0156,0 z m 11.6406,-0.7031 q -0.5469,0.4531 -1.039,0.6406 -0.4922,0.1875 -1.0703,0.1875 -0.9376,0 -1.4454,-0.4609 -0.5078,-0.461 -0.5078,-1.1641 0,-0.4219 0.1953,-0.7656 0.1953,-0.3438 0.5,-0.5547 0.3047,-0.2109 0.6953,-0.3203 0.2813,-0.0781 0.8594,-0.1406 1.1719,-0.1407 1.7188,-0.3438 0.0156,-0.1875 0.0156,-0.25 0,-0.5937 -0.2812,-0.8281 Q 52.7344,13.4666 52,13.4666 q -0.6875,0 -1.0078,0.2343 -0.3203,0.2344 -0.4766,0.8438 l -0.9531,-0.125 q 0.125,-0.6094 0.4219,-0.9844 0.2968,-0.375 0.8594,-0.5703 0.5624,-0.1953 1.2968,-0.1953 0.7344,0 1.1875,0.1719 0.4531,0.1718 0.6641,0.4296 0.2109,0.2579 0.3047,0.6485 0.0469,0.25 0.0469,0.9062 l 0,1.2813 q 0,1.3437 0.0624,1.7031 0.0626,0.3594 0.25,0.6875 l -1.0156,0 q -0.1562,-0.2969 -0.1875,-0.7031 z m -0.0937,-2.1563 q -0.5156,0.2188 -1.5782,0.3594 -0.5937,0.0938 -0.8359,0.1953 -0.2422,0.1016 -0.3828,0.3125 -0.1406,0.211 -0.1406,0.461 0,0.3906 0.2969,0.6484 0.2968,0.2578 0.8593,0.2578 0.5625,0 0.9922,-0.25 0.4297,-0.25 0.6485,-0.6719 0.1406,-0.3281 0.1406,-0.9687 l 0,-0.3438 z m 6.0937,0.7657 0.9375,0.125 q -0.1406,0.9843 -0.789,1.539 -0.6485,0.5547 -1.5704,0.5547 -1.1718,0 -1.8828,-0.7656 -0.7109,-0.7656 -0.7109,-2.1875 0,-0.9219 0.3047,-1.6172 0.3047,-0.6953 0.9297,-1.0391 0.625,-0.3437 1.3593,-0.3437 0.9219,0 1.5157,0.4687 0.5937,0.4688 0.7656,1.3282 l -0.9531,0.1406 q -0.125,-0.5625 -0.4688,-0.8516 -0.3437,-0.289 -0.8281,-0.289 -0.7187,0 -1.1797,0.5234 -0.4609,0.5234 -0.4609,1.6484 0,1.1563 0.4375,1.6719 0.4375,0.5156 1.1562,0.5156 0.5625,0 0.9453,-0.3437 0.3829,-0.3438 0.4922,-1.0781 z m 2.2657,2.0937 0,-7.875 0.9687,0 0,2.8281 q 0.6875,-0.7812 1.7187,-0.7812 0.625,0 1.0938,0.25 0.4688,0.25 0.6719,0.6875 0.2031,0.4375 0.2031,1.2812 l 0,3.6094 -0.9688,0 0,-3.6094 q 0,-0.7343 -0.3124,-1.0625 -0.3126,-0.3281 -0.8907,-0.3281 -0.4375,0 -0.8125,0.2188 -0.375,0.2187 -0.539,0.6015 -0.1641,0.3828 -0.1641,1.0547 l 0,3.125 -0.9687,0 z m 6.0156,-6.7656 0,-1.1094 0.9687,0 0,1.1094 -0.9687,0 z m 0,6.7656 0,-5.7031 0.9687,0 0,5.7031 -0.9687,0 z m 1.9844,0 0,-5.7031 0.875,0 0,0.8125 q 0.625,-0.9375 1.8124,-0.9375 0.5157,0 0.9532,0.1797 0.4375,0.1797 0.6484,0.4843 0.211,0.3047 0.3047,0.711 0.0469,0.2812 0.0469,0.9531 l 0,3.5 -0.9688,0 0,-3.4687 q 0,-0.5938 -0.1094,-0.8829 -0.1093,-0.289 -0.3984,-0.4687 -0.289,-0.1797 -0.6797,-0.1797 -0.6093,0 -1.0625,0.3906 -0.4531,0.3907 -0.4531,1.5 l 0,3.1094 -0.9687,0 z m 9.9062,-1.8437 1,0.125 q -0.2344,0.875 -0.875,1.3593 -0.6406,0.4844 -1.625,0.4844 -1.25,0 -1.9844,-0.7656 -0.7344,-0.7656 -0.7344,-2.1563 0,-1.4531 0.7422,-2.2422 0.7422,-0.789 1.9141,-0.789 1.1563,0 1.875,0.7734 0.7187,0.7735 0.7187,2.1953 0,0.0782 0,0.25 l -4.25,0 q 0.0469,0.9375 0.5235,1.4375 0.4765,0.5 1.1953,0.5 0.5312,0 0.9062,-0.2734 0.375,-0.2734 0.5938,-0.8984 z m -3.1719,-1.5625 3.1875,0 q -0.0625,-0.7188 -0.3594,-1.0782 -0.4687,-0.5468 -1.2031,-0.5468 -0.6719,0 -1.125,0.4453 -0.4531,0.4453 -0.5,1.1797 z m 12,2.7031 q -0.5469,0.4531 -1.039,0.6406 -0.4922,0.1875 -1.0703,0.1875 -0.9376,0 -1.4454,-0.4609 -0.5078,-0.461 -0.5078,-1.1641 0,-0.4219 0.1953,-0.7656 0.1953,-0.3438 0.5,-0.5547 0.3047,-0.2109 0.6953,-0.3203 0.2813,-0.0781 0.8594,-0.1406 1.1719,-0.1407 1.7188,-0.3438 0.0156,-0.1875 0.0156,-0.25 0,-0.5937 -0.2812,-0.8281 Q 87.7344,13.4666 87,13.4666 q -0.6875,0 -1.0078,0.2343 -0.3203,0.2344 -0.4766,0.8438 l -0.9531,-0.125 q 0.125,-0.6094 0.4219,-0.9844 0.2968,-0.375 0.8594,-0.5703 0.5624,-0.1953 1.2968,-0.1953 0.7344,0 1.1875,0.1719 0.4531,0.1718 0.6641,0.4296 0.2109,0.2579 0.3047,0.6485 0.0469,0.25 0.0469,0.9062 l 0,1.2813 q 0,1.3437 0.0624,1.7031 0.0626,0.3594 0.25,0.6875 l -1.0156,0 q -0.1562,-0.2969 -0.1875,-0.7031 z m -0.0937,-2.1563 q -0.5156,0.2188 -1.5782,0.3594 -0.5937,0.0938 -0.8359,0.1953 -0.2422,0.1016 -0.3828,0.3125 -0.1406,0.211 -0.1406,0.461 0,0.3906 0.2969,0.6484 0.2968,0.2578 0.8593,0.2578 0.5625,0 0.9922,-0.25 0.4297,-0.25 0.6485,-0.6719 0.1406,-0.3281 0.1406,-0.9687 l 0,-0.3438 z m -0.5782,-4.1406 -0.7812,0 -1.2344,-1.5156 1.2813,0 0.7343,1.5156 z m 6.0938,7 0,-7.875 5.6875,0 0,0.9375 -4.6563,0 0,2.4063 4.3594,0 0,0.9218 -4.3594,0 0,2.6875 4.8438,0 0,0.9219 -5.875,0 z m 7.9688,-0.8594 0.125,0.8438 q -0.4063,0.0937 -0.7188,0.0937 -0.5312,0 -0.8203,-0.1718 -0.2891,-0.1719 -0.4063,-0.4375 -0.1172,-0.2657 -0.1172,-1.1407 l 0,-3.2812 -0.7187,0 0,-0.75 0.7187,0 0,-1.4063 0.9532,-0.5937 0,2 0.9844,0 0,0.75 -0.9844,0 0,3.3437 q 0,0.4063 0.0547,0.5235 0.0547,0.1172 0.1718,0.1875 0.1172,0.0703 0.3203,0.0703 0.1719,0 0.4376,-0.0313 z m 4.6093,0.1563 q -0.5469,0.4531 -1.039,0.6406 -0.4922,0.1875 -1.0703,0.1875 -0.9376,0 -1.4454,-0.4609 -0.5078,-0.461 -0.5078,-1.1641 0,-0.4219 0.1953,-0.7656 0.1953,-0.3438 0.5,-0.5547 0.3047,-0.2109 0.6953,-0.3203 0.2813,-0.0781 0.8594,-0.1406 1.1719,-0.1407 1.7188,-0.3438 0.0156,-0.1875 0.0156,-0.25 0,-0.5937 -0.2812,-0.8281 -0.3594,-0.3281 -1.0938,-0.3281 -0.6875,0 -1.0078,0.2343 -0.3203,0.2344 -0.4766,0.8438 l -0.9531,-0.125 q 0.125,-0.6094 0.4219,-0.9844 0.2968,-0.375 0.8594,-0.5703 0.5624,-0.1953 1.2968,-0.1953 0.7344,0 1.1875,0.1719 0.4531,0.1718 0.6641,0.4296 0.2109,0.2579 0.3047,0.6485 0.0469,0.25 0.0469,0.9062 l 0,1.2813 q 0,1.3437 0.0624,1.7031 0.0626,0.3594 0.25,0.6875 l -1.0156,0 q -0.1562,-0.2969 -0.1875,-0.7031 z m -0.0937,-2.1563 q -0.5156,0.2188 -1.5782,0.3594 -0.5937,0.0938 -0.8359,0.1953 -0.2422,0.1016 -0.3828,0.3125 -0.1406,0.211 -0.1406,0.461 0,0.3906 0.2969,0.6484 0.2968,0.2578 0.8593,0.2578 0.5625,0 0.9922,-0.25 0.4297,-0.25 0.6485,-0.6719 0.1406,-0.3281 0.1406,-0.9687 l 0,-0.3438 z m 4.4844,2 0.125,0.8438 q -0.4063,0.0937 -0.7188,0.0937 -0.5312,0 -0.8203,-0.1718 -0.2891,-0.1719 -0.4063,-0.4375 -0.1172,-0.2657 -0.1172,-1.1407 l 0,-3.2812 -0.7187,0 0,-0.75 0.7187,0 0,-1.4063 0.9532,-0.5937 0,2 0.9844,0 0,0.75 -0.9844,0 0,3.3437 q 0,0.4063 0.0547,0.5235 0.0547,0.1172 0.1718,0.1875 0.1172,0.0703 0.3203,0.0703 0.1719,0 0.4376,-0.0313 z m 2.5,3.0469 -2.1407,0 0,-0.7969 1.1719,0 0,-8.4687 -1.1719,0 0,-0.7969 2.1407,0 0,10.0625 z"
     clip-path="url(#clipPath1)"
     id="path3272"
     inkscape:connector-curvature="0"
     style="fill:#000000;stroke:none"
     transform="translate(-4.5,-4.5)" />
  <path
     d="m 118.3438,16.7947 0.9531,-0.1563 q 0.0781,0.5782 0.4453,0.8828 0.3672,0.3047 1.0234,0.3047 0.6719,0 0.9922,-0.2656 0.3203,-0.2656 0.3203,-0.6406 0,-0.3281 -0.2812,-0.5156 -0.2031,-0.125 -0.9844,-0.3282 -1.0625,-0.2656 -1.4766,-0.4609 -0.414,-0.1953 -0.625,-0.5391 -0.2109,-0.3437 -0.2109,-0.7656 0,-0.3906 0.1719,-0.7109 0.1719,-0.3203 0.4843,-0.5391 0.2188,-0.1719 0.6094,-0.2812 0.3906,-0.1094 0.8282,-0.1094 0.6718,0 1.1796,0.1875 0.5078,0.1875 0.75,0.5234 0.2422,0.336 0.336,0.8828 l -0.9375,0.125 q -0.0781,-0.4375 -0.3828,-0.6797 -0.3047,-0.2421 -0.8672,-0.2421 -0.6719,0 -0.9531,0.2187 -0.2813,0.2188 -0.2813,0.5156 0,0.1875 0.1094,0.3282 0.125,0.1562 0.375,0.2656 0.1406,0.0469 0.8593,0.25 1.0157,0.2656 1.4219,0.4375 0.4063,0.1719 0.6407,0.5078 0.2343,0.3359 0.2343,0.8359 0,0.4844 -0.2812,0.9063 -0.2813,0.4219 -0.8125,0.6562 -0.5313,0.2344 -1.2032,0.2344 -1.1093,0 -1.6953,-0.4609 -0.5859,-0.461 -0.7421,-1.3672 z m 8.5,0.8437 0.125,0.8438 q -0.4063,0.0937 -0.7188,0.0937 -0.5312,0 -0.8203,-0.1718 -0.2891,-0.1719 -0.4063,-0.4375 -0.1172,-0.2657 -0.1172,-1.1407 l 0,-3.2812 -0.7187,0 0,-0.75 0.7187,0 0,-1.4063 0.9532,-0.5937 0,2 0.9844,0 0,0.75 -0.9844,0 0,3.3437 q 0,0.4063 0.0547,0.5235 0.0547,0.1172 0.1718,0.1875 0.1172,0.0703 0.3203,0.0703 0.1719,0 0.4376,-0.0313 z m 0.875,0.8594 0,-5.7031 0.875,0 0,0.7969 q 0.2656,-0.4219 0.7109,-0.6719 0.4453,-0.25 1.0078,-0.25 0.6406,0 1.0469,0.2578 0.4062,0.2578 0.5781,0.7422 0.6719,-1 1.75,-1 0.8594,0 1.3125,0.4687 0.4531,0.4688 0.4531,1.4375 l 0,3.9219 -0.9531,0 0,-3.5937 q 0,-0.5782 -0.0938,-0.836 -0.0937,-0.2578 -0.3437,-0.414 -0.25,-0.1563 -0.5781,-0.1563 -0.6094,0 -1.0078,0.4063 -0.3985,0.4062 -0.3985,1.2812 l 0,3.3125 -0.9687,0 0,-3.7031 q 0,-0.6406 -0.2344,-0.9688 -0.2344,-0.3281 -0.7656,-0.3281 -0.4063,0 -0.7578,0.2188 -0.3516,0.2187 -0.5078,0.6328 -0.1563,0.414 -0.1563,1.1953 l 0,2.9531 -0.9687,0 z m 7.7343,-3.8906 q 0,-1.3906 0.2891,-2.2422 0.289,-0.8516 0.8594,-1.3125 0.5703,-0.4609 1.4296,-0.4609 0.625,0 1.1016,0.2578 0.4766,0.2578 0.7891,0.7343 0.3125,0.4766 0.4922,1.1719 0.1797,0.6953 0.1797,1.8516 0,1.3906 -0.2891,2.2422 -0.2891,0.8515 -0.8516,1.3203 -0.5625,0.4687 -1.4219,0.4687 -1.1406,0 -1.7968,-0.8281 -0.7813,-0.9844 -0.7813,-3.2031 z m 1,0 q 0,1.9531 0.4531,2.5937 0.4532,0.6407 1.125,0.6407 0.6563,0 1.1094,-0.6485 0.4532,-0.6484 0.4532,-2.5859 0,-1.9375 -0.4532,-2.5781 -0.4531,-0.6407 -1.125,-0.6407 -0.6718,0 -1.0625,0.5625 -0.5,0.7188 -0.5,2.6563 z m 8.6407,3.8906 -0.9688,0 0,-6.1562 q -0.3438,0.3281 -0.9062,0.664 -0.5626,0.336 -1.0157,0.4922 l 0,-0.9375 q 0.8125,-0.375 1.4141,-0.9141 0.6016,-0.539 0.8516,-1.0546 l 0.625,0 0,7.9062 z"
     clip-path="url(#clipPath1)"
     id="path3274"
     inkscape:connector-curvature="0"
     style="fill:#000000;stroke:none"
     transform="translate(-4.5,-4.5)" />
  <path
     d="m 156.3438,16.7947 0.9531,-0.1563 q 0.0781,0.5782 0.4453,0.8828 0.3672,0.3047 1.0234,0.3047 0.6719,0 0.9922,-0.2656 0.3203,-0.2656 0.3203,-0.6406 0,-0.3281 -0.2812,-0.5156 -0.2031,-0.125 -0.9844,-0.3282 -1.0625,-0.2656 -1.4766,-0.4609 -0.414,-0.1953 -0.625,-0.5391 -0.2109,-0.3437 -0.2109,-0.7656 0,-0.3906 0.1719,-0.7109 0.1719,-0.3203 0.4843,-0.5391 0.2188,-0.1719 0.6094,-0.2812 0.3906,-0.1094 0.8282,-0.1094 0.6718,0 1.1796,0.1875 0.5078,0.1875 0.75,0.5234 0.2422,0.336 0.336,0.8828 l -0.9375,0.125 q -0.0781,-0.4375 -0.3828,-0.6797 -0.3047,-0.2421 -0.8672,-0.2421 -0.6719,0 -0.9531,0.2187 -0.2813,0.2188 -0.2813,0.5156 0,0.1875 0.1094,0.3282 0.125,0.1562 0.375,0.2656 0.1406,0.0469 0.8593,0.25 1.0157,0.2656 1.4219,0.4375 0.4063,0.1719 0.6407,0.5078 0.2343,0.3359 0.2343,0.8359 0,0.4844 -0.2812,0.9063 -0.2813,0.4219 -0.8125,0.6562 -0.5313,0.2344 -1.2032,0.2344 -1.1093,0 -1.6953,-0.4609 -0.5859,-0.461 -0.7421,-1.3672 z m 8.5,0.8437 0.125,0.8438 q -0.4063,0.0937 -0.7188,0.0937 -0.5312,0 -0.8203,-0.1718 -0.2891,-0.1719 -0.4063,-0.4375 -0.1172,-0.2657 -0.1172,-1.1407 l 0,-3.2812 -0.7187,0 0,-0.75 0.7187,0 0,-1.4063 0.9532,-0.5937 0,2 0.9844,0 0,0.75 -0.9844,0 0,3.3437 q 0,0.4063 0.0547,0.5235 0.0547,0.1172 0.1718,0.1875 0.1172,0.0703 0.3203,0.0703 0.1719,0 0.4376,-0.0313 z m 0.875,0.8594 0,-5.7031 0.875,0 0,0.7969 q 0.2656,-0.4219 0.7109,-0.6719 0.4453,-0.25 1.0078,-0.25 0.6406,0 1.0469,0.2578 0.4062,0.2578 0.5781,0.7422 0.6719,-1 1.75,-1 0.8594,0 1.3125,0.4687 0.4531,0.4688 0.4531,1.4375 l 0,3.9219 -0.9531,0 0,-3.5937 q 0,-0.5782 -0.0938,-0.836 -0.0937,-0.2578 -0.3437,-0.414 -0.25,-0.1563 -0.5781,-0.1563 -0.6094,0 -1.0078,0.4063 -0.3985,0.4062 -0.3985,1.2812 l 0,3.3125 -0.9687,0 0,-3.7031 q 0,-0.6406 -0.2344,-0.9688 -0.2344,-0.3281 -0.7656,-0.3281 -0.4063,0 -0.7578,0.2188 -0.3516,0.2187 -0.5078,0.6328 -0.1563,0.414 -0.1563,1.1953 l 0,2.9531 -0.9687,0 z m 7.7343,-3.8906 q 0,-1.3906 0.2891,-2.2422 0.289,-0.8516 0.8594,-1.3125 0.5703,-0.4609 1.4296,-0.4609 0.625,0 1.1016,0.2578 0.4766,0.2578 0.7891,0.7343 0.3125,0.4766 0.4922,1.1719 0.1797,0.6953 0.1797,1.8516 0,1.3906 -0.2891,2.2422 -0.2891,0.8515 -0.8516,1.3203 -0.5625,0.4687 -1.4219,0.4687 -1.1406,0 -1.7968,-0.8281 -0.7813,-0.9844 -0.7813,-3.2031 z m 1,0 q 0,1.9531 0.4531,2.5937 0.4532,0.6407 1.125,0.6407 0.6563,0 1.1094,-0.6485 0.4532,-0.6484 0.4532,-2.5859 0,-1.9375 -0.4532,-2.5781 -0.4531,-0.6407 -1.125,-0.6407 -0.6718,0 -1.0625,0.5625 -0.5,0.7188 -0.5,2.6563 z m 8.6407,3.8906 -0.9688,0 0,-6.1562 q -0.3438,0.3281 -0.9062,0.664 -0.5626,0.336 -1.0157,0.4922 l 0,-0.9375 q 0.8125,-0.375 1.4141,-0.9141 0.6016,-0.539 0.8516,-1.0546 l 0.625,0 0,7.9062 z"
     clip-path="url(#clipPath1)"
     id="path3276"
     inkscape:connector-curvature="0"
     style="fill:#000000;stroke:none"
     transform="translate(-4.5,-4.5)" />
  <path
     d="m 12.2656,16.8728 1.5,-0.2344 q 0.1094,0.4375 0.3985,0.6641 0.289,0.2266 0.8203,0.2266 0.5937,0 0.8906,-0.2032 0.2031,-0.1562 0.2031,-0.4062 0,-0.1719 -0.1093,-0.2813 -0.125,-0.1093 -0.5157,-0.2031 -1.8125,-0.4062 -2.3125,-0.7344 -0.6718,-0.4687 -0.6718,-1.2812 0,-0.75 0.5859,-1.25 0.5859,-0.5 1.8203,-0.5 1.1719,0 1.7344,0.375 0.5625,0.375 0.7812,1.125 l -1.4218,0.2656 q -0.0938,-0.3281 -0.3438,-0.5078 -0.25,-0.1797 -0.7344,-0.1797 -0.5937,0 -0.8437,0.1719 -0.1719,0.1094 -0.1719,0.2969 0,0.1718 0.1406,0.2812 0.2032,0.1563 1.4141,0.4297 1.2109,0.2734 1.6797,0.6641 0.4844,0.4062 0.4844,1.125 0,0.7812 -0.6563,1.3437 -0.6563,0.5625 -1.9531,0.5625 -1.1563,0 -1.836,-0.4687 -0.6796,-0.4688 -0.8828,-1.2813 z m 10.1406,-4.0781 0,1.2031 -1.0312,0 0,2.2969 q 0,0.7031 0.0312,0.8203 0.0313,0.1172 0.1329,0.1875 0.1015,0.0703 0.2578,0.0703 0.2031,0 0.6093,-0.1406 l 0.125,1.1719 Q 22,18.6228 21.3438,18.6228 q -0.4219,0 -0.75,-0.1328 -0.3282,-0.1328 -0.4766,-0.3516 -0.1484,-0.2187 -0.211,-0.5937 -0.0468,-0.2656 -0.0468,-1.0625 l 0,-2.4844 -0.6875,0 0,-1.2031 0.6875,0 0,-1.1406 1.5156,-0.875 0,2.0156 1.0312,0 z m 1.2657,0 1.3906,0 0,0.7812 q 0.75,-0.9062 1.7813,-0.9062 0.5468,0 0.9531,0.2265 0.4062,0.2266 0.6562,0.6797 0.375,-0.4531 0.8125,-0.6797 0.4375,-0.2265 0.9375,-0.2265 0.625,0 1.0625,0.25 0.4375,0.25 0.6406,0.75 0.1563,0.3594 0.1563,1.1875 l 0,3.6406 -1.5,0 0,-3.2656 q 0,-0.8438 -0.1563,-1.0938 -0.2187,-0.3125 -0.6562,-0.3125 -0.3125,0 -0.5938,0.1875 -0.2812,0.1875 -0.3984,0.5625 -0.1172,0.375 -0.1172,1.1875 l 0,2.7344 -1.5156,0 0,-3.125 q 0,-0.8281 -0.0781,-1.0703 -0.0781,-0.2422 -0.25,-0.3594 -0.1719,-0.1172 -0.4688,-0.1172 -0.3437,0 -0.625,0.1875 -0.2812,0.1875 -0.3984,0.5391 -0.1172,0.3516 -0.1172,1.1797 l 0,2.7656 -1.5156,0 0,-5.7031 z"
     clip-path="url(#clipPath1)"
     id="path3278"
     inkscape:connector-curvature="0"
     style="fill:#000000;stroke:none"
     transform="translate(-4.5,-4.5)" />
  <path
     d="m 149.75,20.6853 0,-10.0625 2.125,0 0,0.7969 -1.1562,0 0,8.4687 1.1562,0 0,0.7969 -2.125,0 z"
     clip-path="url(#clipPath1)"
     id="path3280"
     inkscape:connector-curvature="0"
     style="fill:#000000;stroke:none"
     transform="translate(-4.5,-4.5)" />
  <path
     d="m 191.3438,20.6853 -2.1407,0 0,-0.7969 1.1719,0 0,-8.4687 -1.1719,0 0,-0.7969 2.1407,0 0,10.0625 z"
     clip-path="url(#clipPath1)"
     id="path3282"
     inkscape:connector-curvature="0"
     style="fill:#000000;stroke:none"
     transform="translate(-4.5,-4.5)" />
  <line
     y2="23"
     x1="5"
     clip-path="url(#clipPath1)"
     x2="187"
     y1="23"
     id="line3284"
     style="fill:none;stroke:#424242;stroke-linecap:butt;stroke-linejoin:round"
     transform="translate(-4.5,-4.5)" />
  <line
     y2="17"
     x1="196"
     clip-path="url(#clipPath1)"
     x2="196"
     y1="5"
     id="line3286"
     style="fill:none;stroke:#424242;stroke-linecap:butt;stroke-linejoin:round"
     transform="translate(-4.5,-4.5)" />
  <line
     y2="17"
     x1="187"
     clip-path="url(#clipPath1)"
     x2="196"
     y1="23"
     id="line3288"
     style="fill:none;stroke:#424242;stroke-linecap:butt;stroke-linejoin:round"
     transform="translate(-4.5,-4.5)" />
  <rect
     x="45"
     y="187"
     clip-path="url(#clipPath1)"
     width="525"
     rx="5"
     ry="5"
     height="266"
     id="rect3290"
     style="fill:#b2b2b2;stroke:none"
     transform="translate(-4.5,-4.5)" />
  <rect
     x="42"
     y="184"
     clip-path="url(#clipPath1)"
     width="525"
     rx="5"
     ry="5"
     height="266"
     id="rect3292"
     style="fill:url(#linearGradient3563);stroke:none"
     transform="translate(-4.5,-4.5)" />
  <rect
     x="42"
     y="184"
     clip-path="url(#clipPath1)"
     width="525"
     rx="5"
     ry="5"
     height="266"
     id="rect3294"
     style="fill:none;stroke:#99995c;stroke-linecap:butt;stroke-linejoin:round"
     transform="translate(-4.5,-4.5)" />
  <rect
     x="290"
     y="355"
     clip-path="url(#clipPath1)"
     width="119"
     rx="5"
     ry="5"
     height="49"
     id="rect3296"
     style="fill:#b2b2b2;stroke:none"
     transform="translate(-4.5,-4.5)" />
  <rect
     x="287"
     y="352"
     clip-path="url(#clipPath1)"
     width="119"
     rx="5"
     ry="5"
     height="49"
     id="rect3298"
     style="fill:url(#linearGradient3565);stroke:none"
     transform="translate(-4.5,-4.5)" />
  <rect
     x="287"
     y="352"
     clip-path="url(#clipPath1)"
     width="119"
     rx="5"
     ry="5"
     height="49"
     id="rect3300"
     style="fill:none;stroke:#99995c;stroke-linecap:butt;stroke-linejoin:round"
     transform="translate(-4.5,-4.5)" />
  <path
     d="m 307.8125,365.4978 0,-7.875 3.3437,0 q 1.2657,0 1.836,0.2109 0.5703,0.211 0.914,0.7579 0.3438,0.5468 0.3438,1.2343 0,0.8907 -0.5234,1.4688 -0.5235,0.5781 -1.5547,0.7344 0.5156,0.2968 0.8515,0.6562 0.336,0.3594 0.8985,1.2813 l 0.9687,1.5312 -1.9062,0 -1.1563,-1.7187 q -0.6093,-0.9063 -0.8359,-1.1485 -0.2266,-0.2422 -0.4766,-0.3281 -0.25,-0.0859 -0.7968,-0.0859 l -0.3282,0 0,3.2812 -1.5781,0 z m 1.5781,-4.5469 1.1875,0 q 1.1407,0 1.4219,-0.0937 0.2812,-0.0938 0.4453,-0.3281 0.1641,-0.2344 0.1641,-0.5938 0,-0.4062 -0.211,-0.6484 -0.2109,-0.2422 -0.6015,-0.3047 -0.1875,-0.0313 -1.1563,-0.0313 l -1.25,0 0,2 z m 8.7032,2.7344 1.5,0.25 q -0.2813,0.8281 -0.9063,1.2578 -0.625,0.4297 -1.5781,0.4297 -1.4844,0 -2.2032,-0.9687 -0.5624,-0.7813 -0.5624,-1.9688 0,-1.4219 0.7421,-2.2187 0.7422,-0.7969 1.8829,-0.7969 1.2656,0 2,0.8359 0.7343,0.836 0.7031,2.5703 l -3.7813,0 q 0.0156,0.6719 0.3672,1.0469 0.3516,0.375 0.8672,0.375 0.3594,0 0.6016,-0.1953 0.2422,-0.1953 0.3672,-0.6172 z m 0.0781,-1.5312 q -0.0157,-0.6563 -0.336,-0.9922 -0.3203,-0.336 -0.7734,-0.336 -0.5,0 -0.8281,0.3594 -0.3125,0.3594 -0.3125,0.9688 l 2.25,0 z m 6.2343,-2.3594 0,1.2031 -1.0312,0 0,2.2969 q 0,0.7031 0.0312,0.8203 0.0313,0.1172 0.1329,0.1875 0.1015,0.0703 0.2578,0.0703 0.2031,0 0.6093,-0.1406 l 0.125,1.1719 q -0.5312,0.2187 -1.1874,0.2187 -0.4219,0 -0.75,-0.1328 -0.3282,-0.1328 -0.4766,-0.3516 -0.1484,-0.2187 -0.211,-0.5937 -0.0468,-0.2656 -0.0468,-1.0625 l 0,-2.4844 -0.6875,0 0,-1.2031 0.6875,0 0,-1.1406 1.5156,-0.875 0,2.0156 1.0312,0 z m 1.0313,2.7656 q 0,-0.75 0.375,-1.4531 0.375,-0.7031 1.0547,-1.0703 0.6797,-0.3672 1.5078,-0.3672 1.2969,0 2.125,0.8359 0.8281,0.836 0.8281,2.1172 0,1.2969 -0.8359,2.1484 -0.836,0.8516 -2.1016,0.8516 -0.7812,0 -1.4922,-0.3516 -0.7109,-0.3515 -1.0859,-1.039 -0.375,-0.6875 -0.375,-1.6719 z m 1.5469,0.0781 q 0,0.8594 0.4062,1.3125 0.4063,0.4532 1,0.4532 0.5782,0 0.9844,-0.4532 0.4062,-0.4531 0.4062,-1.3125 0,-0.8437 -0.4062,-1.2968 -0.4062,-0.4532 -0.9844,-0.4532 -0.5937,0 -1,0.4532 -0.4062,0.4531 -0.4062,1.2968 z m 9.5625,2.8594 0,-0.8594 q -0.3125,0.4688 -0.8203,0.7266 -0.5078,0.2578 -1.0704,0.2578 -0.5781,0 -1.0312,-0.25 -0.4531,-0.25 -0.6641,-0.7109 -0.2109,-0.461 -0.2109,-1.2578 l 0,-3.6094 1.5156,0 0,2.625 q 0,1.2031 0.086,1.4687 0.0859,0.2657 0.3046,0.4297 0.2188,0.1641 0.5626,0.1641 0.375,0 0.6874,-0.211 0.3126,-0.2109 0.4219,-0.5312 0.1094,-0.3203 0.1094,-1.5391 l 0,-2.4062 1.5156,0 0,5.7031 -1.4062,0 z m 4.6875,0 -1.5156,0 0,-5.7031 1.4062,0 0,0.8125 q 0.3594,-0.5781 0.6484,-0.7578 0.2891,-0.1797 0.6485,-0.1797 0.5156,0 1,0.2812 l -0.4688,1.3125 q -0.375,-0.25 -0.7031,-0.25 -0.3281,0 -0.5469,0.1797 -0.2187,0.1797 -0.3437,0.6328 -0.125,0.4532 -0.125,1.9063 l 0,1.7656 z m 11.5312,-4.0156 -1.4844,0.2656 q -0.0781,-0.4375 -0.3437,-0.6641 -0.2656,-0.2265 -0.6875,-0.2265 -0.5625,0 -0.8984,0.3828 -0.336,0.3828 -0.336,1.3047 0,1.0156 0.336,1.4375 0.3359,0.4219 0.914,0.4219 0.4375,0 0.711,-0.25 0.2734,-0.25 0.3828,-0.8438 l 1.4844,0.25 q -0.2344,1.0313 -0.8907,1.5469 -0.6562,0.5156 -1.75,0.5156 -1.2656,0 -2.0078,-0.7891 -0.7422,-0.789 -0.7422,-2.1796 0,-1.4219 0.75,-2.2032 0.75,-0.7812 2.0157,-0.7812 1.0468,0 1.664,0.4453 0.6172,0.4453 0.8828,1.3672 z m 2.5313,-3.8594 0,2.8906 q 0.7343,-0.8437 1.75,-0.8437 0.5156,0 0.9297,0.1875 0.414,0.1875 0.6328,0.4922 0.2187,0.3047 0.2968,0.6718 0.0782,0.3672 0.0782,1.1329 l 0,3.3437 -1.5156,0 0,-3.0156 q 0,-0.8906 -0.086,-1.1328 -0.0859,-0.2422 -0.3047,-0.3828 -0.2187,-0.1407 -0.5469,-0.1407 -0.375,0 -0.6718,0.1797 -0.2969,0.1797 -0.4297,0.5469 -0.1328,0.3672 -0.1328,1.0859 l 0,2.8594 -1.5157,0 0,-7.875 1.5157,0 z m 6.625,3.9063 -1.375,-0.25 q 0.2343,-0.8125 0.7969,-1.211 0.5624,-0.3984 1.6718,-0.3984 1.0156,0 1.5078,0.2344 0.4922,0.2343 0.6954,0.6015 0.2031,0.3672 0.2031,1.3516 l -0.0157,1.7656 q 0,0.75 0.0704,1.1094 0.0703,0.3594 0.2734,0.7656 l -1.5,0 q -0.0625,-0.1562 -0.1406,-0.4531 -0.0313,-0.125 -0.0469,-0.1719 -0.3906,0.375 -0.8359,0.5625 -0.4454,0.1875 -0.9454,0.1875 -0.875,0 -1.3828,-0.4766 -0.5078,-0.4765 -0.5078,-1.2109 0,-0.4844 0.2344,-0.8594 0.2344,-0.375 0.6484,-0.5781 0.4141,-0.2031 1.1954,-0.3594 1.0624,-0.1875 1.4687,-0.3593 l 0,-0.1563 q 0,-0.4375 -0.2187,-0.6172 -0.2188,-0.1797 -0.8126,-0.1797 -0.3906,0 -0.6171,0.1563 -0.2266,0.1562 -0.3672,0.5469 z m 2.0156,1.2343 q -0.2969,0.0938 -0.9219,0.2266 -0.625,0.1328 -0.8125,0.2578 -0.2969,0.2188 -0.2969,0.5313 0,0.3281 0.2344,0.5546 0.2344,0.2266 0.5938,0.2266 0.4062,0 0.7812,-0.2656 0.2813,-0.2031 0.3594,-0.5 0.0625,-0.1875 0.0625,-0.7344 l 0,-0.2969 z m 4.2969,2.7344 -1.5156,0 0,-5.7031 1.4062,0 0,0.8125 q 0.3594,-0.5781 0.6484,-0.7578 0.2891,-0.1797 0.6485,-0.1797 0.5156,0 1,0.2812 l -0.4688,1.3125 q -0.375,-0.25 -0.7031,-0.25 -0.3281,0 -0.5469,0.1797 -0.2187,0.1797 -0.3437,0.6328 -0.125,0.4532 -0.125,1.9063 l 0,1.7656 z m 3.5625,-6.4844 0,-1.3906 1.5,0 0,1.3906 -1.5,0 z m 0,6.4844 0,-5.7031 1.5,0 0,5.7031 -1.5,0 z m 2.6406,-2.9375 q 0,-0.75 0.375,-1.4531 0.375,-0.7031 1.0547,-1.0703 0.6797,-0.3672 1.5078,-0.3672 1.2969,0 2.125,0.8359 0.8281,0.836 0.8281,2.1172 0,1.2969 -0.8359,2.1484 -0.836,0.8516 -2.1016,0.8516 -0.7812,0 -1.4922,-0.3516 -0.7109,-0.3515 -1.0859,-1.039 -0.375,-0.6875 -0.375,-1.6719 z m 1.5469,0.0781 q 0,0.8594 0.4062,1.3125 0.4063,0.4532 1,0.4532 0.5782,0 0.9844,-0.4532 0.4062,-0.4531 0.4062,-1.3125 0,-0.8437 -0.4062,-1.2968 -0.4062,-0.4532 -0.9844,-0.4532 -0.5937,0 -1,0.4532 -0.4062,0.4531 -0.4062,1.2968 z m 8.4218,-2.8437 0,1.2031 -1.0312,0 0,2.2969 q 0,0.7031 0.0312,0.8203 0.0313,0.1172 0.1329,0.1875 0.1015,0.0703 0.2578,0.0703 0.2031,0 0.6093,-0.1406 l 0.125,1.1719 q -0.5312,0.2187 -1.1874,0.2187 -0.4219,0 -0.75,-0.1328 -0.3282,-0.1328 -0.4766,-0.3516 -0.1484,-0.2187 -0.211,-0.5937 -0.0468,-0.2656 -0.0468,-1.0625 l 0,-2.4844 -0.6875,0 0,-1.2031 0.6875,0 0,-1.1406 1.5156,-0.875 0,2.0156 1.0312,0 z"
     clip-path="url(#clipPath1)"
     id="path3302"
     inkscape:connector-curvature="0"
     style="fill:#000000;stroke:none"
     transform="translate(-4.5,-4.5)" />
  <rect
     x="157"
     y="229"
     clip-path="url(#clipPath1)"
     width="105"
     rx="5"
     ry="5"
     height="49"
     id="rect3304"
     style="fill:#b2b2b2;stroke:none"
     transform="translate(-4.5,-4.5)" />
  <rect
     x="154"
     y="226"
     clip-path="url(#clipPath1)"
     width="105"
     rx="5"
     ry="5"
     height="49"
     id="rect3306"
     style="fill:url(#linearGradient3567);stroke:none"
     transform="translate(-4.5,-4.5)" />
  <rect
     x="154"
     y="226"
     clip-path="url(#clipPath1)"
     width="105"
     rx="5"
     ry="5"
     height="49"
     id="rect3308"
     style="fill:none;stroke:#99995c;stroke-linecap:butt;stroke-linejoin:round"
     transform="translate(-4.5,-4.5)" />
  <path
     d="m 171.7969,239.4978 0,-7.875 2.5625,0 q 1.4375,0 1.8906,0.125 0.6719,0.1719 1.125,0.7656 0.4531,0.5938 0.4531,1.5313 0,0.7187 -0.2578,1.2187 -0.2578,0.5 -0.6641,0.7813 -0.4062,0.2812 -0.8281,0.375 -0.5781,0.1094 -1.6562,0.1094 l -1.0313,0 0,2.9687 -1.5937,0 z m 1.5937,-6.5469 0,2.2344 0.875,0 q 0.9375,0 1.25,-0.125 0.3125,-0.125 0.4922,-0.3828 0.1797,-0.2578 0.1797,-0.6172 0,-0.4219 -0.25,-0.7031 -0.25,-0.2813 -0.6406,-0.3438 -0.2813,-0.0625 -1.1407,-0.0625 l -0.7656,0 z m 6.5313,2.5782 -1.375,-0.25 q 0.2343,-0.8125 0.7969,-1.211 0.5624,-0.3984 1.6718,-0.3984 1.0156,0 1.5078,0.2344 0.4922,0.2343 0.6954,0.6015 0.2031,0.3672 0.2031,1.3516 l -0.0157,1.7656 q 0,0.75 0.0704,1.1094 0.0703,0.3594 0.2734,0.7656 l -1.5,0 q -0.0625,-0.1562 -0.1406,-0.4531 -0.0313,-0.125 -0.0469,-0.1719 -0.3906,0.375 -0.8359,0.5625 -0.4454,0.1875 -0.9454,0.1875 -0.875,0 -1.3828,-0.4766 -0.5078,-0.4765 -0.5078,-1.2109 0,-0.4844 0.2344,-0.8594 0.2344,-0.375 0.6484,-0.5781 0.4141,-0.2031 1.1954,-0.3594 1.0624,-0.1875 1.4687,-0.3593 l 0,-0.1563 q 0,-0.4375 -0.2187,-0.6172 -0.2188,-0.1797 -0.8126,-0.1797 -0.3906,0 -0.6171,0.1563 -0.2266,0.1562 -0.3672,0.5469 z m 2.0156,1.2343 q -0.2969,0.0938 -0.9219,0.2266 -0.625,0.1328 -0.8125,0.2578 -0.2969,0.2188 -0.2969,0.5313 0,0.3281 0.2344,0.5546 0.2344,0.2266 0.5938,0.2266 0.4062,0 0.7812,-0.2656 0.2813,-0.2031 0.3594,-0.5 0.0625,-0.1875 0.0625,-0.7344 l 0,-0.2969 z m 4.2969,2.7344 -1.5156,0 0,-5.7031 1.4062,0 0,0.8125 q 0.3594,-0.5781 0.6484,-0.7578 0.2891,-0.1797 0.6485,-0.1797 0.5156,0 1,0.2812 l -0.4688,1.3125 q -0.375,-0.25 -0.7031,-0.25 -0.3281,0 -0.5469,0.1797 -0.2187,0.1797 -0.3437,0.6328 -0.125,0.4532 -0.125,1.9063 l 0,1.7656 z m 4.6875,-3.9687 -1.375,-0.25 q 0.2343,-0.8125 0.7969,-1.211 0.5624,-0.3984 1.6718,-0.3984 1.0156,0 1.5078,0.2344 0.4922,0.2343 0.6954,0.6015 0.2031,0.3672 0.2031,1.3516 l -0.0157,1.7656 q 0,0.75 0.0704,1.1094 0.0703,0.3594 0.2734,0.7656 l -1.5,0 q -0.0625,-0.1562 -0.1406,-0.4531 -0.0313,-0.125 -0.0469,-0.1719 -0.3906,0.375 -0.8359,0.5625 -0.4454,0.1875 -0.9454,0.1875 -0.875,0 -1.3828,-0.4766 -0.5078,-0.4765 -0.5078,-1.2109 0,-0.4844 0.2344,-0.8594 0.2344,-0.375 0.6484,-0.5781 0.4141,-0.2031 1.1954,-0.3594 1.0624,-0.1875 1.4687,-0.3593 l 0,-0.1563 q 0,-0.4375 -0.2187,-0.6172 -0.2188,-0.1797 -0.8126,-0.1797 -0.3906,0 -0.6171,0.1563 -0.2266,0.1562 -0.3672,0.5469 z m 2.0156,1.2343 q -0.2969,0.0938 -0.9219,0.2266 -0.625,0.1328 -0.8125,0.2578 -0.2969,0.2188 -0.2969,0.5313 0,0.3281 0.2344,0.5546 0.2344,0.2266 0.5938,0.2266 0.4062,0 0.7812,-0.2656 0.2813,-0.2031 0.3594,-0.5 0.0625,-0.1875 0.0625,-0.7344 l 0,-0.2969 z m 2.7344,-2.9687 1.3906,0 0,0.7812 q 0.75,-0.9062 1.7813,-0.9062 0.5468,0 0.9531,0.2265 0.4062,0.2266 0.6562,0.6797 0.375,-0.4531 0.8125,-0.6797 0.4375,-0.2265 0.9375,-0.2265 0.625,0 1.0625,0.25 0.4375,0.25 0.6406,0.75 0.1563,0.3594 0.1563,1.1875 l 0,3.6406 -1.5,0 0,-3.2656 q 0,-0.8438 -0.1563,-1.0938 -0.2187,-0.3125 -0.6562,-0.3125 -0.3125,0 -0.5938,0.1875 -0.2812,0.1875 -0.3984,0.5625 -0.1172,0.375 -0.1172,1.1875 l 0,2.7344 -1.5156,0 0,-3.125 q 0,-0.8281 -0.0781,-1.0703 -0.0781,-0.2422 -0.25,-0.3594 -0.1719,-0.1172 -0.4688,-0.1172 -0.3437,0 -0.625,0.1875 -0.2812,0.1875 -0.3984,0.5391 -0.1172,0.3516 -0.1172,1.1797 l 0,2.7656 -1.5156,0 0,-5.7031 z m 14.4219,3.8906 1.5,0.25 q -0.2813,0.8281 -0.9063,1.2578 -0.625,0.4297 -1.5781,0.4297 -1.4844,0 -2.2032,-0.9687 -0.5624,-0.7813 -0.5624,-1.9688 0,-1.4219 0.7421,-2.2187 0.7422,-0.7969 1.8829,-0.7969 1.2656,0 2,0.8359 0.7343,0.836 0.7031,2.5703 l -3.7813,0 q 0.0156,0.6719 0.3672,1.0469 0.3516,0.375 0.8672,0.375 0.3594,0 0.6016,-0.1953 0.2422,-0.1953 0.3672,-0.6172 z m 0.0781,-1.5312 q -0.0157,-0.6563 -0.336,-0.9922 -0.3203,-0.336 -0.7734,-0.336 -0.5,0 -0.8281,0.3594 -0.3125,0.3594 -0.3125,0.9688 l 2.25,0 z m -2.125,-3.6563 0.75,-1.6094 1.6875,0 -1.4844,1.6094 -0.9531,0 z m 8.3593,1.2969 0,1.2031 -1.0312,0 0,2.2969 q 0,0.7031 0.0312,0.8203 0.0313,0.1172 0.1329,0.1875 0.1015,0.0703 0.2578,0.0703 0.2031,0 0.6093,-0.1406 l 0.125,1.1719 q -0.5312,0.2187 -1.1874,0.2187 -0.4219,0 -0.75,-0.1328 -0.3282,-0.1328 -0.4766,-0.3516 -0.1484,-0.2187 -0.211,-0.5937 -0.0468,-0.2656 -0.0468,-1.0625 l 0,-2.4844 -0.6875,0 0,-1.2031 0.6875,0 0,-1.1406 1.5156,-0.875 0,2.0156 1.0312,0 z m 2.8282,5.7031 -1.5156,0 0,-5.7031 1.4062,0 0,0.8125 q 0.3594,-0.5781 0.6484,-0.7578 0.2891,-0.1797 0.6485,-0.1797 0.5156,0 1,0.2812 l -0.4688,1.3125 q -0.375,-0.25 -0.7031,-0.25 -0.3281,0 -0.5469,0.1797 -0.2187,0.1797 -0.3437,0.6328 -0.125,0.4532 -0.125,1.9063 l 0,1.7656 z m 4.6875,-3.9687 -1.375,-0.25 q 0.2343,-0.8125 0.7969,-1.211 0.5624,-0.3984 1.6718,-0.3984 1.0156,0 1.5078,0.2344 0.4922,0.2343 0.6954,0.6015 0.2031,0.3672 0.2031,1.3516 l -0.0157,1.7656 q 0,0.75 0.0704,1.1094 0.0703,0.3594 0.2734,0.7656 l -1.5,0 q -0.0625,-0.1562 -0.1406,-0.4531 -0.0313,-0.125 -0.0469,-0.1719 -0.3906,0.375 -0.8359,0.5625 -0.4454,0.1875 -0.9454,0.1875 -0.875,0 -1.3828,-0.4766 -0.5078,-0.4765 -0.5078,-1.2109 0,-0.4844 0.2344,-0.8594 0.2344,-0.375 0.6484,-0.5781 0.4141,-0.2031 1.1954,-0.3594 1.0624,-0.1875 1.4687,-0.3593 l 0,-0.1563 q 0,-0.4375 -0.2187,-0.6172 -0.2188,-0.1797 -0.8126,-0.1797 -0.3906,0 -0.6171,0.1563 -0.2266,0.1562 -0.3672,0.5469 z m 2.0156,1.2343 q -0.2969,0.0938 -0.9219,0.2266 -0.625,0.1328 -0.8125,0.2578 -0.2969,0.2188 -0.2969,0.5313 0,0.3281 0.2344,0.5546 0.2344,0.2266 0.5938,0.2266 0.4062,0 0.7812,-0.2656 0.2813,-0.2031 0.3594,-0.5 0.0625,-0.1875 0.0625,-0.7344 l 0,-0.2969 z m 2.7187,3.1094 1.7188,0.2031 q 0.0469,0.3125 0.2031,0.4219 0.2031,0.1563 0.6719,0.1563 0.5938,0 0.8906,-0.1719 0.1875,-0.125 0.2969,-0.375 0.0625,-0.2031 0.0625,-0.7031 l 0,-0.8282 q -0.6719,0.9219 -1.7031,0.9219 -1.1407,0 -1.8125,-0.9687 -0.5313,-0.7657 -0.5313,-1.9219 0,-1.4219 0.6875,-2.1797 0.6875,-0.7578 1.7188,-0.7578 1.0625,0 1.75,0.9219 l 0,-0.7969 1.4062,0 0,5.125 q 0,1 -0.164,1.5 -0.1641,0.5 -0.4688,0.789 -0.3047,0.2891 -0.8047,0.4454 -0.5,0.1562 -1.2656,0.1562 -1.4531,0 -2.0625,-0.4922 -0.6094,-0.4922 -0.6094,-1.2578 0,-0.0781 0.0156,-0.1875 z M 230,236.5291 q 0,0.9062 0.3516,1.3281 0.3515,0.4219 0.8672,0.4219 0.5468,0 0.9296,-0.4297 0.3828,-0.4297 0.3828,-1.2891 0,-0.875 -0.3671,-1.3047 -0.3672,-0.4297 -0.9141,-0.4297 -0.5469,0 -0.8984,0.4219 Q 230,235.6697 230,236.5291 z m 9.0938,1.1562 1.5,0.25 q -0.2813,0.8281 -0.9063,1.2578 -0.625,0.4297 -1.5781,0.4297 -1.4844,0 -2.2032,-0.9687 -0.5624,-0.7813 -0.5624,-1.9688 0,-1.4219 0.7421,-2.2187 0.7422,-0.7969 1.8829,-0.7969 1.2656,0 2,0.8359 0.7343,0.836 0.7031,2.5703 l -3.7813,0 q 0.0156,0.6719 0.3672,1.0469 0.3516,0.375 0.8672,0.375 0.3594,0 0.6016,-0.1953 0.2422,-0.1953 0.3672,-0.6172 z m 0.0781,-1.5312 q -0.0157,-0.6563 -0.336,-0.9922 -0.3203,-0.336 -0.7734,-0.336 -0.5,0 -0.8281,0.3594 -0.3125,0.3594 -0.3125,0.9688 l 2.25,0 z"
     clip-path="url(#clipPath1)"
     id="path3310"
     inkscape:connector-curvature="0"
     style="fill:#000000;stroke:none"
     transform="translate(-4.5,-4.5)" />
  <rect
     x="430"
     y="229"
     clip-path="url(#clipPath1)"
     width="105"
     rx="5"
     ry="5"
     height="42"
     id="rect3312"
     style="fill:#b2b2b2;stroke:none"
     transform="translate(-4.5,-4.5)" />
  <rect
     x="427"
     y="226"
     clip-path="url(#clipPath1)"
     width="105"
     rx="5"
     ry="5"
     height="42"
     id="rect3314"
     style="fill:url(#linearGradient3569);stroke:none"
     transform="translate(-4.5,-4.5)" />
  <rect
     x="427"
     y="226"
     clip-path="url(#clipPath1)"
     width="105"
     rx="5"
     ry="5"
     height="42"
     id="rect3316"
     style="fill:none;stroke:#99995c;stroke-linecap:butt;stroke-linejoin:round"
     transform="translate(-4.5,-4.5)" />
  <path
     d="m 440.9062,239.4978 -1.7343,0 -0.6875,-1.7812 -3.1406,0 -0.6563,1.7812 -1.6875,0 3.0625,-7.875 1.6875,0 3.1562,7.875 z m -2.9374,-3.1094 -1.0782,-2.9218 -1.0625,2.9218 2.1407,0 z m 3.2968,1.4844 1.5,-0.2344 q 0.1094,0.4375 0.3985,0.6641 0.289,0.2266 0.8203,0.2266 0.5937,0 0.8906,-0.2032 0.2031,-0.1562 0.2031,-0.4062 0,-0.1719 -0.1093,-0.2813 -0.125,-0.1093 -0.5157,-0.2031 -1.8125,-0.4062 -2.3125,-0.7344 -0.6718,-0.4687 -0.6718,-1.2812 0,-0.75 0.5859,-1.25 0.5859,-0.5 1.8203,-0.5 1.1719,0 1.7344,0.375 0.5625,0.375 0.7812,1.125 l -1.4218,0.2656 q -0.0938,-0.3281 -0.3438,-0.5078 -0.25,-0.1797 -0.7344,-0.1797 -0.5937,0 -0.8437,0.1719 -0.1719,0.1094 -0.1719,0.2969 0,0.1718 0.1406,0.2812 0.2032,0.1563 1.4141,0.4297 1.2109,0.2734 1.6797,0.6641 0.4844,0.4062 0.4844,1.125 0,0.7812 -0.6563,1.3437 -0.6563,0.5625 -1.9531,0.5625 -1.1563,0 -1.836,-0.4687 -0.6796,-0.4688 -0.8828,-1.2813 z m 7,0 1.5,-0.2344 q 0.1094,0.4375 0.3985,0.6641 0.289,0.2266 0.8203,0.2266 0.5937,0 0.8906,-0.2032 0.2031,-0.1562 0.2031,-0.4062 0,-0.1719 -0.1093,-0.2813 -0.125,-0.1093 -0.5157,-0.2031 -1.8125,-0.4062 -2.3125,-0.7344 -0.6718,-0.4687 -0.6718,-1.2812 0,-0.75 0.5859,-1.25 0.5859,-0.5 1.8203,-0.5 1.1719,0 1.7344,0.375 0.5625,0.375 0.7812,1.125 l -1.4218,0.2656 q -0.0938,-0.3281 -0.3438,-0.5078 -0.25,-0.1797 -0.7344,-0.1797 -0.5937,0 -0.8437,0.1719 -0.1719,0.1094 -0.1719,0.2969 0,0.1718 0.1406,0.2812 0.2032,0.1563 1.4141,0.4297 1.2109,0.2734 1.6797,0.6641 0.4844,0.4062 0.4844,1.125 0,0.7812 -0.6563,1.3437 -0.6563,0.5625 -1.9531,0.5625 -1.1563,0 -1.836,-0.4687 -0.6796,-0.4688 -0.8828,-1.2813 z m 10.8282,-0.1875 1.5,0.25 q -0.2813,0.8281 -0.9063,1.2578 -0.625,0.4297 -1.5781,0.4297 -1.4844,0 -2.2032,-0.9687 -0.5624,-0.7813 -0.5624,-1.9688 0,-1.4219 0.7421,-2.2187 0.7422,-0.7969 1.8829,-0.7969 1.2656,0 2,0.8359 0.7343,0.836 0.7031,2.5703 l -3.7813,0 q 0.0156,0.6719 0.3672,1.0469 0.3516,0.375 0.8672,0.375 0.3594,0 0.6016,-0.1953 0.2422,-0.1953 0.3672,-0.6172 z m 0.0781,-1.5312 q -0.0157,-0.6563 -0.336,-0.9922 -0.3203,-0.336 -0.7734,-0.336 -0.5,0 -0.8281,0.3594 -0.3125,0.3594 -0.3125,0.9688 l 2.25,0 z m 5.0625,3.3437 -1.5156,0 0,-5.7031 1.4062,0 0,0.8125 q 0.3594,-0.5781 0.6484,-0.7578 0.2891,-0.1797 0.6485,-0.1797 0.5156,0 1,0.2812 l -0.4688,1.3125 q -0.375,-0.25 -0.7031,-0.25 -0.3281,0 -0.5469,0.1797 -0.2187,0.1797 -0.3437,0.6328 -0.125,0.4532 -0.125,1.9063 l 0,1.7656 z m 5.125,0 -2.2969,-5.7031 1.5781,0 1.0782,2.9062 0.3124,0.9688 q 0.125,-0.3594 0.1563,-0.4844 0.0781,-0.2344 0.1563,-0.4844 l 1.0937,-2.9062 1.5469,0 -2.2656,5.7031 -1.3594,0 z m 4.4375,-6.4844 0,-1.3906 1.5,0 0,1.3906 -1.5,0 z m 0,6.4844 0,-5.7031 1.5,0 0,5.7031 -1.5,0 z m 2.4687,-1.625 1.5,-0.2344 q 0.1094,0.4375 0.3985,0.6641 0.289,0.2266 0.8203,0.2266 0.5937,0 0.8906,-0.2032 0.2031,-0.1562 0.2031,-0.4062 0,-0.1719 -0.1093,-0.2813 -0.125,-0.1093 -0.5157,-0.2031 -1.8125,-0.4062 -2.3125,-0.7344 -0.6718,-0.4687 -0.6718,-1.2812 0,-0.75 0.5859,-1.25 0.5859,-0.5 1.8203,-0.5 1.1719,0 1.7344,0.375 0.5625,0.375 0.7812,1.125 l -1.4218,0.2656 q -0.0938,-0.3281 -0.3438,-0.5078 -0.25,-0.1797 -0.7344,-0.1797 -0.5937,0 -0.8437,0.1719 -0.1719,0.1094 -0.1719,0.2969 0,0.1718 0.1406,0.2812 0.2032,0.1563 1.4141,0.4297 1.2109,0.2734 1.6797,0.6641 0.4844,0.4062 0.4844,1.125 0,0.7812 -0.6563,1.3437 -0.6563,0.5625 -1.9531,0.5625 -1.1563,0 -1.836,-0.4687 -0.6796,-0.4688 -0.8828,-1.2813 z m 7,0 1.5,-0.2344 q 0.1094,0.4375 0.3985,0.6641 0.289,0.2266 0.8203,0.2266 0.5937,0 0.8906,-0.2032 0.2031,-0.1562 0.2031,-0.4062 0,-0.1719 -0.1093,-0.2813 -0.125,-0.1093 -0.5157,-0.2031 -1.8125,-0.4062 -2.3125,-0.7344 -0.6718,-0.4687 -0.6718,-1.2812 0,-0.75 0.5859,-1.25 0.5859,-0.5 1.8203,-0.5 1.1719,0 1.7344,0.375 0.5625,0.375 0.7812,1.125 l -1.4218,0.2656 q -0.0938,-0.3281 -0.3438,-0.5078 -0.25,-0.1797 -0.7344,-0.1797 -0.5937,0 -0.8437,0.1719 -0.1719,0.1094 -0.1719,0.2969 0,0.1718 0.1406,0.2812 0.2032,0.1563 1.4141,0.4297 1.2109,0.2734 1.6797,0.6641 0.4844,0.4062 0.4844,1.125 0,0.7812 -0.6563,1.3437 -0.6563,0.5625 -1.9531,0.5625 -1.1563,0 -1.836,-0.4687 -0.6796,-0.4688 -0.8828,-1.2813 z m 10.8282,-0.1875 1.5,0.25 q -0.2813,0.8281 -0.9063,1.2578 -0.625,0.4297 -1.5781,0.4297 -1.4844,0 -2.2032,-0.9687 -0.5624,-0.7813 -0.5624,-1.9688 0,-1.4219 0.7421,-2.2187 0.7422,-0.7969 1.8829,-0.7969 1.2656,0 2,0.8359 0.7343,0.836 0.7031,2.5703 l -3.7813,0 q 0.0156,0.6719 0.3672,1.0469 0.3516,0.375 0.8672,0.375 0.3594,0 0.6016,-0.1953 0.2422,-0.1953 0.3672,-0.6172 z m 0.0781,-1.5312 q -0.0157,-0.6563 -0.336,-0.9922 -0.3203,-0.336 -0.7734,-0.336 -0.5,0 -0.8281,0.3594 -0.3125,0.3594 -0.3125,0.9688 l 2.25,0 z m 3.5,-2.3594 1.3906,0 0,0.7812 q 0.75,-0.9062 1.7813,-0.9062 0.5468,0 0.9531,0.2265 0.4062,0.2266 0.6562,0.6797 0.375,-0.4531 0.8125,-0.6797 0.4375,-0.2265 0.9375,-0.2265 0.625,0 1.0625,0.25 0.4375,0.25 0.6406,0.75 0.1563,0.3594 0.1563,1.1875 l 0,3.6406 -1.5,0 0,-3.2656 q 0,-0.8438 -0.1563,-1.0938 -0.2187,-0.3125 -0.6562,-0.3125 -0.3125,0 -0.5938,0.1875 -0.2812,0.1875 -0.3984,0.5625 -0.1172,0.375 -0.1172,1.1875 l 0,2.7344 -1.5156,0 0,-3.125 q 0,-0.8281 -0.0781,-1.0703 -0.0781,-0.2422 -0.25,-0.3594 -0.1719,-0.1172 -0.4688,-0.1172 -0.3437,0 -0.625,0.1875 -0.2812,0.1875 -0.3984,0.5391 -0.1172,0.3516 -0.1172,1.1797 l 0,2.7656 -1.5156,0 0,-5.7031 z m 14.4219,3.8906 1.5,0.25 q -0.2813,0.8281 -0.9063,1.2578 -0.625,0.4297 -1.5781,0.4297 -1.4844,0 -2.2032,-0.9687 -0.5624,-0.7813 -0.5624,-1.9688 0,-1.4219 0.7421,-2.2187 0.7422,-0.7969 1.8829,-0.7969 1.2656,0 2,0.8359 0.7343,0.836 0.7031,2.5703 l -3.7813,0 q 0.0156,0.6719 0.3672,1.0469 0.3516,0.375 0.8672,0.375 0.3594,0 0.6016,-0.1953 0.2422,-0.1953 0.3672,-0.6172 z m 0.0781,-1.5312 q -0.0157,-0.6563 -0.336,-0.9922 -0.3203,-0.336 -0.7734,-0.336 -0.5,0 -0.8281,0.3594 -0.3125,0.3594 -0.3125,0.9688 l 2.25,0 z m 8.8125,3.3437 -1.5156,0 0,-2.9062 q 0,-0.9219 -0.0938,-1.1954 -0.0938,-0.2734 -0.3125,-0.4218 -0.2187,-0.1485 -0.5313,-0.1485 -0.3906,0 -0.7031,0.211 -0.3125,0.2109 -0.4297,0.5625 -0.1172,0.3515 -0.1172,1.3203 l 0,2.5781 -1.5,0 0,-5.7031 1.4063,0 0,0.8437 q 0.7344,-0.9687 1.875,-0.9687 0.5,0 0.9141,0.1797 0.414,0.1797 0.625,0.4531 0.2109,0.2734 0.2968,0.6328 0.086,0.3594 0.086,1.0156 l 0,3.5469 z m 4.4218,-5.7031 0,1.2031 -1.0312,0 0,2.2969 q 0,0.7031 0.0312,0.8203 0.0313,0.1172 0.1329,0.1875 0.1015,0.0703 0.2578,0.0703 0.2031,0 0.6093,-0.1406 l 0.125,1.1719 q -0.5312,0.2187 -1.1874,0.2187 -0.4219,0 -0.75,-0.1328 -0.3282,-0.1328 -0.4766,-0.3516 -0.1484,-0.2187 -0.211,-0.5937 -0.0468,-0.2656 -0.0468,-1.0625 l 0,-2.4844 -0.6875,0 0,-1.2031 0.6875,0 0,-1.1406 1.5156,-0.875 0,2.0156 1.0312,0 z"
     clip-path="url(#clipPath1)"
     id="path3318"
     inkscape:connector-curvature="0"
     style="fill:#000000;stroke:none"
     transform="translate(-4.5,-4.5)" />
  <circle
     r="9"
     clip-path="url(#clipPath1)"
     cx="107"
     cy="319"
     id="circle3320"
     sodipodi:cx="107"
     sodipodi:cy="319"
     sodipodi:rx="9"
     sodipodi:ry="9"
     style="fill:#424242;stroke:none"
     transform="translate(-4.5,-4.5)" />
  <circle
     r="9"
     clip-path="url(#clipPath1)"
     cx="107"
     cy="319"
     id="circle3322"
     sodipodi:cx="107"
     sodipodi:cy="319"
     sodipodi:rx="9"
     sodipodi:ry="9"
     style="fill:none;stroke:#424242;stroke-linecap:butt;stroke-linejoin:round"
     transform="translate(-4.5,-4.5)" />
  <path
     d="m 238.8125,197.4978 0,-7.875 5.3906,0 0,1.3281 -3.7969,0 0,1.875 3.2813,0 0,1.3282 -3.2813,0 0,3.3437 -1.5937,0 z m 5.625,-2.9375 q 0,-0.75 0.375,-1.4531 0.375,-0.7031 1.0547,-1.0703 0.6797,-0.3672 1.5078,-0.3672 1.2969,0 2.125,0.8359 0.8281,0.836 0.8281,2.1172 0,1.2969 -0.8359,2.1484 -0.836,0.8516 -2.1016,0.8516 -0.7812,0 -1.4922,-0.3516 -0.7109,-0.3515 -1.0859,-1.039 -0.375,-0.6875 -0.375,-1.6719 z m 1.5469,0.0781 q 0,0.8594 0.4062,1.3125 0.4063,0.4532 1,0.4532 0.5782,0 0.9844,-0.4532 0.4062,-0.4531 0.4062,-1.3125 0,-0.8437 -0.4062,-1.2968 -0.4062,-0.4532 -0.9844,-0.4532 -0.5937,0 -1,0.4532 -0.4062,0.4531 -0.4062,1.2968 z m 11,2.8594 -1.5156,0 0,-2.9062 q 0,-0.9219 -0.0938,-1.1954 -0.0938,-0.2734 -0.3125,-0.4218 -0.2187,-0.1485 -0.5313,-0.1485 -0.3906,0 -0.7031,0.211 -0.3125,0.2109 -0.4297,0.5625 -0.1172,0.3515 -0.1172,1.3203 l 0,2.5781 -1.5,0 0,-5.7031 1.4063,0 0,0.8437 q 0.7344,-0.9687 1.875,-0.9687 0.5,0 0.9141,0.1797 0.414,0.1797 0.625,0.4531 0.2109,0.2734 0.2968,0.6328 0.086,0.3594 0.086,1.0156 l 0,3.5469 z m 6.7812,-4.0156 -1.4844,0.2656 q -0.0781,-0.4375 -0.3437,-0.6641 -0.2656,-0.2265 -0.6875,-0.2265 -0.5625,0 -0.8984,0.3828 -0.336,0.3828 -0.336,1.3047 0,1.0156 0.336,1.4375 0.3359,0.4219 0.914,0.4219 0.4375,0 0.711,-0.25 0.2734,-0.25 0.3828,-0.8438 l 1.4844,0.25 q -0.2344,1.0313 -0.8907,1.5469 -0.6562,0.5156 -1.75,0.5156 -1.2656,0 -2.0078,-0.7891 -0.7422,-0.789 -0.7422,-2.1796 0,-1.4219 0.75,-2.2032 0.75,-0.7812 2.0157,-0.7812 1.0468,0 1.664,0.4453 0.6172,0.4453 0.8828,1.3672 z m 3.6406,-1.6875 0,1.2031 -1.0312,0 0,2.2969 q 0,0.7031 0.0312,0.8203 0.0313,0.1172 0.1329,0.1875 0.1015,0.0703 0.2578,0.0703 0.2031,0 0.6093,-0.1406 l 0.125,1.1719 q -0.5312,0.2187 -1.1874,0.2187 -0.4219,0 -0.75,-0.1328 -0.3282,-0.1328 -0.4766,-0.3516 -0.1484,-0.2187 -0.211,-0.5937 -0.0468,-0.2656 -0.0468,-1.0625 l 0,-2.4844 -0.6875,0 0,-1.2031 0.6875,0 0,-1.1406 1.5156,-0.875 0,2.0156 1.0312,0 z m 1.3907,-0.7813 0,-1.3906 1.5,0 0,1.3906 -1.5,0 z m 0,6.4844 0,-5.7031 1.5,0 0,5.7031 -1.5,0 z m 2.6406,-2.9375 q 0,-0.75 0.375,-1.4531 0.375,-0.7031 1.0547,-1.0703 0.6797,-0.3672 1.5078,-0.3672 1.2969,0 2.125,0.8359 0.8281,0.836 0.8281,2.1172 0,1.2969 -0.8359,2.1484 -0.836,0.8516 -2.1016,0.8516 -0.7812,0 -1.4922,-0.3516 -0.7109,-0.3515 -1.0859,-1.039 -0.375,-0.6875 -0.375,-1.6719 z m 1.5469,0.0781 q 0,0.8594 0.4062,1.3125 0.4063,0.4532 1,0.4532 0.5782,0 0.9844,-0.4532 0.4062,-0.4531 0.4062,-1.3125 0,-0.8437 -0.4062,-1.2968 -0.4062,-0.4532 -0.9844,-0.4532 -0.5937,0 -1,0.4532 -0.4062,0.4531 -0.4062,1.2968 z m 11,2.8594 -1.5156,0 0,-2.9062 q 0,-0.9219 -0.0938,-1.1954 -0.0938,-0.2734 -0.3125,-0.4218 -0.2187,-0.1485 -0.5313,-0.1485 -0.3906,0 -0.7031,0.211 -0.3125,0.2109 -0.4297,0.5625 -0.1172,0.3515 -0.1172,1.3203 l 0,2.5781 -1.5,0 0,-5.7031 1.4063,0 0,0.8437 q 0.7344,-0.9687 1.875,-0.9687 0.5,0 0.9141,0.1797 0.414,0.1797 0.625,0.4531 0.2109,0.2734 0.2968,0.6328 0.086,0.3594 0.086,1.0156 l 0,3.5469 z m 7,0 -1.5156,0 0,-2.9062 q 0,-0.9219 -0.0938,-1.1954 -0.0938,-0.2734 -0.3125,-0.4218 -0.2187,-0.1485 -0.5313,-0.1485 -0.3906,0 -0.7031,0.211 -0.3125,0.2109 -0.4297,0.5625 -0.1172,0.3515 -0.1172,1.3203 l 0,2.5781 -1.5,0 0,-5.7031 1.4063,0 0,0.8437 q 0.7344,-0.9687 1.875,-0.9687 0.5,0 0.9141,0.1797 0.414,0.1797 0.625,0.4531 0.2109,0.2734 0.2968,0.6328 0.086,0.3594 0.086,1.0156 l 0,3.5469 z m 5.1094,-1.8125 1.5,0.25 q -0.2813,0.8281 -0.9063,1.2578 -0.625,0.4297 -1.5781,0.4297 -1.4844,0 -2.2032,-0.9687 -0.5624,-0.7813 -0.5624,-1.9688 0,-1.4219 0.7421,-2.2187 0.7422,-0.7969 1.8829,-0.7969 1.2656,0 2,0.8359 0.7343,0.836 0.7031,2.5703 l -3.7813,0 q 0.0156,0.6719 0.3672,1.0469 0.3516,0.375 0.8672,0.375 0.3594,0 0.6016,-0.1953 0.2422,-0.1953 0.3672,-0.6172 z m 0.0781,-1.5312 q -0.0157,-0.6563 -0.336,-0.9922 -0.3203,-0.336 -0.7734,-0.336 -0.5,0 -0.8281,0.3594 -0.3125,0.3594 -0.3125,0.9688 l 2.25,0 z m 3.5,-2.3594 1.3906,0 0,0.7812 q 0.75,-0.9062 1.7813,-0.9062 0.5468,0 0.9531,0.2265 0.4062,0.2266 0.6562,0.6797 0.375,-0.4531 0.8125,-0.6797 0.4375,-0.2265 0.9375,-0.2265 0.625,0 1.0625,0.25 0.4375,0.25 0.6406,0.75 0.1563,0.3594 0.1563,1.1875 l 0,3.6406 -1.5,0 0,-3.2656 q 0,-0.8438 -0.1563,-1.0938 -0.2187,-0.3125 -0.6562,-0.3125 -0.3125,0 -0.5938,0.1875 -0.2812,0.1875 -0.3984,0.5625 -0.1172,0.375 -0.1172,1.1875 l 0,2.7344 -1.5156,0 0,-3.125 q 0,-0.8281 -0.0781,-1.0703 -0.0781,-0.2422 -0.25,-0.3594 -0.1719,-0.1172 -0.4688,-0.1172 -0.3437,0 -0.625,0.1875 -0.2812,0.1875 -0.3984,0.5391 -0.1172,0.3516 -0.1172,1.1797 l 0,2.7656 -1.5156,0 0,-5.7031 z m 14.4219,3.8906 1.5,0.25 q -0.2813,0.8281 -0.9063,1.2578 -0.625,0.4297 -1.5781,0.4297 -1.4844,0 -2.2032,-0.9687 -0.5624,-0.7813 -0.5624,-1.9688 0,-1.4219 0.7421,-2.2187 0.7422,-0.7969 1.8829,-0.7969 1.2656,0 2,0.8359 0.7343,0.836 0.7031,2.5703 l -3.7813,0 q 0.0156,0.6719 0.3672,1.0469 0.3516,0.375 0.8672,0.375 0.3594,0 0.6016,-0.1953 0.2422,-0.1953 0.3672,-0.6172 z m 0.0781,-1.5312 q -0.0157,-0.6563 -0.336,-0.9922 -0.3203,-0.336 -0.7734,-0.336 -0.5,0 -0.8281,0.3594 -0.3125,0.3594 -0.3125,0.9688 l 2.25,0 z m 8.8125,3.3437 -1.5156,0 0,-2.9062 q 0,-0.9219 -0.0938,-1.1954 -0.0938,-0.2734 -0.3125,-0.4218 -0.2187,-0.1485 -0.5313,-0.1485 -0.3906,0 -0.7031,0.211 -0.3125,0.2109 -0.4297,0.5625 -0.1172,0.3515 -0.1172,1.3203 l 0,2.5781 -1.5,0 0,-5.7031 1.4063,0 0,0.8437 q 0.7344,-0.9687 1.875,-0.9687 0.5,0 0.9141,0.1797 0.414,0.1797 0.625,0.4531 0.2109,0.2734 0.2968,0.6328 0.086,0.3594 0.086,1.0156 l 0,3.5469 z m 4.4218,-5.7031 0,1.2031 -1.0312,0 0,2.2969 q 0,0.7031 0.0312,0.8203 0.0313,0.1172 0.1329,0.1875 0.1015,0.0703 0.2578,0.0703 0.2031,0 0.6093,-0.1406 l 0.125,1.1719 q -0.5312,0.2187 -1.1874,0.2187 -0.4219,0 -0.75,-0.1328 -0.3282,-0.1328 -0.4766,-0.3516 -0.1484,-0.2187 -0.211,-0.5937 -0.0468,-0.2656 -0.0468,-1.0625 l 0,-2.4844 -0.6875,0 0,-1.2031 0.6875,0 0,-1.1406 1.5156,-0.875 0,2.0156 1.0312,0 z m 9.5782,5.7031 -1.5156,0 0,-2.9062 q 0,-0.9219 -0.0938,-1.1954 -0.0938,-0.2734 -0.3125,-0.4218 -0.2187,-0.1485 -0.5313,-0.1485 -0.3906,0 -0.7031,0.211 -0.3125,0.2109 -0.4297,0.5625 -0.1172,0.3515 -0.1172,1.3203 l 0,2.5781 -1.5,0 0,-5.7031 1.4063,0 0,0.8437 q 0.7344,-0.9687 1.875,-0.9687 0.5,0 0.9141,0.1797 0.414,0.1797 0.625,0.4531 0.2109,0.2734 0.2968,0.6328 0.086,0.3594 0.086,1.0156 l 0,3.5469 z m 1.4531,-2.9375 q 0,-0.75 0.375,-1.4531 0.375,-0.7031 1.0547,-1.0703 0.6797,-0.3672 1.5078,-0.3672 1.2969,0 2.125,0.8359 0.8281,0.836 0.8281,2.1172 0,1.2969 -0.8359,2.1484 -0.836,0.8516 -2.1016,0.8516 -0.7812,0 -1.4922,-0.3516 -0.7109,-0.3515 -1.0859,-1.039 -0.375,-0.6875 -0.375,-1.6719 z m 1.5469,0.0781 q 0,0.8594 0.4062,1.3125 0.4063,0.4532 1,0.4532 0.5782,0 0.9844,-0.4532 0.4062,-0.4531 0.4062,-1.3125 0,-0.8437 -0.4062,-1.2968 -0.4062,-0.4532 -0.9844,-0.4532 -0.5937,0 -1,0.4532 -0.4062,0.4531 -0.4062,1.2968 z m 7.25,2.8594 -1.5156,0 0,-5.7031 1.4062,0 0,0.8125 q 0.3594,-0.5781 0.6484,-0.7578 0.2891,-0.1797 0.6485,-0.1797 0.5156,0 1,0.2812 l -0.4688,1.3125 q -0.375,-0.25 -0.7031,-0.25 -0.3281,0 -0.5469,0.1797 -0.2187,0.1797 -0.3437,0.6328 -0.125,0.4532 -0.125,1.9063 l 0,1.7656 z m 3.4375,-5.7031 1.3906,0 0,0.7812 q 0.75,-0.9062 1.7813,-0.9062 0.5468,0 0.9531,0.2265 0.4062,0.2266 0.6562,0.6797 0.375,-0.4531 0.8125,-0.6797 0.4375,-0.2265 0.9375,-0.2265 0.625,0 1.0625,0.25 0.4375,0.25 0.6406,0.75 0.1563,0.3594 0.1563,1.1875 l 0,3.6406 -1.5,0 0,-3.2656 q 0,-0.8438 -0.1563,-1.0938 -0.2187,-0.3125 -0.6562,-0.3125 -0.3125,0 -0.5938,0.1875 -0.2812,0.1875 -0.3984,0.5625 -0.1172,0.375 -0.1172,1.1875 l 0,2.7344 -1.5156,0 0,-3.125 q 0,-0.8281 -0.0781,-1.0703 -0.0781,-0.2422 -0.25,-0.3594 -0.1719,-0.1172 -0.4688,-0.1172 -0.3437,0 -0.625,0.1875 -0.2812,0.1875 -0.3984,0.5391 -0.1172,0.3516 -0.1172,1.1797 l 0,2.7656 -1.5156,0 0,-5.7031 z m 12.25,1.7344 -1.375,-0.25 q 0.2343,-0.8125 0.7969,-1.211 0.5624,-0.3984 1.6718,-0.3984 1.0156,0 1.5078,0.2344 0.4922,0.2343 0.6954,0.6015 0.2031,0.3672 0.2031,1.3516 l -0.0157,1.7656 q 0,0.75 0.0704,1.1094 0.0703,0.3594 0.2734,0.7656 l -1.5,0 q -0.0625,-0.1562 -0.1406,-0.4531 -0.0313,-0.125 -0.0469,-0.1719 -0.3906,0.375 -0.8359,0.5625 -0.4454,0.1875 -0.9454,0.1875 -0.875,0 -1.3828,-0.4766 -0.5078,-0.4765 -0.5078,-1.2109 0,-0.4844 0.2344,-0.8594 0.2344,-0.375 0.6484,-0.5781 0.4141,-0.2031 1.1954,-0.3594 1.0624,-0.1875 1.4687,-0.3593 l 0,-0.1563 q 0,-0.4375 -0.2187,-0.6172 -0.2188,-0.1797 -0.8126,-0.1797 -0.3906,0 -0.6171,0.1563 -0.2266,0.1562 -0.3672,0.5469 z m 2.0156,1.2343 q -0.2969,0.0938 -0.9219,0.2266 -0.625,0.1328 -0.8125,0.2578 -0.2969,0.2188 -0.2969,0.5313 0,0.3281 0.2344,0.5546 0.2344,0.2266 0.5938,0.2266 0.4062,0 0.7812,-0.2656 0.2813,-0.2031 0.3594,-0.5 0.0625,-0.1875 0.0625,-0.7344 l 0,-0.2969 z m 2.8594,2.7344 0,-7.875 1.5,0 0,7.875 -1.5,0 z"
     clip-path="url(#clipPath1)"
     id="path3324"
     inkscape:connector-curvature="0"
     style="fill:#000000;stroke:none"
     transform="translate(-4.5,-4.5)" />
  <rect
     x="115"
     y="110"
     clip-path="url(#clipPath1)"
     width="105"
     rx="5"
     ry="5"
     height="42"
     id="rect3326"
     style="fill:#b2b2b2;stroke:none"
     transform="translate(-4.5,-4.5)" />
  <rect
     x="112"
     y="107"
     clip-path="url(#clipPath1)"
     width="105"
     rx="5"
     ry="5"
     height="42"
     id="rect3328"
     style="fill:url(#linearGradient3571);stroke:none"
     transform="translate(-4.5,-4.5)" />
  <rect
     x="112"
     y="107"
     clip-path="url(#clipPath1)"
     width="105"
     rx="5"
     ry="5"
     height="42"
     id="rect3330"
     style="fill:none;stroke:#99995c;stroke-linecap:butt;stroke-linejoin:round"
     transform="translate(-4.5,-4.5)" />
  <path
     d="m 131.75,120.4978 0,-7.875 1.5938,0 0,7.875 -1.5938,0 z m 8.2344,0 -1.5156,0 0,-2.9062 q 0,-0.9219 -0.0938,-1.1954 -0.0938,-0.2734 -0.3125,-0.4218 -0.2187,-0.1485 -0.5313,-0.1485 -0.3906,0 -0.7031,0.211 -0.3125,0.2109 -0.4297,0.5625 -0.1172,0.3515 -0.1172,1.3203 l 0,2.5781 -1.5,0 0,-5.7031 1.4063,0 0,0.8437 q 0.7344,-0.9687 1.875,-0.9687 0.5,0 0.9141,0.1797 0.414,0.1797 0.625,0.4531 0.2109,0.2734 0.2968,0.6328 0.086,0.3594 0.086,1.0156 l 0,3.5469 z m 1.8125,-6.4844 0,-1.3906 1.5,0 0,1.3906 -1.5,0 z m 0,6.4844 0,-5.7031 1.5,0 0,5.7031 -1.5,0 z m 5.6093,-5.7031 0,1.2031 -1.0312,0 0,2.2969 q 0,0.7031 0.0312,0.8203 0.0313,0.1172 0.1329,0.1875 0.1015,0.0703 0.2578,0.0703 0.2031,0 0.6093,-0.1406 l 0.125,1.1719 q -0.5312,0.2187 -1.1874,0.2187 -0.4219,0 -0.75,-0.1328 -0.3282,-0.1328 -0.4766,-0.3516 -0.1484,-0.2187 -0.211,-0.5937 -0.0468,-0.2656 -0.0468,-1.0625 l 0,-2.4844 -0.6875,0 0,-1.2031 0.6875,0 0,-1.1406 1.5156,-0.875 0,2.0156 1.0312,0 z m 1.3907,-0.7813 0,-1.3906 1.5,0 0,1.3906 -1.5,0 z m 0,6.4844 0,-5.7031 1.5,0 0,5.7031 -1.5,0 z m 4.125,-3.9687 -1.375,-0.25 q 0.2343,-0.8125 0.7969,-1.211 0.5624,-0.3984 1.6718,-0.3984 1.0156,0 1.5078,0.2344 0.4922,0.2343 0.6954,0.6015 0.2031,0.3672 0.2031,1.3516 l -0.0157,1.7656 q 0,0.75 0.0704,1.1094 0.0703,0.3594 0.2734,0.7656 l -1.5,0 q -0.0625,-0.1562 -0.1406,-0.4531 -0.0313,-0.125 -0.0469,-0.1719 -0.3906,0.375 -0.8359,0.5625 -0.4454,0.1875 -0.9454,0.1875 -0.875,0 -1.3828,-0.4766 -0.5078,-0.4765 -0.5078,-1.2109 0,-0.4844 0.2344,-0.8594 0.2344,-0.375 0.6484,-0.5781 0.4141,-0.2031 1.1954,-0.3594 1.0624,-0.1875 1.4687,-0.3593 l 0,-0.1563 q 0,-0.4375 -0.2187,-0.6172 -0.2188,-0.1797 -0.8126,-0.1797 -0.3906,0 -0.6171,0.1563 -0.2266,0.1562 -0.3672,0.5469 z m 2.0156,1.2343 q -0.2969,0.0938 -0.9219,0.2266 -0.625,0.1328 -0.8125,0.2578 -0.2969,0.2188 -0.2969,0.5313 0,0.3281 0.2344,0.5546 0.2344,0.2266 0.5938,0.2266 0.4062,0 0.7812,-0.2656 0.2813,-0.2031 0.3594,-0.5 0.0625,-0.1875 0.0625,-0.7344 l 0,-0.2969 z m 2.8594,2.7344 0,-7.875 1.5,0 0,7.875 -1.5,0 z m 3,-6.4844 0,-1.3906 1.5,0 0,1.3906 -1.5,0 z m 0,6.4844 0,-5.7031 1.5,0 0,5.7031 -1.5,0 z m 2.4687,-1.625 1.5,-0.2344 q 0.1094,0.4375 0.3985,0.6641 0.289,0.2266 0.8203,0.2266 0.5937,0 0.8906,-0.2032 0.2031,-0.1562 0.2031,-0.4062 0,-0.1719 -0.1093,-0.2813 -0.125,-0.1093 -0.5157,-0.2031 -1.8125,-0.4062 -2.3125,-0.7344 -0.6718,-0.4687 -0.6718,-1.2812 0,-0.75 0.5859,-1.25 0.5859,-0.5 1.8203,-0.5 1.1719,0 1.7344,0.375 0.5625,0.375 0.7812,1.125 l -1.4218,0.2656 q -0.0938,-0.3281 -0.3438,-0.5078 -0.25,-0.1797 -0.7344,-0.1797 -0.5937,0 -0.8437,0.1719 -0.1719,0.1094 -0.1719,0.2969 0,0.1718 0.1406,0.2812 0.2032,0.1563 1.4141,0.4297 1.2109,0.2734 1.6797,0.6641 0.4844,0.4062 0.4844,1.125 0,0.7812 -0.6563,1.3437 -0.6563,0.5625 -1.9531,0.5625 -1.1563,0 -1.836,-0.4687 -0.6796,-0.4688 -0.8828,-1.2813 z m 8.6563,-2.3437 -1.375,-0.25 q 0.2343,-0.8125 0.7969,-1.211 0.5624,-0.3984 1.6718,-0.3984 1.0156,0 1.5078,0.2344 0.4922,0.2343 0.6954,0.6015 0.2031,0.3672 0.2031,1.3516 l -0.0157,1.7656 q 0,0.75 0.0704,1.1094 0.0703,0.3594 0.2734,0.7656 l -1.5,0 q -0.0625,-0.1562 -0.1406,-0.4531 -0.0313,-0.125 -0.0469,-0.1719 -0.3906,0.375 -0.8359,0.5625 -0.4454,0.1875 -0.9454,0.1875 -0.875,0 -1.3828,-0.4766 -0.5078,-0.4765 -0.5078,-1.2109 0,-0.4844 0.2344,-0.8594 0.2344,-0.375 0.6484,-0.5781 0.4141,-0.2031 1.1954,-0.3594 1.0624,-0.1875 1.4687,-0.3593 l 0,-0.1563 q 0,-0.4375 -0.2187,-0.6172 -0.2188,-0.1797 -0.8126,-0.1797 -0.3906,0 -0.6171,0.1563 -0.2266,0.1562 -0.3672,0.5469 z m 2.0156,1.2343 q -0.2969,0.0938 -0.9219,0.2266 -0.625,0.1328 -0.8125,0.2578 -0.2969,0.2188 -0.2969,0.5313 0,0.3281 0.2344,0.5546 0.2344,0.2266 0.5938,0.2266 0.4062,0 0.7812,-0.2656 0.2813,-0.2031 0.3594,-0.5 0.0625,-0.1875 0.0625,-0.7344 l 0,-0.2969 z m 5.4687,-2.9687 0,1.2031 -1.0312,0 0,2.2969 q 0,0.7031 0.0312,0.8203 0.0313,0.1172 0.1329,0.1875 0.1015,0.0703 0.2578,0.0703 0.2031,0 0.6093,-0.1406 l 0.125,1.1719 q -0.5312,0.2187 -1.1874,0.2187 -0.4219,0 -0.75,-0.1328 -0.3282,-0.1328 -0.4766,-0.3516 -0.1484,-0.2187 -0.211,-0.5937 -0.0468,-0.2656 -0.0468,-1.0625 l 0,-2.4844 -0.6875,0 0,-1.2031 0.6875,0 0,-1.1406 1.5156,-0.875 0,2.0156 1.0312,0 z m 1.3907,-0.7813 0,-1.3906 1.5,0 0,1.3906 -1.5,0 z m 0,6.4844 0,-5.7031 1.5,0 0,5.7031 -1.5,0 z m 2.6406,-2.9375 q 0,-0.75 0.375,-1.4531 0.375,-0.7031 1.0547,-1.0703 0.6797,-0.3672 1.5078,-0.3672 1.2969,0 2.125,0.8359 0.8281,0.836 0.8281,2.1172 0,1.2969 -0.8359,2.1484 -0.836,0.8516 -2.1016,0.8516 -0.7812,0 -1.4922,-0.3516 -0.7109,-0.3515 -1.0859,-1.039 -0.375,-0.6875 -0.375,-1.6719 z m 1.5469,0.0781 q 0,0.8594 0.4062,1.3125 0.4063,0.4532 1,0.4532 0.5782,0 0.9844,-0.4532 0.4062,-0.4531 0.4062,-1.3125 0,-0.8437 -0.4062,-1.2968 -0.4062,-0.4532 -0.9844,-0.4532 -0.5937,0 -1,0.4532 -0.4062,0.4531 -0.4062,1.2968 z m 11,2.8594 -1.5156,0 0,-2.9062 q 0,-0.9219 -0.0938,-1.1954 -0.0938,-0.2734 -0.3125,-0.4218 -0.2187,-0.1485 -0.5313,-0.1485 -0.3906,0 -0.7031,0.211 -0.3125,0.2109 -0.4297,0.5625 -0.1172,0.3515 -0.1172,1.3203 l 0,2.5781 -1.5,0 0,-5.7031 1.4063,0 0,0.8437 q 0.7344,-0.9687 1.875,-0.9687 0.5,0 0.9141,0.1797 0.414,0.1797 0.625,0.4531 0.2109,0.2734 0.2968,0.6328 0.086,0.3594 0.086,1.0156 l 0,3.5469 z"
     clip-path="url(#clipPath1)"
     id="path3332"
     inkscape:connector-curvature="0"
     style="fill:#000000;stroke:none"
     transform="translate(-4.5,-4.5)" />
  <circle
     r="9"
     clip-path="url(#clipPath1)"
     cx="472"
     cy="54"
     id="circle3334"
     sodipodi:cx="472"
     sodipodi:cy="54"
     sodipodi:rx="9"
     sodipodi:ry="9"
     style="fill:#b2b2b2;stroke:none"
     transform="translate(-4.5,-4.5)" />
  <circle
     r="9"
     clip-path="url(#clipPath1)"
     cx="469"
     cy="51"
     id="circle3336"
     style="fill:url(#linearGradient3573);stroke:none"
     sodipodi:cx="469"
     sodipodi:cy="51"
     sodipodi:rx="9"
     sodipodi:ry="9"
     transform="translate(-4.5,-4.5)" />
  <circle
     r="9"
     clip-path="url(#clipPath1)"
     cx="469"
     cy="51"
     id="circle3338"
     sodipodi:cx="469"
     sodipodi:cy="51"
     sodipodi:rx="9"
     sodipodi:ry="9"
     style="fill:none;stroke:#424242;stroke-linecap:butt;stroke-linejoin:round"
     transform="translate(-4.5,-4.5)" />
  <circle
     r="4"
     clip-path="url(#clipPath1)"
     cx="469"
     cy="51"
     id="circle3340"
     sodipodi:cx="469"
     sodipodi:cy="51"
     sodipodi:rx="4"
     sodipodi:ry="4"
     style="fill:#424242;stroke:none"
     transform="translate(-4.5,-4.5)" />
  <circle
     r="4"
     clip-path="url(#clipPath1)"
     cx="469"
     cy="51"
     id="circle3342"
     sodipodi:cx="469"
     sodipodi:cy="51"
     sodipodi:rx="4"
     sodipodi:ry="4"
     style="fill:none;stroke:#424242;stroke-linecap:butt;stroke-linejoin:round"
     transform="translate(-4.5,-4.5)" />
  <circle
     r="9"
     clip-path="url(#clipPath1)"
     cx="161"
     cy="51"
     id="circle3344"
     sodipodi:cx="161"
     sodipodi:cy="51"
     sodipodi:rx="9"
     sodipodi:ry="9"
     style="fill:#424242;stroke:none"
     transform="translate(-4.5,-4.5)" />
  <circle
     r="9"
     clip-path="url(#clipPath1)"
     cx="161"
     cy="51"
     id="circle3346"
     sodipodi:cx="161"
     sodipodi:cy="51"
     sodipodi:rx="9"
     sodipodi:ry="9"
     style="fill:none;stroke:#424242;stroke-linecap:butt;stroke-linejoin:round"
     transform="translate(-4.5,-4.5)" />
  <path
     d="m 420,241 7,-4 -7,-4"
     clip-path="url(#clipPath1)"
     id="path3348"
     inkscape:connector-curvature="0"
     style="fill:none;stroke:#424242;stroke-linecap:butt;stroke-linejoin:round"
     transform="translate(-4.5,-4.5)" />
  <path
     d="m 427,237 -168,0"
     clip-path="url(#clipPath1)"
     id="path3350"
     inkscape:connector-curvature="0"
     style="fill:none;stroke:#424242;stroke-linecap:butt;stroke-linejoin:round"
     transform="translate(-4.5,-4.5)" />
  <path
     d="m 413,380 -7,4 7,4"
     clip-path="url(#clipPath1)"
     id="path3354"
     inkscape:connector-curvature="0"
     style="fill:none;stroke:#424242;stroke-linecap:butt;stroke-linejoin:round"
     transform="translate(-4.5,-4.5)" />
  <path
     d="m 406,384 110,0 c 0,0 6,0 6,-6 m 0,0 0,-110"
     clip-path="url(#clipPath1)"
     id="path3356"
     inkscape:connector-curvature="0"
     style="fill:none;stroke:#424242;stroke-linecap:butt;stroke-linejoin:round"
     transform="translate(-4.5,-4.5)" />
  <path
     d="m 373,344 -2,8 8,-2"
     clip-path="url(#clipPath1)"
     id="path3360"
     inkscape:connector-curvature="0"
     style="fill:none;stroke:#424242;stroke-linecap:butt;stroke-linejoin:round"
     transform="translate(-4.5,-4.5)" />
  <path
     d="m 371,352 86,-84"
     clip-path="url(#clipPath1)"
     id="path3362"
     inkscape:connector-curvature="0"
     style="fill:none;stroke:#424242;stroke-linecap:butt;stroke-linejoin:round"
     transform="translate(-4.5,-4.5)" />
  <path
     d="m 242,277 -8,-2 2,8"
     clip-path="url(#clipPath1)"
     id="path3366"
     inkscape:connector-curvature="0"
     style="fill:none;stroke:#424242;stroke-linecap:butt;stroke-linejoin:round"
     transform="translate(-4.5,-4.5)" />
  <path
     d="m 234,275 85,77"
     clip-path="url(#clipPath1)"
     id="path3368"
     inkscape:connector-curvature="0"
     style="fill:none;stroke:#424242;stroke-linecap:butt;stroke-linejoin:round"
     transform="translate(-4.5,-4.5)" />
  <path
     d="m 183,282 -4,-7 -4,7"
     clip-path="url(#clipPath1)"
     id="path3372"
     inkscape:connector-curvature="0"
     style="fill:none;stroke:#424242;stroke-linecap:butt;stroke-linejoin:round"
     transform="translate(-4.5,-4.5)" />
  <path
     d="m 179,275 0,38 c 0,0 0,6 -6,6 m 0,0 -57,0"
     clip-path="url(#clipPath1)"
     id="path3374"
     inkscape:connector-curvature="0"
     style="fill:none;stroke:#424242;stroke-linecap:butt;stroke-linejoin:round"
     transform="translate(-4.5,-4.5)" />
  <path
     d="m 473,67 -4,-7 -4,7"
     clip-path="url(#clipPath1)"
     id="path3376"
     inkscape:connector-curvature="0"
     style="fill:none;stroke:#424242;stroke-linecap:butt;stroke-linejoin:round"
     transform="translate(-4.5,-4.5)" />
  <path
     d="m 469,60 0,124"
     clip-path="url(#clipPath1)"
     id="path3378"
     inkscape:connector-curvature="0"
     style="fill:none;stroke:#424242;stroke-linecap:butt;stroke-linejoin:round"
     transform="translate(-4.5,-4.5)" />
  <path
     d="m 157,100 4,7 4,-7"
     clip-path="url(#clipPath1)"
     id="path3382"
     inkscape:connector-curvature="0"
     style="fill:none;stroke:#424242;stroke-linecap:butt;stroke-linejoin:round"
     transform="translate(-4.5,-4.5)" />
  <path
     d="m 161,107 0,-47"
     clip-path="url(#clipPath1)"
     id="path3384"
     inkscape:connector-curvature="0"
     style="fill:none;stroke:#424242;stroke-linecap:butt;stroke-linejoin:round"
     transform="translate(-4.5,-4.5)" />
  <path
     d="m 157,177 4,7 4,-7"
     clip-path="url(#clipPath1)"
     id="path3388"
     inkscape:connector-curvature="0"
     style="fill:none;stroke:#424242;stroke-linecap:butt;stroke-linejoin:round"
     transform="translate(-4.5,-4.5)" />
  <path
     d="m 161,184 0,-35"
     clip-path="url(#clipPath1)"
     id="path3390"
     inkscape:connector-curvature="0"
     style="fill:none;stroke:#424242;stroke-linecap:butt;stroke-linejoin:round"
     transform="translate(-4.5,-4.5)" />
</svg>
