<?xml version="1.0" encoding="UTF-8" standalone="no"?>
<!-- Created with Inkscape (http://www.inkscape.org/) -->

<svg
   xmlns:dc="http://purl.org/dc/elements/1.1/"
   xmlns:cc="http://creativecommons.org/ns#"
   xmlns:rdf="http://www.w3.org/1999/02/22-rdf-syntax-ns#"
   xmlns:svg="http://www.w3.org/2000/svg"
   xmlns="http://www.w3.org/2000/svg"
   xmlns:sodipodi="http://sodipodi.sourceforge.net/DTD/sodipodi-0.dtd"
   xmlns:inkscape="http://www.inkscape.org/namespaces/inkscape"
   version="1.1"
   id="svg815"
   xml:space="preserve"
   width="333.62546"
   height="329.56458"
   viewBox="0 0 333.62546 329.56457"
   sodipodi:docname="Encastrement_pincement_CHC_cor.svg"
   inkscape:version="0.92.4 (5da689c313, 2019-01-14)"><metadata
     id="metadata821"><rdf:RDF><cc:Work
         rdf:about=""><dc:format>image/svg+xml</dc:format><dc:type
           rdf:resource="http://purl.org/dc/dcmitype/StillImage" /><dc:title></dc:title></cc:Work></rdf:RDF></metadata><defs
     id="defs819" /><sodipodi:namedview
     pagecolor="#ffffff"
     bordercolor="#666666"
     borderopacity="1"
     objecttolerance="10"
     gridtolerance="10"
     guidetolerance="10"
     inkscape:pageopacity="0"
     inkscape:pageshadow="2"
     inkscape:window-width="1366"
     inkscape:window-height="705"
     id="namedview817"
     showgrid="false"
     fit-margin-top="0"
     fit-margin-left="0"
     fit-margin-right="0"
     fit-margin-bottom="0"
     inkscape:zoom="1.3050307"
     inkscape:cx="154.54986"
     inkscape:cy="154.54986"
     inkscape:window-x="-8"
     inkscape:window-y="-8"
     inkscape:window-maximized="1"
     inkscape:current-layer="g823" /><g
     id="g823"
     inkscape:groupmode="layer"
     inkscape:label="Encastrement_pincement_CHC"
     transform="matrix(1.3333333,0,0,-1.3333333,-233.9206,1028.8726)"><g
       id="g975"
       transform="translate(300.6143,524.7397)"><path
         d="M 0,0 V 71.378"
         style="fill:none;stroke:#000000;stroke-width:0.50999999;stroke-linecap:round;stroke-linejoin:round;stroke-miterlimit:10;stroke-dasharray:86.4, 3.6, 3.6, 3.6;stroke-dashoffset:56.11100006;stroke-opacity:1"
         id="path977"
         inkscape:connector-curvature="0" /></g><g
       id="g979"
       transform="translate(396.9923,631.3224)"><path
         d="M 0,0 V 116.166"
         style="fill:none;stroke:#000000;stroke-width:0.50999999;stroke-linecap:round;stroke-linejoin:round;stroke-miterlimit:10;stroke-dasharray:86.4, 3.6, 3.6, 3.6;stroke-dashoffset:33.71699905;stroke-opacity:1"
         id="path981"
         inkscape:connector-curvature="0" /></g><g
       id="g983"
       transform="translate(204.2364,631.3224)"><path
         d="M 0,0 V 116.166"
         style="fill:none;stroke:#000000;stroke-width:0.50999999;stroke-linecap:round;stroke-linejoin:round;stroke-miterlimit:10;stroke-dasharray:86.4, 3.6, 3.6, 3.6;stroke-dashoffset:33.71699905;stroke-opacity:1"
         id="path985"
         inkscape:connector-curvature="0" /></g><g
       id="g987"
       transform="translate(300.6143,700.4878)"><path
         d="M 0,0 V 49.606"
         style="fill:none;stroke:#000000;stroke-width:0.50999999;stroke-linecap:round;stroke-linejoin:round;stroke-miterlimit:10;stroke-dasharray:86.4, 3.6, 3.6, 3.6;stroke-dashoffset:66.99700165;stroke-opacity:1"
         id="path989"
         inkscape:connector-curvature="0" /></g><g
       id="g991"
       transform="translate(286.4411,686.3145)"><path
         d="M 0,0 H -49.606"
         style="fill:none;stroke:#000000;stroke-width:0.50999999;stroke-linecap:round;stroke-linejoin:round;stroke-miterlimit:10;stroke-dasharray:86.4, 3.6, 3.6, 3.6;stroke-dashoffset:66.99700165;stroke-opacity:1"
         id="path993"
         inkscape:connector-curvature="0" /></g><g
       id="g995"
       transform="translate(300.6143,672.1413)"><path
         d="M 0,0 V -49.606"
         style="fill:none;stroke:#000000;stroke-width:0.50999999;stroke-linecap:round;stroke-linejoin:round;stroke-miterlimit:10;stroke-dasharray:86.4, 3.6, 3.6, 3.6;stroke-dashoffset:66.99700165;stroke-opacity:1"
         id="path997"
         inkscape:connector-curvature="0" /></g><g
       id="g999"
       transform="translate(314.7876,686.3145)"><path
         d="M 0,0 H 49.606"
         style="fill:none;stroke:#000000;stroke-width:0.50999999;stroke-linecap:round;stroke-linejoin:round;stroke-miterlimit:10;stroke-dasharray:86.4, 3.6, 3.6, 3.6;stroke-dashoffset:66.99700165;stroke-opacity:1"
         id="path1001"
         inkscape:connector-curvature="0" /></g><g
       id="g1003"
       transform="translate(300.6,686.3)"><path
         d="M 0,0 V 7.1 M 0,0 H -7.1 M 0,0 V -7.1 M 0,0 h 7.1"
         style="fill:none;stroke:#000000;stroke-width:0.50999999;stroke-linecap:round;stroke-linejoin:round;stroke-miterlimit:10;stroke-dasharray:none;stroke-opacity:1"
         id="path1005"
         inkscape:connector-curvature="0" /></g><g
       id="g1007"
       transform="translate(198.2,638.1)"><path
         d="m 0,0 v 60 m 11.9,0 V -0.1 M 192.8,60 V -2.9 M 204.7,60 V 0"
         style="fill:none;stroke:#000000;stroke-width:0.50999999;stroke-linecap:round;stroke-linejoin:round;stroke-miterlimit:10;stroke-dasharray:none;stroke-opacity:1"
         id="path1009"
         inkscape:connector-curvature="0" /></g><g
       id="g1023"
       transform="translate(244.4,693.7)"><path
         d="M 0,0 7.8,7.8 M -0.3,-12.9 14.5,1.8 M 1.8,-23.6 19.3,-6.1 m 62.1,36.7 8,7.9 M 83.6,20 96.3,32.7 M 88,11.6 102.1,25.8 M 92.3,3.2 106.9,17.9 m -11.2,-24 14.8,14.8 m -14,-26.7 16.1,16.1 m -23.2,-36 23,23 M 89,-51 l 17.6,17.6 m -92,80.3 v 0 L 2.7,58.7 M 15.3,33.4 -4,52.7 M 10.2,25.8 -10,46 M 5,18.3 -20.3,43.6 M 1.8,8.7 -26,36.6 M -3.3,1.1 -30.5,28.3 M -16,1.1 -32.4,17.5 m 3.7,-16.4 -3.7,3.7 m -22,34.7 -4.1,4.1 M -48,20.4 -68.6,40.9 M -48,7.6 -68.6,28.2 M -54.2,1.1 -68.6,15.5 m 1.7,-14.4 -1.7,1.6 m 249.5,30.6 -10.3,10.3 m 10.3,-23 -14.2,14.1 M 180.9,7.8 160.5,28.3 M 174.9,1.1 160.3,15.7 m 1.9,-14.6 -1.9,1.8 m -21.9,34.7 -6,6 M 144.7,18.5 95.1,68.2 M 144.7,5.8 100.2,50.4 m 36.6,-49.3 -43,43 M 124,1.1 106.6,18.5 m -153.9,-37 -2.6,2.6 m 2.6,-15.4 -15.3,15.4 m 15.3,-28.1 -21.3,21.3 m 22.4,-35.1 -22.4,22.4 m 10.3,-23.1 -10.3,10.3 m 72,17.1 -15.1,15.2 m 10.5,-23.2 -23.2,23.2 M 4,-57.1 -33.1,-20 m 35,-47.8 -35,35.1 m 13,-25.8 -13,13.1 m 0.3,-13.1 -1.5,1.5 m 179.8,36.6 -4.5,4.5 m 4.5,-17.2 -17.2,17.2 m 17.2,-29.9 -29.9,29.9 m 29.8,-42.6 -34.9,34.9 m 22.1,-34.9 -25.7,25.8 m 15.4,-28.2 -20.2,20.2 m 14.2,-26.9 -20,20.1 m 13.3,-26.1 -19.4,19.4 m 90.7,36.6 -1.7,1.7 m 1.7,-14.4 -14.4,14.4 m 14.4,-27.2 -21.3,21.3 m 21.3,-34 -21.3,21.3 m 11.2,-24 -11.2,11.2"
         style="fill:none;stroke:#000000;stroke-width:0.50999999;stroke-linecap:round;stroke-linejoin:round;stroke-miterlimit:10;stroke-dasharray:none;stroke-opacity:1"
         id="path1025"
         inkscape:connector-curvature="0" /></g><g
       id="g1027"
       transform="translate(336,600.3)"><path
         d="m 0,0 v 0.5 l 0.1,1.6 0.3,1.5 0.5,1.4 0.5,1.3 0.7,1.2 0.7,1 0.7,0.9 0.8,0.8 0.7,0.6 0.6,0.5 0.4,0.3 0.3,0.2 0.1,0.1 0.1,0.1 h 0.1 l 0.1,0.1 M -77.4,12 v 0 l 0.1,-0.1 h 0.1 l 0.1,-0.1 0.3,-0.2 0.3,-0.2 0.4,-0.4 0.6,-0.5 0.8,-0.7 0.8,-1 0.9,-1.2 0.7,-1.3 0.6,-1.4 0.4,-1.6 0.3,-1.6 0.1,-1.7 m 0,0 v -69.9 m 70.9,0 V 0 m -143.9,134.6 v -12.9 m 24.1,0 v 12.9 m 0,0 v 0.3 l -0.1,0.2 -0.1,0.2 -0.1,0.2 -0.2,0.2 -0.2,0.1 h -0.2 l -0.3,0.1 m -21.7,0 -0.2,-0.1 h -0.2 l -0.2,-0.1 -0.2,-0.2 -0.2,-0.2 -0.1,-0.2 v -0.2 l -0.1,-0.3 m 19.2,-13.6 v 0.1 0.1 l 0.1,0.2 0.1,0.1 0.1,0.1 h 0.1 l 0.1,0.1 h 0.2 m -15.6,0 h 0.1 l 0.2,-0.1 h 0.1 l 0.1,-0.1 0.1,-0.1 v -0.2 l 0.1,-0.1 V 121 m 0,-23.2 V 37.9 m 14.2,0 v 59.9 m -14.2,-59.9 1.2,-1.3 m 11.7,0 1.3,1.3 M -138.9,121 V 99 m 14.2,0 v 22 m -14.2,-22 1.2,-1.2 m 11.7,0 1.3,1.2 m 173.6,35.6 v -12.9 m 24.1,0 v 12.9 m 0,0 v 0.3 l -0.1,0.2 -0.1,0.2 -0.2,0.2 -0.1,0.2 -0.3,0.1 H 72 l -0.2,0.1 m -21.7,0 -0.2,-0.1 h -0.3 l -0.2,-0.1 -0.2,-0.2 -0.1,-0.2 -0.1,-0.2 -0.1,-0.2 v -0.3 M 68,121 v 0.1 l 0.1,0.1 v 0.2 l 0.1,0.1 0.1,0.1 h 0.2 l 0.1,0.1 h 0.1 m -15.6,0 h 0.2 l 0.1,-0.1 h 0.1 l 0.1,-0.1 0.1,-0.1 0.1,-0.2 v -0.1 l 0.1,-0.1 m 0,-23.2 V 37.9 m 14.1,0 V 97.8 M 53.9,37.9 55.1,36.6 m 11.7,0 1.2,1.3 M 53.9,121 V 99 M 68,99 v 22 M 53.9,99 55.1,97.8 m 11.7,0 1.2,1.2 m -85.2,-108.9 -0.3,2 -0.2,1.9 0.1,1.9 0.1,1.7 0.3,1.6 0.5,1.4 0.6,1.2 0.8,0.9 0.8,0.7 1,0.4 m -43.8,0 0.9,-0.4 0.9,-0.7 0.7,-0.9 0.6,-1.2 0.5,-1.4 0.3,-1.6 0.2,-1.7 V -6 l -0.2,-1.9 -0.3,-2 m -3.6,13.7 4.8,-1.1 4.8,-0.9 4.9,-0.6 4.9,-0.2 h 4.9 l 4.9,0.2 4.9,0.6 4.9,0.9 4.8,1.1 m -78.1,18.3 1.8,3.3 1.3,3.4 0.8,3.5 0.1,3.6 -0.6,3.7 -1.3,3.7 -1.5,3.5 -1.1,2.6 -0.7,2.5 v 2.5 l 0.6,2.3 1.2,2.2 1.6,2.1 2,2.2 m 73.9,-59.4 3.6,1 3.5,1.2 3.5,1.4 3.4,1.5 3.4,1.7 3.3,1.8 3.2,1.9 3.1,2.1 m -105.1,5.7 3.8,-3.1 3.9,-2.9 4.1,-2.7 4.3,-2.4 4.4,-2.2 4.5,-1.9 4.6,-1.7 4.7,-1.4 m 55.4,36.5 0.8,-1.7 2.3,-4.4 2.8,-4.4 3.2,-4.4 3.2,-4.5 3.1,-4.5 m -30.7,-26.3 -3.8,-1 -4.1,-0.4 -3.8,-0.1 h -4 -3.9 -3.9 l -3.9,0.1 -3.7,0.2 -2.8,0.4 -2.6,0.8 m 18.3,-60 h 3.1 3 3 3 2.8 2.8 2.6 2.4 2.3 2.1 1.9 1.7 1.4 1.2 0.9 0.7 0.4 0.1 m -70.9,0 h 0.2 0.4 0.6 1 1.2 1.4 1.6 1.9 2.1 2.3 2.4 2.6 2.8 2.8 3 3 3.1 3.1 M -160.2,77.5 h 21.3 m 1.1,-40.8 v -1.8 m 0,0 h -22.4 m 0,0 v 42.6 m 34.3,-42.6 v 1.8 m -11.9,-1.8 h 0.2 0.4 0.7 1 1.1 1.3 1.3 1.3 1.3 1.1 0.9 0.7 0.5 0.1 m 1.2,42.6 h 33.2 m -12,-42.6 h -22.4 m 38.5,28.3 -0.7,1.7 -0.6,1.7 -0.6,1.8 -0.6,1.8 -0.5,1.8 -0.4,1.8 -0.4,1.8 -0.3,1.9 m -0.1,-55.4 -1.6,1.5 -1.6,1.5 -1.6,1.5 -1.5,1.6 -1.4,1.6 -1.5,1.7 -1.3,1.7 -1.4,1.7 M 53.9,77.5 H 20.6 M 55,36.7 v -1.8 m -22.4,0 H 55 m -22.4,0 -2.1,-2.6 -2.1,-2.5 -2.3,-2.5 -2.3,-2.4 -2.5,-2.2 -2.5,-2.2 -2.6,-2.1 -2.7,-2 m 7.1,61.1 -0.7,-4 L 18.8,69.6 17.5,65.7 15.9,62 14.1,58.4 12,54.9 9.7,51.6 7.1,48.5 l -2.8,-3 -3,-2.7 -3.2,-2.5 m 68.8,-5.4 v 1.8 M 89.3,77.5 H 68 M 89.3,34.9 V 77.5 M 66.9,34.9 h 22.4 m -34.3,0 h 0.1 0.5 0.7 0.9 1.2 1.2 1.3 1.4 1.2 1.2 0.9 0.7 0.4 0.2 m -150.8,80.4 -2,-2.5 -1.4,-2.5 -0.5,-1.4 -0.1,-1.4 m 0.3,45.6 3.9,2.9 4.1,2.7 4.3,2.4 4.4,2.2 4.5,1.9 4.6,1.6 4.7,1.4 4.8,1.1 4.8,0.8 4.9,0.6 4.9,0.3 h 4.9 l 4.9,-0.3 4.8,-0.6 4.9,-0.9 4.7,-1.1 4.7,-1.4 m 4.9,-33.6 2.9,2.2 3,2 2.8,2.1 1.8,1.7 1.4,1.6 0.8,1.7 0.1,1.8 -0.8,2.1 -1.5,2.1 -2,2.2 -2.8,2.5 -3,2.6 -2.9,2.6 -2.5,2.6 -1.4,1.9 -0.8,1.9 m -78.8,-13.6 2.9,-2.7 2.8,-2.8 2.5,-3 2,-3.4 1.3,-3.7 0.6,-3.4 v -3.4 l -0.7,-3.4 -1.3,-3.3 m -40.1,-2.3 V 137 m -28.4,0 v -15.3 m 28.4,15.3 h -0.2 -0.4 -0.6 -0.9 -1.1 -1.3 -1.5 -1.7 -1.8 -1.8 -1.9 -2 -1.9 -1.9 -1.7 -1.7 -1.5 -1.3 -1.1 -0.9 -0.7 -0.4 -0.1 m 178.6,0 h 14.2 m 0,0 v -15.3 m 0,0 h 2.1 m 4.2,0 V 94.5 m 0,0 H 20.6 m 12,42.5 -3.2,4 -3.5,3.9 -3.7,3.6 -3.9,3.4 -4.1,3.1 -4.3,2.9 -4.5,2.6 -4.6,2.4 -4.7,2 -4.9,1.8 m 29.4,-72.2 -0.7,3.8 -1,3.8 -1.2,3.7 -1.5,3.7 -1.8,3.5 -2,3.4 -2.2,3.2 -2.4,3.1 -2.7,2.9 -2.8,2.7 -3,2.5 -3.2,2.3 M -139.6,121.7 V 94.5 m 0,0 h -20.6 M -146,137 h -14.2 m 0,0 V 94.5 m 14.2,27.2 h 2.1 M -124,94.5 v 27.2 m 0,-27.2 h -0.2 -0.3 -0.2 m -14.2,0 h -0.2 -0.4 -0.1 m 36.1,42.5 h -14.1 M -91.5,94.5 H -124 m 4.2,27.2 h 2.2 m 30,31.4 -2.2,-1.8 -2.2,-1.8 -2.1,-1.9 -2,-2 -1.9,-2.1 -1.9,-2.1 -1.8,-2.2 -1.8,-2.2 m 15.6,-29.5 -0.6,-1.6 -0.6,-1.6 -0.5,-1.6 -0.5,-1.6 -0.4,-1.7 -0.4,-1.6 -0.3,-1.7 -0.3,-1.6 m 14,29.5 -0.9,-1 -0.8,-1.1 -0.9,-1 -0.8,-1.1 -0.8,-1.1 -0.8,-1.1 -0.7,-1.1 -0.7,-1.2 M 89.3,94.5 H 68.7 m 0,0 v 27.2 m 4.3,0 h 2.1 m 0,0 V 137 m 0,0 h 14.2 m 0,0 V 94.5 M 75.1,137 H 75 74.6 73.9 73.1 71.9 70.6 69.1 67.5 65.7 63.8 61.9 60 58.1 56.2 54.4 52.8 51.3 49.9 48.8 47.9 47.3 46.9 46.8 M 68.7,94.5 H 68.6 68.2 68 m -14.1,0 h -0.2 -0.4 -0.2 m -57,38.6 -0.6,-0.5 -2.6,-2.4 -2,-2.7 -1,-2.8 -0.1,-3.1 0.5,-3.2 1.1,-3.3 2,-4.5 2.4,-4.6 2.5,-4.5 L 0.5,97 2.4,92.7 3.8,88.5 4.8,84.3 5.2,80.1 5,75.9 3.9,71.2 2.1,66.4 0.1,61.6 -1.8,56.8 -3,52.6 l -0.5,-4.2 0.4,-4.1 1.2,-4 m -82,75 -0.6,-0.9 -0.5,-1 -0.6,-0.9 -0.5,-1 -0.4,-1 -0.5,-1 -0.5,-1 -0.4,-1 m 0.5,-44.3 1.7,-3.5 2,-3.4 2.1,-3.3 2.4,-3.1 2.6,-2.9 2.8,-2.7 2.9,-2.6 3.2,-2.3 3.2,-2.1 3.5,-1.9 3.5,-1.7 3.7,-1.4 3.7,-1.1 3.8,-0.9 3.9,-0.6 3.8,-0.3 4,-0.1 3.9,0.2 3.8,0.4 3.9,0.7 3.8,1 3.7,1.3 3.6,1.5 3.5,1.7 3.3,2 3.2,2.2 m -2,92.8 -3.4,2.1 -3.6,1.9 -3.7,1.6 -3.8,1.3 -3.9,1.1 -4,0.8 -4,0.5 -4,0.2 h -4.1 l -4,-0.4 -4,-0.6 -3.9,-0.9 -3.9,-1.2 -3.7,-1.5 -3.7,-1.7 -3.5,-2 -3.4,-2.3 -3.2,-2.4 -3,-2.7 -2.8,-2.9 m -6.4,-8.7 2.4,3 2.2,2.8 1.8,2.9 m -9.9,-60.8 3.3,3.1 3.3,3.3 2.8,3.2 2.5,3.4 1.9,3.5 0.9,2.7 0.5,2.8 -0.2,2.6 -0.8,2.5 -1.5,2.3 -1.9,2.2 -2.2,2.1 -2.5,2.1 -2.3,2.1 -2.1,2 -1.3,1.8 -0.7,1.7 -0.2,0.9 m 0.5,-44.3 -1.5,3.8 -1.2,4 -1,4 -0.6,4.1 -0.4,4.1 v 4.1 l 0.2,4.2 0.6,4.1 0.8,4 1.2,4 1.4,3.9 m 4,7.8 0.7,1.2 0.7,1.1 0.8,1.1 0.8,1.1 0.8,1.1 0.9,1 0.8,1.1 0.9,1 m 73.6,9.1 3.1,-2.3 3,-2.5 2.8,-2.6 2.7,-2.9 2.4,-3 2.2,-3.2 2,-3.4 1.7,-3.4 1.5,-3.6 1.3,-3.7 1,-3.7 0.7,-3.9 0.5,-3.8 0.2,-3.9 V 83.3 L 20.9,79.5 20.3,75.6 19.5,71.8 18.4,68.1 17,64.5 15.4,60.9 13.6,57.5 11.5,54.2 9.3,51.1 6.8,48.1 4.1,45.3 1.2,42.7 -1.9,40.3 m -136.5,81.4 h -1.4 -1.3 -1 -0.8 -0.6 -0.3 -0.1 m 24.1,0 v 0 h -0.2 -0.5 -0.8 -0.9 -1.2 -1.4 -1.6 -1.6 -1.8 -1.8 -1.8 -1.7 -1.7 -1.6 m 0.7,14.2 h -1.4 -1.2 -0.9 -0.7 -0.5 -0.2 -0.1 m 21.7,0 v 0 h -0.3 -0.6 -0.8 -1.1 -1.2 -1.4 -1.6 -1.6 -1.7 -1.7 -1.6 -1.7 -1.4 m 2,-38.1 h -1.1 -0.9 -0.6 -0.4 -0.2 m 14.2,0 h -0.1 -0.4 -0.7 -0.9 -1 -1.2 -1.4 -1.3 -1.4 -1.4 -1.2 m 0,-59.9 h -1.1 -0.9 -0.6 -0.4 -0.2 m 14.2,0 h -0.1 -0.4 -0.7 -0.9 -1 -1.2 -1.4 -1.3 -1.4 -1.4 -1.2 m 0.7,-1.3 h -1 -0.8 -0.5 -0.3 -0.1 m 11.7,0 h -0.1 -0.4 -0.6 -0.8 -1.1 -1.1 -1.3 -1.3 -1.2 -1.1 m -0.7,62.4 h -1.1 -0.9 -0.6 -0.4 -0.2 m 14.2,0 h -0.1 -0.4 -0.7 -0.9 -1 -1.2 -1.4 -1.3 -1.4 -1.4 -1.2 M 72.8,121.7 H 72.3 71.6 70.6 69.4 68 66.5 64.8 63.1 61.3 59.5 57.7 56 54.5 53 51.8 50.7 49.9 49.3 49 48.9 m 24.1,0 v 0 h -0.2 m -1.2,14.2 H 71.1 70.4 69.5 68.3 67 65.5 63.9 62.2 60.5 58.8 57.2 55.7 54.2 53 51.9 51.1 50.5 50.2 50.1 m 21.7,0 v 0 H 71.6 M 68,97.8 H 67.9 67.5 66.8 66 64.9 63.7 62.3 61 59.6 58.2 57 55.9 55.1 54.4 54 53.9 M 68,37.9 H 67.9 67.5 66.8 66 64.9 63.7 62.3 61 59.6 58.2 57 55.9 55.1 54.4 54 53.9 m 12.9,-1.3 h -0.1 -0.4 -0.6 -0.9 -1 -1.2 -1.2 -1.3 -1.2 -1.1 -1 H 56 55.4 55.1 M 68,99 H 67.9 67.5 66.8 66 64.9 63.7 62.3 61 59.6 58.2 57 55.9 55.1 54.4 54 53.9 M 0,0 h -0.1 l -0.3,-0.3 -0.5,-0.4 -0.8,-0.6 -0.3,-0.2 -1.1,-0.8 -1.4,-1 -1.6,-1 -1.8,-1.2 -3.9,-2 -4.5,-2.1 -0.9,-0.3 m -36.5,0 -2.8,1.1 -2.6,1.3 -3.8,2 -3.2,2 -2.2,1.6 -1.6,1.2 -0.5,0.4 -0.4,0.3 h -0.1 m -67.5,134.6 h -1.4 -1.3 -1 -0.8 -0.6 -0.3 -0.1 m 24.1,0 v 0 h -0.2 -0.5 -0.8 -0.9 -1.2 -1.4 -1.6 -1.6 -1.8 -1.8 -1.8 -1.7 -1.7 -1.6 m 2.7,-13.6 h -1.1 -0.9 -0.6 -0.4 -0.2 m 14.2,0 h -0.1 -0.4 -0.7 -0.9 -1 -1.2 -1.4 -1.3 -1.4 -1.4 -1.2 M 72.8,134.6 H 72.3 71.6 70.6 69.4 68 66.5 64.8 63.1 61.3 59.5 57.7 56 54.5 53 51.8 50.7 49.9 49.3 49 48.9 m 24.1,0 v 0 H 72.8 M 68,121 H 67.9 67.5 66.8 66 64.9 63.7 62.3 61 59.6 58.2 57 55.9 55.1 54.4 54 53.9"
         style="fill:none;stroke:#000000;stroke-width:0.70899999;stroke-linecap:round;stroke-linejoin:round;stroke-miterlimit:10;stroke-dasharray:none;stroke-opacity:1"
         id="path1029"
         inkscape:connector-curvature="0" /></g><g
       id="g1031"
       transform="translate(343.1075,612.653)"><path
         d="M 0,0 0.024,0.014 -0.127,-0.073 -0.241,-0.138"
         style="fill:none;stroke:#000000;stroke-width:0.50999999;stroke-linecap:round;stroke-linejoin:round;stroke-miterlimit:10;stroke-dasharray:3.6, 1.8;stroke-dashoffset:0;stroke-opacity:1"
         id="path1033"
         inkscape:connector-curvature="0" /></g><g
       id="g1035"
       transform="translate(318.8651,590.4486)"><path
         d="m 0,0 -0.312,1.98 -0.156,1.939 0.005,1.858 0.166,1.738 0.322,1.584 0.472,1.396 0.612,1.18 0.741,0.938 0.853,0.678 0.947,0.404"
         style="fill:none;stroke:#000000;stroke-width:0.50999999;stroke-linecap:round;stroke-linejoin:round;stroke-miterlimit:10;stroke-dasharray:3.6, 1.8;stroke-dashoffset:-0.44400001;stroke-opacity:1"
         id="path1037"
         inkscape:connector-curvature="0" /></g><g
       id="g1039"
       transform="translate(278.7133,604.1437)"><path
         d="M 0,0 0.948,-0.404 1.8,-1.082 2.541,-2.021 3.153,-3.2 3.625,-4.596 3.947,-6.18 4.113,-7.919 4.118,-9.777 3.962,-11.715 3.65,-13.695"
         style="fill:none;stroke:#000000;stroke-width:0.50999999;stroke-linecap:round;stroke-linejoin:round;stroke-miterlimit:10;stroke-dasharray:3.6, 1.8;stroke-dashoffset:-0.44400001;stroke-opacity:1"
         id="path1041"
         inkscape:connector-curvature="0" /></g><g
       id="g1043"
       transform="translate(258.5025,612.4344)"><path
         d="M 0,0 -0.278,0.159 -0.392,0.223 -0.335,0.19"
         style="fill:none;stroke:#000000;stroke-width:0.50999999;stroke-linecap:round;stroke-linejoin:round;stroke-miterlimit:10;stroke-dasharray:3.6, 1.8;stroke-dashoffset:0;stroke-opacity:1"
         id="path1045"
         inkscape:connector-curvature="0" /></g><g
       id="g1047"
       transform="translate(282.3635,590.4486)"><path
         d="m 0,0 3.816,-0.981 4.122,-0.411 3.818,-0.092 3.912,0.015 3.932,0.019 3.934,-0.029 3.88,0.036 3.743,0.25 2.756,0.443 2.589,0.75"
         style="fill:none;stroke:#000000;stroke-width:0.50999999;stroke-linecap:round;stroke-linejoin:round;stroke-miterlimit:10;stroke-dasharray:3.6, 1.8;stroke-dashoffset:-0.39899999;stroke-opacity:1"
         id="path1049"
         inkscape:connector-curvature="0" /></g><g
       id="g1051"
       transform="translate(197.1497,677.8106)"><path
         d="M 0,0 H 1.134"
         style="fill:none;stroke:#000000;stroke-width:0.50999999;stroke-linecap:round;stroke-linejoin:round;stroke-miterlimit:10;stroke-dasharray:3.6, 1.8;stroke-dashoffset:0;stroke-opacity:1"
         id="path1053"
         inkscape:connector-curvature="0" /></g><g
       id="g1063"
       transform="translate(198.2836,677.8106)"><path
         d="m 0,0 h 0.149 0.441 0.709 0.942 1.129 1.258 1.325 1.324 1.259 1.128 0.943 0.709 0.44 0.15"
         style="fill:none;stroke:#000000;stroke-width:0.50999999;stroke-linecap:round;stroke-linejoin:round;stroke-miterlimit:10;stroke-dasharray:3.6, 1.8;stroke-dashoffset:1.24699998;stroke-opacity:1"
         id="path1065"
         inkscape:connector-curvature="0" /></g><g
       id="g1067"
       transform="translate(210.1891,677.8106)"><path
         d="M 0,0 H 1.134"
         style="fill:none;stroke:#000000;stroke-width:0.50999999;stroke-linecap:round;stroke-linejoin:round;stroke-miterlimit:10;stroke-dasharray:3.6, 1.8;stroke-dashoffset:0;stroke-opacity:1"
         id="path1069"
         inkscape:connector-curvature="0" /></g><g
       id="g1071"
       transform="translate(391.0395,677.8106)"><path
         d="M 0,0 H -1.134"
         style="fill:none;stroke:#000000;stroke-width:0.50999999;stroke-linecap:round;stroke-linejoin:round;stroke-miterlimit:10;stroke-dasharray:3.6, 1.8;stroke-dashoffset:0;stroke-opacity:1"
         id="path1073"
         inkscape:connector-curvature="0" /></g><g
       id="g1083"
       transform="translate(404.0789,677.8106)"><path
         d="M 0,0 H -1.134"
         style="fill:none;stroke:#000000;stroke-width:0.50999999;stroke-linecap:round;stroke-linejoin:round;stroke-miterlimit:10;stroke-dasharray:3.6, 1.8;stroke-dashoffset:0;stroke-opacity:1"
         id="path1085"
         inkscape:connector-curvature="0" /></g><g
       id="g1087"
       transform="translate(391.0395,677.8106)"><path
         d="m 0,0 h 0.149 0.441 0.709 0.942 1.129 1.258 1.325 1.324 1.259 1.128 0.943 0.709 0.44 0.15"
         style="fill:none;stroke:#000000;stroke-width:0.50999999;stroke-linecap:round;stroke-linejoin:round;stroke-miterlimit:10;stroke-dasharray:3.6, 1.8;stroke-dashoffset:1.24699998;stroke-opacity:1"
         id="path1089"
         inkscape:connector-curvature="0" /></g><g
       id="g1091"
       transform="translate(211.323,694.8185)"><path
         d="m 0,0 h -0.459 -0.867 -1.063 -1.223 -1.341 -1.414 -1.439 -1.414 -1.341 -1.223 -1.063 -0.867 -0.459"
         style="fill:none;stroke:#000000;stroke-width:0.50999999;stroke-linecap:round;stroke-linejoin:round;stroke-miterlimit:10;stroke-dasharray:3.6, 1.8;stroke-dashoffset:0.113;stroke-opacity:1"
         id="path1093"
         inkscape:connector-curvature="0" /></g><g
       id="g1095"
       transform="translate(404.0789,694.8185)"><path
         d="m 0,0 h -0.459 -0.867 -1.063 -1.223 -1.341 -1.414 -1.439 -1.414 -1.341 -1.223 -1.063 -0.867 -0.459"
         style="fill:none;stroke:#000000;stroke-width:0.50999999;stroke-linecap:round;stroke-linejoin:round;stroke-miterlimit:10;stroke-dasharray:3.6, 1.8;stroke-dashoffset:0.113;stroke-opacity:1"
         id="path1097"
         inkscape:connector-curvature="0" /></g><g
       id="g1099"
       transform="translate(198.756,729.1177)"><path
         d="M 0,0 1.711,-0.414 3.246,-0.5 4.474,-0.356 5.841,0"
         style="fill:none;stroke:#000000;stroke-width:0.50999999;stroke-linecap:round;stroke-linejoin:round;stroke-miterlimit:10;stroke-dasharray:3.6, 1.8;stroke-dashoffset:1.52699995;stroke-opacity:1"
         id="path1101"
         inkscape:connector-curvature="0" /></g><g
       id="g1103"
       transform="translate(204.597,729.1177)"><path
         d="M 0,0 1.605,-0.414 3.046,-0.5 4.197,-0.356 5.48,0"
         style="fill:none;stroke:#000000;stroke-width:0.50999999;stroke-linecap:round;stroke-linejoin:round;stroke-miterlimit:10;stroke-dasharray:3.6, 1.8;stroke-dashoffset:2.796;stroke-opacity:1"
         id="path1105"
         inkscape:connector-curvature="0" /></g><g
       id="g1107"
       transform="translate(210.0774,729.1177)"><path
         d="M 0,0 -0.106,-0.414 -0.2,-0.5 -0.276,-0.356 -0.361,0"
         style="fill:none;stroke:#000000;stroke-width:0.50999999;stroke-linecap:round;stroke-linejoin:round;stroke-miterlimit:10;stroke-dasharray:3.6, 1.8;stroke-dashoffset:0;stroke-opacity:1"
         id="path1109"
         inkscape:connector-curvature="0" /></g><g
       id="g1111"
       transform="translate(209.7168,729.1177)"><path
         d="M 0,0 -1.711,-0.414 -3.246,-0.5 -4.474,-0.356 -5.841,0"
         style="fill:none;stroke:#000000;stroke-width:0.50999999;stroke-linecap:round;stroke-linejoin:round;stroke-miterlimit:10;stroke-dasharray:3.6, 1.8;stroke-dashoffset:1.52699995;stroke-opacity:1"
         id="path1113"
         inkscape:connector-curvature="0" /></g><g
       id="g1115"
       transform="translate(203.8758,729.1177)"><path
         d="M 0,0 -1.605,-0.414 -3.046,-0.5 -4.197,-0.356 -5.48,0"
         style="fill:none;stroke:#000000;stroke-width:0.50999999;stroke-linecap:round;stroke-linejoin:round;stroke-miterlimit:10;stroke-dasharray:3.6, 1.8;stroke-dashoffset:2.796;stroke-opacity:1"
         id="path1117"
         inkscape:connector-curvature="0" /></g><g
       id="g1119"
       transform="translate(198.3954,729.1177)"><path
         d="M 0,0 0.106,-0.414 0.2,-0.5 0.276,-0.356 0.361,0"
         style="fill:none;stroke:#000000;stroke-width:0.50999999;stroke-linecap:round;stroke-linejoin:round;stroke-miterlimit:10;stroke-dasharray:3.6, 1.8;stroke-dashoffset:0;stroke-opacity:1"
         id="path1121"
         inkscape:connector-curvature="0" /></g><g
       id="g1123"
       transform="translate(203.8758,736.2043)"><path
         d="M 0,0 V -7.087"
         style="fill:none;stroke:#000000;stroke-width:0.50999999;stroke-linecap:round;stroke-linejoin:round;stroke-miterlimit:10;stroke-dasharray:3.6, 1.8;stroke-dashoffset:0.95700002;stroke-opacity:1"
         id="path1125"
         inkscape:connector-curvature="0" /></g><g
       id="g1127"
       transform="translate(209.7168,736.2043)"><path
         d="M 0,0 V -7.087"
         style="fill:none;stroke:#000000;stroke-width:0.50999999;stroke-linecap:round;stroke-linejoin:round;stroke-miterlimit:10;stroke-dasharray:3.6, 1.8;stroke-dashoffset:0.95700002;stroke-opacity:1"
         id="path1129"
         inkscape:connector-curvature="0" /></g><g
       id="g1131"
       transform="translate(198.756,736.2043)"><path
         d="M 0,0 V -7.087"
         style="fill:none;stroke:#000000;stroke-width:0.50999999;stroke-linecap:round;stroke-linejoin:round;stroke-miterlimit:10;stroke-dasharray:3.6, 1.8;stroke-dashoffset:0.95700002;stroke-opacity:1"
         id="path1133"
         inkscape:connector-curvature="0" /></g><g
       id="g1135"
       transform="translate(198.3954,736.2043)"><path
         d="M 0,0 V -7.087"
         style="fill:none;stroke:#000000;stroke-width:0.50999999;stroke-linecap:round;stroke-linejoin:round;stroke-miterlimit:10;stroke-dasharray:3.6, 1.8;stroke-dashoffset:0.95700002;stroke-opacity:1"
         id="path1137"
         inkscape:connector-curvature="0" /></g><g
       id="g1139"
       transform="translate(204.597,736.2043)"><path
         d="M 0,0 V -7.087"
         style="fill:none;stroke:#000000;stroke-width:0.50999999;stroke-linecap:round;stroke-linejoin:round;stroke-miterlimit:10;stroke-dasharray:3.6, 1.8;stroke-dashoffset:0.95700002;stroke-opacity:1"
         id="path1141"
         inkscape:connector-curvature="0" /></g><g
       id="g1143"
       transform="translate(210.0774,736.2043)"><path
         d="M 0,0 V -7.087"
         style="fill:none;stroke:#000000;stroke-width:0.50999999;stroke-linecap:round;stroke-linejoin:round;stroke-miterlimit:10;stroke-dasharray:3.6, 1.8;stroke-dashoffset:0.95700002;stroke-opacity:1"
         id="path1145"
         inkscape:connector-curvature="0" /></g><g
       id="g1147"
       transform="translate(395.727,729.1177)"><path
         d="M 0,0 -1.444,-0.414 -2.74,-0.5 -3.776,-0.356 -4.93,0"
         style="fill:none;stroke:#000000;stroke-width:0.50999999;stroke-linecap:round;stroke-linejoin:round;stroke-miterlimit:10;stroke-dasharray:3.6, 1.8;stroke-dashoffset:2.52699995;stroke-opacity:1"
         id="path1149"
         inkscape:connector-curvature="0" /></g><g
       id="g1151"
       transform="translate(390.7972,729.1177)"><path
         d="M 0,0 0.371,-0.414 0.703,-0.5 0.969,-0.356 1.265,0"
         style="fill:none;stroke:#000000;stroke-width:0.50999999;stroke-linecap:round;stroke-linejoin:round;stroke-miterlimit:10;stroke-dasharray:3.6, 1.8;stroke-dashoffset:0;stroke-opacity:1"
         id="path1153"
         inkscape:connector-curvature="0" /></g><g
       id="g1155"
       transform="translate(392.0626,729.1177)"><path
         d="M 0,0 1.815,-0.414 3.443,-0.5 4.745,-0.356 6.195,0"
         style="fill:none;stroke:#000000;stroke-width:0.50999999;stroke-linecap:round;stroke-linejoin:round;stroke-miterlimit:10;stroke-dasharray:3.6, 1.8;stroke-dashoffset:1.35300004;stroke-opacity:1"
         id="path1157"
         inkscape:connector-curvature="0" /></g><g
       id="g1159"
       transform="translate(398.2576,729.1177)"><path
         d="M 0,0 1.444,-0.414 2.74,-0.5 3.776,-0.356 4.93,0"
         style="fill:none;stroke:#000000;stroke-width:0.50999999;stroke-linecap:round;stroke-linejoin:round;stroke-miterlimit:10;stroke-dasharray:3.6, 1.8;stroke-dashoffset:2.52699995;stroke-opacity:1"
         id="path1161"
         inkscape:connector-curvature="0" /></g><g
       id="g1163"
       transform="translate(403.1873,729.1177)"><path
         d="M 0,0 -0.371,-0.414 -0.703,-0.5 -0.969,-0.356 -1.265,0"
         style="fill:none;stroke:#000000;stroke-width:0.50999999;stroke-linecap:round;stroke-linejoin:round;stroke-miterlimit:10;stroke-dasharray:3.6, 1.8;stroke-dashoffset:0;stroke-opacity:1"
         id="path1165"
         inkscape:connector-curvature="0" /></g><g
       id="g1167"
       transform="translate(401.922,729.1177)"><path
         d="M 0,0 -1.815,-0.414 -3.443,-0.5 -4.745,-0.356 -6.195,0"
         style="fill:none;stroke:#000000;stroke-width:0.50999999;stroke-linecap:round;stroke-linejoin:round;stroke-miterlimit:10;stroke-dasharray:3.6, 1.8;stroke-dashoffset:1.35300004;stroke-opacity:1"
         id="path1169"
         inkscape:connector-curvature="0" /></g><g
       id="g1171"
       transform="translate(395.727,736.2043)"><path
         d="M 0,0 V -7.087"
         style="fill:none;stroke:#000000;stroke-width:0.50999999;stroke-linecap:round;stroke-linejoin:round;stroke-miterlimit:10;stroke-dasharray:3.6, 1.8;stroke-dashoffset:0.95700002;stroke-opacity:1"
         id="path1173"
         inkscape:connector-curvature="0" /></g><g
       id="g1175"
       transform="translate(401.922,736.2043)"><path
         d="M 0,0 V -7.087"
         style="fill:none;stroke:#000000;stroke-width:0.50999999;stroke-linecap:round;stroke-linejoin:round;stroke-miterlimit:10;stroke-dasharray:3.6, 1.8;stroke-dashoffset:0.95700002;stroke-opacity:1"
         id="path1177"
         inkscape:connector-curvature="0" /></g><g
       id="g1179"
       transform="translate(392.0626,736.2043)"><path
         d="M 0,0 V -7.087"
         style="fill:none;stroke:#000000;stroke-width:0.50999999;stroke-linecap:round;stroke-linejoin:round;stroke-miterlimit:10;stroke-dasharray:3.6, 1.8;stroke-dashoffset:0.95700002;stroke-opacity:1"
         id="path1181"
         inkscape:connector-curvature="0" /></g><g
       id="g1183"
       transform="translate(390.7972,736.2043)"><path
         d="M 0,0 V -7.087"
         style="fill:none;stroke:#000000;stroke-width:0.50999999;stroke-linecap:round;stroke-linejoin:round;stroke-miterlimit:10;stroke-dasharray:3.6, 1.8;stroke-dashoffset:0.95700002;stroke-opacity:1"
         id="path1185"
         inkscape:connector-curvature="0" /></g><g
       id="g1187"
       transform="translate(398.2576,736.2043)"><path
         d="M 0,0 V -7.087"
         style="fill:none;stroke:#000000;stroke-width:0.50999999;stroke-linecap:round;stroke-linejoin:round;stroke-miterlimit:10;stroke-dasharray:3.6, 1.8;stroke-dashoffset:0.95700002;stroke-opacity:1"
         id="path1189"
         inkscape:connector-curvature="0" /></g><g
       id="g1191"
       transform="translate(403.1873,736.2043)"><path
         d="M 0,0 V -7.087"
         style="fill:none;stroke:#000000;stroke-width:0.50999999;stroke-linecap:round;stroke-linejoin:round;stroke-miterlimit:10;stroke-dasharray:3.6, 1.8;stroke-dashoffset:0.95700002;stroke-opacity:1"
         id="path1193"
         inkscape:connector-curvature="0" /></g><g
       id="g1195"
       transform="translate(342.706,612.4106)"><path
         d="M 0,0 -0.06,-0.036"
         style="fill:none;stroke:#000000;stroke-width:0.50999999;stroke-linecap:round;stroke-linejoin:round;stroke-miterlimit:10;stroke-dasharray:3.6, 1.8;stroke-dashoffset:0;stroke-opacity:1"
         id="path1197"
         inkscape:connector-curvature="0" /></g><g
       id="g1199"
       transform="translate(198.5432,728.6252)"><path
         d="M 0,0 5.693,-3.287"
         style="fill:none;stroke:#000000;stroke-width:0.50999999;stroke-linecap:round;stroke-linejoin:round;stroke-miterlimit:10;stroke-dasharray:3.6, 1.8;stroke-dashoffset:1.21300006;stroke-opacity:1"
         id="path1201"
         inkscape:connector-curvature="0" /></g><g
       id="g1203"
       transform="translate(204.2364,725.3382)"><path
         d="M 0,0 5.693,3.287"
         style="fill:none;stroke:#000000;stroke-width:0.50999999;stroke-linecap:round;stroke-linejoin:round;stroke-miterlimit:10;stroke-dasharray:3.6, 1.8;stroke-dashoffset:1.21300006;stroke-opacity:1"
         id="path1205"
         inkscape:connector-curvature="0" /></g><g
       id="g1207"
       transform="translate(391.2141,728.6743)"><path
         d="M 0,0 5.778,-3.336"
         style="fill:none;stroke:#000000;stroke-width:0.50999999;stroke-linecap:round;stroke-linejoin:round;stroke-miterlimit:10;stroke-dasharray:3.6, 1.8;stroke-dashoffset:1.16400003;stroke-opacity:1"
         id="path1209"
         inkscape:connector-curvature="0" /></g><g
       id="g1211"
       transform="translate(396.9923,725.3382)"><path
         d="M 0,0 5.778,3.336"
         style="fill:none;stroke:#000000;stroke-width:0.50999999;stroke-linecap:round;stroke-linejoin:round;stroke-miterlimit:10;stroke-dasharray:3.6, 1.8;stroke-dashoffset:1.16400003;stroke-opacity:1"
         id="path1213"
         inkscape:connector-curvature="0" /></g><g
       id="g1215"
       transform="translate(318.8651,590.4486)"><path
         d="m 0,0 1.493,0.582 1.441,0.608 4.28,2.09 3.695,2.162 2.58,1.719 1.991,1.452 1.224,0.949 0.341,0.272 0.135,0.11 -0.011,-0.009"
         style="fill:none;stroke:#000000;stroke-width:0.50999999;stroke-linecap:round;stroke-linejoin:round;stroke-miterlimit:10;stroke-dasharray:3.6, 1.8;stroke-dashoffset:-0.074;stroke-opacity:1"
         id="path1217"
         inkscape:connector-curvature="0" /></g><g
       id="g1219"
       transform="translate(265.1847,600.3909)"><path
         d="m 0,0 -0.003,0.002 0.108,-0.086 0.322,-0.258 0.527,-0.415 0.755,-0.581 0.955,-0.71 0.553,-0.399 1.37,-0.952 1.576,-1.034 1.826,-1.116 2.023,-1.139 3.356,-1.671 3.811,-1.583"
         style="fill:none;stroke:#000000;stroke-width:0.50999999;stroke-linecap:round;stroke-linejoin:round;stroke-miterlimit:10;stroke-dasharray:3.6, 1.8;stroke-dashoffset:-0.07;stroke-opacity:1"
         id="path1221"
         inkscape:connector-curvature="0" /></g><g
       id="g1223"
       transform="translate(192.1891,734.9996)"><path
         d="m 0,0 h 0.018 0.234 0.496 0.749 0.985 1.199 1.385 1.541 1.663 1.747 1.793 1.798 1.763 1.689 1.576 1.43 1.25 1.044 0.813 0.564 0.304 0.053"
         style="fill:none;stroke:#000000;stroke-width:0.50999999;stroke-linecap:round;stroke-linejoin:round;stroke-miterlimit:10;stroke-dasharray:3.6, 1.8;stroke-dashoffset:0.55299997;stroke-opacity:1"
         id="path1225"
         inkscape:connector-curvature="0" /></g><g
       id="g1227"
       transform="translate(197.1497,721.3224)"><path
         d="m 0,0 h 0.122 0.39 0.642 0.87 1.065 1.218 1.325 1.381 1.384 1.334 1.232 1.083 0.892 0.667 0.417 0.151 v 0"
         style="fill:none;stroke:#000000;stroke-width:0.50999999;stroke-linecap:round;stroke-linejoin:round;stroke-miterlimit:10;stroke-dasharray:3.6, 1.8;stroke-dashoffset:0.113;stroke-opacity:1"
         id="path1229"
         inkscape:connector-curvature="0" /></g><g
       id="g1231"
       transform="translate(384.945,734.9996)"><path
         d="m 0,0 h 0.012 0.215 0.479 0.733 0.969 1.185 1.373 1.532 1.656 1.743 1.79 1.799 1.767 1.695 1.585 1.441 1.264 1.058 0.829 0.582 0.322 0.066"
         style="fill:none;stroke:#000000;stroke-width:0.50999999;stroke-linecap:round;stroke-linejoin:round;stroke-miterlimit:10;stroke-dasharray:3.6, 1.8;stroke-dashoffset:0.55299997;stroke-opacity:1"
         id="path1233"
         inkscape:connector-curvature="0" /></g><g
       id="g1235"
       transform="translate(389.9057,721.3224)"><path
         d="m 0,0 h 0.134 0.4 0.653 0.879 1.073 1.224 1.328 1.383 1.382 1.331 1.226 1.075 0.884 0.657 0.406 0.138 v 0"
         style="fill:none;stroke:#000000;stroke-width:0.50999999;stroke-linecap:round;stroke-linejoin:round;stroke-miterlimit:10;stroke-dasharray:3.6, 1.8;stroke-dashoffset:0.113;stroke-opacity:1"
         id="path1237"
         inkscape:connector-curvature="0" /></g></g></svg>