<?xml version="1.0" encoding="UTF-8" standalone="no"?>
<svg
   width="460.8pt"
   height="345.6pt"
   viewBox="0 0 460.8 345.6"
   version="1.1"
   id="svg472"
   sodipodi:docname="figomegar.svg"
   inkscape:version="1.2.2 (b0a8486541, 2022-12-01)"
   xmlns:inkscape="http://www.inkscape.org/namespaces/inkscape"
   xmlns:sodipodi="http://sodipodi.sourceforge.net/DTD/sodipodi-0.dtd"
   xmlns:xlink="http://www.w3.org/1999/xlink"
   xmlns="http://www.w3.org/2000/svg"
   xmlns:svg="http://www.w3.org/2000/svg"
   xmlns:rdf="http://www.w3.org/1999/02/22-rdf-syntax-ns#"
   xmlns:cc="http://creativecommons.org/ns#"
   xmlns:dc="http://purl.org/dc/elements/1.1/">
  <sodipodi:namedview
     id="namedview474"
     pagecolor="#ffffff"
     bordercolor="#000000"
     borderopacity="0.25"
     inkscape:showpageshadow="2"
     inkscape:pageopacity="0.0"
     inkscape:pagecheckerboard="0"
     inkscape:deskcolor="#d1d1d1"
     inkscape:document-units="pt"
     showgrid="false"
     inkscape:zoom="1.4366319"
     inkscape:cx="146.8713"
     inkscape:cy="364.39397"
     inkscape:window-width="1600"
     inkscape:window-height="831"
     inkscape:window-x="0"
     inkscape:window-y="32"
     inkscape:window-maximized="1"
     inkscape:current-layer="svg472" />
  <metadata
     id="metadata212">
    <rdf:RDF>
      <cc:Work>
        <dc:type
           rdf:resource="http://purl.org/dc/dcmitype/StillImage" />
        <dc:date>2025-11-26T14:44:46.890702</dc:date>
        <dc:format>image/svg+xml</dc:format>
        <dc:creator>
          <cc:Agent>
            <dc:title>Matplotlib v3.6.3, https://matplotlib.org/</dc:title>
          </cc:Agent>
        </dc:creator>
      </cc:Work>
    </rdf:RDF>
  </metadata>
  <defs
     id="defs216">
    <rect
       x="15.73631"
       y="228.36729"
       width="26.629405"
       height="27.24499"
       id="rect707" />
    <rect
       x="19.47104"
       y="233.74705"
       width="3.0590505"
       height="28.143269"
       id="rect701" />
    <style
       type="text/css"
       id="style214">*{stroke-linejoin: round; stroke-linecap: butt}</style>
  </defs>
  <g
     id="patch_1">
    <path
       d="M 0,345.6 H 460.8 V 0 H 0 Z"
       style="fill:#ffffff"
       id="path218" />
  </g>
  <g
     id="patch_2">
    <path
       d="M 57.6,307.584 H 414.72 V 41.472 H 57.6 Z"
       style="fill:#ffffff"
       id="path221" />
  </g>
  <g
     id="xtick_1">
    <g
       id="line2d_1">
      <defs
         id="defs225">
        <path
           id="m58b7a593f0"
           d="M 0,0 V 3.5"
           style="stroke:#000000;stroke-width:0.8" />
      </defs>
      <g
         id="g229">
        <use
           xlink:href="#m58b7a593f0"
           x="112.1511"
           y="307.58401"
           style="stroke:#000000;stroke-width:0.8"
           id="use227" />
      </g>
    </g>
    <g
       id="text_1">
      <!-- −0.4 -->
      <g
         transform="matrix(0.1,0,0,-0.1,100.00969,322.18244)"
         id="g246">
        <defs
           id="defs236">
          <path
             id="DejaVuSans-2212"
             d="M 678,2272 H 4684 V 1741 H 678 Z"
             transform="scale(0.015625)" />
          <path
             id="DejaVuSans-30"
             d="m 2034,4250 q -487,0 -733,-480 -245,-479 -245,-1442 0,-959 245,-1439 246,-480 733,-480 491,0 736,480 246,480 246,1439 0,963 -246,1442 -245,480 -736,480 z m 0,500 q 785,0 1199,-621 414,-620 414,-1801 0,-1178 -414,-1799 -414,-620 -1199,-620 -784,0 -1198,620 -414,621 -414,1799 0,1181 414,1801 414,621 1198,621 z"
             transform="scale(0.015625)" />
          <path
             id="DejaVuSans-2e"
             d="m 684,794 h 660 V 0 H 684 Z"
             transform="scale(0.015625)" />
          <path
             id="DejaVuSans-34"
             d="M 2419,4116 825,1625 h 1594 z m -166,550 h 794 V 1625 h 666 V 1100 H 3047 V 0 H 2419 V 1100 H 313 v 609 z"
             transform="scale(0.015625)" />
        </defs>
        <use
           xlink:href="#DejaVuSans-2212"
           id="use238" />
        <use
           xlink:href="#DejaVuSans-30"
           x="83.789062"
           id="use240" />
        <use
           xlink:href="#DejaVuSans-2e"
           x="147.41211"
           id="use242" />
        <use
           xlink:href="#DejaVuSans-34"
           x="179.19922"
           id="use244" />
      </g>
    </g>
  </g>
  <g
     id="xtick_2">
    <g
       id="line2d_2">
      <g
         id="g252">
        <use
           xlink:href="#m58b7a593f0"
           x="174.15555"
           y="307.58401"
           style="stroke:#000000;stroke-width:0.8"
           id="use250" />
      </g>
    </g>
    <g
       id="text_2">
      <!-- −0.2 -->
      <g
         transform="matrix(0.1,0,0,-0.1,162.01414,322.18244)"
         id="g266">
        <defs
           id="defs256">
          <path
             id="DejaVuSans-32"
             d="M 1228,531 H 3431 V 0 H 469 v 531 q 359,372 979,998 621,627 780,809 303,340 423,576 121,236 121,464 0,372 -261,606 -261,235 -680,235 -297,0 -627,-103 -329,-103 -704,-313 v 638 q 381,153 712,231 332,78 607,78 725,0 1156,-363 431,-362 431,-968 0,-288 -108,-546 -107,-257 -392,-607 -78,-91 -497,-524 Q 1991,1309 1228,531 Z"
             transform="scale(0.015625)" />
        </defs>
        <use
           xlink:href="#DejaVuSans-2212"
           id="use258" />
        <use
           xlink:href="#DejaVuSans-30"
           x="83.789062"
           id="use260" />
        <use
           xlink:href="#DejaVuSans-2e"
           x="147.41211"
           id="use262" />
        <use
           xlink:href="#DejaVuSans-32"
           x="179.19922"
           id="use264" />
      </g>
    </g>
  </g>
  <g
     id="xtick_3">
    <g
       id="line2d_3">
      <g
         id="g272">
        <use
           xlink:href="#m58b7a593f0"
           x="236.16"
           y="307.58401"
           style="stroke:#000000;stroke-width:0.8"
           id="use270" />
      </g>
    </g>
    <g
       id="text_3">
      <!-- 0.0 -->
      <g
         transform="matrix(0.1,0,0,-0.1,228.20844,322.18244)"
         id="g281">
        <use
           xlink:href="#DejaVuSans-30"
           id="use275" />
        <use
           xlink:href="#DejaVuSans-2e"
           x="63.623047"
           id="use277" />
        <use
           xlink:href="#DejaVuSans-30"
           x="95.410156"
           id="use279" />
      </g>
    </g>
  </g>
  <g
     id="xtick_4">
    <g
       id="line2d_4">
      <g
         id="g287">
        <use
           xlink:href="#m58b7a593f0"
           x="298.16446"
           y="307.58401"
           style="stroke:#000000;stroke-width:0.8"
           id="use285" />
      </g>
    </g>
    <g
       id="text_4">
      <!-- 0.2 -->
      <g
         transform="matrix(0.1,0,0,-0.1,290.21289,322.18244)"
         id="g296">
        <use
           xlink:href="#DejaVuSans-30"
           id="use290" />
        <use
           xlink:href="#DejaVuSans-2e"
           x="63.623047"
           id="use292" />
        <use
           xlink:href="#DejaVuSans-32"
           x="95.410156"
           id="use294" />
      </g>
    </g>
  </g>
  <g
     id="xtick_5">
    <g
       id="line2d_5">
      <g
         id="g302">
        <use
           xlink:href="#m58b7a593f0"
           x="360.16891"
           y="307.58401"
           style="stroke:#000000;stroke-width:0.8"
           id="use300" />
      </g>
    </g>
    <g
       id="text_5">
      <!-- 0.4 -->
      <g
         transform="matrix(0.1,0,0,-0.1,352.21734,322.18244)"
         id="g311">
        <use
           xlink:href="#DejaVuSans-30"
           id="use305" />
        <use
           xlink:href="#DejaVuSans-2e"
           x="63.623047"
           id="use307" />
        <use
           xlink:href="#DejaVuSans-34"
           x="95.410156"
           id="use309" />
      </g>
    </g>
  </g>
  <g
     id="ytick_1">
    <g
       id="line2d_6">
      <defs
         id="defs325">
        <path
           id="me26dc4d204"
           d="M 0,0 H -3.5"
           style="stroke:#000000;stroke-width:0.8" />
      </defs>
      <g
         id="g329">
        <use
           xlink:href="#me26dc4d204"
           x="57.599998"
           y="301.74893"
           style="stroke:#000000;stroke-width:0.8"
           id="use327" />
      </g>
    </g>
    <g
       id="text_7">
      <!-- 0.05 -->
      <g
         transform="matrix(0.1,0,0,-0.1,28.334375,305.54814)"
         id="g343">
        <defs
           id="defs333">
          <path
             id="DejaVuSans-35"
             d="M 691,4666 H 3169 V 4134 H 1269 V 2991 q 137,47 274,70 138,23 276,23 781,0 1237,-428 457,-428 457,-1159 Q 3513,744 3044,326 2575,-91 1722,-91 1428,-91 1123,-41 819,9 494,109 v 635 q 281,-153 581,-228 300,-75 634,-75 541,0 856,284 316,284 316,772 0,487 -316,771 -315,285 -856,285 -253,0 -505,-56 -251,-56 -513,-175 z"
             transform="scale(0.015625)" />
        </defs>
        <use
           xlink:href="#DejaVuSans-30"
           id="use335" />
        <use
           xlink:href="#DejaVuSans-2e"
           x="63.623047"
           id="use337" />
        <use
           xlink:href="#DejaVuSans-30"
           x="95.410156"
           id="use339" />
        <use
           xlink:href="#DejaVuSans-35"
           x="159.0332"
           id="use341" />
      </g>
    </g>
  </g>
  <g
     id="ytick_2">
    <g
       id="line2d_7">
      <g
         id="g349">
        <use
           xlink:href="#me26dc4d204"
           x="57.599998"
           y="254.88281"
           style="stroke:#000000;stroke-width:0.8"
           id="use347" />
      </g>
    </g>
    <g
       id="text_8">
      <!-- 0.10 -->
      <g
         transform="matrix(0.1,0,0,-0.1,28.334375,258.68204)"
         id="g363">
        <defs
           id="defs353">
          <path
             id="DejaVuSans-31"
             d="M 794,531 H 1825 V 4091 L 703,3866 v 575 l 1116,225 h 631 V 531 H 3481 V 0 H 794 Z"
             transform="scale(0.015625)" />
        </defs>
        <use
           xlink:href="#DejaVuSans-30"
           id="use355" />
        <use
           xlink:href="#DejaVuSans-2e"
           x="63.623047"
           id="use357" />
        <use
           xlink:href="#DejaVuSans-31"
           x="95.410156"
           id="use359" />
        <use
           xlink:href="#DejaVuSans-30"
           x="159.0332"
           id="use361" />
      </g>
    </g>
  </g>
  <g
     id="ytick_3">
    <g
       id="line2d_8">
      <g
         id="g369">
        <use
           xlink:href="#me26dc4d204"
           x="57.599998"
           y="208.01672"
           style="stroke:#000000;stroke-width:0.8"
           id="use367" />
      </g>
    </g>
    <g
       id="text_9">
      <!-- 0.15 -->
      <g
         transform="matrix(0.1,0,0,-0.1,28.334375,211.81594)"
         id="g380">
        <use
           xlink:href="#DejaVuSans-30"
           id="use372" />
        <use
           xlink:href="#DejaVuSans-2e"
           x="63.623047"
           id="use374" />
        <use
           xlink:href="#DejaVuSans-31"
           x="95.410156"
           id="use376" />
        <use
           xlink:href="#DejaVuSans-35"
           x="159.0332"
           id="use378" />
      </g>
    </g>
  </g>
  <g
     id="ytick_4">
    <g
       id="line2d_9">
      <g
         id="g386">
        <use
           xlink:href="#me26dc4d204"
           x="57.599998"
           y="161.15062"
           style="stroke:#000000;stroke-width:0.8"
           id="use384" />
      </g>
    </g>
    <g
       id="text_10">
      <!-- 0.20 -->
      <g
         transform="matrix(0.1,0,0,-0.1,28.334375,164.94984)"
         id="g397">
        <use
           xlink:href="#DejaVuSans-30"
           id="use389" />
        <use
           xlink:href="#DejaVuSans-2e"
           x="63.623047"
           id="use391" />
        <use
           xlink:href="#DejaVuSans-32"
           x="95.410156"
           id="use393" />
        <use
           xlink:href="#DejaVuSans-30"
           x="159.0332"
           id="use395" />
      </g>
    </g>
  </g>
  <g
     id="ytick_5">
    <g
       id="line2d_10">
      <g
         id="g403">
        <use
           xlink:href="#me26dc4d204"
           x="57.599998"
           y="114.28452"
           style="stroke:#000000;stroke-width:0.8"
           id="use401" />
      </g>
    </g>
    <g
       id="text_11">
      <!-- 0.25 -->
      <g
         transform="matrix(0.1,0,0,-0.1,28.334375,118.08374)"
         id="g414">
        <use
           xlink:href="#DejaVuSans-30"
           id="use406" />
        <use
           xlink:href="#DejaVuSans-2e"
           x="63.623047"
           id="use408" />
        <use
           xlink:href="#DejaVuSans-32"
           x="95.410156"
           id="use410" />
        <use
           xlink:href="#DejaVuSans-35"
           x="159.0332"
           id="use412" />
      </g>
    </g>
  </g>
  <g
     id="ytick_6">
    <g
       id="line2d_11">
      <g
         id="g420">
        <use
           xlink:href="#me26dc4d204"
           x="57.599998"
           y="67.418427"
           style="stroke:#000000;stroke-width:0.8"
           id="use418" />
      </g>
    </g>
    <g
       id="text_12">
      <!-- 0.30 -->
      <g
         transform="matrix(0.1,0,0,-0.1,28.334375,71.217642)"
         id="g434">
        <defs
           id="defs424">
          <path
             id="DejaVuSans-33"
             d="m 2597,2516 q 453,-97 707,-404 255,-306 255,-756 0,-690 -475,-1069 -475,-378 -1350,-378 -293,0 -604,58 -311,58 -642,174 v 609 q 262,-153 574,-231 313,-78 654,-78 593,0 904,234 311,234 311,681 0,413 -289,645 -289,233 -804,233 h -544 v 519 h 569 q 465,0 712,186 247,186 247,536 0,359 -255,551 -254,193 -729,193 -260,0 -557,-57 -297,-56 -653,-174 v 562 q 360,100 674,150 314,50 592,50 719,0 1137,-327 419,-326 419,-882 0,-388 -222,-655 -222,-267 -631,-370 z"
             transform="scale(0.015625)" />
        </defs>
        <use
           xlink:href="#DejaVuSans-30"
           id="use426" />
        <use
           xlink:href="#DejaVuSans-2e"
           x="63.623047"
           id="use428" />
        <use
           xlink:href="#DejaVuSans-33"
           x="95.410156"
           id="use430" />
        <use
           xlink:href="#DejaVuSans-30"
           x="159.0332"
           id="use432" />
      </g>
    </g>
  </g>
  <g
     id="line2d_12">
    <path
       d="m 73.832727,53.568 3.279339,32.663745 3.279339,102.690295 3.279339,15.50035 3.279339,6.68222 3.279338,7.32928 3.279339,5.15517 3.279339,13.33298 3.279341,-0.83882 3.27934,4.37682 3.27934,-1.34587 3.27934,4.04288 3.27933,4.82489 3.27934,4.86066 3.27934,0.63723 3.27934,2.70384 3.27934,-0.54288 3.27934,2.19123 3.27934,-0.5068 3.27933,2.36335 3.27934,2.17615 3.27934,2.25968 3.27934,0.81776 3.27934,0.40209 3.27934,0.77807 3.27934,0.61228 3.27934,0.37923 3.27934,0.72367 3.27933,1.56237 3.27934,0.0218 3.27934,2.50776 3.27934,-0.26307 3.27934,1.0348 3.27934,0.2959 3.27934,0.55147 3.27934,0.94122 3.27934,-0.20195 3.27933,0.98302 3.27934,-0.18237 3.27934,0.87316 3.27934,0.8312 3.27934,0.7917 3.27934,-0.13342 3.27934,0.81456 3.27934,-0.11594 3.27933,0.73914 3.27934,0.41247 3.27934,0.24169 3.27934,0.6804 3.27934,-0.0676 3.27934,0.66125 3.27934,0.64919 3.27934,-0.0406 3.27934,0.61074 3.27933,-0.0224 3.27934,0.59856 3.27934,0.45353 3.27934,0.11445 3.27934,0.44091 3.27934,0.0175 3.27934,0.44296 3.27934,0.22895 3.27934,0.52077 3.27933,0.22565 3.27934,0.41538 3.27934,0.068 3.27934,0.45872 3.27934,0.3993 3.27934,0.091 3.27934,0.42241 3.27934,0.10434 3.27934,0.39407 3.27933,0.12744 3.27934,0.38764 3.27934,0.381 3.27934,0.1425 3.27934,0.38364 3.27934,0.3484 3.27934,0.16431 3.27934,0.37253 3.27934,0.1798 3.27933,0.32526 3.27934,0.36273 3.27934,0.20125 3.27934,0.29772 3.27934,0.21383 3.27934,0.35129 3.27934,0.24063 3.27933,0.27145 3.27934,0.35621 3.27934,0.25606 3.27934,0.25772 3.27934,0.36788 3.27934,0.26527 3.27934,0.37387 3.27934,0.25084 3.27934,0.28118 3.27933,0.38045 3.27934,0.30713 3.27934,0.22946"
       clip-path="url(#p2719bf88ef)"
       style="fill:none;stroke:#1f77b4;stroke-width:1.5;stroke-linecap:square"
       id="path450" />
  </g>
  <g
     id="patch_3">
    <path
       d="M 57.6,307.584 V 41.472"
       style="fill:none;stroke:#000000;stroke-width:0.8;stroke-linecap:square;stroke-linejoin:miter"
       id="path453" />
  </g>
  <g
     id="patch_4">
    <path
       d="M 414.72,307.584 V 41.472"
       style="fill:none;stroke:#000000;stroke-width:0.8;stroke-linecap:square;stroke-linejoin:miter"
       id="path456" />
  </g>
  <g
     id="patch_5">
    <path
       d="M 57.6,307.584 H 414.72"
       style="fill:none;stroke:#000000;stroke-width:0.8;stroke-linecap:square;stroke-linejoin:miter"
       id="path459" />
  </g>
  <g
     id="patch_6">
    <path
       d="M 57.6,41.472 H 414.72"
       style="fill:none;stroke:#000000;stroke-width:0.8;stroke-linecap:square;stroke-linejoin:miter"
       id="path462" />
  </g>
  <defs
     id="defs470">
    <clipPath
       id="p2719bf88ef">
      <rect
         x="57.6"
         y="41.472"
         width="357.12"
         height="266.112"
         id="rect467" />
    </clipPath>
  </defs>
  <text
     xml:space="preserve"
     transform="scale(0.75)"
     id="text699"
     style="fill:none;font-size:26.66666667px;-inkscape-font-specification:'Arial Bold';font-family:Arial;stroke-linecap:round;font-weight:bold;stroke-width:4;white-space:pre;shape-inside:url(#rect701)" />
  <text
     xml:space="preserve"
     transform="scale(0.75)"
     id="text705"
     style="fill:none;font-size:26.66666667px;-inkscape-font-specification:'Arial Bold';font-family:Arial;stroke-linecap:round;font-weight:bold;stroke-width:4;white-space:pre;shape-inside:url(#rect707)" />
  <text
     xml:space="preserve"
     style="font-weight:bold;font-size:12px;font-family:Arial;-inkscape-font-specification:'Arial Bold';fill:none;stroke-width:3;stroke-linecap:round"
     x="-173.32161"
     y="18.241537"
     id="text1145"
     transform="rotate(-90)"><tspan
       sodipodi:role="line"
       id="tspan1143"
       style="font-style:normal;font-variant:normal;font-weight:normal;font-stretch:normal;font-size:12px;font-family:Arial;-inkscape-font-specification:Arial;fill:#000000;fill-opacity:1;stroke-width:3"
       x="-173.32161"
       y="18.241537">thetaR</tspan></text>
  <text
     xml:space="preserve"
     style="font-weight:bold;font-size:12px;font-family:Arial;-inkscape-font-specification:'Arial Bold';fill:none;stroke-width:3;stroke-linecap:round;stroke-linejoin:round"
     x="234.65352"
     y="334.32346"
     id="text1145-6"><tspan
       sodipodi:role="line"
       id="tspan1143-7"
       style="font-style:normal;font-variant:normal;font-weight:normal;font-stretch:normal;font-size:12px;font-family:Arial;-inkscape-font-specification:Arial;fill:#000000;fill-opacity:1;stroke-width:3"
       x="234.65352"
       y="334.32346">a</tspan></text>
</svg>
