<?xml version="1.0" encoding="UTF-8" standalone="no"?>
<svg
   width="460.8pt"
   height="345.6pt"
   viewBox="0 0 460.8 345.6"
   version="1.1"
   id="svg2736"
   sodipodi:docname="figthetaR.svg"
   inkscape:version="1.2.2 (b0a8486541, 2022-12-01)"
   xmlns:inkscape="http://www.inkscape.org/namespaces/inkscape"
   xmlns:sodipodi="http://sodipodi.sourceforge.net/DTD/sodipodi-0.dtd"
   xmlns:xlink="http://www.w3.org/1999/xlink"
   xmlns="http://www.w3.org/2000/svg"
   xmlns:svg="http://www.w3.org/2000/svg"
   xmlns:rdf="http://www.w3.org/1999/02/22-rdf-syntax-ns#"
   xmlns:cc="http://creativecommons.org/ns#"
   xmlns:dc="http://purl.org/dc/elements/1.1/">
  <sodipodi:namedview
     id="namedview2738"
     pagecolor="#ffffff"
     bordercolor="#000000"
     borderopacity="0.25"
     inkscape:showpageshadow="2"
     inkscape:pageopacity="0.0"
     inkscape:pagecheckerboard="0"
     inkscape:deskcolor="#d1d1d1"
     inkscape:document-units="pt"
     showgrid="false"
     inkscape:zoom="0.87902074"
     inkscape:cx="335.60073"
     inkscape:cy="198.51636"
     inkscape:window-width="1600"
     inkscape:window-height="831"
     inkscape:window-x="0"
     inkscape:window-y="32"
     inkscape:window-maximized="1"
     inkscape:current-layer="svg2736" />
  <metadata
     id="metadata2446">
    <rdf:RDF>
      <cc:Work>
        <dc:type
           rdf:resource="http://purl.org/dc/dcmitype/StillImage" />
        <dc:date>2025-11-26T14:44:34.020641</dc:date>
        <dc:format>image/svg+xml</dc:format>
        <dc:creator>
          <cc:Agent>
            <dc:title>Matplotlib v3.6.3, https://matplotlib.org/</dc:title>
          </cc:Agent>
        </dc:creator>
      </cc:Work>
    </rdf:RDF>
  </metadata>
  <defs
     id="defs2450">
    <style
       type="text/css"
       id="style2448">*{stroke-linejoin: round; stroke-linecap: butt}</style>
  </defs>
  <g
     id="patch_1">
    <path
       d="M 0,345.6 H 460.8 V 0 H 0 Z"
       style="fill:#ffffff"
       id="path2452" />
  </g>
  <g
     id="patch_2">
    <path
       d="M 57.6,307.584 H 414.72 V 41.472 H 57.6 Z"
       style="fill:#ffffff"
       id="path2455" />
  </g>
  <g
     id="xtick_1">
    <g
       id="line2d_1">
      <defs
         id="defs2459">
        <path
           id="m381e7286a4"
           d="M 0,0 V 3.5"
           style="stroke:#000000;stroke-width:0.8" />
      </defs>
      <g
         id="g2463">
        <use
           xlink:href="#m381e7286a4"
           x="112.1511"
           y="307.58401"
           style="stroke:#000000;stroke-width:0.8"
           id="use2461" />
      </g>
    </g>
    <g
       id="text_1">
      <!-- −0.4 -->
      <g
         transform="matrix(0.1,0,0,-0.1,100.00969,322.18244)"
         id="g2480">
        <defs
           id="defs2470">
          <path
             id="DejaVuSans-2212"
             d="M 678,2272 H 4684 V 1741 H 678 Z"
             transform="scale(0.015625)" />
          <path
             id="DejaVuSans-30"
             d="m 2034,4250 q -487,0 -733,-480 -245,-479 -245,-1442 0,-959 245,-1439 246,-480 733,-480 491,0 736,480 246,480 246,1439 0,963 -246,1442 -245,480 -736,480 z m 0,500 q 785,0 1199,-621 414,-620 414,-1801 0,-1178 -414,-1799 -414,-620 -1199,-620 -784,0 -1198,620 -414,621 -414,1799 0,1181 414,1801 414,621 1198,621 z"
             transform="scale(0.015625)" />
          <path
             id="DejaVuSans-2e"
             d="m 684,794 h 660 V 0 H 684 Z"
             transform="scale(0.015625)" />
          <path
             id="DejaVuSans-34"
             d="M 2419,4116 825,1625 h 1594 z m -166,550 h 794 V 1625 h 666 V 1100 H 3047 V 0 H 2419 V 1100 H 313 v 609 z"
             transform="scale(0.015625)" />
        </defs>
        <use
           xlink:href="#DejaVuSans-2212"
           id="use2472" />
        <use
           xlink:href="#DejaVuSans-30"
           x="83.789062"
           id="use2474" />
        <use
           xlink:href="#DejaVuSans-2e"
           x="147.41211"
           id="use2476" />
        <use
           xlink:href="#DejaVuSans-34"
           x="179.19922"
           id="use2478" />
      </g>
    </g>
  </g>
  <g
     id="xtick_2">
    <g
       id="line2d_2">
      <g
         id="g2486">
        <use
           xlink:href="#m381e7286a4"
           x="174.15555"
           y="307.58401"
           style="stroke:#000000;stroke-width:0.8"
           id="use2484" />
      </g>
    </g>
    <g
       id="text_2">
      <!-- −0.2 -->
      <g
         transform="matrix(0.1,0,0,-0.1,162.01414,322.18244)"
         id="g2500">
        <defs
           id="defs2490">
          <path
             id="DejaVuSans-32"
             d="M 1228,531 H 3431 V 0 H 469 v 531 q 359,372 979,998 621,627 780,809 303,340 423,576 121,236 121,464 0,372 -261,606 -261,235 -680,235 -297,0 -627,-103 -329,-103 -704,-313 v 638 q 381,153 712,231 332,78 607,78 725,0 1156,-363 431,-362 431,-968 0,-288 -108,-546 -107,-257 -392,-607 -78,-91 -497,-524 Q 1991,1309 1228,531 Z"
             transform="scale(0.015625)" />
        </defs>
        <use
           xlink:href="#DejaVuSans-2212"
           id="use2492" />
        <use
           xlink:href="#DejaVuSans-30"
           x="83.789062"
           id="use2494" />
        <use
           xlink:href="#DejaVuSans-2e"
           x="147.41211"
           id="use2496" />
        <use
           xlink:href="#DejaVuSans-32"
           x="179.19922"
           id="use2498" />
      </g>
    </g>
  </g>
  <g
     id="xtick_3">
    <g
       id="line2d_3">
      <g
         id="g2506">
        <use
           xlink:href="#m381e7286a4"
           x="236.16"
           y="307.58401"
           style="stroke:#000000;stroke-width:0.8"
           id="use2504" />
      </g>
    </g>
    <g
       id="text_3">
      <!-- 0.0 -->
      <g
         transform="matrix(0.1,0,0,-0.1,228.20844,322.18244)"
         id="g2515">
        <use
           xlink:href="#DejaVuSans-30"
           id="use2509" />
        <use
           xlink:href="#DejaVuSans-2e"
           x="63.623047"
           id="use2511" />
        <use
           xlink:href="#DejaVuSans-30"
           x="95.410156"
           id="use2513" />
      </g>
    </g>
  </g>
  <g
     id="xtick_4">
    <g
       id="line2d_4">
      <g
         id="g2521">
        <use
           xlink:href="#m381e7286a4"
           x="298.16446"
           y="307.58401"
           style="stroke:#000000;stroke-width:0.8"
           id="use2519" />
      </g>
    </g>
    <g
       id="text_4">
      <!-- 0.2 -->
      <g
         transform="matrix(0.1,0,0,-0.1,290.21289,322.18244)"
         id="g2530">
        <use
           xlink:href="#DejaVuSans-30"
           id="use2524" />
        <use
           xlink:href="#DejaVuSans-2e"
           x="63.623047"
           id="use2526" />
        <use
           xlink:href="#DejaVuSans-32"
           x="95.410156"
           id="use2528" />
      </g>
    </g>
  </g>
  <g
     id="xtick_5">
    <g
       id="line2d_5">
      <g
         id="g2536">
        <use
           xlink:href="#m381e7286a4"
           x="360.16891"
           y="307.58401"
           style="stroke:#000000;stroke-width:0.8"
           id="use2534" />
      </g>
    </g>
    <g
       id="text_5">
      <!-- 0.4 -->
      <g
         transform="matrix(0.1,0,0,-0.1,352.21734,322.18244)"
         id="g2545">
        <use
           xlink:href="#DejaVuSans-30"
           id="use2539" />
        <use
           xlink:href="#DejaVuSans-2e"
           x="63.623047"
           id="use2541" />
        <use
           xlink:href="#DejaVuSans-34"
           x="95.410156"
           id="use2543" />
      </g>
    </g>
  </g>
  <g
     id="matplotlib.axis_2">
    <g
       id="ytick_1">
      <g
         id="line2d_6">
        <defs
           id="defs2559">
          <path
             id="m9248399ca8"
             d="M 0,0 H -3.5"
             style="stroke:#000000;stroke-width:0.8" />
        </defs>
        <g
           id="g2563">
          <use
             xlink:href="#m9248399ca8"
             x="57.599998"
             y="295.14841"
             style="stroke:#000000;stroke-width:0.8"
             id="use2561" />
        </g>
      </g>
      <g
         id="text_7">
        <!-- −0.8 -->
        <g
           transform="matrix(0.1,0,0,-0.1,26.317187,298.94763)"
           id="g2577">
          <defs
             id="defs2567">
            <path
               id="DejaVuSans-38"
               d="m 2034,2216 q -450,0 -708,-241 -257,-241 -257,-662 0,-422 257,-663 258,-241 708,-241 450,0 709,242 260,243 260,662 0,421 -258,662 -257,241 -711,241 z m -631,268 q -406,100 -633,378 -226,279 -226,679 0,559 398,884 399,325 1092,325 697,0 1094,-325 397,-325 397,-884 0,-400 -227,-679 -226,-278 -629,-378 456,-106 710,-416 255,-309 255,-755 Q 3634,634 3220,271 2806,-91 2034,-91 1263,-91 848,271 434,634 434,1313 q 0,446 256,755 257,310 713,416 z m -231,997 q 0,-362 226,-565 227,-203 636,-203 407,0 636,203 230,203 230,565 0,363 -230,566 -229,203 -636,203 -409,0 -636,-203 -226,-203 -226,-566 z"
               transform="scale(0.015625)" />
          </defs>
          <use
             xlink:href="#DejaVuSans-2212"
             id="use2569" />
          <use
             xlink:href="#DejaVuSans-30"
             x="83.789062"
             id="use2571" />
          <use
             xlink:href="#DejaVuSans-2e"
             x="147.41211"
             id="use2573" />
          <use
             xlink:href="#DejaVuSans-38"
             x="179.19922"
             id="use2575" />
        </g>
      </g>
    </g>
    <g
       id="ytick_2">
      <g
         id="line2d_7">
        <g
           id="g2583">
          <use
             xlink:href="#m9248399ca8"
             x="57.599998"
             y="257.28311"
             style="stroke:#000000;stroke-width:0.8"
             id="use2581" />
        </g>
      </g>
      <g
         id="text_8">
        <!-- −0.6 -->
        <g
           transform="matrix(0.1,0,0,-0.1,26.317187,261.08233)"
           id="g2597">
          <defs
             id="defs2587">
            <path
               id="DejaVuSans-36"
               d="m 2113,2584 q -425,0 -674,-291 -248,-290 -248,-796 0,-503 248,-796 249,-292 674,-292 425,0 673,292 248,293 248,796 0,506 -248,796 -248,291 -673,291 z m 1253,1979 v -575 q -238,112 -480,171 -242,60 -480,60 -625,0 -955,-422 -329,-422 -376,-1275 184,272 462,417 279,145 613,145 703,0 1111,-427 408,-426 408,-1160 0,-719 -425,-1154 -425,-434 -1131,-434 -810,0 -1238,620 -428,621 -428,1799 0,1106 525,1764 525,658 1409,658 238,0 480,-47 242,-47 505,-140 z"
               transform="scale(0.015625)" />
          </defs>
          <use
             xlink:href="#DejaVuSans-2212"
             id="use2589" />
          <use
             xlink:href="#DejaVuSans-30"
             x="83.789062"
             id="use2591" />
          <use
             xlink:href="#DejaVuSans-2e"
             x="147.41211"
             id="use2593" />
          <use
             xlink:href="#DejaVuSans-36"
             x="179.19922"
             id="use2595" />
        </g>
      </g>
    </g>
    <g
       id="ytick_3">
      <g
         id="line2d_8">
        <g
           id="g2603">
          <use
             xlink:href="#m9248399ca8"
             x="57.599998"
             y="219.4178"
             style="stroke:#000000;stroke-width:0.8"
             id="use2601" />
        </g>
      </g>
      <g
         id="text_9">
        <!-- −0.4 -->
        <g
           transform="matrix(0.1,0,0,-0.1,26.317187,223.21703)"
           id="g2614">
          <use
             xlink:href="#DejaVuSans-2212"
             id="use2606" />
          <use
             xlink:href="#DejaVuSans-30"
             x="83.789062"
             id="use2608" />
          <use
             xlink:href="#DejaVuSans-2e"
             x="147.41211"
             id="use2610" />
          <use
             xlink:href="#DejaVuSans-34"
             x="179.19922"
             id="use2612" />
        </g>
      </g>
    </g>
    <g
       id="ytick_4">
      <g
         id="line2d_9">
        <g
           id="g2620">
          <use
             xlink:href="#m9248399ca8"
             x="57.599998"
             y="181.55251"
             style="stroke:#000000;stroke-width:0.8"
             id="use2618" />
        </g>
      </g>
      <g
         id="text_10">
        <!-- −0.2 -->
        <g
           transform="matrix(0.1,0,0,-0.1,26.317187,185.35172)"
           id="g2631">
          <use
             xlink:href="#DejaVuSans-2212"
             id="use2623" />
          <use
             xlink:href="#DejaVuSans-30"
             x="83.789062"
             id="use2625" />
          <use
             xlink:href="#DejaVuSans-2e"
             x="147.41211"
             id="use2627" />
          <use
             xlink:href="#DejaVuSans-32"
             x="179.19922"
             id="use2629" />
        </g>
      </g>
    </g>
    <g
       id="ytick_5">
      <g
         id="line2d_10">
        <g
           id="g2637">
          <use
             xlink:href="#m9248399ca8"
             x="57.599998"
             y="143.68721"
             style="stroke:#000000;stroke-width:0.8"
             id="use2635" />
        </g>
      </g>
      <g
         id="text_11">
        <!-- 0.0 -->
        <g
           transform="matrix(0.1,0,0,-0.1,34.696875,147.48642)"
           id="g2646">
          <use
             xlink:href="#DejaVuSans-30"
             id="use2640" />
          <use
             xlink:href="#DejaVuSans-2e"
             x="63.623047"
             id="use2642" />
          <use
             xlink:href="#DejaVuSans-30"
             x="95.410156"
             id="use2644" />
        </g>
      </g>
    </g>
    <g
       id="ytick_6">
      <g
         id="line2d_11">
        <g
           id="g2652">
          <use
             xlink:href="#m9248399ca8"
             x="57.599998"
             y="105.82191"
             style="stroke:#000000;stroke-width:0.8"
             id="use2650" />
        </g>
      </g>
      <g
         id="text_12">
        <!-- 0.2 -->
        <g
           transform="matrix(0.1,0,0,-0.1,34.696875,109.62112)"
           id="g2661">
          <use
             xlink:href="#DejaVuSans-30"
             id="use2655" />
          <use
             xlink:href="#DejaVuSans-2e"
             x="63.623047"
             id="use2657" />
          <use
             xlink:href="#DejaVuSans-32"
             x="95.410156"
             id="use2659" />
        </g>
      </g>
    </g>
    <g
       id="ytick_7">
      <g
         id="line2d_12">
        <g
           id="g2667">
          <use
             xlink:href="#m9248399ca8"
             x="57.599998"
             y="67.956604"
             style="stroke:#000000;stroke-width:0.8"
             id="use2665" />
        </g>
      </g>
      <g
         id="text_13">
        <!-- 0.4 -->
        <g
           transform="matrix(0.1,0,0,-0.1,34.696875,71.755822)"
           id="g2676">
          <use
             xlink:href="#DejaVuSans-30"
             id="use2670" />
          <use
             xlink:href="#DejaVuSans-2e"
             x="63.623047"
             id="use2672" />
          <use
             xlink:href="#DejaVuSans-34"
             x="95.410156"
             id="use2674" />
        </g>
      </g>
    </g>
  </g>
  <g
     id="line2d_13">
    <path
       d="m 73.832727,98.427338 3.279339,0.801059 3.279339,5.607413 3.279339,1.60212 3.279339,0.80106 3.279338,0.80106 3.279339,0.80106 3.279339,2.40318 h 3.279341 l 3.27934,0.80106 3.27934,-0.80106 3.27934,0.80106 3.27933,1.60212 3.27934,1.60212 h 3.27934 l 3.27934,0.80106 h 3.27934 3.27934 3.27934 l 3.27933,0.80106 3.27934,0.80106 3.27934,1.60212 h 3.27934 3.27934 3.27934 l 3.27934,0.80106 h 3.27934 3.27934 l 3.27933,0.80106 h 3.27934 l 3.27934,1.60212 h 3.27934 l 3.27934,0.80106 h 3.27934 3.27934 l 3.27934,0.80106 h 3.27934 3.27933 3.27934 l 3.27934,0.80106 3.27934,0.80105 3.27934,0.80106 h 3.27934 3.27934 3.27934 l 3.27933,0.80106 h 3.27934 3.27934 l 3.27934,0.80106 h 3.27934 l 3.27934,0.80106 h 3.27934 3.27934 l 3.27934,0.80106 h 3.27933 3.27934 l 3.27934,0.80106 h 3.27934 3.27934 3.27934 l 3.27934,0.80106 h 3.27934 l 3.27934,0.80106 h 3.27933 l 3.27934,0.80106 h 3.27934 3.27934 l 3.27934,0.80106 h 3.27934 3.27934 3.27934 l 3.27934,0.80106 3.27933,-0.80106 3.27934,0.80106 3.27934,0.80106 h 3.27934 l 3.27934,0.80106 h 3.27934 3.27934 l 3.27934,0.80106 h 3.27934 3.27933 l 3.27934,0.80106 h 3.27934 3.27934 3.27934 l 3.27934,0.80106 h 3.27934 3.27933 l 3.27934,0.80106 h 3.27934 3.27934 l 3.27934,0.80106 h 3.27934 l 3.27934,0.80106 h 3.27934 3.27934 l 3.27933,0.80106 h 3.27934 3.27934"
       clip-path="url(#pd6f49c4f31)"
       style="fill:none;stroke:#1f77b4;stroke-width:1.5;stroke-linecap:square"
       id="path2681" />
  </g>
  <g
     id="line2d_14">
    <path
       d="m 73.832727,295.488 3.279339,-3.20424 3.279339,-17.62331 3.279339,-5.60742 3.279339,-3.20424 3.279338,-4.00529 3.279339,-3.20424 3.279339,-8.81166 h 3.279341 l 3.27934,-4.0053 h 3.27934 l 3.27934,-4.00529 3.27933,-4.80636 3.27934,-5.60742 3.27934,-1.60212 3.27934,-4.0053 h 3.27934 l 3.27934,-4.00529 h 3.27934 l 3.27933,-4.0053 3.27934,-4.0053 3.27934,-4.0053 3.27934,-2.40318 3.27934,-1.60212 3.27934,-2.40317 3.27934,-1.60212 3.27934,-1.60212 3.27934,-2.40318 3.27933,-4.0053 3.27934,-0.80106 3.27934,-6.40848 h 3.27934 l 3.27934,-3.20423 3.27934,-1.60212 3.27934,-2.40318 3.27934,-3.20424 h 3.27934 l 3.27933,-4.0053 h 3.27934 l 3.27934,-3.20424 3.27934,-3.20424 3.27934,-3.20423 h 3.27934 l 3.27934,-4.0053 h 3.27934 l 3.27933,-3.20424 3.27934,-2.40318 3.27934,-1.60212 3.27934,-3.20424 h 3.27934 l 3.27934,-3.20424 3.27934,-4.00529 h 3.27934 l 3.27934,-3.20424 h 3.27933 l 3.27934,-4.0053 3.27934,-2.40318 3.27934,-0.80106 3.27934,-3.20424 h 3.27934 l 3.27934,-2.40317 3.27934,-1.60212 3.27934,-3.20424 3.27933,-1.60212 3.27934,-2.40318 h 3.27934 l 3.27934,-4.0053 3.27934,-2.40318 h 3.27934 l 3.27934,-4.0053 h 3.27934 l 3.27934,-2.40318 3.27933,-1.60211 3.27934,-2.403183 3.27934,-2.403178 h 3.27934 l 3.27934,-2.403179 3.27934,-4.005298 h 3.27934 l 3.27934,-2.403179 h 3.27934 l 3.27933,-4.005298 3.27934,-2.403179 h 3.27934 l 3.27934,-4.005298 h 3.27934 l 3.27934,-1.602119 3.27934,-0.80106 3.27933,-3.204238 3.27934,-1.602119 3.27934,-1.60212 3.27934,-2.403178 h 3.27934 l 3.27934,-1.60212 3.27934,-1.602119 3.27934,-3.204238 3.27934,-0.80106 3.27933,-1.602119 h 3.27934 L 398.48727,53.568"
       clip-path="url(#pd6f49c4f31)"
       style="fill:none;stroke:#ff7f0e;stroke-width:1.5;stroke-linecap:square"
       id="path2684" />
  </g>
  <g
     id="patch_3">
    <path
       d="M 57.6,307.584 V 41.472"
       style="fill:none;stroke:#000000;stroke-width:0.8;stroke-linecap:square;stroke-linejoin:miter"
       id="path2687" />
  </g>
  <g
     id="patch_4">
    <path
       d="M 414.72,307.584 V 41.472"
       style="fill:none;stroke:#000000;stroke-width:0.8;stroke-linecap:square;stroke-linejoin:miter"
       id="path2690" />
  </g>
  <g
     id="patch_5">
    <path
       d="M 57.6,307.584 H 414.72"
       style="fill:none;stroke:#000000;stroke-width:0.8;stroke-linecap:square;stroke-linejoin:miter"
       id="path2693" />
  </g>
  <g
     id="patch_6">
    <path
       d="M 57.6,41.472 H 414.72"
       style="fill:none;stroke:#000000;stroke-width:0.8;stroke-linecap:square;stroke-linejoin:miter"
       id="path2696" />
  </g>
  <g
     id="legend_1">
    <g
       id="patch_7">
      <path
         d="m 64.6,78.82825 h 43.3 q 2,0 2,-2 V 48.472 q 0,-2 -2,-2 H 64.6 q -2,0 -2,2 v 28.35625 q 0,2 2,2 z"
         style="opacity:0.8;fill:#ffffff;stroke:#cccccc;stroke-linejoin:miter"
         id="path2699" />
    </g>
    <g
       id="line2d_15">
      <path
         d="m 66.6,54.570437 h 10 10"
         style="fill:none;stroke:#1f77b4;stroke-width:1.5;stroke-linecap:square"
         id="path2702" />
    </g>
    <g
       id="text_14">
      <!-- $\theta_4$ -->
      <g
         transform="matrix(0.1,0,0,-0.1,94.6,58.070437)"
         id="g2712">
        <defs
           id="defs2706">
          <path
             id="DejaVuSans-Oblique-3b8"
             d="M 2913,2219 H 925 q -134,-935 3,-1331 172,-488 638,-488 468,0 825,491 312,431 522,1328 z m 96,531 q 85,888 -25,1200 -171,494 -631,494 -478,0 -828,-488 -275,-393 -491,-1206 z m -565,2163 q 750,0 1050,-663 300,-659 72,-1828 Q 3341,1256 2781,594 2225,-72 1475,-72 722,-72 425,594 q -297,662 -72,1828 228,1169 781,1828 557,663 1310,663 z"
             transform="scale(0.015625)" />
        </defs>
        <use
           xlink:href="#DejaVuSans-Oblique-3b8"
           transform="translate(0,0.234375)"
           id="use2708" />
        <use
           xlink:href="#DejaVuSans-34"
           transform="matrix(0.7,0,0,0.7,61.181641,-16.171875)"
           id="use2710" />
      </g>
    </g>
    <g
       id="line2d_16">
      <path
         d="m 66.6,69.248562 h 10 10"
         style="fill:none;stroke:#ff7f0e;stroke-width:1.5;stroke-linecap:square"
         id="path2715" />
    </g>
    <g
       id="text_15">
      <!-- $\theta_R$ -->
      <g
         transform="matrix(0.1,0,0,-0.1,94.6,72.748562)"
         id="g2725">
        <defs
           id="defs2719">
          <path
             id="DejaVuSans-Oblique-52"
             d="M 1613,4147 1294,2491 h 812 q 478,0 773,264 296,264 296,689 0,340 -199,521 -198,182 -570,182 z M 2772,2241 q 200,-47 333,-232 133,-184 308,-734 L 3809,0 h -665 l -366,1197 q -140,462 -325,618 -184,157 -565,157 H 1191 L 806,0 H 172 l 909,4666 h 1422 q 647,0 992,-293 346,-292 346,-842 0,-487 -294,-844 -294,-356 -775,-446 z"
             transform="scale(0.015625)" />
        </defs>
        <use
           xlink:href="#DejaVuSans-Oblique-3b8"
           transform="translate(0,0.234375)"
           id="use2721" />
        <use
           xlink:href="#DejaVuSans-Oblique-52"
           transform="matrix(0.7,0,0,0.7,61.181641,-16.171875)"
           id="use2723" />
      </g>
    </g>
  </g>
  <defs
     id="defs2734">
    <clipPath
       id="pd6f49c4f31">
      <rect
         x="57.6"
         y="41.472"
         width="357.12"
         height="266.112"
         id="rect2731" />
    </clipPath>
  </defs>
  <text
     xml:space="preserve"
     style="font-weight:bold;font-size:12px;font-family:Arial;-inkscape-font-specification:'Arial Bold';fill:none;stroke-width:3;stroke-linecap:round;stroke-linejoin:round"
     x="232.63126"
     y="336.06204"
     id="text1145-6"><tspan
       sodipodi:role="line"
       id="tspan1143-7"
       style="font-style:normal;font-variant:normal;font-weight:normal;font-stretch:normal;font-size:12px;font-family:Arial;-inkscape-font-specification:Arial;fill:#000000;fill-opacity:1;stroke-width:3"
       x="232.63126"
       y="336.06204">a</tspan></text>
</svg>
