<?xml version="1.0" encoding="UTF-8" standalone="no"?>
<!-- Created with Inkscape (http://www.inkscape.org/) -->

<svg
   xmlns:dc="http://purl.org/dc/elements/1.1/"
   xmlns:cc="http://creativecommons.org/ns#"
   xmlns:rdf="http://www.w3.org/1999/02/22-rdf-syntax-ns#"
   xmlns:svg="http://www.w3.org/2000/svg"
   xmlns="http://www.w3.org/2000/svg"
   xmlns:sodipodi="http://sodipodi.sourceforge.net/DTD/sodipodi-0.dtd"
   xmlns:inkscape="http://www.inkscape.org/namespaces/inkscape"
   width="1920"
   height="1080"
   viewBox="0 0 507.99998 285.75001"
   version="1.1"
   id="svg1390"
   inkscape:version="0.92.5 (2060ec1f9f, 2020-04-08)"
   sodipodi:docname="page_49.svg">
  <defs
     id="defs1384">
    <clipPath
       clipPathUnits="userSpaceOnUse"
       id="clipPath4398">
      <path
         d="M -6.1035e-5,540 H 960 V 6.1035e-5 H -3.0518e-5"
         id="path4400"
         inkscape:connector-curvature="0"
         style="clip-rule:evenodd" />
    </clipPath>
    <clipPath
       clipPathUnits="userSpaceOnUse"
       id="clipPath4388">
      <path
         d="M -6.1035e-5,540 H 960 V 6.1035e-5 H -3.0518e-5"
         id="path4390"
         inkscape:connector-curvature="0"
         style="clip-rule:evenodd" />
    </clipPath>
    <clipPath
       clipPathUnits="userSpaceOnUse"
       id="clipPath4378">
      <path
         d="M -1.5259e-5,540 H 960 V 0 H 3.0518e-5"
         id="path4380"
         inkscape:connector-curvature="0"
         style="clip-rule:evenodd" />
    </clipPath>
    <clipPath
       clipPathUnits="userSpaceOnUse"
       id="clipPath4368">
      <path
         d="M -1.5259e-5,540 H 960 V 0 H 3.0518e-5"
         id="path4370"
         inkscape:connector-curvature="0"
         style="clip-rule:evenodd" />
    </clipPath>
    <clipPath
       clipPathUnits="userSpaceOnUse"
       id="clipPath4358">
      <path
         d="M 0,540 H 960 V 6.1035e-5 L 0,1.8311e-4"
         id="path4360"
         inkscape:connector-curvature="0"
         style="clip-rule:evenodd" />
    </clipPath>
    <clipPath
       clipPathUnits="userSpaceOnUse"
       id="clipPath4348">
      <path
         d="M 0,540 H 960 V 6.1035e-5 L 0,1.8311e-4"
         id="path4350"
         inkscape:connector-curvature="0"
         style="clip-rule:evenodd" />
    </clipPath>
    <clipPath
       clipPathUnits="userSpaceOnUse"
       id="clipPath4338">
      <path
         d="M 0,540 H 960 V 0 L 0,1.2207e-4"
         id="path4340"
         inkscape:connector-curvature="0"
         style="clip-rule:evenodd" />
    </clipPath>
    <clipPath
       clipPathUnits="userSpaceOnUse"
       id="clipPath4328">
      <path
         d="M 0,540 H 960 V 0 L 0,1.2207e-4"
         id="path4330"
         inkscape:connector-curvature="0"
         style="clip-rule:evenodd" />
    </clipPath>
    <clipPath
       clipPathUnits="userSpaceOnUse"
       id="clipPath4318">
      <path
         d="M 0,540 H 960 V 3.0518e-4 L 3.0518e-5,2.4414e-4"
         id="path4320"
         inkscape:connector-curvature="0"
         style="clip-rule:evenodd" />
    </clipPath>
    <clipPath
       clipPathUnits="userSpaceOnUse"
       id="clipPath4308">
      <path
         d="M 0,540 H 960 V 3.0518e-4 L 3.0518e-5,2.4414e-4"
         id="path4310"
         inkscape:connector-curvature="0"
         style="clip-rule:evenodd" />
    </clipPath>
    <clipPath
       clipPathUnits="userSpaceOnUse"
       id="clipPath4298">
      <path
         d="M 0,540 H 960 V 1.8311e-4 H 3.0518e-5"
         id="path4300"
         inkscape:connector-curvature="0"
         style="clip-rule:evenodd" />
    </clipPath>
    <clipPath
       clipPathUnits="userSpaceOnUse"
       id="clipPath4288">
      <path
         d="M 0,540 H 960 V 1.8311e-4 H 3.0518e-5"
         id="path4290"
         inkscape:connector-curvature="0"
         style="clip-rule:evenodd" />
    </clipPath>
    <clipPath
       clipPathUnits="userSpaceOnUse"
       id="clipPath4278">
      <path
         d="M 3.0518e-5,540 H 960 V 3.6621e-4 L 6.1035e-5,2.4414e-4"
         id="path4280"
         inkscape:connector-curvature="0"
         style="clip-rule:evenodd" />
    </clipPath>
    <clipPath
       clipPathUnits="userSpaceOnUse"
       id="clipPath4268">
      <path
         d="M 3.0518e-5,540 H 960 V 3.6621e-4 L 6.1035e-5,2.4414e-4"
         id="path4270"
         inkscape:connector-curvature="0"
         style="clip-rule:evenodd" />
    </clipPath>
    <clipPath
       clipPathUnits="userSpaceOnUse"
       id="clipPath4258">
      <path
         d="M 3.0518e-5,540 H 960 V 3.0518e-4 L 6.1035e-5,1.8311e-4"
         id="path4260"
         inkscape:connector-curvature="0"
         style="clip-rule:evenodd" />
    </clipPath>
    <clipPath
       clipPathUnits="userSpaceOnUse"
       id="clipPath4248">
      <path
         d="M 3.0518e-5,540 H 960 V 3.0518e-4 L 6.1035e-5,1.8311e-4"
         id="path4250"
         inkscape:connector-curvature="0"
         style="clip-rule:evenodd" />
    </clipPath>
    <clipPath
       clipPathUnits="userSpaceOnUse"
       id="clipPath4238">
      <path
         d="M -1.5259e-5,540 H 960 V 1.8311e-4 L 0,1.2207e-4"
         id="path4240"
         inkscape:connector-curvature="0"
         style="clip-rule:evenodd" />
    </clipPath>
    <clipPath
       clipPathUnits="userSpaceOnUse"
       id="clipPath4228">
      <path
         d="M -1.5259e-5,540 H 960 V 1.8311e-4 L 0,1.2207e-4"
         id="path4230"
         inkscape:connector-curvature="0"
         style="clip-rule:evenodd" />
    </clipPath>
    <clipPath
       clipPathUnits="userSpaceOnUse"
       id="clipPath4218">
      <path
         d="M -6.1035e-5,540 H 960 V 1.8311e-4 H 0"
         id="path4220"
         inkscape:connector-curvature="0"
         style="clip-rule:evenodd" />
    </clipPath>
    <clipPath
       clipPathUnits="userSpaceOnUse"
       id="clipPath4208">
      <path
         d="M -6.1035e-5,540 H 960 V 1.8311e-4 H 0"
         id="path4210"
         inkscape:connector-curvature="0"
         style="clip-rule:evenodd" />
    </clipPath>
    <clipPath
       clipPathUnits="userSpaceOnUse"
       id="clipPath4170">
      <path
         d="M 0,1.2207e-4 H 960 V 540.00012 H 0 Z"
         id="path4172"
         inkscape:connector-curvature="0"
         style="clip-rule:evenodd" />
    </clipPath>
    <clipPath
       clipPathUnits="userSpaceOnUse"
       id="clipPath4160">
      <path
         d="M 0,1.2207e-4 H 960 V 540.00012 H 0 Z"
         id="path4162"
         inkscape:connector-curvature="0"
         style="clip-rule:evenodd" />
    </clipPath>
    <font
       horiz-adv-x="1024"
       id="font4670"
       inkscape:label="fonte 1">
      <font-face
         units-per-em="1024"
         id="font-face4672"
         font-family="SVGFont 1" />
      <missing-glyph
         d="M0,0h1000v1024h-1000z"
         id="missing-glyph4674" />
    </font>
  </defs>
  <sodipodi:namedview
     id="base"
     pagecolor="#ffffff"
     bordercolor="#666666"
     borderopacity="1.0"
     inkscape:pageopacity="0.0"
     inkscape:pageshadow="2"
     inkscape:zoom="1.2604167"
     inkscape:cx="1107.7016"
     inkscape:cy="655.48637"
     inkscape:document-units="mm"
     inkscape:current-layer="layer1"
     showgrid="false"
     units="px"
     width="1920px"
     inkscape:window-width="3096"
     inkscape:window-height="1672"
     inkscape:window-x="104"
     inkscape:window-y="54"
     inkscape:window-maximized="1" />
  <metadata
     id="metadata1387">
    <rdf:RDF>
      <cc:Work
         rdf:about="">
        <dc:format>image/svg+xml</dc:format>
        <dc:type
           rdf:resource="http://purl.org/dc/dcmitype/StillImage" />
        <dc:title></dc:title>
      </cc:Work>
    </rdf:RDF>
  </metadata>
  <g
     inkscape:label="Calque 1"
     inkscape:groupmode="layer"
     id="layer1"
     transform="translate(0,-11.250002)">
    <g
       id="g3613">
      <g
         id="g4156"
         transform="matrix(0.0892492,0,0,-0.0892492,455.77065,294.92484)">
        <g
           clip-path="url(#clipPath4160)"
           id="g4158">
          <path
             inkscape:connector-curvature="0"
             id="path4164"
             style="fill:#4087c4;fill-opacity:1;fill-rule:evenodd;stroke:none"
             d="M 0,473.86 C 0,510.39 29.612,540 66.141,540 H 330.7 c 36.53,0 66.14,-29.61 66.14,-66.14 V 209.3 c 0,-36.53 -29.61,-66.14 -66.14,-66.14 H 66.141 C 29.612,143.16 0,172.77 0,209.3 Z" />
        </g>
      </g>
      <g
         id="g4166"
         transform="matrix(0.0892492,0,0,-0.0892492,455.77065,294.92484)">
        <g
           clip-path="url(#clipPath4170)"
           id="g4168">
          <path
             inkscape:connector-curvature="0"
             id="path4174"
             style="fill:none;stroke:#4087c4;stroke-width:0.95999998;stroke-linecap:butt;stroke-linejoin:miter;stroke-miterlimit:10;stroke-dasharray:none;stroke-opacity:1"
             d="M 0,473.86 C 0,510.39 29.612,540 66.141,540 H 330.7 c 36.53,0 66.14,-29.61 66.14,-66.14 V 209.3 c 0,-36.53 -29.61,-66.14 -66.14,-66.14 H 66.141 C 29.612,143.16 0,172.77 0,209.3 Z" />
        </g>
      </g>
      <path
         inkscape:connector-curvature="0"
         id="path4176"
         style="fill:#ffffff;fill-opacity:1;fill-rule:evenodd;stroke:none;stroke-width:0.08924919"
         d="m 465.98344,266.98446 c 1.72072,0.19091 4.50797,1.04243 6.06716,1.23433 1.55918,0.19272 1.67699,0.0884 3.28615,-0.0804 1.61006,-0.16873 4.16884,-0.93978 6.36972,-0.93266 2.19999,0.007 5.47812,0.73451 6.83381,0.9764 1.3557,0.24109 1.08349,0.0811 1.30036,0.47211 0.21688,0.39091 0.1776,1.42622 0,1.87247 -0.17672,0.44622 -0.76843,-0.04 -1.06206,0.80502 -0.29451,0.84517 -0.0714,3.11033 -0.70328,4.26611 -0.631,1.15666 -1.59221,2.13484 -3.08356,2.67124 -1.49225,0.53636 -4.36518,1.07367 -5.86636,0.54531 -1.50206,-0.52746 -2.5677,-2.532 -3.14424,-3.71277 -0.57656,-1.18076 -0.71668,-2.79352 -1.11919,-3.57265 -0.40252,-0.77913 -0.86394,-1.15756 -1.29679,-1.10313 -0.43197,0.0545 -0.78718,0.48018 -1.2959,1.428 -0.50962,0.94782 -1.02993,3.15138 -1.75732,4.25808 -0.72648,1.10669 -1.43245,1.93581 -2.60429,2.38207 -1.17184,0.44534 -3.11033,0.50512 -4.42426,0.29091 -1.3141,-0.21419 -2.67453,-0.67117 -3.46001,-1.57702 -0.78557,-0.90502 -0.98308,-2.8096 -1.25324,-3.85382 -0.27025,-1.04509 -0.1,-1.95811 -0.36815,-2.41418 -0.26818,-0.45607 -1.00531,-0.76128 -1.10571,-0.96655 -0.1004,-0.20545 -0.067,-1.34858 0.0669,-1.55294 0.13385,-0.20509 0.27996,-0.0625 1.01895,-0.25891 0.73908,-0.19527 1.93055,-0.92193 3.34837,-1.08615 1.41772,-0.16436 2.53316,-0.28109 4.2529,-0.0909 z" />
      <path
         inkscape:connector-curvature="0"
         id="path4178"
         style="fill:#ffffff;fill-opacity:1;fill-rule:evenodd;stroke:none;stroke-width:0.08924919"
         d="m 465.05703,249.43271 c 0.93176,0.0724 0.71399,-1.23876 1.84121,-1.00403 1.12633,0.23382 0.16691,1.06473 1.10401,1.60647 0.93712,0.54087 1.24949,-0.85945 2.30977,0.0327 1.06029,0.89251 -0.0562,1.57258 0.33469,2.04113 0.39091,0.46854 1.55115,-0.31237 2.00811,0.76931 0.45785,1.08261 -0.71399,1.07101 -0.5355,2.142 0.17851,1.07098 1.39497,0.156 1.43959,1.70643 0.0446,1.55026 -1.21646,0.39091 -1.47261,1.43869 -0.25701,1.04869 1.01477,1.02102 0.5355,2.142 -0.48016,1.12095 -1.19416,-0.1 -1.8073,0.56851 -0.61403,0.66938 0.44625,1.61808 -0.43554,2.30978 -0.88178,0.6908 -1.33873,-0.60243 -2.24283,-0.13381 -0.9032,0.46767 0.2008,1.33785 -1.10401,1.70647 -1.30572,0.36767 -0.89249,-0.79255 -1.90815,-1.00407 -1.01521,-0.21237 -0.6359,1.31643 -1.94126,0.97014 -1.30536,-0.34545 -0.26775,-1.27182 -1.07108,-1.63953 -0.80324,-0.3677 -1.5731,0.64706 -2.40981,0.10073 -0.8368,-0.54709 0.2789,-1.35036 -0.2008,-2.142 -0.47981,-0.79163 -1.72939,0.23382 -2.14216,-0.87018 -0.41278,-1.104 0.94836,-1.22716 0.66936,-2.00811 -0.27891,-0.78004 -1.34998,-0.0724 -1.4392,-1.53865 -0.0893,-1.46724 1.20493,-0.42928 1.50614,-1.43869 0.30131,-1.0103 -1.02636,-1.18255 -0.70283,-2.20891 0.32352,-1.02637 1.57872,-0.36771 1.97472,-0.87019 0.39609,-0.50156 -0.46856,-1.52792 0.40171,-2.14109 0.87018,-0.61403 1.5508,0.56317 2.20901,0.16691 0.6583,-0.39629 0.2232,-1.65647 1.33883,-1.74036 1.1157,-0.0829 0.80895,0.96476 1.74045,1.03796 z" />
      <path
         inkscape:connector-curvature="0"
         id="path4180"
         style="fill:#ffffff;fill-opacity:1;fill-rule:evenodd;stroke:none;stroke-width:0.08924919"
         d="m 474.03104,256.35311 c 0,-4.23221 3.43074,-7.66294 7.66294,-7.66294 4.23219,0 7.66293,3.43073 7.66293,7.66294 0,4.23219 -3.43074,7.66295 -7.66293,7.66295 -4.2322,0 -7.66294,-3.43076 -7.66294,-7.66295 z" />
      <path
         inkscape:connector-curvature="0"
         id="path4182"
         style="fill:none;stroke:#ffffff;stroke-width:0.08567923;stroke-linecap:butt;stroke-linejoin:miter;stroke-miterlimit:10;stroke-dasharray:none;stroke-opacity:1"
         d="m 474.03104,256.35311 c 0,-4.23221 3.43074,-7.66294 7.66294,-7.66294 4.23219,0 7.66293,3.43073 7.66293,7.66294 0,4.23219 -3.43074,7.66295 -7.66293,7.66295 -4.2322,0 -7.66294,-3.43076 -7.66294,-7.66295 z" />
      <path
         inkscape:connector-curvature="0"
         id="path4184"
         style="fill:#4087c4;fill-opacity:1;fill-rule:evenodd;stroke:none;stroke-width:0.08924919"
         d="m 474.36304,256.35311 c 0,-4.04836 3.28259,-7.33094 7.33094,-7.33094 4.04834,0 7.33093,3.28258 7.33093,7.33094 0,4.04833 -3.28259,7.33091 -7.33093,7.33091 -4.04835,0 -7.33094,-3.28258 -7.33094,-7.33091 z" />
      <path
         inkscape:connector-curvature="0"
         id="path4186"
         style="fill:none;stroke:#ffffff;stroke-width:0.08567923;stroke-linecap:butt;stroke-linejoin:miter;stroke-miterlimit:10;stroke-dasharray:none;stroke-opacity:1"
         d="m 474.36304,256.35311 c 0,-4.04836 3.28259,-7.33094 7.33094,-7.33094 4.04834,0 7.33093,3.28258 7.33093,7.33094 0,4.04833 -3.28259,7.33091 -7.33093,7.33091 -4.04835,0 -7.33094,-3.28258 -7.33094,-7.33091 z" />
      <path
         inkscape:connector-curvature="0"
         id="path4188"
         style="fill:#ffffff;fill-opacity:1;fill-rule:evenodd;stroke:none;stroke-width:0.08924919"
         d="m 476.74065,256.35311 c 0,-2.73549 2.21784,-4.95334 4.95333,-4.95334 2.73548,0 4.95333,2.21785 4.95333,4.95334 0,2.7355 -2.21785,4.95331 -4.95333,4.95331 -2.73549,0 -4.95333,-2.21781 -4.95333,-4.95331 z" />
      <path
         inkscape:connector-curvature="0"
         id="path4190"
         style="fill:none;stroke:#ffffff;stroke-width:0.08567923;stroke-linecap:butt;stroke-linejoin:miter;stroke-miterlimit:10;stroke-dasharray:none;stroke-opacity:1"
         d="m 476.74065,256.35311 c 0,-2.73549 2.21784,-4.95334 4.95333,-4.95334 2.73548,0 4.95333,2.21785 4.95333,4.95334 0,2.7355 -2.21785,4.95331 -4.95333,4.95331 -2.73549,0 -4.95333,-2.21781 -4.95333,-4.95331 z" />
      <path
         d="m 477.17975,256.35846 c 0,-2.49629 2.02149,-4.51956 4.51423,-4.51956 2.49273,0 4.51422,2.02327 4.51422,4.51956 0,2.49629 -2.02149,4.5196 -4.51422,4.5196 -2.49274,0 -4.51423,-2.02331 -4.51423,-4.5196 z"
         style="fill:#4087c4;fill-opacity:1;fill-rule:evenodd;stroke:none;stroke-width:0.08924919"
         id="path4259"
         inkscape:connector-curvature="0" />
      <path
         d="m 477.17975,256.35846 c 0,-2.49629 2.02149,-4.51956 4.51423,-4.51956 2.49273,0 4.51422,2.02327 4.51422,4.51956 0,2.49629 -2.02149,4.5196 -4.51422,4.5196 -2.49274,0 -4.51423,-2.02331 -4.51423,-4.5196 z"
         style="fill:none;stroke:#ffffff;stroke-width:0.08567923;stroke-linecap:butt;stroke-linejoin:miter;stroke-miterlimit:10;stroke-dasharray:none;stroke-opacity:1"
         id="path4261"
         inkscape:connector-curvature="0" />
      <path
         d="m 486.78654,256.35846 c 0,-0.59171 0.47927,-1.07098 1.07098,-1.07098 0.59173,0 1.071,0.47927 1.071,1.07098 0,0.59175 -0.47927,1.07098 -1.071,1.07098 -0.59171,0 -1.07098,-0.47923 -1.07098,-1.07098 z"
         style="fill:#ffffff;fill-opacity:1;fill-rule:evenodd;stroke:none;stroke-width:0.08924919"
         id="path4263"
         inkscape:connector-curvature="0" />
      <path
         d="m 486.78654,256.35846 c 0,-0.59171 0.47927,-1.07098 1.07098,-1.07098 0.59173,0 1.071,0.47927 1.071,1.07098 0,0.59175 -0.47927,1.07098 -1.071,1.07098 -0.59171,0 -1.07098,-0.47923 -1.07098,-1.07098 z"
         style="fill:none;stroke:#ffffff;stroke-width:0.08567923;stroke-linecap:butt;stroke-linejoin:miter;stroke-miterlimit:10;stroke-dasharray:none;stroke-opacity:1"
         id="path4265"
         inkscape:connector-curvature="0" />
      <path
         d="m 474.50227,256.35846 c 0,-0.59171 0.47927,-1.07098 1.071,-1.07098 0.59172,0 1.07099,0.47927 1.07099,1.07098 0,0.59175 -0.47927,1.07098 -1.07099,1.07098 -0.59173,0 -1.071,-0.47923 -1.071,-1.07098 z"
         style="fill:#ffffff;fill-opacity:1;fill-rule:evenodd;stroke:none;stroke-width:0.08924919"
         id="path4267"
         inkscape:connector-curvature="0" />
      <path
         d="m 474.50227,256.35846 c 0,-0.59171 0.47927,-1.07098 1.071,-1.07098 0.59172,0 1.07099,0.47927 1.07099,1.07098 0,0.59175 -0.47927,1.07098 -1.07099,1.07098 -0.59173,0 -1.071,-0.47923 -1.071,-1.07098 z"
         style="fill:none;stroke:#ffffff;stroke-width:0.08567923;stroke-linecap:butt;stroke-linejoin:miter;stroke-miterlimit:10;stroke-dasharray:none;stroke-opacity:1"
         id="path4269"
         inkscape:connector-curvature="0" />
      <g
         id="g4204"
         transform="matrix(0.0892492,0,0,-0.0892492,455.77065,294.92484)">
        <g
           clip-path="url(#clipPath4208)"
           id="g4206">
          <path
             inkscape:connector-curvature="0"
             id="path4212"
             style="fill:#ffffff;fill-opacity:1;fill-rule:evenodd;stroke:none"
             d="m 339.11,402.62 c 3.31,5.74 10.65,7.71 16.39,4.39 5.74,-3.31 7.71,-10.65 4.39,-16.39 -3.31,-5.74 -10.65,-7.71 -16.39,-4.39 -5.74,3.31 -7.71,10.65 -4.39,16.39 z" />
        </g>
      </g>
      <g
         id="g4214"
         transform="matrix(0.0892492,0,0,-0.0892492,455.77065,294.92484)">
        <g
           clip-path="url(#clipPath4218)"
           id="g4216">
          <path
             inkscape:connector-curvature="0"
             id="path4222"
             style="fill:none;stroke:#ffffff;stroke-width:1;stroke-linecap:butt;stroke-linejoin:miter;stroke-miterlimit:10;stroke-dasharray:none;stroke-opacity:1"
             d="m 339.11,402.62 c 3.31,5.74 10.65,7.71 16.39,4.39 5.74,-3.31 7.71,-10.65 4.39,-16.39 -3.31,-5.74 -10.65,-7.71 -16.39,-4.39 -5.74,3.31 -7.71,10.65 -4.39,16.39 z" />
        </g>
      </g>
      <g
         id="g4224"
         transform="matrix(0.0892492,0,0,-0.0892492,455.77065,294.92484)">
        <g
           clip-path="url(#clipPath4228)"
           id="g4226">
          <path
             inkscape:connector-curvature="0"
             id="path4232"
             style="fill:#ffffff;fill-opacity:1;fill-rule:evenodd;stroke:none"
             d="m 219.92,471.43 c 3.31,5.74 10.65,7.71 16.39,4.39 5.74,-3.31 7.71,-10.65 4.4,-16.39 -3.32,-5.74 -10.66,-7.7 -16.4,-4.39 -5.74,3.31 -7.7,10.65 -4.39,16.39 z" />
        </g>
      </g>
      <g
         id="g4234"
         transform="matrix(0.0892492,0,0,-0.0892492,455.77065,294.92484)">
        <g
           clip-path="url(#clipPath4238)"
           id="g4236">
          <path
             inkscape:connector-curvature="0"
             id="path4242"
             style="fill:none;stroke:#ffffff;stroke-width:1;stroke-linecap:butt;stroke-linejoin:miter;stroke-miterlimit:10;stroke-dasharray:none;stroke-opacity:1"
             d="m 219.92,471.43 c 3.31,5.74 10.65,7.71 16.39,4.39 5.74,-3.31 7.71,-10.65 4.4,-16.39 -3.32,-5.74 -10.66,-7.7 -16.4,-4.39 -5.74,3.31 -7.7,10.65 -4.39,16.39 z" />
        </g>
      </g>
      <g
         id="g4244"
         transform="matrix(0.0892492,0,0,-0.0892492,455.77065,294.92484)">
        <g
           clip-path="url(#clipPath4248)"
           id="g4246">
          <path
             inkscape:connector-curvature="0"
             id="path4252"
             style="fill:#ffffff;fill-opacity:1;fill-rule:evenodd;stroke:none"
             d="m 317.19,381.45 c 5.74,3.31 13.08,1.35 16.39,-4.39 3.31,-5.74 1.35,-13.08 -4.39,-16.39 -5.74,-3.32 -13.08,-1.35 -16.39,4.39 -3.32,5.74 -1.35,13.08 4.39,16.39 z" />
        </g>
      </g>
      <g
         id="g4254"
         transform="matrix(0.0892492,0,0,-0.0892492,455.77065,294.92484)">
        <g
           clip-path="url(#clipPath4258)"
           id="g4256">
          <path
             inkscape:connector-curvature="0"
             id="path4262"
             style="fill:none;stroke:#ffffff;stroke-width:1;stroke-linecap:butt;stroke-linejoin:miter;stroke-miterlimit:10;stroke-dasharray:none;stroke-opacity:1"
             d="m 317.19,381.45 c 5.74,3.31 13.08,1.35 16.39,-4.39 3.31,-5.74 1.35,-13.08 -4.39,-16.39 -5.74,-3.32 -13.08,-1.35 -16.39,4.39 -3.32,5.74 -1.35,13.08 4.39,16.39 z" />
        </g>
      </g>
      <g
         id="g4264"
         transform="matrix(0.0892492,0,0,-0.0892492,455.77065,294.92484)">
        <g
           clip-path="url(#clipPath4268)"
           id="g4266">
          <path
             inkscape:connector-curvature="0"
             id="path4272"
             style="fill:#ffffff;fill-opacity:1;fill-rule:evenodd;stroke:none"
             d="m 248.38,500.64 c 5.74,3.31 13.07,1.34 16.39,-4.4 3.31,-5.74 1.35,-13.07 -4.39,-16.39 -5.74,-3.31 -13.08,-1.35 -16.4,4.39 -3.31,5.74 -1.34,13.08 4.4,16.4 z" />
        </g>
      </g>
      <g
         id="g4274"
         transform="matrix(0.0892492,0,0,-0.0892492,455.77065,294.92484)">
        <g
           clip-path="url(#clipPath4278)"
           id="g4276">
          <path
             inkscape:connector-curvature="0"
             id="path4282"
             style="fill:none;stroke:#ffffff;stroke-width:1;stroke-linecap:butt;stroke-linejoin:miter;stroke-miterlimit:10;stroke-dasharray:none;stroke-opacity:1"
             d="m 248.38,500.64 c 5.74,3.31 13.07,1.34 16.39,-4.4 3.31,-5.74 1.35,-13.07 -4.39,-16.39 -5.74,-3.31 -13.08,-1.35 -16.4,4.39 -3.31,5.74 -1.34,13.08 4.4,16.4 z" />
        </g>
      </g>
      <g
         id="g4284"
         transform="matrix(0.0892492,0,0,-0.0892492,455.77065,294.92484)">
        <g
           clip-path="url(#clipPath4288)"
           id="g4286">
          <path
             inkscape:connector-curvature="0"
             id="path4292"
             style="fill:#ffffff;fill-opacity:1;fill-rule:evenodd;stroke:none"
             d="m 291,375.72 c 6.63,0 12,-5.37 12,-12 0,-6.63 -5.37,-12 -12,-12 -6.63,0 -12,5.37 -12,12 0,6.63 5.37,12 12,12 z" />
        </g>
      </g>
      <g
         id="g4294"
         transform="matrix(0.0892492,0,0,-0.0892492,455.77065,294.92484)">
        <g
           clip-path="url(#clipPath4298)"
           id="g4296">
          <path
             inkscape:connector-curvature="0"
             id="path4302"
             style="fill:none;stroke:#ffffff;stroke-width:0.95999998;stroke-linecap:butt;stroke-linejoin:miter;stroke-miterlimit:10;stroke-dasharray:none;stroke-opacity:1"
             d="m 291,375.72 c 6.63,0 12,-5.37 12,-12 0,-6.63 -5.37,-12 -12,-12 -6.63,0 -12,5.37 -12,12 0,6.63 5.37,12 12,12 z" />
        </g>
      </g>
      <g
         id="g4304"
         transform="matrix(0.0892492,0,0,-0.0892492,455.77065,294.92484)">
        <g
           clip-path="url(#clipPath4308)"
           id="g4306">
          <path
             inkscape:connector-curvature="0"
             id="path4312"
             style="fill:#ffffff;fill-opacity:1;fill-rule:evenodd;stroke:none"
             d="m 291,513.36 c 6.63,0 12,-5.37 12,-12 0,-6.63 -5.37,-12 -12,-12 -6.63,0 -12,5.37 -12,12 0,6.63 5.37,12 12,12 z" />
        </g>
      </g>
      <g
         id="g4314"
         transform="matrix(0.0892492,0,0,-0.0892492,455.77065,294.92484)">
        <g
           clip-path="url(#clipPath4318)"
           id="g4316">
          <path
             inkscape:connector-curvature="0"
             id="path4322"
             style="fill:none;stroke:#ffffff;stroke-width:0.95999998;stroke-linecap:butt;stroke-linejoin:miter;stroke-miterlimit:10;stroke-dasharray:none;stroke-opacity:1"
             d="m 291,513.36 c 6.63,0 12,-5.37 12,-12 0,-6.63 -5.37,-12 -12,-12 -6.63,0 -12,5.37 -12,12 0,6.63 5.37,12 12,12 z" />
        </g>
      </g>
      <g
         id="g4324"
         transform="matrix(0.0892492,0,0,-0.0892492,455.77065,294.92484)">
        <g
           clip-path="url(#clipPath4328)"
           id="g4326">
          <path
             inkscape:connector-curvature="0"
             id="path4332"
             style="fill:#ffffff;fill-opacity:1;fill-rule:evenodd;stroke:none"
             d="m 261.13,383.7 c 5.74,-3.31 7.7,-10.65 4.39,-16.39 -3.32,-5.74 -10.65,-7.71 -16.39,-4.4 -5.74,3.32 -7.71,10.66 -4.4,16.4 3.32,5.74 10.66,7.7 16.4,4.39 z" />
        </g>
      </g>
      <g
         id="g4334"
         transform="matrix(0.0892492,0,0,-0.0892492,455.77065,294.92484)">
        <g
           clip-path="url(#clipPath4338)"
           id="g4336">
          <path
             inkscape:connector-curvature="0"
             id="path4342"
             style="fill:none;stroke:#ffffff;stroke-width:1;stroke-linecap:butt;stroke-linejoin:miter;stroke-miterlimit:10;stroke-dasharray:none;stroke-opacity:1"
             d="m 261.13,383.7 c 5.74,-3.31 7.7,-10.65 4.39,-16.39 -3.32,-5.74 -10.65,-7.71 -16.39,-4.4 -5.74,3.32 -7.71,10.66 -4.4,16.4 3.32,5.74 10.66,7.7 16.4,4.39 z" />
        </g>
      </g>
      <g
         id="g4344"
         transform="matrix(0.0892492,0,0,-0.0892492,455.77065,294.92484)">
        <g
           clip-path="url(#clipPath4348)"
           id="g4346">
          <path
             inkscape:connector-curvature="0"
             id="path4352"
             style="fill:#ffffff;fill-opacity:1;fill-rule:evenodd;stroke:none"
             d="m 329.94,502.89 c 5.74,-3.32 7.7,-10.66 4.39,-16.4 -3.31,-5.74 -10.65,-7.7 -16.39,-4.39 -5.74,3.32 -7.71,10.65 -4.39,16.39 3.31,5.74 10.65,7.71 16.39,4.4 z" />
        </g>
      </g>
      <g
         id="g4354"
         transform="matrix(0.0892492,0,0,-0.0892492,455.77065,294.92484)">
        <g
           clip-path="url(#clipPath4358)"
           id="g4356">
          <path
             inkscape:connector-curvature="0"
             id="path4362"
             style="fill:none;stroke:#ffffff;stroke-width:1;stroke-linecap:butt;stroke-linejoin:miter;stroke-miterlimit:10;stroke-dasharray:none;stroke-opacity:1"
             d="m 329.94,502.89 c 5.74,-3.32 7.7,-10.66 4.39,-16.4 -3.31,-5.74 -10.65,-7.7 -16.39,-4.39 -5.74,3.32 -7.71,10.65 -4.39,16.39 3.31,5.74 10.65,7.71 16.39,4.4 z" />
        </g>
      </g>
      <g
         id="g4364"
         transform="matrix(0.0892492,0,0,-0.0892492,455.77065,294.92484)">
        <g
           clip-path="url(#clipPath4368)"
           id="g4366">
          <path
             inkscape:connector-curvature="0"
             id="path4372"
             style="fill:#ffffff;fill-opacity:1;fill-rule:evenodd;stroke:none"
             d="m 241.08,404.49 c 3.31,-5.74 1.35,-13.07 -4.39,-16.39 -5.74,-3.31 -13.08,-1.35 -16.39,4.39 -3.32,5.74 -1.35,13.08 4.39,16.4 5.74,3.31 13.08,1.34 16.39,-4.4 z" />
        </g>
      </g>
      <g
         id="g4374"
         transform="matrix(0.0892492,0,0,-0.0892492,455.77065,294.92484)">
        <g
           clip-path="url(#clipPath4378)"
           id="g4376">
          <path
             inkscape:connector-curvature="0"
             id="path4382"
             style="fill:none;stroke:#ffffff;stroke-width:1;stroke-linecap:butt;stroke-linejoin:miter;stroke-miterlimit:10;stroke-dasharray:none;stroke-opacity:1"
             d="m 241.08,404.49 c 3.31,-5.74 1.35,-13.07 -4.39,-16.39 -5.74,-3.31 -13.08,-1.35 -16.39,4.39 -3.32,5.74 -1.35,13.08 4.39,16.4 5.74,3.31 13.08,1.34 16.39,-4.4 z" />
        </g>
      </g>
      <g
         id="g4384"
         transform="matrix(0.0892492,0,0,-0.0892492,455.77065,294.92484)">
        <g
           clip-path="url(#clipPath4388)"
           id="g4386">
          <path
             inkscape:connector-curvature="0"
             id="path4392"
             style="fill:#ffffff;fill-opacity:1;fill-rule:evenodd;stroke:none"
             d="m 360.27,473.31 c 3.31,-5.74 1.34,-13.08 -4.39,-16.4 -5.74,-3.31 -13.08,-1.34 -16.4,4.4 -3.31,5.74 -1.34,13.08 4.4,16.39 5.73,3.31 13.07,1.35 16.39,-4.39 z" />
        </g>
      </g>
      <g
         id="g4394"
         transform="matrix(0.0892492,0,0,-0.0892492,455.77065,294.92484)">
        <g
           clip-path="url(#clipPath4398)"
           id="g4396">
          <path
             inkscape:connector-curvature="0"
             id="path4402"
             style="fill:none;stroke:#ffffff;stroke-width:1;stroke-linecap:butt;stroke-linejoin:miter;stroke-miterlimit:10;stroke-dasharray:none;stroke-opacity:1"
             d="m 360.27,473.31 c 3.31,-5.74 1.34,-13.08 -4.39,-16.4 -5.74,-3.31 -13.08,-1.34 -16.4,4.4 -3.31,5.74 -1.34,13.08 4.4,16.39 5.73,3.31 13.07,1.35 16.39,-4.39 z" />
        </g>
      </g>
      <path
         inkscape:connector-curvature="0"
         id="path4404"
         style="fill:#4087c4;fill-opacity:1;fill-rule:evenodd;stroke:none;stroke-width:0.08924919"
         d="m 462.35724,256.60479 c 0,-1.50208 1.2179,-2.72033 2.72032,-2.72033 1.50206,0 2.72031,1.21825 2.72031,2.72033 0,1.50207 -1.21825,2.72032 -2.72031,2.72032 -1.50242,0 -2.72032,-1.21825 -2.72032,-2.72032 z" />
      <path
         inkscape:connector-curvature="0"
         id="path4406"
         style="fill:#4087c4;fill-opacity:1;fill-rule:evenodd;stroke:none;stroke-width:0.08924919"
         d="m 464.5849,254.31286 h 0.9746 v -0.96389 h -0.9746 z" />
      <path
         inkscape:connector-curvature="0"
         id="path4408"
         style="fill:#4087c4;fill-opacity:1;fill-rule:evenodd;stroke:none;stroke-width:0.08924919"
         d="m 460.21571,269.4754 c 0.98861,-1.94381 8.76561,-1.054 10.08382,0.19819 1.31821,1.25218 -0.32931,6.22782 -2.175,7.31487 -1.84568,1.08705 -5.40431,0.95585 -6.72252,-0.29637 -1.31812,-1.25214 -2.17491,-5.27192 -1.1863,-7.21669 z" />
      <path
         inkscape:connector-curvature="0"
         id="path4410"
         style="fill:#4087c4;fill-opacity:1;fill-rule:evenodd;stroke:none;stroke-width:0.08924919"
         d="m 487.06767,269.84224 c -1.01744,-1.91796 -8.95973,-1.43604 -10.28419,-0.20073 -1.32356,1.23524 0.43822,6.53844 2.33923,7.6112 1.90011,1.07277 5.49864,0.54709 6.8231,-0.68811 1.32356,-1.23523 2.14019,-4.8052 1.12186,-6.72225 z" />
      <text
         id="text2815"
         y="291.7897"
         x="441.11801"
         style="font-style:normal;font-variant:normal;font-weight:normal;font-stretch:normal;font-size:7.05555534px;line-height:1.25;font-family:sans-serif;-inkscape-font-specification:'sans-serif, Normal';font-variant-ligatures:normal;font-variant-caps:normal;font-variant-numeric:normal;font-feature-settings:normal;text-align:start;letter-spacing:0px;word-spacing:0px;writing-mode:lr-tb;text-anchor:start;fill:#000000;fill-opacity:1;stroke:none;stroke-width:0.26458332"
         xml:space="preserve"><tspan
           style="font-style:normal;font-variant:normal;font-weight:normal;font-stretch:normal;font-family:'Permanent Marker';-inkscape-font-specification:'Permanent Marker';fill:#4087c4;fill-opacity:1;stroke-width:0.26458332"
           y="291.7897"
           x="441.11801"
           id="tspan2813"
           sodipodi:role="line">www.costadoat.fr</tspan></text>
      <rect
         y="237.6776"
         x="437.31311"
         height="58.16864"
         width="68.802315"
         id="rect2811"
         style="fill:#ffffff;fill-opacity:0.40031649;stroke:none;stroke-width:0.33952218;stroke-linejoin:round;stroke-miterlimit:4;stroke-dasharray:none;stroke-dashoffset:0;stroke-opacity:1" />
    </g>
    <text
       id="text3617"
       y="36.390339"
       x="16.052044"
       style="font-style:normal;font-variant:normal;font-weight:normal;font-stretch:normal;font-size:7.05555534px;line-height:1.25;font-family:'Permanent Marker';-inkscape-font-specification:'Permanent Marker';font-variant-ligatures:normal;font-variant-caps:normal;font-variant-numeric:normal;font-feature-settings:normal;text-align:start;letter-spacing:0px;word-spacing:0px;writing-mode:lr-tb;text-anchor:start;fill:#4087c4;fill-opacity:1;stroke:none;stroke-width:0.26458332"
       xml:space="preserve"><tspan
         style="font-size:16.93333244px;fill:#4087c4;fill-opacity:1;stroke-width:0.26458332"
         y="36.390339"
         x="16.052044"
         id="tspan3615">FORME CANONIQUE</tspan></text>
    <g
       id="g6944"
       transform="translate(19.320721,11.250018)">
      <path
         id="path2665"
         d="m 115.30599,46.460736 h -0.36739 c -0.0735,0.382087 -0.13227,0.723024 -0.26159,1.069844 -0.0735,0.235127 -0.11756,0.355627 -0.96698,0.355627 h -1.17271 c 0.1881,-0.822954 0.64367,-1.525401 1.30498,-2.489435 0.68776,-1.043394 1.2844,-2.054448 1.2844,-3.209532 0,-2.036808 -1.97216,-3.673899 -4.44986,-3.673899 -2.51591,0 -4.46162,1.669421 -4.46162,3.673899 0,1.155084 0.59665,2.166138 1.28441,3.209532 0.64367,0.964034 1.11099,1.666481 1.30498,2.489435 h -1.17272 c -0.84942,0 -0.8935,-0.1205 -0.96698,-0.340937 -0.11463,-0.33506 -0.18811,-0.717147 -0.26158,-1.084534 h -0.3674 l 0.48496,2.374815 h 2.3425 c 0.3233,0 0.36445,0 0.36445,-0.308607 0,-1.022824 -0.44969,-2.313098 -0.79063,-3.250682 -0.30861,-0.849404 -0.71715,-2.007418 -0.71715,-3.103712 0,-2.342488 1.61359,-3.338852 2.94502,-3.338852 1.40491,0 2.95678,1.055144 2.95678,3.338852 0,1.096294 -0.39384,2.213158 -0.82296,3.412319 -0.21456,0.614277 -0.68482,1.933951 -0.68482,2.942075 0,0.308607 0.0441,0.308607 0.37915,0.308607 h 2.3278 z"
         style="font-style:normal;font-variant:normal;font-weight:normal;font-stretch:normal;letter-spacing:normal;word-spacing:normal;text-anchor:start;fill:#000000;fill-opacity:1;fill-rule:evenodd;stroke:#000000;stroke-width:0;stroke-linecap:butt;stroke-linejoin:miter;stroke-miterlimit:10.43299961;stroke-dasharray:none;stroke-dashoffset:0;stroke-opacity:1"
         inkscape:connector-curvature="0" />
      <path
         id="path2667"
         d="m 120.4201,50.225755 -0.006,0.0206 -0.006,0.0206 -0.006,0.0206 -0.006,0.0206 -0.003,0.0235 -0.006,0.0235 -0.0118,0.047 -0.0118,0.047 -0.0117,0.047 -0.0118,0.047 -0.006,0.0206 -0.006,0.0235 -0.006,0.0235 -0.006,0.0206 -0.006,0.0206 -0.003,0.0206 -0.006,0.0206 -0.003,0.0176 -0.006,0.0176 -0.003,0.0176 -0.003,0.0147 -0.003,0.0147 -0.003,0.0118 -0.003,0.0117 v 0.0118 l -0.003,0.009 v 0.006 0.006 c 0,0.22632 0.18223,0.32625 0.34388,0.32625 0.1881,0 0.34976,-0.13226 0.39972,-0.22338 0.0559,-0.094 0.1352,-0.417364 0.18811,-0.634854 0.05,-0.193987 0.16165,-0.664244 0.22631,-0.922884 0.0588,-0.226317 0.11757,-0.449687 0.17341,-0.684817 0.11169,-0.440867 0.11169,-0.458507 0.31743,-0.778874 0.32624,-0.502587 0.84059,-1.084534 1.63416,-1.084534 0.57314,0 0.6084,0.473197 0.6084,0.717147 0,0.614274 -0.44087,1.748778 -0.6084,2.180838 -0.10875,0.288027 -0.14989,0.379137 -0.14989,0.555484 0,0.540814 0.44968,0.875874 0.97285,0.875874 1.02282,0 1.47545,-1.407851 1.47545,-1.566568 0,-0.13226 -0.1352,-0.13226 -0.16753,-0.13226 -0.14108,0 -0.1499,0.0588 -0.19104,0.17635 -0.23513,0.817074 -0.67601,1.237378 -1.08455,1.237378 -0.21749,0 -0.25864,-0.141084 -0.25864,-0.355644 0,-0.23513 0.05,-0.367387 0.23513,-0.831764 0.12344,-0.31743 0.5408,-1.401964 0.5408,-1.975101 0,-0.164587 0,-0.596637 -0.37621,-0.890554 -0.17341,-0.1352 -0.4732,-0.276277 -0.95522,-0.276277 -0.91701,0 -1.48133,0.602524 -1.80757,1.034574 -0.0852,-0.872917 -0.81415,-1.034574 -1.33437,-1.034574 -0.84942,0 -1.42255,0.520227 -1.73116,0.928764 -0.0735,-0.702447 -0.67306,-0.928764 -1.0963,-0.928764 -0.44087,0 -0.676,0.317427 -0.80826,0.549614 -0.22632,0.37915 -0.3674,0.966977 -0.3674,1.016947 0,0.132257 0.14108,0.132257 0.17341,0.132257 0.14402,0 0.15284,-0.0323 0.22632,-0.308607 0.15283,-0.605467 0.34976,-1.105114 0.74948,-1.105114 0.26452,0 0.33506,0.22338 0.33506,0.499647 0,0.19693 -0.094,0.573137 -0.16753,0.849414 -0.0676,0.28215 -0.16753,0.699507 -0.22337,0.922887 l -0.32625,1.313781 c -0.0411,0.12933 -0.0999,0.385034 -0.0999,0.417364 0,0.22632 0.18223,0.32625 0.34682,0.32625 0.18516,0 0.34682,-0.13226 0.39972,-0.22338 0.05,-0.094 0.1352,-0.417364 0.18517,-0.634854 0.05,-0.193987 0.15871,-0.664244 0.22337,-0.922884 0.0617,-0.226317 0.12639,-0.449687 0.17635,-0.684817 0.10875,-0.423237 0.13226,-0.499657 0.42618,-0.922884 0.28803,-0.408537 0.77299,-0.940524 1.54011,-0.940524 0.59077,0 0.59958,0.523167 0.59958,0.717147 0,0.255707 -0.0264,0.387967 -0.17341,0.964034 z"
         style="font-style:normal;font-variant:normal;font-weight:normal;font-stretch:normal;letter-spacing:normal;word-spacing:normal;text-anchor:start;fill:#000000;fill-opacity:1;fill-rule:evenodd;stroke:#000000;stroke-width:0;stroke-linecap:butt;stroke-linejoin:miter;stroke-miterlimit:10.43299961;stroke-dasharray:none;stroke-dashoffset:0;stroke-opacity:1"
         inkscape:connector-curvature="0" />
      <path
         id="path2669"
         d="m 131.92684,52.347803 v -0.006 -0.009 -0.003 -0.006 -0.003 l -0.003,-0.006 v -0.003 l -0.003,-0.006 -0.003,-0.006 -0.003,-0.006 -0.003,-0.006 -0.006,-0.009 -0.003,-0.006 -0.006,-0.009 -0.006,-0.009 -0.009,-0.009 -0.006,-0.009 -0.009,-0.0117 -0.006,-0.006 -0.003,-0.006 -0.006,-0.006 -0.006,-0.006 -0.006,-0.006 -0.006,-0.009 -0.006,-0.006 -0.006,-0.006 -0.006,-0.009 -0.009,-0.006 -0.006,-0.009 -0.009,-0.009 -0.006,-0.009 -0.009,-0.009 -0.009,-0.009 -0.009,-0.009 -0.009,-0.009 -0.009,-0.009 -0.0118,-0.0118 -0.009,-0.009 -0.0118,-0.0118 -0.009,-0.009 -0.0118,-0.0118 -0.0118,-0.0118 c -1.82814,-1.845768 -2.29547,-4.611483 -2.29547,-6.851101 0,-2.548215 0.5555,-5.09938 2.35426,-6.927521 0.1881,-0.176347 0.1881,-0.205737 0.1881,-0.249817 0,-0.10287 -0.0529,-0.14402 -0.14108,-0.14402 -0.14695,0 -1.46369,0.993424 -2.3278,2.850955 -0.74948,1.613581 -0.92289,3.238909 -0.92289,4.470403 0,1.143324 0.15872,2.909735 0.96404,4.567403 0.87586,1.801681 2.1397,2.751025 2.28665,2.751025 0.0882,0 0.14108,-0.0412 0.14108,-0.146957 z"
         style="font-style:normal;font-variant:normal;font-weight:normal;font-stretch:normal;letter-spacing:normal;word-spacing:normal;text-anchor:start;fill:#000000;fill-opacity:1;fill-rule:evenodd;stroke:#000000;stroke-width:0;stroke-linecap:butt;stroke-linejoin:miter;stroke-miterlimit:10.43299961;stroke-dasharray:none;stroke-dashoffset:0;stroke-opacity:1"
         inkscape:connector-curvature="0" />
      <path
         id="path2671"
         d="m 133.41699,50.622532 -0.009,0.0441 -0.0118,0.0441 -0.009,0.0411 -0.0118,0.0382 -0.009,0.0382 -0.009,0.0323 -0.0118,0.0353 -0.009,0.0294 -0.0118,0.0294 -0.0118,0.0264 -0.0118,0.0265 -0.0147,0.0235 -0.0147,0.0206 -0.0147,0.0206 -0.0176,0.0206 -0.0176,0.0147 -0.0206,0.0176 -0.0206,0.0147 -0.0235,0.0118 -0.0265,0.0118 -0.0265,0.0118 -0.0323,0.009 -0.0294,0.009 -0.0353,0.006 -0.0382,0.006 -0.0176,0.003 -0.0206,0.003 -0.0206,0.003 -0.0235,0.003 h -0.0235 l -0.0206,0.003 h -0.0265 -0.0235 l -0.0265,0.003 h -0.0265 -0.0265 -0.0294 -0.0264 l -0.0323,0.003 c -0.17341,0 -0.33506,0 -0.33506,0.273344 0,0.1205 0.0735,0.17929 0.1881,0.17929 0.39972,0 0.82296,-0.0441 1.2315,-0.0441 0.48202,0 0.98461,0.0441 1.45194,0.0441 0.0735,0 0.26158,0 0.26158,-0.29392 0,-0.158714 -0.14695,-0.158714 -0.34976,-0.158714 -0.73478,0 -0.73478,-0.10581 -0.73478,-0.23513 0,-0.17929 0.61428,-2.562925 0.72303,-2.930312 0.18516,0.423237 0.59664,0.937584 1.34319,0.937584 l -0.0118,-0.32331 c -0.96992,0 -1.15802,-1.216791 -1.15802,-1.302031 0,-0.0294 0,-0.0617 0.0411,-0.23513 l 0.72009,-2.871522 c 0.10287,-0.393847 0.49671,-0.802387 0.75829,-1.022814 0.51435,-0.455567 0.94053,-0.555497 1.19036,-0.555497 0.58195,0 0.93758,0.508467 0.93758,1.378451 0,0.861167 -0.48496,2.542335 -0.74948,3.103712 -0.49671,1.022814 -1.19917,1.504831 -1.73997,1.504831 l 0.0118,0.32331 c 1.69882,0 3.52697,-2.136748 3.52697,-4.291126 0,-1.375511 -0.82884,-2.342488 -1.94572,-2.342488 -0.73184,0 -1.4343,0.526107 -1.91632,1.099234 -0.14695,-0.790624 -0.77593,-1.099234 -1.31673,-1.099234 -0.67601,0 -0.95522,0.570197 -1.08455,0.831777 -0.26746,0.502587 -0.45556,1.378451 -0.45556,1.425471 0,0.14696 0.14695,0.14696 0.17635,0.14696 0.14695,0 0.15871,-0.0206 0.24688,-0.340937 0.25277,-1.037517 0.54374,-1.739961 1.06985,-1.739961 0.24689,0 0.45557,0.11462 0.45557,0.670117 0,0.340937 -0.047,0.499657 -0.0999,0.749474 z"
         style="font-style:normal;font-variant:normal;font-weight:normal;font-stretch:normal;letter-spacing:normal;word-spacing:normal;text-anchor:start;fill:#000000;fill-opacity:1;fill-rule:evenodd;stroke:#000000;stroke-width:0;stroke-linecap:butt;stroke-linejoin:miter;stroke-miterlimit:10.43299961;stroke-dasharray:none;stroke-dashoffset:0;stroke-opacity:1"
         inkscape:connector-curvature="0" />
      <path
         id="path2673"
         d="m 144.35942,45.176332 v -0.10875 -0.114617 l -0.003,-0.11463 -0.003,-0.1205 -0.0118,-0.24689 -0.0176,-0.258647 -0.0265,-0.2704 -0.0294,-0.279217 -0.0411,-0.288027 -0.047,-0.29392 -0.0588,-0.299787 -0.0676,-0.30273 -0.0764,-0.311547 -0.0911,-0.30861 -0.10287,-0.314487 -0.11462,-0.314487 -0.0617,-0.15577 -0.0676,-0.15578 -0.0705,-0.15577 -0.0735,-0.155777 c -0.87587,-1.798741 -2.13382,-2.751015 -2.28078,-2.751015 -0.0882,0 -0.14695,0.0558 -0.14695,0.14402 0,0.0441 0,0.0735 0.27628,0.337997 1.43724,1.446041 2.27195,3.776779 2.27195,6.839341 0,2.501195 -0.5408,5.078813 -2.36013,6.924581 -0.1881,0.17341 -0.1881,0.20574 -0.1881,0.24689 0,0.0882 0.0588,0.146957 0.14695,0.146957 0.14696,0 1.46076,-0.996364 2.3278,-2.856832 0.74361,-1.604761 0.91702,-3.233042 0.91702,-4.461596 z"
         style="font-style:normal;font-variant:normal;font-weight:normal;font-stretch:normal;letter-spacing:normal;word-spacing:normal;text-anchor:start;fill:#000000;fill-opacity:1;fill-rule:evenodd;stroke:#000000;stroke-width:0;stroke-linecap:butt;stroke-linejoin:miter;stroke-miterlimit:10.43299961;stroke-dasharray:none;stroke-dashoffset:0;stroke-opacity:1"
         inkscape:connector-curvature="0" />
      <polyline
         id="polyline2675"
         points="462,396 599.64,396 599.64,398.04 462,398.04 "
         style="font-style:normal;font-variant:normal;font-weight:normal;font-stretch:normal;letter-spacing:normal;word-spacing:normal;text-anchor:start;fill:#000000;fill-opacity:1;fill-rule:nonzero;stroke:#000000;stroke-width:0;stroke-linecap:butt;stroke-linejoin:miter;stroke-miterlimit:10.43299961;stroke-dasharray:none;stroke-dashoffset:0;stroke-opacity:1"
         transform="matrix(0.29391429,0,0,-0.29391429,-30.255063,171.89129)" />
      <path
         id="path2677"
         d="m 114.97387,60.333405 0.0294,-0.111687 0.0147,-0.0529 0.0176,-0.0529 0.0176,-0.05 0.0206,-0.0529 0.0206,-0.047 0.0235,-0.05 0.0265,-0.047 0.0264,-0.0441 0.0264,-0.0441 0.0323,-0.0411 0.0353,-0.0412 0.0353,-0.0411 0.0382,-0.0382 0.0412,-0.0353 0.0441,-0.0353 0.05,-0.0323 0.05,-0.0323 0.0558,-0.0294 0.0558,-0.0294 0.0617,-0.0235 0.0676,-0.0265 0.0705,-0.0206 0.0735,-0.0206 0.0764,-0.0176 0.0823,-0.0176 0.0882,-0.0147 0.0911,-0.0118 0.097,-0.009 0.10287,-0.009 0.0529,-0.003 0.0558,-0.003 c 0.0735,0 0.24689,-0.0118 0.24689,-0.29392 0,-0.0118 0,-0.15871 -0.1881,-0.15871 -0.48202,0 -0.99637,0.0441 -1.49309,0.0441 -0.49965,0 -1.04339,-0.0441 -1.52541,-0.0441 -0.0852,0 -0.26159,0 -0.26159,0.29391 0,0.15872 0.14696,0.15872 0.26159,0.15872 0.83765,0.0147 0.99637,0.323297 0.99637,0.643667 0,0.047 -0.0323,0.26746 -0.0441,0.30861 l -1.31967,5.231653 c -0.49378,1.960388 -2.18085,3.233032 -3.64454,3.233032 -0.99343,0 -1.787,-0.643667 -1.787,-1.901611 0,-0.0323 0,-0.502597 0.16165,-1.143324 l 1.42255,-5.69603 c 0.12932,-0.52904 0.16165,-0.675997 1.2315,-0.675997 0.37621,0 0.49377,0 0.49377,-0.29392 0,-0.15871 -0.15871,-0.15871 -0.20574,-0.15871 -0.40854,0 -1.46369,0.0441 -1.87223,0.0441 -0.42324,0 -1.46663,-0.0441 -1.88987,-0.0441 -0.11756,0 -0.27922,0 -0.27922,0.29391 0,0.15872 0.13226,0.15872 0.41442,0.15872 0.0265,0 0.30567,0 0.5555,0.0294 0.26158,0.0323 0.39384,0.0441 0.39384,0.23219 0,0.0941 -0.15871,0.705397 -0.24688,1.043397 l -0.32625,1.287334 c -0.12932,0.573137 -0.83178,3.338849 -0.89056,3.618069 -0.10287,0.408537 -0.10287,0.628967 -0.10287,0.849404 0,1.786991 1.33437,2.809805 2.87154,2.809805 1.84285,0 3.65924,-1.651791 4.14126,-3.585729 z"
         style="font-style:normal;font-variant:normal;font-weight:normal;font-stretch:normal;letter-spacing:normal;word-spacing:normal;text-anchor:start;fill:#000000;fill-opacity:1;fill-rule:evenodd;stroke:#000000;stroke-width:0;stroke-linecap:butt;stroke-linejoin:miter;stroke-miterlimit:10.43299961;stroke-dasharray:none;stroke-dashoffset:0;stroke-opacity:1"
         inkscape:connector-curvature="0" />
      <path
         id="path2679"
         d="m 120.10267,70.153031 -0.006,0.0206 -0.006,0.0206 -0.006,0.0206 -0.003,0.0235 -0.006,0.0206 -0.006,0.0235 -0.0118,0.047 -0.0118,0.047 -0.0118,0.047 -0.0118,0.047 -0.006,0.0235 -0.006,0.0206 -0.006,0.0235 -0.006,0.0206 -0.003,0.0206 -0.006,0.0206 -0.006,0.0206 -0.003,0.0176 -0.003,0.0176 -0.006,0.0176 -0.003,0.0147 -0.003,0.0147 -0.003,0.0118 v 0.0118 l -0.003,0.0118 v 0.009 l -0.003,0.006 v 0.006 c 0,0.226324 0.18517,0.326254 0.34388,0.326254 0.19105,0 0.34976,-0.13226 0.39973,-0.223384 0.0558,-0.0911 0.1352,-0.41736 0.1881,-0.634847 0.0529,-0.19105 0.16165,-0.664247 0.22631,-0.922884 0.0588,-0.22338 0.12051,-0.44969 0.17341,-0.684817 0.11169,-0.440877 0.11169,-0.458507 0.31743,-0.778877 0.32625,-0.502587 0.8406,-1.084534 1.63416,-1.084534 0.57608,0 0.60841,0.473197 0.60841,0.717147 0,0.614277 -0.44087,1.748781 -0.60841,2.180828 -0.10874,0.288037 -0.14989,0.382087 -0.14989,0.555497 0,0.540797 0.44969,0.875871 0.97285,0.875871 1.02283,0 1.47545,-1.407848 1.47545,-1.563628 0,-0.1352 -0.1352,-0.1352 -0.16753,-0.1352 -0.14108,0 -0.14989,0.0617 -0.19104,0.17635 -0.23513,0.817074 -0.676,1.237374 -1.08454,1.237374 -0.21456,0 -0.25865,-0.14108 -0.25865,-0.35564 0,-0.235127 0.0529,-0.367387 0.23513,-0.831764 0.12345,-0.317427 0.54374,-1.401961 0.54374,-1.975098 0,-0.16459 0,-0.596637 -0.37621,-0.890557 -0.17635,-0.135197 -0.47614,-0.276277 -0.95522,-0.276277 -0.91995,0 -1.48427,0.602527 -1.81051,1.034574 -0.0823,-0.872914 -0.81414,-1.034574 -1.33143,-1.034574 -0.84941,0 -1.42549,0.520227 -1.73116,0.928764 -0.0735,-0.702447 -0.676,-0.928764 -1.09924,-0.928764 -0.44087,0 -0.67306,0.317427 -0.80826,0.552557 -0.22338,0.376207 -0.36739,0.964034 -0.36739,1.014004 0,0.13226 0.14401,0.13226 0.17635,0.13226 0.14107,0 0.14989,-0.0323 0.22337,-0.30861 0.15284,-0.605467 0.34976,-1.105114 0.74948,-1.105114 0.26452,0 0.33506,0.22337 0.33506,0.499647 0,0.19693 -0.0911,0.576077 -0.16459,0.849417 -0.0705,0.282147 -0.17047,0.699504 -0.22631,0.922884 l -0.32625,1.313784 c -0.0412,0.129327 -0.0999,0.385027 -0.0999,0.417357 0,0.226324 0.18223,0.326254 0.34976,0.326254 0.18223,0 0.34388,-0.13226 0.39678,-0.223384 0.0529,-0.0911 0.1352,-0.41736 0.18517,-0.634847 0.05,-0.19105 0.16165,-0.664247 0.22631,-0.922884 0.0588,-0.22338 0.12345,-0.44969 0.17341,-0.684817 0.10875,-0.420297 0.13227,-0.499657 0.42618,-0.922884 0.29097,-0.40855 0.77299,-0.940527 1.54011,-0.940527 0.59077,0 0.59959,0.523167 0.59959,0.717147 0,0.255707 -0.0265,0.387967 -0.17341,0.964034 z"
         style="font-style:normal;font-variant:normal;font-weight:normal;font-stretch:normal;letter-spacing:normal;word-spacing:normal;text-anchor:start;fill:#000000;fill-opacity:1;fill-rule:evenodd;stroke:#000000;stroke-width:0;stroke-linecap:butt;stroke-linejoin:miter;stroke-miterlimit:10.43299961;stroke-dasharray:none;stroke-dashoffset:0;stroke-opacity:1"
         inkscape:connector-curvature="0" />
      <path
         id="path2681"
         d="m 131.64468,72.310349 v -0.009 -0.006 -0.006 -0.003 -0.003 l -0.003,-0.006 v -0.006 l -0.003,-0.003 -0.003,-0.006 -0.003,-0.006 -0.003,-0.009 -0.006,-0.006 -0.003,-0.006 -0.006,-0.009 -0.006,-0.009 -0.009,-0.009 -0.006,-0.0118 -0.009,-0.009 -0.006,-0.006 -0.003,-0.006 -0.006,-0.006 -0.006,-0.006 -0.006,-0.009 -0.006,-0.006 -0.006,-0.006 -0.006,-0.009 -0.006,-0.006 -0.009,-0.009 -0.006,-0.006 -0.009,-0.009 -0.009,-0.009 -0.006,-0.009 -0.009,-0.009 -0.009,-0.009 -0.009,-0.009 -0.009,-0.009 -0.0118,-0.0118 -0.009,-0.009 -0.0118,-0.0118 -0.009,-0.0118 -0.0118,-0.009 -0.0118,-0.0118 c -1.82815,-1.845768 -2.29547,-4.611483 -2.29547,-6.851101 0,-2.551165 0.55549,-5.09938 2.35425,-6.927521 0.1881,-0.179287 0.1881,-0.205737 0.1881,-0.252767 0,-0.0999 -0.0529,-0.14107 -0.14107,-0.14107 -0.14696,0 -1.4637,0.990484 -2.32781,2.850945 -0.74948,1.613581 -0.92289,3.238922 -0.92289,4.470413 0,1.143324 0.15872,2.909735 0.96404,4.567406 0.87587,1.801678 2.1397,2.751025 2.28666,2.751025 0.0882,0 0.14107,-0.0412 0.14107,-0.14696 z"
         style="font-style:normal;font-variant:normal;font-weight:normal;font-stretch:normal;letter-spacing:normal;word-spacing:normal;text-anchor:start;fill:#000000;fill-opacity:1;fill-rule:evenodd;stroke:#000000;stroke-width:0;stroke-linecap:butt;stroke-linejoin:miter;stroke-miterlimit:10.43299961;stroke-dasharray:none;stroke-dashoffset:0;stroke-opacity:1"
         inkscape:connector-curvature="0" />
      <path
         id="path2683"
         d="m 133.13483,70.585078 -0.0118,0.0441 -0.009,0.0441 -0.009,0.0411 -0.0118,0.0382 -0.009,0.0353 -0.009,0.0353 -0.0118,0.0323 -0.009,0.0323 -0.0118,0.0294 -0.0118,0.0264 -0.0118,0.0265 -0.0147,0.0235 -0.0147,0.0206 -0.0147,0.0206 -0.0176,0.0176 -0.0176,0.0176 -0.0206,0.0176 -0.0235,0.0147 -0.0235,0.0118 -0.0235,0.0118 -0.0294,0.0118 -0.0294,0.009 -0.0323,0.009 -0.0323,0.006 -0.0382,0.006 -0.0206,0.003 -0.0176,0.003 -0.0235,0.003 h -0.0206 l -0.0235,0.003 h -0.0235 l -0.0235,0.003 h -0.0235 l -0.0265,0.003 h -0.0264 -0.0265 -0.0294 -0.0294 -0.0294 c -0.17341,0 -0.33506,0 -0.33506,0.276284 0,0.1205 0.0735,0.17928 0.1881,0.17928 0.39973,0 0.82296,-0.047 1.2315,-0.047 0.48202,0 0.98168,0.047 1.45194,0.047 0.0735,0 0.26158,0 0.26158,-0.293914 0,-0.16165 -0.14695,-0.16165 -0.34975,-0.16165 -0.73479,0 -0.73479,-0.10581 -0.73479,-0.23219 0,-0.179287 0.61722,-2.562925 0.72009,-2.930312 0.19105,0.423237 0.59665,0.937584 1.34613,0.937584 l -0.0147,-0.323307 c -0.96698,0 -1.15508,-1.216794 -1.15508,-1.304974 0,-0.0264 0,-0.0588 0.0411,-0.232187 l 0.72009,-2.871525 c 0.0999,-0.393847 0.49671,-0.802384 0.7583,-1.022824 0.51435,-0.455557 0.94052,-0.555487 1.19035,-0.555487 0.58195,0 0.93465,0.508467 0.93465,1.375511 0,0.864097 -0.48202,2.545278 -0.74655,3.106655 -0.49671,1.022814 -1.19917,1.504831 -1.74291,1.504831 l 0.0147,0.323307 c 1.69882,0 3.52697,-2.136748 3.52697,-4.291126 0,-1.378451 -0.83178,-2.342485 -1.94571,-2.342485 -0.73185,0 -1.4343,0.523167 -1.91632,1.099234 -0.14696,-0.790627 -0.77594,-1.099234 -1.31674,-1.099234 -0.676,0 -0.95522,0.570187 -1.08454,0.831774 -0.26747,0.499647 -0.45557,1.378454 -0.45557,1.422531 0,0.14696 0.14696,0.14696 0.17635,0.14696 0.14695,0 0.15871,-0.0176 0.24689,-0.337997 0.25276,-1.037514 0.5408,-1.739961 1.06984,-1.739961 0.24983,0 0.45557,0.11462 0.45557,0.670117 0,0.337997 -0.047,0.499657 -0.10287,0.746534 z"
         style="font-style:normal;font-variant:normal;font-weight:normal;font-stretch:normal;letter-spacing:normal;word-spacing:normal;text-anchor:start;fill:#000000;fill-opacity:1;fill-rule:evenodd;stroke:#000000;stroke-width:0;stroke-linecap:butt;stroke-linejoin:miter;stroke-miterlimit:10.43299961;stroke-dasharray:none;stroke-dashoffset:0;stroke-opacity:1"
         inkscape:connector-curvature="0" />
      <path
         id="path2685"
         d="m 144.0802,65.138878 -0.003,-0.111687 v -0.11168 l -0.003,-0.11463 -0.003,-0.12051 -0.0118,-0.246877 -0.0176,-0.25865 -0.0265,-0.270397 -0.0294,-0.27922 -0.0412,-0.288027 -0.047,-0.29392 -0.0588,-0.299787 -0.0676,-0.30567 -0.0764,-0.308607 -0.0911,-0.311547 -0.10287,-0.31155 -0.11463,-0.314487 -0.0617,-0.15577 -0.0676,-0.15578 -0.0705,-0.155767 -0.0735,-0.15578 c -0.87586,-1.801681 -2.13382,-2.751015 -2.28077,-2.751015 -0.0882,0 -0.14696,0.0558 -0.14696,0.14107 0,0.047 0,0.0735 0.27334,0.340947 1.44018,1.446044 2.27489,3.773829 2.27489,6.839341 0,2.501198 -0.5408,5.078813 -2.36013,6.924581 -0.1881,0.17341 -0.1881,0.20574 -0.1881,0.24689 0,0.0882 0.0588,0.14696 0.14696,0.14696 0.14695,0 1.46075,-0.996367 2.3278,-2.856835 0.7436,-1.607701 0.91995,-3.233042 0.91995,-4.461596 z"
         style="font-style:normal;font-variant:normal;font-weight:normal;font-stretch:normal;letter-spacing:normal;word-spacing:normal;text-anchor:start;fill:#000000;fill-opacity:1;fill-rule:evenodd;stroke:#000000;stroke-width:0;stroke-linecap:butt;stroke-linejoin:miter;stroke-miterlimit:10.43299961;stroke-dasharray:none;stroke-dashoffset:0;stroke-opacity:1"
         inkscape:connector-curvature="0" />
      <path
         id="path2687"
         d="m 161.72975,53.955504 h 0.0412 0.0411 0.0411 l 0.0235,-0.003 h 0.0206 l 0.0206,-0.003 0.0206,-0.003 0.0206,-0.003 0.0206,-0.003 0.0206,-0.003 0.0206,-0.006 0.0176,-0.006 0.0176,-0.006 0.0206,-0.009 0.0147,-0.006 0.0176,-0.009 0.0147,-0.0118 0.0147,-0.0118 0.0147,-0.0118 0.0118,-0.0118 0.0118,-0.0147 0.006,-0.009 0.006,-0.009 0.003,-0.009 0.006,-0.009 0.003,-0.009 0.006,-0.009 0.003,-0.009 0.003,-0.0118 0.003,-0.009 0.003,-0.0118 0.003,-0.0118 v -0.0118 l 0.003,-0.0118 v -0.0118 -0.0147 -0.0118 c 0,-0.293917 -0.27922,-0.293917 -0.48202,-0.293917 h -8.7704 c -0.20574,0 -0.48202,0 -0.48202,0.293917 0,0.28803 0.27628,0.28803 0.49671,0.28803 z"
         style="font-style:normal;font-variant:normal;font-weight:normal;font-stretch:normal;letter-spacing:normal;word-spacing:normal;text-anchor:start;fill:#000000;fill-opacity:1;fill-rule:evenodd;stroke:#000000;stroke-width:0;stroke-linecap:butt;stroke-linejoin:miter;stroke-miterlimit:10.43299961;stroke-dasharray:none;stroke-dashoffset:0;stroke-opacity:1"
         inkscape:connector-curvature="0" />
      <path
         id="path2689"
         d="m 161.74151,56.797636 h 0.0206 0.0176 0.0411 0.0411 l 0.0206,-0.003 h 0.0206 l 0.0206,-0.003 0.0206,-0.003 0.0206,-0.003 0.0176,-0.003 0.0206,-0.003 0.0206,-0.006 0.0176,-0.006 0.0176,-0.006 0.0176,-0.009 0.0176,-0.006 0.0147,-0.0118 0.0176,-0.009 0.0118,-0.0118 0.0147,-0.0118 0.0118,-0.0147 0.006,-0.006 0.006,-0.009 0.006,-0.006 0.006,-0.009 0.006,-0.009 0.003,-0.009 0.003,-0.009 0.006,-0.0118 0.003,-0.009 0.003,-0.0118 0.003,-0.009 0.003,-0.0118 0.003,-0.0118 v -0.0118 l 0.003,-0.0117 v -0.0147 -0.0118 -0.0147 c 0,-0.29392 -0.27922,-0.29392 -0.49378,-0.29392 h -8.74395 c -0.22043,0 -0.49671,0 -0.49671,0.29392 0,0.293907 0.27628,0.293907 0.48202,0.293907 z"
         style="font-style:normal;font-variant:normal;font-weight:normal;font-stretch:normal;letter-spacing:normal;word-spacing:normal;text-anchor:start;fill:#000000;fill-opacity:1;fill-rule:evenodd;stroke:#000000;stroke-width:0;stroke-linecap:butt;stroke-linejoin:miter;stroke-miterlimit:10.43299961;stroke-dasharray:none;stroke-dashoffset:0;stroke-opacity:1"
         inkscape:connector-curvature="0" />
      <path
         id="path2691"
         d="m 266.92168,39.462675 v -0.0147 -0.0176 -0.0147 -0.0147 -0.0147 -0.0147 -0.0117 -0.0147 -0.0118 -0.0118 -0.0118 -0.0118 -0.0118 -0.009 -0.0118 -0.009 -0.0206 -0.0176 -0.0147 -0.0147 l -0.0294,-0.0147 v -0.0118 -0.0118 -0.009 l -0.0294,-0.0118 v -0.006 -0.009 l -0.0294,-0.006 v -0.006 -0.003 l -0.0294,-0.003 v 0 -0.003 -0.003 h -0.0294 v -0.003 0 l -0.0294,-0.003 v 0 0 l -0.0294,-0.003 v 0 0 h -0.0294 v 0 h -0.0294 v -0.003 h -0.0294 v 0 h -0.0294 v 0 c -0.91113,0.937587 -2.20436,0.937587 -2.67462,0.937587 v 0.455557 c 0.29391,0 1.17566,0 1.91044,-0.382087 v 7.585885 c 0,0.529047 -0.0294,0.702457 -1.352,0.702457 h -0.47027 v 0.455567 c 0.52905,-0.047 1.79288,-0.047 2.38071,-0.047 0.58783,0 1.85166,0 2.38071,0.047 v -0.455567 h -0.47027 c -1.32261,0 -1.38139,-0.15872 -1.38139,-0.702457 z"
         style="font-style:normal;font-variant:normal;font-weight:normal;font-stretch:normal;letter-spacing:normal;word-spacing:normal;text-anchor:start;fill:#000000;fill-opacity:1;fill-rule:evenodd;stroke:#000000;stroke-width:0;stroke-linecap:butt;stroke-linejoin:miter;stroke-miterlimit:10.43299961;stroke-dasharray:none;stroke-dashoffset:0;stroke-opacity:1"
         inkscape:connector-curvature="0" />
      <polyline
         id="polyline2693"
         points="678,396 1340.8,396 1340.8,398.04 678,398.04 "
         style="font-style:normal;font-variant:normal;font-weight:normal;font-stretch:normal;letter-spacing:normal;word-spacing:normal;text-anchor:start;fill:#000000;fill-opacity:1;fill-rule:nonzero;stroke:#000000;stroke-width:0;stroke-linecap:butt;stroke-linejoin:miter;stroke-miterlimit:10.43299961;stroke-dasharray:none;stroke-dashoffset:0;stroke-opacity:1"
         transform="matrix(0.29391429,0,0,-0.29391429,-30.255063,171.89129)" />
      <path
         id="path2695"
         d="m 179.01315,81.868385 v -0.006 -0.009 -0.003 -0.006 -0.003 l -0.003,-0.006 v -0.003 l -0.003,-0.006 -0.003,-0.006 -0.003,-0.006 -0.003,-0.006 -0.006,-0.009 -0.003,-0.006 -0.006,-0.009 -0.006,-0.009 -0.009,-0.009 -0.006,-0.009 -0.009,-0.0118 -0.006,-0.006 -0.003,-0.006 -0.006,-0.006 -0.006,-0.006 -0.006,-0.006 -0.006,-0.006 -0.006,-0.009 -0.006,-0.006 -0.006,-0.009 -0.009,-0.006 -0.006,-0.009 -0.009,-0.009 -0.009,-0.009 -0.006,-0.006 -0.009,-0.009 -0.009,-0.0118 -0.009,-0.009 -0.009,-0.009 -0.0118,-0.009 -0.009,-0.0118 -0.0118,-0.0118 -0.009,-0.009 -0.0118,-0.0118 -0.0118,-0.0118 c -1.82815,-1.845778 -2.29547,-4.611493 -2.29547,-6.851111 0,-2.548215 0.55549,-5.09938 2.35425,-6.924581 0.1881,-0.179277 0.1881,-0.208677 0.1881,-0.252757 0,-0.10287 -0.0529,-0.14402 -0.14107,-0.14402 -0.14696,0 -1.46664,0.993424 -2.32781,2.853895 -0.74948,1.610641 -0.92289,3.235972 -0.92289,4.467463 0,1.143324 0.15872,2.909735 0.96404,4.570346 0.87587,1.798748 2.1397,2.748082 2.28666,2.748082 0.0882,0 0.14107,-0.0412 0.14107,-0.146957 z"
         style="font-style:normal;font-variant:normal;font-weight:normal;font-stretch:normal;letter-spacing:normal;word-spacing:normal;text-anchor:start;fill:#000000;fill-opacity:1;fill-rule:evenodd;stroke:#000000;stroke-width:0;stroke-linecap:butt;stroke-linejoin:miter;stroke-miterlimit:10.43299961;stroke-dasharray:none;stroke-dashoffset:0;stroke-opacity:1"
         inkscape:connector-curvature="0" />
      <path
         id="path2697"
         d="m 187.44849,73.377253 0.13814,-0.0323 0.14108,-0.0353 0.14108,-0.0412 0.14108,-0.0441 0.14108,-0.047 0.14108,-0.0529 0.14108,-0.0558 0.14108,-0.0588 0.13814,-0.0647 0.13814,-0.0676 0.13226,-0.0705 0.13226,-0.0735 0.12932,-0.0794 0.12638,-0.0794 0.12345,-0.0852 0.11756,-0.0911 0.11463,-0.0911 0.10875,-0.0941 0.10287,-0.0999 0.0999,-0.10287 0.094,-0.102867 0.0852,-0.10875 0.0794,-0.11169 0.0735,-0.11463 0.0676,-0.11756 0.0588,-0.120507 0.05,-0.12344 0.0412,-0.12638 0.0353,-0.12933 0.0235,-0.132257 0.0147,-0.1352 0.006,-0.13814 c 0,-1.257941 -1.31968,-2.195528 -3.23306,-2.195528 h -4.17358 c -0.29392,0 -0.42912,0 -0.42912,0.29392 0,0.161647 0.1352,0.161647 0.41442,0.161647 0.0264,0 0.30861,0 0.5555,0.0264 0.26158,0.0323 0.39384,0.047 0.39384,0.23513 0,0.0588 -0.0118,0.10581 -0.0588,0.279217 l -1.96041,7.862174 c -0.14696,0.573124 -0.17635,0.687754 -1.33143,0.687754 -0.26746,0 -0.39678,0 -0.39678,0.29391 0,0.161657 0.17634,0.161657 0.2028,0.161657 0.41442,0 1.43724,-0.0441 1.84578,-0.0441 0.40854,0 1.45194,0.0441 1.86048,0.0441 0.1205,0 0.29391,0 0.29391,-0.293917 0,-0.16165 -0.13226,-0.16165 -0.40854,-0.16165 -0.5408,0 -0.95522,0 -0.95522,-0.261577 0,-0.0852 0.0323,-0.15872 0.047,-0.24689 l 0.96404,-3.879649 h 1.74291 l -0.0118,-0.32625 h -1.64592 l 0.95522,-3.820862 c 0.0882,-0.349757 0.12932,-0.496717 0.40854,-0.543737 0.1352,-0.0118 0.60252,-0.0118 0.8935,-0.0118 1.04046,0 2.6658,0 2.6658,1.448994 0,0.496707 -0.23219,1.507771 -0.80826,2.077958 -0.37621,0.379147 -1.15215,0.849407 -2.46888,0.849407 l 0.0118,0.32625 c 1.33438,0 1.59596,0.817077 1.59596,1.331424 0,0.22044 -0.11463,0.670127 -0.2028,1.011064 -0.10581,0.408537 -0.23513,0.949334 -0.23513,1.243244 0,1.581251 1.75467,1.581251 1.94865,1.581251 1.24326,0 1.75467,-1.481321 1.75467,-1.687061 0,-0.17341 -0.16166,-0.17341 -0.17635,-0.17341 -0.13226,0 -0.16165,0.10581 -0.18811,0.20574 -0.36739,1.084544 -0.99637,1.331431 -1.33731,1.331431 -0.48202,0 -0.58195,-0.320367 -0.58195,-0.896434 0,-0.449687 0.0882,-1.196224 0.14696,-1.666491 0.0264,-0.205737 0.0588,-0.482017 0.0588,-0.687754 0,-1.125684 -0.98167,-1.581244 -1.37552,-1.728204 z"
         style="font-style:normal;font-variant:normal;font-weight:normal;font-stretch:normal;letter-spacing:normal;word-spacing:normal;text-anchor:start;fill:#000000;fill-opacity:1;fill-rule:evenodd;stroke:#000000;stroke-width:0;stroke-linecap:butt;stroke-linejoin:miter;stroke-miterlimit:10.43299961;stroke-dasharray:none;stroke-dashoffset:0;stroke-opacity:1"
         inkscape:connector-curvature="0" />
      <path
         id="path2699"
         d="m 200.33076,74.990834 h 4.08541 c 0.2028,0 0.48202,0 0.48202,-0.29392 0,-0.293907 -0.27922,-0.293907 -0.48202,-0.293907 h -4.08541 v -4.100086 c 0,-0.2028 0,-0.484947 -0.29392,-0.484947 -0.29097,0 -0.29097,0.282147 -0.29097,0.484947 v 4.100086 h -4.10011 c -0.20574,0 -0.48202,0 -0.48202,0.293907 0,0.29392 0.27628,0.29392 0.48202,0.29392 h 4.10011 v 4.097136 c 0,0.20574 0,0.484957 0.29097,0.484957 0.29392,0 0.29392,-0.279217 0.29392,-0.484957 z"
         style="font-style:normal;font-variant:normal;font-weight:normal;font-stretch:normal;letter-spacing:normal;word-spacing:normal;text-anchor:start;fill:#000000;fill-opacity:1;fill-rule:evenodd;stroke:#000000;stroke-width:0;stroke-linecap:butt;stroke-linejoin:miter;stroke-miterlimit:10.43299961;stroke-dasharray:none;stroke-dashoffset:0;stroke-opacity:1"
         inkscape:connector-curvature="0" />
      <path
         id="path2701"
         d="m 214.45628,69.497604 0.0118,-0.047 0.0117,-0.047 0.0118,-0.0441 0.0118,-0.0441 0.0118,-0.0382 0.0147,-0.0382 0.0147,-0.0382 0.0147,-0.0323 0.0176,-0.0323 0.0176,-0.0323 0.0235,-0.0294 0.0235,-0.0265 0.0265,-0.0265 0.0294,-0.0235 0.0323,-0.0206 0.0353,-0.0206 0.0382,-0.0206 0.0441,-0.0176 0.047,-0.0176 0.0529,-0.0147 0.0265,-0.006 0.0294,-0.006 0.0294,-0.006 0.0323,-0.006 0.0323,-0.006 0.0323,-0.006 0.0353,-0.003 0.0382,-0.006 0.0382,-0.003 0.0411,-0.006 0.0412,-0.003 0.0411,-0.003 0.0441,-0.003 0.047,-0.003 0.047,-0.003 0.05,-0.003 h 0.05 l 0.0529,-0.003 h 0.0529 l 0.0558,-0.003 h 0.0588 0.0588 0.0617 0.0647 c 0.43499,0 0.55549,0 0.55549,-0.282157 0,-0.17341 -0.15871,-0.17341 -0.23219,-0.17341 -0.4879,0 -1.68707,0.047 -2.16909,0.047 -0.44087,0 -1.51072,-0.047 -1.94571,-0.047 -0.10875,0 -0.28216,0 -0.28216,0.29392 0,0.161647 0.1352,0.161647 0.40854,0.161647 0.0323,0 0.30861,0 0.56138,0.0264 0.26158,0.0323 0.39385,0.047 0.39385,0.23513 0,0.0588 -0.0176,0.10581 -0.0588,0.279217 l -1.9604,7.862171 c -0.14696,0.573124 -0.17929,0.687754 -1.33732,0.687754 -0.24688,0 -0.39384,0 -0.39384,0.29391 0,0.161657 0.13226,0.161657 0.39384,0.161657 h 6.78355 c 0.34975,0 0.36151,0 0.45262,-0.246887 l 1.15509,-3.165442 c 0.0588,-0.15871 0.0588,-0.1881 0.0588,-0.20574 0,-0.0558 -0.0411,-0.161647 -0.17341,-0.161647 -0.1352,0 -0.14696,0.0735 -0.24983,0.308607 -0.49965,1.349061 -1.14332,3.015542 -3.67686,3.015542 h -1.37552 c -0.20574,0 -0.23219,0 -0.32037,-0.0118 -0.14696,-0.0147 -0.19398,-0.0294 -0.19398,-0.146947 0,-0.0411 0,-0.0735 0.0735,-0.33507 z"
         style="font-style:normal;font-variant:normal;font-weight:normal;font-stretch:normal;letter-spacing:normal;word-spacing:normal;text-anchor:start;fill:#000000;fill-opacity:1;fill-rule:evenodd;stroke:#000000;stroke-width:0;stroke-linecap:butt;stroke-linejoin:miter;stroke-miterlimit:10.43299961;stroke-dasharray:none;stroke-dashoffset:0;stroke-opacity:1"
         inkscape:connector-curvature="0" />
      <path
         id="path2703"
         d="m 225.01368,74.696914 v -0.0411 l -0.003,-0.0382 -0.006,-0.0382 -0.006,-0.0382 -0.009,-0.0382 -0.0118,-0.0353 -0.0118,-0.0382 -0.0147,-0.0353 -0.0147,-0.0323 -0.0176,-0.0353 -0.0176,-0.0323 -0.0206,-0.0323 -0.0206,-0.0294 -0.0235,-0.0294 -0.0264,-0.0265 -0.0235,-0.0294 -0.0294,-0.0235 -0.0265,-0.0264 -0.0294,-0.0235 -0.0294,-0.0206 -0.0323,-0.0206 -0.0323,-0.0176 -0.0353,-0.0176 -0.0323,-0.0147 -0.0353,-0.0147 -0.0382,-0.0118 -0.0353,-0.0118 -0.0382,-0.009 -0.0382,-0.006 -0.0382,-0.006 -0.0382,-0.003 h -0.0411 c -0.42324,0 -0.77594,0.349757 -0.77594,0.775927 0,0.42324 0.3527,0.77594 0.77594,0.77594 0.42617,0 0.77593,-0.3527 0.77593,-0.77594 z"
         style="font-style:normal;font-variant:normal;font-weight:normal;font-stretch:normal;letter-spacing:normal;word-spacing:normal;text-anchor:start;fill:#000000;fill-opacity:1;fill-rule:evenodd;stroke:#000000;stroke-width:0;stroke-linecap:butt;stroke-linejoin:miter;stroke-miterlimit:10.43299961;stroke-dasharray:none;stroke-dashoffset:0;stroke-opacity:1"
         inkscape:connector-curvature="0" />
      <path
         id="path2705"
         d="m 230.19539,80.143124 -0.009,0.0441 -0.0118,0.0441 -0.009,0.0412 -0.0118,0.0382 -0.009,0.0382 -0.009,0.0353 -0.0118,0.0323 -0.009,0.0294 -0.0118,0.0294 -0.0118,0.0264 -0.0118,0.0265 -0.0147,0.0235 -0.0147,0.0206 -0.0147,0.0206 -0.0176,0.0206 -0.0176,0.0176 -0.0206,0.0147 -0.0235,0.0147 -0.0206,0.0118 -0.0264,0.0118 -0.0294,0.0118 -0.0294,0.009 -0.0323,0.009 -0.0323,0.006 -0.0382,0.009 h -0.0206 l -0.0176,0.003 -0.0235,0.003 -0.0206,0.003 h -0.0235 l -0.0235,0.003 h -0.0235 l -0.0235,0.003 h -0.0264 -0.0265 -0.0265 l -0.0294,0.003 h -0.0294 -0.0294 c -0.17341,0 -0.33506,0 -0.33506,0.273344 0,0.1205 0.0735,0.17929 0.1881,0.17929 0.39973,0 0.82296,-0.0441 1.2315,-0.0441 0.48202,0 0.98168,0.0441 1.45194,0.0441 0.0735,0 0.26158,0 0.26158,-0.293924 0,-0.15871 -0.14695,-0.15871 -0.34975,-0.15871 -0.73479,0 -0.73479,-0.10581 -0.73479,-0.23513 0,-0.179287 0.61722,-2.562915 0.72009,-2.930312 0.19104,0.423237 0.59958,0.937584 1.34613,0.937584 l -0.0118,-0.323307 c -0.96992,0 -1.15802,-1.216794 -1.15802,-1.302034 0,-0.0294 0,-0.0617 0.0412,-0.235127 l 0.72009,-2.871525 c 0.10287,-0.393847 0.49671,-0.802384 0.7583,-1.022814 0.51435,-0.455567 0.94052,-0.555497 1.19035,-0.555497 0.58195,0 0.93465,0.508467 0.93465,1.378451 0,0.861167 -0.48202,2.542348 -0.74655,3.103715 -0.49671,1.022814 -1.19917,1.504831 -1.73997,1.504831 l 0.0118,0.323307 c 1.69882,0 3.52697,-2.136748 3.52697,-4.291126 0,-1.375511 -0.83178,-2.339545 -1.94571,-2.339545 -0.73185,0 -1.43431,0.523167 -1.91633,1.096294 -0.14695,-0.790627 -0.77593,-1.096294 -1.31673,-1.096294 -0.676,0 -0.95522,0.567257 -1.08454,0.828834 -0.26747,0.502587 -0.45557,1.378451 -0.45557,1.425481 0,0.14695 0.14696,0.14695 0.17635,0.14695 0.14695,0 0.15871,-0.0176 0.24688,-0.340937 0.25277,-1.037514 0.54081,-1.739961 1.06985,-1.739961 0.24983,0 0.45557,0.11463 0.45557,0.670117 0,0.340937 -0.047,0.499657 -0.10287,0.749484 z"
         style="font-style:normal;font-variant:normal;font-weight:normal;font-stretch:normal;letter-spacing:normal;word-spacing:normal;text-anchor:start;fill:#000000;fill-opacity:1;fill-rule:evenodd;stroke:#000000;stroke-width:0;stroke-linecap:butt;stroke-linejoin:miter;stroke-miterlimit:10.43299961;stroke-dasharray:none;stroke-dashoffset:0;stroke-opacity:1"
         inkscape:connector-curvature="0" />
      <path
         id="path2707"
         d="m 241.14076,74.696914 -0.003,-0.108737 v -0.11463 l -0.003,-0.11463 -0.003,-0.1205 -0.0118,-0.246887 -0.0176,-0.25865 -0.0264,-0.270397 -0.0294,-0.27922 -0.0411,-0.285087 -0.047,-0.29392 -0.0588,-0.302727 -0.0676,-0.30273 -0.0764,-0.308607 -0.0911,-0.311547 -0.10287,-0.31449 -0.11463,-0.311547 -0.0617,-0.15871 -0.0676,-0.15577 -0.0705,-0.155777 -0.0735,-0.15577 c -0.87587,-1.798751 -2.13382,-2.751025 -2.28078,-2.751025 -0.0882,0 -0.14695,0.0558 -0.14695,0.14402 0,0.0441 0,0.0735 0.27628,0.337997 1.43724,1.446054 2.27195,3.776779 2.27195,6.839341 0,2.501198 -0.5408,5.078813 -2.36013,6.924581 -0.1881,0.17341 -0.1881,0.20574 -0.1881,0.24689 0,0.0882 0.0588,0.146957 0.14695,0.146957 0.14696,0 1.46076,-0.996364 2.32781,-2.853892 0.7436,-1.607701 0.91995,-3.233042 0.91995,-4.464536 z"
         style="font-style:normal;font-variant:normal;font-weight:normal;font-stretch:normal;letter-spacing:normal;word-spacing:normal;text-anchor:start;fill:#000000;fill-opacity:1;fill-rule:evenodd;stroke:#000000;stroke-width:0;stroke-linecap:butt;stroke-linejoin:miter;stroke-miterlimit:10.43299961;stroke-dasharray:none;stroke-dashoffset:0;stroke-opacity:1"
         inkscape:connector-curvature="0" />
      <path
         id="path2709"
         d="m 248.64145,74.696914 v -0.0411 l -0.003,-0.0382 -0.006,-0.0382 -0.006,-0.0382 -0.009,-0.0382 -0.0118,-0.0353 -0.0118,-0.0382 -0.0147,-0.0353 -0.0147,-0.0323 -0.0176,-0.0353 -0.0176,-0.0323 -0.0206,-0.0323 -0.0206,-0.0294 -0.0235,-0.0294 -0.0264,-0.0265 -0.0235,-0.0294 -0.0265,-0.0235 -0.0294,-0.0264 -0.0294,-0.0235 -0.0294,-0.0206 -0.0323,-0.0206 -0.0323,-0.0176 -0.0353,-0.0176 -0.0323,-0.0147 -0.0353,-0.0147 -0.0353,-0.0118 -0.0382,-0.0118 -0.0382,-0.009 -0.0382,-0.006 -0.0382,-0.006 -0.0382,-0.003 h -0.0411 c -0.42324,0 -0.77594,0.349757 -0.77594,0.775927 0,0.42324 0.3527,0.77594 0.77594,0.77594 0.42911,0 0.77593,-0.3527 0.77593,-0.77594 z"
         style="font-style:normal;font-variant:normal;font-weight:normal;font-stretch:normal;letter-spacing:normal;word-spacing:normal;text-anchor:start;fill:#000000;fill-opacity:1;fill-rule:evenodd;stroke:#000000;stroke-width:0;stroke-linecap:butt;stroke-linejoin:miter;stroke-miterlimit:10.43299961;stroke-dasharray:none;stroke-dashoffset:0;stroke-opacity:1"
         inkscape:connector-curvature="0" />
      <path
         id="path2713"
         d="m 264.62827,59.548661 v -0.0441 l 0.0294,-0.0411 v -0.0411 -0.0382 l 0.0294,-0.0382 v -0.0323 -0.0323 l 0.0294,-0.0323 v -0.0294 l 0.0294,-0.0265 v -0.0265 l 0.0294,-0.0235 v -0.0235 l 0.0294,-0.0206 v -0.0206 l 0.0294,-0.0176 0.0294,-0.0176 0.0294,-0.0147 0.0294,-0.0147 0.0294,-0.0118 0.0294,-0.0118 0.0294,-0.0118 0.0588,-0.009 v -0.003 l 0.0294,-0.006 0.0294,-0.003 0.0294,-0.003 v -0.003 l 0.0294,-0.003 0.0294,-0.003 0.0294,-0.003 0.0294,-0.003 h 0.0294 l 0.0294,-0.003 h 0.0294 l 0.0294,-0.003 h 0.0294 0.0294 0.0588 0.0294 0.0294 c 0.23513,0 0.41148,0 0.41148,-0.282157 0,-0.12638 -0.0882,-0.17341 -0.20574,-0.17341 -0.38209,0 -1.26383,0.047 -1.64592,0.047 -0.47026,0 -1.67531,-0.047 -2.14557,-0.047 -0.11757,0 -0.29392,0 -0.29392,0.293917 0,0.16165 0.11757,0.16165 0.49966,0.16165 0.3233,0 0.47026,0 0.82296,0.0264 0.35269,0.047 0.47026,0.0911 0.47026,0.29392 0,0.0882 -0.0294,0.193977 -0.0588,0.308607 l -1.67532,6.721784 c -0.35269,1.419594 -1.352,2.195528 -2.11912,2.195528 -0.38209,0 -1.15802,-0.14696 -1.39021,-0.908194 0.0412,0.0118 0.14695,0.0118 0.17341,0.0118 0.57019,0 0.94934,-0.493777 0.94934,-0.934644 0,-0.47026 -0.39385,-0.611337 -0.64073,-0.611337 -0.26159,0 -0.98462,0.173407 -0.98462,1.169771 0,0.905247 0.77594,1.593001 1.93396,1.593001 1.34319,0 2.87154,-0.964034 3.22424,-2.413015 z"
         style="font-style:normal;font-variant:normal;font-weight:normal;font-stretch:normal;letter-spacing:normal;word-spacing:normal;text-anchor:start;fill:#000000;fill-opacity:1;fill-rule:evenodd;stroke:#000000;stroke-width:0;stroke-linecap:butt;stroke-linejoin:miter;stroke-miterlimit:10.43299961;stroke-dasharray:none;stroke-dashoffset:0;stroke-opacity:1"
         inkscape:connector-curvature="0" />
      <path
         id="path2715"
         d="m 272.27005,64.821451 v -0.0411 -0.0382 -0.0382 -0.0382 l -0.0294,-0.0382 v -0.0382 -0.0353 l -0.0294,-0.0353 v -0.0353 l -0.0294,-0.0323 -0.0294,-0.0323 v -0.0323 l -0.0294,-0.0294 -0.0294,-0.0294 -0.0294,-0.0294 -0.0294,-0.0265 v -0.0265 l -0.0294,-0.0235 -0.0294,-0.0235 -0.0294,-0.0206 -0.0588,-0.0206 -0.0294,-0.0176 -0.0294,-0.0176 -0.0294,-0.0176 -0.0294,-0.0118 -0.0294,-0.0118 -0.0588,-0.0118 -0.0294,-0.009 -0.0294,-0.006 -0.0588,-0.006 -0.0294,-0.003 h -0.0294 c -0.44087,0 -0.79357,0.34682 -0.79357,0.775927 0,0.4203 0.3527,0.77594 0.79357,0.77594 0.41148,0 0.76418,-0.35564 0.76418,-0.77594 z"
         style="font-style:normal;font-variant:normal;font-weight:normal;font-stretch:normal;letter-spacing:normal;word-spacing:normal;text-anchor:start;fill:#000000;fill-opacity:1;fill-rule:evenodd;stroke:#000000;stroke-width:0;stroke-linecap:butt;stroke-linejoin:miter;stroke-miterlimit:10.43299961;stroke-dasharray:none;stroke-dashoffset:0;stroke-opacity:1"
         inkscape:connector-curvature="0" />
      <path
         id="path2717"
         d="m 277.47233,70.267661 -0.0294,0.0441 v 0.0441 l -0.0294,0.0412 v 0.0382 0.0382 l -0.0294,0.0323 v 0.0353 0.0294 l -0.0294,0.0294 v 0.0264 0.0265 l -0.0294,0.0235 v 0.0206 l -0.0294,0.0206 v 0.0206 l -0.0294,0.0147 -0.0294,0.0176 -0.0294,0.0147 v 0.0118 l -0.0294,0.0118 -0.0294,0.0118 -0.0294,0.009 -0.0294,0.009 -0.0294,0.006 -0.0588,0.006 v 0.003 l -0.0294,0.003 -0.0294,0.003 -0.0294,0.003 v 0 l -0.0294,0.003 h -0.0294 -0.0294 l -0.0294,0.003 v 0 h -0.0294 -0.0294 -0.0294 l -0.0294,0.003 c -0.17635,0 -0.3527,0 -0.3527,0.273344 0,0.1205 0.0882,0.17929 0.20574,0.17929 0.38209,0 0.82296,-0.0441 1.23444,-0.0441 0.47027,0 0.96992,0.0441 1.44018,0.0441 0.0588,0 0.26453,0 0.26453,-0.29392 0,-0.158714 -0.14696,-0.158714 -0.3527,-0.158714 -0.73479,0 -0.73479,-0.10581 -0.73479,-0.23513 0,-0.17929 0.61722,-2.562915 0.7054,-2.930312 0.20574,0.423237 0.61722,0.937584 1.352,0.937584 v -0.32331 c -0.96991,0 -1.17565,-1.216791 -1.17565,-1.302031 0,-0.0294 0,-0.0617 0.0588,-0.23513 l 0.70539,-2.871522 c 0.11757,-0.39385 0.49966,-0.802387 0.76418,-1.022814 0.52905,-0.45557 0.94053,-0.555497 1.20505,-0.555497 0.55844,0 0.91113,0.508467 0.91113,1.378451 0,0.861164 -0.47026,2.542345 -0.73478,3.103712 -0.49966,1.022814 -1.20505,1.504831 -1.7341,1.504831 v 0.32331 c 1.70471,0 3.52697,-2.136748 3.52697,-4.291126 0,-1.375514 -0.82296,-2.342488 -1.93983,-2.342488 -0.73479,0 -1.44018,0.526107 -1.91044,1.099234 -0.14696,-0.790624 -0.79357,-1.099234 -1.32262,-1.099234 -0.676,0 -0.96991,0.570197 -1.08748,0.831777 -0.26452,0.502587 -0.44087,1.378451 -0.44087,1.425481 0,0.14695 0.14696,0.14695 0.17635,0.14695 0.14695,0 0.14695,-0.0206 0.23513,-0.34094 0.26452,-1.037514 0.52904,-1.739958 1.05809,-1.739958 0.26452,0 0.47026,0.114627 0.47026,0.670114 0,0.34094 -0.0588,0.499657 -0.11756,0.749487 z"
         style="font-style:normal;font-variant:normal;font-weight:normal;font-stretch:normal;letter-spacing:normal;word-spacing:normal;text-anchor:start;fill:#000000;fill-opacity:1;fill-rule:evenodd;stroke:#000000;stroke-width:0;stroke-linecap:butt;stroke-linejoin:miter;stroke-miterlimit:10.43299961;stroke-dasharray:none;stroke-dashoffset:0;stroke-opacity:1"
         inkscape:connector-curvature="0" />
      <path
         id="path2719"
         d="m 293.40248,65.115368 h 4.08541 c 0.20574,0 0.49966,0 0.49966,-0.293917 0,-0.293907 -0.29392,-0.293907 -0.49966,-0.293907 h -4.08541 v -4.103019 c 0,-0.199867 0,-0.482017 -0.29391,-0.482017 -0.29392,0 -0.29392,0.28215 -0.29392,0.482017 v 4.103019 h -4.0854 c -0.20574,0 -0.49966,0 -0.49966,0.293907 0,0.293917 0.29392,0.293917 0.49966,0.293917 h 4.0854 v 4.094199 c 0,0.208677 0,0.487897 0.29392,0.487897 0.29391,0 0.29391,-0.27922 0.29391,-0.487897 z"
         style="font-style:normal;font-variant:normal;font-weight:normal;font-stretch:normal;letter-spacing:normal;word-spacing:normal;text-anchor:start;fill:#000000;fill-opacity:1;fill-rule:evenodd;stroke:#000000;stroke-width:0;stroke-linecap:butt;stroke-linejoin:miter;stroke-miterlimit:10.43299961;stroke-dasharray:none;stroke-dashoffset:0;stroke-opacity:1"
         inkscape:connector-curvature="0" />
      <path
         id="path2721"
         d="m 307.42219,62.625923 h 1.26384 c 0.29391,0 0.44087,0 0.44087,-0.293907 0,-0.16165 -0.14696,-0.16165 -0.41148,-0.16165 h -1.20505 l 0.3233,-1.672371 c 0.0588,-0.305667 0.26453,-1.343171 0.3527,-1.519521 0.11757,-0.279217 0.38209,-0.499657 0.676,-0.499657 0.0588,0 0.44088,0 0.7054,0.267457 -0.61722,0.0529 -0.76418,0.567257 -0.76418,0.787697 0,0.335057 0.23513,0.511407 0.52905,0.511407 0.38209,0 0.79357,-0.323307 0.79357,-0.878804 0,-0.673057 -0.67601,-1.008114 -1.26384,-1.008114 -0.49965,0 -1.41078,0.261577 -1.85166,1.710568 -0.0882,0.30861 -0.14695,0.455557 -0.49965,2.301338 h -0.99931 c -0.29391,0 -0.44087,0 -0.44087,0.276277 0,0.17928 0.11757,0.17928 0.41148,0.17928 h 0.96992 l -1.11688,5.781267 c -0.26452,1.419594 -0.49965,2.756895 -1.26383,2.756895 -0.0588,0 -0.41148,0 -0.70539,-0.26746 0.676,-0.0411 0.79357,-0.570184 0.79357,-0.790624 0,-0.335057 -0.23514,-0.514347 -0.52905,-0.514347 -0.38209,0 -0.79357,0.323307 -0.79357,0.881744 0,0.658357 0.64661,1.011054 1.23444,1.011054 0.79357,0 1.3814,-0.864104 1.64592,-1.422531 0.47026,-0.925824 0.82296,-2.692245 0.82296,-2.798055 z"
         style="font-style:normal;font-variant:normal;font-weight:normal;font-stretch:normal;letter-spacing:normal;word-spacing:normal;text-anchor:start;fill:#000000;fill-opacity:1;fill-rule:evenodd;stroke:#000000;stroke-width:0;stroke-linecap:butt;stroke-linejoin:miter;stroke-miterlimit:10.43299961;stroke-dasharray:none;stroke-dashoffset:0;stroke-opacity:1"
         inkscape:connector-curvature="0" />
      <polyline
         id="polyline2723"
         points="989,330 1173.2,330 1173.2,332.04 989,332.04 "
         style="font-style:normal;font-variant:normal;font-weight:normal;font-stretch:normal;letter-spacing:normal;word-spacing:normal;text-anchor:start;fill:#000000;fill-opacity:1;fill-rule:nonzero;stroke:#000000;stroke-width:0;stroke-linecap:butt;stroke-linejoin:miter;stroke-miterlimit:10.43299961;stroke-dasharray:none;stroke-dashoffset:0;stroke-opacity:1"
         transform="matrix(0.29391429,0,0,-0.29391429,-33.959232,171.89129)" />
      <path
         id="path2725"
         d="m 281.99861,82.494422 v -0.006 -0.006 -0.003 -0.006 -0.006 -0.006 l -0.0294,-0.009 v -0.006 -0.006 -0.006 -0.009 -0.006 -0.0147 -0.0176 l -0.0294,-0.0147 v -0.0147 -0.006 -0.009 -0.006 -0.006 -0.009 -0.006 -0.006 -0.006 -0.006 -0.006 -0.003 -0.006 c 0,-0.0118 0.23513,-0.22044 0.41148,-0.335057 l 2.55705,-1.978041 c 1.3814,-1.011054 1.96923,-1.066894 2.38071,-1.110984 0.11756,-0.0147 0.26452,-0.0294 0.26452,-0.293917 0,-0.0558 -0.0294,-0.16165 -0.14696,-0.16165 -0.3233,0 -0.676,0.047 -1.05809,0.047 -0.49965,0 -1.08748,-0.047 -1.61653,-0.047 -0.0882,0 -0.26452,0 -0.26452,0.29392 0,0.0999 0.0588,0.146947 0.17635,0.161647 0.3233,0.0265 0.44087,0.0999 0.44087,0.30567 0,0.261577 -0.44087,0.602517 -0.52905,0.675997 l -5.70193,4.391053 1.17565,-4.699663 c 0.11757,-0.526097 0.14696,-0.673057 1.20505,-0.673057 0.38209,0 0.52905,0 0.52905,-0.293917 0,-0.12932 -0.11757,-0.16165 -0.23513,-0.16165 -0.38209,0 -1.44018,0.047 -1.85166,0.047 -0.44088,0 -1.46958,-0.047 -1.88106,-0.047 -0.11756,0 -0.29391,0 -0.29391,0.27922 0,0.176347 0.11757,0.176347 0.41148,0.176347 0.20574,0 0.44087,0.0118 0.61722,0.0265 0.23513,0.0323 0.32331,0.0735 0.32331,0.23513 0,0.0588 0,0.10581 -0.0588,0.279217 l -1.93983,7.862168 c -0.14696,0.573124 -0.17635,0.687754 -1.35201,0.687754 -0.23513,0 -0.41148,0 -0.41148,0.28216 0,0.173407 0.17635,0.173407 0.23513,0.173407 0.41148,0 1.44018,-0.047 1.85166,-0.047 0.32331,0 0.64662,0.0206 0.94053,0.0206 0.32331,0 0.64661,0.0265 0.94053,0.0265 0.11756,0 0.29391,0 0.29391,-0.293917 0,-0.16165 -0.11757,-0.16165 -0.41148,-0.16165 -0.52905,0 -0.94053,0 -0.94053,-0.261587 0,-0.1058 0.0882,-0.426167 0.11757,-0.646607 0.23513,-0.758297 0.41148,-1.534221 0.58783,-2.295458 l 2.20436,-1.698808 1.7047,3.938426 c 0.14696,0.396777 0.14696,0.423237 0.14696,0.511407 0,0.440867 -0.61722,0.452627 -0.73479,0.452627 -0.17635,0 -0.3527,0 -0.3527,0.29391 0,0.161657 0.20574,0.161657 0.23513,0.161657 0.55844,0 1.17566,-0.047 1.76349,-0.047 0.32331,0 1.11687,0.047 1.44018,0.047 0.0882,0 0.26452,0 0.26452,-0.293917 0,-0.16165 -0.17635,-0.16165 -0.29391,-0.16165 -0.58783,-0.0118 -0.79357,-0.146957 -0.99931,-0.655424 z"
         style="font-style:normal;font-variant:normal;font-weight:normal;font-stretch:normal;letter-spacing:normal;word-spacing:normal;text-anchor:start;fill:#000000;fill-opacity:1;fill-rule:evenodd;stroke:#000000;stroke-width:0;stroke-linecap:butt;stroke-linejoin:miter;stroke-miterlimit:10.43299961;stroke-dasharray:none;stroke-dashoffset:0;stroke-opacity:1"
         inkscape:connector-curvature="0" />
      <path
         id="path2727"
         d="m 291.49204,86.670918 -0.0294,0.009 -0.0588,0.006 -0.0294,0.009 -0.0294,0.0118 -0.0294,0.009 -0.0294,0.0118 -0.0294,0.0147 v 0.0147 l -0.0294,0.0147 -0.0294,0.0147 -0.0294,0.0176 -0.0294,0.0176 v 0.0176 l -0.0294,0.0206 v 0.0176 l -0.0294,0.0206 -0.0294,0.0206 v 0.0206 0.0206 l -0.0294,0.0235 v 0.0206 l -0.0294,0.0235 v 0.0206 0.0235 0.0206 l -0.0294,0.0235 v 0.0235 0.0206 0.0235 0.0206 0.0235 0.0206 c 0,0.276284 0.20574,0.376214 0.38209,0.376214 0.23513,0 0.58783,-0.16165 0.58783,-0.652494 0,-0.696567 -0.79357,-0.890554 -1.352,-0.890554 -1.52836,0 -2.93915,1.410788 -2.93915,2.833329 0,0.881737 0.58783,1.781111 1.88105,1.781111 1.7341,0 2.52767,-1.011064 2.52767,-1.158014 0,-0.0588 -0.0882,-0.173407 -0.14696,-0.173407 -0.0882,0 -0.0882,0.0235 -0.17635,0.105807 -0.79357,0.940517 -1.99862,0.940517 -2.17496,0.940517 -0.73479,0 -1.0581,-0.499647 -1.0581,-1.137444 0,-0.29391 0.14696,-1.410784 0.67601,-2.116175 0.38209,-0.505527 0.91113,-0.790627 1.41079,-0.790627 0.14695,0 0.64661,0.0176 0.91113,0.30567 z"
         style="font-style:normal;font-variant:normal;font-weight:normal;font-stretch:normal;letter-spacing:normal;word-spacing:normal;text-anchor:start;fill:#000000;fill-opacity:1;fill-rule:evenodd;stroke:#000000;stroke-width:0;stroke-linecap:butt;stroke-linejoin:miter;stroke-miterlimit:10.43299961;stroke-dasharray:none;stroke-dashoffset:0;stroke-opacity:1"
         inkscape:connector-curvature="0" />
      <path
         id="path2729"
         d="m 321.7946,74.990834 h 4.08541 c 0.20574,0 0.49966,0 0.49966,-0.29392 0,-0.293907 -0.29392,-0.293907 -0.49966,-0.293907 h -4.08541 v -4.100086 c 0,-0.2028 0,-0.484947 -0.29391,-0.484947 -0.29391,0 -0.29391,0.282147 -0.29391,0.484947 v 4.100086 h -4.08541 c -0.20574,0 -0.49966,0 -0.49966,0.293907 0,0.29392 0.29392,0.29392 0.49966,0.29392 h 4.08541 v 4.097136 c 0,0.20574 0,0.484957 0.29391,0.484957 0.29391,0 0.29391,-0.279217 0.29391,-0.484957 z"
         style="font-style:normal;font-variant:normal;font-weight:normal;font-stretch:normal;letter-spacing:normal;word-spacing:normal;text-anchor:start;fill:#000000;fill-opacity:1;fill-rule:evenodd;stroke:#000000;stroke-width:0;stroke-linecap:butt;stroke-linejoin:miter;stroke-miterlimit:10.43299961;stroke-dasharray:none;stroke-dashoffset:0;stroke-opacity:1"
         inkscape:connector-curvature="0" />
      <path
         id="path2731"
         d="m 337.90111,72.442609 v -0.006 -0.006 -0.003 -0.006 -0.006 -0.006 l -0.0294,-0.006 v -0.009 -0.006 -0.006 -0.009 -0.006 -0.0147 -0.0147 l -0.0294,-0.0176 v -0.0147 -0.006 -0.009 -0.006 -0.006 -0.006 -0.009 -0.006 -0.006 -0.006 -0.003 -0.006 l -0.0294,-0.006 c 0,-0.0117 0.26453,-0.22043 0.44087,-0.335057 l 2.55706,-1.978031 c 1.3814,-1.011064 1.93983,-1.066904 2.3807,-1.110994 0.11757,-0.0147 0.26453,-0.0294 0.26453,-0.293907 0,-0.0558 -0.0294,-0.16166 -0.14696,-0.16166 -0.32331,0 -0.70539,0.047 -1.05809,0.047 -0.52905,0 -1.08748,-0.047 -1.61653,-0.047 -0.0882,0 -0.26452,0 -0.26452,0.29392 0,0.0999 0.0588,0.146947 0.17635,0.161647 0.3233,0.0264 0.44087,0.0999 0.44087,0.30567 0,0.261577 -0.44087,0.602527 -0.52905,0.675997 l -5.70194,4.391053 1.17566,-4.699663 c 0.11757,-0.526097 0.14696,-0.673057 1.23444,-0.673057 0.3527,0 0.47026,0 0.47026,-0.293907 0,-0.12933 -0.11756,-0.16166 -0.17634,-0.16166 -0.41148,0 -1.46958,0.047 -1.88106,0.047 -0.44087,0 -1.46957,-0.047 -1.91044,-0.047 -0.0882,0 -0.29391,0 -0.29391,0.27922 0,0.176347 0.14695,0.176347 0.44087,0.176347 0.17635,0 0.44087,0.0118 0.61722,0.0264 0.23513,0.0323 0.3233,0.0735 0.3233,0.23513 0,0.0588 0,0.10581 -0.0588,0.279217 l -1.93983,7.862168 c -0.14696,0.573124 -0.17635,0.687754 -1.35201,0.687754 -0.23513,0 -0.41148,0 -0.41148,0.28216 0,0.173407 0.17635,0.173407 0.23513,0.173407 0.41148,0 1.44018,-0.0441 1.85166,-0.0441 0.29392,0 0.61722,0.0176 0.94053,0.0176 0.3233,0 0.64661,0.0265 0.94052,0.0265 0.11757,0 0.29392,0 0.29392,-0.293917 0,-0.16165 -0.11757,-0.16165 -0.41148,-0.16165 -0.52905,0 -0.94053,0 -0.94053,-0.261577 0,-0.10581 0.0882,-0.426177 0.11757,-0.646617 0.20574,-0.758287 0.41148,-1.534221 0.58783,-2.295458 l 2.20435,-1.698808 1.67532,3.938426 c 0.17634,0.396777 0.17634,0.423237 0.17634,0.511407 0,0.440867 -0.61722,0.452627 -0.76417,0.452627 -0.14696,0 -0.29392,0 -0.29392,0.29391 0,0.161657 0.14696,0.161657 0.17635,0.161657 0.58783,0 1.20505,-0.0441 1.79288,-0.0441 0.3233,0 1.11687,0.0441 1.44018,0.0441 0.0882,0 0.26452,0 0.26452,-0.293917 0,-0.16165 -0.14696,-0.16165 -0.29391,-0.16165 -0.58783,-0.0118 -0.79357,-0.146957 -0.99931,-0.655424 z"
         style="font-style:normal;font-variant:normal;font-weight:normal;font-stretch:normal;letter-spacing:normal;word-spacing:normal;text-anchor:start;fill:#000000;fill-opacity:1;fill-rule:evenodd;stroke:#000000;stroke-width:0;stroke-linecap:butt;stroke-linejoin:miter;stroke-miterlimit:10.43299961;stroke-dasharray:none;stroke-dashoffset:0;stroke-opacity:1"
         inkscape:connector-curvature="0" />
      <path
         id="path2733"
         d="m 345.19018,78.244446 h 0.0294 0.0294 0.0294 0.0588 0.0294 l 0.0294,-0.003 h 0.0588 l 0.0294,-0.003 0.0588,-0.003 0.0588,-0.003 0.0294,-0.003 0.0588,-0.003 0.0588,-0.003 0.0588,-0.003 0.11757,-0.0118 0.11756,-0.0118 0.11757,-0.0147 0.11756,-0.0176 0.11757,-0.0206 0.11757,-0.0235 0.0588,-0.0118 0.0588,-0.0147 0.0588,-0.0147 0.0588,-0.0176 0.0294,-0.0147 0.0588,-0.0176 c 0.76418,-0.267457 0.91114,-0.758297 0.91114,-1.066904 0,-0.564307 -0.55844,-0.899374 -1.26384,-0.899374 v 0.285097 c 0.44088,0 0.82296,0.22632 0.82296,0.614277 0,0.993424 -1.73409,0.993424 -2.17496,0.993424 h -0.49966 c 0.41148,-1.484251 1.55775,-1.607701 1.85166,-1.607701 v -0.285097 c -1.23444,0 -2.90975,0.940524 -2.90975,2.692245 0,1.031634 0.64661,1.922188 1.85166,1.922188 1.7341,0 2.52767,-1.008124 2.52767,-1.155074 0,-0.0617 -0.0882,-0.176347 -0.14696,-0.176347 -0.0588,0 -0.0882,0.0235 -0.17635,0.105807 -0.79357,0.943457 -1.99862,0.943457 -2.17497,0.943457 -0.61722,0 -1.0287,-0.41148 -1.0287,-1.240314 0,-0.14401 0,-0.349747 0.11757,-0.911124 z"
         style="font-style:normal;font-variant:normal;font-weight:normal;font-stretch:normal;letter-spacing:normal;word-spacing:normal;text-anchor:start;fill:#000000;fill-opacity:1;fill-rule:evenodd;stroke:#000000;stroke-width:0;stroke-linecap:butt;stroke-linejoin:miter;stroke-miterlimit:10.43299961;stroke-dasharray:none;stroke-dashoffset:0;stroke-opacity:1"
         inkscape:connector-curvature="0" />
    </g>
  </g>
</svg>
