<?xml version="1.0" encoding="UTF-8" standalone="no"?>
<!-- Created with Inkscape (http://www.inkscape.org/) -->

<svg
   xmlns:dc="http://purl.org/dc/elements/1.1/"
   xmlns:cc="http://creativecommons.org/ns#"
   xmlns:rdf="http://www.w3.org/1999/02/22-rdf-syntax-ns#"
   xmlns:svg="http://www.w3.org/2000/svg"
   xmlns="http://www.w3.org/2000/svg"
   xmlns:sodipodi="http://sodipodi.sourceforge.net/DTD/sodipodi-0.dtd"
   xmlns:inkscape="http://www.inkscape.org/namespaces/inkscape"
   width="1920"
   height="1080"
   viewBox="0 0 507.99998 285.75001"
   version="1.1"
   id="svg1390"
   inkscape:version="0.92.5 (2060ec1f9f, 2020-04-08)"
   sodipodi:docname="page_vierge.svg">
  <defs
     id="defs1384">
    <clipPath
       clipPathUnits="userSpaceOnUse"
       id="clipPath4398">
      <path
         d="M -6.1035e-5,540 H 960 V 6.1035e-5 H -3.0518e-5"
         id="path4400"
         inkscape:connector-curvature="0"
         style="clip-rule:evenodd" />
    </clipPath>
    <clipPath
       clipPathUnits="userSpaceOnUse"
       id="clipPath4388">
      <path
         d="M -6.1035e-5,540 H 960 V 6.1035e-5 H -3.0518e-5"
         id="path4390"
         inkscape:connector-curvature="0"
         style="clip-rule:evenodd" />
    </clipPath>
    <clipPath
       clipPathUnits="userSpaceOnUse"
       id="clipPath4378">
      <path
         d="M -1.5259e-5,540 H 960 V 0 H 3.0518e-5"
         id="path4380"
         inkscape:connector-curvature="0"
         style="clip-rule:evenodd" />
    </clipPath>
    <clipPath
       clipPathUnits="userSpaceOnUse"
       id="clipPath4368">
      <path
         d="M -1.5259e-5,540 H 960 V 0 H 3.0518e-5"
         id="path4370"
         inkscape:connector-curvature="0"
         style="clip-rule:evenodd" />
    </clipPath>
    <clipPath
       clipPathUnits="userSpaceOnUse"
       id="clipPath4358">
      <path
         d="M 0,540 H 960 V 6.1035e-5 L 0,1.8311e-4"
         id="path4360"
         inkscape:connector-curvature="0"
         style="clip-rule:evenodd" />
    </clipPath>
    <clipPath
       clipPathUnits="userSpaceOnUse"
       id="clipPath4348">
      <path
         d="M 0,540 H 960 V 6.1035e-5 L 0,1.8311e-4"
         id="path4350"
         inkscape:connector-curvature="0"
         style="clip-rule:evenodd" />
    </clipPath>
    <clipPath
       clipPathUnits="userSpaceOnUse"
       id="clipPath4338">
      <path
         d="M 0,540 H 960 V 0 L 0,1.2207e-4"
         id="path4340"
         inkscape:connector-curvature="0"
         style="clip-rule:evenodd" />
    </clipPath>
    <clipPath
       clipPathUnits="userSpaceOnUse"
       id="clipPath4328">
      <path
         d="M 0,540 H 960 V 0 L 0,1.2207e-4"
         id="path4330"
         inkscape:connector-curvature="0"
         style="clip-rule:evenodd" />
    </clipPath>
    <clipPath
       clipPathUnits="userSpaceOnUse"
       id="clipPath4318">
      <path
         d="M 0,540 H 960 V 3.0518e-4 L 3.0518e-5,2.4414e-4"
         id="path4320"
         inkscape:connector-curvature="0"
         style="clip-rule:evenodd" />
    </clipPath>
    <clipPath
       clipPathUnits="userSpaceOnUse"
       id="clipPath4308">
      <path
         d="M 0,540 H 960 V 3.0518e-4 L 3.0518e-5,2.4414e-4"
         id="path4310"
         inkscape:connector-curvature="0"
         style="clip-rule:evenodd" />
    </clipPath>
    <clipPath
       clipPathUnits="userSpaceOnUse"
       id="clipPath4298">
      <path
         d="M 0,540 H 960 V 1.8311e-4 H 3.0518e-5"
         id="path4300"
         inkscape:connector-curvature="0"
         style="clip-rule:evenodd" />
    </clipPath>
    <clipPath
       clipPathUnits="userSpaceOnUse"
       id="clipPath4288">
      <path
         d="M 0,540 H 960 V 1.8311e-4 H 3.0518e-5"
         id="path4290"
         inkscape:connector-curvature="0"
         style="clip-rule:evenodd" />
    </clipPath>
    <clipPath
       clipPathUnits="userSpaceOnUse"
       id="clipPath4278">
      <path
         d="M 3.0518e-5,540 H 960 V 3.6621e-4 L 6.1035e-5,2.4414e-4"
         id="path4280"
         inkscape:connector-curvature="0"
         style="clip-rule:evenodd" />
    </clipPath>
    <clipPath
       clipPathUnits="userSpaceOnUse"
       id="clipPath4268">
      <path
         d="M 3.0518e-5,540 H 960 V 3.6621e-4 L 6.1035e-5,2.4414e-4"
         id="path4270"
         inkscape:connector-curvature="0"
         style="clip-rule:evenodd" />
    </clipPath>
    <clipPath
       clipPathUnits="userSpaceOnUse"
       id="clipPath4258">
      <path
         d="M 3.0518e-5,540 H 960 V 3.0518e-4 L 6.1035e-5,1.8311e-4"
         id="path4260"
         inkscape:connector-curvature="0"
         style="clip-rule:evenodd" />
    </clipPath>
    <clipPath
       clipPathUnits="userSpaceOnUse"
       id="clipPath4248">
      <path
         d="M 3.0518e-5,540 H 960 V 3.0518e-4 L 6.1035e-5,1.8311e-4"
         id="path4250"
         inkscape:connector-curvature="0"
         style="clip-rule:evenodd" />
    </clipPath>
    <clipPath
       clipPathUnits="userSpaceOnUse"
       id="clipPath4238">
      <path
         d="M -1.5259e-5,540 H 960 V 1.8311e-4 L 0,1.2207e-4"
         id="path4240"
         inkscape:connector-curvature="0"
         style="clip-rule:evenodd" />
    </clipPath>
    <clipPath
       clipPathUnits="userSpaceOnUse"
       id="clipPath4228">
      <path
         d="M -1.5259e-5,540 H 960 V 1.8311e-4 L 0,1.2207e-4"
         id="path4230"
         inkscape:connector-curvature="0"
         style="clip-rule:evenodd" />
    </clipPath>
    <clipPath
       clipPathUnits="userSpaceOnUse"
       id="clipPath4218">
      <path
         d="M -6.1035e-5,540 H 960 V 1.8311e-4 H 0"
         id="path4220"
         inkscape:connector-curvature="0"
         style="clip-rule:evenodd" />
    </clipPath>
    <clipPath
       clipPathUnits="userSpaceOnUse"
       id="clipPath4208">
      <path
         d="M -6.1035e-5,540 H 960 V 1.8311e-4 H 0"
         id="path4210"
         inkscape:connector-curvature="0"
         style="clip-rule:evenodd" />
    </clipPath>
    <clipPath
       clipPathUnits="userSpaceOnUse"
       id="clipPath4170">
      <path
         d="M 0,1.2207e-4 H 960 V 540.00012 H 0 Z"
         id="path4172"
         inkscape:connector-curvature="0"
         style="clip-rule:evenodd" />
    </clipPath>
    <clipPath
       clipPathUnits="userSpaceOnUse"
       id="clipPath4160">
      <path
         d="M 0,1.2207e-4 H 960 V 540.00012 H 0 Z"
         id="path4162"
         inkscape:connector-curvature="0"
         style="clip-rule:evenodd" />
    </clipPath>
    <font
       horiz-adv-x="1024"
       id="font4670"
       inkscape:label="fonte 1">
      <font-face
         units-per-em="1024"
         id="font-face4672"
         font-family="SVGFont 1" />
      <missing-glyph
         d="M0,0h1000v1024h-1000z"
         id="missing-glyph4674" />
    </font>
  </defs>
  <sodipodi:namedview
     id="base"
     pagecolor="#ffffff"
     bordercolor="#666666"
     borderopacity="1.0"
     inkscape:pageopacity="0.0"
     inkscape:pageshadow="2"
     inkscape:zoom="1.2604167"
     inkscape:cx="1418.3132"
     inkscape:cy="657.07315"
     inkscape:document-units="mm"
     inkscape:current-layer="layer1"
     showgrid="false"
     units="px"
     width="1920px"
     inkscape:window-width="3096"
     inkscape:window-height="1672"
     inkscape:window-x="104"
     inkscape:window-y="54"
     inkscape:window-maximized="1" />
  <metadata
     id="metadata1387">
    <rdf:RDF>
      <cc:Work
         rdf:about="">
        <dc:format>image/svg+xml</dc:format>
        <dc:type
           rdf:resource="http://purl.org/dc/dcmitype/StillImage" />
        <dc:title />
      </cc:Work>
    </rdf:RDF>
  </metadata>
  <g
     inkscape:label="Calque 1"
     inkscape:groupmode="layer"
     id="layer1"
     transform="translate(0,-11.250002)">
    <g
       id="g3613">
      <g
         id="g4156"
         transform="matrix(0.0892492,0,0,-0.0892492,455.77065,294.92484)">
        <g
           clip-path="url(#clipPath4160)"
           id="g4158">
          <path
             inkscape:connector-curvature="0"
             id="path4164"
             style="fill:#4087c4;fill-opacity:1;fill-rule:evenodd;stroke:none"
             d="M 0,473.86 C 0,510.39 29.612,540 66.141,540 H 330.7 c 36.53,0 66.14,-29.61 66.14,-66.14 V 209.3 c 0,-36.53 -29.61,-66.14 -66.14,-66.14 H 66.141 C 29.612,143.16 0,172.77 0,209.3 Z" />
        </g>
      </g>
      <g
         id="g4166"
         transform="matrix(0.0892492,0,0,-0.0892492,455.77065,294.92484)">
        <g
           clip-path="url(#clipPath4170)"
           id="g4168">
          <path
             inkscape:connector-curvature="0"
             id="path4174"
             style="fill:none;stroke:#4087c4;stroke-width:0.95999998;stroke-linecap:butt;stroke-linejoin:miter;stroke-miterlimit:10;stroke-dasharray:none;stroke-opacity:1"
             d="M 0,473.86 C 0,510.39 29.612,540 66.141,540 H 330.7 c 36.53,0 66.14,-29.61 66.14,-66.14 V 209.3 c 0,-36.53 -29.61,-66.14 -66.14,-66.14 H 66.141 C 29.612,143.16 0,172.77 0,209.3 Z" />
        </g>
      </g>
      <path
         inkscape:connector-curvature="0"
         id="path4176"
         style="fill:#ffffff;fill-opacity:1;fill-rule:evenodd;stroke:none;stroke-width:0.08924919"
         d="m 465.98344,266.98446 c 1.72072,0.19091 4.50797,1.04243 6.06716,1.23433 1.55918,0.19272 1.67699,0.0884 3.28615,-0.0804 1.61006,-0.16873 4.16884,-0.93978 6.36972,-0.93266 2.19999,0.007 5.47812,0.73451 6.83381,0.9764 1.3557,0.24109 1.08349,0.0811 1.30036,0.47211 0.21688,0.39091 0.1776,1.42622 0,1.87247 -0.17672,0.44622 -0.76843,-0.04 -1.06206,0.80502 -0.29451,0.84517 -0.0714,3.11033 -0.70328,4.26611 -0.631,1.15666 -1.59221,2.13484 -3.08356,2.67124 -1.49225,0.53636 -4.36518,1.07367 -5.86636,0.54531 -1.50206,-0.52746 -2.5677,-2.532 -3.14424,-3.71277 -0.57656,-1.18076 -0.71668,-2.79352 -1.11919,-3.57265 -0.40252,-0.77913 -0.86394,-1.15756 -1.29679,-1.10313 -0.43197,0.0545 -0.78718,0.48018 -1.2959,1.428 -0.50962,0.94782 -1.02993,3.15138 -1.75732,4.25808 -0.72648,1.10669 -1.43245,1.93581 -2.60429,2.38207 -1.17184,0.44534 -3.11033,0.50512 -4.42426,0.29091 -1.3141,-0.21419 -2.67453,-0.67117 -3.46001,-1.57702 -0.78557,-0.90502 -0.98308,-2.8096 -1.25324,-3.85382 -0.27025,-1.04509 -0.1,-1.95811 -0.36815,-2.41418 -0.26818,-0.45607 -1.00531,-0.76128 -1.10571,-0.96655 -0.1004,-0.20545 -0.067,-1.34858 0.0669,-1.55294 0.13385,-0.20509 0.27996,-0.0625 1.01895,-0.25891 0.73908,-0.19527 1.93055,-0.92193 3.34837,-1.08615 1.41772,-0.16436 2.53316,-0.28109 4.2529,-0.0909 z" />
      <path
         inkscape:connector-curvature="0"
         id="path4178"
         style="fill:#ffffff;fill-opacity:1;fill-rule:evenodd;stroke:none;stroke-width:0.08924919"
         d="m 465.05703,249.43271 c 0.93176,0.0724 0.71399,-1.23876 1.84121,-1.00403 1.12633,0.23382 0.16691,1.06473 1.10401,1.60647 0.93712,0.54087 1.24949,-0.85945 2.30977,0.0327 1.06029,0.89251 -0.0562,1.57258 0.33469,2.04113 0.39091,0.46854 1.55115,-0.31237 2.00811,0.76931 0.45785,1.08261 -0.71399,1.07101 -0.5355,2.142 0.17851,1.07098 1.39497,0.156 1.43959,1.70643 0.0446,1.55026 -1.21646,0.39091 -1.47261,1.43869 -0.25701,1.04869 1.01477,1.02102 0.5355,2.142 -0.48016,1.12095 -1.19416,-0.1 -1.8073,0.56851 -0.61403,0.66938 0.44625,1.61808 -0.43554,2.30978 -0.88178,0.6908 -1.33873,-0.60243 -2.24283,-0.13381 -0.9032,0.46767 0.2008,1.33785 -1.10401,1.70647 -1.30572,0.36767 -0.89249,-0.79255 -1.90815,-1.00407 -1.01521,-0.21237 -0.6359,1.31643 -1.94126,0.97014 -1.30536,-0.34545 -0.26775,-1.27182 -1.07108,-1.63953 -0.80324,-0.3677 -1.5731,0.64706 -2.40981,0.10073 -0.8368,-0.54709 0.2789,-1.35036 -0.2008,-2.142 -0.47981,-0.79163 -1.72939,0.23382 -2.14216,-0.87018 -0.41278,-1.104 0.94836,-1.22716 0.66936,-2.00811 -0.27891,-0.78004 -1.34998,-0.0724 -1.4392,-1.53865 -0.0893,-1.46724 1.20493,-0.42928 1.50614,-1.43869 0.30131,-1.0103 -1.02636,-1.18255 -0.70283,-2.20891 0.32352,-1.02637 1.57872,-0.36771 1.97472,-0.87019 0.39609,-0.50156 -0.46856,-1.52792 0.40171,-2.14109 0.87018,-0.61403 1.5508,0.56317 2.20901,0.16691 0.6583,-0.39629 0.2232,-1.65647 1.33883,-1.74036 1.1157,-0.0829 0.80895,0.96476 1.74045,1.03796 z" />
      <path
         inkscape:connector-curvature="0"
         id="path4180"
         style="fill:#ffffff;fill-opacity:1;fill-rule:evenodd;stroke:none;stroke-width:0.08924919"
         d="m 474.03104,256.35311 c 0,-4.23221 3.43074,-7.66294 7.66294,-7.66294 4.23219,0 7.66293,3.43073 7.66293,7.66294 0,4.23219 -3.43074,7.66295 -7.66293,7.66295 -4.2322,0 -7.66294,-3.43076 -7.66294,-7.66295 z" />
      <path
         inkscape:connector-curvature="0"
         id="path4182"
         style="fill:none;stroke:#ffffff;stroke-width:0.08567923;stroke-linecap:butt;stroke-linejoin:miter;stroke-miterlimit:10;stroke-dasharray:none;stroke-opacity:1"
         d="m 474.03104,256.35311 c 0,-4.23221 3.43074,-7.66294 7.66294,-7.66294 4.23219,0 7.66293,3.43073 7.66293,7.66294 0,4.23219 -3.43074,7.66295 -7.66293,7.66295 -4.2322,0 -7.66294,-3.43076 -7.66294,-7.66295 z" />
      <path
         inkscape:connector-curvature="0"
         id="path4184"
         style="fill:#4087c4;fill-opacity:1;fill-rule:evenodd;stroke:none;stroke-width:0.08924919"
         d="m 474.36304,256.35311 c 0,-4.04836 3.28259,-7.33094 7.33094,-7.33094 4.04834,0 7.33093,3.28258 7.33093,7.33094 0,4.04833 -3.28259,7.33091 -7.33093,7.33091 -4.04835,0 -7.33094,-3.28258 -7.33094,-7.33091 z" />
      <path
         inkscape:connector-curvature="0"
         id="path4186"
         style="fill:none;stroke:#ffffff;stroke-width:0.08567923;stroke-linecap:butt;stroke-linejoin:miter;stroke-miterlimit:10;stroke-dasharray:none;stroke-opacity:1"
         d="m 474.36304,256.35311 c 0,-4.04836 3.28259,-7.33094 7.33094,-7.33094 4.04834,0 7.33093,3.28258 7.33093,7.33094 0,4.04833 -3.28259,7.33091 -7.33093,7.33091 -4.04835,0 -7.33094,-3.28258 -7.33094,-7.33091 z" />
      <path
         inkscape:connector-curvature="0"
         id="path4188"
         style="fill:#ffffff;fill-opacity:1;fill-rule:evenodd;stroke:none;stroke-width:0.08924919"
         d="m 476.74065,256.35311 c 0,-2.73549 2.21784,-4.95334 4.95333,-4.95334 2.73548,0 4.95333,2.21785 4.95333,4.95334 0,2.7355 -2.21785,4.95331 -4.95333,4.95331 -2.73549,0 -4.95333,-2.21781 -4.95333,-4.95331 z" />
      <path
         inkscape:connector-curvature="0"
         id="path4190"
         style="fill:none;stroke:#ffffff;stroke-width:0.08567923;stroke-linecap:butt;stroke-linejoin:miter;stroke-miterlimit:10;stroke-dasharray:none;stroke-opacity:1"
         d="m 476.74065,256.35311 c 0,-2.73549 2.21784,-4.95334 4.95333,-4.95334 2.73548,0 4.95333,2.21785 4.95333,4.95334 0,2.7355 -2.21785,4.95331 -4.95333,4.95331 -2.73549,0 -4.95333,-2.21781 -4.95333,-4.95331 z" />
      <path
         d="m 477.17975,256.35846 c 0,-2.49629 2.02149,-4.51956 4.51423,-4.51956 2.49273,0 4.51422,2.02327 4.51422,4.51956 0,2.49629 -2.02149,4.5196 -4.51422,4.5196 -2.49274,0 -4.51423,-2.02331 -4.51423,-4.5196 z"
         style="fill:#4087c4;fill-opacity:1;fill-rule:evenodd;stroke:none;stroke-width:0.08924919"
         id="path4259"
         inkscape:connector-curvature="0" />
      <path
         d="m 477.17975,256.35846 c 0,-2.49629 2.02149,-4.51956 4.51423,-4.51956 2.49273,0 4.51422,2.02327 4.51422,4.51956 0,2.49629 -2.02149,4.5196 -4.51422,4.5196 -2.49274,0 -4.51423,-2.02331 -4.51423,-4.5196 z"
         style="fill:none;stroke:#ffffff;stroke-width:0.08567923;stroke-linecap:butt;stroke-linejoin:miter;stroke-miterlimit:10;stroke-dasharray:none;stroke-opacity:1"
         id="path4261"
         inkscape:connector-curvature="0" />
      <path
         d="m 486.78654,256.35846 c 0,-0.59171 0.47927,-1.07098 1.07098,-1.07098 0.59173,0 1.071,0.47927 1.071,1.07098 0,0.59175 -0.47927,1.07098 -1.071,1.07098 -0.59171,0 -1.07098,-0.47923 -1.07098,-1.07098 z"
         style="fill:#ffffff;fill-opacity:1;fill-rule:evenodd;stroke:none;stroke-width:0.08924919"
         id="path4263"
         inkscape:connector-curvature="0" />
      <path
         d="m 486.78654,256.35846 c 0,-0.59171 0.47927,-1.07098 1.07098,-1.07098 0.59173,0 1.071,0.47927 1.071,1.07098 0,0.59175 -0.47927,1.07098 -1.071,1.07098 -0.59171,0 -1.07098,-0.47923 -1.07098,-1.07098 z"
         style="fill:none;stroke:#ffffff;stroke-width:0.08567923;stroke-linecap:butt;stroke-linejoin:miter;stroke-miterlimit:10;stroke-dasharray:none;stroke-opacity:1"
         id="path4265"
         inkscape:connector-curvature="0" />
      <path
         d="m 474.50227,256.35846 c 0,-0.59171 0.47927,-1.07098 1.071,-1.07098 0.59172,0 1.07099,0.47927 1.07099,1.07098 0,0.59175 -0.47927,1.07098 -1.07099,1.07098 -0.59173,0 -1.071,-0.47923 -1.071,-1.07098 z"
         style="fill:#ffffff;fill-opacity:1;fill-rule:evenodd;stroke:none;stroke-width:0.08924919"
         id="path4267"
         inkscape:connector-curvature="0" />
      <path
         d="m 474.50227,256.35846 c 0,-0.59171 0.47927,-1.07098 1.071,-1.07098 0.59172,0 1.07099,0.47927 1.07099,1.07098 0,0.59175 -0.47927,1.07098 -1.07099,1.07098 -0.59173,0 -1.071,-0.47923 -1.071,-1.07098 z"
         style="fill:none;stroke:#ffffff;stroke-width:0.08567923;stroke-linecap:butt;stroke-linejoin:miter;stroke-miterlimit:10;stroke-dasharray:none;stroke-opacity:1"
         id="path4269"
         inkscape:connector-curvature="0" />
      <g
         id="g4204"
         transform="matrix(0.0892492,0,0,-0.0892492,455.77065,294.92484)">
        <g
           clip-path="url(#clipPath4208)"
           id="g4206">
          <path
             inkscape:connector-curvature="0"
             id="path4212"
             style="fill:#ffffff;fill-opacity:1;fill-rule:evenodd;stroke:none"
             d="m 339.11,402.62 c 3.31,5.74 10.65,7.71 16.39,4.39 5.74,-3.31 7.71,-10.65 4.39,-16.39 -3.31,-5.74 -10.65,-7.71 -16.39,-4.39 -5.74,3.31 -7.71,10.65 -4.39,16.39 z" />
        </g>
      </g>
      <g
         id="g4214"
         transform="matrix(0.0892492,0,0,-0.0892492,455.77065,294.92484)">
        <g
           clip-path="url(#clipPath4218)"
           id="g4216">
          <path
             inkscape:connector-curvature="0"
             id="path4222"
             style="fill:none;stroke:#ffffff;stroke-width:1;stroke-linecap:butt;stroke-linejoin:miter;stroke-miterlimit:10;stroke-dasharray:none;stroke-opacity:1"
             d="m 339.11,402.62 c 3.31,5.74 10.65,7.71 16.39,4.39 5.74,-3.31 7.71,-10.65 4.39,-16.39 -3.31,-5.74 -10.65,-7.71 -16.39,-4.39 -5.74,3.31 -7.71,10.65 -4.39,16.39 z" />
        </g>
      </g>
      <g
         id="g4224"
         transform="matrix(0.0892492,0,0,-0.0892492,455.77065,294.92484)">
        <g
           clip-path="url(#clipPath4228)"
           id="g4226">
          <path
             inkscape:connector-curvature="0"
             id="path4232"
             style="fill:#ffffff;fill-opacity:1;fill-rule:evenodd;stroke:none"
             d="m 219.92,471.43 c 3.31,5.74 10.65,7.71 16.39,4.39 5.74,-3.31 7.71,-10.65 4.4,-16.39 -3.32,-5.74 -10.66,-7.7 -16.4,-4.39 -5.74,3.31 -7.7,10.65 -4.39,16.39 z" />
        </g>
      </g>
      <g
         id="g4234"
         transform="matrix(0.0892492,0,0,-0.0892492,455.77065,294.92484)">
        <g
           clip-path="url(#clipPath4238)"
           id="g4236">
          <path
             inkscape:connector-curvature="0"
             id="path4242"
             style="fill:none;stroke:#ffffff;stroke-width:1;stroke-linecap:butt;stroke-linejoin:miter;stroke-miterlimit:10;stroke-dasharray:none;stroke-opacity:1"
             d="m 219.92,471.43 c 3.31,5.74 10.65,7.71 16.39,4.39 5.74,-3.31 7.71,-10.65 4.4,-16.39 -3.32,-5.74 -10.66,-7.7 -16.4,-4.39 -5.74,3.31 -7.7,10.65 -4.39,16.39 z" />
        </g>
      </g>
      <g
         id="g4244"
         transform="matrix(0.0892492,0,0,-0.0892492,455.77065,294.92484)">
        <g
           clip-path="url(#clipPath4248)"
           id="g4246">
          <path
             inkscape:connector-curvature="0"
             id="path4252"
             style="fill:#ffffff;fill-opacity:1;fill-rule:evenodd;stroke:none"
             d="m 317.19,381.45 c 5.74,3.31 13.08,1.35 16.39,-4.39 3.31,-5.74 1.35,-13.08 -4.39,-16.39 -5.74,-3.32 -13.08,-1.35 -16.39,4.39 -3.32,5.74 -1.35,13.08 4.39,16.39 z" />
        </g>
      </g>
      <g
         id="g4254"
         transform="matrix(0.0892492,0,0,-0.0892492,455.77065,294.92484)">
        <g
           clip-path="url(#clipPath4258)"
           id="g4256">
          <path
             inkscape:connector-curvature="0"
             id="path4262"
             style="fill:none;stroke:#ffffff;stroke-width:1;stroke-linecap:butt;stroke-linejoin:miter;stroke-miterlimit:10;stroke-dasharray:none;stroke-opacity:1"
             d="m 317.19,381.45 c 5.74,3.31 13.08,1.35 16.39,-4.39 3.31,-5.74 1.35,-13.08 -4.39,-16.39 -5.74,-3.32 -13.08,-1.35 -16.39,4.39 -3.32,5.74 -1.35,13.08 4.39,16.39 z" />
        </g>
      </g>
      <g
         id="g4264"
         transform="matrix(0.0892492,0,0,-0.0892492,455.77065,294.92484)">
        <g
           clip-path="url(#clipPath4268)"
           id="g4266">
          <path
             inkscape:connector-curvature="0"
             id="path4272"
             style="fill:#ffffff;fill-opacity:1;fill-rule:evenodd;stroke:none"
             d="m 248.38,500.64 c 5.74,3.31 13.07,1.34 16.39,-4.4 3.31,-5.74 1.35,-13.07 -4.39,-16.39 -5.74,-3.31 -13.08,-1.35 -16.4,4.39 -3.31,5.74 -1.34,13.08 4.4,16.4 z" />
        </g>
      </g>
      <g
         id="g4274"
         transform="matrix(0.0892492,0,0,-0.0892492,455.77065,294.92484)">
        <g
           clip-path="url(#clipPath4278)"
           id="g4276">
          <path
             inkscape:connector-curvature="0"
             id="path4282"
             style="fill:none;stroke:#ffffff;stroke-width:1;stroke-linecap:butt;stroke-linejoin:miter;stroke-miterlimit:10;stroke-dasharray:none;stroke-opacity:1"
             d="m 248.38,500.64 c 5.74,3.31 13.07,1.34 16.39,-4.4 3.31,-5.74 1.35,-13.07 -4.39,-16.39 -5.74,-3.31 -13.08,-1.35 -16.4,4.39 -3.31,5.74 -1.34,13.08 4.4,16.4 z" />
        </g>
      </g>
      <g
         id="g4284"
         transform="matrix(0.0892492,0,0,-0.0892492,455.77065,294.92484)">
        <g
           clip-path="url(#clipPath4288)"
           id="g4286">
          <path
             inkscape:connector-curvature="0"
             id="path4292"
             style="fill:#ffffff;fill-opacity:1;fill-rule:evenodd;stroke:none"
             d="m 291,375.72 c 6.63,0 12,-5.37 12,-12 0,-6.63 -5.37,-12 -12,-12 -6.63,0 -12,5.37 -12,12 0,6.63 5.37,12 12,12 z" />
        </g>
      </g>
      <g
         id="g4294"
         transform="matrix(0.0892492,0,0,-0.0892492,455.77065,294.92484)">
        <g
           clip-path="url(#clipPath4298)"
           id="g4296">
          <path
             inkscape:connector-curvature="0"
             id="path4302"
             style="fill:none;stroke:#ffffff;stroke-width:0.95999998;stroke-linecap:butt;stroke-linejoin:miter;stroke-miterlimit:10;stroke-dasharray:none;stroke-opacity:1"
             d="m 291,375.72 c 6.63,0 12,-5.37 12,-12 0,-6.63 -5.37,-12 -12,-12 -6.63,0 -12,5.37 -12,12 0,6.63 5.37,12 12,12 z" />
        </g>
      </g>
      <g
         id="g4304"
         transform="matrix(0.0892492,0,0,-0.0892492,455.77065,294.92484)">
        <g
           clip-path="url(#clipPath4308)"
           id="g4306">
          <path
             inkscape:connector-curvature="0"
             id="path4312"
             style="fill:#ffffff;fill-opacity:1;fill-rule:evenodd;stroke:none"
             d="m 291,513.36 c 6.63,0 12,-5.37 12,-12 0,-6.63 -5.37,-12 -12,-12 -6.63,0 -12,5.37 -12,12 0,6.63 5.37,12 12,12 z" />
        </g>
      </g>
      <g
         id="g4314"
         transform="matrix(0.0892492,0,0,-0.0892492,455.77065,294.92484)">
        <g
           clip-path="url(#clipPath4318)"
           id="g4316">
          <path
             inkscape:connector-curvature="0"
             id="path4322"
             style="fill:none;stroke:#ffffff;stroke-width:0.95999998;stroke-linecap:butt;stroke-linejoin:miter;stroke-miterlimit:10;stroke-dasharray:none;stroke-opacity:1"
             d="m 291,513.36 c 6.63,0 12,-5.37 12,-12 0,-6.63 -5.37,-12 -12,-12 -6.63,0 -12,5.37 -12,12 0,6.63 5.37,12 12,12 z" />
        </g>
      </g>
      <g
         id="g4324"
         transform="matrix(0.0892492,0,0,-0.0892492,455.77065,294.92484)">
        <g
           clip-path="url(#clipPath4328)"
           id="g4326">
          <path
             inkscape:connector-curvature="0"
             id="path4332"
             style="fill:#ffffff;fill-opacity:1;fill-rule:evenodd;stroke:none"
             d="m 261.13,383.7 c 5.74,-3.31 7.7,-10.65 4.39,-16.39 -3.32,-5.74 -10.65,-7.71 -16.39,-4.4 -5.74,3.32 -7.71,10.66 -4.4,16.4 3.32,5.74 10.66,7.7 16.4,4.39 z" />
        </g>
      </g>
      <g
         id="g4334"
         transform="matrix(0.0892492,0,0,-0.0892492,455.77065,294.92484)">
        <g
           clip-path="url(#clipPath4338)"
           id="g4336">
          <path
             inkscape:connector-curvature="0"
             id="path4342"
             style="fill:none;stroke:#ffffff;stroke-width:1;stroke-linecap:butt;stroke-linejoin:miter;stroke-miterlimit:10;stroke-dasharray:none;stroke-opacity:1"
             d="m 261.13,383.7 c 5.74,-3.31 7.7,-10.65 4.39,-16.39 -3.32,-5.74 -10.65,-7.71 -16.39,-4.4 -5.74,3.32 -7.71,10.66 -4.4,16.4 3.32,5.74 10.66,7.7 16.4,4.39 z" />
        </g>
      </g>
      <g
         id="g4344"
         transform="matrix(0.0892492,0,0,-0.0892492,455.77065,294.92484)">
        <g
           clip-path="url(#clipPath4348)"
           id="g4346">
          <path
             inkscape:connector-curvature="0"
             id="path4352"
             style="fill:#ffffff;fill-opacity:1;fill-rule:evenodd;stroke:none"
             d="m 329.94,502.89 c 5.74,-3.32 7.7,-10.66 4.39,-16.4 -3.31,-5.74 -10.65,-7.7 -16.39,-4.39 -5.74,3.32 -7.71,10.65 -4.39,16.39 3.31,5.74 10.65,7.71 16.39,4.4 z" />
        </g>
      </g>
      <g
         id="g4354"
         transform="matrix(0.0892492,0,0,-0.0892492,455.77065,294.92484)">
        <g
           clip-path="url(#clipPath4358)"
           id="g4356">
          <path
             inkscape:connector-curvature="0"
             id="path4362"
             style="fill:none;stroke:#ffffff;stroke-width:1;stroke-linecap:butt;stroke-linejoin:miter;stroke-miterlimit:10;stroke-dasharray:none;stroke-opacity:1"
             d="m 329.94,502.89 c 5.74,-3.32 7.7,-10.66 4.39,-16.4 -3.31,-5.74 -10.65,-7.7 -16.39,-4.39 -5.74,3.32 -7.71,10.65 -4.39,16.39 3.31,5.74 10.65,7.71 16.39,4.4 z" />
        </g>
      </g>
      <g
         id="g4364"
         transform="matrix(0.0892492,0,0,-0.0892492,455.77065,294.92484)">
        <g
           clip-path="url(#clipPath4368)"
           id="g4366">
          <path
             inkscape:connector-curvature="0"
             id="path4372"
             style="fill:#ffffff;fill-opacity:1;fill-rule:evenodd;stroke:none"
             d="m 241.08,404.49 c 3.31,-5.74 1.35,-13.07 -4.39,-16.39 -5.74,-3.31 -13.08,-1.35 -16.39,4.39 -3.32,5.74 -1.35,13.08 4.39,16.4 5.74,3.31 13.08,1.34 16.39,-4.4 z" />
        </g>
      </g>
      <g
         id="g4374"
         transform="matrix(0.0892492,0,0,-0.0892492,455.77065,294.92484)">
        <g
           clip-path="url(#clipPath4378)"
           id="g4376">
          <path
             inkscape:connector-curvature="0"
             id="path4382"
             style="fill:none;stroke:#ffffff;stroke-width:1;stroke-linecap:butt;stroke-linejoin:miter;stroke-miterlimit:10;stroke-dasharray:none;stroke-opacity:1"
             d="m 241.08,404.49 c 3.31,-5.74 1.35,-13.07 -4.39,-16.39 -5.74,-3.31 -13.08,-1.35 -16.39,4.39 -3.32,5.74 -1.35,13.08 4.39,16.4 5.74,3.31 13.08,1.34 16.39,-4.4 z" />
        </g>
      </g>
      <g
         id="g4384"
         transform="matrix(0.0892492,0,0,-0.0892492,455.77065,294.92484)">
        <g
           clip-path="url(#clipPath4388)"
           id="g4386">
          <path
             inkscape:connector-curvature="0"
             id="path4392"
             style="fill:#ffffff;fill-opacity:1;fill-rule:evenodd;stroke:none"
             d="m 360.27,473.31 c 3.31,-5.74 1.34,-13.08 -4.39,-16.4 -5.74,-3.31 -13.08,-1.34 -16.4,4.4 -3.31,5.74 -1.34,13.08 4.4,16.39 5.73,3.31 13.07,1.35 16.39,-4.39 z" />
        </g>
      </g>
      <g
         id="g4394"
         transform="matrix(0.0892492,0,0,-0.0892492,455.77065,294.92484)">
        <g
           clip-path="url(#clipPath4398)"
           id="g4396">
          <path
             inkscape:connector-curvature="0"
             id="path4402"
             style="fill:none;stroke:#ffffff;stroke-width:1;stroke-linecap:butt;stroke-linejoin:miter;stroke-miterlimit:10;stroke-dasharray:none;stroke-opacity:1"
             d="m 360.27,473.31 c 3.31,-5.74 1.34,-13.08 -4.39,-16.4 -5.74,-3.31 -13.08,-1.34 -16.4,4.4 -3.31,5.74 -1.34,13.08 4.4,16.39 5.73,3.31 13.07,1.35 16.39,-4.39 z" />
        </g>
      </g>
      <path
         inkscape:connector-curvature="0"
         id="path4404"
         style="fill:#4087c4;fill-opacity:1;fill-rule:evenodd;stroke:none;stroke-width:0.08924919"
         d="m 462.35724,256.60479 c 0,-1.50208 1.2179,-2.72033 2.72032,-2.72033 1.50206,0 2.72031,1.21825 2.72031,2.72033 0,1.50207 -1.21825,2.72032 -2.72031,2.72032 -1.50242,0 -2.72032,-1.21825 -2.72032,-2.72032 z" />
      <path
         inkscape:connector-curvature="0"
         id="path4406"
         style="fill:#4087c4;fill-opacity:1;fill-rule:evenodd;stroke:none;stroke-width:0.08924919"
         d="m 464.5849,254.31286 h 0.9746 v -0.96389 h -0.9746 z" />
      <path
         inkscape:connector-curvature="0"
         id="path4408"
         style="fill:#4087c4;fill-opacity:1;fill-rule:evenodd;stroke:none;stroke-width:0.08924919"
         d="m 460.21571,269.4754 c 0.98861,-1.94381 8.76561,-1.054 10.08382,0.19819 1.31821,1.25218 -0.32931,6.22782 -2.175,7.31487 -1.84568,1.08705 -5.40431,0.95585 -6.72252,-0.29637 -1.31812,-1.25214 -2.17491,-5.27192 -1.1863,-7.21669 z" />
      <path
         inkscape:connector-curvature="0"
         id="path4410"
         style="fill:#4087c4;fill-opacity:1;fill-rule:evenodd;stroke:none;stroke-width:0.08924919"
         d="m 487.06767,269.84224 c -1.01744,-1.91796 -8.95973,-1.43604 -10.28419,-0.20073 -1.32356,1.23524 0.43822,6.53844 2.33923,7.6112 1.90011,1.07277 5.49864,0.54709 6.8231,-0.68811 1.32356,-1.23523 2.14019,-4.8052 1.12186,-6.72225 z" />
      <text
         id="text2815"
         y="291.7897"
         x="441.11801"
         style="font-style:normal;font-variant:normal;font-weight:normal;font-stretch:normal;font-size:7.05555534px;line-height:1.25;font-family:sans-serif;-inkscape-font-specification:'sans-serif, Normal';font-variant-ligatures:normal;font-variant-caps:normal;font-variant-numeric:normal;font-feature-settings:normal;text-align:start;letter-spacing:0px;word-spacing:0px;writing-mode:lr-tb;text-anchor:start;fill:#000000;fill-opacity:1;stroke:none;stroke-width:0.26458332"
         xml:space="preserve"><tspan
           style="font-style:normal;font-variant:normal;font-weight:normal;font-stretch:normal;font-family:'Permanent Marker';-inkscape-font-specification:'Permanent Marker';fill:#4087c4;fill-opacity:1;stroke-width:0.26458332"
           y="291.7897"
           x="441.11801"
           id="tspan2813"
           sodipodi:role="line">www.costadoat.fr</tspan></text>
      <rect
         y="237.6776"
         x="437.31311"
         height="58.16864"
         width="68.802315"
         id="rect2811"
         style="fill:#ffffff;fill-opacity:0.40031649;stroke:none;stroke-width:0.33952218;stroke-linejoin:round;stroke-miterlimit:4;stroke-dasharray:none;stroke-dashoffset:0;stroke-opacity:1" />
    </g>
  </g>
</svg>
