<?xml version="1.0" encoding="UTF-8" standalone="no"?>
<!-- Created with Inkscape (http://www.inkscape.org/) -->

<svg
   xmlns:dc="http://purl.org/dc/elements/1.1/"
   xmlns:cc="http://creativecommons.org/ns#"
   xmlns:rdf="http://www.w3.org/1999/02/22-rdf-syntax-ns#"
   xmlns:svg="http://www.w3.org/2000/svg"
   xmlns="http://www.w3.org/2000/svg"
   xmlns:sodipodi="http://sodipodi.sourceforge.net/DTD/sodipodi-0.dtd"
   xmlns:inkscape="http://www.inkscape.org/namespaces/inkscape"
   width="1920"
   height="1080"
   viewBox="0 0 507.99998 285.75001"
   version="1.1"
   id="svg1390"
   inkscape:version="0.92.5 (2060ec1f9f, 2020-04-08)"
   sodipodi:docname="page_46.svg">
  <defs
     id="defs1384">
    <clipPath
       clipPathUnits="userSpaceOnUse"
       id="clipPath4398">
      <path
         d="M -6.1035e-5,540 H 960 V 6.1035e-5 H -3.0518e-5"
         id="path4400"
         inkscape:connector-curvature="0"
         style="clip-rule:evenodd" />
    </clipPath>
    <clipPath
       clipPathUnits="userSpaceOnUse"
       id="clipPath4388">
      <path
         d="M -6.1035e-5,540 H 960 V 6.1035e-5 H -3.0518e-5"
         id="path4390"
         inkscape:connector-curvature="0"
         style="clip-rule:evenodd" />
    </clipPath>
    <clipPath
       clipPathUnits="userSpaceOnUse"
       id="clipPath4378">
      <path
         d="M -1.5259e-5,540 H 960 V 0 H 3.0518e-5"
         id="path4380"
         inkscape:connector-curvature="0"
         style="clip-rule:evenodd" />
    </clipPath>
    <clipPath
       clipPathUnits="userSpaceOnUse"
       id="clipPath4368">
      <path
         d="M -1.5259e-5,540 H 960 V 0 H 3.0518e-5"
         id="path4370"
         inkscape:connector-curvature="0"
         style="clip-rule:evenodd" />
    </clipPath>
    <clipPath
       clipPathUnits="userSpaceOnUse"
       id="clipPath4358">
      <path
         d="M 0,540 H 960 V 6.1035e-5 L 0,1.8311e-4"
         id="path4360"
         inkscape:connector-curvature="0"
         style="clip-rule:evenodd" />
    </clipPath>
    <clipPath
       clipPathUnits="userSpaceOnUse"
       id="clipPath4348">
      <path
         d="M 0,540 H 960 V 6.1035e-5 L 0,1.8311e-4"
         id="path4350"
         inkscape:connector-curvature="0"
         style="clip-rule:evenodd" />
    </clipPath>
    <clipPath
       clipPathUnits="userSpaceOnUse"
       id="clipPath4338">
      <path
         d="M 0,540 H 960 V 0 L 0,1.2207e-4"
         id="path4340"
         inkscape:connector-curvature="0"
         style="clip-rule:evenodd" />
    </clipPath>
    <clipPath
       clipPathUnits="userSpaceOnUse"
       id="clipPath4328">
      <path
         d="M 0,540 H 960 V 0 L 0,1.2207e-4"
         id="path4330"
         inkscape:connector-curvature="0"
         style="clip-rule:evenodd" />
    </clipPath>
    <clipPath
       clipPathUnits="userSpaceOnUse"
       id="clipPath4318">
      <path
         d="M 0,540 H 960 V 3.0518e-4 L 3.0518e-5,2.4414e-4"
         id="path4320"
         inkscape:connector-curvature="0"
         style="clip-rule:evenodd" />
    </clipPath>
    <clipPath
       clipPathUnits="userSpaceOnUse"
       id="clipPath4308">
      <path
         d="M 0,540 H 960 V 3.0518e-4 L 3.0518e-5,2.4414e-4"
         id="path4310"
         inkscape:connector-curvature="0"
         style="clip-rule:evenodd" />
    </clipPath>
    <clipPath
       clipPathUnits="userSpaceOnUse"
       id="clipPath4298">
      <path
         d="M 0,540 H 960 V 1.8311e-4 H 3.0518e-5"
         id="path4300"
         inkscape:connector-curvature="0"
         style="clip-rule:evenodd" />
    </clipPath>
    <clipPath
       clipPathUnits="userSpaceOnUse"
       id="clipPath4288">
      <path
         d="M 0,540 H 960 V 1.8311e-4 H 3.0518e-5"
         id="path4290"
         inkscape:connector-curvature="0"
         style="clip-rule:evenodd" />
    </clipPath>
    <clipPath
       clipPathUnits="userSpaceOnUse"
       id="clipPath4278">
      <path
         d="M 3.0518e-5,540 H 960 V 3.6621e-4 L 6.1035e-5,2.4414e-4"
         id="path4280"
         inkscape:connector-curvature="0"
         style="clip-rule:evenodd" />
    </clipPath>
    <clipPath
       clipPathUnits="userSpaceOnUse"
       id="clipPath4268">
      <path
         d="M 3.0518e-5,540 H 960 V 3.6621e-4 L 6.1035e-5,2.4414e-4"
         id="path4270"
         inkscape:connector-curvature="0"
         style="clip-rule:evenodd" />
    </clipPath>
    <clipPath
       clipPathUnits="userSpaceOnUse"
       id="clipPath4258">
      <path
         d="M 3.0518e-5,540 H 960 V 3.0518e-4 L 6.1035e-5,1.8311e-4"
         id="path4260"
         inkscape:connector-curvature="0"
         style="clip-rule:evenodd" />
    </clipPath>
    <clipPath
       clipPathUnits="userSpaceOnUse"
       id="clipPath4248">
      <path
         d="M 3.0518e-5,540 H 960 V 3.0518e-4 L 6.1035e-5,1.8311e-4"
         id="path4250"
         inkscape:connector-curvature="0"
         style="clip-rule:evenodd" />
    </clipPath>
    <clipPath
       clipPathUnits="userSpaceOnUse"
       id="clipPath4238">
      <path
         d="M -1.5259e-5,540 H 960 V 1.8311e-4 L 0,1.2207e-4"
         id="path4240"
         inkscape:connector-curvature="0"
         style="clip-rule:evenodd" />
    </clipPath>
    <clipPath
       clipPathUnits="userSpaceOnUse"
       id="clipPath4228">
      <path
         d="M -1.5259e-5,540 H 960 V 1.8311e-4 L 0,1.2207e-4"
         id="path4230"
         inkscape:connector-curvature="0"
         style="clip-rule:evenodd" />
    </clipPath>
    <clipPath
       clipPathUnits="userSpaceOnUse"
       id="clipPath4218">
      <path
         d="M -6.1035e-5,540 H 960 V 1.8311e-4 H 0"
         id="path4220"
         inkscape:connector-curvature="0"
         style="clip-rule:evenodd" />
    </clipPath>
    <clipPath
       clipPathUnits="userSpaceOnUse"
       id="clipPath4208">
      <path
         d="M -6.1035e-5,540 H 960 V 1.8311e-4 H 0"
         id="path4210"
         inkscape:connector-curvature="0"
         style="clip-rule:evenodd" />
    </clipPath>
    <clipPath
       clipPathUnits="userSpaceOnUse"
       id="clipPath4170">
      <path
         d="M 0,1.2207e-4 H 960 V 540.00012 H 0 Z"
         id="path4172"
         inkscape:connector-curvature="0"
         style="clip-rule:evenodd" />
    </clipPath>
    <clipPath
       clipPathUnits="userSpaceOnUse"
       id="clipPath4160">
      <path
         d="M 0,1.2207e-4 H 960 V 540.00012 H 0 Z"
         id="path4162"
         inkscape:connector-curvature="0"
         style="clip-rule:evenodd" />
    </clipPath>
    <font
       horiz-adv-x="1024"
       id="font4670"
       inkscape:label="fonte 1">
      <font-face
         units-per-em="1024"
         id="font-face4672"
         font-family="SVGFont 1" />
      <missing-glyph
         d="M0,0h1000v1024h-1000z"
         id="missing-glyph4674" />
    </font>
  </defs>
  <sodipodi:namedview
     id="base"
     pagecolor="#ffffff"
     bordercolor="#666666"
     borderopacity="1.0"
     inkscape:pageopacity="0.0"
     inkscape:pageshadow="2"
     inkscape:zoom="1.2604167"
     inkscape:cx="1107.7016"
     inkscape:cy="655.48637"
     inkscape:document-units="mm"
     inkscape:current-layer="layer1"
     showgrid="false"
     units="px"
     width="1920px"
     inkscape:window-width="3096"
     inkscape:window-height="1672"
     inkscape:window-x="104"
     inkscape:window-y="54"
     inkscape:window-maximized="1" />
  <metadata
     id="metadata1387">
    <rdf:RDF>
      <cc:Work
         rdf:about="">
        <dc:format>image/svg+xml</dc:format>
        <dc:type
           rdf:resource="http://purl.org/dc/dcmitype/StillImage" />
        <dc:title></dc:title>
      </cc:Work>
    </rdf:RDF>
  </metadata>
  <g
     inkscape:label="Calque 1"
     inkscape:groupmode="layer"
     id="layer1"
     transform="translate(0,-11.250002)">
    <g
       id="g3613">
      <g
         id="g4156"
         transform="matrix(0.0892492,0,0,-0.0892492,455.77065,294.92484)">
        <g
           clip-path="url(#clipPath4160)"
           id="g4158">
          <path
             inkscape:connector-curvature="0"
             id="path4164"
             style="fill:#4087c4;fill-opacity:1;fill-rule:evenodd;stroke:none"
             d="M 0,473.86 C 0,510.39 29.612,540 66.141,540 H 330.7 c 36.53,0 66.14,-29.61 66.14,-66.14 V 209.3 c 0,-36.53 -29.61,-66.14 -66.14,-66.14 H 66.141 C 29.612,143.16 0,172.77 0,209.3 Z" />
        </g>
      </g>
      <g
         id="g4166"
         transform="matrix(0.0892492,0,0,-0.0892492,455.77065,294.92484)">
        <g
           clip-path="url(#clipPath4170)"
           id="g4168">
          <path
             inkscape:connector-curvature="0"
             id="path4174"
             style="fill:none;stroke:#4087c4;stroke-width:0.95999998;stroke-linecap:butt;stroke-linejoin:miter;stroke-miterlimit:10;stroke-dasharray:none;stroke-opacity:1"
             d="M 0,473.86 C 0,510.39 29.612,540 66.141,540 H 330.7 c 36.53,0 66.14,-29.61 66.14,-66.14 V 209.3 c 0,-36.53 -29.61,-66.14 -66.14,-66.14 H 66.141 C 29.612,143.16 0,172.77 0,209.3 Z" />
        </g>
      </g>
      <path
         inkscape:connector-curvature="0"
         id="path4176"
         style="fill:#ffffff;fill-opacity:1;fill-rule:evenodd;stroke:none;stroke-width:0.08924919"
         d="m 465.98344,266.98446 c 1.72072,0.19091 4.50797,1.04243 6.06716,1.23433 1.55918,0.19272 1.67699,0.0884 3.28615,-0.0804 1.61006,-0.16873 4.16884,-0.93978 6.36972,-0.93266 2.19999,0.007 5.47812,0.73451 6.83381,0.9764 1.3557,0.24109 1.08349,0.0811 1.30036,0.47211 0.21688,0.39091 0.1776,1.42622 0,1.87247 -0.17672,0.44622 -0.76843,-0.04 -1.06206,0.80502 -0.29451,0.84517 -0.0714,3.11033 -0.70328,4.26611 -0.631,1.15666 -1.59221,2.13484 -3.08356,2.67124 -1.49225,0.53636 -4.36518,1.07367 -5.86636,0.54531 -1.50206,-0.52746 -2.5677,-2.532 -3.14424,-3.71277 -0.57656,-1.18076 -0.71668,-2.79352 -1.11919,-3.57265 -0.40252,-0.77913 -0.86394,-1.15756 -1.29679,-1.10313 -0.43197,0.0545 -0.78718,0.48018 -1.2959,1.428 -0.50962,0.94782 -1.02993,3.15138 -1.75732,4.25808 -0.72648,1.10669 -1.43245,1.93581 -2.60429,2.38207 -1.17184,0.44534 -3.11033,0.50512 -4.42426,0.29091 -1.3141,-0.21419 -2.67453,-0.67117 -3.46001,-1.57702 -0.78557,-0.90502 -0.98308,-2.8096 -1.25324,-3.85382 -0.27025,-1.04509 -0.1,-1.95811 -0.36815,-2.41418 -0.26818,-0.45607 -1.00531,-0.76128 -1.10571,-0.96655 -0.1004,-0.20545 -0.067,-1.34858 0.0669,-1.55294 0.13385,-0.20509 0.27996,-0.0625 1.01895,-0.25891 0.73908,-0.19527 1.93055,-0.92193 3.34837,-1.08615 1.41772,-0.16436 2.53316,-0.28109 4.2529,-0.0909 z" />
      <path
         inkscape:connector-curvature="0"
         id="path4178"
         style="fill:#ffffff;fill-opacity:1;fill-rule:evenodd;stroke:none;stroke-width:0.08924919"
         d="m 465.05703,249.43271 c 0.93176,0.0724 0.71399,-1.23876 1.84121,-1.00403 1.12633,0.23382 0.16691,1.06473 1.10401,1.60647 0.93712,0.54087 1.24949,-0.85945 2.30977,0.0327 1.06029,0.89251 -0.0562,1.57258 0.33469,2.04113 0.39091,0.46854 1.55115,-0.31237 2.00811,0.76931 0.45785,1.08261 -0.71399,1.07101 -0.5355,2.142 0.17851,1.07098 1.39497,0.156 1.43959,1.70643 0.0446,1.55026 -1.21646,0.39091 -1.47261,1.43869 -0.25701,1.04869 1.01477,1.02102 0.5355,2.142 -0.48016,1.12095 -1.19416,-0.1 -1.8073,0.56851 -0.61403,0.66938 0.44625,1.61808 -0.43554,2.30978 -0.88178,0.6908 -1.33873,-0.60243 -2.24283,-0.13381 -0.9032,0.46767 0.2008,1.33785 -1.10401,1.70647 -1.30572,0.36767 -0.89249,-0.79255 -1.90815,-1.00407 -1.01521,-0.21237 -0.6359,1.31643 -1.94126,0.97014 -1.30536,-0.34545 -0.26775,-1.27182 -1.07108,-1.63953 -0.80324,-0.3677 -1.5731,0.64706 -2.40981,0.10073 -0.8368,-0.54709 0.2789,-1.35036 -0.2008,-2.142 -0.47981,-0.79163 -1.72939,0.23382 -2.14216,-0.87018 -0.41278,-1.104 0.94836,-1.22716 0.66936,-2.00811 -0.27891,-0.78004 -1.34998,-0.0724 -1.4392,-1.53865 -0.0893,-1.46724 1.20493,-0.42928 1.50614,-1.43869 0.30131,-1.0103 -1.02636,-1.18255 -0.70283,-2.20891 0.32352,-1.02637 1.57872,-0.36771 1.97472,-0.87019 0.39609,-0.50156 -0.46856,-1.52792 0.40171,-2.14109 0.87018,-0.61403 1.5508,0.56317 2.20901,0.16691 0.6583,-0.39629 0.2232,-1.65647 1.33883,-1.74036 1.1157,-0.0829 0.80895,0.96476 1.74045,1.03796 z" />
      <path
         inkscape:connector-curvature="0"
         id="path4180"
         style="fill:#ffffff;fill-opacity:1;fill-rule:evenodd;stroke:none;stroke-width:0.08924919"
         d="m 474.03104,256.35311 c 0,-4.23221 3.43074,-7.66294 7.66294,-7.66294 4.23219,0 7.66293,3.43073 7.66293,7.66294 0,4.23219 -3.43074,7.66295 -7.66293,7.66295 -4.2322,0 -7.66294,-3.43076 -7.66294,-7.66295 z" />
      <path
         inkscape:connector-curvature="0"
         id="path4182"
         style="fill:none;stroke:#ffffff;stroke-width:0.08567923;stroke-linecap:butt;stroke-linejoin:miter;stroke-miterlimit:10;stroke-dasharray:none;stroke-opacity:1"
         d="m 474.03104,256.35311 c 0,-4.23221 3.43074,-7.66294 7.66294,-7.66294 4.23219,0 7.66293,3.43073 7.66293,7.66294 0,4.23219 -3.43074,7.66295 -7.66293,7.66295 -4.2322,0 -7.66294,-3.43076 -7.66294,-7.66295 z" />
      <path
         inkscape:connector-curvature="0"
         id="path4184"
         style="fill:#4087c4;fill-opacity:1;fill-rule:evenodd;stroke:none;stroke-width:0.08924919"
         d="m 474.36304,256.35311 c 0,-4.04836 3.28259,-7.33094 7.33094,-7.33094 4.04834,0 7.33093,3.28258 7.33093,7.33094 0,4.04833 -3.28259,7.33091 -7.33093,7.33091 -4.04835,0 -7.33094,-3.28258 -7.33094,-7.33091 z" />
      <path
         inkscape:connector-curvature="0"
         id="path4186"
         style="fill:none;stroke:#ffffff;stroke-width:0.08567923;stroke-linecap:butt;stroke-linejoin:miter;stroke-miterlimit:10;stroke-dasharray:none;stroke-opacity:1"
         d="m 474.36304,256.35311 c 0,-4.04836 3.28259,-7.33094 7.33094,-7.33094 4.04834,0 7.33093,3.28258 7.33093,7.33094 0,4.04833 -3.28259,7.33091 -7.33093,7.33091 -4.04835,0 -7.33094,-3.28258 -7.33094,-7.33091 z" />
      <path
         inkscape:connector-curvature="0"
         id="path4188"
         style="fill:#ffffff;fill-opacity:1;fill-rule:evenodd;stroke:none;stroke-width:0.08924919"
         d="m 476.74065,256.35311 c 0,-2.73549 2.21784,-4.95334 4.95333,-4.95334 2.73548,0 4.95333,2.21785 4.95333,4.95334 0,2.7355 -2.21785,4.95331 -4.95333,4.95331 -2.73549,0 -4.95333,-2.21781 -4.95333,-4.95331 z" />
      <path
         inkscape:connector-curvature="0"
         id="path4190"
         style="fill:none;stroke:#ffffff;stroke-width:0.08567923;stroke-linecap:butt;stroke-linejoin:miter;stroke-miterlimit:10;stroke-dasharray:none;stroke-opacity:1"
         d="m 476.74065,256.35311 c 0,-2.73549 2.21784,-4.95334 4.95333,-4.95334 2.73548,0 4.95333,2.21785 4.95333,4.95334 0,2.7355 -2.21785,4.95331 -4.95333,4.95331 -2.73549,0 -4.95333,-2.21781 -4.95333,-4.95331 z" />
      <path
         d="m 477.17975,256.35846 c 0,-2.49629 2.02149,-4.51956 4.51423,-4.51956 2.49273,0 4.51422,2.02327 4.51422,4.51956 0,2.49629 -2.02149,4.5196 -4.51422,4.5196 -2.49274,0 -4.51423,-2.02331 -4.51423,-4.5196 z"
         style="fill:#4087c4;fill-opacity:1;fill-rule:evenodd;stroke:none;stroke-width:0.08924919"
         id="path4259"
         inkscape:connector-curvature="0" />
      <path
         d="m 477.17975,256.35846 c 0,-2.49629 2.02149,-4.51956 4.51423,-4.51956 2.49273,0 4.51422,2.02327 4.51422,4.51956 0,2.49629 -2.02149,4.5196 -4.51422,4.5196 -2.49274,0 -4.51423,-2.02331 -4.51423,-4.5196 z"
         style="fill:none;stroke:#ffffff;stroke-width:0.08567923;stroke-linecap:butt;stroke-linejoin:miter;stroke-miterlimit:10;stroke-dasharray:none;stroke-opacity:1"
         id="path4261"
         inkscape:connector-curvature="0" />
      <path
         d="m 486.78654,256.35846 c 0,-0.59171 0.47927,-1.07098 1.07098,-1.07098 0.59173,0 1.071,0.47927 1.071,1.07098 0,0.59175 -0.47927,1.07098 -1.071,1.07098 -0.59171,0 -1.07098,-0.47923 -1.07098,-1.07098 z"
         style="fill:#ffffff;fill-opacity:1;fill-rule:evenodd;stroke:none;stroke-width:0.08924919"
         id="path4263"
         inkscape:connector-curvature="0" />
      <path
         d="m 486.78654,256.35846 c 0,-0.59171 0.47927,-1.07098 1.07098,-1.07098 0.59173,0 1.071,0.47927 1.071,1.07098 0,0.59175 -0.47927,1.07098 -1.071,1.07098 -0.59171,0 -1.07098,-0.47923 -1.07098,-1.07098 z"
         style="fill:none;stroke:#ffffff;stroke-width:0.08567923;stroke-linecap:butt;stroke-linejoin:miter;stroke-miterlimit:10;stroke-dasharray:none;stroke-opacity:1"
         id="path4265"
         inkscape:connector-curvature="0" />
      <path
         d="m 474.50227,256.35846 c 0,-0.59171 0.47927,-1.07098 1.071,-1.07098 0.59172,0 1.07099,0.47927 1.07099,1.07098 0,0.59175 -0.47927,1.07098 -1.07099,1.07098 -0.59173,0 -1.071,-0.47923 -1.071,-1.07098 z"
         style="fill:#ffffff;fill-opacity:1;fill-rule:evenodd;stroke:none;stroke-width:0.08924919"
         id="path4267"
         inkscape:connector-curvature="0" />
      <path
         d="m 474.50227,256.35846 c 0,-0.59171 0.47927,-1.07098 1.071,-1.07098 0.59172,0 1.07099,0.47927 1.07099,1.07098 0,0.59175 -0.47927,1.07098 -1.07099,1.07098 -0.59173,0 -1.071,-0.47923 -1.071,-1.07098 z"
         style="fill:none;stroke:#ffffff;stroke-width:0.08567923;stroke-linecap:butt;stroke-linejoin:miter;stroke-miterlimit:10;stroke-dasharray:none;stroke-opacity:1"
         id="path4269"
         inkscape:connector-curvature="0" />
      <g
         id="g4204"
         transform="matrix(0.0892492,0,0,-0.0892492,455.77065,294.92484)">
        <g
           clip-path="url(#clipPath4208)"
           id="g4206">
          <path
             inkscape:connector-curvature="0"
             id="path4212"
             style="fill:#ffffff;fill-opacity:1;fill-rule:evenodd;stroke:none"
             d="m 339.11,402.62 c 3.31,5.74 10.65,7.71 16.39,4.39 5.74,-3.31 7.71,-10.65 4.39,-16.39 -3.31,-5.74 -10.65,-7.71 -16.39,-4.39 -5.74,3.31 -7.71,10.65 -4.39,16.39 z" />
        </g>
      </g>
      <g
         id="g4214"
         transform="matrix(0.0892492,0,0,-0.0892492,455.77065,294.92484)">
        <g
           clip-path="url(#clipPath4218)"
           id="g4216">
          <path
             inkscape:connector-curvature="0"
             id="path4222"
             style="fill:none;stroke:#ffffff;stroke-width:1;stroke-linecap:butt;stroke-linejoin:miter;stroke-miterlimit:10;stroke-dasharray:none;stroke-opacity:1"
             d="m 339.11,402.62 c 3.31,5.74 10.65,7.71 16.39,4.39 5.74,-3.31 7.71,-10.65 4.39,-16.39 -3.31,-5.74 -10.65,-7.71 -16.39,-4.39 -5.74,3.31 -7.71,10.65 -4.39,16.39 z" />
        </g>
      </g>
      <g
         id="g4224"
         transform="matrix(0.0892492,0,0,-0.0892492,455.77065,294.92484)">
        <g
           clip-path="url(#clipPath4228)"
           id="g4226">
          <path
             inkscape:connector-curvature="0"
             id="path4232"
             style="fill:#ffffff;fill-opacity:1;fill-rule:evenodd;stroke:none"
             d="m 219.92,471.43 c 3.31,5.74 10.65,7.71 16.39,4.39 5.74,-3.31 7.71,-10.65 4.4,-16.39 -3.32,-5.74 -10.66,-7.7 -16.4,-4.39 -5.74,3.31 -7.7,10.65 -4.39,16.39 z" />
        </g>
      </g>
      <g
         id="g4234"
         transform="matrix(0.0892492,0,0,-0.0892492,455.77065,294.92484)">
        <g
           clip-path="url(#clipPath4238)"
           id="g4236">
          <path
             inkscape:connector-curvature="0"
             id="path4242"
             style="fill:none;stroke:#ffffff;stroke-width:1;stroke-linecap:butt;stroke-linejoin:miter;stroke-miterlimit:10;stroke-dasharray:none;stroke-opacity:1"
             d="m 219.92,471.43 c 3.31,5.74 10.65,7.71 16.39,4.39 5.74,-3.31 7.71,-10.65 4.4,-16.39 -3.32,-5.74 -10.66,-7.7 -16.4,-4.39 -5.74,3.31 -7.7,10.65 -4.39,16.39 z" />
        </g>
      </g>
      <g
         id="g4244"
         transform="matrix(0.0892492,0,0,-0.0892492,455.77065,294.92484)">
        <g
           clip-path="url(#clipPath4248)"
           id="g4246">
          <path
             inkscape:connector-curvature="0"
             id="path4252"
             style="fill:#ffffff;fill-opacity:1;fill-rule:evenodd;stroke:none"
             d="m 317.19,381.45 c 5.74,3.31 13.08,1.35 16.39,-4.39 3.31,-5.74 1.35,-13.08 -4.39,-16.39 -5.74,-3.32 -13.08,-1.35 -16.39,4.39 -3.32,5.74 -1.35,13.08 4.39,16.39 z" />
        </g>
      </g>
      <g
         id="g4254"
         transform="matrix(0.0892492,0,0,-0.0892492,455.77065,294.92484)">
        <g
           clip-path="url(#clipPath4258)"
           id="g4256">
          <path
             inkscape:connector-curvature="0"
             id="path4262"
             style="fill:none;stroke:#ffffff;stroke-width:1;stroke-linecap:butt;stroke-linejoin:miter;stroke-miterlimit:10;stroke-dasharray:none;stroke-opacity:1"
             d="m 317.19,381.45 c 5.74,3.31 13.08,1.35 16.39,-4.39 3.31,-5.74 1.35,-13.08 -4.39,-16.39 -5.74,-3.32 -13.08,-1.35 -16.39,4.39 -3.32,5.74 -1.35,13.08 4.39,16.39 z" />
        </g>
      </g>
      <g
         id="g4264"
         transform="matrix(0.0892492,0,0,-0.0892492,455.77065,294.92484)">
        <g
           clip-path="url(#clipPath4268)"
           id="g4266">
          <path
             inkscape:connector-curvature="0"
             id="path4272"
             style="fill:#ffffff;fill-opacity:1;fill-rule:evenodd;stroke:none"
             d="m 248.38,500.64 c 5.74,3.31 13.07,1.34 16.39,-4.4 3.31,-5.74 1.35,-13.07 -4.39,-16.39 -5.74,-3.31 -13.08,-1.35 -16.4,4.39 -3.31,5.74 -1.34,13.08 4.4,16.4 z" />
        </g>
      </g>
      <g
         id="g4274"
         transform="matrix(0.0892492,0,0,-0.0892492,455.77065,294.92484)">
        <g
           clip-path="url(#clipPath4278)"
           id="g4276">
          <path
             inkscape:connector-curvature="0"
             id="path4282"
             style="fill:none;stroke:#ffffff;stroke-width:1;stroke-linecap:butt;stroke-linejoin:miter;stroke-miterlimit:10;stroke-dasharray:none;stroke-opacity:1"
             d="m 248.38,500.64 c 5.74,3.31 13.07,1.34 16.39,-4.4 3.31,-5.74 1.35,-13.07 -4.39,-16.39 -5.74,-3.31 -13.08,-1.35 -16.4,4.39 -3.31,5.74 -1.34,13.08 4.4,16.4 z" />
        </g>
      </g>
      <g
         id="g4284"
         transform="matrix(0.0892492,0,0,-0.0892492,455.77065,294.92484)">
        <g
           clip-path="url(#clipPath4288)"
           id="g4286">
          <path
             inkscape:connector-curvature="0"
             id="path4292"
             style="fill:#ffffff;fill-opacity:1;fill-rule:evenodd;stroke:none"
             d="m 291,375.72 c 6.63,0 12,-5.37 12,-12 0,-6.63 -5.37,-12 -12,-12 -6.63,0 -12,5.37 -12,12 0,6.63 5.37,12 12,12 z" />
        </g>
      </g>
      <g
         id="g4294"
         transform="matrix(0.0892492,0,0,-0.0892492,455.77065,294.92484)">
        <g
           clip-path="url(#clipPath4298)"
           id="g4296">
          <path
             inkscape:connector-curvature="0"
             id="path4302"
             style="fill:none;stroke:#ffffff;stroke-width:0.95999998;stroke-linecap:butt;stroke-linejoin:miter;stroke-miterlimit:10;stroke-dasharray:none;stroke-opacity:1"
             d="m 291,375.72 c 6.63,0 12,-5.37 12,-12 0,-6.63 -5.37,-12 -12,-12 -6.63,0 -12,5.37 -12,12 0,6.63 5.37,12 12,12 z" />
        </g>
      </g>
      <g
         id="g4304"
         transform="matrix(0.0892492,0,0,-0.0892492,455.77065,294.92484)">
        <g
           clip-path="url(#clipPath4308)"
           id="g4306">
          <path
             inkscape:connector-curvature="0"
             id="path4312"
             style="fill:#ffffff;fill-opacity:1;fill-rule:evenodd;stroke:none"
             d="m 291,513.36 c 6.63,0 12,-5.37 12,-12 0,-6.63 -5.37,-12 -12,-12 -6.63,0 -12,5.37 -12,12 0,6.63 5.37,12 12,12 z" />
        </g>
      </g>
      <g
         id="g4314"
         transform="matrix(0.0892492,0,0,-0.0892492,455.77065,294.92484)">
        <g
           clip-path="url(#clipPath4318)"
           id="g4316">
          <path
             inkscape:connector-curvature="0"
             id="path4322"
             style="fill:none;stroke:#ffffff;stroke-width:0.95999998;stroke-linecap:butt;stroke-linejoin:miter;stroke-miterlimit:10;stroke-dasharray:none;stroke-opacity:1"
             d="m 291,513.36 c 6.63,0 12,-5.37 12,-12 0,-6.63 -5.37,-12 -12,-12 -6.63,0 -12,5.37 -12,12 0,6.63 5.37,12 12,12 z" />
        </g>
      </g>
      <g
         id="g4324"
         transform="matrix(0.0892492,0,0,-0.0892492,455.77065,294.92484)">
        <g
           clip-path="url(#clipPath4328)"
           id="g4326">
          <path
             inkscape:connector-curvature="0"
             id="path4332"
             style="fill:#ffffff;fill-opacity:1;fill-rule:evenodd;stroke:none"
             d="m 261.13,383.7 c 5.74,-3.31 7.7,-10.65 4.39,-16.39 -3.32,-5.74 -10.65,-7.71 -16.39,-4.4 -5.74,3.32 -7.71,10.66 -4.4,16.4 3.32,5.74 10.66,7.7 16.4,4.39 z" />
        </g>
      </g>
      <g
         id="g4334"
         transform="matrix(0.0892492,0,0,-0.0892492,455.77065,294.92484)">
        <g
           clip-path="url(#clipPath4338)"
           id="g4336">
          <path
             inkscape:connector-curvature="0"
             id="path4342"
             style="fill:none;stroke:#ffffff;stroke-width:1;stroke-linecap:butt;stroke-linejoin:miter;stroke-miterlimit:10;stroke-dasharray:none;stroke-opacity:1"
             d="m 261.13,383.7 c 5.74,-3.31 7.7,-10.65 4.39,-16.39 -3.32,-5.74 -10.65,-7.71 -16.39,-4.4 -5.74,3.32 -7.71,10.66 -4.4,16.4 3.32,5.74 10.66,7.7 16.4,4.39 z" />
        </g>
      </g>
      <g
         id="g4344"
         transform="matrix(0.0892492,0,0,-0.0892492,455.77065,294.92484)">
        <g
           clip-path="url(#clipPath4348)"
           id="g4346">
          <path
             inkscape:connector-curvature="0"
             id="path4352"
             style="fill:#ffffff;fill-opacity:1;fill-rule:evenodd;stroke:none"
             d="m 329.94,502.89 c 5.74,-3.32 7.7,-10.66 4.39,-16.4 -3.31,-5.74 -10.65,-7.7 -16.39,-4.39 -5.74,3.32 -7.71,10.65 -4.39,16.39 3.31,5.74 10.65,7.71 16.39,4.4 z" />
        </g>
      </g>
      <g
         id="g4354"
         transform="matrix(0.0892492,0,0,-0.0892492,455.77065,294.92484)">
        <g
           clip-path="url(#clipPath4358)"
           id="g4356">
          <path
             inkscape:connector-curvature="0"
             id="path4362"
             style="fill:none;stroke:#ffffff;stroke-width:1;stroke-linecap:butt;stroke-linejoin:miter;stroke-miterlimit:10;stroke-dasharray:none;stroke-opacity:1"
             d="m 329.94,502.89 c 5.74,-3.32 7.7,-10.66 4.39,-16.4 -3.31,-5.74 -10.65,-7.7 -16.39,-4.39 -5.74,3.32 -7.71,10.65 -4.39,16.39 3.31,5.74 10.65,7.71 16.39,4.4 z" />
        </g>
      </g>
      <g
         id="g4364"
         transform="matrix(0.0892492,0,0,-0.0892492,455.77065,294.92484)">
        <g
           clip-path="url(#clipPath4368)"
           id="g4366">
          <path
             inkscape:connector-curvature="0"
             id="path4372"
             style="fill:#ffffff;fill-opacity:1;fill-rule:evenodd;stroke:none"
             d="m 241.08,404.49 c 3.31,-5.74 1.35,-13.07 -4.39,-16.39 -5.74,-3.31 -13.08,-1.35 -16.39,4.39 -3.32,5.74 -1.35,13.08 4.39,16.4 5.74,3.31 13.08,1.34 16.39,-4.4 z" />
        </g>
      </g>
      <g
         id="g4374"
         transform="matrix(0.0892492,0,0,-0.0892492,455.77065,294.92484)">
        <g
           clip-path="url(#clipPath4378)"
           id="g4376">
          <path
             inkscape:connector-curvature="0"
             id="path4382"
             style="fill:none;stroke:#ffffff;stroke-width:1;stroke-linecap:butt;stroke-linejoin:miter;stroke-miterlimit:10;stroke-dasharray:none;stroke-opacity:1"
             d="m 241.08,404.49 c 3.31,-5.74 1.35,-13.07 -4.39,-16.39 -5.74,-3.31 -13.08,-1.35 -16.39,4.39 -3.32,5.74 -1.35,13.08 4.39,16.4 5.74,3.31 13.08,1.34 16.39,-4.4 z" />
        </g>
      </g>
      <g
         id="g4384"
         transform="matrix(0.0892492,0,0,-0.0892492,455.77065,294.92484)">
        <g
           clip-path="url(#clipPath4388)"
           id="g4386">
          <path
             inkscape:connector-curvature="0"
             id="path4392"
             style="fill:#ffffff;fill-opacity:1;fill-rule:evenodd;stroke:none"
             d="m 360.27,473.31 c 3.31,-5.74 1.34,-13.08 -4.39,-16.4 -5.74,-3.31 -13.08,-1.34 -16.4,4.4 -3.31,5.74 -1.34,13.08 4.4,16.39 5.73,3.31 13.07,1.35 16.39,-4.39 z" />
        </g>
      </g>
      <g
         id="g4394"
         transform="matrix(0.0892492,0,0,-0.0892492,455.77065,294.92484)">
        <g
           clip-path="url(#clipPath4398)"
           id="g4396">
          <path
             inkscape:connector-curvature="0"
             id="path4402"
             style="fill:none;stroke:#ffffff;stroke-width:1;stroke-linecap:butt;stroke-linejoin:miter;stroke-miterlimit:10;stroke-dasharray:none;stroke-opacity:1"
             d="m 360.27,473.31 c 3.31,-5.74 1.34,-13.08 -4.39,-16.4 -5.74,-3.31 -13.08,-1.34 -16.4,4.4 -3.31,5.74 -1.34,13.08 4.4,16.39 5.73,3.31 13.07,1.35 16.39,-4.39 z" />
        </g>
      </g>
      <path
         inkscape:connector-curvature="0"
         id="path4404"
         style="fill:#4087c4;fill-opacity:1;fill-rule:evenodd;stroke:none;stroke-width:0.08924919"
         d="m 462.35724,256.60479 c 0,-1.50208 1.2179,-2.72033 2.72032,-2.72033 1.50206,0 2.72031,1.21825 2.72031,2.72033 0,1.50207 -1.21825,2.72032 -2.72031,2.72032 -1.50242,0 -2.72032,-1.21825 -2.72032,-2.72032 z" />
      <path
         inkscape:connector-curvature="0"
         id="path4406"
         style="fill:#4087c4;fill-opacity:1;fill-rule:evenodd;stroke:none;stroke-width:0.08924919"
         d="m 464.5849,254.31286 h 0.9746 v -0.96389 h -0.9746 z" />
      <path
         inkscape:connector-curvature="0"
         id="path4408"
         style="fill:#4087c4;fill-opacity:1;fill-rule:evenodd;stroke:none;stroke-width:0.08924919"
         d="m 460.21571,269.4754 c 0.98861,-1.94381 8.76561,-1.054 10.08382,0.19819 1.31821,1.25218 -0.32931,6.22782 -2.175,7.31487 -1.84568,1.08705 -5.40431,0.95585 -6.72252,-0.29637 -1.31812,-1.25214 -2.17491,-5.27192 -1.1863,-7.21669 z" />
      <path
         inkscape:connector-curvature="0"
         id="path4410"
         style="fill:#4087c4;fill-opacity:1;fill-rule:evenodd;stroke:none;stroke-width:0.08924919"
         d="m 487.06767,269.84224 c -1.01744,-1.91796 -8.95973,-1.43604 -10.28419,-0.20073 -1.32356,1.23524 0.43822,6.53844 2.33923,7.6112 1.90011,1.07277 5.49864,0.54709 6.8231,-0.68811 1.32356,-1.23523 2.14019,-4.8052 1.12186,-6.72225 z" />
      <text
         id="text2815"
         y="291.7897"
         x="441.11801"
         style="font-style:normal;font-variant:normal;font-weight:normal;font-stretch:normal;font-size:7.05555534px;line-height:1.25;font-family:sans-serif;-inkscape-font-specification:'sans-serif, Normal';font-variant-ligatures:normal;font-variant-caps:normal;font-variant-numeric:normal;font-feature-settings:normal;text-align:start;letter-spacing:0px;word-spacing:0px;writing-mode:lr-tb;text-anchor:start;fill:#000000;fill-opacity:1;stroke:none;stroke-width:0.26458332"
         xml:space="preserve"><tspan
           style="font-style:normal;font-variant:normal;font-weight:normal;font-stretch:normal;font-family:'Permanent Marker';-inkscape-font-specification:'Permanent Marker';fill:#4087c4;fill-opacity:1;stroke-width:0.26458332"
           y="291.7897"
           x="441.11801"
           id="tspan2813"
           sodipodi:role="line">www.costadoat.fr</tspan></text>
      <rect
         y="237.6776"
         x="437.31311"
         height="58.16864"
         width="68.802315"
         id="rect2811"
         style="fill:#ffffff;fill-opacity:0.40031649;stroke:none;stroke-width:0.33952218;stroke-linejoin:round;stroke-miterlimit:4;stroke-dasharray:none;stroke-dashoffset:0;stroke-opacity:1" />
    </g>
    <text
       id="text3617"
       y="36.390339"
       x="16.052044"
       style="font-style:normal;font-variant:normal;font-weight:normal;font-stretch:normal;font-size:7.05555534px;line-height:1.25;font-family:'Permanent Marker';-inkscape-font-specification:'Permanent Marker';font-variant-ligatures:normal;font-variant-caps:normal;font-variant-numeric:normal;font-feature-settings:normal;text-align:start;letter-spacing:0px;word-spacing:0px;writing-mode:lr-tb;text-anchor:start;fill:#4087c4;fill-opacity:1;stroke:none;stroke-width:0.26458332"
       xml:space="preserve"><tspan
         style="font-size:16.93333244px;fill:#4087c4;fill-opacity:1;stroke-width:0.26458332"
         y="36.390339"
         x="16.052044"
         id="tspan3615">FONCTION DE TRANSFERT</tspan></text>
    <path
       inkscape:connector-curvature="0"
       style="font-style:normal;font-variant:normal;font-weight:normal;font-stretch:normal;letter-spacing:normal;word-spacing:normal;text-anchor:start;fill:#000000;fill-opacity:1;fill-rule:evenodd;stroke:#000000;stroke-width:0;stroke-linecap:butt;stroke-linejoin:miter;stroke-miterlimit:10.43299961;stroke-dasharray:none;stroke-dashoffset:0;stroke-opacity:1"
       d="m 206.14087,78.861492 -0.003,-0.006 v -0.009 -0.003 -0.006 -0.003 l -0.003,-0.006 v -0.003 l -0.003,-0.006 -0.003,-0.006 -0.003,-0.006 -0.003,-0.006 -0.006,-0.009 -0.003,-0.006 -0.006,-0.009 -0.006,-0.009 -0.009,-0.009 -0.006,-0.009 -0.009,-0.0118 -0.006,-0.006 -0.003,-0.006 -0.006,-0.006 -0.006,-0.006 -0.006,-0.006 -0.006,-0.009 -0.006,-0.006 -0.006,-0.006 -0.006,-0.009 -0.009,-0.006 -0.006,-0.009 -0.009,-0.009 -0.006,-0.009 -0.009,-0.009 -0.009,-0.009 -0.009,-0.009 -0.009,-0.009 -0.009,-0.009 -0.0118,-0.0118 -0.009,-0.009 -0.0118,-0.0118 -0.009,-0.009 -0.0118,-0.0118 -0.0118,-0.0118 c -1.82815,-1.845779 -2.29547,-4.61151 -2.29547,-6.85114 0,-2.548231 0.5555,-5.099409 2.35425,-6.927559 0.19105,-0.17635 0.19105,-0.20574 0.19105,-0.249822 0,-0.10287 -0.0559,-0.144018 -0.14402,-0.144018 -0.14696,0 -1.46369,0.993429 -2.3278,2.85097 -0.74948,1.613588 -0.92289,3.238929 -0.92289,4.470429 0,1.143331 0.16165,2.90975 0.96404,4.567431 0.87586,1.801688 2.13969,2.75104 2.28665,2.75104 0.0882,0 0.14402,-0.0411 0.14402,-0.146961 z"
       id="path1624" />
    <path
       inkscape:connector-curvature="0"
       style="font-style:normal;font-variant:normal;font-weight:normal;font-stretch:normal;letter-spacing:normal;word-spacing:normal;text-anchor:start;fill:#000000;fill-opacity:1;fill-rule:evenodd;stroke:#000000;stroke-width:0;stroke-linecap:butt;stroke-linejoin:miter;stroke-miterlimit:10.43299961;stroke-dasharray:none;stroke-dashoffset:0;stroke-opacity:1"
       d="m 214.89363,66.417161 0.0118,-0.0441 0.009,-0.0412 0.0118,-0.0411 0.009,-0.0382 0.0118,-0.0382 0.009,-0.0323 0.0118,-0.0323 0.0118,-0.0323 0.0118,-0.0294 0.0147,-0.0265 0.0147,-0.02641 0.0147,-0.02349 0.0176,-0.0235 0.0176,-0.02061 0.0206,-0.02061 0.0206,-0.0176 0.0265,-0.0176 0.0235,-0.01471 0.0294,-0.01471 0.0323,-0.0118 0.0323,-0.0118 0.0353,-0.0118 0.0412,-0.009 0.0206,-0.003 0.0206,-0.006 0.0235,-0.003 0.0235,-0.003 0.0235,-0.003 0.0265,-0.003 0.0235,-0.003 0.0265,-0.003 0.0294,-0.003 h 0.0294 l 0.0294,-0.003 h 0.0294 l 0.0323,-0.003 h 0.0323 0.0353 0.0353 0.0353 0.0353 c 0.23513,0 0.39678,0 0.39678,-0.28216 0,-0.126378 -0.0882,-0.173408 -0.2028,-0.173408 -0.36739,0 -1.25795,0.047 -1.62535,0.047 -0.48201,0 -1.67237,-0.047 -2.15439,-0.047 -0.13226,0 -0.30861,0 -0.30861,0.293918 0,0.16165 0.12051,0.16165 0.5026,0.16165 0.33506,0 0.48202,0 0.84353,0.0264 0.35564,0.047 0.45557,0.0911 0.45557,0.29392 0,0.0882 -0.0265,0.193982 -0.0559,0.30861 l -1.68413,6.721822 c -0.35563,1.419598 -1.34612,2.195539 -2.10736,2.195539 -0.38209,0 -1.15802,-0.14696 -1.39315,-0.908201 0.0411,0.0118 0.14695,0.0118 0.17341,0.0118 0.57019,0 0.95228,-0.493779 0.95228,-0.934649 0,-0.47026 -0.39385,-0.611341 -0.64367,-0.611341 -0.26159,0 -0.98168,0.173411 -0.98168,1.169781 0,0.905248 0.77594,1.593009 1.93396,1.593009 1.34906,0 2.8686,-0.964039 3.23599,-2.413029 z"
       id="path1626" />
    <path
       inkscape:connector-curvature="0"
       style="font-style:normal;font-variant:normal;font-weight:normal;font-stretch:normal;letter-spacing:normal;word-spacing:normal;text-anchor:start;fill:#000000;fill-opacity:1;fill-rule:evenodd;stroke:#000000;stroke-width:0;stroke-linecap:butt;stroke-linejoin:miter;stroke-miterlimit:10.43299961;stroke-dasharray:none;stroke-dashoffset:0;stroke-opacity:1"
       d="m 222.58537,71.689982 -0.003,-0.0412 -0.003,-0.0382 -0.003,-0.0382 -0.009,-0.0382 -0.009,-0.0382 -0.009,-0.0382 -0.0118,-0.0353 -0.0147,-0.0353 -0.0147,-0.0353 -0.0176,-0.0323 -0.0206,-0.0323 -0.0176,-0.0323 -0.0235,-0.0294 -0.0235,-0.0294 -0.0235,-0.0294 -0.0264,-0.0264 -0.0265,-0.0265 -0.0294,-0.02349 -0.0294,-0.0235 -0.0294,-0.02058 -0.0323,-0.02061 -0.0323,-0.0176 -0.0323,-0.0176 -0.0353,-0.01471 -0.0353,-0.01471 -0.0353,-0.0118 -0.0353,-0.0118 -0.0382,-0.009 -0.0382,-0.006 -0.0382,-0.006 -0.0411,-0.003 h -0.0382 c -0.42324,0 -0.77594,0.346818 -0.77594,0.775928 0,0.420301 0.3527,0.775941 0.77594,0.775941 0.42617,0 0.77592,-0.35564 0.77592,-0.775941 z"
       id="path1628" />
    <path
       inkscape:connector-curvature="0"
       style="font-style:normal;font-variant:normal;font-weight:normal;font-stretch:normal;letter-spacing:normal;word-spacing:normal;text-anchor:start;fill:#000000;fill-opacity:1;fill-rule:evenodd;stroke:#000000;stroke-width:0;stroke-linecap:butt;stroke-linejoin:miter;stroke-miterlimit:10.43299961;stroke-dasharray:none;stroke-dashoffset:0;stroke-opacity:1"
       d="m 227.76708,77.136213 -0.0118,0.0441 -0.009,0.0441 -0.0118,0.0412 -0.009,0.0382 -0.009,0.0382 -0.0118,0.0323 -0.009,0.0353 -0.0118,0.0294 -0.0118,0.0294 -0.0118,0.0265 -0.0118,0.0264 -0.0118,0.02349 -0.0147,0.02061 -0.0176,0.02061 -0.0147,0.02061 -0.0206,0.01471 -0.0206,0.0176 -0.0206,0.01471 -0.0235,0.0118 -0.0265,0.0118 -0.0265,0.0118 -0.0294,0.009 -0.0323,0.009 -0.0353,0.006 -0.0353,0.006 -0.0206,0.003 -0.0206,0.003 -0.0206,0.003 -0.0206,0.003 h -0.0235 l -0.0235,0.003 h -0.0235 -0.0264 l -0.0235,0.003 h -0.0264 -0.0265 -0.0294 -0.0294 l -0.0294,0.003 c -0.17341,0 -0.33506,0 -0.33506,0.273341 0,0.120499 0.0735,0.179289 0.1881,0.179289 0.39973,0 0.82296,-0.0441 1.2315,-0.0441 0.48202,0 0.98168,0.0441 1.449,0.0441 0.0735,0 0.26159,0 0.26159,-0.29392 0,-0.15871 -0.14696,-0.15871 -0.34682,-0.15871 -0.73479,0 -0.73479,-0.10581 -0.73479,-0.23513 0,-0.17929 0.61428,-2.56294 0.72009,-2.93033 0.18811,0.423241 0.59665,0.937591 1.34613,0.937591 l -0.0147,-0.32331 c -0.96991,0 -1.15802,-1.2168 -1.15802,-1.302041 0,-0.0294 0,-0.0617 0.0411,-0.23513 l 0.72303,-2.871539 c 0.0999,-0.393851 0.49671,-0.802391 0.7583,-1.022821 0.51435,-0.45557 0.94052,-0.5555 1.18741,-0.5555 0.58489,0 0.93759,0.508471 0.93759,1.37846 0,0.861171 -0.48202,2.54235 -0.74948,3.103729 -0.49378,1.022821 -1.19624,1.504842 -1.73998,1.504842 l 0.0147,0.32331 c 1.69882,0 3.52697,-2.136762 3.52697,-4.29115 0,-1.375521 -0.83178,-2.342502 -1.94865,-2.342502 -0.72891,0 -1.43136,0.526111 -1.91338,1.099241 -0.14696,-0.790631 -0.77594,-1.099241 -1.31968,-1.099241 -0.67306,0 -0.95522,0.570201 -1.0816,0.831782 -0.26747,0.502589 -0.45557,1.37846 -0.45557,1.425479 0,0.14696 0.14696,0.14696 0.17341,0.14696 0.14696,0 0.16165,-0.02061 0.24983,-0.340939 0.25276,-1.037521 0.5408,-1.739971 1.06984,-1.739971 0.24689,0 0.45263,0.11462 0.45263,0.67012 0,0.34094 -0.0441,0.499661 -0.0999,0.74948 z"
       id="path1630" />
    <path
       inkscape:connector-curvature="0"
       style="font-style:normal;font-variant:normal;font-weight:normal;font-stretch:normal;letter-spacing:normal;word-spacing:normal;text-anchor:start;fill:#000000;fill-opacity:1;fill-rule:evenodd;stroke:#000000;stroke-width:0;stroke-linecap:butt;stroke-linejoin:miter;stroke-miterlimit:10.43299961;stroke-dasharray:none;stroke-dashoffset:0;stroke-opacity:1"
       d="m 243.71193,71.983902 h 4.08835 c 0.2028,0 0.48202,0 0.48202,-0.29392 0,-0.29391 -0.27922,-0.29391 -0.48202,-0.29391 h -4.08835 v -4.10305 c 0,-0.199861 0,-0.48202 -0.29391,-0.48202 -0.28804,0 -0.28804,0.282159 -0.28804,0.48202 v 4.10305 h -4.1001 c -0.20868,0 -0.48202,0 -0.48202,0.29391 0,0.29392 0.27334,0.29392 0.48202,0.29392 h 4.1001 v 4.094218 c 0,0.208682 0,0.487902 0.28804,0.487902 0.29391,0 0.29391,-0.27922 0.29391,-0.487902 z"
       id="path1632" />
    <path
       inkscape:connector-curvature="0"
       style="font-style:normal;font-variant:normal;font-weight:normal;font-stretch:normal;letter-spacing:normal;word-spacing:normal;text-anchor:start;fill:#000000;fill-opacity:1;fill-rule:evenodd;stroke:#000000;stroke-width:0;stroke-linecap:butt;stroke-linejoin:miter;stroke-miterlimit:10.43299961;stroke-dasharray:none;stroke-dashoffset:0;stroke-opacity:1"
       d="m 257.73752,69.49444 h 1.26383 c 0.29392,0 0.44087,0 0.44087,-0.29391 0,-0.161649 -0.14695,-0.161649 -0.41148,-0.161649 h -1.20505 l 0.29392,-1.672379 c 0.0588,-0.30567 0.26452,-1.343191 0.3527,-1.519531 0.14695,-0.27922 0.38208,-0.49966 0.70539,-0.49966 0.0588,0 0.44087,0 0.70539,0.267459 -0.64661,0.0529 -0.79356,0.567261 -0.79356,0.787691 0,0.335071 0.26452,0.511411 0.55843,0.511411 0.38209,0 0.79357,-0.3233 0.79357,-0.878801 0,-0.67306 -0.676,-1.00812 -1.26383,-1.00812 -0.49965,0 -1.44018,0.26158 -1.85166,1.710581 -0.0882,0.30861 -0.14696,0.45556 -0.49965,2.301349 h -0.99931 c -0.29392,0 -0.44087,0 -0.44087,0.27627 0,0.179289 0.11756,0.179289 0.41148,0.179289 h 0.96991 l -1.11687,5.781302 c -0.26452,1.419598 -0.49966,2.756908 -1.26383,2.756908 -0.0588,0 -0.44087,0 -0.7054,-0.267459 0.67601,-0.0412 0.79357,-0.57019 0.79357,-0.790631 0,-0.335057 -0.26452,-0.51435 -0.52904,-0.51435 -0.38209,0 -0.82296,0.323311 -0.82296,0.881743 0,0.658368 0.64661,1.011068 1.26383,1.011068 0.79357,0 1.38139,-0.864111 1.64592,-1.422548 0.47026,-0.92583 0.82296,-2.692252 0.82296,-2.798062 z"
       id="path1634" />
    <path
       inkscape:connector-curvature="0"
       style="font-style:normal;font-variant:normal;font-weight:normal;font-stretch:normal;letter-spacing:normal;word-spacing:normal;text-anchor:start;fill:#000000;fill-opacity:1;fill-rule:evenodd;stroke:#000000;stroke-width:0;stroke-linecap:butt;stroke-linejoin:miter;stroke-miterlimit:10.43299961;stroke-dasharray:none;stroke-dashoffset:0;stroke-opacity:1"
       d="M 265.3499,71.689982 V 71.58123 71.466613 l -0.0294,-0.114631 v -0.120499 -0.246891 l -0.0294,-0.258651 -0.0294,-0.270399 -0.0294,-0.27922 -0.0294,-0.288031 -0.0588,-0.29392 -0.0588,-0.299789 -0.0588,-0.302731 -0.0588,-0.31155 -0.11756,-0.30861 -0.0882,-0.314489 -0.11756,-0.314491 -0.0588,-0.155768 -0.0588,-0.155782 -0.0882,-0.155771 -0.0588,-0.155778 c -0.88174,-1.798752 -2.14557,-2.751029 -2.29253,-2.751029 -0.0882,0 -0.14696,0.0558 -0.14696,0.144018 0,0.0441 0,0.0735 0.26453,0.338 1.44018,1.446051 2.29253,3.7768 2.29253,6.839381 0,2.501209 -0.55844,5.078838 -2.35132,6.924619 -0.20574,0.173411 -0.20574,0.20574 -0.20574,0.246891 0,0.0882 0.0588,0.14696 0.14696,0.14696 0.14696,0 1.46957,-0.996371 2.32192,-2.856852 0.76418,-1.604769 0.94053,-3.23306 0.94053,-4.461618 z"
       id="path1636" />
    <path
       inkscape:connector-curvature="0"
       style="font-style:normal;font-variant:normal;font-weight:normal;font-stretch:normal;letter-spacing:normal;word-spacing:normal;text-anchor:start;fill:#000000;fill-opacity:1;fill-rule:evenodd;stroke:#000000;stroke-width:0;stroke-linecap:butt;stroke-linejoin:miter;stroke-miterlimit:10.43299961;stroke-dasharray:none;stroke-dashoffset:0;stroke-opacity:1"
       d="m 272.84471,71.689982 v -0.0412 -0.0382 -0.0382 l -0.0294,-0.0382 v -0.0382 -0.0382 l -0.0294,-0.0353 v -0.0353 l -0.0294,-0.0353 v -0.0323 l -0.0294,-0.0323 -0.0294,-0.0323 v -0.0294 l -0.0294,-0.0294 -0.0294,-0.0294 -0.0294,-0.0264 -0.0294,-0.0265 -0.0294,-0.02349 -0.0294,-0.0235 -0.0294,-0.02058 -0.0294,-0.02061 -0.0294,-0.0176 -0.0294,-0.0176 -0.0294,-0.01471 -0.0294,-0.01471 -0.0588,-0.0118 -0.0294,-0.0118 -0.0294,-0.009 -0.0294,-0.006 -0.0588,-0.006 -0.0294,-0.003 h -0.0588 c -0.41148,0 -0.76418,0.346818 -0.76418,0.775928 0,0.420301 0.3527,0.775941 0.76418,0.775941 0.44087,0 0.79356,-0.35564 0.79356,-0.775941 z"
       id="path1638" />
    <path
       inkscape:connector-curvature="0"
       style="font-style:normal;font-variant:normal;font-weight:normal;font-stretch:normal;letter-spacing:normal;word-spacing:normal;text-anchor:start;fill:#118600;fill-opacity:1;fill-rule:evenodd;stroke:#000000;stroke-width:0;stroke-linecap:butt;stroke-linejoin:miter;stroke-miterlimit:10.43299961;stroke-dasharray:none;stroke-dashoffset:0;stroke-opacity:1"
       d="m 287.27591,72.974391 h -0.35271 c -0.0882,0.38209 -0.14695,0.72303 -0.26451,1.069851 -0.0882,0.23513 -0.11758,0.355629 -0.96993,0.355629 h -1.17565 c 0.17634,-0.82296 0.64661,-1.52541 1.29323,-2.489449 0.70538,-1.0434 1.29323,-2.05446 1.29323,-3.209552 0,-2.036818 -1.96924,-3.673919 -4.43812,-3.673919 -2.52766,0 -4.4675,1.66943 -4.4675,3.673919 0,1.155092 0.58783,2.166152 1.29323,3.209552 0.61722,0.964039 1.08747,1.666489 1.29321,2.489449 h -1.17565 c -0.85235,0 -0.88174,-0.120499 -0.96991,-0.34094 -0.11757,-0.33506 -0.17635,-0.71715 -0.26453,-1.08454 h -0.35269 l 0.47026,2.374831 h 2.35131 c 0.3233,0 0.35269,0 0.35269,-0.30861 0,-1.022831 -0.44087,-2.313112 -0.79356,-3.2507 -0.29391,-0.84941 -0.70539,-2.007431 -0.70539,-3.103732 0,-2.342499 1.61653,-3.338869 2.93913,-3.338869 1.41079,0 2.96855,1.05515 2.96855,3.338869 0,1.096301 -0.41148,2.213171 -0.82296,3.412342 -0.23514,0.614278 -0.67601,1.933959 -0.67601,2.94209 0,0.30861 0.0294,0.30861 0.35269,0.30861 h 2.35132 z"
       id="path1640" />
    <path
       inkscape:connector-curvature="0"
       style="font-style:normal;font-variant:normal;font-weight:normal;font-stretch:normal;letter-spacing:normal;word-spacing:normal;text-anchor:start;fill:#118600;fill-opacity:1;fill-rule:evenodd;stroke:#000000;stroke-width:0;stroke-linecap:butt;stroke-linejoin:miter;stroke-miterlimit:10.43299961;stroke-dasharray:none;stroke-dashoffset:0;stroke-opacity:1"
       d="m 292.39002,76.73943 v 0.02061 0.02061 0.02061 0.02061 l -0.0294,0.02349 v 0.02349 0.047 l -0.0294,0.047 v 0.047 0.047 l -0.0294,0.02061 v 0.02349 0.02349 0.02061 0.02061 l -0.0294,0.02061 v 0.02061 0.0176 0.0176 0.0176 0.01471 0.01471 0.0118 0.0118 l -0.0294,0.0118 v 0.009 0.006 0.006 c 0,0.226319 0.20574,0.326249 0.35269,0.326249 0.17635,0 0.35269,-0.13226 0.41148,-0.223379 0.0588,-0.0941 0.11756,-0.417362 0.17635,-0.634852 0.0588,-0.19399 0.17634,-0.66425 0.23513,-0.922888 0.0588,-0.226322 0.11756,-0.449691 0.17635,-0.684821 0.11758,-0.44087 0.11758,-0.45851 0.29392,-0.778881 0.35269,-0.502589 0.85236,-1.08454 1.64592,-1.08454 0.58783,0 0.61722,0.473202 0.61722,0.717151 0,0.61428 -0.44087,1.74879 -0.61722,2.180849 -0.11758,0.288031 -0.14697,0.37914 -0.14697,0.55549 0,0.540811 0.44087,0.875871 0.96993,0.875871 1.0287,0 1.46958,-1.40785 1.46958,-1.566571 0,-0.13226 -0.11758,-0.13226 -0.14698,-0.13226 -0.14695,0 -0.14695,0.0588 -0.20574,0.17635 -0.23513,0.817081 -0.67598,1.237382 -1.08746,1.237382 -0.20574,0 -0.26453,-0.141081 -0.26453,-0.355642 0,-0.23513 0.0588,-0.36739 0.23513,-0.831768 0.14695,-0.317431 0.55843,-1.401972 0.55843,-1.975112 0,-0.164589 0,-0.596638 -0.38208,-0.890558 -0.17635,-0.1352 -0.47027,-0.276281 -0.96991,-0.276281 -0.91115,0 -1.46958,0.60253 -1.7929,1.034579 -0.0882,-0.872919 -0.82296,-1.034579 -1.3226,-1.034579 -0.85235,0 -1.44018,0.520229 -1.7341,0.92877 -0.0882,-0.702451 -0.67601,-0.92877 -1.11686,-0.92877 -0.44088,0 -0.67601,0.317431 -0.79359,0.549619 -0.23511,0.379151 -0.38209,0.966981 -0.38209,1.01695 0,0.13226 0.14698,0.13226 0.17635,0.13226 0.14697,0 0.17637,-0.0323 0.23513,-0.30861 0.14698,-0.60547 0.35272,-1.10512 0.7642,-1.10512 0.23511,0 0.32329,0.22338 0.32329,0.49965 0,0.196932 -0.0882,0.57314 -0.17634,0.849421 -0.0588,0.282149 -0.14695,0.699511 -0.20574,0.92289 l -0.35269,1.313789 c -0.0294,0.129331 -0.0882,0.385032 -0.0882,0.417362 0,0.226319 0.17634,0.326249 0.35269,0.326249 0.17637,0 0.35271,-0.13226 0.38211,-0.223379 0.0588,-0.0941 0.14695,-0.417362 0.20574,-0.634852 0.0294,-0.19399 0.14695,-0.66425 0.20574,-0.922888 0.0882,-0.226322 0.14695,-0.449691 0.17634,-0.684821 0.11756,-0.423241 0.14695,-0.49966 0.44088,-0.922891 0.2939,-0.40854 0.76417,-0.94053 1.52834,-0.94053 0.58782,0 0.61722,0.523171 0.61722,0.717151 0,0.255709 -0.0294,0.387969 -0.17635,0.964041 z"
       id="path1642" />
    <path
       inkscape:connector-curvature="0"
       style="font-style:normal;font-variant:normal;font-weight:normal;font-stretch:normal;letter-spacing:normal;word-spacing:normal;text-anchor:start;fill:#118600;fill-opacity:1;fill-rule:evenodd;stroke:#000000;stroke-width:0;stroke-linecap:butt;stroke-linejoin:miter;stroke-miterlimit:10.43299961;stroke-dasharray:none;stroke-dashoffset:0;stroke-opacity:1"
       d="m 303.91146,78.861492 v -0.006 -0.009 -0.003 -0.006 -0.003 -0.006 -0.003 -0.006 -0.006 l -0.0294,-0.006 v -0.006 -0.009 -0.006 -0.009 -0.009 l -0.0294,-0.009 v -0.009 -0.0118 -0.006 l -0.0294,-0.006 v -0.006 -0.006 -0.006 -0.009 -0.006 l -0.0294,-0.006 v -0.009 -0.006 -0.009 l -0.0294,-0.009 v -0.009 -0.009 -0.009 l -0.0294,-0.009 v -0.009 -0.009 l -0.0294,-0.0118 v -0.009 -0.0118 l -0.0294,-0.009 v -0.0118 l -0.0294,-0.0118 c -1.82227,-1.845779 -2.29251,-4.61151 -2.29251,-6.85114 0,-2.548231 0.55843,-5.099409 2.3513,-6.927559 0.20574,-0.17635 0.20574,-0.20574 0.20574,-0.249822 0,-0.10287 -0.0588,-0.144018 -0.14695,-0.144018 -0.14695,0 -1.46958,0.993429 -2.32193,2.85097 -0.76417,1.613588 -0.94052,3.238929 -0.94052,4.470429 0,1.143331 0.17635,2.90975 0.96991,4.567431 0.88175,1.801688 2.14559,2.75104 2.29254,2.75104 0.0882,0 0.14695,-0.0411 0.14695,-0.146961 z"
       id="path1644" />
    <path
       inkscape:connector-curvature="0"
       style="font-style:normal;font-variant:normal;font-weight:normal;font-stretch:normal;letter-spacing:normal;word-spacing:normal;text-anchor:start;fill:#118600;fill-opacity:1;fill-rule:evenodd;stroke:#000000;stroke-width:0;stroke-linecap:butt;stroke-linejoin:miter;stroke-miterlimit:10.43299961;stroke-dasharray:none;stroke-dashoffset:0;stroke-opacity:1"
       d="m 305.38103,77.136213 v 0.0441 0.0441 l -0.0294,0.0412 v 0.0382 0.0382 l -0.0294,0.0323 v 0.0353 0.0294 l -0.0294,0.0294 v 0.0265 0.0264 l -0.0294,0.02349 v 0.02061 l -0.0294,0.02061 v 0.02061 l -0.0294,0.01471 -0.0294,0.0176 -0.0294,0.01471 v 0.0118 l -0.0294,0.0118 -0.0294,0.0118 -0.0294,0.009 -0.0294,0.009 -0.0294,0.006 -0.0588,0.006 v 0.003 l -0.0294,0.003 -0.0294,0.003 -0.0294,0.003 v 0 l -0.0294,0.003 h -0.0294 -0.0294 l -0.0294,0.003 v 0 h -0.0294 -0.0294 -0.0294 l -0.0294,0.003 c -0.17634,0 -0.35269,0 -0.35269,0.273341 0,0.120499 0.0882,0.179289 0.20574,0.179289 0.38209,0 0.82296,-0.0441 1.20505,-0.0441 0.49966,0 0.9993,0.0441 1.46957,0.0441 0.0588,0 0.26453,0 0.26453,-0.29392 0,-0.15871 -0.14697,-0.15871 -0.35271,-0.15871 -0.73478,0 -0.73478,-0.10581 -0.73478,-0.23513 0,-0.17929 0.61722,-2.56294 0.70541,-2.93033 0.20574,0.423241 0.61722,0.937591 1.35199,0.937591 v -0.32331 c -0.96991,0 -1.17565,-1.2168 -1.17565,-1.302041 0,-0.0294 0,-0.0617 0.0588,-0.23513 l 0.70541,-2.871539 c 0.11755,-0.393851 0.49964,-0.802391 0.76417,-1.022821 0.52906,-0.45557 0.94054,-0.5555 1.20504,-0.5555 0.55846,0 0.91115,0.508471 0.91115,1.37846 0,0.861171 -0.47027,2.54235 -0.7348,3.103729 -0.49964,1.022821 -1.20505,1.504842 -1.73408,1.504842 v 0.32331 c 1.70471,0 3.52695,-2.136762 3.52695,-4.29115 0,-1.375521 -0.82296,-2.342502 -1.93982,-2.342502 -0.7348,0 -1.44018,0.526111 -1.91045,1.099241 -0.14695,-0.790631 -0.79357,-1.099241 -1.3226,-1.099241 -0.67601,0 -0.94054,0.570201 -1.08749,0.831782 -0.26453,0.502589 -0.44088,1.37846 -0.44088,1.425479 0,0.14696 0.14698,0.14696 0.17635,0.14696 0.14695,0 0.14695,-0.02061 0.23513,-0.340939 0.26454,-1.037521 0.52904,-1.739971 1.0581,-1.739971 0.26453,0 0.47027,0.11462 0.47027,0.67012 0,0.34094 -0.0588,0.499661 -0.11758,0.74948 z"
       id="path1646" />
    <path
       inkscape:connector-curvature="0"
       style="font-style:normal;font-variant:normal;font-weight:normal;font-stretch:normal;letter-spacing:normal;word-spacing:normal;text-anchor:start;fill:#118600;fill-opacity:1;fill-rule:evenodd;stroke:#000000;stroke-width:0;stroke-linecap:butt;stroke-linejoin:miter;stroke-miterlimit:10.43299961;stroke-dasharray:none;stroke-dashoffset:0;stroke-opacity:1"
       d="M 316.34402,71.689982 V 71.58123 71.466613 71.351982 71.231483 l -0.0294,-0.246891 v -0.258651 l -0.0294,-0.270399 -0.0294,-0.27922 -0.0588,-0.288031 -0.0294,-0.29392 -0.0588,-0.299789 -0.0882,-0.302731 -0.0588,-0.31155 -0.0882,-0.30861 -0.11758,-0.314489 -0.11756,-0.314491 -0.0588,-0.155768 -0.0588,-0.155782 -0.0588,-0.155771 -0.0882,-0.155778 c -0.88172,-1.798752 -2.14556,-2.751029 -2.29253,-2.751029 -0.0882,0 -0.14695,0.0558 -0.14695,0.144018 0,0.0441 0,0.0735 0.29392,0.338 1.44018,1.446051 2.26314,3.7768 2.26314,6.839381 0,2.501209 -0.52906,5.078838 -2.35132,6.924619 -0.20574,0.173411 -0.20574,0.20574 -0.20574,0.246891 0,0.0882 0.0588,0.14696 0.14695,0.14696 0.14697,0 1.46957,-0.996371 2.35132,-2.856852 0.73478,-1.604769 0.91115,-3.23306 0.91115,-4.461618 z"
       id="path1648" />
    <polyline
       transform="matrix(0.2939143,0,0,-0.2939143,-43.583221,198.40526)"
       style="font-style:normal;font-variant:normal;font-weight:normal;font-stretch:normal;letter-spacing:normal;word-spacing:normal;text-anchor:start;fill:#000000;fill-opacity:1;fill-rule:nonzero;stroke:#000000;stroke-width:0;stroke-linecap:butt;stroke-linejoin:miter;stroke-miterlimit:10.43299961;stroke-dasharray:none;stroke-dashoffset:0;stroke-opacity:1"
       points="833,396 1229.5,396 1229.5,398.04 833,398.04 "
       id="polyline1650" />
    <path
       inkscape:connector-curvature="0"
       style="font-style:normal;font-variant:normal;font-weight:normal;font-stretch:normal;letter-spacing:normal;word-spacing:normal;text-anchor:start;fill:#000000;fill-opacity:1;fill-rule:evenodd;stroke:#000000;stroke-width:0;stroke-linecap:butt;stroke-linejoin:miter;stroke-miterlimit:10.43299961;stroke-dasharray:none;stroke-dashoffset:0;stroke-opacity:1"
       d="m 257.7963,89.395383 v -0.003 -0.006 -0.006 -0.006 -0.006 -0.006 -0.006 -0.006 -0.006 -0.009 l -0.0294,-0.006 v -0.009 -0.01471 -0.01471 -0.01471 -0.01471 l -0.0294,-0.006 v -0.009 -0.006 -0.009 -0.006 -0.006 -0.006 -0.006 -0.006 -0.006 -0.003 -0.006 c 0,-0.01471 0.26452,-0.220441 0.41148,-0.335061 l 2.58645,-1.978049 c 1.352,-1.01106 1.93983,-1.066911 2.3807,-1.11393 0.11757,-0.0118 0.26452,-0.0265 0.26452,-0.29392 0,-0.0529 -0.0588,-0.158711 -0.17634,-0.158711 -0.32331,0 -0.67601,0.0441 -1.0287,0.0441 -0.52905,0 -1.08749,-0.0441 -1.61653,-0.0441 -0.11757,0 -0.29392,0 -0.29392,0.29391 0,0.0999 0.0882,0.14696 0.17635,0.158721 0.32331,0.0294 0.44087,0.10287 0.44087,0.30861 0,0.26158 -0.44087,0.60252 -0.49965,0.676 l -5.73133,4.39108 1.17566,-4.69969 c 0.14695,-0.52904 0.17635,-0.676 1.23444,-0.676 0.35269,0 0.49965,0 0.49965,-0.29392 0,-0.126381 -0.11756,-0.158711 -0.20574,-0.158711 -0.41148,0 -1.46957,0.0441 -1.88105,0.0441 -0.41148,0 -1.46957,-0.0441 -1.88105,-0.0441 -0.11757,0 -0.29392,0 -0.29392,0.279221 0,0.17341 0.11757,0.17341 0.41148,0.17341 0.20574,0 0.47027,0.01471 0.64662,0.0294 0.23513,0.0323 0.3233,0.0735 0.3233,0.23219 0,0.0617 -0.0294,0.105809 -0.0588,0.28216 l -1.96923,7.86221 c -0.14695,0.57313 -0.17635,0.687758 -1.32261,0.687758 -0.26452,0 -0.41148,0 -0.41148,0.27922 0,0.176342 0.17635,0.176342 0.20574,0.176342 0.41148,0 1.46957,-0.047 1.85166,-0.047 0.3233,0 0.64661,0.0176 0.94052,0.0176 0.32331,0 0.64662,0.0294 0.96992,0.0294 0.0882,0 0.29392,0 0.29392,-0.29391 0,-0.161653 -0.14696,-0.161653 -0.41148,-0.161653 -0.55844,0 -0.96992,0 -0.96992,-0.261588 0,-0.105809 0.0882,-0.42617 0.14696,-0.64661 0.20574,-0.758301 0.38208,-1.534231 0.58782,-2.295469 l 2.17497,-1.701761 1.7047,3.94139 c 0.17635,0.39384 0.17635,0.42323 0.17635,0.508471 0,0.44087 -0.64661,0.455567 -0.76418,0.455567 -0.17634,0 -0.3233,0 -0.3233,0.293913 0,0.16165 0.17635,0.16165 0.20574,0.16165 0.58783,0 1.20505,-0.047 1.79288,-0.047 0.3233,0 1.08748,0.047 1.44018,0.047 0.0588,0 0.23513,0 0.23513,-0.29391 0,-0.161653 -0.14696,-0.161653 -0.29392,-0.161653 -0.58783,-0.01468 -0.76417,-0.146957 -0.99931,-0.655428 z"
       id="path1652" />
    <path
       inkscape:connector-curvature="0"
       style="font-style:normal;font-variant:normal;font-weight:normal;font-stretch:normal;letter-spacing:normal;word-spacing:normal;text-anchor:start;fill:#000000;fill-opacity:1;fill-rule:evenodd;stroke:#000000;stroke-width:0;stroke-linecap:butt;stroke-linejoin:miter;stroke-miterlimit:10.43299961;stroke-dasharray:none;stroke-dashoffset:0;stroke-opacity:1"
       d="m 267.28973,93.577781 -0.0294,0.006 -0.0294,0.006 -0.0294,0.009 -0.0294,0.0118 -0.0294,0.009 -0.0294,0.01471 -0.0294,0.0118 -0.0294,0.01471 -0.0294,0.01471 -0.0294,0.01471 v 0.0176 l -0.0294,0.01759 -0.0294,0.0176 v 0.02061 l -0.0294,0.0176 -0.0294,0.02061 v 0.02061 l -0.0294,0.02061 v 0.02061 0.02349 l -0.0294,0.02061 v 0.02349 0.02061 l -0.0294,0.02349 v 0.0235 0.02061 0.0235 0.02061 l -0.0294,0.0235 v 0.02061 0.0235 0.02061 c 0,0.276281 0.23513,0.376211 0.41148,0.376211 0.23513,0 0.58783,-0.161649 0.58783,-0.652488 0,-0.696572 -0.79357,-0.890562 -1.35201,-0.890562 -1.55774,0 -2.96853,1.410791 -2.96853,2.833341 0,0.88174 0.61722,1.78112 1.91044,1.78112 1.7047,0 2.52766,-1.008131 2.52766,-1.155092 0,-0.0617 -0.0882,-0.176339 -0.17635,-0.176339 -0.0588,0 -0.0882,0.0235 -0.17634,0.105801 -0.79357,0.940531 -1.99862,0.940531 -2.17497,0.940531 -0.73479,0 -1.05809,-0.499653 -1.05809,-1.137452 0,-0.29391 0.14696,-1.41079 0.676,-2.11618 0.38209,-0.505529 0.91114,-0.79063 1.44018,-0.79063 0.14696,0 0.61722,0.01759 0.88174,0.30861 z"
       id="path1654" />
    <path
       inkscape:connector-curvature="0"
       id="path1862-2"
       d="m 68.524497,76.909692 0.0294,-0.108741 0.01471,-0.0558 0.0176,-0.0529 0.01759,-0.05 0.02061,-0.05 0.02061,-0.05 0.0235,-0.047 0.02349,-0.047 0.0294,-0.047 0.02641,-0.0441 0.0323,-0.0412 0.0323,-0.0411 0.0382,-0.0411 0.0382,-0.0353 0.0411,-0.0382 0.0441,-0.0353 0.05,-0.0323 0.05,-0.0323 0.0558,-0.0294 0.0558,-0.02641 0.0617,-0.0265 0.0676,-0.0235 0.0676,-0.02349 0.0764,-0.02061 0.0764,-0.0176 0.0823,-0.0176 0.0882,-0.0118 0.0911,-0.01471 0.097,-0.009 0.10287,-0.009 0.0529,-0.003 h 0.0558 c 0.0735,0 0.24689,-0.01468 0.24689,-0.293917 0,-0.01471 0,-0.16165 -0.1881,-0.16165 -0.482021,0 -0.996371,0.047 -1.493089,0.047 -0.49965,0 -1.043381,-0.047 -1.525399,-0.047 -0.0852,0 -0.261591,0 -0.261591,0.29391 0,0.161657 0.14696,0.161657 0.261591,0.161657 0.837639,0.0118 0.99636,0.320361 0.99636,0.640731 0,0.047 -0.0323,0.26746 -0.0441,0.30861 l -1.31967,5.231681 c -0.493771,1.960401 -2.180831,3.233049 -3.644511,3.233049 -0.993418,0 -1.786988,-0.64367 -1.786988,-1.901618 0,-0.0323 0,-0.499661 0.161649,-1.143331 l 1.422541,-5.696061 c 0.129317,-0.526108 0.16165,-0.673061 1.23149,-0.673061 0.376208,0 0.493768,0 0.493768,-0.293917 0,-0.16165 -0.158711,-0.16165 -0.20574,-0.16165 -0.40853,0 -1.463681,0.047 -1.872218,0.047 -0.423231,0 -1.46662,-0.047 -1.889861,-0.047 -0.11757,0 -0.27921,0 -0.27921,0.29391 0,0.161657 0.13225,0.161657 0.414409,0.161657 0.0265,0 0.305671,0 0.555501,0.0265 0.26158,0.0323 0.39384,0.047 0.39384,0.23513 0,0.0911 -0.16165,0.70245 -0.24688,1.040461 l -0.32625,1.287341 c -0.12932,0.573129 -0.83177,3.338859 -0.89055,3.618079 -0.10287,0.40854 -0.10287,0.628981 -0.10287,0.849421 0,1.786988 1.33142,2.809819 2.87152,2.809819 1.8399,0 3.65922,-1.651801 4.14124,-3.58576 z"
       style="font-style:normal;font-variant:normal;font-weight:normal;font-stretch:normal;letter-spacing:normal;word-spacing:normal;text-anchor:start;fill:#118600;fill-opacity:1;fill-rule:evenodd;stroke:#000000;stroke-width:0;stroke-linecap:butt;stroke-linejoin:miter;stroke-miterlimit:10.43299961;stroke-dasharray:none;stroke-dashoffset:0;stroke-opacity:1" />
    <path
       inkscape:connector-curvature="0"
       id="path1864-0"
       d="m 73.653267,86.729372 -0.006,0.02061 -0.006,0.02058 -0.006,0.02061 -0.003,0.02061 -0.006,0.02349 -0.006,0.02349 -0.0118,0.0441 -0.0118,0.05 -0.0118,0.047 -0.0118,0.047 -0.006,0.02061 -0.006,0.02349 -0.006,0.02349 -0.006,0.02061 -0.003,0.02061 -0.006,0.02061 -0.006,0.02061 -0.003,0.0176 -0.003,0.0176 -0.006,0.0176 -0.003,0.01471 -0.003,0.01471 -0.003,0.0118 -0.003,0.0118 v 0.0118 l -0.003,0.009 v 0.006 0.006 c 0,0.226309 0.185169,0.32625 0.343879,0.32625 0.188111,0 0.349761,-0.13227 0.39973,-0.22338 0.0558,-0.0941 0.135199,-0.420301 0.1881,-0.634849 0.05,-0.19399 0.16165,-0.667192 0.226309,-0.922901 0.0588,-0.226309 0.11757,-0.44968 0.17341,-0.684821 0.111691,-0.44087 0.111691,-0.458499 0.317431,-0.77887 0.32624,-0.502589 0.84059,-1.084537 1.634149,-1.084537 0.57607,0 0.605462,0.473199 0.605462,0.717147 0,0.614281 -0.440872,1.74879 -0.605462,2.180842 -0.108738,0.288038 -0.149889,0.37915 -0.149889,0.5555 0,0.540798 0.449681,0.875869 0.972839,0.875869 1.022821,0 1.472512,-1.40785 1.472512,-1.566569 0,-0.13226 -0.132271,-0.13226 -0.1646,-0.13226 -0.141081,0 -0.149892,0.0588 -0.19104,0.173408 -0.23513,0.820021 -0.675992,1.240322 -1.084532,1.240322 -0.214559,0 -0.258649,-0.141081 -0.258649,-0.358582 0,-0.232188 0.0529,-0.36739 0.23513,-0.828839 0.123449,-0.31742 0.54374,-1.401969 0.54374,-1.975099 0,-0.164592 0,-0.596651 -0.379151,-0.890561 -0.17341,-0.135199 -0.473199,-0.27628 -0.95522,-0.27628 -0.916998,0 -1.48132,0.60253 -1.807548,1.031639 -0.0823,-0.869989 -0.814142,-1.031639 -1.331431,-1.031639 -0.8494,0 -1.42548,0.517289 -1.731151,0.928769 -0.0735,-0.705389 -0.675999,-0.928769 -1.09923,-0.928769 -0.44087,0 -0.675999,0.317431 -0.808259,0.549621 -0.22338,0.379148 -0.36739,0.966978 -0.36739,1.01694 0,0.13227 0.14401,0.13227 0.17341,0.13227 0.14401,0 0.152829,-0.0323 0.226309,-0.30861 0.152831,-0.60547 0.349761,-1.105119 0.74948,-1.105119 0.264512,0 0.33505,0.223369 0.33505,0.499649 0,0.196919 -0.0911,0.57313 -0.16459,0.849408 -0.0705,0.27922 -0.17046,0.699521 -0.2263,0.922901 l -0.326269,1.31381 c -0.0412,0.12932 -0.0999,0.385022 -0.0999,0.417351 0,0.226319 0.182232,0.32625 0.346821,0.32625 0.185169,0 0.346819,-0.13226 0.399719,-0.22338 0.0529,-0.0941 0.1352,-0.420291 0.185172,-0.634852 0.05,-0.193979 0.16165,-0.667189 0.223369,-0.922888 0.0617,-0.226322 0.126389,-0.449691 0.17635,-0.684821 0.108749,-0.42324 0.13226,-0.49966 0.42617,-0.92289 0.29097,-0.408541 0.77299,-0.94053 1.5401,-0.94053 0.590769,0 0.59959,0.523171 0.59959,0.71715 0,0.255709 -0.0265,0.387969 -0.17341,0.964041 z"
       style="font-style:normal;font-variant:normal;font-weight:normal;font-stretch:normal;letter-spacing:normal;word-spacing:normal;text-anchor:start;fill:#118600;fill-opacity:1;fill-rule:evenodd;stroke:#000000;stroke-width:0;stroke-linecap:butt;stroke-linejoin:miter;stroke-miterlimit:10.43299961;stroke-dasharray:none;stroke-dashoffset:0;stroke-opacity:1" />
    <path
       inkscape:connector-curvature="0"
       id="path1866-2"
       d="m 85.195218,88.886703 v -0.006 -0.009 -0.003 -0.006 l -0.003,-0.003 v -0.006 l -0.003,-0.003 v -0.006 l -0.003,-0.006 -0.003,-0.006 -0.003,-0.006 -0.006,-0.009 -0.003,-0.006 -0.006,-0.009 -0.006,-0.009 -0.009,-0.009 -0.006,-0.009 -0.009,-0.0118 -0.006,-0.006 -0.006,-0.006 -0.003,-0.006 -0.006,-0.006 -0.006,-0.006 -0.006,-0.009 -0.006,-0.006 -0.006,-0.006 -0.009,-0.009 -0.006,-0.006 -0.006,-0.009 -0.009,-0.009 -0.009,-0.009 -0.006,-0.009 -0.009,-0.009 -0.009,-0.009 -0.009,-0.009 -0.0118,-0.009 -0.009,-0.0118 -0.009,-0.009 -0.0118,-0.0118 -0.009,-0.009 -0.0118,-0.0118 -0.0118,-0.0118 c -1.82811,-1.84577 -2.29543,-4.61151 -2.29543,-6.851128 0,-2.548242 0.55548,-5.099421 2.354231,-6.92463 0.1881,-0.179282 0.1881,-0.208672 0.1881,-0.252762 0,-0.10287 -0.0529,-0.144021 -0.141071,-0.144021 -0.14696,0 -1.46663,0.993431 -2.32779,2.85097 -0.74948,1.613591 -0.922888,3.238942 -0.922888,4.470443 0,1.143317 0.158718,2.90975 0.964038,4.56742 0.875861,1.801698 2.13968,2.751039 2.28664,2.751039 0.0882,0 0.141071,-0.0411 0.141071,-0.14696 z"
       style="font-style:normal;font-variant:normal;font-weight:normal;font-stretch:normal;letter-spacing:normal;word-spacing:normal;text-anchor:start;fill:#118600;fill-opacity:1;fill-rule:evenodd;stroke:#000000;stroke-width:0;stroke-linecap:butt;stroke-linejoin:miter;stroke-miterlimit:10.43299961;stroke-dasharray:none;stroke-dashoffset:0;stroke-opacity:1" />
    <path
       inkscape:connector-curvature="0"
       id="path1868-3"
       d="m 86.685359,87.161421 -0.0118,0.0441 -0.009,0.0441 -0.009,0.0411 -0.0118,0.0382 -0.009,0.0382 -0.0118,0.0323 -0.009,0.0353 -0.0118,0.0294 -0.009,0.0294 -0.0118,0.0265 -0.01471,0.02641 -0.0118,0.02349 -0.01471,0.02061 -0.01471,0.02061 -0.0176,0.02058 -0.0176,0.0176 -0.02061,0.01471 -0.02349,0.01471 -0.02349,0.0118 -0.0235,0.0118 -0.0294,0.0118 -0.0294,0.009 -0.0323,0.009 -0.0323,0.006 -0.0382,0.006 -0.02061,0.003 -0.02061,0.003 -0.02061,0.003 -0.02061,0.003 h -0.02349 l -0.02349,0.003 h -0.02349 l -0.0235,0.003 h -0.0265 -0.0265 -0.0265 -0.0294 l -0.0294,0.003 h -0.0294 c -0.173411,0 -0.33506,0 -0.33506,0.273341 0,0.12051 0.0735,0.17929 0.1881,0.17929 0.39973,0 0.82296,-0.0441 1.2315,-0.0441 0.48201,0 0.981671,0.0441 1.45193,0.0441 0.0735,0 0.261581,0 0.261581,-0.29391 0,-0.158721 -0.146952,-0.158721 -0.34975,-0.158721 -0.734791,0 -0.734791,-0.105809 -0.734791,-0.23513 0,-0.179289 0.614278,-2.562928 0.72009,-2.930318 0.188101,0.42323 0.596649,0.93758 1.346118,0.93758 l -0.01471,-0.3233 c -0.96697,0 -1.155081,-1.216811 -1.155081,-1.302041 0,-0.0294 0,-0.0617 0.0411,-0.23513 l 0.72009,-2.871549 c 0.0999,-0.39384 0.49671,-0.802381 0.758299,-1.022821 0.51435,-0.45557 0.940511,-0.555501 1.187399,-0.555501 0.584891,0 0.937591,0.508482 0.937591,1.378461 0,0.861171 -0.482021,2.54236 -0.746548,3.10374 -0.496711,1.022821 -1.199161,1.504841 -1.742901,1.504841 l 0.01471,0.3233 c 1.698808,0 3.526949,-2.136751 3.526949,-4.29114 0,-1.375521 -0.831781,-2.339562 -1.945701,-2.339562 -0.73184,0 -1.434298,0.523161 -1.916308,1.096301 -0.14696,-0.79063 -0.775931,-1.096301 -1.316731,-1.096301 -0.675989,0 -0.955209,0.567251 -1.08453,0.828842 -0.26747,0.502589 -0.45558,1.37845 -0.45558,1.42548 0,0.14696 0.14696,0.14696 0.17341,0.14696 0.14696,0 0.161661,-0.02061 0.24983,-0.34094 0.252759,-1.037521 0.540801,-1.739982 1.06984,-1.739982 0.246891,0 0.455571,0.114631 0.455571,0.670132 0,0.340939 -0.047,0.499649 -0.10287,0.74948 z"
       style="font-style:normal;font-variant:normal;font-weight:normal;font-stretch:normal;letter-spacing:normal;word-spacing:normal;text-anchor:start;fill:#118600;fill-opacity:1;fill-rule:evenodd;stroke:#000000;stroke-width:0;stroke-linecap:butt;stroke-linejoin:miter;stroke-miterlimit:10.43299961;stroke-dasharray:none;stroke-dashoffset:0;stroke-opacity:1" />
    <path
       inkscape:connector-curvature="0"
       id="path1870-7"
       d="m 97.627719,81.715192 v -0.108751 -0.11462 l -0.003,-0.114628 -0.003,-0.120502 -0.0118,-0.246888 -0.0176,-0.258652 -0.0265,-0.270399 -0.0294,-0.27922 -0.0412,-0.285091 -0.047,-0.29686 -0.0588,-0.299788 -0.0676,-0.302731 -0.0764,-0.30861 -0.0911,-0.31155 -0.10287,-0.314492 -0.114631,-0.314489 -0.0647,-0.15577 -0.0647,-0.155779 -0.0705,-0.155771 -0.0735,-0.155779 c -0.87588,-1.798751 -2.13383,-2.751031 -2.280791,-2.751031 -0.0882,0 -0.146949,0.0558 -0.146949,0.14402 0,0.0441 0,0.0735 0.273341,0.338 1.440169,1.446059 2.274879,3.7768 2.274879,6.839381 0,2.50121 -0.5408,5.078839 -2.36012,6.92462 -0.1881,0.17341 -0.1881,0.20574 -0.1881,0.246891 0,0.0882 0.0588,0.14696 0.146949,0.14696 0.146961,0 1.45781,-0.996371 2.327799,-2.853913 0.743591,-1.607708 0.917012,-3.23306 0.917012,-4.464558 z"
       style="font-style:normal;font-variant:normal;font-weight:normal;font-stretch:normal;letter-spacing:normal;word-spacing:normal;text-anchor:start;fill:#118600;fill-opacity:1;fill-rule:evenodd;stroke:#000000;stroke-width:0;stroke-linecap:butt;stroke-linejoin:miter;stroke-miterlimit:10.43299961;stroke-dasharray:none;stroke-dashoffset:0;stroke-opacity:1" />
    <path
       inkscape:connector-curvature="0"
       id="path1872-5"
       d="m 113.23155,80.583622 h 0.0411 0.0411 0.0411 l 0.0235,-0.003 h 0.0206 l 0.0206,-0.003 0.0206,-0.003 0.0206,-0.003 0.0206,-0.003 0.0206,-0.003 0.0206,-0.006 0.0176,-0.006 0.0176,-0.006 0.0206,-0.006 0.0147,-0.009 0.0176,-0.009 0.0147,-0.0118 0.0147,-0.009 0.0147,-0.01471 0.0118,-0.0118 0.0118,-0.01471 0.006,-0.009 0.006,-0.009 0.003,-0.006 0.006,-0.009 0.003,-0.009 0.006,-0.0118 0.003,-0.009 0.003,-0.0118 0.003,-0.009 0.003,-0.0118 0.003,-0.0118 v -0.0118 l 0.003,-0.0118 v -0.0118 -0.0118 -0.01471 c 0,-0.293912 -0.27921,-0.293912 -0.48202,-0.293912 h -8.77035 c -0.20573,0 -0.48202,0 -0.48202,0.293912 0,0.288039 0.27629,0.288039 0.49672,0.288039 z"
       style="font-style:normal;font-variant:normal;font-weight:normal;font-stretch:normal;letter-spacing:normal;word-spacing:normal;text-anchor:start;fill:#000000;fill-opacity:1;fill-rule:evenodd;stroke:#000000;stroke-width:0;stroke-linecap:butt;stroke-linejoin:miter;stroke-miterlimit:10.43299961;stroke-dasharray:none;stroke-dashoffset:0;stroke-opacity:1" />
    <path
       inkscape:connector-curvature="0"
       id="path1874-9"
       d="m 113.2433,83.428711 h 0.0206 0.0176 l 0.0411,-0.003 h 0.0412 0.0206 l 0.0206,-0.003 0.0206,-0.003 h 0.0206 l 0.0206,-0.003 0.0176,-0.006 0.0206,-0.003 0.0206,-0.006 0.0176,-0.006 0.0176,-0.006 0.0176,-0.006 0.0176,-0.009 0.0147,-0.009 0.0176,-0.0118 0.0118,-0.0118 0.0147,-0.0118 0.0118,-0.01471 0.006,-0.006 0.006,-0.009 0.006,-0.006 0.006,-0.009 0.006,-0.009 0.003,-0.009 0.003,-0.009 0.006,-0.009 0.003,-0.0118 0.003,-0.009 0.003,-0.0118 0.003,-0.0118 0.003,-0.0118 v -0.0118 l 0.003,-0.0118 v -0.0118 -0.01471 -0.0118 c 0,-0.29391 -0.27921,-0.29391 -0.49376,-0.29391 h -8.74391 c -0.22043,0 -0.49672,0 -0.49672,0.29391 0,0.29392 0.27629,0.29392 0.48202,0.29392 z"
       style="font-style:normal;font-variant:normal;font-weight:normal;font-stretch:normal;letter-spacing:normal;word-spacing:normal;text-anchor:start;fill:#000000;fill-opacity:1;fill-rule:evenodd;stroke:#000000;stroke-width:0;stroke-linecap:butt;stroke-linejoin:miter;stroke-miterlimit:10.43299961;stroke-dasharray:none;stroke-dashoffset:0;stroke-opacity:1" />
    <path
       inkscape:connector-curvature="0"
       id="path1876-2"
       d="m 123.45971,88.886703 v -0.006 -0.009 -0.003 -0.006 -0.003 l -0.003,-0.006 v -0.003 l -0.003,-0.006 -0.003,-0.006 -0.003,-0.006 -0.003,-0.006 -0.006,-0.009 -0.003,-0.006 -0.006,-0.009 -0.006,-0.009 -0.009,-0.009 -0.006,-0.009 -0.009,-0.0118 -0.006,-0.006 -0.003,-0.006 -0.006,-0.006 -0.006,-0.006 -0.006,-0.006 -0.006,-0.009 -0.006,-0.006 -0.006,-0.006 -0.006,-0.009 -0.009,-0.006 -0.006,-0.009 -0.009,-0.009 -0.009,-0.009 -0.006,-0.009 -0.009,-0.009 -0.009,-0.009 -0.009,-0.009 -0.009,-0.009 -0.0118,-0.0118 -0.009,-0.009 -0.0118,-0.0118 -0.009,-0.009 -0.0118,-0.0118 -0.0118,-0.0118 c -1.82817,-1.84577 -2.29549,-4.61151 -2.29549,-6.851128 0,-2.548242 0.55549,-5.099421 2.35424,-6.92463 0.18811,-0.179282 0.18811,-0.208672 0.18811,-0.252762 0,-0.10287 -0.0529,-0.144021 -0.14108,-0.144021 -0.14696,0 -1.46664,0.993431 -2.32779,2.85097 -0.74949,1.613591 -0.92289,3.238942 -0.92289,4.470443 0,1.143317 0.15871,2.90975 0.96403,4.56742 0.87586,1.801698 2.13969,2.751039 2.28665,2.751039 0.0882,0 0.14108,-0.0411 0.14108,-0.14696 z"
       style="font-style:normal;font-variant:normal;font-weight:normal;font-stretch:normal;letter-spacing:normal;word-spacing:normal;text-anchor:start;fill:#000000;fill-opacity:1;fill-rule:evenodd;stroke:#000000;stroke-width:0;stroke-linecap:butt;stroke-linejoin:miter;stroke-miterlimit:10.43299961;stroke-dasharray:none;stroke-dashoffset:0;stroke-opacity:1" />
    <path
       inkscape:connector-curvature="0"
       id="path1878-2"
       d="m 131.895,80.395522 0.13814,-0.0323 0.14107,-0.0353 0.14108,-0.0412 0.14108,-0.0441 0.14108,-0.047 0.14108,-0.0529 0.14108,-0.0558 0.14107,-0.0588 0.13814,-0.0647 0.13815,-0.0676 0.13226,-0.0705 0.13225,-0.0735 0.12932,-0.0794 0.12639,-0.0823 0.12344,-0.0852 0.11756,-0.0882 0.11463,-0.0911 0.10875,-0.0941 0.10287,-0.0999 0.0999,-0.10287 0.094,-0.10287 0.0852,-0.108749 0.0823,-0.111691 0.0735,-0.114628 0.0647,-0.117563 0.0588,-0.12051 0.05,-0.123438 0.0412,-0.126381 0.0353,-0.129328 0.0235,-0.13226 0.0147,-0.135202 0.006,-0.138139 c 0,-1.257951 -1.31968,-2.195539 -3.23305,-2.195539 h -4.17355 c -0.29392,0 -0.42912,0 -0.42912,0.293917 0,0.16165 0.1352,0.16165 0.41441,0.16165 0.0265,0 0.30861,0 0.5555,0.02641 0.26158,0.0323 0.39384,0.047 0.39384,0.235129 0,0.0588 -0.0118,0.105813 -0.0588,0.279221 l -1.9604,7.86221 c -0.14694,0.57313 -0.17635,0.68776 -1.33142,0.68776 -0.26746,0 -0.39678,0 -0.39678,0.29391 0,0.16165 0.17635,0.16165 0.2028,0.16165 0.41442,0 1.43723,-0.047 1.84577,-0.047 0.40854,0 1.45193,0.047 1.86047,0.047 0.1205,0 0.29391,0 0.29391,-0.29391 0,-0.16165 -0.13226,-0.16165 -0.40854,-0.16165 -0.54079,0 -0.95521,0 -0.95521,-0.261588 0,-0.0852 0.0323,-0.15871 0.047,-0.246891 l 0.96402,-3.879659 h 1.74291 l -0.0118,-0.326253 h -1.64591 l 0.95522,-3.820887 c 0.0882,-0.34975 0.12932,-0.49671 0.40854,-0.54374 0.13519,-0.0118 0.60252,-0.0118 0.89349,-0.0118 1.04045,0 2.66578,0 2.66578,1.448998 0,0.496721 -0.23219,1.507781 -0.80825,2.077982 -0.37621,0.37914 -1.15213,0.849408 -2.46887,0.849408 l 0.0118,0.326242 c 1.33436,0 1.59594,0.817078 1.59594,1.331428 0,0.22044 -0.11463,0.670131 -0.2028,1.011071 -0.10581,0.40854 -0.23513,0.949341 -0.23513,1.243261 0,1.578319 1.75467,1.578319 1.94864,1.578319 1.24326,0 1.75467,-1.478391 1.75467,-1.684131 0,-0.173408 -0.16165,-0.173408 -0.17635,-0.173408 -0.13226,0 -0.15871,0.105809 -0.18811,0.20574 -0.36739,1.084538 -0.99636,1.331428 -1.33731,1.331428 -0.482,0 -0.58194,-0.320368 -0.58194,-0.89644 0,-0.449688 0.0882,-1.196229 0.14696,-1.666489 0.0265,-0.20574 0.0588,-0.48202 0.0588,-0.68776 0,-1.125691 -0.98166,-1.581261 -1.3755,-1.728221 z"
       style="font-style:normal;font-variant:normal;font-weight:normal;font-stretch:normal;letter-spacing:normal;word-spacing:normal;text-anchor:start;fill:#000000;fill-opacity:1;fill-rule:evenodd;stroke:#000000;stroke-width:0;stroke-linecap:butt;stroke-linejoin:miter;stroke-miterlimit:10.43299961;stroke-dasharray:none;stroke-dashoffset:0;stroke-opacity:1" />
    <path
       inkscape:connector-curvature="0"
       id="path1880-8"
       d="m 144.77718,82.009113 h 4.08542 c 0.2028,0 0.48496,0 0.48496,-0.293921 0,-0.293909 -0.28216,-0.293909 -0.48496,-0.293909 h -4.08542 v -4.103042 c 0,-0.199869 0,-0.482021 -0.29391,-0.482021 -0.29097,0 -0.29097,0.282152 -0.29097,0.482021 v 4.103042 h -4.10008 c -0.20574,0 -0.48201,0 -0.48201,0.293909 0,0.293921 0.27627,0.293921 0.48201,0.293921 h 4.10008 v 4.097157 c 0,0.20574 0,0.48496 0.29097,0.48496 0.29391,0 0.29391,-0.27922 0.29391,-0.48496 z"
       style="font-style:normal;font-variant:normal;font-weight:normal;font-stretch:normal;letter-spacing:normal;word-spacing:normal;text-anchor:start;fill:#000000;fill-opacity:1;fill-rule:evenodd;stroke:#000000;stroke-width:0;stroke-linecap:butt;stroke-linejoin:miter;stroke-miterlimit:10.43299961;stroke-dasharray:none;stroke-dashoffset:0;stroke-opacity:1" />
    <path
       inkscape:connector-curvature="0"
       id="path1882-9"
       d="m 158.90272,76.515852 0.0118,-0.047 0.0118,-0.047 0.0118,-0.0441 0.0118,-0.0441 0.0118,-0.0382 0.0147,-0.0382 0.0147,-0.0382 0.0147,-0.0323 0.0176,-0.0353 0.0176,-0.0294 0.0235,-0.0294 0.0235,-0.0265 0.0265,-0.0264 0.0294,-0.0235 0.0323,-0.02349 0.0353,-0.02061 0.0382,-0.0176 0.0441,-0.0176 0.047,-0.01759 0.0529,-0.01471 0.0265,-0.006 0.0294,-0.006 0.0294,-0.006 0.0323,-0.006 0.0323,-0.006 0.0323,-0.006 0.0353,-0.006 0.0382,-0.003 0.0382,-0.003 0.0412,-0.006 0.0412,-0.003 0.0411,-0.003 0.0441,-0.003 0.047,-0.003 0.047,-0.003 0.05,-0.003 h 0.05 l 0.0529,-0.003 h 0.0529 l 0.0558,-0.003 h 0.0588 0.0588 0.0617 0.0647 c 0.43793,0 0.55551,0 0.55551,-0.28216 0,-0.173411 -0.16167,-0.173411 -0.23515,-0.173411 -0.48494,0 -1.68413,0.047 -2.16614,0.047 -0.44088,0 -1.51072,-0.047 -1.94867,-0.047 -0.10287,0 -0.27921,0 -0.27921,0.293921 0,0.16165 0.13226,0.16165 0.40855,0.16165 0.0323,0 0.30861,0 0.56136,0.0265 0.2616,0.0323 0.39386,0.047 0.39386,0.235129 0,0.0588 -0.0176,0.105813 -0.0588,0.279221 l -1.9604,7.86221 c -0.14696,0.57313 -0.17929,0.68776 -1.33731,0.68776 -0.24689,0 -0.39385,0 -0.39385,0.29391 0,0.16165 0.13226,0.16165 0.39385,0.16165 h 6.78355 c 0.34976,0 0.36151,0 0.45557,-0.246888 l 1.15214,-3.165451 c 0.0588,-0.16165 0.0588,-0.188111 0.0588,-0.20574 0,-0.0558 -0.0411,-0.16165 -0.17341,-0.16165 -0.1352,0 -0.14695,0.0735 -0.24982,0.30861 -0.49966,1.34906 -1.14333,3.015559 -3.67688,3.015559 h -1.37258 c -0.20868,0 -0.23513,0 -0.32331,-0.0118 -0.14695,-0.01471 -0.19104,-0.0294 -0.19104,-0.14696 0,-0.0411 0,-0.0735 0.0735,-0.335058 z"
       style="font-style:normal;font-variant:normal;font-weight:normal;font-stretch:normal;letter-spacing:normal;word-spacing:normal;text-anchor:start;fill:#000000;fill-opacity:1;fill-rule:evenodd;stroke:#000000;stroke-width:0;stroke-linecap:butt;stroke-linejoin:miter;stroke-miterlimit:10.43299961;stroke-dasharray:none;stroke-dashoffset:0;stroke-opacity:1" />
    <path
       inkscape:connector-curvature="0"
       id="path1884-7"
       d="m 169.46012,81.715192 -0.003,-0.0412 -0.003,-0.0382 -0.003,-0.0382 -0.009,-0.0382 -0.009,-0.0382 -0.009,-0.0382 -0.0118,-0.0353 -0.0147,-0.0353 -0.0147,-0.0323 -0.0176,-0.0353 -0.0206,-0.0323 -0.0176,-0.0323 -0.0235,-0.0294 -0.0235,-0.0294 -0.0235,-0.0294 -0.0265,-0.0265 -0.0265,-0.02349 -0.0265,-0.0265 -0.0294,-0.0235 -0.0323,-0.02061 -0.0323,-0.02061 -0.0323,-0.0176 -0.0323,-0.0176 -0.0353,-0.01471 -0.0353,-0.01471 -0.0353,-0.0118 -0.0353,-0.0118 -0.0382,-0.009 -0.0382,-0.006 -0.0382,-0.006 -0.0411,-0.003 h -0.0382 c -0.42324,0 -0.77594,0.346818 -0.77594,0.775928 0,0.42324 0.3527,0.77594 0.77594,0.77594 0.42616,0 0.77592,-0.3527 0.77592,-0.77594 z"
       style="font-style:normal;font-variant:normal;font-weight:normal;font-stretch:normal;letter-spacing:normal;word-spacing:normal;text-anchor:start;fill:#000000;fill-opacity:1;fill-rule:evenodd;stroke:#000000;stroke-width:0;stroke-linecap:butt;stroke-linejoin:miter;stroke-miterlimit:10.43299961;stroke-dasharray:none;stroke-dashoffset:0;stroke-opacity:1" />
    <path
       inkscape:connector-curvature="0"
       id="path1886-3"
       d="m 174.64183,87.161421 -0.0118,0.0441 -0.009,0.0441 -0.0118,0.0411 -0.009,0.0382 -0.009,0.0382 -0.0118,0.0323 -0.009,0.0353 -0.0118,0.0294 -0.0118,0.0294 -0.0118,0.0265 -0.0118,0.02641 -0.0118,0.02349 -0.0147,0.02061 -0.0176,0.02061 -0.0147,0.02058 -0.0206,0.0176 -0.0176,0.01471 -0.0235,0.01471 -0.0235,0.0118 -0.0235,0.0118 -0.0294,0.0118 -0.0294,0.009 -0.0323,0.009 -0.0353,0.006 -0.0353,0.006 -0.0206,0.003 -0.0206,0.003 -0.0206,0.003 -0.0206,0.003 h -0.0235 l -0.0235,0.003 h -0.0235 l -0.0235,0.003 h -0.0265 -0.0265 -0.0265 -0.0294 l -0.0294,0.003 h -0.0294 c -0.17341,0 -0.33506,0 -0.33506,0.273341 0,0.12051 0.0735,0.17929 0.1881,0.17929 0.39973,0 0.82295,-0.0441 1.2315,-0.0441 0.48202,0 0.98168,0.0441 1.45194,0.0441 0.0735,0 0.25865,0 0.25865,-0.29391 0,-0.158721 -0.14696,-0.158721 -0.34682,-0.158721 -0.73479,0 -0.73479,-0.105809 -0.73479,-0.23513 0,-0.179289 0.61428,-2.562928 0.72009,-2.930318 0.18811,0.42323 0.59665,0.93758 1.34613,0.93758 l -0.0147,-0.3233 c -0.96991,0 -1.15508,-1.216811 -1.15508,-1.302041 0,-0.0294 0,-0.0617 0.0382,-0.23513 l 0.72303,-2.871549 c 0.0999,-0.39384 0.49671,-0.802381 0.7583,-1.022821 0.51435,-0.45557 0.94052,-0.555501 1.18741,-0.555501 0.58489,0 0.93759,0.508482 0.93759,1.378461 0,0.861171 -0.48202,2.54236 -0.74948,3.10374 -0.49378,1.022821 -1.19624,1.504841 -1.73998,1.504841 l 0.0147,0.3233 c 1.69882,0 3.52697,-2.136751 3.52697,-4.29114 0,-1.375521 -0.83178,-2.339562 -1.94865,-2.339562 -0.72891,0 -1.43136,0.523161 -1.91338,1.096301 -0.14696,-0.79063 -0.77594,-1.096301 -1.31968,-1.096301 -0.67306,0 -0.95522,0.567251 -1.0816,0.828842 -0.26748,0.502589 -0.45558,1.37845 -0.45558,1.42548 0,0.14696 0.14696,0.14696 0.17341,0.14696 0.14697,0 0.16166,-0.02061 0.24984,-0.34094 0.25276,-1.037521 0.5408,-1.739982 1.06984,-1.739982 0.24689,0 0.45557,0.114631 0.45557,0.670132 0,0.340939 -0.047,0.499649 -0.10287,0.74948 z"
       style="font-style:normal;font-variant:normal;font-weight:normal;font-stretch:normal;letter-spacing:normal;word-spacing:normal;text-anchor:start;fill:#000000;fill-opacity:1;fill-rule:evenodd;stroke:#000000;stroke-width:0;stroke-linecap:butt;stroke-linejoin:miter;stroke-miterlimit:10.43299961;stroke-dasharray:none;stroke-dashoffset:0;stroke-opacity:1" />
    <path
       inkscape:connector-curvature="0"
       id="path1888-6"
       d="m 185.58426,81.715192 v -0.108751 l -0.003,-0.11462 v -0.114628 l -0.006,-0.120502 -0.0118,-0.246888 -0.0176,-0.258652 -0.0235,-0.270399 -0.0323,-0.27922 -0.0382,-0.285091 -0.047,-0.29686 -0.0588,-0.299788 -0.0676,-0.302731 -0.0794,-0.30861 -0.0882,-0.31155 -0.10287,-0.314492 -0.11463,-0.314489 -0.0647,-0.15577 -0.0647,-0.155779 -0.0705,-0.155771 -0.0735,-0.155779 c -0.87587,-1.798751 -2.13383,-2.751031 -2.28078,-2.751031 -0.0882,0 -0.14696,0.0558 -0.14696,0.14402 0,0.0441 0,0.0735 0.27334,0.338 1.43724,1.446059 2.27489,3.7768 2.27489,6.839381 0,2.50121 -0.54374,5.078839 -2.36307,6.92462 -0.18516,0.17341 -0.18516,0.20574 -0.18516,0.246891 0,0.0882 0.0588,0.14696 0.14696,0.14696 0.14695,0 1.45781,-0.996371 2.3278,-2.853913 0.74359,-1.607708 0.917,-3.23306 0.917,-4.464558 z"
       style="font-style:normal;font-variant:normal;font-weight:normal;font-stretch:normal;letter-spacing:normal;word-spacing:normal;text-anchor:start;fill:#0f0000;fill-opacity:1;fill-rule:evenodd;stroke:#000000;stroke-width:0;stroke-linecap:butt;stroke-linejoin:miter;stroke-miterlimit:10.43299961;stroke-dasharray:none;stroke-dashoffset:0;stroke-opacity:1" />
    <path
       inkscape:connector-curvature="0"
       id="path1890-1"
       d="m 193.0879,81.715192 v -0.0412 l -0.003,-0.0382 -0.006,-0.0382 -0.006,-0.0382 -0.009,-0.0382 -0.0118,-0.0382 -0.0118,-0.0353 -0.0147,-0.0353 -0.0147,-0.0323 -0.0176,-0.0353 -0.0176,-0.0323 -0.0206,-0.0323 -0.0206,-0.0294 -0.0235,-0.0294 -0.0265,-0.0294 -0.0235,-0.0265 -0.0265,-0.02349 -0.0294,-0.0265 -0.0294,-0.0235 -0.0294,-0.02061 -0.0323,-0.02061 -0.0323,-0.0176 -0.0353,-0.0176 -0.0323,-0.01471 -0.0353,-0.01471 -0.0353,-0.0118 -0.0382,-0.0118 -0.0382,-0.009 -0.0382,-0.006 -0.0382,-0.006 -0.0382,-0.003 h -0.0411 c -0.4203,0 -0.77594,0.346818 -0.77594,0.775928 0,0.42324 0.35564,0.77594 0.77594,0.77594 0.42616,0 0.77592,-0.3527 0.77592,-0.77594 z"
       style="font-style:normal;font-variant:normal;font-weight:normal;font-stretch:normal;letter-spacing:normal;word-spacing:normal;text-anchor:start;fill:#0f0000;fill-opacity:1;fill-rule:evenodd;stroke:#000000;stroke-width:0;stroke-linecap:butt;stroke-linejoin:miter;stroke-miterlimit:10.43299961;stroke-dasharray:none;stroke-dashoffset:0;stroke-opacity:1" />
    <path
       inkscape:connector-curvature="0"
       id="path1900-9"
       d="m 330.02475,82.009113 h 4.08543 c 0.20574,0 0.49964,0 0.49964,-0.293921 0,-0.293909 -0.2939,-0.293909 -0.49964,-0.293909 h -4.08543 v -4.103042 c 0,-0.199869 0,-0.482021 -0.2939,-0.482021 -0.29393,0 -0.29393,0.282152 -0.29393,0.482021 v 4.103042 h -4.0854 c -0.20574,0 -0.49967,0 -0.49967,0.293909 0,0.293921 0.29393,0.293921 0.49967,0.293921 h 4.0854 v 4.097157 c 0,0.20574 0,0.48496 0.29393,0.48496 0.2939,0 0.2939,-0.27922 0.2939,-0.48496 z"
       style="font-style:normal;font-variant:normal;font-weight:normal;font-stretch:normal;letter-spacing:normal;word-spacing:normal;text-anchor:start;fill:#0f0000;fill-opacity:1;fill-rule:evenodd;stroke:#000000;stroke-width:0;stroke-linecap:butt;stroke-linejoin:miter;stroke-miterlimit:10.43299961;stroke-dasharray:none;stroke-dashoffset:0;stroke-opacity:1" />
    <path
       inkscape:connector-curvature="0"
       style="font-style:normal;font-variant:normal;font-weight:normal;font-stretch:normal;letter-spacing:normal;word-spacing:normal;text-anchor:start;fill:#000000;fill-opacity:1;fill-rule:evenodd;stroke:#000000;stroke-width:0;stroke-linecap:butt;stroke-linejoin:miter;stroke-miterlimit:10.43299961;stroke-dasharray:none;stroke-dashoffset:0;stroke-opacity:1"
       d="m 350.08381,79.582601 v -0.006 l -0.003,-0.006 v -0.003 l -0.003,-0.006 -0.003,-0.006 -0.003,-0.006 v -0.009 l -0.003,-0.006 -0.003,-0.006 -0.003,-0.006 -0.003,-0.009 -0.003,-0.006 -0.009,-0.01471 -0.006,-0.0176 -0.006,-0.01471 -0.006,-0.01471 -0.003,-0.006 -0.003,-0.009 v -0.006 l -0.003,-0.006 -0.003,-0.009 -0.003,-0.006 v -0.006 l -0.003,-0.006 v -0.006 -0.006 -0.003 l -0.003,-0.006 c 0,-0.0118 0.26453,-0.22043 0.4291,-0.335061 l 2.56296,-1.978041 c 1.37258,-1.011068 1.9457,-1.066908 2.38363,-1.110998 0.11756,-0.01471 0.26451,-0.0294 0.26451,-0.29391 0,-0.0558 -0.0441,-0.16165 -0.1587,-0.16165 -0.32623,0 -0.69069,0.047 -1.04341,0.047 -0.52903,0 -1.09627,-0.047 -1.62534,-0.047 -0.10287,0 -0.27627,0 -0.27627,0.29391 0,0.0999 0.0735,0.14696 0.1734,0.16165 0.32333,0.02641 0.45559,0.0999 0.45559,0.30567 0,0.261588 -0.44087,0.602528 -0.52906,0.676008 l -5.71058,4.39108 1.17565,-4.69969 c 0.12639,-0.526108 0.15872,-0.673058 1.22563,-0.673058 0.3674,0 0.49966,0 0.49966,-0.29392 0,-0.129321 -0.12051,-0.16165 -0.20574,-0.16165 -0.40854,0 -1.46664,0.047 -1.87518,0.047 -0.42029,0 -1.4637,-0.047 -1.88693,-0.047 -0.1058,0 -0.29392,0 -0.29392,0.27922 0,0.17635 0.1352,0.17635 0.42325,0.17635 0.19103,0 0.45556,0.0118 0.62897,0.02641 0.23513,0.0323 0.32626,0.0735 0.32626,0.23513 0,0.0588 -0.0177,0.105812 -0.0588,0.27922 l -1.96334,7.862202 c -0.14695,0.573138 -0.17635,0.687758 -1.33437,0.687758 -0.24982,0 -0.40855,0 -0.40855,0.282162 0,0.173408 0.17341,0.173408 0.22043,0.173408 0.40857,0 1.44901,-0.047 1.86049,-0.047 0.30568,0 0.62603,0.02061 0.93464,0.02061 0.3233,0 0.64368,0.0264 0.95229,0.0264 0.10581,0 0.29393,0 0.29393,-0.293909 0,-0.161661 -0.1352,-0.161661 -0.40857,-0.161661 -0.54372,0 -0.95226,0 -0.95226,-0.261577 0,-0.105813 0.0882,-0.426173 0.1293,-0.64661 0.20574,-0.758301 0.39386,-1.534232 0.58785,-2.295472 l 2.18083,-1.698829 1.69883,3.93846 c 0.17635,0.39678 0.17635,0.423231 0.17635,0.511408 0,0.44087 -0.63193,0.45262 -0.76417,0.45262 -0.16166,0 -0.32036,0 -0.32036,0.293921 0,0.161649 0.17341,0.161649 0.20574,0.161649 0.58489,0 1.19915,-0.047 1.787,-0.047 0.32036,0 1.11098,0.047 1.43428,0.047 0.0735,0 0.26453,0 0.26453,-0.293909 0,-0.161661 -0.1646,-0.161661 -0.2939,-0.161661 -0.60254,-0.0118 -0.79063,-0.146949 -1.01108,-0.655418 z"
       id="path9948-6" />
    <path
       inkscape:connector-curvature="0"
       style="font-style:normal;font-variant:normal;font-weight:normal;font-stretch:normal;letter-spacing:normal;word-spacing:normal;text-anchor:start;fill:#000000;fill-opacity:1;fill-rule:evenodd;stroke:#000000;stroke-width:0;stroke-linecap:butt;stroke-linejoin:miter;stroke-miterlimit:10.43299961;stroke-dasharray:none;stroke-dashoffset:0;stroke-opacity:1"
       d="m 357.38171,85.349202 h 0.0294 0.0294 0.0353 0.0353 l 0.0411,-0.003 h 0.0412 l 0.0441,-0.003 h 0.0441 l 0.047,-0.003 0.05,-0.003 0.0529,-0.003 0.0529,-0.003 0.0529,-0.003 0.0558,-0.006 0.11168,-0.009 0.11758,-0.0118 0.11756,-0.01471 0.12049,-0.0176 0.11758,-0.02061 0.12049,-0.02349 0.0558,-0.01471 0.0588,-0.0118 0.0558,-0.01471 0.0558,-0.0176 0.0529,-0.01471 0.0529,-0.0176 c 0.75832,-0.267462 0.89937,-0.758301 0.89937,-1.066911 0,-0.564311 -0.5643,-0.899369 -1.26968,-0.899369 v 0.285089 c 0.44966,0 0.82883,0.223379 0.82883,0.61428 0,0.993431 -1.72823,0.993431 -2.16908,0.993431 h -0.5026 c 0.41735,-1.484262 1.55773,-1.607711 1.84285,-1.607711 v -0.285089 c -1.22857,0 -2.8892,0.94052 -2.8892,2.692249 0,1.03164 0.64662,1.922201 1.84579,1.922201 1.73114,0 2.53941,-1.011071 2.53941,-1.158021 0,-0.0588 -0.0911,-0.17341 -0.1734,-0.17341 -0.0617,0 -0.0823,0.02349 -0.1646,0.105809 -0.79944,0.94052 -1.99861,0.94052 -2.18377,0.94052 -0.61428,0 -1.02282,-0.408538 -1.02282,-1.240319 0,-0.141071 0,-0.346811 0.12343,-0.90819 z"
       id="path9950-3" />
    <path
       inkscape:connector-curvature="0"
       style="font-style:normal;font-variant:normal;font-weight:normal;font-stretch:normal;letter-spacing:normal;word-spacing:normal;text-anchor:start;fill:#000000;fill-opacity:1;fill-rule:evenodd;stroke:#000000;stroke-width:0;stroke-linecap:butt;stroke-linejoin:miter;stroke-miterlimit:10.43299961;stroke-dasharray:none;stroke-dashoffset:0;stroke-opacity:1"
       d="m 367.41886,81.836933 v -0.0412 l -0.003,-0.0382 -0.006,-0.0382 -0.006,-0.0382 -0.009,-0.0382 -0.0116,-0.0382 -0.0119,-0.0353 -0.0148,-0.0353 -0.0145,-0.0323 -0.0177,-0.0353 -0.0177,-0.0323 -0.0206,-0.0323 -0.0206,-0.0294 -0.0236,-0.0294 -0.0265,-0.0294 -0.0236,-0.0265 -0.0294,-0.02349 -0.0265,-0.02641 -0.0294,-0.02349 -0.0294,-0.02061 -0.0323,-0.02061 -0.0323,-0.0176 -0.0353,-0.0176 -0.0323,-0.01471 -0.0353,-0.01471 -0.0382,-0.0118 -0.0353,-0.0118 -0.0382,-0.009 -0.0382,-0.006 -0.0382,-0.006 -0.0382,-0.003 h -0.0411 c -0.42323,0 -0.77592,0.346821 -0.77592,0.775931 0,0.42324 0.35269,0.77593 0.77592,0.77593 0.42619,0 0.77594,-0.35269 0.77594,-0.77593 z"
       id="path9952-2" />
    <path
       inkscape:connector-curvature="0"
       style="font-style:normal;font-variant:normal;font-weight:normal;font-stretch:normal;letter-spacing:normal;word-spacing:normal;text-anchor:start;fill:#118600;fill-opacity:1;fill-rule:evenodd;stroke:#000000;stroke-width:0;stroke-linecap:butt;stroke-linejoin:miter;stroke-miterlimit:10.43299961;stroke-dasharray:none;stroke-dashoffset:0;stroke-opacity:1"
       d="m 381.85887,83.121331 h -0.36737 c -0.0735,0.38209 -0.13227,0.72303 -0.2616,1.069851 -0.0735,0.23513 -0.12049,0.355639 -0.96991,0.355639 h -1.16977 c 0.18809,-0.82296 0.64365,-1.52542 1.30498,-2.489459 0.68775,-1.043389 1.28439,-2.05446 1.28439,-3.209541 0,-2.036829 -1.97509,-3.67393 -4.44987,-3.67393 -2.5159,0 -4.46455,1.669431 -4.46455,3.67393 0,1.155081 0.59666,2.166152 1.28735,3.209541 0.64366,0.964039 1.11099,1.666499 1.30498,2.489459 h -1.17271 c -0.84942,0 -0.89646,-0.120509 -0.96994,-0.340939 -0.11461,-0.335071 -0.18809,-0.71715 -0.26156,-1.084551 h -0.3674 l 0.48789,2.374831 h 2.34249 c 0.32038,0 0.36152,0 0.36152,-0.30861 0,-1.022821 -0.44968,-2.313111 -0.78769,-3.250692 -0.30861,-0.849407 -0.71715,-2.007438 -0.71715,-3.103739 0,-2.342489 1.61065,-3.33886 2.94209,-3.33886 1.40784,0 2.9597,1.055151 2.9597,3.33886 0,1.096301 -0.39676,2.213181 -0.82296,3.412349 -0.21748,0.614281 -0.68482,1.933951 -0.68482,2.942082 0,0.30861 0.0412,0.30861 0.37621,0.30861 h 2.32781 z"
       id="path9954-0" />
    <path
       inkscape:connector-curvature="0"
       style="font-style:normal;font-variant:normal;font-weight:normal;font-stretch:normal;letter-spacing:normal;word-spacing:normal;text-anchor:start;fill:#118600;fill-opacity:1;fill-rule:evenodd;stroke:#000000;stroke-width:0;stroke-linecap:butt;stroke-linejoin:miter;stroke-miterlimit:10.43299961;stroke-dasharray:none;stroke-dashoffset:0;stroke-opacity:1"
       d="m 386.97004,86.851102 -0.003,0.02061 -0.006,0.02061 -0.006,0.02061 -0.006,0.02061 -0.003,0.02349 -0.006,0.02349 -0.0119,0.0441 -0.0119,0.05 -0.0116,0.047 -0.0119,0.047 -0.006,0.02061 -0.006,0.02349 -0.006,0.02349 -0.006,0.02061 -0.003,0.02061 -0.006,0.02061 -0.006,0.02061 -0.003,0.0176 -0.006,0.0176 -0.003,0.0176 -0.003,0.01471 -0.003,0.01471 -0.003,0.0118 -0.003,0.0118 v 0.0118 l -0.003,0.009 v 0.006 0.006 c 0,0.22632 0.18516,0.32625 0.34388,0.32625 0.1881,0 0.34976,-0.13226 0.39974,-0.22338 0.0559,-0.094 0.13226,-0.42029 0.18811,-0.634849 0.0529,-0.193979 0.16164,-0.667189 0.2263,-0.92289 0.0588,-0.22632 0.12049,-0.449691 0.17341,-0.684821 0.11168,-0.44087 0.11168,-0.45851 0.31742,-0.77887 0.32626,-0.5026 0.84061,-1.084548 1.63417,-1.084548 0.57608,0 0.60545,0.473199 0.60545,0.71715 0,0.614278 -0.44085,1.74879 -0.60545,2.180849 -0.10877,0.288031 -0.14991,0.379151 -0.14991,0.55549 0,0.540809 0.44969,0.875869 0.97287,0.875869 1.0228,0 1.47252,-1.40785 1.47252,-1.566558 0,-0.132271 -0.13227,-0.132271 -0.1646,-0.132271 -0.14108,0 -0.14991,0.0588 -0.19103,0.173411 -0.23514,0.820018 -0.67601,1.240319 -1.08455,1.240319 -0.21458,0 -0.25866,-0.141081 -0.25866,-0.358571 0,-0.232199 0.0529,-0.367398 0.23513,-0.828839 0.12346,-0.317432 0.54375,-1.401969 0.54375,-1.97511 0,-0.164589 0,-0.59664 -0.37915,-0.890561 -0.17341,-0.135199 -0.47321,-0.27628 -0.95522,-0.27628 -0.91702,0 -1.48133,0.60253 -1.80758,1.031642 -0.0823,-0.869982 -0.81415,-1.031642 -1.33144,-1.031642 -0.85233,0 -1.42547,0.517292 -1.73408,0.928772 -0.0735,-0.705392 -0.67307,-0.928772 -1.0963,-0.928772 -0.44088,0 -0.67601,0.317431 -0.80828,0.549621 -0.22629,0.379151 -0.3674,0.966981 -0.3674,1.01695 0,0.13226 0.14111,0.13226 0.17637,0.13226 0.14108,0 0.14989,-0.0323 0.22337,-0.30861 0.15285,-0.605459 0.34975,-1.105119 0.74948,-1.105119 0.26453,0 0.33507,0.223379 0.33507,0.49966 0,0.196919 -0.094,0.57313 -0.16753,0.849408 -0.0676,0.27922 -0.16754,0.69951 -0.22337,0.92289 l -0.32625,1.313802 c -0.0411,0.129318 -0.0999,0.385019 -0.0999,0.417348 0,0.22632 0.18224,0.32625 0.34682,0.32625 0.18515,0 0.34681,-0.13226 0.39973,-0.22338 0.05,-0.094 0.1352,-0.42029 0.18515,-0.634849 0.05,-0.193979 0.15873,-0.667189 0.22339,-0.92289 0.0617,-0.22632 0.12637,-0.449691 0.17635,-0.684821 0.10874,-0.423238 0.13226,-0.499658 0.42616,-0.922888 0.28805,-0.408541 0.77301,-0.94053 1.53718,-0.94053 0.5937,0 0.60253,0.523168 0.60253,0.71715 0,0.255709 -0.0265,0.387969 -0.17341,0.964039 z"
       id="path9956-6" />
    <path
       inkscape:connector-curvature="0"
       style="font-style:normal;font-variant:normal;font-weight:normal;font-stretch:normal;letter-spacing:normal;word-spacing:normal;text-anchor:start;fill:#118600;fill-opacity:1;fill-rule:evenodd;stroke:#000000;stroke-width:0;stroke-linecap:butt;stroke-linejoin:miter;stroke-miterlimit:10.43299961;stroke-dasharray:none;stroke-dashoffset:0;stroke-opacity:1"
       d="m 398.48267,89.008443 -0.003,-0.006 v -0.009 -0.003 -0.006 -0.003 l -0.003,-0.006 v -0.003 l -0.003,-0.006 -0.003,-0.006 -0.003,-0.006 -0.003,-0.006 -0.006,-0.009 -0.003,-0.006 -0.006,-0.009 -0.006,-0.009 -0.009,-0.009 -0.006,-0.009 -0.009,-0.0118 -0.006,-0.006 -0.003,-0.006 -0.006,-0.006 -0.006,-0.006 -0.006,-0.006 -0.006,-0.009 -0.006,-0.006 -0.006,-0.006 -0.006,-0.009 -0.009,-0.006 -0.006,-0.009 -0.009,-0.009 -0.006,-0.009 -0.009,-0.009 -0.009,-0.009 -0.009,-0.009 -0.009,-0.009 -0.009,-0.009 -0.0116,-0.0118 -0.009,-0.009 -0.009,-0.0118 -0.0119,-0.009 -0.0119,-0.0118 -0.0119,-0.0118 c -1.82813,-1.84578 -2.29547,-4.61152 -2.29547,-6.851139 0,-2.548242 0.55552,-5.09942 2.35426,-6.924622 0.19106,-0.17929 0.19106,-0.208679 0.19106,-0.25277 0,-0.10287 -0.0558,-0.144018 -0.14404,-0.144018 -0.14695,0 -1.46367,0.993429 -2.32778,2.85097 -0.74948,1.613588 -0.92289,3.23894 -0.92289,4.47044 0,1.14332 0.16163,2.90975 0.96404,4.567431 0.87585,1.801688 2.13968,2.751029 2.28663,2.751029 0.0882,0 0.14404,-0.0412 0.14404,-0.14695 z"
       id="path9958-1" />
    <path
       inkscape:connector-curvature="0"
       style="font-style:normal;font-variant:normal;font-weight:normal;font-stretch:normal;letter-spacing:normal;word-spacing:normal;text-anchor:start;fill:#118600;fill-opacity:1;fill-rule:evenodd;stroke:#000000;stroke-width:0;stroke-linecap:butt;stroke-linejoin:miter;stroke-miterlimit:10.43299961;stroke-dasharray:none;stroke-dashoffset:0;stroke-opacity:1"
       d="m 399.96989,87.283161 -0.009,0.0441 -0.0119,0.0441 -0.009,0.0412 -0.0119,0.0382 -0.009,0.0382 -0.009,0.0323 -0.0116,0.0353 -0.009,0.0294 -0.0119,0.0294 -0.0116,0.02641 -0.0119,0.0264 -0.0148,0.0235 -0.0148,0.02061 -0.0146,0.02061 -0.0177,0.02061 -0.0175,0.0176 -0.0206,0.01471 -0.0206,0.01471 -0.0235,0.0118 -0.0265,0.0118 -0.0265,0.0118 -0.0323,0.009 -0.0294,0.009 -0.0353,0.006 -0.0382,0.006 -0.0175,0.003 -0.0206,0.003 -0.0206,0.003 -0.0236,0.003 h -0.0236 l -0.0206,0.003 h -0.0265 l -0.0236,0.003 h -0.0265 -0.0265 -0.0265 -0.0294 l -0.0265,0.003 h -0.0323 c -0.17341,0 -0.33507,0 -0.33507,0.273341 0,0.120499 0.0735,0.17929 0.18809,0.17929 0.39974,0 0.82296,-0.0441 1.23151,-0.0441 0.48201,0 0.98168,0.0441 1.45195,0.0441 0.0735,0 0.26157,0 0.26157,-0.293921 0,-0.15871 -0.14695,-0.15871 -0.34976,-0.15871 -0.73477,0 -0.73477,-0.105809 -0.73477,-0.23513 0,-0.179289 0.61722,-2.562939 0.72009,-2.930329 0.19103,0.423241 0.59957,0.937591 1.34612,0.937591 l -0.0119,-0.323311 c -0.96993,0 -1.15802,-1.2168 -1.15802,-1.302041 0,-0.0294 0,-0.0617 0.0411,-0.23513 l 0.72009,-2.871538 c 0.10287,-0.393851 0.49672,-0.802392 0.75829,-1.022821 0.51435,-0.45557 0.94054,-0.555501 1.19036,-0.555501 0.58195,0 0.93464,0.508471 0.93464,1.378461 0,0.861171 -0.47908,2.542349 -0.74652,3.103729 -0.49673,1.022821 -1.19917,1.504841 -1.73998,1.504841 l 0.0119,0.323311 c 1.70177,0 3.52697,-2.136762 3.52697,-4.29115 0,-1.375522 -0.83177,-2.33956 -1.94572,-2.33956 -0.73183,0 -1.4343,0.523169 -1.91632,1.096298 -0.14695,-0.79063 -0.77592,-1.096298 -1.31673,-1.096298 -0.67601,0 -0.95522,0.567259 -1.08455,0.828839 -0.2645,0.502589 -0.45556,1.378461 -0.45556,1.42548 0,0.14696 0.14695,0.14696 0.17635,0.14696 0.14697,0 0.16166,-0.02061 0.24688,-0.34094 0.25278,-1.037521 0.54081,-1.739971 1.06987,-1.739971 0.24982,0 0.45556,0.11462 0.45556,0.670121 0,0.340939 -0.047,0.49966 -0.10287,0.74948 z"
       id="path9960-5" />
    <path
       inkscape:connector-curvature="0"
       style="font-style:normal;font-variant:normal;font-weight:normal;font-stretch:normal;letter-spacing:normal;word-spacing:normal;text-anchor:start;fill:#118600;fill-opacity:1;fill-rule:evenodd;stroke:#000000;stroke-width:0;stroke-linecap:butt;stroke-linejoin:miter;stroke-miterlimit:10.43299961;stroke-dasharray:none;stroke-dashoffset:0;stroke-opacity:1"
       d="m 410.91523,81.836933 -0.003,-0.108752 v -0.114628 l -0.003,-0.11462 -0.003,-0.120513 -0.0119,-0.246888 -0.0177,-0.258641 -0.0236,-0.270398 -0.0323,-0.279221 -0.0411,-0.285101 -0.047,-0.29685 -0.0588,-0.299788 -0.0676,-0.302742 -0.0764,-0.30861 -0.0911,-0.311549 -0.10287,-0.314482 -0.11461,-0.314489 -0.0617,-0.155778 -0.0676,-0.155771 -0.0705,-0.155781 -0.0705,-0.155769 c -0.87879,-1.798761 -2.13675,-2.751042 -2.2837,-2.751042 -0.0882,0 -0.14698,0.0558 -0.14698,0.144021 0,0.0441 0,0.0735 0.27628,0.338 1.43724,1.446061 2.27198,3.7768 2.27198,6.839392 0,2.501209 -0.54081,5.078838 -2.36014,6.924619 -0.18812,0.173411 -0.18812,0.20574 -0.18812,0.246891 0,0.0882 0.0588,0.146949 0.14698,0.146949 0.14695,0 1.46074,-0.99637 2.3278,-2.853901 0.74362,-1.60772 0.91993,-3.233061 0.91993,-4.464558 z"
       id="path9962-5" />
  </g>
</svg>
