<?xml version="1.0" encoding="UTF-8" standalone="no"?>
<!-- Created with Inkscape (http://www.inkscape.org/) -->

<svg
   xmlns:dc="http://purl.org/dc/elements/1.1/"
   xmlns:cc="http://creativecommons.org/ns#"
   xmlns:rdf="http://www.w3.org/1999/02/22-rdf-syntax-ns#"
   xmlns:svg="http://www.w3.org/2000/svg"
   xmlns="http://www.w3.org/2000/svg"
   xmlns:sodipodi="http://sodipodi.sourceforge.net/DTD/sodipodi-0.dtd"
   xmlns:inkscape="http://www.inkscape.org/namespaces/inkscape"
   version="1.1"
   id="svg3652"
   xml:space="preserve"
   width="1142.1951"
   height="275.62839"
   viewBox="0 0 1142.1951 275.62839"
   sodipodi:docname="Stewart_euler.svg"
   inkscape:version="0.92.3 (2405546, 2018-03-11)"><metadata
     id="metadata3658"><rdf:RDF><cc:Work
         rdf:about=""><dc:format>image/svg+xml</dc:format><dc:type
           rdf:resource="http://purl.org/dc/dcmitype/StillImage" /><dc:title /></cc:Work></rdf:RDF></metadata><defs
     id="defs3656"><clipPath
       clipPathUnits="userSpaceOnUse"
       id="clipPath3680"><path
         d="m 215,7 h 10 v 13 h -10 z"
         id="path3678"
         inkscape:connector-curvature="0" /></clipPath><clipPath
       clipPathUnits="userSpaceOnUse"
       id="clipPath3698"><path
         d="m 227,2 h 6 v 11 h -6 z"
         id="path3696"
         inkscape:connector-curvature="0" /></clipPath><clipPath
       clipPathUnits="userSpaceOnUse"
       id="clipPath3716"><path
         d="m 73,189 h 10 v 16 H 73 Z"
         id="path3714"
         inkscape:connector-curvature="0" /></clipPath><clipPath
       clipPathUnits="userSpaceOnUse"
       id="clipPath3734"><path
         d="m 85,187 h 6 v 11 h -6 z"
         id="path3732"
         inkscape:connector-curvature="0" /></clipPath><clipPath
       clipPathUnits="userSpaceOnUse"
       id="clipPath3752"><path
         d="m 50,6 h 8 v 12 h -8 z"
         id="path3750"
         inkscape:connector-curvature="0" /></clipPath><clipPath
       clipPathUnits="userSpaceOnUse"
       id="clipPath3770"><path
         d="m 60,0 h 6 v 11 h -6 z"
         id="path3768"
         inkscape:connector-curvature="0" /></clipPath><clipPath
       clipPathUnits="userSpaceOnUse"
       id="clipPath3788"><path
         d="m 206,102 h 10 v 12 h -10 z"
         id="path3786"
         inkscape:connector-curvature="0" /></clipPath><clipPath
       clipPathUnits="userSpaceOnUse"
       id="clipPath3806"><path
         d="m 1,184 h 10 v 12 H 1 Z"
         id="path3804"
         inkscape:connector-curvature="0" /></clipPath><clipPath
       clipPathUnits="userSpaceOnUse"
       id="clipPath3824"><path
         d="m 175,43 h 11 v 17 h -11 z"
         id="path3822"
         inkscape:connector-curvature="0" /></clipPath><clipPath
       clipPathUnits="userSpaceOnUse"
       id="clipPath3842"><path
         d="m 188,37 h 7 v 11 h -7 z"
         id="path3840"
         inkscape:connector-curvature="0" /></clipPath><clipPath
       clipPathUnits="userSpaceOnUse"
       id="clipPath3862"><path
         d="m 33,140 h 11 v 18 H 33 Z"
         id="path3860"
         inkscape:connector-curvature="0" /></clipPath><clipPath
       clipPathUnits="userSpaceOnUse"
       id="clipPath3880"><path
         d="m 46,134 h 6 v 11 h -6 z"
         id="path3878"
         inkscape:connector-curvature="0" /></clipPath><clipPath
       clipPathUnits="userSpaceOnUse"
       id="clipPath3906"><path
         d="m 522,8 h 11 v 12 h -11 z"
         id="path3904"
         inkscape:connector-curvature="0" /></clipPath><clipPath
       clipPathUnits="userSpaceOnUse"
       id="clipPath3924"><path
         d="m 380,193 h 8 v 12 h -8 z"
         id="path3922"
         inkscape:connector-curvature="0" /></clipPath><clipPath
       clipPathUnits="userSpaceOnUse"
       id="clipPath3942"><path
         d="m 390,187 h 6 v 11 h -6 z"
         id="path3940"
         inkscape:connector-curvature="0" /></clipPath><clipPath
       clipPathUnits="userSpaceOnUse"
       id="clipPath3960"><path
         d="m 358,6 h 9 v 12 h -9 z"
         id="path3958"
         inkscape:connector-curvature="0" /></clipPath><clipPath
       clipPathUnits="userSpaceOnUse"
       id="clipPath3978"><path
         d="m 512,98 h 10 v 17 h -10 z"
         id="path3976"
         inkscape:connector-curvature="0" /></clipPath><clipPath
       clipPathUnits="userSpaceOnUse"
       id="clipPath3996"><path
         d="m 524,97 h 11 v 11 h -11 z"
         id="path3994"
         inkscape:connector-curvature="0" /></clipPath><clipPath
       clipPathUnits="userSpaceOnUse"
       id="clipPath4014"><path
         d="m 308,184 h 16 v 12 h -16 z"
         id="path4012"
         inkscape:connector-curvature="0" /></clipPath><clipPath
       clipPathUnits="userSpaceOnUse"
       id="clipPath4032"><path
         d="m 482,43 h 11 v 18 h -11 z"
         id="path4030"
         inkscape:connector-curvature="0" /></clipPath><clipPath
       clipPathUnits="userSpaceOnUse"
       id="clipPath4050"><path
         d="m 494,38 h 7 v 11 h -7 z"
         id="path4048"
         inkscape:connector-curvature="0" /></clipPath><clipPath
       clipPathUnits="userSpaceOnUse"
       id="clipPath4068"><path
         d="m 340,140 h 11 v 18 h -11 z"
         id="path4066"
         inkscape:connector-curvature="0" /></clipPath><clipPath
       clipPathUnits="userSpaceOnUse"
       id="clipPath4086"><path
         d="m 352,135 h 7 v 11 h -7 z"
         id="path4084"
         inkscape:connector-curvature="0" /></clipPath><clipPath
       clipPathUnits="userSpaceOnUse"
       id="clipPath4112"><path
         d="m 665,195 h 9 v 12 h -9 z"
         id="path4110"
         inkscape:connector-curvature="0" /></clipPath><clipPath
       clipPathUnits="userSpaceOnUse"
       id="clipPath4130"><path
         d="m 841,1 h 16 v 12 h -16 z"
         id="path4128"
         inkscape:connector-curvature="0" /></clipPath><clipPath
       clipPathUnits="userSpaceOnUse"
       id="clipPath4148"><path
         d="m 793,42 h 11 v 18 h -11 z"
         id="path4146"
         inkscape:connector-curvature="0" /></clipPath><clipPath
       clipPathUnits="userSpaceOnUse"
       id="clipPath4166"><path
         d="m 805,37 h 7 v 11 h -7 z"
         id="path4164"
         inkscape:connector-curvature="0" /></clipPath><clipPath
       clipPathUnits="userSpaceOnUse"
       id="clipPath4184"><path
         d="m 651,140 h 11 v 17 h -11 z"
         id="path4182"
         inkscape:connector-curvature="0" /></clipPath><clipPath
       clipPathUnits="userSpaceOnUse"
       id="clipPath4202"><path
         d="m 663,134 h 7 v 11 h -7 z"
         id="path4200"
         inkscape:connector-curvature="0" /></clipPath><clipPath
       clipPathUnits="userSpaceOnUse"
       id="clipPath4228"><path
         d="m 601,187 h 10 v 13 h -10 z"
         id="path4226"
         inkscape:connector-curvature="0" /></clipPath><clipPath
       clipPathUnits="userSpaceOnUse"
       id="clipPath4246"><path
         d="m 613,182 h 11 v 11 h -11 z"
         id="path4244"
         inkscape:connector-curvature="0" /></clipPath><clipPath
       clipPathUnits="userSpaceOnUse"
       id="clipPath4264"><path
         d="m 824,103 h 9 v 13 h -9 z"
         id="path4262"
         inkscape:connector-curvature="0" /></clipPath><clipPath
       clipPathUnits="userSpaceOnUse"
       id="clipPath4282"><path
         d="m 834,98 h 12 v 11 h -12 z"
         id="path4280"
         inkscape:connector-curvature="0" /></clipPath><clipPath
       clipPathUnits="userSpaceOnUse"
       id="clipPath4300"><path
         d="m 658,5 h 10 v 17 h -10 z"
         id="path4298"
         inkscape:connector-curvature="0" /></clipPath><clipPath
       clipPathUnits="userSpaceOnUse"
       id="clipPath4318"><path
         d="m 669,4 h 12 v 11 h -12 z"
         id="path4316"
         inkscape:connector-curvature="0" /></clipPath></defs><sodipodi:namedview
     pagecolor="#ffffff"
     bordercolor="#666666"
     borderopacity="1"
     objecttolerance="10"
     gridtolerance="10"
     guidetolerance="10"
     inkscape:pageopacity="0"
     inkscape:pageshadow="2"
     inkscape:window-width="3110"
     inkscape:window-height="1697"
     id="namedview3654"
     showgrid="false"
     inkscape:zoom="0.9745896"
     inkscape:cx="371.87642"
     inkscape:cy="207.10475"
     inkscape:window-x="90"
     inkscape:window-y="55"
     inkscape:window-maximized="1"
     inkscape:current-layer="g3660" /><g
     id="g3660"
     inkscape:groupmode="layer"
     inkscape:label="Stewart_euler"
     transform="matrix(1.3333333,0,0,-1.3333333,0,275.62838)"><path
       inkscape:connector-curvature="0"
       id="path3664"
       style="fill:#70ad47;fill-opacity:1;fill-rule:nonzero;stroke:none"
       d="M 64.609,26.178 V 190.557 H 62.328 V 26.178 Z m 2.282,163.239 -3.422,6.839 -3.418,-6.839 z" /><path
       inkscape:connector-curvature="0"
       id="path3666"
       style="fill:#70ad47;fill-opacity:1;fill-rule:nonzero;stroke:none"
       d="M 63.109,27.717 H 227.488 V 25.436 H 63.109 Z m 163.239,2.282 6.84,-3.422 -6.84,-3.422 z" /><path
       inkscape:connector-curvature="0"
       id="path3668"
       style="fill:#000000;fill-opacity:1;fill-rule:nonzero;stroke:none"
       d="m 62.051,26.167 -3.571,8.39 2.09,0.891 3.571,-8.391 z m -6.25,14.691 -3.571,8.391 2.098,0.886 3.57,-8.386 z m -6.25,14.68 -3.571,8.39 2.098,0.899 3.57,-8.399 z m -6.25,14.687 -3.571,8.391 2.098,0.89 3.57,-8.39 z m -6.246,14.68 -3.571,8.402 2.098,0.891 3.57,-8.391 z m -6.25,14.691 -3.571,8.391 2.098,0.898 3.57,-8.398 z m -6.246,14.692 -3.571,8.39 2.098,0.887 3.57,-8.387 z m -6.25,14.679 -3.571,8.399 2.098,0.89 3.57,-8.39 z m -6.246,14.688 -3.571,8.391 2.098,0.89 3.57,-8.39 z m -6.25,14.691 -3.571,8.391 2.098,0.891 3.57,-8.391 z m -5.813,7.84 0.469,7.629 5.824,-4.957 z" /><path
       inkscape:connector-curvature="0"
       id="path3670"
       style="fill:#000000;fill-opacity:1;fill-rule:nonzero;stroke:none"
       d="m 63.188,25.905 8.421,3.512 -0.879,2.101 -8.421,-3.512 z m 14.73,6.141 8.422,3.5 -0.879,2.109 -8.422,-3.508 z m 14.73,6.132 8.422,3.508 -0.871,2.102 -8.422,-3.5 z m 14.743,6.137 8.418,3.512 -0.879,2.101 -8.422,-3.5 z m 14.726,6.141 8.422,3.5 -0.879,2.109 -8.422,-3.508 z m 14.731,6.14 8.422,3.5 -0.879,2.11 -8.411,-3.508 z m 14.742,6.129 8.41,3.512 -0.871,2.101 -8.418,-3.5 z m 14.73,6.141 8.418,3.512 -0.879,2.097 -8.421,-3.508 z m 14.731,6.14 8.418,3.5 -0.879,2.11 -8.422,-3.508 z m 14.726,6.129 8.422,3.512 -0.871,2.109 -8.418,-3.507 z m 14.743,6.141 0.031,0.02 -0.883,2.101 -0.027,-0.012 z m -0.141,-2.527 4.988,5.789 -7.617,0.527 z" /><path
       inkscape:connector-curvature="0"
       id="path3672"
       style="fill:#000000;fill-opacity:1;fill-rule:nonzero;stroke:none"
       d="m 160.391,65.237 0.539,-1.391 0.84,-2.328 0.769,-2.351 0.719,-2.371 0.68,-2.368 0.613,-2.402 0.547,-2.41 0.492,-2.418 0.437,-2.422 0.383,-2.449 0.32,-2.449 0.27,-2.45 0.211,-2.472 0.137,-2.469 0.09,-2.469 0.031,-2.472 -1,-0.02 -0.031,2.473 v -0.012 l -0.09,2.461 v -0.012 l -0.137,2.461 V 34.878 L 166,37.338 v -0.011 l -0.262,2.441 v -0.012 l -0.32,2.442 0.012,-0.02 -0.391,2.43 0.012,-0.012 -0.442,2.422 v -0.012 l -0.492,2.399 v -0.008 l -0.547,2.399 0.008,-0.008 -0.609,2.39 v -0.023 l -0.668,2.371 0.008,-0.008 -0.719,2.348 v -0.008 l -0.77,2.34 v -0.012 l -0.832,2.32 v -0.019 l -0.527,1.379 z m -2.051,-6.969 1.23,7.707 6.098,-4.859 c 0.211,-0.18 0.25,-0.488 0.082,-0.711 -0.172,-0.207 -0.492,-0.25 -0.699,-0.078 l -5.442,4.328 0.809,0.32 -1.098,-6.859 c -0.043,-0.278 -0.3,-0.461 -0.57,-0.418 -0.27,0.039 -0.461,0.301 -0.41,0.57 z" /><g
       transform="translate(0,-0.278717)"
       id="g3674"><g
         id="g3676" /><g
         id="g3690"><g
           id="g3688"
           clip-path="url(#clipPath3680)"><g
             id="g3686"><text
   id="text3684"
   style="font-variant:normal;font-weight:300;font-size:24px;font-family:'Calibri Light';-inkscape-font-specification:Calibri-Light;writing-mode:lr-tb;fill:#70ad47;fill-opacity:1;fill-rule:nonzero;stroke:none"
   transform="matrix(1,0,0,-1,215.399,7.935472)"><tspan
     id="tspan3682"
     y="0"
     x="0"
     style="-inkscape-font-specification:Calibri;font-family:Calibri;font-weight:normal;font-style:normal;font-stretch:normal;font-variant:normal">x</tspan></text>

</g></g></g></g><g
       transform="translate(0,-0.278717)"
       id="g3692"><g
         id="g3694" /><g
         id="g3708"><g
           id="g3706"
           clip-path="url(#clipPath3698)"><g
             id="g3704"><text
   id="text3702"
   style="font-variant:normal;font-weight:300;font-size:15.96000004px;font-family:'Calibri Light';-inkscape-font-specification:Calibri-Light;writing-mode:lr-tb;fill:#70ad47;fill-opacity:1;fill-rule:nonzero;stroke:none"
   transform="matrix(1,0,0,-1,225.839,2.055472)"><tspan
     id="tspan3700"
     y="0"
     x="0"
     style="-inkscape-font-specification:Calibri;font-family:Calibri;font-weight:normal;font-style:normal;font-stretch:normal;font-variant:normal">F</tspan></text>

</g></g></g></g><g
       transform="translate(0,-0.278717)"
       id="g3710"><g
         id="g3712" /><g
         id="g3726"><g
           id="g3724"
           clip-path="url(#clipPath3716)"><g
             id="g3722"><text
   id="text3720"
   style="font-variant:normal;font-weight:300;font-size:24px;font-family:'Calibri Light';-inkscape-font-specification:Calibri-Light;writing-mode:lr-tb;fill:#70ad47;fill-opacity:1;fill-rule:nonzero;stroke:none"
   transform="matrix(1,0,0,-1,72.819,193.40547)"><tspan
     id="tspan3718"
     y="0"
     x="0"
     style="-inkscape-font-specification:Calibri;font-family:Calibri;font-weight:normal;font-style:normal;font-stretch:normal;font-variant:normal">y</tspan></text>

</g></g></g></g><g
       transform="translate(0,-0.278717)"
       id="g3728"><g
         id="g3730" /><g
         id="g3744"><g
           id="g3742"
           clip-path="url(#clipPath3734)"><g
             id="g3740"><text
   id="text3738"
   style="font-variant:normal;font-weight:300;font-size:15.96000004px;font-family:'Calibri Light';-inkscape-font-specification:Calibri-Light;writing-mode:lr-tb;fill:#70ad47;fill-opacity:1;fill-rule:nonzero;stroke:none"
   transform="matrix(1,0,0,-1,83.739,187.52547)"><tspan
     id="tspan3736"
     y="0"
     x="0"
     style="-inkscape-font-specification:Calibri;font-family:Calibri;font-weight:normal;font-style:normal;font-stretch:normal;font-variant:normal">F</tspan></text>

</g></g></g></g><g
       transform="translate(0,-0.278717)"
       id="g3746"><g
         id="g3748" /><g
         id="g3762"><g
           id="g3760"
           clip-path="url(#clipPath3752)"><g
             id="g3758"><text
   id="text3756"
   style="font-variant:normal;font-weight:300;font-size:24px;font-family:'Calibri Light';-inkscape-font-specification:Calibri-Light;writing-mode:lr-tb;fill:#70ad47;fill-opacity:1;fill-rule:nonzero;stroke:none"
   transform="matrix(1,0,0,-1,49.417,6.205472)"><tspan
     id="tspan3754"
     y="0"
     x="0"
     style="-inkscape-font-specification:Calibri;font-family:Calibri;font-weight:normal;font-style:normal;font-stretch:normal;font-variant:normal">z</tspan></text>

</g></g></g></g><g
       transform="translate(0,-0.278717)"
       id="g3764"><g
         id="g3766" /><g
         id="g3780"><g
           id="g3778"
           clip-path="url(#clipPath3770)"><g
             id="g3776"><text
   id="text3774"
   style="font-variant:normal;font-weight:300;font-size:15.96000004px;font-family:'Calibri Light';-inkscape-font-specification:Calibri-Light;writing-mode:lr-tb;fill:#70ad47;fill-opacity:1;fill-rule:nonzero;stroke:none"
   transform="matrix(1,0,0,-1,58.899,0.325472)"><tspan
     id="tspan3772"
     y="0"
     x="0"
     style="-inkscape-font-specification:Calibri;font-family:Calibri;font-weight:normal;font-style:normal;font-stretch:normal;font-variant:normal">F</tspan></text>

</g></g></g></g><g
       transform="translate(0,-0.278717)"
       id="g3782"><g
         id="g3784" /><g
         id="g3798"><g
           id="g3796"
           clip-path="url(#clipPath3788)"><g
             id="g3794"><text
   id="text3792"
   style="font-variant:normal;font-weight:300;font-size:24px;font-family:'Calibri Light';-inkscape-font-specification:Calibri-Light;writing-mode:lr-tb;fill:#000000;fill-opacity:1;fill-rule:nonzero;stroke:none"
   transform="matrix(1,0,0,-1,204.909,102.82547)"><tspan
     id="tspan3790"
     y="0"
     x="0"
     style="-inkscape-font-specification:Calibri;font-family:Calibri;font-weight:normal;font-style:normal;font-stretch:normal;font-variant:normal">u</tspan></text>

</g></g></g></g><g
       transform="translate(0,-0.278717)"
       id="g3800"><g
         id="g3802" /><g
         id="g3816"><g
           id="g3814"
           clip-path="url(#clipPath3806)"><g
             id="g3812"><text
   id="text3810"
   style="font-variant:normal;font-weight:300;font-size:24px;font-family:'Calibri Light';-inkscape-font-specification:Calibri-Light;writing-mode:lr-tb;fill:#000000;fill-opacity:1;fill-rule:nonzero;stroke:none"
   transform="matrix(1,0,0,-1,0.889,184.23547)"
   x="5.578125"
   y="0"><tspan
     id="tspan3808"
     y="0"
     x="0"
     style="text-align:start;writing-mode:lr-tb;text-anchor:start;-inkscape-font-specification:Calibri;font-family:Calibri;font-weight:normal;font-style:normal;font-stretch:normal;font-variant:normal">v</tspan></text>

</g></g></g></g><g
       transform="translate(0,-0.278717)"
       id="g3818"><g
         id="g3820" /><g
         id="g3834"><g
           id="g3832"
           clip-path="url(#clipPath3824)"><g
             id="g3830"><text
   id="text3828"
   style="font-variant:normal;font-weight:300;font-size:24px;font-family:'Calibri Light';-inkscape-font-specification:Calibri-Light;writing-mode:lr-tb;fill:#000000;fill-opacity:1;fill-rule:nonzero;stroke:none"
   transform="matrix(1,0,0,-1,174.149,43.575472)"><tspan
     id="tspan3826"
     y="0"
     x="0"
     style="-inkscape-font-specification:Calibri;font-family:Calibri;font-weight:normal;font-style:normal;font-stretch:normal;font-variant:normal">θ</tspan></text>

</g></g></g></g><g
       transform="translate(0,-0.278717)"
       id="g3836"><g
         id="g3838" /><g
         id="g3852"><g
           id="g3850"
           clip-path="url(#clipPath3842)"><g
             id="g3848"><text
   id="text3846"
   style="font-variant:normal;font-weight:300;font-size:15.96000004px;font-family:'Calibri Light';-inkscape-font-specification:Calibri-Light;writing-mode:lr-tb;fill:#000000;fill-opacity:1;fill-rule:nonzero;stroke:none"
   transform="matrix(1,0,0,-1,186.869,37.695472)"><tspan
     id="tspan3844"
     y="0"
     x="0"
     style="-inkscape-font-specification:Calibri;font-family:Calibri;font-weight:normal;font-style:normal;font-stretch:normal;font-variant:normal">1</tspan></text>

</g></g></g></g><path
       inkscape:connector-curvature="0"
       id="path3854"
       style="fill:#000000;fill-opacity:1;fill-rule:nonzero;stroke:none"
       d="m 23.039,123.905 1.441,0.601 2.387,0.911 2.399,0.859 2.425,0.801 2.434,0.738 2.457,0.672 2.473,0.609 2.484,0.559 2.496,0.5 2.512,0.433 2.516,0.379 2.531,0.301 2.547,0.25 2.527,0.18 2.562,0.129 2.547,0.058 0.024,-1 -2.543,-0.058 h 0.012 l -2.54,-0.121 h 0.008 l -2.527,-0.18 h 0.019 l -2.531,-0.25 h 0.012 l -2.52,-0.309 0.012,0.008 -2.504,-0.379 h 0.008 l -2.496,-0.429 0.012,0.011 -2.481,-0.5 h 0.012 l -2.477,-0.55 h 0.012 l -2.461,-0.61 0.016,0.008 -2.446,-0.68 0.012,0.012 -2.422,-0.742 0.008,0.012 -2.414,-0.801 h 0.012 l -2.383,-0.852 h 0.008 l -2.375,-0.898 h 0.011 l -1.433,-0.59 z m 7.008,-1.887 -7.734,1.047 4.718,6.211 c 0.168,0.223 0.481,0.27 0.699,0.102 0.223,-0.172 0.266,-0.481 0.098,-0.7 l -4.199,-5.531 -0.332,0.789 6.883,-0.93 c 0.273,-0.039 0.468,-0.289 0.429,-0.558 -0.035,-0.27 -0.289,-0.473 -0.562,-0.43 z" /><g
       transform="translate(0,-0.278717)"
       id="g3856"><g
         id="g3858" /><g
         id="g3872"><g
           id="g3870"
           clip-path="url(#clipPath3862)"><g
             id="g3868"><text
   id="text3866"
   style="font-variant:normal;font-weight:300;font-size:24px;font-family:'Calibri Light';-inkscape-font-specification:Calibri-Light;writing-mode:lr-tb;fill:#000000;fill-opacity:1;fill-rule:nonzero;stroke:none"
   transform="matrix(1,0,0,-1,32.017,140.72547)"><tspan
     id="tspan3864"
     y="0"
     x="0"
     style="-inkscape-font-specification:Calibri;font-family:Calibri;font-weight:normal;font-style:normal;font-stretch:normal;font-variant:normal">θ</tspan></text>

</g></g></g></g><g
       transform="translate(0,-0.278717)"
       id="g3874"><g
         id="g3876" /><g
         id="g3890"><g
           id="g3888"
           clip-path="url(#clipPath3880)"><g
             id="g3886"><text
   id="text3884"
   style="font-variant:normal;font-weight:300;font-size:15.96000004px;font-family:'Calibri Light';-inkscape-font-specification:Calibri-Light;writing-mode:lr-tb;fill:#000000;fill-opacity:1;fill-rule:nonzero;stroke:none"
   transform="matrix(1,0,0,-1,44.737,134.84547)"><tspan
     id="tspan3882"
     y="0"
     x="0"
     style="-inkscape-font-specification:Calibri;font-family:Calibri;font-weight:normal;font-style:normal;font-stretch:normal;font-variant:normal">1</tspan></text>

</g></g></g></g><path
       inkscape:connector-curvature="0"
       id="path3892"
       style="fill:#70ad47;fill-opacity:1;fill-rule:nonzero;stroke:none"
       d="m 371.328,26.538 v 164.379 h -2.277 V 26.538 Z m 2.281,163.238 -3.421,6.84 -3.418,-6.84 z" /><path
       inkscape:connector-curvature="0"
       id="path3894"
       style="fill:#000000;fill-opacity:1;fill-rule:nonzero;stroke:none"
       d="m 369.828,28.077 h 9.121 v -2.281 h -9.121 z m 15.961,0 h 9.121 v -2.281 h -9.121 z m 15.961,0 h 9.117 v -2.281 h -9.117 z m 15.961,0 h 9.117 v -2.281 h -9.117 z m 15.957,0 h 9.121 v -2.281 h -9.121 z m 15.961,0 h 9.121 v -2.281 h -9.121 z m 15.961,0 h 9.121 v -2.281 h -9.121 z m 15.961,0 h 9.117 v -2.281 h -9.117 z m 15.957,0 h 9.121 v -2.281 h -9.121 z m 15.961,0 h 9.121 v -2.281 h -9.121 z m 15.961,0 h 4.781 v -2.281 h -4.781 z m 3.64,2.281 6.84,-3.422 -6.84,-3.418 z" /><path
       inkscape:connector-curvature="0"
       id="path3896"
       style="fill:#000000;fill-opacity:1;fill-rule:nonzero;stroke:none"
       d="m 368.77,26.526 -3.571,8.391 2.09,0.89 3.57,-8.39 z m -6.25,14.691 -3.571,8.391 2.102,0.891 3.566,-8.391 z m -6.25,14.68 -3.571,8.391 2.102,0.898 3.566,-8.398 z m -6.25,14.691 -3.571,8.387 2.102,0.891 3.566,-8.391 z m -6.25,14.68 -3.571,8.399 2.102,0.89 3.566,-8.39 z m -6.243,14.688 -3.566,8.39 2.09,0.903 3.566,-8.403 z m -6.25,14.691 -3.566,8.391 2.098,0.89 3.57,-8.39 z m -6.25,14.68 -3.566,8.398 2.098,0.891 3.57,-8.391 z m -6.25,14.691 -3.566,8.387 2.098,0.891 3.57,-8.391 z m -6.25,14.688 -3.566,8.39 2.098,0.891 3.57,-8.391 z m -5.808,7.84 0.469,7.632 5.82,-4.961 z" /><path
       inkscape:connector-curvature="0"
       id="path3898"
       style="fill:#4472c4;fill-opacity:1;fill-rule:nonzero;stroke:none"
       d="m 369.91,26.268 147.36,61.387 -0.872,2.101 -147.371,-61.39 z m 147.188,58.84 4.992,5.789 -7.621,0.531 z" /><g
       transform="translate(0,-0.278717)"
       id="g3900"><g
         id="g3902" /><g
         id="g3916"><g
           id="g3914"
           clip-path="url(#clipPath3906)"><g
             id="g3912"><text
   id="text3910"
   style="font-variant:normal;font-weight:300;font-size:24px;font-family:'Calibri Light';-inkscape-font-specification:Calibri-Light;writing-mode:lr-tb;fill:#000000;fill-opacity:1;fill-rule:nonzero;stroke:none"
   transform="matrix(1,0,0,-1,522.189,8.315472)"><tspan
     id="tspan3908"
     y="0"
     x="0"
     style="-inkscape-font-specification:Calibri;font-family:Calibri;font-weight:normal;font-style:normal;font-stretch:normal;font-variant:normal">v</tspan></text>

</g></g></g></g><g
       transform="translate(0,-0.278717)"
       id="g3918"><g
         id="g3920" /><g
         id="g3934"><g
           id="g3932"
           clip-path="url(#clipPath3924)"><g
             id="g3930"><text
   id="text3928"
   style="font-variant:normal;font-weight:300;font-size:24px;font-family:'Calibri Light';-inkscape-font-specification:Calibri-Light;writing-mode:lr-tb;fill:#70ad47;fill-opacity:1;fill-rule:nonzero;stroke:none"
   transform="matrix(1,0,0,-1,379.609,193.78547)"><tspan
     id="tspan3926"
     y="0"
     x="0"
     style="-inkscape-font-specification:Calibri;font-family:Calibri;font-weight:normal;font-style:normal;font-stretch:normal;font-variant:normal">z</tspan></text>

</g></g></g></g><g
       transform="translate(0,-0.278717)"
       id="g3936"><g
         id="g3938" /><g
         id="g3952"><g
           id="g3950"
           clip-path="url(#clipPath3942)"><g
             id="g3948"><text
   id="text3946"
   style="font-variant:normal;font-weight:300;font-size:15.96000004px;font-family:'Calibri Light';-inkscape-font-specification:Calibri-Light;writing-mode:lr-tb;fill:#70ad47;fill-opacity:1;fill-rule:nonzero;stroke:none"
   transform="matrix(1,0,0,-1,389.089,187.90547)"><tspan
     id="tspan3944"
     y="0"
     x="0"
     style="-inkscape-font-specification:Calibri;font-family:Calibri;font-weight:normal;font-style:normal;font-stretch:normal;font-variant:normal">F</tspan></text>

</g></g></g></g><g
       transform="translate(0,-0.278717)"
       id="g3954"><g
         id="g3956" /><g
         id="g3970"><g
           id="g3968"
           clip-path="url(#clipPath3960)"><g
             id="g3966"><text
   id="text3964"
   style="font-variant:normal;font-weight:300;font-size:24px;font-family:'Calibri Light';-inkscape-font-specification:Calibri-Light;writing-mode:lr-tb;fill:#000000;fill-opacity:1;fill-rule:nonzero;stroke:none"
   transform="matrix(1,0,0,-1,356.189,6.585472)"><tspan
     id="tspan3962"
     y="0"
     x="0"
     style="-inkscape-font-specification:Calibri;font-family:Calibri;font-weight:normal;font-style:normal;font-stretch:normal;font-variant:normal">u</tspan></text>

</g></g></g></g><g
       transform="translate(0,-0.278717)"
       id="g3972"><g
         id="g3974" /><g
         id="g3988"><g
           id="g3986"
           clip-path="url(#clipPath3978)"><g
             id="g3984"><text
   id="text3982"
   style="font-variant:normal;font-weight:300;font-size:24px;font-family:'Calibri Light';-inkscape-font-specification:Calibri-Light;writing-mode:lr-tb;fill:#4472c4;fill-opacity:1;fill-rule:nonzero;stroke:none"
   transform="matrix(1,0,0,-1,511.709,103.21547)"><tspan
     id="tspan3980"
     y="0"
     x="0"
     style="-inkscape-font-specification:Calibri;font-family:Calibri;font-weight:normal;font-style:normal;font-stretch:normal;font-variant:normal">y</tspan></text>

</g></g></g></g><g
       transform="translate(0,-0.278717)"
       id="g3990"><g
         id="g3992" /><g
         id="g4006"><g
           id="g4004"
           clip-path="url(#clipPath3996)"><g
             id="g4002"><text
   id="text4000"
   style="font-variant:normal;font-weight:300;font-size:15.96000004px;font-family:'Calibri Light';-inkscape-font-specification:Calibri-Light;writing-mode:lr-tb;fill:#4472c4;fill-opacity:1;fill-rule:nonzero;stroke:none"
   transform="matrix(1,0,0,-1,522.629,97.335472)"><tspan
     id="tspan3998"
     y="0"
     x="0"
     style="-inkscape-font-specification:Calibri;font-family:Calibri;font-weight:normal;font-style:normal;font-stretch:normal;font-variant:normal">M</tspan></text>

</g></g></g></g><g
       transform="translate(0,-0.278717)"
       id="g4008"><g
         id="g4010" /><g
         id="g4024"><g
           id="g4022"
           clip-path="url(#clipPath4014)"><g
             id="g4020"><text
   id="text4018"
   style="font-variant:normal;font-weight:300;font-size:24.02400017px;font-family:'Calibri Light';-inkscape-font-specification:Calibri-Light;writing-mode:lr-tb;fill:#000000;fill-opacity:1;fill-rule:nonzero;stroke:none"
   transform="matrix(1,0,0,-1,307.659,184.61547)"><tspan
     id="tspan4016"
     y="0"
     x="0"
     style="-inkscape-font-specification:Calibri;font-family:Calibri;font-weight:normal;font-style:normal;font-stretch:normal;font-variant:normal">w</tspan></text>

</g></g></g></g><g
       transform="translate(0,-0.278717)"
       id="g4026"><g
         id="g4028" /><g
         id="g4042"><g
           id="g4040"
           clip-path="url(#clipPath4032)"><g
             id="g4038"><text
   id="text4036"
   style="font-variant:normal;font-weight:300;font-size:24.02400017px;font-family:'Calibri Light';-inkscape-font-specification:Calibri-Light;writing-mode:lr-tb;fill:#000000;fill-opacity:1;fill-rule:nonzero;stroke:none"
   transform="matrix(1,0,0,-1,480.939,43.955472)"><tspan
     id="tspan4034"
     y="0"
     x="0"
     style="-inkscape-font-specification:Calibri;font-family:Calibri;font-weight:normal;font-style:normal;font-stretch:normal;font-variant:normal">θ</tspan></text>

</g></g></g></g><g
       transform="translate(0,-0.278717)"
       id="g4044"><g
         id="g4046" /><g
         id="g4060"><g
           id="g4058"
           clip-path="url(#clipPath4050)"><g
             id="g4056"><text
   id="text4054"
   style="font-variant:normal;font-weight:300;font-size:15.98400021px;font-family:'Calibri Light';-inkscape-font-specification:Calibri-Light;writing-mode:lr-tb;fill:#000000;fill-opacity:1;fill-rule:nonzero;stroke:none"
   transform="matrix(1,0,0,-1,493.659,38.075472)"><tspan
     id="tspan4052"
     y="0"
     x="0"
     style="-inkscape-font-specification:Calibri;font-family:Calibri;font-weight:normal;font-style:normal;font-stretch:normal;font-variant:normal">2</tspan></text>

</g></g></g></g><g
       transform="translate(0,-0.278717)"
       id="g4062"><g
         id="g4064" /><g
         id="g4078"><g
           id="g4076"
           clip-path="url(#clipPath4068)"><g
             id="g4074"><text
   id="text4072"
   style="font-variant:normal;font-weight:300;font-size:24.02400017px;font-family:'Calibri Light';-inkscape-font-specification:Calibri-Light;writing-mode:lr-tb;fill:#000000;fill-opacity:1;fill-rule:nonzero;stroke:none"
   transform="matrix(1,0,0,-1,338.809,141.10547)"><tspan
     id="tspan4070"
     y="0"
     x="0"
     style="-inkscape-font-specification:Calibri;font-family:Calibri;font-weight:normal;font-style:normal;font-stretch:normal;font-variant:normal">θ</tspan></text>

</g></g></g></g><g
       transform="translate(0,-0.278717)"
       id="g4080"><g
         id="g4082" /><g
         id="g4096"><g
           id="g4094"
           clip-path="url(#clipPath4086)"><g
             id="g4092"><text
   id="text4090"
   style="font-variant:normal;font-weight:300;font-size:15.98400021px;font-family:'Calibri Light';-inkscape-font-specification:Calibri-Light;writing-mode:lr-tb;fill:#000000;fill-opacity:1;fill-rule:nonzero;stroke:none"
   transform="matrix(1,0,0,-1,351.529,135.22547)"><tspan
     id="tspan4088"
     y="0"
     x="0"
     style="-inkscape-font-specification:Calibri;font-family:Calibri;font-weight:normal;font-style:normal;font-stretch:normal;font-variant:normal">2</tspan></text>

</g></g></g></g><path
       inkscape:connector-curvature="0"
       id="path4098"
       style="fill:#000000;fill-opacity:1;fill-rule:nonzero;stroke:none"
       d="m 682.609,25.815 v 9.121 h -2.281 v -9.121 z m 0,15.961 v 9.121 h -2.281 v -9.121 z m 0,15.961 v 9.121 h -2.281 v -9.121 z m 0,15.961 v 9.117 h -2.281 v -9.117 z m 0,15.957 v 9.121 h -2.281 v -9.121 z m 0,15.961 v 9.121 h -2.281 v -9.121 z m 0,15.961 v 9.121 h -2.281 v -9.121 z m 0,15.961 v 9.117 h -2.281 v -9.117 z m 0,15.961 v 9.117 h -2.281 v -9.117 z m 0,15.957 v 9.121 h -2.281 v -9.121 z m 0,15.961 v 4.781 h -2.281 v -4.781 z m 2.282,3.64 -3.422,6.84 -3.418,-6.84 z" /><path
       inkscape:connector-curvature="0"
       id="path4100"
       style="fill:#000000;fill-opacity:1;fill-rule:nonzero;stroke:none"
       d="m 681.109,27.358 h 9.121 v -2.281 h -9.121 z m 15.961,0 h 9.118 v -2.281 h -9.118 z m 15.957,0 h 9.121 v -2.281 h -9.121 z m 15.961,0 h 9.121 v -2.281 h -9.121 z m 15.961,0 h 9.121 v -2.281 h -9.121 z m 15.961,0 h 9.117 v -2.281 h -9.117 z m 15.957,0 h 9.121 v -2.281 h -9.121 z m 15.961,0 h 9.121 v -2.281 h -9.121 z m 15.961,0 h 9.121 v -2.281 h -9.121 z m 15.961,0 h 9.117 v -2.281 h -9.117 z m 15.961,0 h 4.777 v -2.281 h -4.777 z m 3.637,2.277 6.84,-3.418 -6.84,-3.421 z" /><path
       inkscape:connector-curvature="0"
       id="path4102"
       style="fill:#4472c4;fill-opacity:1;fill-rule:nonzero;stroke:none"
       d="m 680.051,25.686 -60.403,141.961 2.102,0.891 60.391,-141.961 z M 618,165.706 l 0.469,7.632 5.82,-4.96 z" /><path
       inkscape:connector-curvature="0"
       id="path4104"
       style="fill:#4472c4;fill-opacity:1;fill-rule:nonzero;stroke:none"
       d="m 681.188,25.546 147.363,61.39 -0.883,2.102 -147.359,-61.391 z m 147.191,58.839 4.988,5.793 -7.617,0.528 z" /><g
       transform="translate(0,-0.278717)"
       id="g4106"><g
         id="g4108" /><g
         id="g4122"><g
           id="g4120"
           clip-path="url(#clipPath4112)"><g
             id="g4118"><text
   id="text4116"
   style="font-variant:normal;font-weight:300;font-size:24px;font-family:'Calibri Light';-inkscape-font-specification:Calibri-Light;writing-mode:lr-tb;fill:#000000;fill-opacity:1;fill-rule:nonzero;stroke:none"
   transform="matrix(1,0,0,-1,663.219,195.85547)"><tspan
     id="tspan4114"
     y="0"
     x="0"
     style="-inkscape-font-specification:Calibri;font-family:Calibri;font-weight:normal;font-style:normal;font-stretch:normal;font-variant:normal">u</tspan></text>

</g></g></g></g><g
       transform="translate(0,-0.278717)"
       id="g4124"><g
         id="g4126" /><g
         id="g4140"><g
           id="g4138"
           clip-path="url(#clipPath4130)"><g
             id="g4136"><text
   id="text4134"
   style="font-variant:normal;font-weight:300;font-size:24.02400017px;font-family:'Calibri Light';-inkscape-font-specification:Calibri-Light;writing-mode:lr-tb;fill:#000000;fill-opacity:1;fill-rule:nonzero;stroke:none"
   transform="matrix(1,0,0,-1,840.599,1.575472)"><tspan
     id="tspan4132"
     y="0"
     x="0"
     style="-inkscape-font-specification:Calibri;font-family:Calibri;font-weight:normal;font-style:normal;font-stretch:normal;font-variant:normal">w</tspan></text>

</g></g></g></g><g
       transform="translate(0,-0.278717)"
       id="g4142"><g
         id="g4144" /><g
         id="g4158"><g
           id="g4156"
           clip-path="url(#clipPath4148)"><g
             id="g4154"><text
   id="text4152"
   style="font-variant:normal;font-weight:300;font-size:24px;font-family:'Calibri Light';-inkscape-font-specification:Calibri-Light;writing-mode:lr-tb;fill:#000000;fill-opacity:1;fill-rule:nonzero;stroke:none"
   transform="matrix(1,0,0,-1,792.219,43.185472)"><tspan
     id="tspan4150"
     y="0"
     x="0"
     style="-inkscape-font-specification:Calibri;font-family:Calibri;font-weight:normal;font-style:normal;font-stretch:normal;font-variant:normal">θ</tspan></text>

</g></g></g></g><g
       transform="translate(0,-0.278717)"
       id="g4160"><g
         id="g4162" /><g
         id="g4176"><g
           id="g4174"
           clip-path="url(#clipPath4166)"><g
             id="g4172"><text
   id="text4170"
   style="font-variant:normal;font-weight:300;font-size:15.96000004px;font-family:'Calibri Light';-inkscape-font-specification:Calibri-Light;writing-mode:lr-tb;fill:#000000;fill-opacity:1;fill-rule:nonzero;stroke:none"
   transform="matrix(1,0,0,-1,804.959,37.305472)"><tspan
     id="tspan4168"
     y="0"
     x="0"
     style="-inkscape-font-specification:Calibri;font-family:Calibri;font-weight:normal;font-style:normal;font-stretch:normal;font-variant:normal">3</tspan></text>

</g></g></g></g><g
       transform="translate(0,-0.278717)"
       id="g4178"><g
         id="g4180" /><g
         id="g4194"><g
           id="g4192"
           clip-path="url(#clipPath4184)"><g
             id="g4190"><text
   id="text4188"
   style="font-variant:normal;font-weight:300;font-size:24px;font-family:'Calibri Light';-inkscape-font-specification:Calibri-Light;writing-mode:lr-tb;fill:#000000;fill-opacity:1;fill-rule:nonzero;stroke:none"
   transform="matrix(1,0,0,-1,650.089,140.33547)"><tspan
     id="tspan4186"
     y="0"
     x="0"
     style="-inkscape-font-specification:Calibri;font-family:Calibri;font-weight:normal;font-style:normal;font-stretch:normal;font-variant:normal">θ</tspan></text>

</g></g></g></g><g
       transform="translate(0,-0.278717)"
       id="g4196"><g
         id="g4198" /><g
         id="g4212"><g
           id="g4210"
           clip-path="url(#clipPath4202)"><g
             id="g4208"><text
   id="text4206"
   style="font-variant:normal;font-weight:300;font-size:15.96000004px;font-family:'Calibri Light';-inkscape-font-specification:Calibri-Light;writing-mode:lr-tb;fill:#000000;fill-opacity:1;fill-rule:nonzero;stroke:none"
   transform="matrix(1,0,0,-1,662.809,134.45547)"><tspan
     id="tspan4204"
     y="0"
     x="0"
     style="-inkscape-font-specification:Calibri;font-family:Calibri;font-weight:normal;font-style:normal;font-stretch:normal;font-variant:normal">3</tspan></text>

</g></g></g></g><path
       inkscape:connector-curvature="0"
       id="path4214"
       style="fill:#000000;fill-opacity:1;fill-rule:nonzero;stroke:none"
       d="m 467.109,64.518 0.539,-1.39 0.84,-2.332 0.77,-2.348 0.722,-2.371 0.68,-2.371 0.61,-2.399 0.55,-2.41 0.489,-2.422 0.441,-2.418 0.379,-2.449 0.32,-2.453 0.27,-2.449 0.211,-2.469 0.14,-2.469 0.09,-2.472 0.028,-2.469 -1,-0.02 -0.028,2.469 v -0.008 l -0.09,2.457 v -0.008 l -0.14,2.461 v -0.023 l -0.211,2.461 v -0.008 l -0.258,2.438 v -0.008 l -0.32,2.437 0.007,-0.019 -0.39,2.429 0.012,-0.007 -0.442,2.418 v -0.008 l -0.488,2.398 v -0.008 l -0.551,2.399 0.012,-0.012 -0.613,2.391 v -0.02 l -0.668,2.371 0.007,-0.011 -0.718,2.351 v -0.012 l -0.77,2.34 v -0.008 l -0.828,2.321 v -0.02 l -0.531,1.379 z m -2.05,-6.972 1.23,7.71 6.102,-4.859 c 0.207,-0.18 0.25,-0.492 0.078,-0.711 -0.168,-0.211 -0.489,-0.25 -0.699,-0.078 l -5.442,4.328 0.813,0.32 -1.102,-6.859 c -0.039,-0.281 -0.301,-0.461 -0.57,-0.422 -0.27,0.043 -0.461,0.301 -0.41,0.571 z" /><path
       inkscape:connector-curvature="0"
       id="path4216"
       style="fill:#000000;fill-opacity:1;fill-rule:nonzero;stroke:none"
       d="m 329.879,123.186 1.441,0.602 2.391,0.91 2.387,0.859 2.429,0.801 2.442,0.738 2.449,0.672 2.48,0.61 2.481,0.558 2.5,0.5 2.512,0.43 2.507,0.383 2.54,0.297 2.542,0.25 2.528,0.179 2.562,0.133 2.547,0.059 0.024,-1 -2.543,-0.059 h 0.011 l -2.539,-0.121 h 0.008 l -2.527,-0.18 h 0.019 l -2.531,-0.25 h 0.012 l -2.524,-0.308 0.012,0.007 -2.5,-0.378 h 0.012 l -2.5,-0.43 0.019,0.008 -2.492,-0.5 h 0.012 l -2.473,-0.551 h 0.012 l -2.461,-0.609 0.012,0.011 -2.442,-0.679 0.012,0.007 -2.422,-0.738 0.012,0.008 -2.422,-0.797 h 0.02 l -2.387,-0.852 h 0.008 l -2.379,-0.898 h 0.019 l -1.441,-0.59 z m 7.012,-1.89 -7.731,1.05 4.707,6.211 c 0.172,0.219 0.481,0.27 0.703,0.098 0.219,-0.168 0.27,-0.477 0.098,-0.699 l -4.199,-5.528 -0.328,0.789 6.879,-0.929 c 0.281,-0.039 0.468,-0.289 0.429,-0.563 -0.039,-0.269 -0.289,-0.469 -0.558,-0.429 z" /><path
       inkscape:connector-curvature="0"
       id="path4218"
       style="fill:#000000;fill-opacity:1;fill-rule:nonzero;stroke:none"
       d="m 778.391,64.878 0.539,-1.391 0.84,-2.332 0.769,-2.348 0.719,-2.371 0.68,-2.371 0.613,-2.398 0.547,-2.411 0.492,-2.418 0.437,-2.421 0.383,-2.45 0.32,-2.449 0.27,-2.453 0.211,-2.469 0.137,-2.468 0.09,-2.473 0.031,-2.469 -1,-0.019 -0.031,2.468 v -0.007 l -0.09,2.46 v -0.011 l -0.137,2.461 v -0.02 L 784,36.975 v -0.008 l -0.262,2.438 v -0.008 l -0.32,2.441 0.012,-0.023 -0.391,2.434 0.012,-0.012 -0.442,2.418 v -0.008 l -0.492,2.399 v -0.008 l -0.547,2.398 0.008,-0.008 -0.609,2.387 v -0.019 l -0.668,2.371 0.008,-0.012 -0.719,2.351 v -0.007 l -0.77,2.339 v -0.011 l -0.832,2.32 v -0.019 l -0.527,1.378 z m -2.051,-6.973 1.23,7.711 6.098,-4.86 c 0.211,-0.179 0.25,-0.488 0.082,-0.71 -0.172,-0.208 -0.492,-0.25 -0.699,-0.079 l -5.442,4.329 0.809,0.32 -1.098,-6.86 c -0.043,-0.281 -0.3,-0.46 -0.57,-0.418 -0.27,0.04 -0.461,0.297 -0.41,0.567 z" /><path
       inkscape:connector-curvature="0"
       id="path4220"
       style="fill:#000000;fill-opacity:1;fill-rule:nonzero;stroke:none"
       d="m 641.039,123.546 1.441,0.601 2.387,0.91 2.391,0.86 2.43,0.8 2.441,0.739 2.449,0.672 2.481,0.609 2.48,0.559 2.5,0.5 2.512,0.429 2.508,0.383 2.539,0.297 2.543,0.25 2.527,0.183 2.562,0.129 2.547,0.059 0.024,-1 -2.543,-0.059 h 0.012 l -2.54,-0.121 h 0.008 l -2.527,-0.179 h 0.019 l -2.531,-0.25 h 0.012 l -2.523,-0.309 0.011,0.008 -2.5,-0.379 h 0.012 l -2.5,-0.43 0.019,0.008 -2.492,-0.5 h 0.012 l -2.473,-0.547 h 0.012 l -2.461,-0.613 0.012,0.012 -2.442,-0.68 0.012,0.012 -2.422,-0.743 0.012,0.012 -2.422,-0.801 h 0.02 l -2.387,-0.851 h 0.008 l -2.379,-0.899 h 0.019 l -1.441,-0.589 z m 7.012,-1.891 -7.731,1.051 4.707,6.211 c 0.172,0.218 0.481,0.269 0.703,0.101 0.219,-0.172 0.27,-0.48 0.098,-0.703 l -4.199,-5.527 -0.328,0.789 6.879,-0.93 c 0.281,-0.039 0.468,-0.289 0.429,-0.559 -0.039,-0.273 -0.289,-0.472 -0.558,-0.433 z" /><g
       transform="translate(0,-0.278717)"
       id="g4222"><g
         id="g4224" /><g
         id="g4238"><g
           id="g4236"
           clip-path="url(#clipPath4228)"><g
             id="g4234"><text
   id="text4232"
   style="font-variant:normal;font-weight:300;font-size:24px;font-family:'Calibri Light';-inkscape-font-specification:Calibri-Light;writing-mode:lr-tb;fill:#4472c4;fill-opacity:1;fill-rule:nonzero;stroke:none"
   transform="matrix(1,0,0,-1,601.319,187.97547)"><tspan
     id="tspan4230"
     y="0"
     x="0"
     style="-inkscape-font-specification:Calibri;font-family:Calibri;font-weight:normal;font-style:normal;font-stretch:normal;font-variant:normal">x</tspan></text>

</g></g></g></g><g
       transform="translate(0,-0.278717)"
       id="g4240"><g
         id="g4242" /><g
         id="g4256"><g
           id="g4254"
           clip-path="url(#clipPath4246)"><g
             id="g4252"><text
   id="text4250"
   style="font-variant:normal;font-weight:300;font-size:15.96000004px;font-family:'Calibri Light';-inkscape-font-specification:Calibri-Light;writing-mode:lr-tb;fill:#4472c4;fill-opacity:1;fill-rule:nonzero;stroke:none"
   transform="matrix(1,0,0,-1,611.759,182.09547)"><tspan
     id="tspan4248"
     y="0"
     x="0"
     style="-inkscape-font-specification:Calibri;font-family:Calibri;font-weight:normal;font-style:normal;font-stretch:normal;font-variant:normal">M</tspan></text>

</g></g></g></g><g
       transform="translate(0,-0.278717)"
       id="g4258"><g
         id="g4260" /><g
         id="g4274"><g
           id="g4272"
           clip-path="url(#clipPath4264)"><g
             id="g4270"><text
   id="text4268"
   style="font-variant:normal;font-weight:300;font-size:24px;font-family:'Calibri Light';-inkscape-font-specification:Calibri-Light;writing-mode:lr-tb;fill:#4472c4;fill-opacity:1;fill-rule:nonzero;stroke:none"
   transform="matrix(1,0,0,-1,823.729,103.95547)"><tspan
     id="tspan4266"
     y="0"
     x="0"
     style="-inkscape-font-specification:Calibri;font-family:Calibri;font-weight:normal;font-style:normal;font-stretch:normal;font-variant:normal">z</tspan></text>

</g></g></g></g><g
       transform="translate(0,-0.278717)"
       id="g4276"><g
         id="g4278" /><g
         id="g4292"><g
           id="g4290"
           clip-path="url(#clipPath4282)"><g
             id="g4288"><text
   id="text4286"
   style="font-variant:normal;font-weight:300;font-size:15.96000004px;font-family:'Calibri Light';-inkscape-font-specification:Calibri-Light;writing-mode:lr-tb;fill:#4472c4;fill-opacity:1;fill-rule:nonzero;stroke:none"
   transform="matrix(1,0,0,-1,833.209,98.075472)"><tspan
     id="tspan4284"
     y="0"
     x="0"
     style="-inkscape-font-specification:Calibri;font-family:Calibri;font-weight:normal;font-style:normal;font-stretch:normal;font-variant:normal">M</tspan></text>

</g></g></g></g><g
       transform="translate(0,-0.278717)"
       id="g4294"><g
         id="g4296" /><g
         id="g4310"><g
           id="g4308"
           clip-path="url(#clipPath4300)"><g
             id="g4306"><text
   id="text4304"
   style="font-variant:normal;font-weight:300;font-size:24px;font-family:'Calibri Light';-inkscape-font-specification:Calibri-Light;writing-mode:lr-tb;fill:#4472c4;fill-opacity:1;fill-rule:nonzero;stroke:none"
   transform="matrix(1,0,0,-1,657.579,10.185472)"><tspan
     id="tspan4302"
     y="0"
     x="0"
     style="-inkscape-font-specification:Calibri;font-family:Calibri;font-weight:normal;font-style:normal;font-stretch:normal;font-variant:normal">y</tspan></text>

</g></g></g></g><g
       transform="translate(0,-0.278717)"
       id="g4312"><g
         id="g4314" /><g
         id="g4328"><g
           id="g4326"
           clip-path="url(#clipPath4318)"><g
             id="g4324"><text
   id="text4322"
   style="font-variant:normal;font-weight:300;font-size:15.96000004px;font-family:'Calibri Light';-inkscape-font-specification:Calibri-Light;writing-mode:lr-tb;fill:#4472c4;fill-opacity:1;fill-rule:nonzero;stroke:none"
   transform="matrix(1,0,0,-1,668.499,4.305472)"><tspan
     id="tspan4320"
     y="0"
     x="0"
     style="-inkscape-font-specification:Calibri;font-family:Calibri;font-weight:normal;font-style:normal;font-stretch:normal;font-variant:normal">M</tspan></text>

</g></g></g></g><text
       xml:space="preserve"
       style="font-style:normal;font-weight:normal;font-size:30px;line-height:1.25;font-family:sans-serif;letter-spacing:0px;word-spacing:0px;fill:#000000;fill-opacity:1;stroke:none;stroke-width:0.75"
       x="-28.281136"
       y="-251.06721"
       id="text1147"
       transform="scale(1,-1)"><tspan
         sodipodi:role="line"
         id="tspan1145"
         x="-28.281136"
         y="-224.52425"
         style="stroke-width:0.75" /></text>
</g></svg>