<?xml version="1.0" encoding="UTF-8" standalone="no"?>
<!-- Created with Inkscape (http://www.inkscape.org/) -->

<svg
   xmlns:dc="http://purl.org/dc/elements/1.1/"
   xmlns:cc="http://creativecommons.org/ns#"
   xmlns:rdf="http://www.w3.org/1999/02/22-rdf-syntax-ns#"
   xmlns:svg="http://www.w3.org/2000/svg"
   xmlns="http://www.w3.org/2000/svg"
   xmlns:sodipodi="http://sodipodi.sourceforge.net/DTD/sodipodi-0.dtd"
   xmlns:inkscape="http://www.inkscape.org/namespaces/inkscape"
   version="1.1"
   id="svg2138"
   xml:space="preserve"
   width="805.71002"
   height="561.27832"
   viewBox="0 0 805.71002 561.27832"
   sodipodi:docname="Stewart_param3.svg"
   inkscape:version="0.92.3 (2405546, 2018-03-11)"><metadata
     id="metadata2144"><rdf:RDF><cc:Work
         rdf:about=""><dc:format>image/svg+xml</dc:format><dc:type
           rdf:resource="http://purl.org/dc/dcmitype/StillImage" /><dc:title /></cc:Work></rdf:RDF></metadata><defs
     id="defs2142"><clipPath
       clipPathUnits="userSpaceOnUse"
       id="clipPath2170"><path
         d="m 500,324 h 96 v 47 h -96 z"
         id="path2168"
         inkscape:connector-curvature="0" /></clipPath><clipPath
       clipPathUnits="userSpaceOnUse"
       id="clipPath2192"><path
         d="m 3,165 h 10 v 13 H 3 Z"
         id="path2190"
         inkscape:connector-curvature="0" /></clipPath><clipPath
       clipPathUnits="userSpaceOnUse"
       id="clipPath2210"><path
         d="m 15,160 h 6 v 11 h -6 z"
         id="path2208"
         inkscape:connector-curvature="0" /></clipPath><clipPath
       clipPathUnits="userSpaceOnUse"
       id="clipPath2228"><path
         d="m 470,1 h 10 v 17 h -10 z"
         id="path2226"
         inkscape:connector-curvature="0" /></clipPath><clipPath
       clipPathUnits="userSpaceOnUse"
       id="clipPath2246"><path
         d="m 481,0 h 7 v 11 h -7 z"
         id="path2244"
         inkscape:connector-curvature="0" /></clipPath><clipPath
       clipPathUnits="userSpaceOnUse"
       id="clipPath2264"><path
         d="m 365,403 h 8 v 12 h -8 z"
         id="path2262"
         inkscape:connector-curvature="0" /></clipPath><clipPath
       clipPathUnits="userSpaceOnUse"
       id="clipPath2282"><path
         d="m 374,397 h 7 v 12 h -7 z"
         id="path2280"
         inkscape:connector-curvature="0" /></clipPath><clipPath
       clipPathUnits="userSpaceOnUse"
       id="clipPath2300"><path
         d="m 324,241 h 14 v 17 h -14 z"
         id="path2298"
         inkscape:connector-curvature="0" /></clipPath><clipPath
       clipPathUnits="userSpaceOnUse"
       id="clipPath2318"><path
         d="m 340,235 h 6 v 11 h -6 z"
         id="path2316"
         inkscape:connector-curvature="0" /></clipPath><clipPath
       clipPathUnits="userSpaceOnUse"
       id="clipPath2338"><path
         d="m 476,296 h 7 v 12 h -7 z"
         id="path2336"
         inkscape:connector-curvature="0" /></clipPath><clipPath
       clipPathUnits="userSpaceOnUse"
       id="clipPath2356"><path
         d="m 484,290 h 6 v 11 h -6 z"
         id="path2354"
         inkscape:connector-curvature="0" /></clipPath><clipPath
       clipPathUnits="userSpaceOnUse"
       id="clipPath2376"><path
         d="m 63,121 h 12 v 13 H 63 Z"
         id="path2374"
         inkscape:connector-curvature="0" /></clipPath><clipPath
       clipPathUnits="userSpaceOnUse"
       id="clipPath2394"><path
         d="m 132,130 h 11 v 17 h -11 z"
         id="path2392"
         inkscape:connector-curvature="0" /></clipPath><clipPath
       clipPathUnits="userSpaceOnUse"
       id="clipPath2412"><path
         d="m 144,124 h 2 v 12 h -2 z"
         id="path2410"
         inkscape:connector-curvature="0" /></clipPath><clipPath
       clipPathUnits="userSpaceOnUse"
       id="clipPath2430"><path
         d="m 69,143 h 8 v 19 h -8 z"
         id="path2428"
         inkscape:connector-curvature="0" /></clipPath></defs><sodipodi:namedview
     pagecolor="#ffffff"
     bordercolor="#666666"
     borderopacity="1"
     objecttolerance="10"
     gridtolerance="10"
     guidetolerance="10"
     inkscape:pageopacity="0"
     inkscape:pageshadow="2"
     inkscape:window-width="3110"
     inkscape:window-height="1697"
     id="namedview2140"
     showgrid="false"
     inkscape:zoom="2.1816493"
     inkscape:cx="405.4998"
     inkscape:cy="267.55852"
     inkscape:window-x="90"
     inkscape:window-y="55"
     inkscape:window-maximized="1"
     inkscape:current-layer="g2146" /><g
     id="g2146"
     inkscape:groupmode="layer"
     inkscape:label="Stewart_cin3"
     transform="matrix(1.3333333,0,0,-1.3333333,0,561.27832)"><path
       inkscape:connector-curvature="0"
       id="path2150"
       style="fill:#c5e0b4;fill-opacity:1;fill-rule:evenodd;stroke:#41719c;stroke-width:0.95999998;stroke-linecap:butt;stroke-linejoin:miter;stroke-miterlimit:10;stroke-dasharray:none;stroke-opacity:1"
       d="m 82.922,196.49 5.719,-65.801 463.57,-105.851 51.508,31.472 -88.707,331.867 -74.403,14.301 z" /><path
       inkscape:connector-curvature="0"
       id="path2152"
       style="fill:#ffffff;fill-opacity:1;fill-rule:evenodd;stroke:#41719c;stroke-width:0.95999998;stroke-linecap:butt;stroke-linejoin:miter;stroke-miterlimit:10;stroke-dasharray:none;stroke-opacity:1"
       d="m 485.281,369.478 c 0,7.032 5.688,12.719 12.719,12.719 7.02,0 12.719,-5.687 12.719,-12.719 0,-7.031 -5.699,-12.718 -12.719,-12.718 -7.031,0 -12.719,5.687 -12.719,12.718 z" /><path
       inkscape:connector-curvature="0"
       id="path2154"
       style="fill:#ffffff;fill-opacity:1;fill-rule:evenodd;stroke:#41719c;stroke-width:0.95999998;stroke-linecap:butt;stroke-linejoin:miter;stroke-miterlimit:10;stroke-dasharray:none;stroke-opacity:1"
       d="m 431.641,382.92 c 0,7.027 5.687,12.718 12.718,12.718 7.032,0 12.719,-5.691 12.719,-12.718 0,-7.032 -5.687,-12.723 -12.719,-12.723 -7.031,0 -12.718,5.691 -12.718,12.723 z" /><path
       inkscape:connector-curvature="0"
       id="path2156"
       style="fill:#ffffff;fill-opacity:1;fill-rule:evenodd;stroke:#41719c;stroke-width:0.95999998;stroke-linecap:butt;stroke-linejoin:miter;stroke-miterlimit:10;stroke-dasharray:none;stroke-opacity:1"
       d="m 566.398,63.838 c 0,7.031 5.692,12.722 12.723,12.722 7.02,0 12.719,-5.691 12.719,-12.722 0,-7.028 -5.699,-12.719 -12.719,-12.719 -7.031,0 -12.723,5.691 -12.723,12.719 z" /><path
       inkscape:connector-curvature="0"
       id="path2158"
       style="fill:#ffffff;fill-opacity:1;fill-rule:evenodd;stroke:#41719c;stroke-width:0.95999998;stroke-linecap:butt;stroke-linejoin:miter;stroke-miterlimit:10;stroke-dasharray:none;stroke-opacity:1"
       d="m 536.039,49.74 c 0,6.988 5.691,12.66 12.723,12.66 7.027,0 12.718,-5.672 12.718,-12.66 0,-6.992 -5.691,-12.66 -12.718,-12.66 -7.032,0 -12.723,5.668 -12.723,12.66 z" /><path
       inkscape:connector-curvature="0"
       id="path2160"
       style="fill:#ffffff;fill-opacity:1;fill-rule:evenodd;stroke:#41719c;stroke-width:0.95999998;stroke-linecap:butt;stroke-linejoin:miter;stroke-miterlimit:10;stroke-dasharray:none;stroke-opacity:1"
       d="m 94.922,188.037 c 0,7.031 5.687,12.723 12.719,12.723 7.031,0 12.718,-5.692 12.718,-12.723 0,-7.027 -5.687,-12.719 -12.718,-12.719 -7.032,0 -12.719,5.692 -12.719,12.719 z" /><path
       inkscape:connector-curvature="0"
       id="path2162"
       style="fill:#ffffff;fill-opacity:1;fill-rule:evenodd;stroke:#41719c;stroke-width:0.95999998;stroke-linecap:butt;stroke-linejoin:miter;stroke-miterlimit:10;stroke-dasharray:none;stroke-opacity:1"
       d="m 98.52,148.56 c 0,7.028 5.671,12.719 12.66,12.719 6.992,0 12.66,-5.691 12.66,-12.719 0,-7.031 -5.668,-12.722 -12.66,-12.722 -6.989,0 -12.66,5.691 -12.66,12.722 z" /><g
       transform="translate(0,-0.0412598)"
       id="g2164"><g
         id="g2166" /><g
         id="g2178"><g
           id="g2176"
           clip-path="url(#clipPath2170)"><g
             id="g2174"><path
               inkscape:connector-curvature="0"
               id="path2172"
               style="fill:none;stroke:#70ad47;stroke-width:0.5;stroke-linecap:butt;stroke-linejoin:miter;stroke-miterlimit:10;stroke-dasharray:none;stroke-opacity:1"
               d="m 500.75,370.289 c 36.391,-9.82 68.609,-25.219 94.391,-45.129" /></g></g></g></g><path
       inkscape:connector-curvature="0"
       id="path2180"
       style="fill:#70ad47;fill-opacity:1;fill-rule:nonzero;stroke:none"
       d="M 385.551,215.818 460.719,16.513 459.781,16.158 384.609,215.459 Z M 462.699,18.33 462.012,11.658 457.09,16.213 Z" /><path
       inkscape:connector-curvature="0"
       id="path2182"
       style="fill:#70ad47;fill-opacity:1;fill-rule:nonzero;stroke:none"
       d="M 384.98,216.131 4.84,151.177 5.012,150.197 385.148,215.15 Z M 5.41,153.818 0,149.849 6.422,147.9 Z" /><path
       inkscape:connector-curvature="0"
       id="path2184"
       style="fill:#70ad47;fill-opacity:1;fill-rule:nonzero;stroke:none"
       d="m 385.578,215.631 v 200.328 h -1 V 215.631 Z m 2.5,199.328 -3,6 -3,-6 z" /><g
       transform="translate(0,-0.0412598)"
       id="g2186"><g
         id="g2188" /><g
         id="g2202"><g
           id="g2200"
           clip-path="url(#clipPath2192)"><g
             id="g2198"><text
   id="text2196"
   style="font-variant:normal;font-weight:300;font-size:24px;font-family:'Calibri Light';-inkscape-font-specification:Calibri-Light;writing-mode:lr-tb;fill:#70ad47;fill-opacity:1;fill-rule:nonzero;stroke:none"
   transform="matrix(1,0,0,-1,3.43,165.95)"><tspan
     id="tspan2194"
     y="0"
     x="0"
     style="-inkscape-font-specification:Calibri;font-family:Calibri;font-weight:normal;font-style:normal;font-stretch:normal;font-variant:normal">x</tspan></text>

</g></g></g></g><g
       transform="translate(0,-0.0412598)"
       id="g2204"><g
         id="g2206" /><g
         id="g2220"><g
           id="g2218"
           clip-path="url(#clipPath2210)"><g
             id="g2216"><text
   id="text2214"
   style="font-variant:normal;font-weight:300;font-size:15.96000004px;font-family:'Calibri Light';-inkscape-font-specification:Calibri-Light;writing-mode:lr-tb;fill:#70ad47;fill-opacity:1;fill-rule:nonzero;stroke:none"
   transform="matrix(1,0,0,-1,13.87,160.07)"><tspan
     id="tspan2212"
     y="0"
     x="0"
     style="-inkscape-font-specification:Calibri;font-family:Calibri;font-weight:normal;font-style:normal;font-stretch:normal;font-variant:normal">F</tspan></text>

</g></g></g></g><g
       transform="translate(0,-0.0412598)"
       id="g2222"><g
         id="g2224" /><g
         id="g2238"><g
           id="g2236"
           clip-path="url(#clipPath2228)"><g
             id="g2234"><text
   id="text2232"
   style="font-variant:normal;font-weight:300;font-size:24px;font-family:'Calibri Light';-inkscape-font-specification:Calibri-Light;writing-mode:lr-tb;fill:#70ad47;fill-opacity:1;fill-rule:nonzero;stroke:none"
   transform="matrix(1,0,0,-1,469.56,5.968)"><tspan
     id="tspan2230"
     y="0"
     x="0"
     style="-inkscape-font-specification:Calibri;font-family:Calibri;font-weight:normal;font-style:normal;font-stretch:normal;font-variant:normal">y</tspan></text>

</g></g></g></g><g
       transform="translate(0,-0.0412598)"
       id="g2240"><g
         id="g2242" /><g
         id="g2256"><g
           id="g2254"
           clip-path="url(#clipPath2246)"><g
             id="g2252"><text
   id="text2250"
   style="font-variant:normal;font-weight:300;font-size:15.96000004px;font-family:'Calibri Light';-inkscape-font-specification:Calibri-Light;writing-mode:lr-tb;fill:#70ad47;fill-opacity:1;fill-rule:nonzero;stroke:none"
   transform="matrix(1,0,0,-1,480.48,0.088)"><tspan
     id="tspan2248"
     y="0"
     x="0"
     style="-inkscape-font-specification:Calibri;font-family:Calibri;font-weight:normal;font-style:normal;font-stretch:normal;font-variant:normal">F</tspan></text>

</g></g></g></g><g
       transform="translate(0,-0.0412598)"
       id="g2258"><g
         id="g2260" /><g
         id="g2274"><g
           id="g2272"
           clip-path="url(#clipPath2264)"><g
             id="g2270"><text
   id="text2268"
   style="font-variant:normal;font-weight:300;font-size:24px;font-family:'Calibri Light';-inkscape-font-specification:Calibri-Light;writing-mode:lr-tb;fill:#70ad47;fill-opacity:1;fill-rule:nonzero;stroke:none"
   transform="matrix(1,0,0,-1,364.01,403.91)"><tspan
     id="tspan2266"
     y="0"
     x="0"
     style="-inkscape-font-specification:Calibri;font-family:Calibri;font-weight:normal;font-style:normal;font-stretch:normal;font-variant:normal">z</tspan></text>

</g></g></g></g><g
       transform="translate(0,-0.0412598)"
       id="g2276"><g
         id="g2278" /><g
         id="g2292"><g
           id="g2290"
           clip-path="url(#clipPath2282)"><g
             id="g2288"><text
   id="text2286"
   style="font-variant:normal;font-weight:300;font-size:15.96000004px;font-family:'Calibri Light';-inkscape-font-specification:Calibri-Light;writing-mode:lr-tb;fill:#70ad47;fill-opacity:1;fill-rule:nonzero;stroke:none"
   transform="matrix(1,0,0,-1,373.49,398.03)"><tspan
     id="tspan2284"
     y="0"
     x="0"
     style="-inkscape-font-specification:Calibri;font-family:Calibri;font-weight:normal;font-style:normal;font-stretch:normal;font-variant:normal">F</tspan></text>

</g></g></g></g><g
       transform="translate(0,-0.0412598)"
       id="g2294"><g
         id="g2296" /><g
         id="g2310"><g
           id="g2308"
           clip-path="url(#clipPath2300)"><g
             id="g2306"><text
   id="text2304"
   style="font-variant:normal;font-weight:300;font-size:24px;font-family:'Calibri Light';-inkscape-font-specification:Calibri-Light;writing-mode:lr-tb;fill:#70ad47;fill-opacity:1;fill-rule:nonzero;stroke:none"
   transform="matrix(1,0,0,-1,323.11,241.77)"><tspan
     id="tspan2302"
     y="0"
     x="0"
     style="-inkscape-font-specification:Calibri;font-family:Calibri;font-weight:normal;font-style:normal;font-stretch:normal;font-variant:normal">O</tspan></text>

</g></g></g></g><g
       transform="translate(0,-0.0412598)"
       id="g2312"><g
         id="g2314" /><g
         id="g2328"><g
           id="g2326"
           clip-path="url(#clipPath2318)"><g
             id="g2324"><text
   id="text2322"
   style="font-variant:normal;font-weight:300;font-size:15.96000004px;font-family:'Calibri Light';-inkscape-font-specification:Calibri-Light;writing-mode:lr-tb;fill:#70ad47;fill-opacity:1;fill-rule:nonzero;stroke:none"
   transform="matrix(1,0,0,-1,338.95,235.89)"><tspan
     id="tspan2320"
     y="0"
     x="0"
     style="-inkscape-font-specification:Calibri;font-family:Calibri;font-weight:normal;font-style:normal;font-stretch:normal;font-variant:normal">F</tspan></text>

</g></g></g></g><path
       inkscape:connector-curvature="0"
       id="path2330"
       style="fill:#70ad47;fill-opacity:1;fill-rule:nonzero;stroke:none"
       d="M 384.629,215.857 571.18,334.568 570.641,335.42 384.09,216.697 Z m 187.051,116.07 3.449,5.75 -6.668,-0.687 z" /><g
       transform="translate(0,-0.0412598)"
       id="g2332"><g
         id="g2334" /><g
         id="g2348"><g
           id="g2346"
           clip-path="url(#clipPath2338)"><g
             id="g2344"><text
   id="text2342"
   style="font-variant:normal;font-weight:300;font-size:24px;font-family:'Calibri Light';-inkscape-font-specification:Calibri-Light;writing-mode:lr-tb;fill:#70ad47;fill-opacity:1;fill-rule:nonzero;stroke:none"
   transform="matrix(1,0,0,-1,474.86,296.44)"><tspan
     id="tspan2340"
     y="0"
     x="0"
     style="-inkscape-font-specification:Calibri;font-family:Calibri;font-weight:normal;font-style:normal;font-stretch:normal;font-variant:normal">r</tspan></text>

</g></g></g></g><g
       transform="translate(0,-0.0412598)"
       id="g2350"><g
         id="g2352" /><g
         id="g2366"><g
           id="g2364"
           clip-path="url(#clipPath2356)"><g
             id="g2362"><text
   id="text2360"
   style="font-variant:normal;font-weight:300;font-size:15.96000004px;font-family:'Calibri Light';-inkscape-font-specification:Calibri-Light;writing-mode:lr-tb;fill:#70ad47;fill-opacity:1;fill-rule:nonzero;stroke:none"
   transform="matrix(1,0,0,-1,483.26,290.56)"><tspan
     id="tspan2358"
     y="0"
     x="0"
     style="-inkscape-font-specification:Calibri;font-family:Calibri;font-weight:normal;font-style:normal;font-stretch:normal;font-variant:normal">F</tspan></text>

</g></g></g></g><path
       inkscape:connector-curvature="0"
       id="path2368"
       style="fill:none;stroke:#70ad47;stroke-width:0.47999999;stroke-linecap:butt;stroke-linejoin:miter;stroke-miterlimit:10;stroke-dasharray:none;stroke-opacity:1"
       d="M 384.871,216.72 34.078,136.99" /><g
       transform="translate(0,-0.0412598)"
       id="g2370"><g
         id="g2372" /><g
         id="g2386"><g
           id="g2384"
           clip-path="url(#clipPath2376)"><g
             id="g2382"><text
   id="text2380"
   style="font-variant:normal;font-weight:300;font-size:24px;font-family:'Calibri Light';-inkscape-font-specification:Calibri-Light;writing-mode:lr-tb;fill:#70ad47;fill-opacity:1;fill-rule:nonzero;stroke:none"
   transform="matrix(1,0,0,-1,62.16,121.98)"><tspan
     id="tspan2378"
     y="0"
     x="0"
     style="-inkscape-font-specification:Calibri;font-family:Calibri;font-weight:normal;font-style:normal;font-stretch:normal;font-variant:normal">α</tspan></text>

</g></g></g></g><g
       transform="translate(0,-0.0412598)"
       id="g2388"><g
         id="g2390" /><g
         id="g2404"><g
           id="g2402"
           clip-path="url(#clipPath2394)"><g
             id="g2400"><text
   id="text2398"
   style="font-variant:normal;font-weight:300;font-size:24px;font-family:'Calibri Light';-inkscape-font-specification:Calibri-Light;writing-mode:lr-tb;fill:#70ad47;fill-opacity:1;fill-rule:nonzero;stroke:none"
   transform="matrix(1,0,0,-1,130.49,130.84)"><tspan
     id="tspan2396"
     y="0"
     x="0"
     style="-inkscape-font-specification:Calibri;font-family:Calibri;font-weight:normal;font-style:normal;font-stretch:normal;font-variant:normal">B</tspan></text>

</g></g></g></g><g
       transform="translate(0,-0.0412598)"
       id="g2406"><g
         id="g2408" /><g
         id="g2422"><g
           id="g2420"
           clip-path="url(#clipPath2412)"><g
             id="g2418"><text
   id="text2416"
   style="font-variant:normal;font-weight:300;font-size:15.96000004px;font-family:'Calibri Light';-inkscape-font-specification:Calibri-Light;writing-mode:lr-tb;fill:#70ad47;fill-opacity:1;fill-rule:nonzero;stroke:none"
   transform="matrix(1,0,0,-1,143.57,124.96)"><tspan
     id="tspan2414"
     y="0"
     x="0"
     style="-inkscape-font-specification:Calibri;font-family:Calibri;font-weight:normal;font-style:normal;font-stretch:normal;font-variant:normal">i</tspan></text>

</g></g></g></g><g
       transform="translate(0,-0.0412598)"
       id="g2424"><g
         id="g2426" /><g
         id="g2438"><g
           id="g2436"
           clip-path="url(#clipPath2430)"><g
             id="g2434"><path
               inkscape:connector-curvature="0"
               id="path2432"
               style="fill:#70ad47;fill-opacity:1;fill-rule:nonzero;stroke:none"
               d="m 73.398,144.84 -0.519,3.379 -0.539,4.359 -0.399,4.391 -0.269,4.402 1,0.051 0.258,-4.383 v 0.012 l 0.398,-4.371 v 0.019 l 0.543,-4.347 v 0.007 L 74.391,145 Z m 3.5,6.359 -2.847,-7.258 -4.922,6.059 c -0.18,0.211 -0.141,0.531 0.07,0.699 0.211,0.172 0.531,0.141 0.699,-0.07 l 4.383,-5.391 -0.851,-0.136 2.539,6.468 c 0.101,0.258 0.39,0.379 0.64,0.282 0.262,-0.102 0.391,-0.391 0.289,-0.653 z" /></g></g></g></g></g></svg>