<?xml version="1.0" encoding="UTF-8" standalone="no"?>
<!-- Created with Inkscape (http://www.inkscape.org/) -->

<svg
   xmlns:dc="http://purl.org/dc/elements/1.1/"
   xmlns:cc="http://creativecommons.org/ns#"
   xmlns:rdf="http://www.w3.org/1999/02/22-rdf-syntax-ns#"
   xmlns:svg="http://www.w3.org/2000/svg"
   xmlns="http://www.w3.org/2000/svg"
   xmlns:sodipodi="http://sodipodi.sourceforge.net/DTD/sodipodi-0.dtd"
   xmlns:inkscape="http://www.inkscape.org/namespaces/inkscape"
   version="1.1"
   id="svg2"
   xml:space="preserve"
   width="1280"
   height="720"
   viewBox="0 0 1280 720"
   sodipodi:docname="Stewart_param1.svg"
   inkscape:version="0.92.3 (2405546, 2018-03-11)"><metadata
     id="metadata8"><rdf:RDF><cc:Work
         rdf:about=""><dc:format>image/svg+xml</dc:format><dc:type
           rdf:resource="http://purl.org/dc/dcmitype/StillImage" /><dc:title></dc:title></cc:Work></rdf:RDF></metadata><defs
     id="defs6"><clipPath
       clipPathUnits="userSpaceOnUse"
       id="clipPath18"><path
         d="M 0,1.2207e-4 H 960 V 540.00012 H 0 Z"
         id="path16"
         inkscape:connector-curvature="0"
         style="clip-rule:evenodd" /></clipPath><clipPath
       clipPathUnits="userSpaceOnUse"
       id="clipPath102"><path
         d="M 1.4305e-5,0 H 960.00001 V 540 H 1.4305e-5 Z"
         id="path100"
         inkscape:connector-curvature="0"
         style="clip-rule:evenodd" /></clipPath><clipPath
       clipPathUnits="userSpaceOnUse"
       id="clipPath114"><path
         d="M 1.4305e-5,0 H 960.00001 V 540 H 1.4305e-5 Z"
         id="path112"
         inkscape:connector-curvature="0"
         style="clip-rule:evenodd" /></clipPath><clipPath
       clipPathUnits="userSpaceOnUse"
       id="clipPath126"><path
         d="M 1.4305e-5,0 H 960.00001 V 540 H 1.4305e-5 Z"
         id="path124"
         inkscape:connector-curvature="0"
         style="clip-rule:evenodd" /></clipPath><clipPath
       clipPathUnits="userSpaceOnUse"
       id="clipPath138"><path
         d="M 1.4305e-5,0 H 960.00001 V 540 H 1.4305e-5 Z"
         id="path136"
         inkscape:connector-curvature="0"
         style="clip-rule:evenodd" /></clipPath><clipPath
       clipPathUnits="userSpaceOnUse"
       id="clipPath150"><path
         d="M 1.4305e-5,0 H 960.00001 V 540 H 1.4305e-5 Z"
         id="path148"
         inkscape:connector-curvature="0"
         style="clip-rule:evenodd" /></clipPath><clipPath
       clipPathUnits="userSpaceOnUse"
       id="clipPath162"><path
         d="M 1.4305e-5,0 H 960.00001 V 540 H 1.4305e-5 Z"
         id="path160"
         inkscape:connector-curvature="0"
         style="clip-rule:evenodd" /></clipPath><clipPath
       clipPathUnits="userSpaceOnUse"
       id="clipPath174"><path
         d="M 1.4305e-5,0 H 960.00001 V 540 H 1.4305e-5 Z"
         id="path172"
         inkscape:connector-curvature="0"
         style="clip-rule:evenodd" /></clipPath><clipPath
       clipPathUnits="userSpaceOnUse"
       id="clipPath186"><path
         d="M 1.4305e-5,0 H 960.00001 V 540 H 1.4305e-5 Z"
         id="path184"
         inkscape:connector-curvature="0"
         style="clip-rule:evenodd" /></clipPath><clipPath
       clipPathUnits="userSpaceOnUse"
       id="clipPath198"><path
         d="M -6.1035e-5,540 H 960 V 1.2207e-4 H -3.0518e-5"
         id="path196"
         inkscape:connector-curvature="0"
         style="clip-rule:evenodd" /></clipPath><clipPath
       clipPathUnits="userSpaceOnUse"
       id="clipPath210"><path
         d="M 1.4305e-5,0 H 960.00001 V 540 H 1.4305e-5 Z"
         id="path208"
         inkscape:connector-curvature="0"
         style="clip-rule:evenodd" /></clipPath><clipPath
       clipPathUnits="userSpaceOnUse"
       id="clipPath222"><path
         d="M 1.4305e-5,0 H 960.00001 V 540 H 1.4305e-5 Z"
         id="path220"
         inkscape:connector-curvature="0"
         style="clip-rule:evenodd" /></clipPath><clipPath
       clipPathUnits="userSpaceOnUse"
       id="clipPath236"><path
         d="M -3.0518e-5,540 H 960 V 2.4414e-4 L -6.1035e-5,1.8311e-4"
         id="path234"
         inkscape:connector-curvature="0"
         style="clip-rule:evenodd" /></clipPath><clipPath
       clipPathUnits="userSpaceOnUse"
       id="clipPath246"><path
         d="M 1.4305e-5,0 H 960.00001 V 540 H 1.4305e-5 Z"
         id="path244"
         inkscape:connector-curvature="0"
         style="clip-rule:evenodd" /></clipPath><clipPath
       clipPathUnits="userSpaceOnUse"
       id="clipPath258"><path
         d="M 1.4305e-5,0 H 960.00001 V 540 H 1.4305e-5 Z"
         id="path256"
         inkscape:connector-curvature="0"
         style="clip-rule:evenodd" /></clipPath><clipPath
       clipPathUnits="userSpaceOnUse"
       id="clipPath270"><path
         d="M 1.4305e-5,0 H 960.00001 V 540 H 1.4305e-5 Z"
         id="path268"
         inkscape:connector-curvature="0"
         style="clip-rule:evenodd" /></clipPath><clipPath
       clipPathUnits="userSpaceOnUse"
       id="clipPath284"><path
         d="M 1.4305e-5,0 H 960.00001 V 540 H 1.4305e-5 Z"
         id="path282"
         inkscape:connector-curvature="0"
         style="clip-rule:evenodd" /></clipPath><clipPath
       clipPathUnits="userSpaceOnUse"
       id="clipPath296"><path
         d="M 1.4305e-5,0 H 960.00001 V 540 H 1.4305e-5 Z"
         id="path294"
         inkscape:connector-curvature="0"
         style="clip-rule:evenodd" /></clipPath><clipPath
       clipPathUnits="userSpaceOnUse"
       id="clipPath314"><path
         d="M 1.4305e-5,0 H 960.00001 V 540 H 1.4305e-5 Z"
         id="path312"
         inkscape:connector-curvature="0"
         style="clip-rule:evenodd" /></clipPath><clipPath
       clipPathUnits="userSpaceOnUse"
       id="clipPath326"><path
         d="M 1.4305e-5,0 H 960.00001 V 540 H 1.4305e-5 Z"
         id="path324"
         inkscape:connector-curvature="0"
         style="clip-rule:evenodd" /></clipPath><clipPath
       clipPathUnits="userSpaceOnUse"
       id="clipPath338"><path
         d="M 1.4305e-5,0 H 960.00001 V 540 H 1.4305e-5 Z"
         id="path336"
         inkscape:connector-curvature="0"
         style="clip-rule:evenodd" /></clipPath><clipPath
       clipPathUnits="userSpaceOnUse"
       id="clipPath350"><path
         d="M 1.4305e-5,0 H 960.00001 V 540 H 1.4305e-5 Z"
         id="path348"
         inkscape:connector-curvature="0"
         style="clip-rule:evenodd" /></clipPath><clipPath
       clipPathUnits="userSpaceOnUse"
       id="clipPath362"><path
         d="M 1.4305e-5,0 H 960.00001 V 540 H 1.4305e-5 Z"
         id="path360"
         inkscape:connector-curvature="0"
         style="clip-rule:evenodd" /></clipPath><clipPath
       clipPathUnits="userSpaceOnUse"
       id="clipPath374"><path
         d="M 1.4305e-5,0 H 960.00001 V 540 H 1.4305e-5 Z"
         id="path372"
         inkscape:connector-curvature="0"
         style="clip-rule:evenodd" /></clipPath><clipPath
       clipPathUnits="userSpaceOnUse"
       id="clipPath386"><path
         d="M 1.4305e-5,0 H 960.00001 V 540 H 1.4305e-5 Z"
         id="path384"
         inkscape:connector-curvature="0"
         style="clip-rule:evenodd" /></clipPath><clipPath
       clipPathUnits="userSpaceOnUse"
       id="clipPath398"><path
         d="M 1.4305e-5,0 H 960.00001 V 540 H 1.4305e-5 Z"
         id="path396"
         inkscape:connector-curvature="0"
         style="clip-rule:evenodd" /></clipPath><clipPath
       clipPathUnits="userSpaceOnUse"
       id="clipPath412"><path
         d="M 1.4305e-5,0 H 960.00001 V 540 H 1.4305e-5 Z"
         id="path410"
         inkscape:connector-curvature="0"
         style="clip-rule:evenodd" /></clipPath><clipPath
       clipPathUnits="userSpaceOnUse"
       id="clipPath424"><path
         d="M 1.4305e-5,0 H 960.00001 V 540 H 1.4305e-5 Z"
         id="path422"
         inkscape:connector-curvature="0"
         style="clip-rule:evenodd" /></clipPath><clipPath
       clipPathUnits="userSpaceOnUse"
       id="clipPath438"><path
         d="M 1.4305e-5,0 H 960.00001 V 540 H 1.4305e-5 Z"
         id="path436"
         inkscape:connector-curvature="0"
         style="clip-rule:evenodd" /></clipPath><clipPath
       clipPathUnits="userSpaceOnUse"
       id="clipPath450"><path
         d="M 1.4305e-5,0 H 960.00001 V 540 H 1.4305e-5 Z"
         id="path448"
         inkscape:connector-curvature="0"
         style="clip-rule:evenodd" /></clipPath><clipPath
       clipPathUnits="userSpaceOnUse"
       id="clipPath462"><path
         d="M 1.4305e-5,0 H 960.00001 V 540 H 1.4305e-5 Z"
         id="path460"
         inkscape:connector-curvature="0"
         style="clip-rule:evenodd" /></clipPath><clipPath
       clipPathUnits="userSpaceOnUse"
       id="clipPath474"><path
         d="M -3.0518e-5,540 H 960 V 1.8311e-4 L -3.0518e-5,1.2207e-4"
         id="path472"
         inkscape:connector-curvature="0"
         style="clip-rule:evenodd" /></clipPath><clipPath
       clipPathUnits="userSpaceOnUse"
       id="clipPath484"><path
         d="M -3.0518e-5,540 H 960 V 2.4414e-4 L -3.0518e-5,1.2207e-4"
         id="path482"
         inkscape:connector-curvature="0"
         style="clip-rule:evenodd" /></clipPath></defs><sodipodi:namedview
     pagecolor="#ffffff"
     bordercolor="#666666"
     borderopacity="1"
     objecttolerance="10"
     gridtolerance="10"
     guidetolerance="10"
     inkscape:pageopacity="0"
     inkscape:pageshadow="2"
     inkscape:window-width="3110"
     inkscape:window-height="1697"
     id="namedview4"
     showgrid="false"
     inkscape:zoom="0.32777778"
     inkscape:cx="640"
     inkscape:cy="360"
     inkscape:window-x="90"
     inkscape:window-y="55"
     inkscape:window-maximized="1"
     inkscape:current-layer="g10" /><g
     id="g10"
     inkscape:groupmode="layer"
     inkscape:label="Stewart_cin1"
     transform="matrix(1.3333333,0,0,-1.3333333,0,720)"><path
       d="m 263.28,142.08 3.04,-34.96 246.2,-56.24 27.36,16.72 -47.11,176.32 -39.52,7.6 z"
       style="fill:#c5e0b4;fill-opacity:1;fill-rule:evenodd;stroke:none"
       id="path22"
       inkscape:connector-curvature="0" /><path
       d="m 263.28,142.08 3.04,-34.96 246.2,-56.24 27.36,16.72 -47.11,176.32 -39.52,7.6 z"
       style="fill:none;stroke:#41719c;stroke-width:0.95999998;stroke-linecap:butt;stroke-linejoin:miter;stroke-miterlimit:10;stroke-dasharray:none;stroke-opacity:1"
       id="path24"
       inkscape:connector-curvature="0" /><path
       d="M 524.82,69.106 609.95,432.42"
       style="fill:none;stroke:#ed7d31;stroke-width:3;stroke-linecap:butt;stroke-linejoin:miter;stroke-miterlimit:10;stroke-dasharray:none;stroke-opacity:1"
       id="path26"
       inkscape:connector-curvature="0" /><path
       d="M 486.78,236.22 607.47,450.54"
       style="fill:none;stroke:#ed7d31;stroke-width:3;stroke-linecap:butt;stroke-linejoin:miter;stroke-miterlimit:10;stroke-dasharray:none;stroke-opacity:1"
       id="path28"
       inkscape:connector-curvature="0" /><path
       d="M 508.03,59.957 444.18,303.18"
       style="fill:none;stroke:#ed7d31;stroke-width:3;stroke-linecap:butt;stroke-linejoin:miter;stroke-miterlimit:10;stroke-dasharray:none;stroke-opacity:1"
       id="path30"
       inkscape:connector-curvature="0" /><path
       d="M 283.14,121.36 418.42,303.18"
       style="fill:none;stroke:#ed7d31;stroke-width:3;stroke-linecap:butt;stroke-linejoin:miter;stroke-miterlimit:10;stroke-dasharray:none;stroke-opacity:1"
       id="path32"
       inkscape:connector-curvature="0" /><path
       d="M 276.42,144.37 352.98,423.3"
       style="fill:none;stroke:#ed7d31;stroke-width:3;stroke-linecap:butt;stroke-linejoin:miter;stroke-miterlimit:10;stroke-dasharray:none;stroke-opacity:1"
       id="path34"
       inkscape:connector-curvature="0" /><path
       d="M 453.35,243.84 368.22,433.86"
       style="fill:none;stroke:#ed7d31;stroke-width:3;stroke-linecap:butt;stroke-linejoin:miter;stroke-miterlimit:10;stroke-dasharray:none;stroke-opacity:1"
       id="path36"
       inkscape:connector-curvature="0" /><path
       d="m 477,234 c 0,3.71 3.01,6.72 6.72,6.72 3.71,0 6.72,-3.01 6.72,-6.72 0,-3.71 -3.01,-6.72 -6.72,-6.72 -3.71,0 -6.72,3.01 -6.72,6.72 z"
       style="fill:#ffffff;fill-opacity:1;fill-rule:evenodd;stroke:none"
       id="path38"
       inkscape:connector-curvature="0" /><path
       d="m 477,234 c 0,3.71 3.01,6.72 6.72,6.72 3.71,0 6.72,-3.01 6.72,-6.72 0,-3.71 -3.01,-6.72 -6.72,-6.72 -3.71,0 -6.72,3.01 -6.72,6.72 z"
       style="fill:none;stroke:#41719c;stroke-width:0.95999998;stroke-linecap:butt;stroke-linejoin:miter;stroke-miterlimit:10;stroke-dasharray:none;stroke-opacity:1"
       id="path40"
       inkscape:connector-curvature="0" /><path
       d="m 448.44,241.14 c 0,3.74 3.04,6.78 6.78,6.78 3.74,0 6.78,-3.04 6.78,-6.78 0,-3.74 -3.04,-6.78 -6.78,-6.78 -3.74,0 -6.78,3.04 -6.78,6.78 z"
       style="fill:#ffffff;fill-opacity:1;fill-rule:evenodd;stroke:none"
       id="path42"
       inkscape:connector-curvature="0" /><path
       d="m 448.44,241.14 c 0,3.74 3.04,6.78 6.78,6.78 3.74,0 6.78,-3.04 6.78,-6.78 0,-3.74 -3.04,-6.78 -6.78,-6.78 -3.74,0 -6.78,3.04 -6.78,6.78 z"
       style="fill:none;stroke:#41719c;stroke-width:0.95999998;stroke-linecap:butt;stroke-linejoin:miter;stroke-miterlimit:10;stroke-dasharray:none;stroke-opacity:1"
       id="path44"
       inkscape:connector-curvature="0" /><path
       d="m 520.08,71.64 c 0,3.711 3.04,6.72 6.78,6.72 3.74,0 6.78,-3.009 6.78,-6.72 0,-3.711 -3.04,-6.72 -6.78,-6.72 -3.74,0 -6.78,3.009 -6.78,6.72 z"
       style="fill:#ffffff;fill-opacity:1;fill-rule:evenodd;stroke:none"
       id="path46"
       inkscape:connector-curvature="0" /><path
       d="m 520.08,71.64 c 0,3.711 3.04,6.72 6.78,6.72 3.74,0 6.78,-3.009 6.78,-6.72 0,-3.711 -3.04,-6.72 -6.78,-6.72 -3.74,0 -6.78,3.009 -6.78,6.72 z"
       style="fill:none;stroke:#41719c;stroke-width:0.95999998;stroke-linecap:butt;stroke-linejoin:miter;stroke-miterlimit:10;stroke-dasharray:none;stroke-opacity:1"
       id="path48"
       inkscape:connector-curvature="0" /><path
       d="m 504,64.14 c 0,3.744 3.01,6.78 6.72,6.78 3.71,0 6.72,-3.036 6.72,-6.78 0,-3.744 -3.01,-6.78 -6.72,-6.78 -3.71,0 -6.72,3.036 -6.72,6.78 z"
       style="fill:#ffffff;fill-opacity:1;fill-rule:evenodd;stroke:none"
       id="path50"
       inkscape:connector-curvature="0" /><path
       d="m 504,64.14 c 0,3.744 3.01,6.78 6.72,6.78 3.71,0 6.72,-3.036 6.72,-6.78 0,-3.744 -3.01,-6.78 -6.72,-6.78 -3.71,0 -6.72,3.036 -6.72,6.78 z"
       style="fill:none;stroke:#41719c;stroke-width:0.95999998;stroke-linecap:butt;stroke-linejoin:miter;stroke-miterlimit:10;stroke-dasharray:none;stroke-opacity:1"
       id="path52"
       inkscape:connector-curvature="0" /><path
       d="m 269.64,137.64 c 0,3.71 3.01,6.72 6.72,6.72 3.71,0 6.72,-3.01 6.72,-6.72 0,-3.71 -3.01,-6.72 -6.72,-6.72 -3.71,0 -6.72,3.01 -6.72,6.72 z"
       style="fill:#ffffff;fill-opacity:1;fill-rule:evenodd;stroke:none"
       id="path54"
       inkscape:connector-curvature="0" /><path
       d="m 269.64,137.64 c 0,3.71 3.01,6.72 6.72,6.72 3.71,0 6.72,-3.01 6.72,-6.72 0,-3.71 -3.01,-6.72 -6.72,-6.72 -3.71,0 -6.72,3.01 -6.72,6.72 z"
       style="fill:none;stroke:#41719c;stroke-width:0.95999998;stroke-linecap:butt;stroke-linejoin:miter;stroke-miterlimit:10;stroke-dasharray:none;stroke-opacity:1"
       id="path56"
       inkscape:connector-curvature="0" /><path
       d="m 271.44,116.64 c 0,3.71 3.04,6.72 6.78,6.72 3.74,0 6.78,-3.01 6.78,-6.72 0,-3.71 -3.04,-6.72 -6.78,-6.72 -3.74,0 -6.78,3.01 -6.78,6.72 z"
       style="fill:#ffffff;fill-opacity:1;fill-rule:evenodd;stroke:none"
       id="path58"
       inkscape:connector-curvature="0" /><path
       d="m 271.44,116.64 c 0,3.71 3.04,6.72 6.78,6.72 3.74,0 6.78,-3.01 6.78,-6.72 0,-3.71 -3.04,-6.72 -6.78,-6.72 -3.74,0 -6.78,3.01 -6.78,6.72 z"
       style="fill:none;stroke:#41719c;stroke-width:0.95999998;stroke-linecap:butt;stroke-linejoin:miter;stroke-miterlimit:10;stroke-dasharray:none;stroke-opacity:1"
       id="path60"
       inkscape:connector-curvature="0" /><path
       d="M 328.56,430.89 406.09,286.52 448.66,285 631.08,432.41 606.76,456.72 357.44,447.6 Z"
       style="fill:#deebf7;fill-opacity:1;fill-rule:evenodd;stroke:none"
       id="path62"
       inkscape:connector-curvature="0" /><path
       d="M 328.56,430.89 406.09,286.52 448.66,285 631.08,432.41 606.76,456.72 357.44,447.6 Z"
       style="fill:none;stroke:#41719c;stroke-width:0.95999998;stroke-linecap:butt;stroke-linejoin:miter;stroke-miterlimit:10;stroke-dasharray:none;stroke-opacity:1"
       id="path64"
       inkscape:connector-curvature="0" /><path
       d="m 346.44,421.86 c 0,3.74 3.04,6.78 6.78,6.78 3.74,0 6.78,-3.04 6.78,-6.78 0,-3.74 -3.04,-6.78 -6.78,-6.78 -3.74,0 -6.78,3.04 -6.78,6.78 z"
       style="fill:#ffffff;fill-opacity:1;fill-rule:evenodd;stroke:none"
       id="path66"
       inkscape:connector-curvature="0" /><path
       d="m 346.44,421.86 c 0,3.74 3.04,6.78 6.78,6.78 3.74,0 6.78,-3.04 6.78,-6.78 0,-3.74 -3.04,-6.78 -6.78,-6.78 -3.74,0 -6.78,3.04 -6.78,6.78 z"
       style="fill:none;stroke:#41719c;stroke-width:0.95999998;stroke-linecap:butt;stroke-linejoin:miter;stroke-miterlimit:10;stroke-dasharray:none;stroke-opacity:1"
       id="path68"
       inkscape:connector-curvature="0" /><path
       d="m 361.92,432.36 c 0,3.71 3.01,6.72 6.72,6.72 3.71,0 6.72,-3.01 6.72,-6.72 0,-3.71 -3.01,-6.72 -6.72,-6.72 -3.71,0 -6.72,3.01 -6.72,6.72 z"
       style="fill:#ffffff;fill-opacity:1;fill-rule:evenodd;stroke:none"
       id="path70"
       inkscape:connector-curvature="0" /><path
       d="m 361.92,432.36 c 0,3.71 3.01,6.72 6.72,6.72 3.71,0 6.72,-3.01 6.72,-6.72 0,-3.71 -3.01,-6.72 -6.72,-6.72 -3.71,0 -6.72,3.01 -6.72,6.72 z"
       style="fill:none;stroke:#41719c;stroke-width:0.95999998;stroke-linecap:butt;stroke-linejoin:miter;stroke-miterlimit:10;stroke-dasharray:none;stroke-opacity:1"
       id="path72"
       inkscape:connector-curvature="0" /><path
       d="m 408.72,300 c 0,3.71 3.04,6.72 6.78,6.72 3.74,0 6.78,-3.01 6.78,-6.72 0,-3.71 -3.04,-6.72 -6.78,-6.72 -3.74,0 -6.78,3.01 -6.78,6.72 z"
       style="fill:#ffffff;fill-opacity:1;fill-rule:evenodd;stroke:none"
       id="path74"
       inkscape:connector-curvature="0" /><path
       d="m 408.72,300 c 0,3.71 3.04,6.72 6.78,6.72 3.74,0 6.78,-3.01 6.78,-6.72 0,-3.71 -3.04,-6.72 -6.78,-6.72 -3.74,0 -6.78,3.01 -6.78,6.72 z"
       style="fill:none;stroke:#41719c;stroke-width:0.95999998;stroke-linecap:butt;stroke-linejoin:miter;stroke-miterlimit:10;stroke-dasharray:none;stroke-opacity:1"
       id="path76"
       inkscape:connector-curvature="0" /><path
       d="m 437.64,301.5 c 0,3.74 3.01,6.78 6.72,6.78 3.71,0 6.72,-3.04 6.72,-6.78 0,-3.74 -3.01,-6.78 -6.72,-6.78 -3.71,0 -6.72,3.04 -6.72,6.78 z"
       style="fill:#ffffff;fill-opacity:1;fill-rule:evenodd;stroke:none"
       id="path78"
       inkscape:connector-curvature="0" /><path
       d="m 437.64,301.5 c 0,3.74 3.01,6.78 6.72,6.78 3.71,0 6.72,-3.04 6.72,-6.78 0,-3.74 -3.01,-6.78 -6.72,-6.78 -3.71,0 -6.72,3.04 -6.72,6.78 z"
       style="fill:none;stroke:#41719c;stroke-width:0.95999998;stroke-linecap:butt;stroke-linejoin:miter;stroke-miterlimit:10;stroke-dasharray:none;stroke-opacity:1"
       id="path80"
       inkscape:connector-curvature="0" /><path
       d="m 595.92,445.86 c 0,3.74 3.01,6.78 6.72,6.78 3.71,0 6.72,-3.04 6.72,-6.78 0,-3.74 -3.01,-6.78 -6.72,-6.78 -3.71,0 -6.72,3.04 -6.72,6.78 z"
       style="fill:#ffffff;fill-opacity:1;fill-rule:evenodd;stroke:none"
       id="path82"
       inkscape:connector-curvature="0" /><path
       d="m 595.92,445.86 c 0,3.74 3.01,6.78 6.72,6.78 3.71,0 6.72,-3.04 6.72,-6.78 0,-3.74 -3.01,-6.78 -6.72,-6.78 -3.71,0 -6.72,3.04 -6.72,6.78 z"
       style="fill:none;stroke:#41719c;stroke-width:0.95999998;stroke-linecap:butt;stroke-linejoin:miter;stroke-miterlimit:10;stroke-dasharray:none;stroke-opacity:1"
       id="path84"
       inkscape:connector-curvature="0" /><path
       d="m 605.64,431.64 c 0,3.71 3.01,6.72 6.72,6.72 3.71,0 6.72,-3.01 6.72,-6.72 0,-3.71 -3.01,-6.72 -6.72,-6.72 -3.71,0 -6.72,3.01 -6.72,6.72 z"
       style="fill:#ffffff;fill-opacity:1;fill-rule:evenodd;stroke:none"
       id="path86"
       inkscape:connector-curvature="0" /><path
       d="m 605.64,431.64 c 0,3.71 3.01,6.72 6.72,6.72 3.71,0 6.72,-3.01 6.72,-6.72 0,-3.71 -3.01,-6.72 -6.72,-6.72 -3.71,0 -6.72,3.01 -6.72,6.72 z"
       style="fill:none;stroke:#41719c;stroke-width:0.95999998;stroke-linecap:butt;stroke-linejoin:miter;stroke-miterlimit:10;stroke-dasharray:none;stroke-opacity:1"
       id="path88"
       inkscape:connector-curvature="0" /><path
       d="m 441.05,380.82 195.27,18.65 -0.09,0.99 -195.28,-18.65 z m 194.51,16.06 5.69,3.56 -6.26,2.42 z"
       style="fill:#5b9bd5;fill-opacity:1;fill-rule:nonzero;stroke:none"
       id="path90"
       inkscape:connector-curvature="0" /><path
       d="m 440.49,381.42 -14.02,-114.29 0.99,-0.12 14.02,114.29 z m -16.38,-112.99 2.25,-6.32 3.71,5.59 z"
       style="fill:#5b9bd5;fill-opacity:1;fill-rule:nonzero;stroke:none"
       id="path92"
       inkscape:connector-curvature="0" /><path
       d="m 440.49,381.19 -27.96,104.29 0.97,0.26 27.95,-104.3 z m -30.11,102.68 1.34,6.57 4.45,-5.02 z"
       style="fill:#5b9bd5;fill-opacity:1;fill-rule:nonzero;stroke:none"
       id="path94"
       inkscape:connector-curvature="0" /><g
       id="g96"><g
         id="g98"
         clip-path="url(#clipPath102)"><text
           transform="matrix(1,0,0,-1,432.5,256.61)"
           style="font-variant:normal;font-weight:normal;font-size:20.04000092px;font-family:Calibri;-inkscape-font-specification:Calibri;writing-mode:lr-tb;fill:#4472c4;fill-opacity:1;fill-rule:nonzero;stroke:none"
           id="text106"><tspan
             x="0"
             y="0"
             id="tspan104">x</tspan></text>
</g></g><g
       id="g108"><g
         id="g110"
         clip-path="url(#clipPath114)"><text
           transform="matrix(1,0,0,-1,441.14,251.69)"
           style="font-variant:normal;font-weight:normal;font-size:13.31999969px;font-family:Calibri;-inkscape-font-specification:Calibri;writing-mode:lr-tb;fill:#4472c4;fill-opacity:1;fill-rule:nonzero;stroke:none"
           id="text118"><tspan
             x="0"
             y="0"
             id="tspan116">M</tspan></text>
</g></g><g
       id="g120"><g
         id="g122"
         clip-path="url(#clipPath126)"><text
           transform="matrix(1,0,0,-1,625.66,384.14)"
           style="font-variant:normal;font-weight:normal;font-size:20.04000092px;font-family:Calibri;-inkscape-font-specification:Calibri;writing-mode:lr-tb;fill:#4472c4;fill-opacity:1;fill-rule:nonzero;stroke:none"
           id="text130"><tspan
             x="0"
             y="0"
             id="tspan128">y</tspan></text>
</g></g><g
       id="g132"><g
         id="g134"
         clip-path="url(#clipPath138)"><text
           transform="matrix(1,0,0,-1,634.78,379.22)"
           style="font-variant:normal;font-weight:normal;font-size:13.31999969px;font-family:Calibri;-inkscape-font-specification:Calibri;writing-mode:lr-tb;fill:#4472c4;fill-opacity:1;fill-rule:nonzero;stroke:none"
           id="text142"><tspan
             x="0"
             y="0"
             id="tspan140">M</tspan></text>
</g></g><g
       id="g144"><g
         id="g146"
         clip-path="url(#clipPath150)"><text
           transform="matrix(1,0,0,-1,423.12,483.17)"
           style="font-variant:normal;font-weight:normal;font-size:20.04000092px;font-family:Calibri;-inkscape-font-specification:Calibri;writing-mode:lr-tb;fill:#4472c4;fill-opacity:1;fill-rule:nonzero;stroke:none"
           id="text154"><tspan
             x="0"
             y="0"
             id="tspan152">z</tspan></text>
</g></g><g
       id="g156"><g
         id="g158"
         clip-path="url(#clipPath162)"><text
           transform="matrix(1,0,0,-1,431.04,478.25)"
           style="font-variant:normal;font-weight:normal;font-size:13.31999969px;font-family:Calibri;-inkscape-font-specification:Calibri;writing-mode:lr-tb;fill:#4472c4;fill-opacity:1;fill-rule:nonzero;stroke:none"
           id="text166"><tspan
             x="0"
             y="0"
             id="tspan164">M</tspan></text>
</g></g><g
       id="g168"><g
         id="g170"
         clip-path="url(#clipPath174)"><text
           transform="matrix(1,0,0,-1,410.38,380.02)"
           style="font-variant:normal;font-weight:normal;font-size:20.04000092px;font-family:Calibri;-inkscape-font-specification:Calibri;writing-mode:lr-tb;fill:#4472c4;fill-opacity:1;fill-rule:nonzero;stroke:none"
           id="text178"><tspan
             x="0"
             y="0"
             id="tspan176">O</tspan></text>
</g></g><g
       id="g180"><g
         id="g182"
         clip-path="url(#clipPath186)"><text
           transform="matrix(1,0,0,-1,423.7,375.1)"
           style="font-variant:normal;font-weight:normal;font-size:13.31999969px;font-family:Calibri;-inkscape-font-specification:Calibri;writing-mode:lr-tb;fill:#4472c4;fill-opacity:1;fill-rule:nonzero;stroke:none"
           id="text190"><tspan
             x="0"
             y="0"
             id="tspan188">M</tspan></text>
</g></g><g
       id="g192"><g
         id="g194"
         clip-path="url(#clipPath198)"><path
           d="m 485.23,234.42 c 19.33,-5.22 36.45,-13.4 50.15,-23.98"
           style="fill:none;stroke:#70ad47;stroke-width:0.5;stroke-linecap:butt;stroke-linejoin:miter;stroke-miterlimit:10;stroke-dasharray:none;stroke-opacity:1"
           id="path200"
           inkscape:connector-curvature="0" /></g></g><path
       d="m 440.94,381.38 116.71,85.54 -0.59,0.81 -116.72,-85.55 z m 117.38,82.93 3.07,5.97 -6.61,-1.13 z"
       style="fill:#5b9bd5;fill-opacity:1;fill-rule:nonzero;stroke:none"
       id="path202"
       inkscape:connector-curvature="0" /><g
       id="g204"><g
         id="g206"
         clip-path="url(#clipPath210)"><text
           transform="matrix(1,0,0,-1,489.14,438.53)"
           style="font-variant:normal;font-weight:normal;font-size:20.04000092px;font-family:Calibri;-inkscape-font-specification:Calibri;writing-mode:lr-tb;fill:#4472c4;fill-opacity:1;fill-rule:nonzero;stroke:none"
           id="text214"><tspan
             x="0"
             y="0"
             id="tspan212">r</tspan></text>
</g></g><g
       id="g216"><g
         id="g218"
         clip-path="url(#clipPath222)"><text
           transform="matrix(1,0,0,-1,496.1,433.61)"
           style="font-variant:normal;font-weight:normal;font-size:13.31999969px;font-family:Calibri;-inkscape-font-specification:Calibri;writing-mode:lr-tb;fill:#4472c4;fill-opacity:1;fill-rule:nonzero;stroke:none"
           id="text226"><tspan
             x="0"
             y="0"
             id="tspan224">M</tspan></text>
</g></g><path
       d="m 442.08,381.36 3.38,-119.25"
       style="fill:none;stroke:#5b9bd5;stroke-width:0.47999999;stroke-linecap:butt;stroke-linejoin:miter;stroke-miterlimit:10;stroke-dasharray:none;stroke-opacity:1"
       id="path228"
       inkscape:connector-curvature="0" /><g
       id="g230"><g
         id="g232"
         clip-path="url(#clipPath236)"><path
           d="m 444.64,279 -3.34,-0.44 -4.31,-0.48 -4.28,-0.41 -4.26,-0.33 -0.07,1 4.25,0.33 h -0.01 l 4.28,0.4 h -0.01 l 4.29,0.48 h -0.01 l 3.34,0.44 z m -6.27,3.64 7.19,-3.02 -6.17,-4.78 c -0.21,-0.17 -0.53,-0.13 -0.7,0.09 -0.17,0.22 -0.13,0.53 0.09,0.7 l 5.49,4.26 0.12,-0.86 -6.41,2.69 c -0.26,0.1 -0.38,0.4 -0.27,0.65 0.11,0.26 0.4,0.38 0.66,0.27 z"
           style="fill:#5b9bd5;fill-opacity:1;fill-rule:nonzero;stroke:none"
           id="path238"
           inkscape:connector-curvature="0" /></g></g><g
       id="g240"><g
         id="g242"
         clip-path="url(#clipPath246)"><text
           transform="matrix(1,0,0,-1,411.86,273.86)"
           style="font-variant:normal;font-weight:normal;font-size:20.04000092px;font-family:Calibri;-inkscape-font-specification:Calibri;writing-mode:lr-tb;fill:#4472c4;fill-opacity:1;fill-rule:nonzero;stroke:none"
           id="text250"><tspan
             x="0"
             y="0"
             id="tspan248">β</tspan></text>
</g></g><g
       id="g252"><g
         id="g254"
         clip-path="url(#clipPath258)"><text
           transform="matrix(1,0,0,-1,393.5,316.99)"
           style="font-variant:normal;font-weight:normal;font-size:20.04000092px;font-family:Calibri;-inkscape-font-specification:Calibri;writing-mode:lr-tb;fill:#4472c4;fill-opacity:1;fill-rule:nonzero;stroke:none"
           id="text262"><tspan
             x="0"
             y="0"
             id="tspan260">A</tspan></text>
</g></g><g
       id="g264"><g
         id="g266"
         clip-path="url(#clipPath270)"><text
           transform="matrix(1,0,0,-1,405.14,312.07)"
           style="font-variant:normal;font-weight:normal;font-size:13.31999969px;font-family:Calibri;-inkscape-font-specification:Calibri;writing-mode:lr-tb;fill:#4472c4;fill-opacity:1;fill-rule:nonzero;stroke:none"
           id="text274"><tspan
             x="0"
             y="0"
             id="tspan272">i</tspan></text>
</g></g><path
       d="m 279.04,118.14 148.12,197 -0.8,0.6 -148.12,-197 z m 149.52,194.7 1.2,6.6 -6,-2.99 z"
       style="fill:#ed7d31;fill-opacity:1;fill-rule:nonzero;stroke:none"
       id="path276"
       inkscape:connector-curvature="0" /><g
       id="g278"><g
         id="g280"
         clip-path="url(#clipPath284)"><text
           transform="matrix(1,0,0,-1,412.99,323.38)"
           style="font-variant:normal;font-weight:normal;font-size:20.04000092px;font-family:Calibri;-inkscape-font-specification:Calibri;writing-mode:lr-tb;fill:#ed7d31;fill-opacity:1;fill-rule:nonzero;stroke:none"
           id="text288"><tspan
             x="0"
             y="0"
             id="tspan286">x</tspan></text>
</g></g><g
       id="g290"><g
         id="g292"
         clip-path="url(#clipPath296)"><text
           transform="matrix(1,0,0,-1,421.63,318.46)"
           style="font-variant:normal;font-weight:normal;font-size:13.31999969px;font-family:Calibri;-inkscape-font-specification:Calibri;writing-mode:lr-tb;fill:#ed7d31;fill-opacity:1;fill-rule:nonzero;stroke:none"
           id="text300"><tspan
             x="0"
             y="0"
             id="tspan298">i</tspan></text>
</g></g><path
       d="M 424.19,152.46 463.3,48.76 462.36,48.407 423.25,152.1 Z m 41.09,-101.882 -0.69,-6.673 -4.92,4.556 z"
       style="fill:#70ad47;fill-opacity:1;fill-rule:nonzero;stroke:none"
       id="path302"
       inkscape:connector-curvature="0" /><path
       d="m 423.64,152.77 -178.07,-29.92 0.16,-0.98 178.07,29.92 z m -177.5,-27.29 -5.42,-3.95 6.41,-1.96 z"
       style="fill:#70ad47;fill-opacity:1;fill-rule:nonzero;stroke:none"
       id="path304"
       inkscape:connector-curvature="0" /><path
       d="m 424.22,152.2 v 68.88 h -1 V 152.2 Z m 2.5,67.88 -3,6 -3,-6 z"
       style="fill:#70ad47;fill-opacity:1;fill-rule:nonzero;stroke:none"
       id="path306"
       inkscape:connector-curvature="0" /><g
       id="g308"><g
         id="g310"
         clip-path="url(#clipPath314)"><text
           transform="matrix(1,0,0,-1,236.35,138.84)"
           style="font-variant:normal;font-weight:normal;font-size:20.06399918px;font-family:Calibri;-inkscape-font-specification:Calibri;writing-mode:lr-tb;fill:#70ad47;fill-opacity:1;fill-rule:nonzero;stroke:none"
           id="text318"><tspan
             x="0"
             y="0"
             id="tspan316">x</tspan></text>
</g></g><g
       id="g320"><g
         id="g322"
         clip-path="url(#clipPath326)"><text
           transform="matrix(1,0,0,-1,244.99,133.92)"
           style="font-variant:normal;font-weight:normal;font-size:13.34399986px;font-family:Calibri;-inkscape-font-specification:Calibri;writing-mode:lr-tb;fill:#70ad47;fill-opacity:1;fill-rule:nonzero;stroke:none"
           id="text330"><tspan
             x="0"
             y="0"
             id="tspan328">F</tspan></text>
</g></g><g
       id="g332"><g
         id="g334"
         clip-path="url(#clipPath338)"><text
           transform="matrix(1,0,0,-1,475.63,32.304)"
           style="font-variant:normal;font-weight:normal;font-size:20.04000092px;font-family:Calibri;-inkscape-font-specification:Calibri;writing-mode:lr-tb;fill:#70ad47;fill-opacity:1;fill-rule:nonzero;stroke:none"
           id="text342"><tspan
             x="0"
             y="0"
             id="tspan340">y</tspan></text>
</g></g><g
       id="g344"><g
         id="g346"
         clip-path="url(#clipPath350)"><text
           transform="matrix(1,0,0,-1,484.75,27.384)"
           style="font-variant:normal;font-weight:normal;font-size:13.31999969px;font-family:Calibri;-inkscape-font-specification:Calibri;writing-mode:lr-tb;fill:#70ad47;fill-opacity:1;fill-rule:nonzero;stroke:none"
           id="text354"><tspan
             x="0"
             y="0"
             id="tspan352">F</tspan></text>
</g></g><g
       id="g356"><g
         id="g358"
         clip-path="url(#clipPath362)"><text
           transform="matrix(1,0,0,-1,406.99,207.84)"
           style="font-variant:normal;font-weight:normal;font-size:20.04000092px;font-family:Calibri;-inkscape-font-specification:Calibri;writing-mode:lr-tb;fill:#70ad47;fill-opacity:1;fill-rule:nonzero;stroke:none"
           id="text366"><tspan
             x="0"
             y="0"
             id="tspan364">z</tspan></text>
</g></g><g
       id="g368"><g
         id="g370"
         clip-path="url(#clipPath374)"><text
           transform="matrix(1,0,0,-1,414.91,202.92)"
           style="font-variant:normal;font-weight:normal;font-size:13.31999969px;font-family:Calibri;-inkscape-font-specification:Calibri;writing-mode:lr-tb;fill:#70ad47;fill-opacity:1;fill-rule:nonzero;stroke:none"
           id="text378"><tspan
             x="0"
             y="0"
             id="tspan376">F</tspan></text>
</g></g><g
       id="g380"><g
         id="g382"
         clip-path="url(#clipPath386)"><text
           transform="matrix(1,0,0,-1,394.25,157.58)"
           style="font-variant:normal;font-weight:normal;font-size:20.04000092px;font-family:Calibri;-inkscape-font-specification:Calibri;writing-mode:lr-tb;fill:#70ad47;fill-opacity:1;fill-rule:nonzero;stroke:none"
           id="text390"><tspan
             x="0"
             y="0"
             id="tspan388">O</tspan></text>
</g></g><g
       id="g392"><g
         id="g394"
         clip-path="url(#clipPath398)"><text
           transform="matrix(1,0,0,-1,407.57,152.66)"
           style="font-variant:normal;font-weight:normal;font-size:13.31999969px;font-family:Calibri;-inkscape-font-specification:Calibri;writing-mode:lr-tb;fill:#70ad47;fill-opacity:1;fill-rule:nonzero;stroke:none"
           id="text402"><tspan
             x="0"
             y="0"
             id="tspan400">F</tspan></text>
</g></g><path
       d="m 423.63,152.16 97.14,61.81 -0.54,0.85 L 423.09,153 Z m 97.64,59.17 3.45,5.75 -6.68,-0.69 z"
       style="fill:#70ad47;fill-opacity:1;fill-rule:nonzero;stroke:none"
       id="path404"
       inkscape:connector-curvature="0" /><g
       id="g406"><g
         id="g408"
         clip-path="url(#clipPath412)"><text
           transform="matrix(1,0,0,-1,471.89,209.35)"
           style="font-variant:normal;font-weight:normal;font-size:20.04000092px;font-family:Calibri;-inkscape-font-specification:Calibri;writing-mode:lr-tb;fill:#70ad47;fill-opacity:1;fill-rule:nonzero;stroke:none"
           id="text416"><tspan
             x="0"
             y="0"
             id="tspan414">r</tspan></text>
</g></g><g
       id="g418"><g
         id="g420"
         clip-path="url(#clipPath424)"><text
           transform="matrix(1,0,0,-1,478.85,204.43)"
           style="font-variant:normal;font-weight:normal;font-size:13.31999969px;font-family:Calibri;-inkscape-font-specification:Calibri;writing-mode:lr-tb;fill:#70ad47;fill-opacity:1;fill-rule:nonzero;stroke:none"
           id="text428"><tspan
             x="0"
             y="0"
             id="tspan426">F</tspan></text>
</g></g><path
       d="M 424.93,152.28 238.56,109.92"
       style="fill:none;stroke:#70ad47;stroke-width:0.47999999;stroke-linecap:butt;stroke-linejoin:miter;stroke-miterlimit:10;stroke-dasharray:none;stroke-opacity:1"
       id="path430"
       inkscape:connector-curvature="0" /><g
       id="g432"><g
         id="g434"
         clip-path="url(#clipPath438)"><text
           transform="matrix(1,0,0,-1,285.48,107.69)"
           style="font-variant:normal;font-weight:normal;font-size:20.04000092px;font-family:Calibri;-inkscape-font-specification:Calibri;writing-mode:lr-tb;fill:#70ad47;fill-opacity:1;fill-rule:nonzero;stroke:none"
           id="text442"><tspan
             x="0"
             y="0"
             id="tspan440">α</tspan></text>
</g></g><g
       id="g444"><g
         id="g446"
         clip-path="url(#clipPath450)"><text
           transform="matrix(1,0,0,-1,262.61,86.688)"
           style="font-variant:normal;font-weight:normal;font-size:20.04000092px;font-family:Calibri;-inkscape-font-specification:Calibri;writing-mode:lr-tb;fill:#70ad47;fill-opacity:1;fill-rule:nonzero;stroke:none"
           id="text454"><tspan
             x="0"
             y="0"
             id="tspan452">B</tspan></text>
</g></g><g
       id="g456"><g
         id="g458"
         clip-path="url(#clipPath462)"><text
           transform="matrix(1,0,0,-1,273.53,81.768)"
           style="font-variant:normal;font-weight:normal;font-size:13.31999969px;font-family:Calibri;-inkscape-font-specification:Calibri;writing-mode:lr-tb;fill:#70ad47;fill-opacity:1;fill-rule:nonzero;stroke:none"
           id="text466"><tspan
             x="0"
             y="0"
             id="tspan464">i</tspan></text>
</g></g><g
       id="g468"><g
         id="g470"
         clip-path="url(#clipPath474)"><path
           d="m 278.05,118.13 -0.29,1.62 -0.37,2.61 -0.27,2.63 -0.16,2.63 0.99,0.06 0.17,-2.62 v 0.02 l 0.27,-2.61 v 0.02 l 0.36,-2.59 -0.01,0.02 0.29,-1.62 z m 3.34,6.44 -2.67,-7.33 -5.07,5.94 c -0.18,0.21 -0.15,0.52 0.06,0.7 0.21,0.18 0.53,0.16 0.7,-0.05 l 4.51,-5.29 -0.85,-0.15 2.38,6.52 c 0.1,0.26 0.39,0.39 0.64,0.3 0.26,-0.1 0.4,-0.38 0.3,-0.64 z"
           style="fill:#70ad47;fill-opacity:1;fill-rule:nonzero;stroke:none"
           id="path476"
           inkscape:connector-curvature="0" /></g></g><g
       id="g478"><g
         id="g480"
         clip-path="url(#clipPath484)"><path
           d="m 552.48,473.9 c 23.15,-5.16 40.99,-15.24 51.37,-29.02"
           style="fill:none;stroke:#5b9bd5;stroke-width:0.5;stroke-linecap:butt;stroke-linejoin:miter;stroke-miterlimit:10;stroke-dasharray:none;stroke-opacity:1"
           id="path486"
           inkscape:connector-curvature="0" /></g></g></g></svg>