<?xml version="1.0" encoding="UTF-8" standalone="no"?>
<!-- Created with Inkscape (http://www.inkscape.org/) -->

<svg
   xmlns:dc="http://purl.org/dc/elements/1.1/"
   xmlns:cc="http://creativecommons.org/ns#"
   xmlns:rdf="http://www.w3.org/1999/02/22-rdf-syntax-ns#"
   xmlns:svg="http://www.w3.org/2000/svg"
   xmlns="http://www.w3.org/2000/svg"
   xmlns:sodipodi="http://sodipodi.sourceforge.net/DTD/sodipodi-0.dtd"
   xmlns:inkscape="http://www.inkscape.org/namespaces/inkscape"
   version="1.1"
   id="svg2"
   xml:space="preserve"
   width="375.22525"
   height="515.78607"
   viewBox="0 0 375.22525 515.78607"
   sodipodi:docname="Barriere_cinematique.svg"
   inkscape:version="0.92.3 (2405546, 2018-03-11)"><metadata
     id="metadata8"><rdf:RDF><cc:Work
         rdf:about=""><dc:format>image/svg+xml</dc:format><dc:type
           rdf:resource="http://purl.org/dc/dcmitype/StillImage" /><dc:title /></cc:Work></rdf:RDF></metadata><defs
     id="defs6"><clipPath
   clipPathUnits="userSpaceOnUse"
   id="clipPath32"><path
     d="M 0,0 H 282 V 387 H 0 Z"
     id="path30"
     inkscape:connector-curvature="0" /></clipPath><clipPath
   clipPathUnits="userSpaceOnUse"
   id="clipPath48"><path
     d="M 0,0 H 282 V 387 H 0 Z"
     id="path46"
     inkscape:connector-curvature="0" /></clipPath><clipPath
   clipPathUnits="userSpaceOnUse"
   id="clipPath128"><path
     d="M 0,0 H 282 V 387 H 0 Z"
     id="path126"
     inkscape:connector-curvature="0" /></clipPath><clipPath
   clipPathUnits="userSpaceOnUse"
   id="clipPath144"><path
     d="M 0,0 H 282 V 387 H 0 Z"
     id="path142"
     inkscape:connector-curvature="0" /></clipPath><clipPath
   clipPathUnits="userSpaceOnUse"
   id="clipPath160"><path
     d="M 0,0 H 282 V 387 H 0 Z"
     id="path158"
     inkscape:connector-curvature="0" /></clipPath><clipPath
   clipPathUnits="userSpaceOnUse"
   id="clipPath176"><path
     d="M 0,0 H 282 V 387 H 0 Z"
     id="path174"
     inkscape:connector-curvature="0" /></clipPath><clipPath
   clipPathUnits="userSpaceOnUse"
   id="clipPath192"><path
     d="M 0,0 H 282 V 387 H 0 Z"
     id="path190"
     inkscape:connector-curvature="0" /></clipPath><clipPath
   clipPathUnits="userSpaceOnUse"
   id="clipPath208"><path
     d="M 0,0 H 282 V 387 H 0 Z"
     id="path206"
     inkscape:connector-curvature="0" /></clipPath><clipPath
   clipPathUnits="userSpaceOnUse"
   id="clipPath224"><path
     d="M 0,0 H 282 V 387 H 0 Z"
     id="path222"
     inkscape:connector-curvature="0" /></clipPath><clipPath
   clipPathUnits="userSpaceOnUse"
   id="clipPath240"><path
     d="M 0,0 H 282 V 387 H 0 Z"
     id="path238"
     inkscape:connector-curvature="0" /></clipPath><clipPath
   clipPathUnits="userSpaceOnUse"
   id="clipPath258"><path
     d="M 0,0 H 282 V 387 H 0 Z"
     id="path256"
     inkscape:connector-curvature="0" /></clipPath><clipPath
   clipPathUnits="userSpaceOnUse"
   id="clipPath274"><path
     d="M 0,0 H 282 V 387 H 0 Z"
     id="path272"
     inkscape:connector-curvature="0" /></clipPath><clipPath
   clipPathUnits="userSpaceOnUse"
   id="clipPath292"><path
     d="M 0,0 H 282 V 387 H 0 Z"
     id="path290"
     inkscape:connector-curvature="0" /></clipPath><clipPath
   clipPathUnits="userSpaceOnUse"
   id="clipPath308"><path
     d="M 0,0 H 282 V 387 H 0 Z"
     id="path306"
     inkscape:connector-curvature="0" /></clipPath><clipPath
   clipPathUnits="userSpaceOnUse"
   id="clipPath324"><path
     d="M 0,0 H 282 V 387 H 0 Z"
     id="path322"
     inkscape:connector-curvature="0" /></clipPath><clipPath
   clipPathUnits="userSpaceOnUse"
   id="clipPath340"><path
     d="M 0,0 H 282 V 387 H 0 Z"
     id="path338"
     inkscape:connector-curvature="0" /></clipPath><clipPath
   clipPathUnits="userSpaceOnUse"
   id="clipPath356"><path
     d="M 0,0 H 282 V 387 H 0 Z"
     id="path354"
     inkscape:connector-curvature="0" /></clipPath><clipPath
   clipPathUnits="userSpaceOnUse"
   id="clipPath372"><path
     d="M 0,0 H 282 V 387 H 0 Z"
     id="path370"
     inkscape:connector-curvature="0" /></clipPath>



</defs><sodipodi:namedview
     pagecolor="#ffffff"
     bordercolor="#666666"
     borderopacity="1"
     objecttolerance="10"
     gridtolerance="10"
     guidetolerance="10"
     inkscape:pageopacity="0"
     inkscape:pageshadow="2"
     inkscape:window-width="3110"
     inkscape:window-height="1697"
     id="namedview4"
     showgrid="false"
     inkscape:zoom="2.0338835"
     inkscape:cx="161.72953"
     inkscape:cy="284.11945"
     inkscape:window-x="90"
     inkscape:window-y="55"
     inkscape:window-maximized="1"
     inkscape:current-layer="g10" /><g
     id="g10"
     inkscape:groupmode="layer"
     inkscape:label="cinematique"
     transform="matrix(1.3333333,0,0,1.3333333,0,1.0894652e-5)"><path
       inkscape:connector-curvature="0"
       id="path14"
       style="fill:#000000;fill-opacity:1;fill-rule:nonzero;stroke:none"
       d="M 52.313,177.102 V 30.98 h 1 v 146.122 z m -2.5,-145.122 3,-6 3,6 z" /><path
       inkscape:connector-curvature="0"
       id="path16"
       style="fill:#000000;fill-opacity:1;fill-rule:nonzero;stroke:none"
       d="m 51.82,178.234 h 146.121 v 1 H 51.82 Z m 145.121,-2.5 6,3 -6,3 z" /><path
       inkscape:connector-curvature="0"
       id="path18"
       style="fill:#000000;fill-opacity:1;fill-rule:nonzero;stroke:none"
       d="m 47.742,328.234 h 146.121 v 1 H 47.742 Z m 145.121,-2.5 6,3 -6,3 z" /><path
       inkscape:connector-curvature="0"
       id="path20"
       style="fill:#7030a0;fill-opacity:1;fill-rule:nonzero;stroke:none"
       d="M 53.211,329.953 239.672,26.414 238.82,25.895 52.352,329.43 Z m 188.07,-301.379 0.582,-6.679 -5.699,3.539 z" /><path
       inkscape:connector-curvature="0"
       id="path22"
       style="fill:#70ad47;fill-opacity:1;fill-rule:nonzero;stroke:none"
       d="M 52.313,180.102 267.672,55.074 267.172,54.211 51.813,179.242 Z m 215.75,-122.36 3.679,-5.609 -6.691,0.422 z" /><g
       id="g24"><g
         id="g26"><g
           clip-path="url(#clipPath32)"
           id="g28"><g
             id="g34"><text
   id="text38"
   style="font-variant:normal;font-weight:normal;font-size:27.98399925px;font-family:Calibri;-inkscape-font-specification:Calibri;writing-mode:lr-tb;fill:#70ad47;fill-opacity:1;fill-rule:nonzero;stroke:none"
   transform="translate(260.84215,44.932846)"><tspan
     id="tspan36"
     y="0"
     x="0">x</tspan></text>

</g></g></g></g><g
       id="g40"><g
         id="g42"><g
           clip-path="url(#clipPath48)"
           id="g44"><g
             id="g50"><text
   id="text54"
   style="font-variant:normal;font-weight:normal;font-size:18.74399948px;font-family:Calibri;-inkscape-font-specification:Calibri;writing-mode:lr-tb;fill:#70ad47;fill-opacity:1;fill-rule:nonzero;stroke:none"
   transform="translate(272.96215,51.772846)"><tspan
     id="tspan52"
     y="0"
     x="0">2</tspan></text>

</g></g></g></g><g
       transform="scale(1,-1)"
       id="g56"><path
         inkscape:connector-curvature="0"
         id="path58"
         style="fill:none;stroke:#70ad47;stroke-width:2.27999997;stroke-linecap:butt;stroke-linejoin:miter;stroke-miterlimit:10;stroke-dasharray:none;stroke-opacity:1"
         d="M 194.453,-96.832 52.363,-180.555" /></g><g
       transform="scale(1,-1)"
       id="g60"><path
         inkscape:connector-curvature="0"
         id="path62"
         style="fill:none;stroke:#000000;stroke-width:2.27999997;stroke-linecap:butt;stroke-linejoin:miter;stroke-miterlimit:10;stroke-dasharray:none;stroke-opacity:1"
         d="m 52.363,-197.152 v -18.289" /></g><g
       transform="scale(1,-1)"
       id="g64"><path
         inkscape:connector-curvature="0"
         id="path66"
         style="fill:none;stroke:#000000;stroke-width:2.27999997;stroke-linecap:butt;stroke-linejoin:miter;stroke-miterlimit:10;stroke-dasharray:none;stroke-opacity:1"
         d="M 73.711,-215.871 H 32.563" /></g><g
       transform="scale(1,-1)"
       id="g68"><path
         inkscape:connector-curvature="0"
         id="path70"
         style="fill:none;stroke:#000000;stroke-width:2.27999997;stroke-linecap:butt;stroke-linejoin:miter;stroke-miterlimit:10;stroke-dasharray:none;stroke-opacity:1"
         d="M 32.82,-215.871 18.883,-234.602" /></g><g
       transform="scale(1,-1)"
       id="g72"><path
         inkscape:connector-curvature="0"
         id="path74"
         style="fill:none;stroke:#000000;stroke-width:2.27999997;stroke-linecap:butt;stroke-linejoin:miter;stroke-miterlimit:10;stroke-dasharray:none;stroke-opacity:1"
         d="M 46.742,-215.871 32.801,-234.602" /></g><g
       transform="scale(1,-1)"
       id="g76"><path
         inkscape:connector-curvature="0"
         id="path78"
         style="fill:none;stroke:#000000;stroke-width:2.27999997;stroke-linecap:butt;stroke-linejoin:miter;stroke-miterlimit:10;stroke-dasharray:none;stroke-opacity:1"
         d="M 60.664,-215.871 46.723,-234.602" /></g><g
       transform="scale(1,-1)"
       id="g80"><path
         inkscape:connector-curvature="0"
         id="path82"
         style="fill:none;stroke:#000000;stroke-width:2.27999997;stroke-linecap:butt;stroke-linejoin:miter;stroke-miterlimit:10;stroke-dasharray:none;stroke-opacity:1"
         d="M 73.742,-215.871 59.801,-234.602" /></g><g
       transform="scale(1,-1)"
       id="g84"><path
         inkscape:connector-curvature="0"
         id="path86"
         style="fill:none;stroke:#000000;stroke-width:2.27999997;stroke-linecap:butt;stroke-linejoin:miter;stroke-miterlimit:10;stroke-dasharray:none;stroke-opacity:1"
         d="m 52.121,-348.711 v -18.293" /></g><g
       transform="scale(1,-1)"
       id="g88"><path
         inkscape:connector-curvature="0"
         id="path90"
         style="fill:none;stroke:#000000;stroke-width:2.27999997;stroke-linecap:butt;stroke-linejoin:miter;stroke-miterlimit:10;stroke-dasharray:none;stroke-opacity:1"
         d="M 73.473,-367.434 H 32.32" /></g><g
       transform="scale(1,-1)"
       id="g92"><path
         inkscape:connector-curvature="0"
         id="path94"
         style="fill:none;stroke:#000000;stroke-width:2.27999997;stroke-linecap:butt;stroke-linejoin:miter;stroke-miterlimit:10;stroke-dasharray:none;stroke-opacity:1"
         d="M 32.582,-367.434 18.641,-386.16" /></g><g
       transform="scale(1,-1)"
       id="g96"><path
         inkscape:connector-curvature="0"
         id="path98"
         style="fill:none;stroke:#000000;stroke-width:2.27999997;stroke-linecap:butt;stroke-linejoin:miter;stroke-miterlimit:10;stroke-dasharray:none;stroke-opacity:1"
         d="M 46.504,-367.434 32.563,-386.16" /></g><g
       transform="scale(1,-1)"
       id="g100"><path
         inkscape:connector-curvature="0"
         id="path102"
         style="fill:none;stroke:#000000;stroke-width:2.27999997;stroke-linecap:butt;stroke-linejoin:miter;stroke-miterlimit:10;stroke-dasharray:none;stroke-opacity:1"
         d="M 60.422,-367.434 46.48,-386.16" /></g><g
       transform="scale(1,-1)"
       id="g104"><path
         inkscape:connector-curvature="0"
         id="path106"
         style="fill:none;stroke:#000000;stroke-width:2.27999997;stroke-linecap:butt;stroke-linejoin:miter;stroke-miterlimit:10;stroke-dasharray:none;stroke-opacity:1"
         d="M 73.504,-367.434 59.563,-386.16" /></g><g
       transform="scale(1,-1)"
       id="g108"><path
         inkscape:connector-curvature="0"
         id="path110"
         style="fill:#ffffff;fill-opacity:1;fill-rule:evenodd;stroke:#000000;stroke-width:2.27999997;stroke-linecap:butt;stroke-linejoin:miter;stroke-miterlimit:10;stroke-dasharray:none;stroke-opacity:1"
         d="m 32.684,-329.273 c 0,10.207 8.25,18.48 18.418,18.48 10.171,0 18.421,-8.273 18.421,-18.48 0,-10.207 -8.25,-18.481 -18.421,-18.481 -10.168,0 -18.418,8.274 -18.418,18.481 z" /></g><g
       transform="scale(1,-1)"
       id="g112"><path
         inkscape:connector-curvature="0"
         id="path114"
         style="fill:#ffffff;fill-opacity:1;fill-rule:evenodd;stroke:#000000;stroke-width:2.27999997;stroke-linecap:butt;stroke-linejoin:miter;stroke-miterlimit:10;stroke-dasharray:none;stroke-opacity:1"
         d="m 33.164,-178.613 c 0,10.172 8.25,18.422 18.418,18.422 10.172,0 18.422,-8.25 18.422,-18.422 0,-10.168 -8.25,-18.418 -18.422,-18.418 -10.168,0 -18.418,8.25 -18.418,18.418 z" /></g><g
       transform="scale(1,-1)"
       id="g116"><path
         inkscape:connector-curvature="0"
         id="path118"
         style="fill:#ffffff;fill-opacity:1;fill-rule:evenodd;stroke:#70ad47;stroke-width:2.27999997;stroke-linecap:butt;stroke-linejoin:miter;stroke-miterlimit:10;stroke-dasharray:none;stroke-opacity:1"
         d="m 178.363,-94.734 c 0,10.171 8.25,18.421 18.418,18.421 10.172,0 18.422,-8.25 18.422,-18.421 0,-10.168 -8.25,-18.418 -18.422,-18.418 -10.168,0 -18.418,8.25 -18.418,18.418 z" /></g><g
       id="g120"><g
         id="g122"><g
           clip-path="url(#clipPath128)"
           id="g124"><g
             id="g130"><text
   id="text134"
   style="font-variant:normal;font-weight:normal;font-size:27.98399925px;font-family:Calibri;-inkscape-font-specification:Calibri;writing-mode:lr-tb;fill:#7030a0;fill-opacity:1;fill-rule:nonzero;stroke:none"
   transform="translate(210.22215,13.062848)"><tspan
     id="tspan132"
     y="0"
     x="0">x</tspan></text>

</g></g></g></g><g
       id="g136"><g
         id="g138"><g
           clip-path="url(#clipPath144)"
           id="g140"><g
             id="g146"><text
   id="text150"
   style="font-variant:normal;font-weight:normal;font-size:18.74399948px;font-family:Calibri;-inkscape-font-specification:Calibri;writing-mode:lr-tb;fill:#7030a0;fill-opacity:1;fill-rule:nonzero;stroke:none"
   transform="translate(222.34215,19.902848)"><tspan
     id="tspan148"
     y="0"
     x="0">1</tspan></text>

</g></g></g></g><g
       id="g152"><g
         id="g154"><g
           clip-path="url(#clipPath160)"
           id="g156"><g
             id="g162"><text
   id="text166"
   style="font-variant:normal;font-weight:normal;font-size:27.95999527px;font-family:Calibri;-inkscape-font-specification:Calibri;writing-mode:lr-tb;fill:#000000;fill-opacity:1;fill-rule:nonzero;stroke:none"
   transform="translate(-0.477831,323.33283)"><tspan
     id="tspan164"
     y="0"
     x="0">A</tspan></text>

</g></g></g></g><g
       id="g168"><g
         id="g170"><g
           clip-path="url(#clipPath176)"
           id="g172"><g
             id="g178"><text
   id="text182"
   style="font-variant:normal;font-weight:normal;font-size:27.95999527px;font-family:Calibri;-inkscape-font-specification:Calibri;writing-mode:lr-tb;fill:#000000;fill-opacity:1;fill-rule:nonzero;stroke:none"
   transform="translate(8.162169,162.03284)"><tspan
     id="tspan180"
     y="0"
     x="0">B</tspan></text>

</g></g></g></g><g
       id="g184"><g
         id="g186"><g
           clip-path="url(#clipPath192)"
           id="g188"><g
             id="g194"><text
   id="text198"
   style="font-variant:normal;font-weight:normal;font-size:27.95999527px;font-family:Calibri;-inkscape-font-specification:Calibri;writing-mode:lr-tb;fill:#000000;fill-opacity:1;fill-rule:nonzero;stroke:none"
   transform="translate(230.72215,118.35284)"><tspan
     id="tspan196"
     y="0"
     x="0">C</tspan></text>

</g></g></g></g><g
       id="g200"><g
         id="g202"><g
           clip-path="url(#clipPath208)"
           id="g204"><g
             id="g210"><text
   id="text214"
   style="font-variant:normal;font-weight:normal;font-size:27.95999527px;font-family:Calibri;-inkscape-font-specification:Calibri;writing-mode:lr-tb;fill:#000000;fill-opacity:1;fill-rule:nonzero;stroke:none"
   transform="translate(71.162166,362.33283)"><tspan
     id="tspan212"
     y="0"
     x="0">0</tspan></text>

</g></g></g></g><g
       id="g216"><g
         id="g218"><g
           clip-path="url(#clipPath224)"
           id="g220"><g
             id="g226"><text
   id="text230"
   style="font-variant:normal;font-weight:normal;font-size:27.98399925px;font-family:Calibri;-inkscape-font-specification:Calibri;writing-mode:lr-tb;fill:#7030a0;fill-opacity:1;fill-rule:nonzero;stroke:none"
   transform="translate(133.32217,231.77283)"><tspan
     id="tspan228"
     y="0"
     x="0">1</tspan></text>

</g></g></g></g><g
       id="g232"><g
         id="g234"><g
           clip-path="url(#clipPath240)"
           id="g236"><g
             id="g242"><text
   id="text246"
   style="font-variant:normal;font-weight:normal;font-size:27.95999527px;font-family:Calibri;-inkscape-font-specification:Calibri;writing-mode:lr-tb;fill:#70ad47;fill-opacity:1;fill-rule:nonzero;stroke:none"
   transform="translate(111.44217,130.47284)"><tspan
     id="tspan244"
     y="0"
     x="0">2</tspan></text>

</g></g></g></g><path
       inkscape:connector-curvature="0"
       id="path248"
       style="fill:#7030a0;fill-opacity:1;fill-rule:nonzero;stroke:none"
       d="m 86.652,276.441 0.86,0.571 1.64,1.179 1.602,1.223 1.559,1.27 1.519,1.32 1.469,1.359 1.422,1.399 1.371,1.441 1.328,1.481 1.269,1.519 1.231,1.551 1.18,1.59 1.128,1.629 1.071,1.66 1.019,1.68 0.973,1.718 0.918,1.762 0.859,1.77 0.813,1.8 0.758,1.828 0.691,1.852 0.641,1.879 0.578,1.894 0.531,1.911 0.461,1.937 0.41,1.957 0.34,1.965 0.277,1.988 0.223,1.996 0.16,2.012 0.098,2.02 0.031,2.023 -1,0.016 -0.031,-2.02 v 0.02 l -0.098,-2.004 v 0.015 l -0.152,-1.996 v 0.016 l -0.219,-1.981 v 0.016 l -0.281,-1.969 v 0.012 l -0.34,-1.949 0.012,0.015 -0.41,-1.941 v 0.016 l -0.45,-1.922 v 0.015 l -0.519,-1.894 v 0.012 l -0.582,-1.883 0.011,0.015 -0.632,-1.863 v 0.024 l -0.688,-1.84 0.008,0.008 -0.75,-1.809 v 0.008 l -0.797,-1.778 0.008,0.008 -0.859,-1.758 0.007,0.008 -0.906,-1.738 0.008,0.019 -0.969,-1.71 0.008,0.019 -1.008,-1.68 v 0.02 l -1.062,-1.649 0.011,0.008 -1.121,-1.609 0.012,0.012 -1.172,-1.571 0.012,0.008 -1.219,-1.547 0.008,0.008 -1.258,-1.5 0.008,0.012 -1.32,-1.461 0.011,0.012 -1.359,-1.442 0.008,0.02 -1.41,-1.391 0.011,0.012 -1.449,-1.352 0.008,0.012 -1.508,-1.301 h 0.008 l -1.539,-1.262 0.008,0.012 -1.59,-1.211 0.012,0.012 -1.629,-1.172 0.007,0.012 -0.847,-0.582 z m 2.289,6.883 -3.39,-7.019 7.781,0.5 c 0.281,0.008 0.488,0.25 0.469,0.527 -0.02,0.27 -0.258,0.481 -0.528,0.461 l -6.929,-0.441 0.476,-0.719 3.024,6.262 c 0.117,0.238 0.019,0.539 -0.231,0.66 -0.25,0.117 -0.55,0.019 -0.672,-0.231 z" /><g
       id="g250"><g
         id="g252"><g
           clip-path="url(#clipPath258)"
           id="g254"><g
             id="g260"><text
   id="text264"
   style="font-variant:normal;font-weight:normal;font-size:27.95999527px;font-family:Calibri;-inkscape-font-specification:Calibri;writing-mode:lr-tb;fill:#7030a0;fill-opacity:1;fill-rule:nonzero;stroke:none"
   transform="translate(119.40217,311.76483)"><tspan
     id="tspan262"
     y="0"
     x="0">θ</tspan></text>

</g></g></g></g><g
       id="g266"><g
         id="g268"><g
           clip-path="url(#clipPath274)"
           id="g270"><g
             id="g276"><text
   id="text280"
   style="font-variant:normal;font-weight:normal;font-size:18.71999931px;font-family:Calibri;-inkscape-font-specification:Calibri;writing-mode:lr-tb;fill:#7030a0;fill-opacity:1;fill-rule:nonzero;stroke:none"
   transform="translate(134.28217,318.60483)"><tspan
     id="tspan278"
     y="0"
     x="0">1</tspan></text>

</g></g></g></g><path
       inkscape:connector-curvature="0"
       id="path282"
       style="fill:#70ad47;fill-opacity:1;fill-rule:nonzero;stroke:none"
       d="m 108.543,149.422 0.23,0.851 0.45,1.809 0.39,1.832 0.328,1.828 0.282,1.84 0.218,1.852 0.161,1.859 0.109,1.852 0.051,1.859 -0.008,1.859 -0.063,1.86 -0.121,1.859 -0.168,1.859 -0.238,1.852 -0.293,1.852 -0.348,1.828 -0.98,-0.192 0.34,-1.82 v 0.012 l 0.289,-1.828 v 0.007 l 0.23,-1.828 v 0.02 l 0.168,-1.852 v 0.02 l 0.121,-1.848 v 0.02 l 0.063,-1.852 v 0.02 l 0.008,-1.848 v 0.019 l -0.051,-1.851 v 0.019 l -0.109,-1.839 v 0.019 l -0.149,-1.84 v 0.012 l -0.223,-1.832 v 0.012 l -0.269,-1.821 v 0.012 l -0.328,-1.82 v 0.019 l -0.391,-1.808 v 0.008 l -0.441,-1.801 0.012,0.019 -0.243,-0.84 z m -2.742,6.723 1.992,-7.543 5.59,5.453 c 0.187,0.187 0.199,0.508 0,0.707 -0.192,0.199 -0.5,0.199 -0.699,0.011 l -4.973,-4.859 0.832,-0.23 -1.781,6.718 c -0.071,0.27 -0.34,0.43 -0.61,0.36 -0.269,-0.078 -0.422,-0.348 -0.351,-0.617 z" /><g
       id="g284"><g
         id="g286"><g
           clip-path="url(#clipPath292)"
           id="g288"><g
             id="g294"><text
   id="text298"
   style="font-variant:normal;font-weight:normal;font-size:27.95999527px;font-family:Calibri;-inkscape-font-specification:Calibri;writing-mode:lr-tb;fill:#70ad47;fill-opacity:1;fill-rule:nonzero;stroke:none"
   transform="translate(117.68217,167.16284)"><tspan
     id="tspan296"
     y="0"
     x="0">θ</tspan></text>

</g></g></g></g><g
       id="g300"><g
         id="g302"><g
           clip-path="url(#clipPath308)"
           id="g304"><g
             id="g310"><text
   id="text314"
   style="font-variant:normal;font-weight:normal;font-size:18.71999931px;font-family:Calibri;-inkscape-font-specification:Calibri;writing-mode:lr-tb;fill:#70ad47;fill-opacity:1;fill-rule:nonzero;stroke:none"
   transform="translate(132.56217,174.00284)"><tspan
     id="tspan312"
     y="0"
     x="0">2</tspan></text>

</g></g></g></g><g
       id="g316"><g
         id="g318"><g
           clip-path="url(#clipPath324)"
           id="g320"><g
             id="g326"><g
               transform="scale(1,-1)"
               id="g328"><path
                 inkscape:connector-curvature="0"
                 id="path330"
                 style="fill:none;stroke:#7030a0;stroke-width:2.25;stroke-linecap:butt;stroke-linejoin:miter;stroke-miterlimit:10;stroke-dasharray:none;stroke-opacity:1"
                 d="M 161.723,-153.324 62.133,-316.711" /></g></g></g></g></g><g
       id="g332"><g
         id="g334"><g
           clip-path="url(#clipPath340)"
           id="g336"><g
             id="g342"><g
               transform="scale(1,-1)"
               id="g344"><path
                 inkscape:connector-curvature="0"
                 id="path346"
                 style="fill:none;stroke:#7030a0;stroke-width:2.25;stroke-linecap:butt;stroke-linejoin:miter;stroke-miterlimit:10;stroke-dasharray:none;stroke-opacity:1"
                 d="m 202.063,-41.414 -60.899,-99.899" /></g></g></g></g></g><g
       id="g348"><g
         id="g350"><g
           clip-path="url(#clipPath356)"
           id="g352"><g
             id="g358"><g
               transform="scale(1,-1)"
               id="g360"><path
                 inkscape:connector-curvature="0"
                 id="path362"
                 style="fill:none;stroke:#7030a0;stroke-width:2.25;stroke-linecap:butt;stroke-linejoin:miter;stroke-miterlimit:10;stroke-dasharray:none;stroke-opacity:1"
                 d="m 181.273,-165.914 -40.293,25.101" /></g></g></g></g></g><g
       id="g364"><g
         id="g366"><g
           clip-path="url(#clipPath372)"
           id="g368"><g
             id="g374"><g
               transform="scale(1,-1)"
               id="g376"><path
                 inkscape:connector-curvature="0"
                 id="path378"
                 style="fill:none;stroke:#7030a0;stroke-width:2.25;stroke-linecap:butt;stroke-linejoin:miter;stroke-miterlimit:10;stroke-dasharray:none;stroke-opacity:1"
                 d="m 241.902,-66.922 -60.898,-99.902" /></g></g></g></g></g><text
       id="text382"
       style="font-variant:normal;font-weight:normal;font-size:29.99999809px;font-family:Arial;-inkscape-font-specification:ArialMT;writing-mode:lr-tb;fill:#000000;fill-opacity:1;fill-rule:nonzero;stroke:none"
       x="199.35739"
       y="346.27264"><tspan
         id="tspan380"
         y="346.27264"
         x="199.35739">x</tspan></text>
<text
       id="text386"
       style="font-variant:normal;font-weight:normal;font-size:19.5px;font-family:Arial;-inkscape-font-specification:ArialMT;writing-mode:lr-tb;fill:#000000;fill-opacity:1;fill-rule:nonzero;stroke:none"
       x="214.35739"
       y="352.27264"><tspan
         id="tspan384"
         y="352.27264"
         x="214.35739">0</tspan></text>
<text
       id="text390"
       style="font-variant:normal;font-weight:normal;font-size:29.99999809px;font-family:Arial;-inkscape-font-specification:ArialMT;writing-mode:lr-tb;fill:#000000;fill-opacity:1;fill-rule:nonzero;stroke:none"
       x="19.887732"
       y="29.294317"><tspan
         id="tspan388"
         y="29.294317"
         x="19.887732">y</tspan></text>
<text
       id="text394"
       style="font-variant:normal;font-weight:normal;font-size:19.5px;font-family:Arial;-inkscape-font-specification:ArialMT;writing-mode:lr-tb;fill:#000000;fill-opacity:1;fill-rule:nonzero;stroke:none"
       x="34.88773"
       y="35.294315"><tspan
         id="tspan392"
         y="35.294315"
         x="34.88773">0</tspan></text>
</g></svg>