<?xml version="1.0" encoding="UTF-8" standalone="no"?>
<!-- Created with Inkscape (http://www.inkscape.org/) -->

<svg
   xmlns:dc="http://purl.org/dc/elements/1.1/"
   xmlns:cc="http://creativecommons.org/ns#"
   xmlns:rdf="http://www.w3.org/1999/02/22-rdf-syntax-ns#"
   xmlns:svg="http://www.w3.org/2000/svg"
   xmlns="http://www.w3.org/2000/svg"
   xmlns:sodipodi="http://sodipodi.sourceforge.net/DTD/sodipodi-0.dtd"
   xmlns:inkscape="http://www.inkscape.org/namespaces/inkscape"
   version="1.1"
   id="svg2"
   width="508.12149"
   height="385.38364"
   viewBox="0 0 508.12149 385.38364"
   sodipodi:docname="user-manual_2.svg"
   inkscape:version="0.92.3 (2405546, 2018-03-11)">
  <metadata
     id="metadata8">
    <rdf:RDF>
      <cc:Work
         rdf:about="">
        <dc:format>image/svg+xml</dc:format>
        <dc:type
           rdf:resource="http://purl.org/dc/dcmitype/StillImage" />
        <dc:title></dc:title>
      </cc:Work>
    </rdf:RDF>
  </metadata>
  <defs
     id="defs6" />
  <sodipodi:namedview
     pagecolor="#ffffff"
     bordercolor="#666666"
     borderopacity="1"
     objecttolerance="10"
     gridtolerance="10"
     guidetolerance="10"
     inkscape:pageopacity="0"
     inkscape:pageshadow="2"
     inkscape:window-width="3110"
     inkscape:window-height="1697"
     id="namedview4"
     showgrid="false"
     inkscape:zoom="2.8157831"
     inkscape:cx="214.68166"
     inkscape:cy="254.91588"
     inkscape:window-x="90"
     inkscape:window-y="55"
     inkscape:window-maximized="1"
     inkscape:current-layer="svg2"
     showguides="false"
     fit-margin-top="0"
     fit-margin-left="0"
     fit-margin-right="0"
     fit-margin-bottom="0" />
  <path
     style="fill:none;fill-opacity:1;stroke:#e75623;stroke-width:21.36949348;stroke-linejoin:round;stroke-miterlimit:4.16666651;stroke-dasharray:none;stroke-dashoffset:0;stroke-opacity:1"
     d="m 467.9653,69.477953 h 6.33035 c 12.82017,0 23.1411,10.35041 23.1411,23.20721 V 351.49168 c 0,12.8568 -10.32093,23.20721 -23.1411,23.20721 H 33.825842 c -12.820167,0 -23.141095,-10.35041 -23.141095,-23.20721 V 92.685163 c 0,-12.8568 10.320928,-23.20721 23.141095,-23.20721 H 41.9479"
     id="rect828"
     inkscape:connector-curvature="0"
     sodipodi:nodetypes="cssssssssc" />
  <path
     style="fill:none;fill-opacity:1;stroke:#e75623;stroke-width:21.39999962;stroke-linecap:butt;stroke-linejoin:miter;stroke-miterlimit:4.16666651;stroke-dasharray:none;stroke-opacity:1"
     d="M 52.32975,32.427539 V 343.44719 c 0,0 59.5716,-19.74692 105.43039,-18.97747 47.01127,0.78878 89.10846,20.55893 98.05027,20.55893 6.85297,0 57.90657,-21.20636 99.10456,-20.55893 60.08325,0.94421 104.37609,24.77614 103.84894,21.08608 -0.52715,-3.69006 -0.52715,-311.546805 -0.52715,-311.546805 0,0 -47.97083,-21.61323 -91.19729,-22.140382 C 329.08369,11.405738 272.67926,32.427539 254.7561,31.900387 239.1873,31.442481 207.84937,12.675884 157.76014,10.814309 106.09046,8.893996 52.32975,32.427539 52.32975,32.427539 Z"
     id="path12"
     inkscape:connector-curvature="0"
     sodipodi:nodetypes="ccsssscsssc" />
  <path
     style="fill:none;stroke:#e75623;stroke-width:21.39999962;stroke-linecap:butt;stroke-linejoin:miter;stroke-miterlimit:4.16666651;stroke-dasharray:none;stroke-opacity:1"
     d="M 255.81041,32.427539 255.28325,343.97434"
     id="path16"
     inkscape:connector-curvature="0" />
  <path
     style="fill:none;stroke:#e75623;stroke-width:2.37100005;stroke-linecap:butt;stroke-linejoin:miter;stroke-miterlimit:4;stroke-dasharray:none;stroke-opacity:1"
     d="m 73.051276,66.196453 c 0,0 43.315454,-24.995795 84.859424,-23.256669 43.51428,1.821608 76.45238,23.256669 76.45238,23.256669"
     id="path853"
     inkscape:connector-curvature="0"
     sodipodi:nodetypes="csc" />
  <path
     style="fill:none;stroke:#e75623;stroke-width:2.37100005;stroke-linecap:butt;stroke-linejoin:miter;stroke-miterlimit:4;stroke-dasharray:none;stroke-opacity:1"
     d="m 73.051275,95.372373 c 0,0 43.315465,-24.99579 84.859435,-23.25667 43.51428,1.82161 76.45238,23.25667 76.45238,23.25667"
     id="path853-9"
     inkscape:connector-curvature="0"
     sodipodi:nodetypes="csc" />
  <path
     style="fill:none;stroke:#e75623;stroke-width:2.37100005;stroke-linecap:butt;stroke-linejoin:miter;stroke-miterlimit:4;stroke-dasharray:none;stroke-opacity:1"
     d="m 73.051275,124.54831 c 0,0 43.315465,-24.995787 84.859435,-23.25667 43.51428,1.82161 76.45238,23.25667 76.45238,23.25667"
     id="path853-0"
     inkscape:connector-curvature="0"
     sodipodi:nodetypes="csc" />
  <path
     style="fill:none;stroke:#e75623;stroke-width:2.37100005;stroke-linecap:butt;stroke-linejoin:miter;stroke-miterlimit:4;stroke-dasharray:none;stroke-opacity:1"
     d="m 73.051275,153.72424 c 0,0 43.315465,-24.99579 84.859435,-23.25667 43.51428,1.82161 76.45238,23.25667 76.45238,23.25667"
     id="path853-4"
     inkscape:connector-curvature="0"
     sodipodi:nodetypes="csc" />
  <path
     style="fill:none;stroke:#e75623;stroke-width:2.37100005;stroke-linecap:butt;stroke-linejoin:miter;stroke-miterlimit:4;stroke-dasharray:none;stroke-opacity:1"
     d="m 73.051275,182.90017 c 0,0 43.315465,-24.99579 84.859435,-23.25667 43.51428,1.82161 76.45238,23.25667 76.45238,23.25667"
     id="path853-01"
     inkscape:connector-curvature="0"
     sodipodi:nodetypes="csc" />
  <path
     style="fill:none;stroke:#e75623;stroke-width:2.37100005;stroke-linecap:butt;stroke-linejoin:miter;stroke-miterlimit:4;stroke-dasharray:none;stroke-opacity:1"
     d="m 73.051275,212.07612 c 0,0 43.315465,-24.99579 84.859435,-23.25667 43.51428,1.82161 76.45238,23.25667 76.45238,23.25667"
     id="path853-3"
     inkscape:connector-curvature="0"
     sodipodi:nodetypes="csc" />
  <path
     style="fill:none;stroke:#e75623;stroke-width:2.37100005;stroke-linecap:butt;stroke-linejoin:miter;stroke-miterlimit:4;stroke-dasharray:none;stroke-opacity:1"
     d="m 73.051275,241.25204 c 0,0 43.315465,-24.99579 84.859435,-23.25667 43.51428,1.82161 76.45238,23.25667 76.45238,23.25667"
     id="path853-7"
     inkscape:connector-curvature="0"
     sodipodi:nodetypes="csc" />
  <path
     style="fill:none;stroke:#e75623;stroke-width:2.37100005;stroke-linecap:butt;stroke-linejoin:miter;stroke-miterlimit:4;stroke-dasharray:none;stroke-opacity:1"
     d="m 73.051275,270.42798 c 0,0 43.315465,-24.99579 84.859435,-23.25667 43.51428,1.82161 76.45238,23.25667 76.45238,23.25667"
     id="path853-41"
     inkscape:connector-curvature="0"
     sodipodi:nodetypes="csc" />
  <path
     style="fill:none;stroke:#e75623;stroke-width:2.37100005;stroke-linecap:butt;stroke-linejoin:miter;stroke-miterlimit:4;stroke-dasharray:none;stroke-opacity:1"
     d="m 73.051275,299.60391 c 0,0 43.315465,-24.99579 84.859435,-23.25667 43.51428,1.82161 76.45238,23.25667 76.45238,23.25667"
     id="path853-1"
     inkscape:connector-curvature="0"
     sodipodi:nodetypes="csc" />
  <path
     style="fill:none;stroke:#e75623;stroke-width:2.37100005;stroke-linecap:butt;stroke-linejoin:miter;stroke-miterlimit:4;stroke-dasharray:none;stroke-opacity:1"
     d="m 275.81348,67.697503 c 0,0 43.31546,-24.995798 84.85943,-23.256668 43.51427,1.8216 76.45237,23.256668 76.45237,23.256668"
     id="path853-11"
     inkscape:connector-curvature="0"
     sodipodi:nodetypes="csc" />
  <path
     style="fill:none;stroke:#e75623;stroke-width:2.37100005;stroke-linecap:butt;stroke-linejoin:miter;stroke-miterlimit:4;stroke-dasharray:none;stroke-opacity:1"
     d="m 275.81348,96.873423 c 0,0 43.31547,-24.99579 84.85944,-23.25667 43.51427,1.82161 76.45237,23.25667 76.45237,23.25667"
     id="path853-9-0"
     inkscape:connector-curvature="0"
     sodipodi:nodetypes="csc" />
  <path
     style="fill:none;stroke:#e75623;stroke-width:2.37100005;stroke-linecap:butt;stroke-linejoin:miter;stroke-miterlimit:4;stroke-dasharray:none;stroke-opacity:1"
     d="m 275.81348,126.04936 c 0,0 43.31547,-24.99579 84.85944,-23.25667 43.51427,1.82161 76.45237,23.25667 76.45237,23.25667"
     id="path853-0-3"
     inkscape:connector-curvature="0"
     sodipodi:nodetypes="csc" />
  <path
     style="fill:none;stroke:#e75623;stroke-width:2.37100005;stroke-linecap:butt;stroke-linejoin:miter;stroke-miterlimit:4;stroke-dasharray:none;stroke-opacity:1"
     d="m 275.81348,155.22528 c 0,0 43.31547,-24.99578 84.85944,-23.25666 43.51427,1.82161 76.45237,23.25666 76.45237,23.25666"
     id="path853-4-0"
     inkscape:connector-curvature="0"
     sodipodi:nodetypes="csc" />
  <path
     style="fill:none;stroke:#e75623;stroke-width:2.37100005;stroke-linecap:butt;stroke-linejoin:miter;stroke-miterlimit:4;stroke-dasharray:none;stroke-opacity:1"
     d="m 275.81348,184.40121 c 0,0 43.31547,-24.99579 84.85944,-23.25667 43.51427,1.82161 76.45237,23.25667 76.45237,23.25667"
     id="path853-01-0"
     inkscape:connector-curvature="0"
     sodipodi:nodetypes="csc" />
  <path
     style="fill:none;stroke:#e75623;stroke-width:2.37100005;stroke-linecap:butt;stroke-linejoin:miter;stroke-miterlimit:4;stroke-dasharray:none;stroke-opacity:1"
     d="m 275.81348,213.57716 c 0,0 43.31547,-24.99579 84.85944,-23.25667 43.51427,1.82161 76.45237,23.25667 76.45237,23.25667"
     id="path853-3-4"
     inkscape:connector-curvature="0"
     sodipodi:nodetypes="csc" />
  <path
     style="fill:none;stroke:#e75623;stroke-width:2.37100005;stroke-linecap:butt;stroke-linejoin:miter;stroke-miterlimit:4;stroke-dasharray:none;stroke-opacity:1"
     d="m 275.81348,242.75308 c 0,0 43.31547,-24.99579 84.85944,-23.25667 43.51427,1.82161 76.45237,23.25667 76.45237,23.25667"
     id="path853-7-5"
     inkscape:connector-curvature="0"
     sodipodi:nodetypes="csc" />
  <path
     style="fill:none;stroke:#e75623;stroke-width:2.37100005;stroke-linecap:butt;stroke-linejoin:miter;stroke-miterlimit:4;stroke-dasharray:none;stroke-opacity:1"
     d="m 275.81348,271.92902 c 0,0 43.31547,-24.99579 84.85944,-23.25667 43.51427,1.82161 76.45237,23.25667 76.45237,23.25667"
     id="path853-41-4"
     inkscape:connector-curvature="0"
     sodipodi:nodetypes="csc" />
  <path
     style="fill:none;stroke:#e75623;stroke-width:2.37100005;stroke-linecap:butt;stroke-linejoin:miter;stroke-miterlimit:4;stroke-dasharray:none;stroke-opacity:1"
     d="m 275.81348,301.10495 c 0,0 43.31547,-24.99579 84.85944,-23.25667 43.51427,1.82161 76.45237,23.25667 76.45237,23.25667"
     id="path853-1-2"
     inkscape:connector-curvature="0"
     sodipodi:nodetypes="csc" />
</svg>
