<?xml version="1.0" encoding="UTF-8" standalone="no"?>
<!-- Created with Inkscape (http://www.inkscape.org/) -->

<svg
   xmlns:dc="http://purl.org/dc/elements/1.1/"
   xmlns:cc="http://creativecommons.org/ns#"
   xmlns:rdf="http://www.w3.org/1999/02/22-rdf-syntax-ns#"
   xmlns:svg="http://www.w3.org/2000/svg"
   xmlns="http://www.w3.org/2000/svg"
   xmlns:sodipodi="http://sodipodi.sourceforge.net/DTD/sodipodi-0.dtd"
   xmlns:inkscape="http://www.inkscape.org/namespaces/inkscape"
   version="1.1"
   id="svg815"
   xml:space="preserve"
   width="206.95206"
   height="129.3588"
   viewBox="0 0 206.95206 129.35879"
   sodipodi:docname="Asemblage_pignon_vierge.svg"
   inkscape:version="0.92.4 (5da689c313, 2019-01-14)"><metadata
     id="metadata821"><rdf:RDF><cc:Work
         rdf:about=""><dc:format>image/svg+xml</dc:format><dc:type
           rdf:resource="http://purl.org/dc/dcmitype/StillImage" /><dc:title></dc:title></cc:Work></rdf:RDF></metadata><defs
     id="defs819" /><sodipodi:namedview
     pagecolor="#ffffff"
     bordercolor="#666666"
     borderopacity="1"
     objecttolerance="10"
     gridtolerance="10"
     guidetolerance="10"
     inkscape:pageopacity="0"
     inkscape:pageshadow="2"
     inkscape:window-width="1366"
     inkscape:window-height="705"
     id="namedview817"
     showgrid="false"
     fit-margin-top="0"
     fit-margin-left="0"
     fit-margin-right="0"
     fit-margin-bottom="0"
     inkscape:snap-global="false"
     inkscape:zoom="2.9384433"
     inkscape:cx="88.83223"
     inkscape:cy="66.206424"
     inkscape:window-x="-8"
     inkscape:window-y="-8"
     inkscape:window-maximized="1"
     inkscape:current-layer="g823" /><g
     id="g823"
     inkscape:groupmode="layer"
     inkscape:label="Asemblage_pignon"
     transform="matrix(1.3333333,0,0,-1.3333333,-286.86066,967.54604)"><g
       id="g995"
       transform="translate(334.6,694.9)"><path
         d="M 0,0 1.4,1.4 M -6.3,0 1.4,7.7 M -12.7,0 1.4,14.1 M -19.1,0 1.4,20.4 M -25.4,0 1.4,26.8 M -31.8,0 l 24,24 m 1.2,1.2 5.2,5.2 M -38.1,0 -12.9,25.2 M -44.5,0 -15.4,29.1 M -50.9,0 -40.3,10.6 m 2,2 11.1,11.1 m -25.3,-18.9 5.8,5.8 m 8.4,8.3 7.2,7.2 m -7.2,-0.8 4.5,4.5 m -18.7,-63.2 1.5,1.5 m -1.5,-7.9 7.9,7.9 m -7.9,-14.2 14.2,14.2 m -7.8,-14.2 14.2,14.2 m -7.8,-14.2 14.2,14.2 m -12.8,-19.2 19.1,19.2 m -19.1,-25.5 25.5,25.5 m -25.4,-31.8 31.8,31.8 m -27.6,-33.9 5.9,5.9 28,28 m -22.3,-28.6 23.8,23.7 m -21.3,-27.6 21.3,21.2 m -9.6,-15.9 9.6,9.5 m -16.3,-16.2 0.8,0.7 m 9.9,3.6 5.6,5.6 m -2.9,-9.3 2.9,2.9 m 34,55.1 -3.7,3.6 m 3.7,-10 -5.7,5.7 m 5.7,-12 -5.7,5.6 m 5.7,-12 -5.7,5.7 m 3.9,-10.3 -3.9,3.9 M 4.2,-7.8 -0.1,-3.6 m 4.3,-10.6 -6.4,6.4 M 4.2,-20.6 -8.6,-7.8 M 4.2,-26.9 -14.9,-7.8 M 2.8,-31.9 -21.3,-7.8 M -3.6,-31.9 -27.7,-7.8 M -9.9,-31.9 -34,-7.8 m 17.7,-24.1 -24.1,24.1 m -12.1,12.1 -6.3,6.3 M -22.7,-31.9 -51,-3.6 m -1.5,1.5 -11.2,11.2 m 34.7,-41 -36.4,36.3 m 30,-36.3 L -68,0.7 m 26.2,-32.6 -29.1,29.1 m 22.8,-29.1 -25.5,25.5 m 21.1,-27.5 -23.2,23.2 m 23.2,-29.5 -22.7,22.7 m 22.2,-28.6 -16,16 m 9.6,-16 -8.8,8.8 m 2.4,-8.8 -3.4,3.5 M 4.2,4.9 2,7.1 M 4.2,-1.5 1.4,1.4 m 2.8,-34.7 -0.7,0.7 m 0.7,-7.1 -2.8,2.9"
         style="fill:none;stroke:#000000;stroke-width:0.50999999;stroke-linecap:round;stroke-linejoin:round;stroke-miterlimit:10;stroke-dasharray:none;stroke-opacity:1"
         id="path997"
         inkscape:connector-curvature="0" /></g><g
       id="g999"
       transform="translate(333.1,691.3)"><path
         d="m 0,0 v 2.9 m -43.9,0 V 0 M 2.9,-38.9 h 2.8 m 0,49.6 H 2.9 M -51,14.2 h -63.9 m 1,-56.7 H -51 M -43.9,0 H -51 M 34,0 H 31.2 M 5.7,0 H 0 m 2.9,-28.3 h 2.8 m 25.5,0 H 34 m 0,0 2.9,2.8 m 0,22.7 L 34,0 m -48,34 h -0.4 -0.8 -0.4 -0.6 -0.8 -0.9 m -13.8,0 h -0.1 -0.7 -0.5 -0.7 -0.9 -0.8 M 2.9,34 H 2.1 1.3 -0.4 m -17.7,-96.3 h 1.9 l 1.9,0.1 m -21.3,-0.1 h 0.3 m 0.2,0 h 1.4 l 1.7,0.1 m 31.6,-0.1 h 0.1 0.9 0.7 0.6 m 0.6,0 H 2.9 M -36.8,14.2 H -51 m 0,-56.7 h 14.2 m 65.2,3.8 2.8,4.9 m 0,39.3 -2.8,4.9 M 8.5,10.4 5.7,5.5 m 0,-39.3 2.8,-4.9 M 0,2.9 v -7.1 m 0,7.1 v 0 m -43.9,0 v -7.1 m 0,7.1 v 0 m 0,0 H 0 M -43.9,-4.2 H 0 m 2.9,14.9 h 2.8 m 0,-49.6 H 2.9 m 0,49.6 v 0 m 2.8,-49.6 v 0 m 0,49.6 v 0 M 2.9,0.7 H 5.7 M 5.7,-29 H 2.9 m 0,29.1 v 0.2 0.3 0.1 m 0,-39.6 v 9.9 m 2.8,-9.9 v 5.1 M 2.9,0.7 v 10 M 5.7,5.5 v 5.2 M -51,-42.5 h -17.7 m 17.7,0 v 0 m 0,56.7 v 0 m -11.4,0 H -51 m -17.7,-56.7 0.1,0.2 0.1,0.6 0.3,0.9 0.3,1.2 0.4,1.5 0.4,1.8 0.3,1.6 0.2,1.8 v 1.9 l -0.3,2.3 -0.7,2.4 -1.1,2.4 -1.2,2.4 -1.3,2.3 -1,1.8 -0.9,1.8 -0.7,1.9 -0.5,1.7 -0.2,1.7 v 1.8 l 0.4,1.7 1,2.2 1.2,2 1.6,2.3 1.7,2.1 1.6,2 1.5,1.9 1,1.4 0.9,1.4 0.6,1.3 0.5,1.1 0.2,1 0.1,0.8 v 0.8 l -0.1,0.5 -0.1,0.2 m -52.5,0 -0.1,-0.1 -0.4,-0.2 -0.6,-0.6 -0.5,-0.6 -0.5,-0.6 -0.3,-0.7 -0.1,-0.5 v -0.6 l 0.2,-0.6 0.4,-0.9 0.5,-0.9 0.8,-1.2 1.4,-1.8 1,-1.5 0.9,-1.5 0.7,-1.2 0.7,-1.8 0.3,-1.7 0.1,-1.2 -0.2,-1.3 -0.3,-1.3 -0.6,-1.8 -0.7,-1.6 -1,-2.1 -1.3,-2.5 -0.9,-1.9 -0.8,-1.8 -0.6,-1.5 -0.5,-2.2 -0.3,-2.3 0.1,-2.2 0.5,-2.1 0.5,-1.2 0.5,-1.2 0.7,-1.7 0.7,-1.5 0.5,-1.2 0.5,-1.5 0.2,-1 0.1,-0.8 v -0.8 -0.6 l -0.1,-0.6 -0.1,-0.7 -0.2,-0.6 -0.1,-0.2 v -0.2 l -0.1,-0.1 M 34,-28.3 h -2.8 m -25.5,0 H -51 M 34,0 v 0 m 0,-28.3 v 0 M 0,0 H 5.7 M 31.2,0 H 34 M 0,0 V 0 M -43.9,0 V 0 M -51,0 h 7.1 M 0,0 v -4.2 m -43.9,0 V 0 M 36.9,-2.8 34,0 m 0,-28.3 2.9,2.8 m 0,0 v 0 m 0,22.7 v 0 M 0,-4.2 h -43.9 m 80.8,1.4 V -25.5 M -51,-28.3 v -14.2 m 0,56.7 V 0 M 2.9,32.5 V 30.4 29 27.5 26.8 26.1 25.7 25.4 25.1 24.9 m -30.1,2.4 2.2,0.1 0.9,0.2 0.7,0.3 0.4,0.4 0.2,0.4 0.2,0.4 0.4,1 0.6,0.9 1.3,1.5 1.5,1.5 M 2.9,33.9 v -2 -1.3 -1.4 -0.7 -0.7 -0.3 -0.3 -0.2 m -4,7 h 0.8 m -9.3,-6.7 h 1.8 l 0.8,0.1 0.9,0.3 0.5,0.3 0.4,0.5 0.4,1.1 0.6,1 1.4,1.8 1.7,1.6 m -35.7,-87 v -0.4 -0.3 -0.4 -0.5 -0.6 -1.9 -2 -1.4 m 30.6,5 -0.8,-0.1 -0.8,-0.1 -0.8,-0.4 -0.3,-0.2 -0.5,-0.7 -0.3,-0.8 -0.4,-0.7 -1.1,-1.4 -1.1,-1.2 -1.1,-1.1 m 6.9,6.7 h 0.3 m -30.6,0.4 v -0.2 -0.3 -0.4 -0.5 -0.5 -1 -0.9 -1.9 -1.3 m 12.9,6.6 h -0.6 l -1.2,-0.3 -0.7,-0.3 -0.5,-0.6 -0.3,-0.6 -0.2,-0.6 -0.6,-0.9 -0.7,-0.9 -1.1,-1.3 -1.2,-1.2 m -5.8,4.3 v 0.6 0.6 1 0.6 0.5 0.8 0.4 0.3 0.2 m 0,0 v 0 -0.1 m 37.3,-9.3 -0.2,0.3 -1.3,1.6 -0.8,1.1 -0.8,1.2 -0.7,1.3 -0.5,0.6 -0.6,0.4 -1.2,0.3 h -0.6 m -6.7,-6.2 1.9,-0.2 4.6,-0.2 4.7,-0.2 h 2.2 m -37.3,1.2 v 0.7 0.8 1.2 1.2 0.9 0.5 0.4 0.2 0.1 m 0,0 v 0 m 19.7,-7.2 -1,1.2 -1,1.2 -1.3,2.1 -0.6,1.1 -0.4,0.6 -0.6,0.3 -0.7,0.2 -0.7,0.1 h -0.5 m -6.6,-6.2 1.9,-0.2 6.5,-0.3 5,-0.1 m 20,87.2 v 0.4 0.5 1.1 1.2 1 0.8 M -33,34 l 1.2,-1.1 1,-1.2 0.8,-1.3 0.7,-1.3 0.6,-0.7 0.7,-0.6 0.8,-0.5 M -33,34 h 1.1 2.3 l 2.3,-0.1 4.2,-0.2 3.7,-0.3 M 2.9,26.9 v 0.6 0.6 1.3 1.3 1.2 1.1 m -18.2,1 1.2,-1.1 1,-1.2 0.7,-1.3 0.8,-1.3 0.5,-0.7 0.7,-0.6 0.8,-0.5 m -5.7,6.7 5.2,-0.1 3.2,-0.1 3.2,-0.2 2,-0.2 M 2.9,33 V 32.5 M -15.3,34 h -3.5 m -17.7,0 h 1.1 M 2.9,29.9 V 29.1 M -33,34 h -3.5 m 39.4,0 v 0 m -0.6,0 h 0.6 m -0.6,0 h -1.4 -2 m 3.4,0 0.6,-0.3 M 2.9,3.6 V 34 M 2.9,3.6 H -51 m 0,10.6 V 3.6 m 0,10.6 h 7.1 7.1 m 0,0 v 19.6 m 0,0 0.3,0.2 M 2.9,-28.3 v 0 M 2.9,0 v 0.1 m 0,29 v -2.2 -1.4 -1.4 -0.7 -0.7 -0.4 -0.4 -0.4 -0.3 m 0,-0.1 v 0.3 0.4 0.9 0.9 0.8 0.6 m 0,0 v -1.3 m 0,0 v -1.1 -1 -1.4 -0.6 -0.7 -0.6 -0.3 -0.4 -0.4 -0.4 -0.3 -0.2 -0.4 m 0,0 v 0 m 0,0 v 0.3 0.3 0.3 0.7 0.3 0.2 0.2 0.1 m 0,0 v -1.6 m 0,0 v -1 -1 -1.2 -0.6 -0.6 -0.5 -0.3 -0.3 -0.4 -0.1 m 0,-49.6 v -0.8 m 0,0 v 0.1 0.1 0.3 0.2 0.1 m 0,-0.1 v 0 -0.4 m 0,0 v -0.8 -0.8 -1.2 -1.2 -1.3 -1.4 m 0,0 v -1.5 m 0,0 v 0.3 0.3 0.6 0.3 0.4 0.5 0.2 0.1 m 0,0 v 0 -0.1 -0.1 -0.2 -0.4 m 0,0 v -0.8 -0.8 -0.7 -0.7 -1.3 -0.7 -0.7 -0.7 -0.8 m 0,0 v -1.2 m 0,0.1 v 0.5 0.5 0.8 0.5 0.5 0.5 0.3 0.2 0.1 m 0,0 v 0 -0.1 -0.1 -0.3 m 0,0 v -0.8 -0.8 -0.7 -0.7 -1.5 -0.7 -0.7 -0.7 -0.8 m 0,0 v -0.8 m 0,0.1 v 0.6 0.6 1.1 1.1 0.8 0.4 0.3 0.2 m 0,0 v 0 -0.1 m 0,0 v -0.1 -0.1 -0.4 -0.4 -0.4 -0.5 -1 -0.6 -0.5 -1.1 -1 -1.4 m 0,0.1 v -0.4 m 0,0 v 0.8 0.8 1.2 1.3 0.9 0.4 0.4 0.2 0.1 m 0,0 v 0 m 0,0 v 0 -0.1 -0.2 -0.4 -0.4 -0.5 -1 -0.6 -0.5 -1 -0.9 -1.3 m 0,0 v 0 m 0,0 v 34 m -39.7,-32.2 v -0.6 m 19.7,-1.2 3.7,0.1 m -23.4,0 v -0.1 m -0.1,0 h 0.9 0.9 0.5 m 0,0 3.6,0.1 m -5.8,5.3 v -0.9 m 37.3,-4.5 h 2.4 m -39.7,0 v 1.7 0.6 m 2.2,-2.3 -0.6,0.7 -0.6,0.7 -0.6,0.6 -0.4,0.3 m 0,93.8 v -0.7 -1 -1.3 -0.7 -0.7 -0.9 -0.3 -0.2 -0.4 -0.2 -0.1 -0.1 m 0,-76.4 v -0.2 -0.3 -0.4 -0.4 -0.5 -0.5 -1 -0.9 -2 -1.5 m 0,4.2 v 0.4 0.5 0.7 0.9 0.6 0.3 0.3 -0.2 m 0,-2.2 v -1.3 m 0,8.9 v -0.3 -0.3 -0.5 -0.4 -0.5 -0.5 -0.8 -0.4 -0.5 -1 -0.9 -1.5 m 0,5.5 v 0.2 0.3 0.5 0.6 0.5 0.2 0.1 -0.1 -0.3 m 0,-0.3 v -1.6 m 0,3.3 v -1 -0.7 m 0,62.8 v -1.1 -1 -1.3 -1 m 0,5.9 v -1.5 m 0,-1.4 v 0.1 0.1 0.2 0.5 0.1 0.3 0.2 0.2 0.5 0.1 0.2 0.1 0.1 0.1 m 0,5.2 V 24.1 23 21.7 21 20.3 19.6 19.3 19 18.6 18.2 17.9 17.7 17.3 m 0,9 v -1.1 m 0,-3.1 v 0.3 0.4 0.9 1.3 1 0.3 m 0,3.8 V 29 28 26.5 25.8 25.1 24.3 24 23.7 23.3 22.9 22.7 22.5 22.3 m 0,8.6 v -0.8 m 0,-4.6 v 0.4 0.6 1.1 1 0.9 0.9 0.4 m 0,2.3 V 32.1 31 29.6 28.2 27.3 27 26.7 26.3 26 25.9 25.7 25.6 m 0,7.8 v -0.3 m 0,-6 v 0.5 0.7 1.3 1.1 1.1 1 0.5 m 0,-19.1 v 0 m 0,-56.7 v 0 m 0,-17.5 v 17.5 m 0,0 h -7.1 -7.1 m 0,14.2 V -42.5 M 2.9,-28.3 H -51 m 0,42.5 v 0 m 0,-56.7 v 0 m 82.2,38.2 v 1.4 1.3 1.2 1.2 1 0.9 0.8 0.7 0.5 0.4 0.3 0.1 m 0,-39.3 v 0.1 0.1 0.3 0.5 0.6 0.7 0.8 0.9 1.1 1.2 1.2 1.4 1.4 1.5 1.6 1.6 1.6 1.7 1.6 1.7 1.7 1.6 1.6 1.5 1.5 M 28.4,10.4 29.2,8.9 29.7,7.5 30.1,6.2 30.2,4.9 V 3.6 L 30.1,2.3 29.7,1 29.1,-0.4 28.4,-1.9 m 0,-24.5 0.8,-1.5 0.5,-1.4 0.4,-1.4 0.1,-1.3 v -1.2 l -0.1,-1.3 -0.4,-1.3 -0.6,-1.4 -0.7,-1.5 m 0,36.8 0.8,-3 0.5,-2.8 0.4,-2.7 0.1,-2.6 v -2.5 l -0.1,-2.5 -0.4,-2.7 -0.6,-2.7 -0.7,-3 M 5.7,-4.3 v -1.5 -1.5 -1.6 -1.6 -1.7 -1.7 -1.6 -1.7 -1.6 -1.6 -1.6 -1.5 -1.4 -1.4 -1.2 -1.2 -1.1 -0.9 -0.8 -0.7 -0.6 -0.5 -0.3 -0.1 -0.1 m 0,39.3 V 5.5 5.4 5.1 4.7 4.2 3.5 2.7 1.8 0.8 -0.4 -1.6 -2.9 -4.3 m 2.8,-34.4 -0.8,1.5 -0.5,1.4 -0.4,1.4 -0.1,1.3 v 1.2 l 0.1,1.3 0.4,1.3 0.6,1.4 0.7,1.5 M 8.5,-1.9 7.7,-0.3 7.2,1.1 6.8,2.4 6.7,3.7 V 5 l 0.1,1.2 0.4,1.3 0.6,1.4 0.7,1.5 m 0,-36.8 -0.8,3 -0.5,2.8 -0.4,2.7 -0.1,2.6 v 2.5 l 0.1,2.6 0.4,2.6 0.6,2.8 0.7,2.9 m 19.9,0 H 8.5 M 28.4,-26.4 H 8.5 M 28.4,10.4 H 8.5 M 28.4,-38.7 H 8.5"
         style="fill:none;stroke:#000000;stroke-width:0.70899999;stroke-linecap:round;stroke-linejoin:round;stroke-miterlimit:10;stroke-dasharray:none;stroke-opacity:1"
         id="path1001"
         inkscape:connector-curvature="0" /></g><path
       style="fill:none;stroke:#000000;stroke-width:0.46771654;stroke-linecap:butt;stroke-linejoin:miter;stroke-miterlimit:4;stroke-dasharray:none;stroke-opacity:1"
       d="m 334.48331,690.07405 4.08087,0"
       id="path1006"
       inkscape:connector-curvature="0"
       sodipodi:nodetypes="cc" /><path
       style="fill:none;stroke:#000000;stroke-width:0.46771655;stroke-linecap:butt;stroke-linejoin:miter;stroke-opacity:1;stroke-miterlimit:4;stroke-dasharray:none"
       d="M 334.5,691.3 V 663"
       id="path1012"
       inkscape:connector-curvature="0" /><path
       style="fill:none;stroke:#000000;stroke-width:0.46771654;stroke-linecap:butt;stroke-linejoin:miter;stroke-miterlimit:4;stroke-dasharray:none;stroke-opacity:1"
       d="m 334.42817,664.26532 h 4.08087"
       id="path1006-8"
       inkscape:connector-curvature="0"
       sodipodi:nodetypes="cc" /><path
       style="fill:none;stroke:#000000;stroke-width:0.46771654;stroke-linecap:butt;stroke-linejoin:miter;stroke-miterlimit:4;stroke-dasharray:none;stroke-opacity:1"
       d="m 364.42817,664.26532 h 4.08087"
       id="path1006-8-3"
       inkscape:connector-curvature="0"
       sodipodi:nodetypes="cc" /><path
       style="fill:none;stroke:#000000;stroke-width:0.46771654;stroke-linecap:butt;stroke-linejoin:miter;stroke-miterlimit:4;stroke-dasharray:none;stroke-opacity:1"
       d="m 364.06418,690.07405 h 4.08087"
       id="path1006-8-3-8"
       inkscape:connector-curvature="0"
       sodipodi:nodetypes="cc" /><rect
       style="opacity:1;fill:#ffffee;fill-opacity:1;stroke:#000000;stroke-width:0.75118113;stroke-miterlimit:4;stroke-dasharray:none;stroke-dashoffset:0;stroke-opacity:1"
       id="rect1059"
       width="1.8047895"
       height="1.6017596"
       x="280.26334"
       y="-692.92761"
       transform="scale(1,-1)" /><rect
       style="opacity:1;fill:#ffffee;fill-opacity:1;stroke:#000000;stroke-width:0.75118107;stroke-miterlimit:4;stroke-dasharray:none;stroke-dashoffset:0;stroke-opacity:1"
       id="rect1059-7"
       width="1.8047894"
       height="1.6017594"
       x="280.25381"
       y="-662.97308"
       transform="scale(1,-1)" /><path
       style="fill:#ffffee;fill-opacity:1;stroke:none;stroke-width:0.31696334px;stroke-linecap:butt;stroke-linejoin:miter;stroke-opacity:1"
       d="m 363.13757,705.12841 c -20.01664,17.55564 -18.14221,4.01352 -26.36541,4.55495 -10.17091,0.66968 -14.69336,-4.8179 -20.59127,-5.48304 -7.59418,-0.8564 -19.87039,9.71374 -23.32837,3.34651 -3.458,-6.36725 0.65623,-0.41684 -7.74886,-5.35149 -8.4051,-4.93465 -10.35145,-7.07888 -10.56346,-17.79719 -0.212,-10.71826 1.37919,-26.32028 2.52729,-30.1795 1.14813,-3.85924 -2.4706,-3.67153 6.2836,-11.54656 5.75791,-5.17967 20.40081,-1.02549 30.38322,0.56006 9.98247,1.58552 14.12672,-6.80331 16.3295,-4.42576 2.20279,2.37756 4.96539,3.60869 8.61784,5.39996 3.65244,1.79125 12.85111,-13.32638 18.77342,-4.6811 5.92231,8.6453 7.95355,6.77557 8.522,13.73652 0.56842,6.96096 3.17849,7.71509 1.62025,17.65474 -1.55819,9.93965 -1.37576,29.04221 -4.45975,34.2119 z"
       id="path1089-8"
       inkscape:connector-curvature="0"
       sodipodi:nodetypes="csssssssscssssc" /></g></svg>